<svg width="131" height="50" viewBox="0 0 131 50" fill="none" xmlns="http://www.w3.org/2000/svg">
<g id="Group 48095698">
<path id="Vector" d="M53.9586 21.9363C53.9586 21.9363 53.8639 22.1137 53.5916 22.3735C53.3193 22.6333 52.9878 22.9248 52.5675 23.248C51.8572 23.831 51.4192 24.2238 51.2416 24.4266C51.064 24.6294 51.0877 24.7054 51.3067 24.6484C51.4132 24.5914 51.4724 24.604 51.4724 24.6928C51.4724 24.7498 51.3363 24.9082 51.064 25.149C50.7917 25.3961 50.5017 25.6623 50.1879 25.9538C49.8742 26.2452 49.5901 26.505 49.3296 26.7142C49.0692 26.9296 48.933 27.031 48.9034 26.993C48.8738 26.9359 48.9153 26.8599 49.0278 26.7585C49.1402 26.6571 49.2882 26.5367 49.4776 26.391C49.8328 26.0425 50.0518 25.7953 50.1287 25.6496C50.182 25.4722 50.2353 25.4151 50.2945 25.4722C50.401 25.5038 50.5549 25.3961 50.7621 25.168C50.9693 24.9462 51.0581 24.7878 51.0226 24.7308C50.9871 24.6737 50.8154 24.7878 50.4662 25.0793C50.1228 25.3708 49.7262 25.7193 49.2645 26.1312L48.7318 26.6128C48.5128 26.8726 48.3352 27.0373 48.199 27.0944L47.175 27.9688C47.394 27.8548 47.542 27.8104 47.6249 27.8358L47.7492 27.7914C48.3233 27.3859 48.6252 27.1957 48.6726 27.2211C48.714 27.2528 48.4654 27.4999 47.9208 27.9625C47.7314 28.1653 47.6189 28.2983 47.5953 28.3554L47.471 28.6152L47.3052 28.6595C47.3052 28.6595 47.2519 28.6469 47.1395 28.7039C47.0329 28.7609 46.9382 28.8179 46.8554 28.8813C46.3404 29.3756 45.6952 30.0029 44.9197 30.7633C44.1443 31.5237 43.3629 32.2778 42.5757 33.0382C42.1672 33.4184 41.7055 33.7859 41.1846 34.1598C40.6696 34.5273 40.131 34.8568 39.5746 35.1483C39.0181 35.4398 38.4558 35.6616 37.8816 35.82C37.3074 35.9784 36.7629 36.0354 36.2479 35.9784C35.5376 35.9214 34.922 35.6616 34.3951 35.218C33.8624 34.7681 33.4658 34.0267 33.1935 33.0128C32.9745 32.1701 32.9449 31.1308 33.087 29.9079C33.2349 28.6849 33.6079 27.3415 34.2057 25.8841C34.478 25.2124 34.7089 24.7181 34.8983 24.3949C35.0877 24.0718 35.1291 24.1161 35.0226 24.528C34.9693 24.7054 34.9575 24.7941 34.9989 24.8068C35.0403 24.8195 35.1114 24.7371 35.2179 24.5724L36.2005 22.9121C36.6622 22.2151 36.9109 21.7905 36.9523 21.6448C36.9937 21.4991 36.8694 21.5561 36.5675 21.8222C36.4018 21.9997 36.3367 22.025 36.3663 21.9109C36.3959 21.7969 36.4906 21.6068 36.6504 21.3406C36.8161 21.0808 37.0352 20.7703 37.3193 20.4218C37.6034 20.0733 37.9231 19.7501 38.2841 19.4586C38.5032 19.2242 38.5446 19.2242 38.4321 19.4586C38.3078 19.6931 38.0947 19.9719 37.8047 20.2887C37.343 20.84 37.0825 21.2202 37.0292 21.423C36.976 21.6258 37.1772 21.48 37.633 20.9858C37.7396 20.8717 37.9171 20.707 38.1658 20.4789C38.4084 20.2571 38.6985 20.0099 39.0418 19.7375C39.3792 19.4586 39.7521 19.1672 40.1428 18.863C40.5394 18.5588 40.936 18.2483 41.3444 17.9188L41.7943 17.5703L41.3444 17.7477C41.0426 17.8048 40.7466 17.9695 40.4447 18.2293C40.2257 18.3751 40.0067 18.5081 39.7936 18.6412C39.5746 18.7743 39.397 18.8757 39.2372 18.9454C39.0892 19.0214 38.9885 19.0594 38.9353 19.0594C38.882 19.0594 38.9234 18.9897 39.0596 18.8376C39.7403 18.166 40.4506 17.697 41.2024 17.4119C41.9423 17.1331 42.6349 17 43.2623 17C44.3515 17.057 45.1151 17.3042 45.5413 17.716C45.9793 18.1406 46.1924 18.6666 46.1924 19.3066C46.1924 19.7438 46.1095 20.1937 45.9497 20.6626C45.784 21.1315 45.5827 21.5941 45.3459 22.063C45.1032 22.5319 44.825 22.9692 44.5113 23.3747C44.1976 23.7803 43.8957 24.1478 43.5938 24.4646C42.9663 25.1363 42.3152 25.6876 41.6404 26.1248C40.9597 26.5621 40.3204 26.8219 39.7285 26.9106C39.4562 26.9676 39.1543 26.9993 38.8287 26.9993C38.5032 26.9993 38.1894 26.9993 37.8875 26.9803C37.5857 26.9676 37.3311 26.9359 37.1121 26.8916C36.8931 26.8472 36.757 26.7775 36.7037 26.7015C36.6504 26.6445 36.5557 26.7902 36.4195 27.1641C36.2834 27.5379 36.1354 27.9942 35.9697 28.5455C35.7803 29.1284 35.6323 29.6544 35.5435 30.117C35.4488 30.5859 35.3777 31.0611 35.3245 31.5617C35.2416 32.3221 35.2712 32.9495 35.4073 33.4691C35.5435 33.9824 35.7743 34.2738 36.0999 34.3626C36.5379 34.4513 37.0411 34.3499 37.6271 34.0584C38.2131 33.7669 38.7873 33.4184 39.3615 33.0065C39.7403 32.715 40.1014 32.4362 40.4625 32.1574C40.8176 31.8786 41.1017 31.6504 41.3208 31.4857C41.8121 31.1372 42.3567 30.7253 42.9545 30.2437C43.5524 29.7621 44.1443 29.2805 44.7303 28.7989C45.3163 28.3173 45.8491 27.8674 46.3226 27.4429C46.7962 27.0183 47.1572 26.6888 47.3999 26.4544L47.8498 26.0615C47.8498 26.0615 47.8498 26.0171 47.8261 26.0171C47.8024 26.0171 47.8084 26.0044 47.8084 25.9728C47.9445 25.9157 48.0511 25.7953 48.1103 25.6052C48.1754 25.4151 48.2227 25.3264 48.2582 25.3264C48.3411 25.4151 48.3825 25.4025 48.3825 25.2821L48.7081 25.149L48.9508 25.0603L49.4835 24.5787L49.6848 24.3189L49.9275 24.2302C50.0636 24.0844 50.1583 24.0147 50.2116 24.0147C50.2412 23.983 50.2767 23.9704 50.3359 23.9704L50.7444 23.7106C51.3185 23.305 51.6204 23.1149 51.6678 23.1403C51.7092 23.1719 51.4606 23.4191 50.916 23.8817C50.7503 24.0274 50.6437 24.1605 50.5905 24.2745L50.4662 24.5343L50.3004 24.5787C50.3004 24.5787 50.1761 24.5914 49.9985 24.7118C49.8209 24.8258 49.7144 24.9019 49.6966 24.9272C49.5605 25.0159 49.448 25.0983 49.3533 25.1617C49.2586 25.2377 49.229 25.2757 49.2468 25.2757C49.1639 25.3644 48.9863 25.4975 48.714 25.6876C48.4417 25.8777 48.1694 26.0805 47.8972 26.3023C47.6249 26.5241 47.3822 26.7395 47.1632 26.955C46.9441 27.1767 46.8613 27.3225 46.9205 27.4175C46.9501 27.4746 46.9086 27.5633 46.7962 27.6773C46.6896 27.7914 46.5357 27.9118 46.3463 28.0259C46.1805 28.1399 45.9675 28.3047 45.6952 28.5074C45.4229 28.7102 45.1802 28.932 44.9612 29.1601C44.7421 29.3946 44.5527 29.572 44.387 29.7114C44.2212 29.8445 44.1265 29.9142 44.1029 29.9142L43.1202 30.7443C42.8776 30.9788 42.6585 31.1689 42.4928 31.3146C42.3152 31.4603 42.2027 31.5174 42.1495 31.492C42.1199 31.4603 42.0784 31.4794 42.0252 31.5364C41.9719 31.5934 41.9186 31.6695 41.8594 31.7518C41.7766 31.9293 41.6582 31.9863 41.4924 31.9293C41.3267 31.8152 41.303 31.8152 41.4096 31.9293C41.5161 32.0433 41.4924 32.1891 41.3267 32.3665C41.1609 32.5693 41.2201 32.6136 41.4924 32.4996C41.5753 32.4679 41.6818 32.4235 41.7943 32.3411C41.9186 32.2651 42.0133 32.2081 42.0962 32.1384C42.1495 32.0813 42.3448 31.9166 42.6941 31.6568C43.0315 31.397 43.4044 31.1182 43.8128 30.8267L44.9552 29.9966C45.0618 29.8825 45.1447 29.7494 45.1979 29.6037C45.2512 29.458 45.2926 29.4009 45.3222 29.4263C45.3518 29.4833 45.3755 29.5023 45.4051 29.4706C45.4347 29.4389 45.4347 29.3819 45.4051 29.2932C45.4051 29.2362 45.4702 29.1348 45.5945 29.0144C45.7188 28.8813 45.8787 28.7546 46.0681 28.6469C46.2575 28.5328 46.4114 28.4441 46.5416 28.4124C46.6659 28.368 46.7074 28.3807 46.6896 28.4377C46.6896 28.4694 46.7843 28.4377 46.9737 28.349C46.9737 28.3173 46.9737 28.3047 46.9974 28.2793C47.0093 28.2667 47.0211 28.2476 47.0211 28.2096V28.1653C46.7784 28.311 46.6778 28.3427 46.737 28.254C46.737 28.1969 46.808 28.0956 46.956 27.9498C47.104 27.8041 47.2934 27.6457 47.5124 27.4682L48.2878 26.8155C48.3411 26.7268 48.4773 26.5938 48.6963 26.4227L49.1876 25.9854C49.3237 25.8714 49.448 25.751 49.5723 25.6369C49.6966 25.5229 49.8209 25.4025 49.9571 25.2884C50.4188 24.8829 50.8983 24.471 51.4014 24.0464C51.9046 23.6219 52.2716 23.3304 52.4787 23.1529C52.7214 22.9502 52.9464 22.7474 53.1713 22.5573C53.3903 22.3672 53.5383 22.2341 53.6212 22.1391C53.8106 21.9363 53.9349 21.8793 53.9882 21.9616H54L53.9586 21.9363ZM34.6615 25.827C34.7976 25.6813 34.8391 25.5672 34.7858 25.4785C34.7325 25.4468 34.6497 25.5355 34.5431 25.7383C34.4602 25.9728 34.5017 25.9981 34.6674 25.827H34.6556H34.6615ZM35.2357 24.0337C35.2357 24.0337 35.1528 24.0654 35.0699 24.1225C34.9871 24.1795 34.9752 24.1541 35.0285 24.0337C35.0285 23.945 35.0818 23.812 35.1765 23.6409C35.2712 23.4634 35.3777 23.2797 35.502 23.0896C35.6264 22.8995 35.7507 22.722 35.8868 22.5636C36.023 22.4052 36.1295 22.3038 36.2124 22.2848C36.1058 22.5193 36.0052 22.7094 35.9282 22.8805C35.8454 23.0389 35.7625 23.1973 35.6855 23.3367C35.6145 23.4824 35.5494 23.5838 35.5198 23.6409C35.4133 23.9007 35.3126 24.0337 35.2357 24.0337ZM36.9937 25.3898H37.6863C38.0414 25.3898 38.4203 25.3011 38.8287 25.13C39.2372 24.9526 39.6574 24.7244 40.0955 24.4329C40.5039 24.1415 40.9242 23.8056 41.3385 23.4254C41.7588 23.0452 42.1436 22.665 42.481 22.2911C42.8184 21.9109 43.1202 21.5371 43.3807 21.1822C43.6411 20.8147 43.8424 20.5105 43.9786 20.2381C44.3574 19.3953 44.3337 18.9707 43.8957 18.9707C43.5938 18.9707 43.1439 19.1608 42.5283 19.541C41.9245 19.9212 41.2734 20.3838 40.6164 20.9414C39.9475 21.4927 39.32 22.082 38.7458 22.7094C38.1598 23.3367 37.7396 23.9007 37.5028 24.3886L37.0115 25.3961V25.3708L36.9937 25.3898ZM46.2516 28.9764C46.4943 28.7736 46.6067 28.6722 46.5771 28.6722C46.5239 28.6405 46.3463 28.7292 46.0444 28.932C45.9379 28.989 45.8431 29.0524 45.7839 29.1221C45.7188 29.1918 45.7011 29.2362 45.7188 29.2362C45.7721 29.2362 45.8431 29.2045 45.9201 29.1475C46.003 29.0904 46.1095 29.0334 46.2457 28.97L46.2575 28.9827L46.2516 28.9764Z" fill="#1F1F1F"/>
<path id="Vector_2" d="M31.0697 23.3794C29.4657 20.059 26.6989 19.7972 25.0293 19.4461C24.2899 19.3311 23.4252 19.2417 22.4354 19.1842C21.1713 19.1842 20.6107 19.1396 20.7479 19.0502C20.8016 18.9927 20.9268 18.8778 21.1176 18.7245C21.3084 18.5649 21.541 18.3989 21.8153 18.2137C22.0597 18.0093 22.4593 17.7028 23.0078 17.3133C23.5564 16.9174 24.0931 16.5216 24.6119 16.1512C25.1068 15.7681 25.5838 15.4041 26.037 15.0657C26.4902 14.7273 26.7824 14.5038 26.9195 14.3888C27.331 14.0377 27.6649 13.7312 27.9511 13.4885C28.2254 13.2395 28.458 13.0288 28.6488 12.8436C28.8396 12.6648 29.0185 12.5052 29.1854 12.3328C29.3524 12.1731 29.5134 11.9816 29.6804 11.7772C30.6046 10.7492 31.2486 9.68922 31.5885 8.57817C31.9344 7.47989 32.0298 6.43269 31.8747 5.44934C31.7256 4.466 31.3679 3.57205 30.8133 2.76111C30.2528 1.95655 29.5253 1.30524 28.6547 0.819957C27.7782 0.33467 26.7764 0.0600968 25.6494 0.0090139C24.5224 -0.0484543 23.3298 0.168647 22.0776 0.666705C21.1176 1.04983 20.247 1.44572 19.4659 1.85438C18.6847 2.26305 17.9274 2.71002 17.188 3.19531C16.4486 3.6806 15.7152 4.21058 14.9877 4.79803C14.2602 5.38549 13.491 6.07511 12.6681 6.86689C11.9526 7.54374 11.4875 8.05457 11.2668 8.41215C11.0462 8.76334 11.0045 9.0443 11.1416 9.24863C11.2251 9.39549 11.2489 9.51043 11.2251 9.59983C11.1416 9.68922 11.1953 9.88078 11.392 10.1745C11.5829 10.4682 11.7498 10.6151 11.887 10.6151C12.0539 10.6151 12.2269 10.5129 12.4236 10.3086C12.6443 10.0723 12.7933 9.95741 12.8768 9.95741C12.9305 9.95741 13.0378 9.89994 13.1809 9.77862C13.33 9.66368 13.485 9.52959 13.658 9.38272C13.9024 9.12092 14.2483 8.80804 14.6895 8.43131C15.1308 8.06096 15.5721 7.68422 16.0491 7.3011C16.5142 6.91798 16.9674 6.56678 17.4086 6.24113C17.8499 5.91547 18.1898 5.66645 18.4283 5.49404C18.7026 5.31525 18.9948 5.14284 19.3108 4.96405C19.6269 4.78526 19.9131 4.62563 20.1754 4.47877C20.4378 4.3319 20.6525 4.21697 20.8314 4.12757C21.0103 4.03818 21.0937 4.01264 21.0937 4.03818C21.0937 4.12757 20.9447 4.43407 20.6406 4.96405C20.3364 5.49404 20.0085 6.08149 19.6269 6.72642C19.2572 7.37134 18.8875 7.97156 18.5416 8.50793C18.1838 9.05069 17.9632 9.36357 17.8857 9.45935C17.7187 9.60621 17.6412 9.72115 17.6412 9.81054C17.6412 9.84247 17.5577 10.0276 17.3788 10.3852C17.1999 10.7364 16.9793 11.1515 16.705 11.6176C16.3771 12.237 16.0968 12.767 15.8404 13.2203C15.5959 13.6737 15.3634 14.1015 15.1666 14.4974C14.9579 14.8933 14.7671 15.2764 14.5882 15.6404C14.4093 16.0043 14.2065 16.4322 13.9859 16.8919L11.8452 21.7831C11.8154 21.8725 11.7081 22.0066 11.5173 22.1981C11.3265 22.3897 11.1058 22.5813 10.8613 22.7984C10.6169 22.9772 10.3247 23.207 9.99672 23.4752C9.66876 23.7434 9.39446 23.9924 9.17383 24.1968L8.39269 24.8992L8.72065 25.2056C8.94128 25.3844 9.13209 25.4419 9.29906 25.3844C9.35272 25.3525 9.46005 25.327 9.60316 25.295C9.74628 25.2631 9.89535 25.2503 10.0325 25.2503L10.4857 25.1609L9.99076 26.7062C9.85361 27.1149 9.71646 27.5746 9.57931 28.0727C9.44217 28.5707 9.34676 28.9666 9.29309 29.2604C9.18576 29.8159 9.10228 30.1415 9.07246 30.2309C9.03072 30.3203 8.91147 30.3076 8.72661 30.1862C8.58947 30.0713 8.45232 30.0713 8.31517 30.2118C8.17802 30.3459 8.11243 30.531 8.11243 30.7673C8.11243 30.9461 8.20784 31.1185 8.39865 31.2973C8.58947 31.4761 8.85184 31.6038 9.1798 31.6932C9.45409 31.8081 9.72839 32.0188 10.0027 32.3126C10.1398 32.4594 10.2889 32.5807 10.4559 32.6829C10.6228 32.7851 10.76 32.8425 10.8673 32.8425C11.0581 32.9 11.1833 32.8745 11.237 32.7723C11.2907 32.6701 11.3622 32.3445 11.4397 31.7762C11.5232 31.2462 11.6067 30.7737 11.6842 30.3395C11.7677 29.9117 11.8631 29.4902 11.9705 29.0879C12.0778 28.6793 12.2149 28.2387 12.358 27.7917C12.5071 27.3384 12.6979 26.7956 12.9186 26.189L13.7414 23.852L14.6061 23.4114C14.9877 23.207 15.4588 22.9963 16.0074 22.7664C16.5559 22.543 17.1224 22.3386 17.7128 22.1215C18.3031 21.9172 18.8696 21.7384 19.442 21.5915C20.0025 21.4447 20.4855 21.3425 20.897 21.285C21.4456 21.1956 22.024 21.1509 22.6441 21.1509C23.2642 21.1509 23.8665 21.1829 24.4568 21.2403C27.009 21.5021 29.3226 22.9261 30.0083 25.7229C30.8431 29.1773 28.9946 32.0827 27.1938 34.7007C25.7925 36.744 24.0215 38.6341 21.8928 40.3581C20.563 41.4117 19.7938 42.063 19.5613 42.312C19.3406 42.5611 19.7223 42.3312 20.7181 41.6224C21.2667 41.2074 21.5827 40.9647 21.6662 40.9328C21.7497 40.9009 21.6125 41.0797 21.2547 41.4628C20.8671 41.8459 20.2768 42.3312 19.4837 42.9186C18.6907 43.5061 17.8738 44.068 17.0211 44.6363C16.1684 45.1982 15.3872 45.6771 14.6717 46.0602C13.968 46.4434 13.5148 46.6349 13.3121 46.6349C13.2465 46.6349 13.1451 46.6668 12.9961 46.7371C12.847 46.8073 12.7099 46.8712 12.5846 46.9542L12.1553 47.216L12.5846 47.1138C12.7099 47.0436 12.8709 46.9989 13.0497 46.9797C13.2286 46.9542 13.3956 46.9542 13.5566 46.9542C13.8488 46.9542 14.0515 46.8839 14.1887 46.7371C14.2185 46.6668 14.4093 46.52 14.7671 46.322C15.1248 46.1049 15.5244 45.8623 15.9775 45.5877C17.1999 44.9236 18.476 44.0872 19.7998 43.0783C21.1236 42.0694 22.656 40.7412 24.3912 39.0938C24.5821 38.9597 24.6834 38.9342 24.6834 39.0363C24.6834 39.1832 24.6119 39.3301 24.4628 39.4897C24.3137 39.6493 24.0335 39.9048 23.622 40.2559C23.461 40.39 23.2821 40.5497 23.0854 40.7285C22.8945 40.9072 22.7276 41.0669 22.6024 41.201C22.2446 41.5202 21.7616 41.9353 21.1474 42.4461C20.5392 42.9569 19.8952 43.4614 19.2095 43.9467C18.5237 44.432 17.8797 44.8981 17.2715 45.3259C16.6633 45.741 16.1862 46.0283 15.8702 46.1752C15.3514 46.4242 15.0891 46.5838 15.0891 46.6477C15.0891 46.6796 15.0056 46.7498 14.8267 46.8648C14.6478 46.9669 14.4272 47.0819 14.1708 47.1841C10.7123 48.7293 7.81429 49.0486 5.45893 48.1355L4.39752 47.7204C4.30212 47.6502 4.24845 47.6055 4.24845 47.5863C4.24845 47.5672 4.30212 47.5097 4.39752 47.4075C4.58834 47.2607 4.5466 47.2479 4.24845 47.3501C3.95627 47.4203 3.71179 47.382 3.52097 47.2479C3.39575 47.1777 3.68197 47.1457 4.39752 47.1457C5.13693 47.1777 5.67359 47.3373 6.00155 47.6183C6.26392 47.7971 6.5084 47.912 6.74692 47.9567C6.9914 48.0142 7.46247 48.0269 8.17802 47.9822C8.63121 47.9822 9.06054 47.9822 9.48391 47.9567C9.90728 47.9311 10.1816 47.8992 10.3068 47.8226C10.432 47.7907 10.3187 47.7524 9.9669 47.746C9.60913 47.7204 9.12613 47.746 8.51195 47.7651H6.84829C6.84829 47.7651 7.14047 47.7332 7.8918 47.663C8.34499 47.5927 8.81606 47.5161 9.32291 47.4267C9.81783 47.3373 10.1995 47.2543 10.4618 47.1904C10.7242 47.0883 11.0283 46.9733 11.4099 46.852C11.7796 46.7307 12.0957 46.6285 12.358 46.5583C12.9066 46.3795 13.5506 46.0985 14.2662 45.709C14.9937 45.3259 15.5184 44.9875 15.8344 44.7065C16.0252 44.5277 16.0968 44.4447 16.0551 44.4447C16.0133 44.4447 15.7629 44.5469 15.3097 44.764C14.4331 45.1471 13.6639 45.4664 13.014 45.6899C12.3521 45.9134 11.7379 46.0985 11.1714 46.2199C10.6049 46.3412 10.0563 46.4114 9.50776 46.437C8.95917 46.4625 8.38076 46.437 7.76658 46.4114C7.21799 46.3795 6.65748 46.322 6.091 46.2518C5.52452 46.1816 5.11308 46.1177 4.85667 46.0347C4.4333 45.8878 3.99205 45.7282 3.52694 45.5622C3.06183 45.3834 2.6325 45.1663 2.23894 44.9045C1.85135 44.6427 1.54128 44.317 1.32065 43.9211C1.0881 43.538 0.99269 43.0655 1.02847 42.4972C1.05828 41.6863 1.33258 41.0094 1.85135 40.4667C2.37013 39.9239 2.78753 39.4961 3.10357 39.1704C3.39575 38.7554 3.37786 38.5383 3.0499 38.5383C2.78753 38.5383 2.5669 38.6851 2.37609 38.9533L2.0362 39.3684L2.46553 38.998C2.82331 38.7171 2.86505 38.7043 2.61461 38.9725C2.35224 39.2343 1.95272 39.6302 1.40413 40.1602C0.622988 40.8945 0.181731 41.5969 0.0445835 42.2482C-0.0806381 42.9059 0.0565093 43.736 0.473915 44.7576C0.956912 45.9581 1.80365 46.9925 2.99027 47.8737C4.18286 48.7549 5.54837 49.3742 7.11066 49.7254C7.49825 49.8276 7.93354 49.9042 8.41654 49.9425C8.89954 49.9808 9.36465 50 9.79398 50C10.2233 50 10.6169 49.9808 10.9508 49.9425C11.2907 49.9106 11.5113 49.8531 11.6067 49.7829C11.6723 49.751 11.7975 49.7063 11.9943 49.6488C12.1851 49.5913 12.3938 49.5466 12.6264 49.5147C12.8768 49.4445 13.0915 49.3934 13.2584 49.3551C13.4194 49.3232 13.5029 49.2657 13.5029 49.1954C13.5029 49.0933 13.6281 49.0358 13.8905 49.0358C14.2185 49.0358 14.4987 48.9464 14.7671 48.774L16.8958 47.5544C20.3543 45.6133 23.4908 43.206 26.3352 40.3134C27.8497 38.7298 29.0662 37.0633 29.9725 35.3009C30.2886 34.6879 30.5331 34.0941 30.7537 33.5258C31.4275 32.3509 32.9898 27.2681 31.0936 23.3475L31.0399 23.3731L31.0697 23.3794ZM26.6333 13.7248C26.1145 14.2228 25.7806 14.5038 25.6435 14.5613C25.5063 14.6187 25.6733 14.4272 26.1384 13.9866C26.3829 13.7503 26.6035 13.546 26.7943 13.3672C26.9851 13.1884 27.0984 13.1182 27.1223 13.1501C27.1223 13.2395 26.9553 13.431 26.6273 13.7248H26.6393H26.6333ZM20.9626 1.57343C20.9089 1.57343 20.9626 1.51596 21.1295 1.4138C21.2965 1.31163 21.4873 1.19669 21.7079 1.08814C21.9286 0.973205 22.1373 0.864652 22.34 0.762487C22.5487 0.660321 22.6799 0.602853 22.7276 0.602853C23.0555 0.602853 22.7812 0.794414 21.9047 1.17754C21.6602 1.29247 21.4396 1.39464 21.2726 1.45849C21.0937 1.53512 20.9864 1.57343 20.9685 1.57343H20.9566H20.9626ZM23.1211 6.63063C23.8665 5.34079 24.3972 4.35744 24.7013 3.6806L25.3095 2.44822L26.0907 2.31413C26.5856 2.25666 27.1223 2.26943 27.7126 2.35883C28.3029 2.44822 28.8277 2.60786 29.2928 2.84412C29.6505 2.99098 29.901 3.19531 30.0501 3.4635C30.1991 3.7253 30.3005 4.01902 30.3542 4.34467C30.384 4.81719 30.3005 5.32802 30.1097 5.88355C29.9189 6.43907 29.6684 6.98821 29.3524 7.51181C29.0364 8.03541 28.7084 8.52708 28.3626 8.96767C28.0167 9.40826 27.7305 9.75946 27.48 10.0276C26.9851 10.5576 26.52 11.0301 26.0788 11.4644C25.6375 11.8922 25.1306 12.3328 24.5642 12.8053C23.9858 13.2778 23.3179 13.8014 22.5487 14.3633C21.7795 14.938 20.8314 15.6148 19.7163 16.4066L18.3568 17.4219C18.3269 17.4794 18.2435 17.556 18.0944 17.639C17.9453 17.7284 17.7545 17.8433 17.5339 17.9902L16.5023 18.6926C16.3353 18.8394 16.2578 18.8841 16.2578 18.8267C16.2578 18.7117 16.4069 18.3414 16.711 17.7284C17.0151 17.109 17.3848 16.3939 17.8201 15.5701C18.2613 14.7464 18.7265 13.8972 19.2452 13.016C19.7521 12.1348 20.2172 11.3686 20.6227 10.7236C21.529 9.28694 22.3519 7.92048 23.1092 6.62425H23.1211V6.63063ZM18.5774 10.9471C18.5774 10.8577 18.6847 10.6662 18.9053 10.3725C19.1498 10.0787 19.3049 9.96379 19.3585 10.0213C19.442 10.1107 19.4003 10.2447 19.2333 10.4172L18.4522 11.7389C18.148 12.2689 17.9692 12.5754 17.8916 12.6648C17.826 12.7542 17.7426 12.7223 17.671 12.5754C17.6173 12.5179 17.6472 12.3966 17.7783 12.2242C17.9036 12.0454 18.16 11.6942 18.5356 11.1642C18.5893 11.0174 18.6012 10.9408 18.5774 10.9408V10.9535V10.9471ZM19.9369 8.83358C20.0204 8.92298 20.0025 9.06984 19.8952 9.27417C19.8117 9.45296 19.7282 9.4785 19.6507 9.36357C19.6209 9.3061 19.6507 9.18478 19.7163 9.01237C19.7819 8.83997 19.8773 8.66118 19.9787 8.50154C20.086 8.34191 20.1993 8.19505 20.3066 8.0865C20.414 7.97156 20.4974 7.93963 20.5511 7.9971C20.5809 8.02903 20.575 8.0865 20.5273 8.20143C20.4855 8.3036 20.4438 8.40577 20.3782 8.48239C20.3245 8.57178 20.253 8.64202 20.1754 8.69949C20.092 8.75696 20.0264 8.77611 19.9727 8.74419C19.8892 8.71226 19.8773 8.74419 19.931 8.83358H19.9369ZM9.92516 24.2925C9.60913 24.4969 9.44813 24.5416 9.44813 24.4266C9.44813 24.3947 9.51372 24.3117 9.65683 24.1648C9.79398 24.018 9.94902 23.8583 10.1339 23.6987C10.3128 23.5391 10.4738 23.3922 10.6288 23.2837C10.7779 23.1687 10.8733 23.124 10.8912 23.1496C10.9448 23.239 10.8613 23.3986 10.6467 23.6348C10.4797 23.8711 10.2472 24.0882 9.93113 24.2925H9.9192H9.92516ZM10.2531 28.6729C10.0206 29.4838 9.90728 30.0266 9.90728 30.3203C9.90728 30.6715 9.86553 30.8503 9.78205 30.8503C9.69857 30.8503 9.63298 30.6715 9.57931 30.3203C9.57931 30.1415 9.57931 29.9372 9.60316 29.6754C9.61509 29.4264 9.63298 29.1901 9.66876 28.973C9.69857 28.7495 9.73435 28.5643 9.77609 28.3983C9.81783 28.2387 9.85957 28.1621 9.92516 28.1621C10.0325 28.1046 10.0623 28.028 10.0086 27.9386C9.95498 27.8492 9.97883 27.8045 10.0921 27.8045C10.2054 27.8045 10.2293 27.6704 10.1756 27.4086C10.0921 27.2043 10.11 27.1596 10.2173 27.2745C10.3008 27.4533 10.3962 27.3511 10.5036 26.968C10.6407 26.6168 10.7063 26.4125 10.6944 26.3678C10.6825 26.3231 10.6109 26.4125 10.4738 26.6487C10.3068 26.885 10.271 26.9105 10.3485 26.7381L10.5155 26.1188C10.5692 25.8825 10.6407 25.8378 10.7242 25.9847C10.7779 26.1635 10.8733 26.0294 11.0104 25.5888C11.1178 25.2057 11.231 25.0141 11.3384 25.0141C11.4219 25.0141 11.4517 25.046 11.4457 25.129C11.4338 25.2057 11.3324 25.493 11.1416 25.9847C10.8136 26.9552 10.5334 27.8364 10.3008 28.6474L10.271 28.6665L10.2531 28.6729ZM11.8989 26.0741C11.8273 26.2975 11.7379 26.5721 11.6365 26.885C11.4159 27.5618 11.2907 27.9322 11.2489 28.0024C11.2072 28.0791 11.1655 28.0024 11.0999 27.7981C11.0462 27.5938 11.0581 27.5044 11.1416 27.5363C11.1953 27.5938 11.2668 27.4916 11.3503 27.2298C11.404 26.968 11.5113 26.6296 11.6544 26.2337C11.8035 25.8378 11.9049 25.659 11.9585 25.6782C11.9883 25.7101 11.9585 25.8378 11.8929 26.0485V26.0613L11.8989 26.0741ZM12.2447 25.2631C12.1911 25.4419 12.1195 25.5249 12.0241 25.5249C11.9287 25.5249 11.875 25.4355 11.875 25.2631C11.875 25.0588 11.9824 24.88 12.203 24.7331C12.3938 24.5863 12.4654 24.5863 12.4057 24.7331L12.2388 25.2631H12.2507H12.2447ZM13.3956 20.2378C13.2584 20.5635 13.1034 20.8572 12.9186 21.119C12.7397 21.3808 12.6144 21.5468 12.531 21.6043C12.2865 21.7512 12.1613 21.8086 12.1613 21.7831C12.1613 21.6937 12.2447 21.4574 12.4057 21.0807C12.5727 20.6976 12.7516 20.2889 12.9663 19.8483C13.175 19.4077 13.3777 18.9991 13.5864 18.616C13.7891 18.2328 13.9323 17.9966 14.0157 17.9136C14.2364 17.6773 14.3735 17.473 14.4451 17.2942C14.5107 17.1154 14.4451 17.0899 14.2543 17.2048C14.1171 17.2942 14.1052 17.2623 14.2125 17.0899C14.3198 16.9302 14.457 16.7834 14.624 16.6748C14.7611 16.5599 14.8446 16.4385 14.8863 16.3045C14.9281 16.1704 14.8863 16.1448 14.7373 16.2342C14.6299 16.2917 14.6299 16.1895 14.7373 15.9277C14.8744 15.634 15.0115 15.4871 15.1487 15.4871C15.2858 15.4871 15.3514 15.4297 15.3514 15.3083C15.3812 15.0721 15.4051 14.8997 15.4349 14.7784C15.4647 14.6634 15.5422 14.4527 15.6794 14.159C15.7331 13.9802 15.8046 13.8333 15.9 13.7184C15.9954 13.6034 16.067 13.5588 16.1207 13.5843C16.228 13.6162 16.2876 13.5141 16.2876 13.2778C16.2339 13.016 16.3413 12.8053 16.6156 12.6584C16.7825 12.5116 16.9197 12.3328 17.0449 12.1284C17.1701 11.9241 17.1522 11.8794 16.9793 11.9943C16.8422 12.0837 16.7885 12.071 16.8124 11.9496C16.8422 11.8347 16.9078 11.7134 17.0211 11.5984C17.1284 11.509 17.2417 11.4963 17.349 11.5537C17.3788 11.6112 17.3788 11.5665 17.349 11.4197C17.2953 11.2409 17.3371 11.0812 17.4742 10.9344C17.6412 10.73 17.8201 10.4619 18.0348 10.1234C18.2375 9.785 18.3389 9.59344 18.3389 9.5232C18.3389 9.45296 18.4104 9.31887 18.5595 9.08261C18.7086 8.84635 18.8994 8.5654 19.12 8.24613C19.3406 7.9524 19.5732 7.62675 19.8177 7.25001C20.0622 6.88605 20.2589 6.58594 20.3961 6.3433C20.5332 6.10704 20.6584 5.92824 20.7658 5.78777C20.8731 5.65367 20.9327 5.62175 20.9327 5.67283C20.9327 5.72391 20.891 5.85162 20.8075 6.02403C20.724 6.19643 20.6406 6.39437 20.5451 6.62425C20.4497 6.84773 20.3424 7.0393 20.241 7.22447C20.1337 7.40326 20.0622 7.50543 20.0323 7.53097L19.7044 7.92686C19.5672 8.16312 19.5672 8.22059 19.7044 8.10565C19.758 8.04818 19.758 8.08011 19.7044 8.22059C19.6507 8.35468 19.5553 8.52709 19.4182 8.73142C19.281 8.93575 19.1439 9.11454 19.0067 9.2614C18.8696 9.40827 18.7742 9.51043 18.7205 9.5679C18.5535 9.62537 18.4999 9.70199 18.5535 9.79139C18.6072 9.84885 18.5655 10.0149 18.4283 10.3022C18.2912 10.5896 18.1123 10.9024 17.8916 11.2536C17.6173 11.7262 17.3132 12.2817 16.9674 12.9266C16.6215 13.5715 16.2817 14.2228 15.9358 14.8933C15.59 15.551 15.2799 16.1831 14.9877 16.7706C14.7015 17.358 14.4928 17.7986 14.3556 18.0924L13.3658 20.2506H13.3956V20.2378ZM14.2185 20.1037C14.1111 20.2825 13.9978 20.3847 13.8905 20.4102C13.807 20.4422 13.7653 20.4358 13.7653 20.3847C13.7653 20.3336 13.7951 20.2506 13.8488 20.1037C13.9561 19.8994 14.0575 19.7972 14.1529 19.7972C14.2483 19.7972 14.2662 19.8994 14.2185 20.1037ZM15.4945 17.0643C15.3037 17.3261 15.2083 17.5177 15.2083 17.639C15.2083 17.7859 15.1547 17.888 15.0414 17.9455C14.9579 18.003 14.8923 18.1498 14.8386 18.3861C14.7313 19.031 14.5941 19.3567 14.4272 19.3567C14.29 19.3567 14.2781 19.4141 14.3854 19.5354C14.4391 19.6504 14.4391 19.7142 14.3854 19.7142C14.0575 19.7142 14.1827 19.1587 14.7551 18.0413C14.9221 17.6901 15.0592 17.3836 15.1845 17.1154C15.3097 16.8536 15.3753 16.7067 15.3753 16.6748C15.4051 16.5854 15.5005 16.3811 15.6615 16.0554C15.8285 15.7298 16.0014 15.4233 16.1982 15.1295L16.9376 13.6737C17.1582 13.1756 17.3192 12.8627 17.4325 12.7223C17.5398 12.5882 17.6233 12.5882 17.677 12.7031C17.7068 12.7606 17.6472 12.9649 17.4862 13.3033C17.3371 13.6418 17.1463 14.0121 16.9256 14.4208C16.705 14.8294 16.4844 15.2253 16.2697 15.5829C16.0491 15.9533 15.9 16.1576 15.8165 16.2278C15.6794 16.3428 15.6377 16.4641 15.6913 16.579C15.745 16.694 15.6794 16.86 15.4886 17.0643H15.4945ZM15.8404 19.9441C15.6913 20.0207 15.6496 19.9697 15.7331 19.7845C15.8404 19.6057 16.1207 19.3439 16.5738 18.9927C17.027 18.6415 17.8261 18.054 18.9769 17.2303C19.6626 16.7323 20.2112 16.3364 20.6227 16.0682C21.0341 15.7872 21.3382 15.5829 21.5469 15.4488C21.7497 15.3147 21.8868 15.2317 21.9584 15.2126C22.024 15.1806 22.0657 15.1806 22.0657 15.2126C22.0955 15.2126 21.9584 15.3275 21.6781 15.5638C21.3919 15.8 21.0043 16.1065 20.5273 16.4896C20.0443 16.8728 19.5076 17.2942 18.9053 17.7412C18.3031 18.1945 17.6829 18.6543 17.0628 19.1332C16.4069 19.6057 16.0014 19.8803 15.8523 19.9441H15.8404ZM19.3168 18.0221C18.6847 18.4946 18.1361 18.8905 17.6531 19.2098C17.1701 19.5354 16.9078 19.6951 16.8541 19.6951C16.8004 19.6951 16.7885 19.6632 16.8124 19.6057C16.8422 19.5482 16.9495 19.4461 17.1403 19.2992C17.3311 19.1523 17.6054 18.948 17.9632 18.6798C18.321 18.418 18.7861 18.0796 19.3645 17.6645C19.9131 17.2559 20.4736 16.8408 21.0281 16.4322C21.5887 16.0235 22.0001 15.6978 22.2386 15.4616L23.5147 14.491C23.622 14.4335 23.7472 14.3442 23.8844 14.2292C24.0215 14.1143 24.1468 14.0057 24.2541 13.9227C24.4986 13.6609 24.7311 13.4694 24.9518 13.348C25.1962 13.2012 25.1724 13.2714 24.8862 13.5524C24.5999 13.8333 24.1587 14.2164 23.5684 14.7145C22.978 15.2126 22.3042 15.7617 21.535 16.3619C20.7658 16.9621 20.0264 17.5113 19.3108 18.0093L19.3227 18.0221H19.3168Z" fill="#1F1F1F"/>
<g id="Group">
<path id="Vector_3" d="M82.9015 23.7375C83.0553 23.4704 83.2268 23.2095 83.4102 22.9549C83.5936 22.7002 83.7652 22.4766 83.9249 22.284C84.0846 22.0914 84.2148 21.9486 84.3272 21.8554C84.4337 21.7622 84.4869 21.7498 84.4928 21.8057C84.4928 21.8927 84.4396 22.048 84.3213 22.2716C84.203 22.4952 84.061 22.7437 83.8894 23.0294C83.7179 23.3151 83.5167 23.6071 83.2801 23.9239C83.0435 24.2344 82.8068 24.545 82.5643 24.8432C82.2744 25.1724 81.9786 25.5389 81.6887 25.9426C81.3989 26.3464 81.1859 26.6632 81.0617 26.8992C80.9315 27.1352 80.8073 27.3278 80.689 27.4769C80.5707 27.626 80.4819 27.7005 80.4287 27.7067C80.3163 27.7067 80.2926 27.7875 80.3518 27.9241C80.4642 28.0359 80.4523 28.0918 80.3163 28.098C80.263 28.098 80.1033 28.2782 79.8371 28.6385C79.5709 28.9987 79.2692 29.4273 78.932 29.9367C78.2221 31.0051 77.4235 32.0548 76.5361 33.0735C75.6487 34.0922 74.7436 34.9991 73.8326 35.788C73.241 36.2725 72.6613 36.5706 72.0815 36.6824C71.1764 36.8067 70.3009 36.5458 69.4667 35.9122C68.6267 35.2786 67.8931 34.5208 67.2542 33.6512C67.1063 33.4524 66.9703 33.2288 66.8342 32.9741C66.6981 32.7195 66.6035 32.4896 66.5384 32.2909C66.4438 32.0362 66.3728 31.533 66.3195 30.8001C66.2663 30.0609 66.2426 29.3776 66.2485 28.7378C66.2604 28.2471 66.2663 27.8682 66.2722 27.6073C66.2722 27.3464 66.284 27.1477 66.2959 27.0172C66.3077 26.8868 66.3136 26.7874 66.3254 26.7129C66.3373 26.6383 66.3373 26.5327 66.3373 26.3836C66.3373 26.2656 66.1953 26.2284 65.9173 26.2718C65.8049 26.2718 65.6629 26.2718 65.4795 26.247C65.2961 26.2284 65.1127 26.1911 64.9175 26.1352C64.7223 26.0855 64.5448 26.0234 64.391 25.9613C64.2372 25.8929 64.1307 25.837 64.0715 25.7811C64.0124 25.6693 63.9059 25.7749 63.7521 26.0979L63.2492 27.1601C63.0422 27.5452 62.9653 27.8061 63.0304 27.949C63.1191 28.0608 63.1073 28.1353 62.9949 28.1664C62.9416 28.1664 62.8351 28.2658 62.6754 28.4645C62.5157 28.6571 62.356 28.8745 62.2021 29.1167C62.0424 29.3528 61.9123 29.5826 61.8117 29.8062C61.7111 30.0298 61.6579 30.1789 61.6638 30.2659C61.6638 30.3218 61.6106 30.4584 61.4922 30.6634C61.3739 30.8684 61.2379 31.092 61.0781 31.3343C60.8948 31.5765 60.7469 31.7691 60.6404 31.9182C60.5339 32.0672 60.5102 32.1418 60.5635 32.1418C60.5931 32.1418 60.5812 32.2163 60.528 32.3592C60.4747 32.5083 60.386 32.7008 60.2558 32.9369C60.1257 33.1729 59.9837 33.4959 59.8358 33.9121C59.682 34.322 59.54 34.7382 59.404 35.1482C59.2679 35.5581 59.1614 35.9308 59.0904 36.2725C59.0194 36.6141 58.984 36.8315 58.9899 36.9495C58.9899 37.0365 58.984 37.1483 58.9603 37.2788C58.9366 37.4092 58.9011 37.5334 58.8479 37.6515C58.7177 37.9185 58.7 38.1484 58.7887 38.3471C58.9071 38.6329 58.8479 38.8006 58.5994 38.8565C58.351 38.9124 58.0433 38.8254 57.6766 38.608C56.7774 38.1235 56.3337 37.2601 56.3455 36.024C56.3573 34.7941 56.8484 33.0673 57.8245 30.856C58.0315 30.3839 58.2918 29.8186 58.6172 29.1478C58.9366 28.4832 59.2502 27.862 59.546 27.2843C59.8417 26.7066 60.102 26.2284 60.3268 25.837C60.5457 25.4519 60.6581 25.2904 60.664 25.3463C60.67 25.4022 60.6108 25.5637 60.4925 25.8308C60.3742 26.0979 60.2263 26.4085 60.0488 26.7626C59.7648 27.3278 59.5814 27.775 59.4927 28.1105C59.4099 28.4459 59.4336 28.6012 59.5696 28.5639C59.5992 28.5639 59.7293 28.3465 59.9601 27.9179C60.1908 27.4893 60.4806 26.9613 60.8179 26.3402C61.6993 24.6506 62.4506 23.2406 63.0718 22.0977C63.6929 20.9547 64.2549 19.9981 64.7518 19.2279C65.1186 18.6627 65.3493 18.2775 65.4381 18.0726C65.5268 17.8676 65.5032 17.7371 65.3612 17.6812C65.2488 17.6253 65.2014 17.5943 65.2133 17.5756C65.2251 17.5632 65.302 17.5632 65.444 17.5881C65.6925 17.6067 65.7575 17.5197 65.6392 17.321C65.5209 17.1222 65.6629 16.7433 66.0533 16.1718C66.71 15.2773 67.2128 14.5009 67.5441 13.8487C67.8813 13.1965 68.0292 12.7554 67.9937 12.5256C67.9937 12.4697 68.041 12.3579 68.1475 12.1902C68.254 12.0287 68.3841 11.8423 68.5439 11.6311C68.674 11.4262 68.8219 11.1839 68.9935 10.9168C69.165 10.6497 69.3188 10.3888 69.4608 10.1404C69.6028 9.8919 69.727 9.66207 69.8276 9.45088C69.9282 9.2459 69.9814 9.10924 69.9814 9.05334L70.1352 8.69928C70.1885 8.63716 70.2535 8.50672 70.3304 8.30174C70.4073 8.09676 70.4961 7.87314 70.5966 7.6371L71.3302 6.08421C71.484 5.7612 71.5668 5.56864 71.5787 5.50653C71.5905 5.45062 71.5136 5.45063 71.3539 5.51274C70.9989 5.69909 70.5316 5.91649 69.9459 6.15253C69.3602 6.39478 68.8633 6.5625 68.4492 6.6681C68.2303 6.73642 68.0114 6.82339 67.7985 6.93519C67.5796 7.047 67.4199 7.14639 67.3134 7.23956C67.2365 7.32652 67.0708 7.45697 66.8283 7.63089C66.5857 7.7986 66.3314 7.97253 66.0592 8.14024C65.7871 8.30795 65.5268 8.47567 65.2665 8.62474C65.0062 8.78003 64.8228 8.87321 64.7164 8.90426C64.5507 8.96638 64.2431 9.15273 63.7817 9.46331C63.3202 9.77388 62.8174 10.1404 62.2672 10.5628C61.717 10.9914 61.161 11.4324 60.593 11.892C60.031 12.3455 59.5696 12.743 59.2265 13.0784L58.3451 13.8984L59.3034 14.122C60.8297 14.4139 62.0483 15.6252 62.9534 17.7682C63.196 18.3956 63.3321 18.7745 63.3676 18.9049C63.3971 19.0353 63.3321 19.1285 63.1723 19.1968C62.847 19.3832 62.4565 19.2155 61.9951 18.6999C61.5337 18.1844 61.1669 17.5073 60.8888 16.6749C60.8238 16.4141 60.735 16.1904 60.6167 15.9917C60.4984 15.7929 60.4097 15.6811 60.3564 15.6562C60.244 15.6003 60.0015 15.6066 59.6288 15.6562C59.2561 15.7122 58.8479 15.8053 58.3924 15.9233C57.9428 16.0414 57.505 16.1656 57.0791 16.3023C56.6531 16.4327 56.3633 16.5631 56.2035 16.6874C56.0142 16.8116 55.8308 16.9048 55.6534 16.9669C55.4759 17.029 55.3576 17.0663 55.3043 17.0663C55.1091 17.0166 54.9198 16.8861 54.7305 16.6749C54.5412 16.4638 54.3992 16.2215 54.2927 15.9544C54.1863 15.6811 54.1153 15.4202 54.0798 15.1593C54.0443 14.8984 54.0916 14.6935 54.2217 14.5444C54.2987 14.4574 54.4406 14.3083 54.6418 14.1158C54.8429 13.917 55.0677 13.7058 55.3221 13.4822C55.5765 13.2524 55.8308 13.0412 56.0852 12.8424C56.3396 12.6436 56.5467 12.4821 56.7123 12.3641C57.0081 12.1529 57.156 11.9976 57.1501 11.9107C57.1441 11.8237 57.2151 11.7492 57.3512 11.6871C57.4873 11.6871 57.4636 11.8299 57.2861 12.1219C57.1027 12.4511 57.0672 12.5629 57.1737 12.4759C57.8777 12.0411 58.2208 11.6808 58.2149 11.3889C58.1498 11.1901 58.1912 11.128 58.3332 11.2088C58.3865 11.2336 58.6468 11.0969 59.1082 10.7864C59.5696 10.482 60.108 10.0845 60.7232 9.59375C61.3148 9.13409 61.8472 8.73655 62.3205 8.40113C62.7937 8.0657 63.054 7.87935 63.1073 7.8483C63.2729 7.78618 63.4681 7.68058 63.6988 7.54393C63.9296 7.40727 64.1248 7.25819 64.2845 7.10912L64.8938 6.69294C64.9766 6.66188 65.1068 6.59977 65.2784 6.50659C65.4558 6.41342 65.651 6.30161 65.8699 6.17738C66.0888 6.05315 66.2959 5.92892 66.497 5.80469C66.6981 5.68045 66.8579 5.58728 66.9644 5.52516C67.0472 5.46305 67.1418 5.40715 67.2483 5.36367C67.3548 5.31397 67.4672 5.2767 67.5737 5.23943L68.183 4.91022L68.5084 4.68039C68.5084 4.68039 68.6563 4.61827 68.8751 4.49404C69.0645 4.36981 69.3248 4.24558 69.6501 4.11514C70.2772 3.89152 70.7859 3.69275 71.1823 3.53125C71.5787 3.36975 71.8863 3.21446 72.117 3.05917C72.3477 2.90388 72.5193 2.74859 72.6376 2.58088C72.7559 2.41937 72.8801 2.20197 73.0103 1.93487C73.1109 1.69883 73.3002 1.59324 73.5782 1.61187C73.8858 1.65535 74.0101 1.74232 73.9568 1.86034C73.9036 1.97836 74.0041 2.02805 74.2526 2.0032C74.5011 1.97835 75.1341 1.86033 76.1457 1.64914C77.459 1.36962 78.6007 1.15843 79.565 1.01556C80.5293 0.878905 81.3693 0.823 82.0851 0.854058C82.8068 0.885116 83.4457 0.996926 84.0018 1.1957C84.5638 1.39447 85.0962 1.66777 85.605 2.02805C86.0014 2.30136 86.3977 2.8045 86.7941 3.52504C87.1904 4.25179 87.4448 4.94128 87.5513 5.60592C87.6578 6.35752 87.6282 7.17123 87.4507 8.04707C87.2733 8.9229 86.9715 9.82358 86.5515 10.7367C86.1256 11.6498 85.5932 12.5505 84.9483 13.4325C84.3035 14.3145 83.5759 15.1345 82.7773 15.8861C82.3217 16.3085 81.8307 16.7495 81.3101 17.2029C80.7895 17.6564 80.269 18.0974 79.7602 18.526C79.2514 18.9546 78.7604 19.3521 78.2872 19.7373C77.8198 20.1162 77.4235 20.433 77.0981 20.6752C76.8023 20.8926 76.406 21.1783 75.909 21.5448C75.4121 21.9113 74.9625 22.2467 74.5543 22.5511C74.1757 22.8244 73.8326 23.0729 73.525 23.2841C73.2173 23.5015 73.0339 23.6071 72.9748 23.6071C72.9215 23.6381 72.7322 23.7499 72.4069 23.9363C72.0815 24.1226 71.7029 24.3525 71.271 24.632C70.8629 24.8804 70.4783 25.0978 70.1116 25.2842C69.7448 25.4705 69.52 25.5513 69.4372 25.5264C69.2715 25.5016 69.1828 25.5451 69.1709 25.6445C69.1591 25.7439 69.1887 26.042 69.2656 26.5327C69.3011 26.8185 69.3366 27.1974 69.3662 27.657C69.3957 28.1229 69.3898 28.5577 69.3484 28.9615C69.3129 30.241 69.3602 31.3715 69.5081 32.3468C69.6501 33.3282 69.8453 34.0301 70.082 34.4587C70.2003 34.6575 70.3837 34.7817 70.6321 34.8314C70.851 34.7941 71.1646 34.6761 71.5728 34.4711C71.9809 34.2661 72.4246 33.968 72.9097 33.5704C73.0162 33.5083 73.1109 33.4338 73.1937 33.3406C73.2706 33.2537 73.3652 33.1605 73.4717 33.0673C73.874 32.707 74.2112 32.4151 74.4774 32.2039C74.7436 31.9927 74.856 31.9119 74.8028 31.9741C74.6194 32.3033 74.6963 32.3343 75.0335 32.0735C75.3707 31.8126 75.8972 31.3094 76.6189 30.5578L78.1748 28.8869L76.8615 30.4584C76.4888 30.8808 76.1871 31.2473 75.9445 31.5579C75.7079 31.8685 75.6014 32.0548 75.631 32.1107C75.6842 32.1356 75.844 32.0175 76.0924 31.7442C76.3468 31.4709 76.6722 31.1293 77.0685 30.7069L77.5418 30.0361C77.7547 29.7938 77.944 29.5888 78.1215 29.4025C78.2931 29.2223 78.4232 29.1043 78.5001 29.0422H78.5415C78.9911 28.5328 79.4585 27.9987 79.9377 27.4396C80.4169 26.8868 80.8546 26.3588 81.251 25.8681C81.6473 25.3712 81.9904 24.9426 82.2803 24.5637C82.5702 24.191 82.7713 23.9114 82.8719 23.7375H82.9015ZM57.5228 32.7629C57.1264 33.999 57.4458 33.4214 58.4989 31.0299C58.7532 30.4398 58.9603 29.9367 59.1082 29.5267C59.262 29.1167 59.3093 28.8807 59.2502 28.8248C59.191 28.7999 59.1023 28.8807 58.9662 29.0733C58.8361 29.2658 58.7 29.4956 58.558 29.7627C58.416 30.0298 58.2741 30.3094 58.1321 30.6075C57.9901 30.9057 57.9073 31.1355 57.8895 31.3156C57.8422 31.4896 57.7831 31.7194 57.7298 31.9989C57.6707 32.2784 57.6056 32.5331 57.5287 32.7691L57.5228 32.7629ZM58.1498 32.912C58.2504 32.6201 58.2681 32.4958 58.1972 32.5393C58.1321 32.5828 58.0315 32.7691 57.9073 33.0922C57.783 33.4462 57.7594 33.5767 57.8363 33.4897C57.9428 33.3965 58.0493 33.204 58.1498 32.912ZM58.5935 31.4585C58.3865 31.8747 58.2741 32.1356 58.2504 32.2536C58.2267 32.3716 58.2918 32.3219 58.4515 32.1169C58.6113 31.9368 58.7177 31.8747 58.7769 31.9306C58.8361 31.9865 58.8597 31.943 58.8538 31.8001L58.842 31.5206C58.842 31.3902 58.8597 31.2659 58.913 31.1479C58.9366 31.0299 58.913 31.0051 58.8479 31.061C58.7828 31.1231 58.6941 31.2535 58.5935 31.4647V31.4585ZM62.7878 26.9489C63.1013 26.3588 63.2788 25.9675 63.3261 25.7749C63.3735 25.5824 63.3261 25.4457 63.1901 25.3649C62.9949 25.2593 62.8174 25.309 62.6577 25.514C62.4979 25.7501 62.4388 25.9116 62.4684 25.9985C62.4684 26.0296 62.4033 26.1725 62.279 26.4396C62.1489 26.7066 62.001 27.011 61.8354 27.3464C61.6697 27.6881 61.5041 28.0049 61.3503 28.303C61.1965 28.6012 61.09 28.7937 61.0367 28.8807C60.9066 29.0608 60.7114 29.4397 60.457 30.0112C60.2026 30.5889 59.9423 31.1852 59.6879 31.8001C59.4336 32.4213 59.2147 32.9741 59.0431 33.4586C58.8656 33.9431 58.8065 34.204 58.8656 34.2289C58.9248 34.2848 58.8716 34.4028 58.7118 34.5829C58.6053 34.732 58.5403 34.8811 58.5225 35.024C58.4989 35.173 58.5284 35.2289 58.6113 35.1917C58.6408 35.1917 58.7177 35.0674 58.8479 34.8128C58.978 34.5643 59.1319 34.2599 59.3152 33.9059C59.5223 33.5518 59.6879 33.2412 59.8003 32.9741C59.9127 32.707 59.9719 32.5455 59.9719 32.4896C59.9423 32.4027 59.966 32.3157 60.0429 32.2287C60.0961 32.1666 60.2322 31.9492 60.457 31.5579C60.6759 31.1728 60.9125 30.7504 61.161 30.2907C61.4094 29.8311 61.6283 29.4087 61.8235 29.0236C62.0188 28.6384 62.1134 28.4335 62.1134 28.4024C62.1134 28.3713 62.1726 28.2161 62.3027 27.9365C62.4329 27.657 62.5985 27.3216 62.8056 26.9365L62.7878 26.9489ZM59.8713 28.8869C59.8181 28.8869 59.7412 28.9739 59.6524 29.1354C59.5637 29.2969 59.4691 29.4832 59.3803 29.6882C59.2916 29.8932 59.2206 30.0857 59.1733 30.2597C59.1259 30.4336 59.1259 30.5392 59.1851 30.564C59.2738 30.7069 59.3448 30.769 59.3981 30.7504C59.4513 30.7317 59.4513 30.6572 59.3921 30.5143C59.333 30.3715 59.3862 30.2969 59.5519 30.2907C59.6879 30.2907 59.7116 30.1851 59.6229 29.9801C59.5637 29.8932 59.54 29.8311 59.5519 29.7876C59.5637 29.7441 59.5992 29.7503 59.6584 29.8062C59.7708 29.8311 59.8772 29.769 59.9837 29.6199C60.0074 29.5019 59.9837 29.4894 59.9009 29.5826C59.7648 29.7006 59.6939 29.7068 59.6761 29.5888C59.6584 29.4708 59.7175 29.3279 59.8477 29.1478C59.9541 28.9677 59.9601 28.8807 59.8772 28.8869H59.8713ZM61.2201 26.0047C60.9125 26.657 60.664 27.1539 60.4866 27.5142C60.3032 27.8682 60.1908 28.1105 60.1375 28.2471C60.0843 28.3776 60.0843 28.4335 60.1198 28.4024C60.1612 28.3713 60.2322 28.2968 60.3387 28.1788C60.4156 28.0297 60.4984 27.9365 60.5753 27.8868C60.6581 27.8372 60.6995 27.8434 60.6995 27.9055C60.6995 28.0235 60.7705 27.9738 60.9007 27.7688C61.0072 27.6508 61.0545 27.4458 61.0426 27.1539C60.9776 26.9551 61.0604 26.8495 61.2793 26.8433C61.3325 26.8681 61.3858 26.8744 61.4272 26.8619C61.4686 26.8433 61.4627 26.8122 61.4035 26.7563C61.3444 26.7315 61.3148 26.6632 61.3148 26.5638C61.3148 26.4644 61.3266 26.3588 61.368 26.2594C61.4035 26.1538 61.4508 26.0669 61.5041 25.9923C61.5573 25.9178 61.6106 25.8929 61.6697 25.9178C61.7821 25.9737 61.93 25.8432 62.1134 25.5327C62.2968 25.2221 62.3678 24.9674 62.3323 24.7624C62.3323 24.6755 62.3914 24.4767 62.5216 24.1661C62.6458 23.8555 62.8174 23.5263 63.0244 23.166C64.1958 21.1224 65.0831 19.6192 65.6865 18.6689C66.29 17.7185 66.6331 17.2402 66.7159 17.2402C66.8815 17.2899 66.852 17.2402 66.6272 17.0725C66.4556 16.9358 66.3195 16.9855 66.219 17.2216C66.1657 17.3396 66.006 17.6377 65.7339 18.1098C65.4617 18.5819 65.1482 19.1285 64.7933 19.731C64.4442 20.3398 64.0893 20.9423 63.7402 21.5324C63.3853 22.1287 63.1073 22.6008 62.9002 22.9549C62.6932 23.2841 62.4329 23.7437 62.1193 24.3338C61.8058 24.9239 61.51 25.4892 61.226 26.0234L61.2201 26.0047ZM61.1314 24.6133C60.9243 24.9674 60.8001 25.073 60.7705 24.9301C60.7705 24.8742 60.8593 24.7376 61.0486 24.5264C61.1787 24.3773 61.2497 24.309 61.2497 24.3214C61.2497 24.3338 61.2142 24.4332 61.1373 24.6071L61.1314 24.6133ZM69.6856 4.92264C70.1175 4.67418 70.5257 4.46919 70.9043 4.30769C71.2829 4.14619 71.5195 4.05302 71.5964 4.02196C71.8153 3.98469 72.0105 3.90394 72.188 3.77971C72.3655 3.65548 72.4246 3.56852 72.3655 3.51261C72.3359 3.48777 72.1702 3.52504 71.8745 3.64306C71.5727 3.75486 71.2178 3.89152 70.8096 4.05302C70.4014 4.21452 69.9932 4.39466 69.585 4.59964C69.1769 4.80462 68.8515 4.98476 68.6089 5.14005L66.8579 6.078C66.5029 6.2395 66.1302 6.43205 65.7398 6.66188C65.3493 6.89171 65.0417 7.09048 64.8288 7.23956C64.4501 7.51287 64.0183 7.82966 63.5332 8.18372C63.0481 8.53778 62.5926 8.87321 62.1607 9.19621C61.7289 9.51921 61.3739 9.79252 61.09 10.0223C60.806 10.2522 60.67 10.3826 60.67 10.4075C60.67 10.4634 60.8238 10.395 61.1196 10.1963C61.4153 9.9975 62.0247 9.57511 62.9416 8.92911C63.9946 8.16509 64.7992 7.59983 65.3671 7.24577C65.935 6.89171 66.4793 6.58734 66.9939 6.33267C67.2897 6.17738 67.6979 5.96619 68.2126 5.69909C68.7273 5.43199 69.2183 5.17732 69.6797 4.92264H69.6856ZM61.9182 23.3213C61.8709 23.4953 61.8235 23.6071 61.7821 23.6505C61.7407 23.694 61.7052 23.6505 61.6756 23.5015V23.458C61.6756 23.34 61.7052 23.2406 61.788 23.1474C61.9241 23.0542 61.9655 23.1101 61.9182 23.3151V23.3213ZM61.8354 25.719C61.7289 25.8122 61.7348 25.6817 61.8649 25.3277C62.0424 24.9426 62.1489 24.75 62.1785 24.75C62.2317 24.75 62.2081 24.8867 62.1075 25.1662C62.0069 25.4457 61.9182 25.632 61.8354 25.719ZM62.4624 22.2592C62.3914 22.6381 62.3264 22.6878 62.2613 22.3958C62.2021 22.284 62.2376 22.1784 62.3737 22.0852C62.4506 21.9983 62.4802 22.0542 62.4624 22.2529V22.2592ZM64.7459 23.6071C64.8997 23.2841 65.0713 23.0853 65.2665 23.0232C65.3493 23.0232 65.4026 22.9983 65.4322 22.9549C65.4558 22.9114 65.444 22.8617 65.3848 22.8058C65.3257 22.7499 65.3257 22.6443 65.373 22.4766C65.4203 22.3151 65.4972 22.1473 65.6037 21.9672C65.7339 21.7871 65.8344 21.6194 65.8995 21.4579C65.9646 21.2964 65.9764 21.1846 65.9528 21.1286C65.9528 20.9858 66.0119 20.9112 66.1539 20.905C66.2071 20.905 66.3491 20.7373 66.5739 20.4081C66.7987 20.0789 67.0235 19.6938 67.2601 19.2528C67.4909 18.8055 67.6979 18.4266 67.8813 18.0974C68.0647 17.7744 68.183 17.6067 68.2362 17.6067C68.3191 17.6067 68.3841 17.47 68.4315 17.2091C68.4551 17.0352 68.603 16.6998 68.8751 16.2153C69.1473 15.7246 69.5081 15.1221 69.9518 14.4139C70.082 14.2338 70.1885 14.0661 70.2654 13.9046C70.3423 13.7431 70.3778 13.6313 70.3778 13.5754C70.3482 13.5195 70.4251 13.3145 70.6026 12.9542C70.786 12.6002 71.0403 12.1281 71.3834 11.5318C71.697 10.9976 71.9928 10.4572 72.2826 9.91054C72.5666 9.36392 72.821 8.867 73.0399 8.42597C73.2587 7.98495 73.4303 7.60605 73.5605 7.29547C73.6847 6.98489 73.7498 6.80475 73.7498 6.74264C73.7084 6.36994 73.312 6.86066 72.5607 8.2272C72.33 8.67444 72.0756 9.14031 71.8035 9.62481C71.5313 10.1155 71.3125 10.4758 71.1586 10.718C71.0285 10.9541 70.9043 11.1715 70.7859 11.364C70.6676 11.5566 70.6085 11.6808 70.6144 11.743C70.644 11.774 70.6262 11.8486 70.5612 11.9852C70.4961 12.1156 70.4133 12.2585 70.3068 12.4076L69.2893 14.1468C69.0822 14.5009 68.8988 14.7928 68.7391 15.0165C68.5794 15.2401 68.4729 15.3395 68.4196 15.3146C68.3368 15.2587 68.2422 15.3208 68.1357 15.501C68.112 15.619 68.1357 15.6438 68.2185 15.5817C68.3546 15.4885 68.4196 15.4761 68.4256 15.532C68.4315 15.5879 68.3309 15.8115 68.1357 16.1967C67.9405 16.5818 67.6979 17.0414 67.3962 17.5756C67.0945 18.1098 66.7691 18.6627 66.4201 19.2465C66.0711 19.8304 65.7457 20.3274 65.4558 20.7435C65.1955 21.1597 64.9707 21.5324 64.7933 21.8554C64.6099 22.1846 64.5211 22.371 64.5211 22.4331C64.5211 22.5511 64.4442 22.6256 64.2786 22.6629C64.1129 22.7002 63.9769 22.8182 63.8763 23.0232C63.7757 23.2282 63.7107 23.4953 63.6988 23.812C63.6811 24.0481 63.6988 24.191 63.758 24.2469C63.8172 24.3028 63.9236 24.3152 64.0893 24.2779C64.2253 24.2469 64.3614 24.1661 64.4975 24.0419C64.6335 23.9239 64.7223 23.7872 64.7755 23.6381L64.7459 23.6071ZM63.9828 19.5882C63.9591 19.7062 63.9296 19.6938 63.9 19.5447C63.8941 19.3708 64.0005 19.2528 64.2194 19.1844C64.4087 19.1223 64.4797 19.1472 64.4265 19.2652C64.3732 19.4143 64.2963 19.4577 64.1839 19.408C64.0715 19.3521 64.0065 19.4143 63.9828 19.5882ZM68.7509 24.3649C68.6149 24.4829 68.5557 24.5699 68.5734 24.6133C68.5912 24.6568 68.6681 24.7065 68.8042 24.7562C69.029 24.8618 69.236 24.8804 69.4253 24.7997C69.6146 24.7189 69.94 24.514 70.3955 24.1723C70.6085 23.9922 70.8451 23.8245 71.1054 23.6692C71.3598 23.5139 71.5609 23.4207 71.697 23.3834C71.833 23.3213 72.0283 23.2095 72.2886 23.0542C72.5429 22.8989 72.7796 22.7312 72.9985 22.5511C73.2114 22.371 73.4303 22.2157 73.6433 22.0914C73.8622 21.9672 73.9982 21.9175 74.0515 21.9424C74.2467 21.9921 74.3118 21.961 74.2526 21.8492C74.1934 21.8243 74.365 21.638 74.7495 21.2839C75.14 20.9361 75.6014 20.551 76.1397 20.1224L78.3937 18.2962C78.4469 18.2651 78.5297 18.1906 78.6362 18.0726C79.2455 17.3831 79.5413 17.0228 79.5117 16.9917C79.5117 16.9358 79.4289 16.9669 79.2692 17.0849C79.1095 17.2091 78.9202 17.3769 78.7072 17.5881C78.4942 17.7992 78.3463 17.9297 78.2635 17.9732C78.1807 18.0166 78.1807 17.9856 78.2635 17.8676C78.4469 17.5694 78.6835 17.2651 78.9793 16.9483C79.2692 16.6315 79.4881 16.4575 79.6241 16.4203C79.7898 16.3582 79.8016 16.383 79.6715 16.5072C79.5117 16.6315 79.4999 16.7184 79.6419 16.7681C79.7543 16.7681 79.914 16.6874 80.1329 16.5321C80.1329 16.501 80.1447 16.4886 80.1743 16.4886L80.2926 16.3519C80.5056 16.1718 80.7186 15.973 80.9374 15.7618C81.1504 15.5507 81.3634 15.3705 81.5823 15.2152C81.9254 14.8239 82.2922 14.4077 82.6767 13.9543C83.0612 13.507 83.4043 13.0784 83.712 12.6747C84.0137 12.2709 84.2562 11.9293 84.4455 11.6436C84.6289 11.3578 84.694 11.1901 84.6348 11.1342C84.6052 11.1094 84.552 11.1342 84.4692 11.2088C84.3863 11.2833 84.3094 11.3827 84.2325 11.5007C84.1556 11.6187 84.0787 11.7119 84.0137 11.7678C83.9486 11.8299 83.9131 11.8299 83.9131 11.7678C83.9131 11.6498 83.7889 11.7554 83.5522 12.0846C83.2387 12.5318 83.0908 12.6809 83.1144 12.538C83.1381 12.3952 83.3333 12.0225 83.6942 11.4262C84.061 10.8299 84.2621 10.4385 84.2976 10.2522C84.3331 10.0596 84.1675 10.2211 83.7948 10.7305L82.6767 11.9479C82.4874 12.1281 82.3395 12.2958 82.2152 12.4449C82.0969 12.5939 82.0674 12.6995 82.1206 12.7554C82.1502 12.8113 82.1206 12.9045 82.0496 13.0412C81.9727 13.1716 81.8603 13.3083 81.7124 13.4449C81.5645 13.5816 81.4048 13.7182 81.2273 13.8549C81.0498 13.9915 80.8842 14.0785 80.7186 14.1158C80.3636 14.2462 80.0678 14.4139 79.8253 14.6313C79.7188 14.7245 79.6182 14.8053 79.5236 14.8798C79.4289 14.9543 79.3579 15.0102 79.2988 15.0413C79.2455 15.0413 79.2869 14.9543 79.4348 14.7742C79.5827 14.5941 79.8016 14.3829 80.0974 14.1406C80.9552 13.3269 81.7006 12.5691 82.3395 11.8796C82.9784 11.1901 83.5167 10.5131 83.9486 9.86085C84.3804 9.20863 84.7295 8.56263 85.0016 7.92905C85.2678 7.29546 85.463 6.64325 85.5754 5.9724C85.8535 4.45677 85.8357 3.58715 85.5281 3.36354C85.1317 3.14613 84.6289 2.966 84.0196 2.81071C83.4043 2.66163 82.9074 2.5933 82.5229 2.60572C82.1916 2.61815 81.7597 2.65542 81.2214 2.72374C80.6831 2.78586 80.1211 2.86661 79.5295 2.966C78.9379 3.05917 78.3818 3.17098 77.8612 3.289C77.3406 3.41323 76.9443 3.51882 76.6722 3.61821C76.4533 3.68654 76.2817 3.74865 76.1634 3.81077C76.0392 3.87289 75.9445 3.94121 75.8794 4.01575C75.8144 4.09029 75.7611 4.19588 75.7256 4.32633C75.6901 4.45677 75.6487 4.62449 75.6014 4.82947C75.5541 5.09035 75.4772 5.37609 75.3648 5.68667C75.2524 5.99724 75.14 6.2395 75.0394 6.41963L74.0278 8.23962C73.8207 8.56884 73.5782 8.97259 73.3061 9.46331C73.034 9.95402 72.7914 10.3578 72.5844 10.687C72.3773 11.0162 72.1939 11.3144 72.0342 11.5815C71.8804 11.8485 71.8153 12.0101 71.8449 12.066C71.8449 12.097 71.8153 12.1591 71.7502 12.2647C71.6851 12.3703 71.6142 12.4821 71.5313 12.6002C71.348 12.8673 71.2592 13.0598 71.2592 13.1778C71.2592 13.2337 71.2119 13.3704 71.1054 13.5754C71.0048 13.7804 70.8747 14.004 70.715 14.24C70.5848 14.4761 70.4133 14.7494 70.2062 15.0661C69.9932 15.3767 69.8276 15.6376 69.6974 15.8488C69.5673 16.06 69.378 16.3892 69.1295 16.8489C68.8811 17.3085 68.6563 17.7433 68.4492 18.1595C68.2422 18.6005 67.9878 19.0975 67.6742 19.6503C67.3607 20.2031 67.0886 20.6379 66.852 20.9671C66.6153 21.2964 66.4083 21.5945 66.2426 21.8616C66.0711 22.1287 66.0001 22.2902 66.0297 22.3461C66.0297 22.489 65.8522 22.8182 65.4854 23.3213C65.1186 23.8307 65.0299 24.0667 65.2192 24.0295C65.4144 24.0232 65.5505 24.0729 65.6392 24.1847C65.6984 24.3276 65.8522 24.309 66.0947 24.1226C66.2012 24.0295 66.3254 23.9487 66.4615 23.868C66.5976 23.7934 66.7336 23.7499 66.8697 23.7437C66.9762 23.7127 67.1951 23.6071 67.5204 23.4331C67.8458 23.2592 68.2007 23.0667 68.5794 22.8493C68.958 22.6008 69.3129 22.3958 69.656 22.2219C69.9932 22.048 70.2358 21.9486 70.3718 21.9113C70.6499 21.8989 70.7859 21.8243 70.78 21.6753C70.7741 21.5262 70.8569 21.4268 71.0167 21.3585C71.206 21.2653 71.2651 21.2777 71.1823 21.3957C71.1291 21.5448 71.2001 21.5572 71.3894 21.433C71.5491 21.3088 71.6023 21.2094 71.5432 21.1224C71.4603 21.0355 71.4958 20.9361 71.6556 20.8119C71.8449 20.7187 71.9159 20.7435 71.8626 20.8926C71.8094 21.0106 71.8153 21.0665 71.8685 21.0665C71.9218 21.0665 72.0578 20.9734 72.2708 20.787C72.4838 20.6069 72.7145 20.4143 72.957 20.2155C73.1996 20.0168 73.4185 19.8304 73.6196 19.6441C73.8208 19.4639 73.9213 19.3459 73.9154 19.2838C73.9095 19.2217 73.9568 19.1782 74.0574 19.1472C74.152 19.1161 74.2704 19.0788 74.4064 19.0478C74.6785 18.9794 74.7732 18.9049 74.6904 18.8179C74.6312 18.731 74.6785 18.6378 74.8264 18.5322C74.9743 18.4266 75.1459 18.3397 75.3352 18.2713C75.3648 18.2713 75.418 18.2278 75.4949 18.1347C75.5718 18.0477 75.6546 17.9421 75.7316 17.8241C75.9149 17.588 76.0806 17.4265 76.2344 17.3458C76.3823 17.265 76.4178 17.3334 76.3468 17.5384C76.2403 17.7185 76.2699 17.7433 76.4355 17.6191C76.6012 17.4949 76.6189 17.3831 76.5065 17.265C76.4178 17.1843 76.5006 17.0787 76.7431 16.9545C76.9857 16.8302 77.1809 16.793 77.317 16.8427C77.3998 16.8986 77.453 16.9172 77.4649 16.9048C77.4767 16.8924 77.459 16.8675 77.3998 16.8427C77.3406 16.8178 77.3466 16.7433 77.4116 16.6253C77.4767 16.5072 77.5595 16.3892 77.666 16.265C77.7725 16.147 77.8849 16.0414 78.0091 15.9482C78.1274 15.855 78.2339 15.8115 78.3167 15.8053C78.37 15.7743 78.37 15.7929 78.3167 15.8674C78.2635 15.942 78.1689 16.0227 78.0328 16.1159C77.737 16.3892 77.6069 16.5818 77.6364 16.6998C77.666 16.8178 77.8435 16.7495 78.1689 16.5072C78.3049 16.3892 78.4173 16.296 78.512 16.2339C78.6066 16.1718 78.6539 16.1594 78.6539 16.1842C78.6539 16.2401 78.4646 16.4513 78.0742 16.8178C77.6838 17.1781 77.2519 17.5756 76.7668 17.998C77.0094 17.9048 77.1395 17.9545 77.1454 18.1595C77.3347 18.0042 77.4294 17.9359 77.4294 17.9545C77.4294 17.967 77.3643 18.0663 77.2342 18.2465L76.9916 18.4328C76.9147 18.5508 76.7372 18.7186 76.471 18.9298L75.9445 19.2528L75.909 19.3397C75.8854 19.4018 75.8144 19.4702 75.7079 19.5447C75.6014 19.6192 75.4772 19.7062 75.3411 19.7994C75.205 19.8925 75.0808 19.9609 74.9743 20.0106C74.8678 20.0603 74.8087 20.0665 74.8087 20.0416C74.8087 20.0168 74.8797 19.936 75.0276 19.818C75.1755 19.7 75.3293 19.5758 75.489 19.4515H75.4062C75.2405 19.5199 75.0986 19.5695 74.9743 19.6006C74.8501 19.6317 74.7791 19.6814 74.7495 19.7373C74.7199 19.7683 74.5839 19.8677 74.3236 20.0354C74.0692 20.2031 73.7616 20.3957 73.4126 20.6131C73.0635 20.8305 72.7914 21.0168 72.6021 21.1659C72.4128 21.3212 72.3477 21.4082 72.4069 21.433C72.5725 21.4827 72.7382 21.4206 72.8979 21.2405C73.0872 21.0603 73.2055 20.9982 73.2647 21.0541C73.2942 21.0852 73.2351 21.1721 73.0872 21.3212C72.9393 21.4703 72.7441 21.6442 72.5074 21.843C72.2649 22.0418 72.0046 22.2467 71.7206 22.4579C71.4367 22.6691 71.1586 22.8555 70.8924 23.0108C70.5434 23.2282 70.3659 23.4083 70.3718 23.5512C70.3718 23.6692 70.4428 23.6816 70.5789 23.5884C70.7386 23.4642 70.7682 23.4953 70.6676 23.6692C70.6144 23.7872 70.4014 23.9549 70.0228 24.1723C69.6442 24.3897 69.2893 24.5637 68.9639 24.6941C68.8278 24.7314 68.7982 24.7065 68.8811 24.632C68.9639 24.5574 69.1236 24.4394 69.3662 24.2903C69.6087 24.1351 69.8039 23.9984 69.9518 23.8742C70.0997 23.7499 70.1589 23.663 70.1293 23.6071C70.0761 23.6071 69.6501 23.8121 68.8633 24.222V24.2655C68.8101 24.2655 68.7805 24.2966 68.7864 24.3587L68.7509 24.3649ZM65.728 25.6569C66.1125 25.6445 66.3077 25.5637 66.3018 25.4146C66.2722 25.3028 66.1835 25.2034 66.0415 25.1227C65.9291 25.0668 65.8758 25.1165 65.8818 25.2593C65.8877 25.4022 65.7634 25.5078 65.5209 25.5761C65.3848 25.6383 65.3316 25.6755 65.3612 25.688C65.3908 25.7004 65.515 25.6879 65.7339 25.6507L65.728 25.6569ZM67.4258 14.973C67.1655 15.3581 66.9466 15.7122 66.781 16.0227C66.6094 16.3333 66.5266 16.5197 66.5325 16.5756C66.5384 16.6315 66.5621 16.6563 66.6153 16.6377C66.6686 16.619 66.7218 16.5694 66.775 16.4762C66.9348 16.296 67.0413 16.265 67.1004 16.3768C67.13 16.4327 67.1832 16.4079 67.2661 16.3023C67.343 16.1967 67.4376 16.0538 67.5441 15.8799L67.8931 15.2152L67.4554 15.7556C67.2187 16.0848 67.0708 16.2029 67.0117 16.1221C67.0117 16.0352 67.0413 15.9233 67.1063 15.7929C67.1714 15.6625 67.2483 15.532 67.343 15.414C67.4376 15.296 67.5382 15.1966 67.6447 15.1221C67.7512 15.0475 67.834 15.0227 67.8931 15.0475C68.0055 15.1593 68.0055 15.1283 67.8931 14.9606C67.834 14.8736 67.8458 14.7618 67.9227 14.6127C67.9996 14.4636 68.1238 14.3705 68.2836 14.3394C68.3664 14.3394 68.4492 14.2586 68.5261 14.1158C68.6326 13.9978 68.603 13.9978 68.4433 14.1158C68.3072 14.209 68.2244 14.209 68.1948 14.1282C68.1653 14.0412 68.1889 13.9108 68.2658 13.7369C68.3191 13.6748 68.2658 13.7679 68.0884 14.004C67.9168 14.24 67.6979 14.5692 67.4376 14.9854L67.4258 14.973ZM68.1238 24.3462C68.1475 24.2903 68.2126 24.1972 68.3191 24.0791C68.1002 24.2034 68.0233 24.2966 68.0824 24.3525H68.1238V24.3462ZM69.0585 11.9976C68.8515 12.3517 68.7154 12.6374 68.6504 12.8424C68.5853 13.0474 68.5971 13.1219 68.6799 13.0598C68.8988 12.9356 68.9521 12.9791 68.8515 13.184C68.7746 13.389 68.8456 13.3704 69.0585 13.1343C69.2715 12.8983 69.2952 12.7803 69.1295 12.7865C69.0704 12.7617 69.0645 12.6685 69.1 12.507C69.1354 12.3455 69.2183 12.1467 69.3484 11.9107C69.4786 11.6746 69.6028 11.4759 69.7211 11.3081C69.8394 11.1466 69.9282 11.0783 69.9814 11.1032C70.0346 11.128 70.0524 11.0845 70.0169 10.9727C69.9577 10.9168 69.9637 10.7926 70.0228 10.6C70.0879 10.4075 70.1825 10.2087 70.3127 10.0037C70.4428 9.76768 70.5434 9.57512 70.6262 9.42604C70.7031 9.27696 70.7445 9.17758 70.7386 9.11546C70.709 9.05956 70.5257 9.32044 70.1885 9.89811C69.8513 10.4758 69.4726 11.1777 69.0585 12.0101V11.9976ZM71.6437 23.0791C71.4308 23.2592 71.2474 23.3897 71.0995 23.4704C70.9516 23.5512 70.8747 23.5325 70.8688 23.4145C70.8688 23.3835 70.9338 23.3151 71.0699 23.2095C71.206 23.1039 71.3598 22.9983 71.5373 22.8865C71.7147 22.7809 71.8804 22.6815 72.046 22.607C72.2117 22.5263 72.3181 22.5014 72.3773 22.5263C72.5429 22.5759 72.5311 22.607 72.3359 22.6132C72.2531 22.6132 72.1525 22.6629 72.0283 22.7561C71.9099 22.8493 71.7798 22.9549 71.6437 23.0729V23.0791ZM71.1231 8.13403C71.0462 8.2272 71.0048 8.33901 71.0107 8.48809C71.0403 8.63095 71.0817 8.68065 71.1172 8.63717C71.1586 8.59368 71.2001 8.48188 71.2533 8.30795C71.3006 8.10297 71.2533 8.04707 71.1231 8.14024V8.13403ZM72.7322 22.2157C72.679 22.2157 72.7086 22.1722 72.8328 22.079C72.9511 21.9858 73.1227 21.8678 73.3357 21.7125C73.5486 21.5572 73.7557 21.4268 73.945 21.3212C74.1343 21.2156 74.2585 21.1597 74.3118 21.1535C74.365 21.1473 74.3354 21.2032 74.2112 21.3088C74.0929 21.4144 73.9213 21.5448 73.7084 21.7001C73.4895 21.8554 73.2883 21.9796 73.099 22.0728C72.9097 22.166 72.7855 22.2157 72.7322 22.2157ZM76.8437 29.6696C76.9265 29.6075 76.9029 29.6696 76.7905 29.8435C76.6781 30.0174 76.4828 30.2597 76.2166 30.564C75.6842 31.1666 75.3825 31.4896 75.3174 31.533C75.2524 31.5765 75.4417 31.3032 75.8913 30.7069C76.0747 30.4709 76.264 30.2535 76.4474 30.0547C76.6307 29.8559 76.7668 29.7317 76.8496 29.6696H76.8437ZM76.4533 1.96593C76.1516 2.03426 75.9031 2.09637 75.7138 2.14607C75.5245 2.19576 75.4298 2.25166 75.4298 2.30756C75.4298 2.36347 75.7552 2.35105 76.4 2.2703C77.0449 2.18955 77.808 2.0591 78.6835 1.87897C80.0856 1.62429 80.902 1.469 81.1327 1.4131C81.3634 1.36341 81.2214 1.33235 80.6949 1.31993C80.3636 1.33235 79.985 1.35719 79.5591 1.38204C79.1331 1.4131 78.7663 1.46279 78.4646 1.53112L76.4474 1.95351L76.4533 1.96593ZM77.3288 18.6378C77.3584 18.7248 77.2282 18.8863 76.9325 19.1347L76.4474 19.5012L76.8023 19.0105C77.0981 18.7372 77.2697 18.613 77.3288 18.644V18.6378ZM78.5652 27.9428C78.8018 27.6694 78.9497 27.539 79.0089 27.5328C79.0385 27.5328 78.9557 27.6632 78.7723 27.9303C78.5356 28.2036 78.3877 28.3403 78.3286 28.3403C78.299 28.3403 78.3759 28.2098 78.5652 27.9365V27.9428ZM78.7604 16.9731C78.6244 17.0973 78.5061 17.1843 78.3996 17.2464C78.2931 17.3085 78.2339 17.3272 78.2339 17.2961C78.2339 17.1781 78.3877 17.0166 78.7131 16.7992C79.0385 16.5569 79.21 16.4451 79.2396 16.4762C79.2396 16.5321 79.1982 16.6004 79.1035 16.6749C79.0089 16.7495 78.8965 16.8489 78.7604 16.9731ZM79.21 27.3961C79.21 27.2781 79.3224 27.0856 79.565 26.8185L79.9673 26.4582L79.6537 26.9924C79.3698 27.5266 79.2219 27.6632 79.21 27.4023V27.3961ZM80.0737 26.0606C80.2039 25.8557 80.34 25.7439 80.476 25.7376C80.5884 25.7376 80.5766 25.837 80.4464 26.042C80.3163 26.2532 80.1802 26.3588 80.0442 26.365C79.9318 26.365 79.9436 26.2656 80.0737 26.0606ZM79.8963 16.2339C79.7247 16.1532 79.914 15.9296 80.4523 15.5569C80.5884 15.4637 80.7067 15.3581 80.8132 15.2401C80.9197 15.1221 80.9966 15.0289 81.0498 14.9668C81.0972 14.7928 81.1268 14.7866 81.1327 14.9668C81.1327 15.0227 81.0735 15.1283 80.9552 15.2773C80.8369 15.4264 80.7126 15.5755 80.5766 15.7246C80.4405 15.8737 80.3045 16.0041 80.1566 16.1097C80.0087 16.2153 79.9199 16.2588 79.8903 16.2277L79.8963 16.2339ZM81.4344 24.6568C81.6237 24.5947 81.6532 24.6506 81.5231 24.8245C81.2865 25.1227 81.1622 25.1724 81.1563 24.9674C81.1563 24.8804 81.2451 24.7748 81.4344 24.6506V24.6568ZM82.233 23.8431C82.4696 23.5139 82.6294 23.3462 82.7122 23.3462C82.795 23.3462 82.6885 23.5077 82.3986 23.8369C82.2626 23.986 82.162 24.1102 82.0792 24.1972C82.0023 24.2841 81.9313 24.3338 81.8781 24.3338C81.8485 24.3338 81.8721 24.2903 81.9372 24.2034C82.0023 24.1164 82.1029 23.9922 82.233 23.8431ZM82.1443 14.1903C81.955 14.3705 81.8011 14.5133 81.6828 14.6189C81.5645 14.7245 81.5172 14.7494 81.5408 14.6872C81.5645 14.6313 81.6473 14.5195 81.7775 14.3518C81.9076 14.1903 82.0851 14.0164 82.2981 13.83C82.4815 13.6189 82.6353 13.4698 82.7595 13.3766C82.8778 13.2834 82.9251 13.271 82.9015 13.3269C82.8778 13.389 82.795 13.5008 82.6649 13.6623C82.5347 13.83 82.3572 13.9978 82.1443 14.1841V14.1903ZM84.9543 10.3391C85.0252 10.0472 85.0548 9.8919 85.043 9.87948C85.0312 9.86706 84.9424 9.97887 84.7827 10.2149C84.5993 10.4261 84.4928 10.6062 84.4692 10.7491C84.4455 10.8982 84.5047 10.9541 84.6407 10.9168C84.7531 10.9168 84.8537 10.718 84.9543 10.3391Z" fill="#1F1F1F"/>
<path id="Vector_4" d="M101.892 21.703C101.892 21.703 101.803 21.8831 101.537 22.1502C101.27 22.4235 100.933 22.7217 100.531 23.0571C99.8328 23.6658 99.401 24.0758 99.2294 24.2808C99.0579 24.492 99.0815 24.5603 99.3004 24.4982C99.4069 24.4361 99.4661 24.4485 99.4661 24.5354C99.4661 24.5913 99.3359 24.7528 99.0697 25.0075C98.8035 25.2622 98.5136 25.5417 98.206 25.8461C97.8984 26.1505 97.6203 26.4113 97.366 26.6412C97.1116 26.871 96.9696 26.9704 96.94 26.9393C96.9104 26.8834 96.9459 26.8027 97.0583 26.6971C97.1648 26.5915 97.3127 26.461 97.502 26.312C97.8511 25.9517 98.0581 25.697 98.1409 25.5479C98.1883 25.374 98.2415 25.3119 98.3006 25.3678C98.413 25.3926 98.5669 25.287 98.768 25.0448C98.9691 24.8025 99.052 24.6597 99.0224 24.5976C98.9928 24.5417 98.8094 24.6659 98.4781 24.964C98.1409 25.2684 97.7505 25.6287 97.295 26.0511L96.7744 26.548C96.5614 26.8151 96.3899 26.9828 96.2538 27.0449L95.2481 27.9518C95.467 27.8276 95.6149 27.7779 95.6977 27.8027L95.8219 27.753C96.3898 27.3244 96.6916 27.1257 96.733 27.1505C96.7744 27.1754 96.5259 27.4362 95.9935 27.9207C95.8101 28.1319 95.7036 28.2686 95.674 28.3245L95.5616 28.5916L95.396 28.6413C95.396 28.6413 95.3428 28.6289 95.2304 28.691C95.1239 28.7531 95.0292 28.8152 94.9464 28.8773C94.4376 29.3929 93.8047 30.0389 93.0474 30.8216C92.2902 31.6042 91.5212 32.3869 90.7462 33.1695C90.3439 33.5609 89.8884 33.9522 89.3796 34.3311C88.865 34.7162 88.3325 35.0579 87.7765 35.3746C87.2204 35.6852 86.6584 35.9337 86.0845 36.1138C85.5107 36.294 84.9605 36.3685 84.434 36.3312C83.7123 36.3002 83.0793 36.0703 82.5232 35.6417C81.9672 35.2131 81.5353 34.4988 81.2277 33.4925C80.9792 32.6602 80.9082 31.6353 81.0147 30.4116C81.1212 29.1879 81.4584 27.84 82.0145 26.3679C82.2689 25.6908 82.4878 25.1877 82.6652 24.8647C82.8486 24.5417 82.89 24.5789 82.7954 24.9889C82.748 25.1628 82.7421 25.2622 82.7835 25.2746C82.8249 25.287 82.8959 25.2063 83.0024 25.0262L83.9371 23.3366C84.3808 22.6223 84.6233 22.1937 84.6588 22.0446C84.6943 21.8955 84.5642 21.9639 84.2743 22.2309C84.1146 22.4111 84.0495 22.4421 84.0732 22.3241C84.0968 22.2061 84.1856 22.0135 84.3453 21.7464C84.4991 21.4793 84.718 21.1688 84.996 20.8085C85.2741 20.4482 85.5876 20.119 85.9367 19.8146C86.1496 19.5724 86.197 19.5724 86.0786 19.8146C85.9603 20.0507 85.7592 20.3364 85.4634 20.6656C85.0138 21.2371 84.7653 21.6222 84.718 21.8272C84.6707 22.0322 84.8718 21.8769 85.3214 21.3675C85.4279 21.2495 85.5995 21.0756 85.842 20.8458C86.0845 20.6221 86.3685 20.3613 86.7057 20.0755C87.0429 19.7898 87.4038 19.4854 87.7942 19.1624C88.1847 18.8456 88.581 18.5164 88.9833 18.181L89.427 17.8145L88.9774 18.0071C88.6757 18.0754 88.3799 18.2493 88.0841 18.5226C87.8652 18.6779 87.6522 18.8208 87.4393 18.9637C87.2204 19.1003 87.0429 19.2121 86.8891 19.2867C86.7412 19.3674 86.6347 19.4047 86.5815 19.4047C86.5282 19.4047 86.5637 19.3301 86.6998 19.1811C87.3683 18.4916 88.0723 17.9884 88.8236 17.6841C89.5749 17.3797 90.2611 17.2182 90.9 17.1934C92.0063 17.212 92.7871 17.417 93.2427 17.8207C93.6982 18.2245 93.9407 18.7463 93.9585 19.3798C93.9762 19.8146 93.9052 20.2681 93.7573 20.734C93.6094 21.206 93.4142 21.6781 93.1835 22.1502C92.9528 22.6223 92.6807 23.0695 92.3789 23.4857C92.0772 23.9019 91.7755 24.2808 91.4857 24.61C90.8763 25.2995 90.2315 25.8771 89.5571 26.3368C88.8827 26.7965 88.2438 27.0822 87.6404 27.194C87.3683 27.2623 87.0666 27.3058 86.7353 27.3182C86.404 27.3306 86.0846 27.3369 85.7828 27.3307C85.4811 27.3307 85.2149 27.3058 84.996 27.2747C84.7712 27.2375 84.6352 27.1816 84.576 27.0946C84.5169 27.0387 84.4281 27.194 84.3039 27.5605C84.1797 27.927 84.0436 28.3928 83.8957 28.9457C83.7242 29.5358 83.594 30.0575 83.5171 30.5296C83.4343 30.9955 83.3751 31.48 83.3396 31.9707C83.2805 32.7285 83.3337 33.3559 83.4875 33.859C83.6413 34.3622 83.8898 34.6479 84.2211 34.7224C84.6648 34.7908 85.1794 34.6727 85.7651 34.3559C86.3508 34.0454 86.9246 33.6727 87.4866 33.2441C87.8652 32.9397 88.2261 32.6415 88.5751 32.3558C88.9241 32.0639 89.2081 31.834 89.4211 31.6477C89.9061 31.2812 90.4445 30.8464 91.0301 30.3433C91.6217 29.8401 92.2015 29.3432 92.7812 28.8401C93.355 28.3369 93.8816 27.8711 94.3489 27.43C94.8163 26.989 95.1712 26.6536 95.4137 26.4113L95.8574 26.0014C95.8574 26.0014 95.8515 25.9579 95.8338 25.9579C95.8219 25.9579 95.8101 25.9455 95.8101 25.9144C95.9462 25.8523 96.0467 25.7219 96.1059 25.5355C96.171 25.3429 96.2124 25.2498 96.242 25.2498C96.3307 25.3305 96.3662 25.3181 96.3662 25.2001L96.6916 25.0572L96.9341 24.964L97.4547 24.4671L97.6499 24.2L97.8984 24.1068C98.0285 23.9578 98.1232 23.8832 98.1823 23.877C98.206 23.846 98.2474 23.8335 98.3066 23.8273L98.7088 23.5478C99.2768 23.1192 99.5785 22.9204 99.6199 22.9453C99.6613 22.9701 99.4128 23.231 98.8804 23.7155C98.7207 23.8646 98.6142 24.0012 98.5609 24.1193L98.4485 24.3864L98.2829 24.4361C98.2829 24.4361 98.1528 24.4547 97.9753 24.5789C97.7978 24.7032 97.6972 24.7777 97.6736 24.8087C97.5375 24.9019 97.4251 24.9889 97.3305 25.0634C97.2358 25.138 97.2003 25.1752 97.2299 25.1752C97.153 25.2684 96.9755 25.4113 96.7034 25.61C96.4313 25.8088 96.165 26.02 95.8988 26.2498C95.6326 26.4797 95.3901 26.7033 95.1771 26.9331C94.9641 27.1567 94.8872 27.312 94.9464 27.399C94.976 27.4549 94.9346 27.5418 94.834 27.6661C94.7275 27.7841 94.5796 27.9083 94.3903 28.0326C94.2306 28.1568 94.0117 28.3245 93.7455 28.5357C93.4793 28.7469 93.2367 28.9767 93.0238 29.219C92.8108 29.4612 92.6215 29.6476 92.4618 29.7842C92.302 29.9209 92.2074 29.9892 92.1778 29.9892L91.2135 30.8526C90.971 31.0949 90.7639 31.2936 90.5924 31.4427C90.4208 31.598 90.3025 31.6601 90.2493 31.6291C90.2197 31.6042 90.1783 31.6166 90.125 31.6788C90.0718 31.7409 90.0185 31.8154 89.9653 31.9024C89.8884 32.0825 89.7642 32.1446 89.5985 32.0887C89.427 31.9769 89.4033 31.9831 89.5157 32.0887C89.6281 32.2005 89.6104 32.3434 89.4506 32.5235C89.2909 32.7347 89.3501 32.772 89.6222 32.6478C89.705 32.6167 89.8056 32.5608 89.9298 32.4863C90.054 32.4117 90.1546 32.3434 90.2315 32.2813C90.2848 32.2192 90.48 32.0514 90.8172 31.7781C91.1544 31.5048 91.5212 31.2129 91.9293 30.9085L93.0593 30.0389C93.1657 29.9209 93.2427 29.7842 93.2959 29.6414C93.3432 29.4923 93.3846 29.4364 93.4142 29.4612C93.4438 29.5171 93.4734 29.5295 93.497 29.5047C93.5207 29.4736 93.5207 29.4177 93.4911 29.3308C93.4911 29.2749 93.5503 29.1755 93.6686 29.0388C93.7869 28.9022 93.9407 28.7717 94.13 28.6537C94.3193 28.5295 94.4731 28.4425 94.5974 28.399C94.7216 28.3493 94.7689 28.3556 94.7453 28.4177C94.7453 28.4487 94.8399 28.4177 95.0292 28.3183C95.0292 28.2872 95.0292 28.2686 95.047 28.25C95.0588 28.2375 95.0647 28.2127 95.0647 28.1816V28.1382C94.8222 28.2934 94.7216 28.3245 94.7748 28.2375C94.7748 28.1816 94.8458 28.076 94.9937 27.927C95.1416 27.7779 95.3191 27.6102 95.538 27.43L96.3011 26.7468C96.3544 26.6598 96.4845 26.5231 96.7034 26.3368L97.1826 25.8834C97.3186 25.7653 97.4429 25.6411 97.5612 25.5231C97.6795 25.4051 97.8096 25.2808 97.9398 25.1628C98.3953 24.7404 98.8686 24.3056 99.3655 23.8708C99.8624 23.4298 100.217 23.1192 100.43 22.9391C100.673 22.7279 100.898 22.5229 101.111 22.3241C101.324 22.1253 101.472 21.9825 101.554 21.8955C101.738 21.6843 101.862 21.6222 101.921 21.7092L101.892 21.703ZM82.4523 26.3244C82.5883 26.1753 82.6238 26.0573 82.5647 25.9703C82.5114 25.9455 82.4286 26.0324 82.328 26.2436C82.2511 26.4797 82.2984 26.5045 82.4523 26.3244ZM82.9669 24.523C82.9669 24.523 82.8841 24.5541 82.8072 24.6162C82.7244 24.6783 82.7126 24.6472 82.7599 24.5292C82.7599 24.4423 82.8013 24.3118 82.89 24.1317C82.9788 23.9516 83.0852 23.7714 83.2036 23.5789C83.3219 23.3863 83.4461 23.2062 83.5763 23.0447C83.7064 22.8832 83.8129 22.7838 83.8957 22.7465C83.7951 22.9825 83.7064 23.1813 83.6236 23.3428C83.5467 23.5043 83.4698 23.6596 83.3929 23.8087C83.316 23.9578 83.2627 24.0571 83.2391 24.1193C83.1385 24.3864 83.0438 24.5168 82.961 24.523H82.9669ZM84.7949 25.8026L85.4989 25.7778C85.8597 25.7653 86.2384 25.6597 86.6465 25.4734C87.0547 25.287 87.4748 25.0386 87.9066 24.728C88.3089 24.4236 88.7171 24.0758 89.1312 23.6782C89.5453 23.2869 89.918 22.8956 90.2493 22.5043C90.5805 22.1129 90.8704 21.734 91.1189 21.3613C91.3673 20.9886 91.5567 20.6718 91.6868 20.4047C92.0417 19.5475 92.0003 19.1314 91.5626 19.15C91.2609 19.1624 90.8053 19.3674 90.196 19.765C89.5867 20.1687 88.9537 20.6532 88.2971 21.2309C87.6404 21.8086 87.0252 22.4173 86.4572 23.0633C85.8893 23.7093 85.4871 24.2808 85.2563 24.7839L84.7949 25.8026ZM94.3134 29.0016C94.556 28.7904 94.6624 28.6848 94.6329 28.6848C94.5737 28.6599 94.4021 28.7531 94.1064 28.9643C93.9999 29.0264 93.9111 29.0947 93.8461 29.1693C93.781 29.2438 93.7573 29.2811 93.7869 29.2811C93.8401 29.2811 93.9111 29.25 93.988 29.1879C94.0709 29.1258 94.1773 29.0637 94.3134 29.0016Z" fill="#1F1F1F"/>
<path id="Vector_5" d="M119.26 21.9923C119.869 21.3028 120.165 21.0171 120.141 21.1289C120.088 21.2159 119.97 21.3836 119.786 21.6196C119.603 21.8619 119.396 22.1165 119.171 22.3836C118.946 22.6507 118.733 22.893 118.532 23.1042C118.331 23.3154 118.207 23.4334 118.153 23.4644H118.112L117.875 23.7378C118.012 23.7067 118 23.7937 117.846 23.9986C117.662 24.2409 117.515 24.3465 117.402 24.3216L117.006 24.8558C117.189 24.6446 117.308 24.539 117.349 24.539C117.39 24.539 117.331 24.6571 117.177 24.8931L116.941 25.2472C116.941 25.2472 116.976 25.2534 116.964 25.2658C116.953 25.2844 116.929 25.2906 116.905 25.2906C116.769 25.4397 116.645 25.5888 116.527 25.7379C116.408 25.887 116.266 26.036 116.107 26.1913C116 26.2845 116.077 26.1354 116.337 25.7441C116.178 25.9242 116.083 26.0174 116.059 26.0174C115.9 26.1975 115.769 26.3715 115.663 26.533C115.556 26.6945 115.509 26.8249 115.509 26.9119L116.113 26.3218L116.911 25.4646L116.036 26.5454C115.799 26.8435 115.521 27.1914 115.201 27.5765C114.882 27.9616 114.616 28.2971 114.409 28.5641C113.983 29.0176 113.474 29.5642 112.894 30.2102C112.309 30.8562 111.688 31.4774 111.031 32.0675C110.374 32.6576 109.718 33.1607 109.055 33.5769C108.392 33.9931 107.771 34.2167 107.192 34.2353C106.334 34.2664 105.677 33.8688 105.222 33.0303C104.766 32.1917 104.583 31.1606 104.677 29.9431L104.736 29.3344C104.606 29.5145 104.376 29.7568 104.056 30.0549C103.737 30.3593 103.388 30.6637 103.009 30.968C102.63 31.2724 102.264 31.5457 101.897 31.7942C101.53 32.0426 101.252 32.1669 101.063 32.1731C100.181 32.2662 99.5779 32.0116 99.2525 31.4153C98.9272 30.819 98.7497 30.117 98.726 29.3033C98.6905 28.3219 98.8325 27.2535 99.152 26.1106C99.4714 24.9676 99.8974 23.8434 100.424 22.7315C100.95 21.6258 101.518 20.6071 102.122 19.6878C102.725 18.7685 103.281 18.0479 103.784 17.5386C104.37 16.9361 104.902 16.5261 105.375 16.3025C105.849 16.0851 106.328 16.023 106.801 16.1161C107.328 16.2404 107.819 16.4267 108.268 16.669C108.718 16.9112 109.061 17.1908 109.292 17.5013L109.333 17.5883C109.333 17.5883 109.398 17.5448 109.457 17.5386C109.676 17.4144 109.824 17.4082 109.913 17.52C110.002 17.6628 110.138 17.6877 110.327 17.5883C110.493 17.5262 110.729 17.6442 111.043 17.9548C111.214 18.0914 111.327 18.2467 111.392 18.4206C111.451 18.5946 111.463 18.8368 111.415 19.1598C111.344 19.5077 111.208 19.9735 111.007 20.545C110.806 21.1165 110.569 21.7314 110.303 22.3774C110.037 23.0234 109.777 23.6508 109.516 24.2595C109.262 24.862 109.043 25.3714 108.866 25.7876C108.665 26.3156 108.463 26.8932 108.262 27.5082C108.061 28.1231 107.884 28.7256 107.724 29.3158C107.564 29.9059 107.446 30.4276 107.363 30.8935C107.28 31.3594 107.263 31.6948 107.292 31.8936C107.328 32.1234 107.393 32.2228 107.487 32.1917C107.582 32.1607 107.925 31.9308 108.523 31.5022C108.682 31.378 108.907 31.1854 109.185 30.9121C109.463 30.6388 109.777 30.3407 110.126 30.0052C110.475 29.676 110.842 29.3033 111.226 28.8996C111.611 28.4958 111.989 28.0921 112.368 27.7007C113.113 26.887 113.592 26.3777 113.805 26.1665C114.018 25.9553 113.912 26.1044 113.492 26.6137C113.042 27.1231 112.67 27.5641 112.38 27.943C112.09 28.3157 111.942 28.5207 111.948 28.5455C111.948 28.6635 112.066 28.6263 112.297 28.4461C112.528 28.266 112.788 28.0051 113.078 27.6759C113.208 27.5268 113.344 27.3964 113.48 27.2908C113.616 27.1852 113.693 27.1479 113.723 27.1728C113.835 27.2287 113.953 27.1479 114.089 26.9429C114.249 26.7628 114.273 26.6758 114.16 26.682C114.107 26.682 114.143 26.5827 114.273 26.3715C114.403 26.1913 114.527 26.1292 114.64 26.1851C114.693 26.21 114.835 26.1292 115.065 25.9304C115.29 25.7317 115.539 25.4708 115.805 25.1416C116.071 24.8124 116.302 24.5515 116.503 24.3527C116.704 24.1539 116.828 24.0732 116.887 24.098C116.917 24.1539 116.828 24.3279 116.615 24.6074C116.402 24.8931 116.124 25.241 115.781 25.6633C114.77 26.8311 114.101 27.6386 113.77 28.0672C113.439 28.502 113.385 28.6573 113.598 28.5331L113.764 28.4834L113.882 28.3467C114.409 27.6324 114.989 26.8808 115.627 26.1044C116.26 25.3279 116.846 24.6384 117.379 24.0359L117.42 23.9924L117.976 23.3588C117.976 23.216 118.023 23.1414 118.136 23.1352L118.177 23.0918C118.177 23.0918 118.242 23.0607 118.295 22.9986C118.532 22.7253 118.733 22.5327 118.899 22.4085L119.26 22.0047V21.9923ZM102.595 28.8561C103.388 27.8125 104.056 26.8684 104.612 26.036C105.162 25.2037 105.665 24.3838 106.121 23.5825C106.576 22.7812 107.014 21.955 107.44 21.0978C107.866 20.2406 108.363 19.2654 108.931 18.166C108.789 17.9983 108.659 17.8989 108.546 17.874C108.434 17.8492 108.185 17.8864 107.807 17.992C107.475 18.0666 107.192 18.1846 106.949 18.3523C106.706 18.52 106.387 18.8182 105.985 19.2406C105.718 19.5387 105.405 19.9114 105.05 20.34C104.695 20.7748 104.393 21.1537 104.157 21.4829C103.95 21.8122 103.749 22.0855 103.565 22.3091C103.382 22.5327 103.269 22.6321 103.246 22.6072C103.187 22.5824 103.234 22.4209 103.376 22.1227C103.518 21.8308 103.713 21.4705 103.962 21.0543C104.21 20.6382 104.476 20.2158 104.766 19.781C105.056 19.3524 105.334 18.9859 105.6 18.6815C106.21 17.961 106.488 17.5821 106.428 17.5386C106.369 17.4951 106.026 17.8243 105.387 18.5138C104.695 19.2654 104.044 20.1847 103.429 21.2655C102.82 22.3464 102.364 23.4023 102.068 24.4272L101.767 25.3093L102.477 24.3216L102.287 24.8496C102.134 25.1478 101.974 25.5888 101.814 26.1727C101.654 26.7566 101.518 27.3467 101.4 27.9306C101.282 28.5145 101.217 29.0238 101.205 29.4586C101.193 29.8934 101.258 30.1108 101.394 30.1046C101.589 30.0984 101.986 29.676 102.595 28.8375V28.8561ZM101.37 22.247C101.27 22.483 101.234 22.5886 101.276 22.5576C101.317 22.5265 101.394 22.4147 101.512 22.2221C101.631 22.0296 101.773 21.7873 101.944 21.4892C102.116 21.191 102.264 20.8991 102.388 20.6009L102.891 19.4952L102.228 20.6506C102.045 20.9798 101.873 21.2904 101.702 21.5823C101.53 21.8805 101.424 22.0979 101.37 22.247ZM105.115 17.9237C104.902 18.1039 104.66 18.3772 104.399 18.7374C104.133 19.0977 103.873 19.4766 103.612 19.8804C103.352 20.2841 103.11 20.6879 102.891 21.104C102.672 21.5202 102.494 21.8743 102.37 22.1662L101.95 23.1849C101.873 23.2719 101.773 23.57 101.648 24.067C101.424 24.744 101.359 25.036 101.453 24.9428C101.548 24.8496 101.743 24.4086 102.051 23.6135C102.483 22.4954 102.95 21.4892 103.459 20.6009C103.967 19.7127 104.5 18.9486 105.056 18.3213C105.588 17.7187 105.866 17.3771 105.89 17.2901C105.914 17.2032 105.659 17.4144 105.127 17.9299L105.115 17.9237ZM105.369 27.5703C105.174 28.3033 105.139 28.5704 105.275 28.3778C105.405 28.1852 105.636 27.62 105.961 26.6758C106.115 26.2907 106.304 25.8124 106.535 25.241C106.766 24.6695 106.996 24.0918 107.239 23.5141C107.481 22.9365 107.724 22.4085 107.972 21.9178C108.215 21.427 108.416 21.0543 108.576 20.7873C108.682 20.6382 108.759 20.5139 108.812 20.4083C108.866 20.3028 108.86 20.2531 108.812 20.2593C108.73 20.2593 108.517 20.5698 108.179 21.1786C107.842 21.7873 107.481 22.4954 107.091 23.3092C106.706 24.1229 106.346 24.9366 106.014 25.7441C105.683 26.5578 105.47 27.1665 105.375 27.5765L105.369 27.5703ZM105.754 25.5081C105.701 25.5081 105.642 25.5391 105.594 25.6012C105.405 25.7565 105.316 25.8994 105.322 26.0485C105.322 26.1665 105.411 26.1603 105.571 26.036L105.76 25.5081H105.754ZM106.068 28.4958C106.068 28.6387 106.121 28.6076 106.21 28.4026C106.298 28.1977 106.351 28.0051 106.375 27.8312C106.369 27.6573 106.316 27.6883 106.215 27.9244C106.162 27.9865 106.121 28.0734 106.103 28.1915C106.079 28.3095 106.068 28.4089 106.073 28.4958H106.068ZM106.328 24.0483C106.245 24.1104 106.221 24.185 106.251 24.2719L106.328 24.0483ZM106.357 27.3529C106.357 27.4088 106.452 27.2597 106.63 26.9057C106.813 26.5516 107.044 26.0795 107.328 25.4894C107.612 24.8993 107.836 24.3775 107.996 23.9179C108.162 23.4644 108.227 23.2036 108.197 23.1477C108.168 23.0917 108.055 23.2595 107.86 23.6632C107.665 24.0608 107.458 24.5204 107.227 25.036C106.996 25.5515 106.795 26.0485 106.618 26.5143C106.44 26.9864 106.351 27.2659 106.357 27.3529ZM111.404 29.3779C111.534 29.2288 111.634 29.0983 111.699 28.999C111.764 28.8934 111.782 28.8437 111.759 28.8437C111.705 28.8437 111.634 28.8996 111.557 29.0052C111.48 29.1108 111.374 29.235 111.238 29.3903C111.102 29.5394 111.007 29.6574 110.942 29.7506C110.877 29.8375 110.871 29.881 110.924 29.881C111.007 29.881 111.167 29.7133 111.404 29.3841V29.3779ZM113.545 29.0797C113.652 29.0176 113.788 28.9058 113.947 28.7381C114.107 28.5704 114.267 28.3964 114.427 28.2163C114.586 28.0362 114.728 27.8498 114.864 27.6573C114.994 27.4647 115.071 27.3218 115.101 27.2349L114.781 27.5082C114.225 28.1666 113.829 28.6014 113.604 28.8126C113.379 29.0238 113.356 29.0114 113.539 28.7691C113.379 28.8934 113.285 28.9368 113.255 28.912C113.143 28.8561 113.019 28.9182 112.888 29.0983C112.622 29.4276 112.841 29.4213 113.551 29.0735L113.545 29.0797ZM114.391 25.9988C114.391 25.9988 114.35 25.9553 114.344 25.8683C114.338 25.7814 114.592 25.4584 115.095 24.9055C115.598 24.3527 116.266 23.6508 117.095 22.806C117.337 22.5638 117.367 22.5576 117.195 22.7812C117.024 23.0048 116.698 23.4023 116.219 23.9738C115.716 24.5453 115.29 25.0236 114.941 25.4149C114.598 25.8062 114.409 25.9988 114.379 26.005L114.391 25.9988ZM115.196 25.3155C115.752 24.6881 116.343 24.0173 116.97 23.3092C117.597 22.601 118.183 21.9675 118.727 21.3898C119.272 20.8183 119.727 20.3587 120.088 20.0108C120.449 19.663 120.632 19.5325 120.632 19.6195C120.632 19.6505 120.52 19.7934 120.295 20.0481C120.07 20.3028 119.78 20.5947 119.437 20.9301C119.118 21.2593 118.852 21.5637 118.639 21.8308C118.426 22.0979 118.337 22.2656 118.366 22.3215C118.426 22.3774 118.443 22.4209 118.432 22.452C118.42 22.483 118.384 22.483 118.331 22.452C118.301 22.452 118.189 22.5451 117.988 22.7253C117.787 22.9054 117.568 23.129 117.325 23.3837C117.083 23.6384 116.852 23.8806 116.627 24.1042C116.402 24.3279 116.249 24.4894 116.166 24.5763C115.42 25.3341 114.959 25.7751 114.781 25.9118C114.604 26.0485 114.746 25.8497 115.196 25.3093V25.3155Z" fill="#1F1F1F"/>
<path id="Vector_6" d="M126.342 32.5095C126.454 32.5095 126.466 32.6586 126.377 32.9629C126.288 33.2735 126.146 33.6897 125.945 34.2177C125.815 34.4848 125.691 34.7767 125.561 35.0997C125.436 35.4227 125.348 35.6712 125.294 35.8513C125.022 36.7893 124.614 37.6216 124.076 38.3546C123.538 39.0875 123.005 39.5658 122.49 39.7832C122.165 39.9385 121.934 40.0193 121.792 40.0255C121.65 40.0317 121.42 39.982 121.082 39.8764C120.887 39.8267 120.692 39.7584 120.497 39.6838C120.302 39.6031 120.16 39.5348 120.077 39.4851C119.882 39.3484 119.71 39.2801 119.574 39.2863C119.521 39.2863 119.426 39.2366 119.296 39.1248C119.166 39.013 119.036 38.8888 118.888 38.7459C117.74 37.4539 117.379 34.727 117.817 30.5653C117.858 30.0994 117.923 29.5403 118.03 28.8819C118.13 28.2235 118.231 27.5651 118.332 26.888C118.432 26.2172 118.539 25.5836 118.657 24.981C118.775 24.3847 118.882 23.9064 118.982 23.5524L119.604 21.1796C119.698 20.8007 119.828 20.3286 119.988 19.7757C120.148 19.2167 120.319 18.6328 120.509 18.0179C120.692 17.4029 120.887 16.8004 121.088 16.2103C121.29 15.6202 121.467 15.1233 121.615 14.7133L122.443 12.3343L123.502 9.50801C123.579 9.33408 123.656 9.15395 123.733 8.98002C123.81 8.79989 123.875 8.63839 123.922 8.49552L124.111 8.0545C124.111 7.99859 124.159 7.8433 124.259 7.58863C124.36 7.34016 124.549 6.83082 124.827 6.06679C124.957 5.77485 125.135 5.32762 125.36 4.74373C125.584 4.15984 125.827 3.56353 126.087 2.97343C126.342 2.38333 126.566 1.86155 126.756 1.4019C126.945 0.948451 127.069 0.66893 127.122 0.581968C127.223 0.345928 127.353 0.215488 127.501 0.196853C127.655 0.178219 127.897 0.234121 128.235 0.364564C128.601 0.526065 128.856 0.762105 129.004 1.07268C129.063 1.24661 129.152 1.38326 129.27 1.49507C129.382 1.60688 129.483 1.71869 129.572 1.8305C129.66 1.94231 129.714 2.07896 129.731 2.24046C129.749 2.40196 129.708 2.59452 129.607 2.83056C129.169 3.77472 128.72 4.75615 128.258 5.77485C127.797 6.79355 127.389 7.7874 127.034 8.75641L125.815 11.8933C125.507 12.6324 125.188 13.4958 124.851 14.4959C124.514 15.496 124.165 16.5644 123.804 17.7135C123.443 18.8564 123.094 20.0615 122.751 21.3224C122.408 22.5834 122.094 23.8443 121.804 25.0991C121.319 27.0309 120.94 28.8819 120.674 30.646C120.408 32.4101 120.29 33.9319 120.337 35.2053C120.349 35.6091 120.373 36.0314 120.402 36.4663C120.432 36.9011 120.473 37.2924 120.526 37.634C120.58 37.9819 120.645 38.2676 120.722 38.4974C120.798 38.7273 120.893 38.8391 121.006 38.8329C121.118 38.8267 121.325 38.6589 121.633 38.3297C121.94 38.0005 122.236 37.6216 122.526 37.2054C122.656 36.9942 122.78 36.8203 122.899 36.6712C123.017 36.5222 123.088 36.4476 123.117 36.4476C123.2 36.4166 123.212 36.342 123.153 36.2302C123.041 36.1184 123.064 36.1184 123.236 36.2302C123.319 36.2551 123.348 36.2302 123.313 36.137C123.283 36.0811 123.295 35.988 123.342 35.8513C123.39 35.7209 123.449 35.5842 123.514 35.4538C123.579 35.3233 123.644 35.2115 123.709 35.1183C123.774 35.0314 123.821 35.0003 123.851 35.0252C123.934 35.1121 123.952 35.0935 123.892 34.9817C123.863 34.9258 123.904 34.7394 124.017 34.4351C124.129 34.1307 124.277 33.7642 124.454 33.3543L126.069 29.7267C126.353 29.1366 126.59 28.6272 126.785 28.1986C126.975 27.77 127.099 27.5278 127.152 27.4657C127.205 27.4036 127.182 27.5092 127.081 27.7763C126.98 28.0434 126.839 28.3788 126.661 28.795C126.353 29.5031 126.105 30.0808 125.916 30.5218C125.726 30.9628 125.578 31.3169 125.478 31.584C125.377 31.8511 125.306 32.0312 125.271 32.1368C125.235 32.2424 125.212 32.3045 125.218 32.3356C125.218 32.4536 125.182 32.5281 125.099 32.5592C125.016 32.6213 124.951 32.7517 124.904 32.9567C124.857 33.1928 124.792 33.3543 124.715 33.4412C124.608 33.6214 124.561 33.7518 124.561 33.8388C124.514 34.0127 124.431 34.1493 124.324 34.2363C124.218 34.3543 124.194 34.3978 124.247 34.3667C124.383 34.3046 124.401 34.373 124.295 34.5841C124.088 35.0562 123.857 35.4972 123.597 35.9134C123.336 36.3296 123.135 36.6091 123.005 36.7644C122.816 36.9445 122.751 37.0936 122.816 37.2054C122.875 37.3172 122.863 37.3483 122.78 37.2924C122.697 37.2365 122.668 37.2551 122.697 37.3421C122.757 37.4539 122.851 37.4539 122.987 37.3297C123.117 37.1806 123.36 36.7955 123.715 36.1681C124.064 35.5469 124.419 34.8512 124.78 34.081C125.058 33.4039 125.283 32.9132 125.454 32.6213C125.626 32.3231 125.709 32.2175 125.715 32.3045C125.715 32.3604 125.626 32.5902 125.448 32.9878C125.271 33.3853 125.07 33.8201 124.851 34.2922C124.632 34.7643 124.413 35.2177 124.194 35.6463C123.975 36.0749 123.827 36.3358 123.745 36.4228C123.638 36.5718 123.614 36.6712 123.674 36.7333C123.703 36.7582 123.762 36.7334 123.857 36.6402C123.952 36.547 124.052 36.4352 124.159 36.3048C124.265 36.1681 124.366 36.0439 124.454 35.9258C124.549 35.8078 124.591 35.7147 124.591 35.6587C124.591 35.6028 124.638 35.4972 124.744 35.3482C124.851 35.1991 124.969 35.0376 125.099 34.8575C125.472 34.4351 125.655 34.1431 125.649 33.9692C125.649 33.8263 125.709 33.6773 125.839 33.5282C125.998 33.3791 126.099 33.1679 126.146 32.907C126.194 32.6461 126.259 32.5095 126.342 32.5095ZM118.604 33.9816C118.633 33.199 118.704 32.2548 118.817 31.1429C118.929 30.0373 119.065 29.031 119.231 28.1241C119.302 27.8011 119.361 27.4967 119.408 27.2048C119.456 26.9128 119.473 26.7389 119.473 26.683C119.497 26.5091 119.556 26.1985 119.651 25.7637C119.745 25.3227 119.852 24.8568 119.976 24.3599C120.095 23.863 120.219 23.3785 120.343 22.9126C120.467 22.4467 120.562 22.0927 120.639 21.8566C120.71 21.5647 120.781 21.2479 120.852 20.9125C120.923 20.577 120.97 20.3224 120.988 20.1484C121.006 19.9435 121.029 19.7757 121.053 19.6453C121.077 19.5149 121.112 19.459 121.171 19.49C121.23 19.5459 121.319 19.3409 121.437 18.8689L121.958 17.1545C122.059 16.8874 122.135 16.6451 122.183 16.4277C122.23 16.2103 122.236 16.0674 122.212 16.0115C122.153 15.9246 122.165 15.8997 122.248 15.9246C122.331 15.9805 122.396 15.9059 122.449 15.701C122.473 15.645 122.544 15.4463 122.656 15.1046C122.768 14.7692 122.899 14.4089 123.052 14.0238C123.354 13.1728 123.603 12.4896 123.786 11.974C123.975 11.4584 124.129 11.0485 124.241 10.7379C124.354 10.4273 124.437 10.2037 124.484 10.0546C124.531 9.90555 124.585 9.78753 124.638 9.70056C124.815 9.20364 124.78 9.04214 124.537 9.22849C124.431 9.2906 124.401 9.36514 124.46 9.4521C124.543 9.53285 124.508 9.63845 124.348 9.76268C124.212 9.91176 124.176 10.0484 124.236 10.1602C124.295 10.272 124.271 10.3341 124.159 10.3404C124.046 10.3466 124.023 10.3776 124.082 10.4335C124.141 10.4894 124.111 10.5764 124.011 10.6944C123.904 10.8746 123.857 11.0485 123.863 11.2224C123.869 11.4274 123.833 11.5268 123.75 11.533C123.721 11.533 123.662 11.6324 123.573 11.8249C123.484 12.0175 123.39 12.2473 123.283 12.5082L122.561 14.322L122.064 15.5581C121.964 15.85 121.917 16.055 121.922 16.173C121.928 16.2911 121.875 16.4339 121.775 16.6141C121.698 16.701 121.633 16.8377 121.579 17.0116C121.579 17.0986 121.568 17.1855 121.526 17.2725C121.491 17.3594 121.443 17.434 121.39 17.4961C121.337 17.5582 121.295 17.5831 121.266 17.5644C121.236 17.552 121.236 17.4588 121.254 17.2849C121.278 17.1979 121.319 17.0489 121.384 16.8439C121.443 16.6389 121.514 16.4463 121.591 16.2724L122.266 14.2909C122.39 13.912 122.514 13.5331 122.638 13.1666C122.763 12.8001 122.863 12.5268 122.94 12.3529C123.017 12.2038 123.106 11.9989 123.206 11.7318C123.307 11.4647 123.396 11.2286 123.472 11.0236C123.62 10.5267 123.786 10.0546 123.963 9.6136C124.141 9.17258 124.318 8.74398 124.496 8.33402C124.857 7.53894 124.863 7.37743 124.52 7.85572L124.165 8.4334C124.165 8.48931 124.147 8.58248 124.111 8.69429C124.076 8.81231 124.029 8.93033 123.981 9.04835C123.928 9.19743 123.869 9.37135 123.792 9.57633C123.715 9.78132 123.656 9.97387 123.603 10.1478C123.478 10.5578 123.378 10.7627 123.295 10.769C123.183 10.769 123.171 10.8186 123.259 10.8994C123.289 10.9864 123.277 11.0298 123.224 11.0298C123.141 11.0298 123.1 11.092 123.106 11.21C123.106 11.3528 123.064 11.5454 122.958 11.7814C122.727 12.2846 122.544 12.738 122.408 13.1542C122.272 13.5642 122.201 13.8126 122.206 13.8996C122.206 14.0176 122.171 14.0735 122.088 14.0797C122.005 14.0859 121.97 14.1729 121.976 14.3468C121.976 14.4027 121.94 14.558 121.869 14.8065C121.798 15.0549 121.71 15.3283 121.609 15.6202C121.479 15.9184 121.355 16.2538 121.23 16.6327C121.106 17.0116 121.006 17.3532 120.935 17.6452C120.887 17.9061 120.828 18.1359 120.751 18.3284C120.674 18.521 120.621 18.6328 120.597 18.6639C120.544 18.726 120.52 18.8564 120.526 19.0552C120.532 19.254 120.497 19.3596 120.414 19.3658C120.302 19.3658 120.278 19.4155 120.337 19.4962C120.396 19.5521 120.384 19.6826 120.307 19.8876C120.231 20.0677 120.236 20.1484 120.319 20.1484C120.402 20.1484 120.444 20.0987 120.438 20.0118C120.432 19.9248 120.473 19.8813 120.556 19.8751C120.609 19.8751 120.627 19.9372 120.603 20.0677C120.58 20.1981 120.509 20.4714 120.384 20.8814C120.26 21.3535 120.16 21.5833 120.077 21.5895C120.024 21.5895 120.041 21.4032 120.142 21.0243C120.242 20.7013 120.296 20.4839 120.307 20.3658C120.319 20.2478 120.284 20.2789 120.207 20.459C120.13 20.6081 120.035 20.8504 119.923 21.1858C119.811 21.5212 119.704 21.869 119.609 22.2231C119.515 22.5772 119.426 22.8877 119.355 23.1673C119.284 23.4468 119.26 23.6021 119.29 23.6269C119.32 23.658 119.284 23.776 119.178 23.981C119.124 24.0431 119.089 24.1301 119.065 24.2481C119.042 24.3661 119.047 24.4531 119.077 24.509C119.136 24.6829 119.13 24.7699 119.047 24.7699C118.935 24.7699 118.888 24.8755 118.894 25.0804C118.876 25.4034 118.864 25.6022 118.852 25.6892C118.84 25.7761 118.811 25.8196 118.752 25.8258C118.669 25.8258 118.657 25.919 118.722 26.0867C118.787 26.3165 118.752 26.5526 118.621 26.7886C118.521 27.1116 118.503 27.2855 118.556 27.3104C118.586 27.3663 118.556 27.4408 118.479 27.5278C118.456 27.5899 118.432 27.6769 118.409 27.7887C118.385 27.9067 118.373 28.0371 118.379 28.18C118.444 28.4657 118.426 28.6831 118.32 28.8322C118.296 28.8943 118.272 28.9689 118.243 29.0745C118.219 29.1801 118.207 29.2857 118.213 29.4037C118.19 29.5776 118.172 29.8137 118.154 30.0994C118.136 30.3913 118.113 30.5653 118.089 30.6212C118.065 30.6522 118.048 30.7081 118.054 30.7951L118.065 31.056C118.071 31.2858 118.048 31.4038 117.994 31.41C117.912 31.41 117.87 31.4597 117.876 31.5467C117.882 31.6336 117.965 31.6709 118.13 31.6647C118.243 31.6647 118.314 31.6958 118.343 31.7641C118.373 31.8386 118.367 32.0188 118.32 32.3107C118.278 32.6896 118.231 32.9381 118.178 33.0561C118.095 33.0872 118.077 32.9008 118.119 32.4908C118.16 32.025 118.136 31.7951 118.054 31.7951C118.024 31.7951 118 31.8697 117.977 32.0126C117.953 32.1616 117.947 32.348 117.953 32.5778C117.965 32.8946 117.983 33.0996 118.018 33.1865C118.048 33.2735 118.089 33.2984 118.142 33.2673C118.255 33.2362 118.296 33.3356 118.278 33.5654C118.231 33.8574 118.213 34.1059 118.219 34.3046C118.225 34.5345 118.16 34.6525 118.024 34.6587C117.912 34.6587 117.858 34.7084 117.864 34.7953C117.87 34.8823 117.923 34.9258 118.036 34.9196C118.119 34.9196 118.201 34.9879 118.29 35.1246C118.32 35.1805 118.338 35.1742 118.349 35.0997C118.361 35.0252 118.361 34.9009 118.355 34.727L118.373 34.0748L118.479 34.7208C118.515 35.0065 118.545 35.1121 118.55 35.0252C118.562 34.9382 118.586 34.5904 118.616 33.9816H118.604ZM118.166 35.696C118.409 35.5159 118.432 35.4227 118.237 35.4351C118.184 35.4351 118.13 35.5097 118.077 35.6587C118 35.8327 118.03 35.8513 118.16 35.696H118.166ZM118.385 36.0377C118.379 35.8637 118.349 35.8078 118.296 35.8699C118.243 35.9321 118.249 36.019 118.308 36.1308C118.367 36.2426 118.397 36.2116 118.385 36.0439V36.0377ZM118.456 36.9073C118.485 36.9632 118.497 36.9073 118.491 36.7333C118.485 36.5594 118.468 36.5035 118.444 36.5594C118.397 36.7085 118.397 36.8203 118.456 36.9073ZM118.769 36.4166C118.763 36.2426 118.734 36.1867 118.681 36.2488C118.627 36.311 118.633 36.3979 118.692 36.5097C118.752 36.6215 118.781 36.5967 118.769 36.4228V36.4166ZM119.124 26.3538C119.243 26.5836 119.249 26.7141 119.136 26.7451C119 26.8073 118.911 27.0309 118.87 27.4098C118.846 27.5589 118.823 27.7017 118.805 27.8446C118.781 27.9937 118.746 28.093 118.692 28.1552C118.639 28.2732 118.627 28.1365 118.657 27.7452C118.687 27.3539 118.746 26.9501 118.84 26.5402L118.947 26.0122L119.124 26.3538ZM119.426 24.3413C119.479 24.2791 119.497 24.3288 119.473 24.4903C119.45 24.6518 119.414 24.8071 119.367 24.95C119.29 25.186 119.243 25.2792 119.213 25.2419C119.183 25.1985 119.195 25.0618 119.243 24.8258L119.432 24.3413H119.426ZM119.728 30.5963C119.787 29.9876 119.781 29.7267 119.698 29.8137C119.674 29.8447 119.645 29.9255 119.621 30.0559C119.598 30.1864 119.58 30.3168 119.574 30.4472C119.562 30.5777 119.556 30.6957 119.544 30.7951C119.533 30.8945 119.544 30.9504 119.568 30.9442C119.621 30.9442 119.674 30.8261 119.722 30.5901L119.728 30.5963ZM119.621 24.0307C119.574 24.1798 119.503 24.2294 119.42 24.1922C119.337 24.1487 119.32 24.0555 119.367 23.9127C119.414 23.6766 119.479 23.5338 119.556 23.4716C119.639 23.4095 119.68 23.453 119.686 23.5959C119.663 23.6828 119.651 23.7636 119.651 23.8381C119.651 23.9127 119.645 23.9748 119.615 24.0369L119.621 24.0307ZM119.87 28.8074C119.787 28.8695 119.751 28.944 119.751 29.031C119.751 29.149 119.799 29.1304 119.876 28.9813C120.006 28.7763 120.006 28.7142 119.87 28.8074ZM119.899 29.59L120.018 29.4534C120.018 29.3975 119.976 29.3664 119.893 29.3726C119.811 29.3788 119.769 29.4347 119.775 29.5528C119.775 29.6397 119.822 29.6522 119.899 29.59ZM120.018 28.1924C119.958 28.1365 119.976 28.1055 120.059 28.1055C120.142 28.1055 120.183 28.0309 120.177 27.8819C120.171 27.6769 120.112 27.6831 120.012 27.8881C119.905 28.0371 119.852 28.18 119.84 28.3105C119.828 28.4409 119.882 28.4782 119.988 28.4161C120.071 28.385 120.083 28.3105 120.024 28.1986L120.018 28.1924ZM119.84 24.2419C119.816 24.3909 119.793 24.4158 119.763 24.3288C119.674 24.186 119.674 24.1176 119.757 24.1114C119.811 24.0493 119.84 24.0928 119.846 24.2357L119.84 24.2419ZM119.947 22.5834C119.822 22.9374 119.745 23.1114 119.716 23.1114C119.686 23.0865 119.686 23.012 119.71 22.894C119.734 22.7759 119.763 22.6393 119.799 22.4778C119.834 22.3163 119.87 22.1672 119.905 22.0368C119.941 21.9063 119.97 21.8131 120 21.751C120.16 21.5709 120.142 21.8504 119.947 22.5772V22.5834ZM120.373 26.5277C120.509 26.5277 120.55 26.4905 120.491 26.4346C120.432 26.3787 120.337 26.3849 120.201 26.447C120.095 26.5091 120.041 26.6271 120.047 26.801C120.053 26.975 120.095 27.0309 120.177 26.9688C120.231 26.9377 120.254 26.8507 120.248 26.7079C120.219 26.5961 120.254 26.5339 120.367 26.5277H120.373ZM120.55 25.6954C120.686 25.6954 120.757 25.6457 120.751 25.5587C120.751 25.5028 120.71 25.4718 120.627 25.478C120.515 25.478 120.461 25.5152 120.467 25.5711C120.414 25.6581 120.444 25.7016 120.556 25.6954H120.55ZM120.828 19.4217C120.775 19.5708 120.716 19.6267 120.651 19.6018C120.58 19.577 120.568 19.49 120.621 19.3409C120.668 19.167 120.722 19.0738 120.775 19.0738C120.887 19.0738 120.905 19.1856 120.828 19.4217ZM120.893 18.9434C120.81 18.9434 120.793 18.8751 120.846 18.726C120.899 18.608 120.935 18.5459 120.964 18.5459V18.5893C120.964 18.5893 120.976 18.639 120.988 18.6514C121 18.6639 121.011 18.6887 121.011 18.7136C121.011 18.8564 120.976 18.931 120.893 18.9372V18.9434ZM121.159 18.2788C121.053 18.3968 120.994 18.3595 120.988 18.1545C120.988 18.0117 121.011 17.8998 121.082 17.8253C121.148 17.7508 121.213 17.7818 121.272 17.9247C121.301 18.0427 121.266 18.1545 121.159 18.2788ZM123.33 37.7334C123.467 37.6402 123.532 37.5222 123.526 37.3794C123.52 37.2365 123.449 37.2241 123.319 37.3421C123.212 37.4601 123.159 37.5781 123.165 37.6961C123.165 37.839 123.224 37.8514 123.33 37.7334ZM124.999 8.38371C124.945 8.38371 124.892 8.45825 124.839 8.60733C124.839 8.7502 124.792 8.85579 124.685 8.91791C124.579 8.98002 124.591 9.01108 124.727 9.00487C124.809 9.00487 124.916 8.88064 125.046 8.6446C125.147 8.40856 125.2 8.28433 125.2 8.2719C125.2 8.25948 125.158 8.22221 125.07 8.1663C125.011 8.1104 124.975 8.09177 124.963 8.10419C124.951 8.12282 124.969 8.15388 125.028 8.20978C125.058 8.26569 125.046 8.32781 124.993 8.38371H124.999ZM125.289 6.06679C125.212 6.18481 125.135 6.35874 125.058 6.57614C124.981 6.79355 124.975 6.90535 125.028 6.90535C125.111 6.90535 125.188 6.78112 125.265 6.55129C125.342 6.31525 125.377 6.15375 125.371 6.06679C125.365 5.97983 125.342 5.97983 125.289 6.06679ZM125.425 7.66938C125.549 7.31532 125.543 7.14139 125.407 7.14761C125.294 7.14761 125.283 7.1973 125.371 7.27805C125.401 7.36501 125.389 7.4085 125.336 7.4085C125.283 7.4085 125.259 7.50167 125.265 7.66938C125.277 7.98617 125.33 7.98617 125.431 7.66317L125.425 7.66938ZM126.738 29.8509C126.844 29.7578 126.844 29.8199 126.744 30.0248C126.667 30.1739 126.626 30.1863 126.62 30.0745C126.62 29.9876 126.655 29.913 126.738 29.8509ZM126.915 31.41C126.915 31.292 126.939 31.1802 127.004 31.056C127.069 30.938 127.128 30.9069 127.188 30.9628C127.217 30.9939 127.176 31.0932 127.075 31.2734C126.969 31.4535 126.915 31.497 126.915 31.41ZM127.27 28.5216C127.377 28.4595 127.436 28.472 127.436 28.5589C127.436 28.6459 127.389 28.7204 127.276 28.7825C127.199 28.8695 127.152 28.8571 127.152 28.7453C127.152 28.6894 127.188 28.6148 127.27 28.5216ZM127.767 26.1116C127.821 26.1116 127.838 26.1302 127.809 26.1737C127.785 26.2172 127.702 26.3724 127.578 26.6395L127.383 26.9936C127.353 26.9066 127.395 26.7389 127.507 26.4905C127.625 26.242 127.708 26.1116 127.761 26.1116H127.767ZM128.406 27.7825C128.459 27.7825 128.489 27.7949 128.489 27.8197C128.489 27.8446 128.424 27.9937 128.3 28.2608C128.146 28.5279 128.028 28.6894 127.945 28.7515C127.892 28.7515 127.927 28.59 128.051 28.267C128.235 27.944 128.353 27.7763 128.406 27.7763V27.7825ZM128.536 24.3847C128.59 24.3847 128.619 24.3847 128.619 24.4034C128.619 24.4158 128.554 24.5462 128.424 24.7823C128.057 25.4034 127.992 25.4345 128.223 24.8755C128.347 24.5524 128.454 24.3909 128.536 24.3847ZM128.306 26.006C128.388 25.9438 128.43 25.9501 128.43 26.0246C128.43 26.0991 128.394 26.2047 128.317 26.3538C128.264 26.4408 128.235 26.4283 128.235 26.3103C128.205 26.1985 128.229 26.0929 128.306 26.006ZM128.791 26.77C128.921 26.5898 128.98 26.5464 128.974 26.6333C128.962 26.7203 128.909 26.8818 128.803 27.1178C128.672 27.3849 128.595 27.5154 128.566 27.5216C128.513 27.5216 128.513 27.4346 128.578 27.2607C128.643 27.0868 128.714 26.9253 128.791 26.7762V26.77ZM128.962 24.5897C128.962 24.5028 128.986 24.4469 129.039 24.4096C129.092 24.3785 129.122 24.4096 129.128 24.4965C129.128 24.5524 129.11 24.6332 129.075 24.7388C129.039 24.8444 128.98 24.9376 128.897 25.0307L128.661 25.3475L128.814 25.037C128.915 24.8009 128.968 24.6518 128.962 24.5959V24.5897ZM129.459 23.4406C129.536 23.3226 129.578 23.2915 129.578 23.3474C129.578 23.4654 129.542 23.5834 129.465 23.7015C129.441 23.7636 129.412 23.8008 129.388 23.8133C129.359 23.8319 129.347 23.8133 129.347 23.7512C129.347 23.7201 129.359 23.6766 129.382 23.6207C129.406 23.5648 129.436 23.5027 129.459 23.4406ZM129.548 22.4343C129.684 22.3722 129.684 22.4405 129.554 22.6517C129.53 22.7138 129.501 22.7511 129.477 22.7635C129.447 22.7821 129.436 22.7635 129.436 22.7014C129.436 22.6144 129.471 22.5275 129.548 22.4343ZM129.773 22.9064C129.773 22.9064 129.814 22.9499 129.82 23.0368C129.826 23.1238 129.785 23.1673 129.702 23.1735C129.589 23.1735 129.578 23.1362 129.654 23.043C129.678 22.9561 129.72 22.9126 129.773 22.9064ZM130.885 20.428C131.122 20.1547 130.997 20.5398 130.512 21.5709C130.282 22.074 130.098 22.4281 129.968 22.6331C129.838 22.8443 129.808 22.8132 129.885 22.5523C129.909 22.4654 129.974 22.3101 130.074 22.0865C130.175 21.8628 130.287 21.6392 130.4 21.397C130.518 21.1609 130.619 20.9559 130.707 20.7758C130.796 20.5957 130.855 20.4777 130.879 20.4217L130.885 20.428Z" fill="#1F1F1F"/>
</g>
</g>
</svg>
