<svg width="47" height="19" viewBox="0 0 47 19" fill="none" xmlns="http://www.w3.org/2000/svg">
<path d="M14.02 9.12093C17.3051 9.27319 20.7164 8.83837 23.9978 8.96198C25.2212 8.74286 26.4145 8.77042 27.6299 8.8161C27.8482 8.70161 28.8807 8.65091 28.6757 8.95487C28.3761 9.09828 27.9406 9.01078 27.8056 9.35565C24.3366 10.8611 20.8441 12.4368 18.1013 14.9099C18.2615 15.8499 19.0557 16.3956 19.8331 16.8913C20.1806 17.3103 20.5175 17.7981 21.0166 18.0772C21.1161 18.0999 21.7901 17.9969 22.0856 17.7285C21.7756 17.5948 21.958 17.4381 22.065 17.2267C23.1763 16.8239 24.1692 16.2649 25.1216 15.62C28.6863 13.9079 32.3696 12.2728 36.059 10.7411C39.5129 9.49175 43.0516 8.45708 46.1649 6.72761C45.4522 6.13955 45.0213 5.20162 44.1099 4.99993C44.4139 4.45415 43.2745 4.30833 43.1598 3.83018C42.2384 2.71883 40.7642 3.6026 39.5184 3.64131C34.7036 3.1073 29.8962 1.89789 25.0566 1.31306C23.712 0.930591 22.2464 0.7642 20.8955 0.383373C20.4575 0.432166 19.7957 -0.110974 19.6844 0.616459C20.0366 0.889131 20.556 1.15816 20.7217 1.54654C21.2159 1.80016 21.392 2.23167 21.9059 2.25757C21.6392 2.45351 22.8245 3.35818 23.0742 3.5717C23.1398 3.98629 23.723 3.78775 24.0135 3.96002C24.8069 4.25088 25.6253 4.34892 26.5106 4.60043C27.8121 4.95312 23.1291 4.74759 22.7517 4.98398C20.0176 4.87178 17.1701 5.42069 14.4526 5.16374C9.75295 5.53283 5.22215 5.70774 0.538645 5.93411C-0.105445 6.53073 1.10991 6.91936 1.23325 7.4669C1.53852 7.7318 2.55023 7.64547 1.84013 8.11037C3.41123 10.109 3.73044 9.65766 6.15757 9.37453C8.74659 9.4397 11.3987 9.31163 14.0191 9.12117L14.02 9.12093Z" fill="#1F1F1F"/>
</svg>
