<svg width="222" height="40" viewBox="0 0 222 40" fill="none" xmlns="http://www.w3.org/2000/svg">
<g id="Group 48095696">
<path id="Vector" d="M16.1323 39.1487V27.4657C16.1323 24.6151 16.1415 21.8323 16.1646 19.1124C16.183 16.3828 16.206 13.6 16.2383 10.7494L11.606 39.1535H8.12146L3.5445 10.7494C3.57676 13.6 3.59981 16.3828 3.61824 19.1124C3.63668 21.8323 3.64129 24.6151 3.64129 27.4657V39.1487H0V0.508636H5.30983L9.83609 30.6986L14.3624 0.508636H19.8289V39.1487H16.1323Z" fill="#1F1F1F"/>
<path id="Vector_2" d="M35.7131 39.1487L34.7774 32.6684H28.366L27.4303 39.1487H23.577L29.4584 0.508636H34.0861L39.6586 39.1487H35.7177H35.7131ZM34.3027 29.3822C33.8464 26.0622 33.3993 22.7809 32.9522 19.548C32.4959 16.3102 32.0626 12.9805 31.6478 9.56853C31.2007 12.9853 30.7352 16.3151 30.265 19.548C29.7995 22.7906 29.3201 26.0719 28.8408 29.3822H34.3073H34.3027Z" fill="#1F1F1F"/>
<path id="Vector_3" d="M55.0791 39.1487L47.5799 20.1432V39.1487H43.6298V0.508636H47.5799V17.1765L54.8117 0.508636H59.0799L50.9584 18.1154L59.61 39.1487H55.0837H55.0791Z" fill="#1F1F1F"/>
<path id="Vector_4" d="M63.0967 39.1487V0.508606H74.4492V4.11901H67.056V17.6847H72.269V21.2563H67.056V35.6205H74.7119V39.139H63.0967V39.1487Z" fill="#1F1F1F"/>
<path id="Vector_5" d="M95.4158 24.963H99.0064V32.9485C99.0064 35.1989 98.5086 36.8686 97.5177 37.9479C96.5313 39.0174 94.9457 39.5643 92.7517 39.5643C88.207 39.5643 85.9254 37.3913 85.9347 33.0307V6.73672C85.9347 2.29388 88.207 0.0773063 92.7517 0.067627C96.9138 0.067627 98.9972 2.26001 99.0064 6.63993V13.4978H95.4158V6.68348C95.4158 5.65747 95.2223 4.8928 94.8397 4.40883C94.4571 3.92002 93.7657 3.68288 92.7609 3.68288C90.8896 3.68288 89.9493 4.68469 89.9493 6.68832V32.9775C89.9493 35.015 90.885 36.0314 92.7609 36.0314C93.7289 36.0314 94.4249 35.7845 94.8212 35.286C95.213 34.7827 95.4158 34.018 95.4158 32.9823V24.963Z" fill="#1F1F1F"/>
<path id="Vector_6" d="M103.321 6.66403C103.321 2.27927 105.561 0.0917358 110.042 0.0917358C114.522 0.0917358 116.808 2.28411 116.808 6.66403V32.9968C116.808 37.3864 114.554 39.5691 110.042 39.5691C105.529 39.5691 103.321 37.3767 103.321 32.9968V6.66403ZM112.849 6.66403C112.849 4.69427 111.913 3.70214 110.037 3.70214C108.161 3.70214 107.285 4.68459 107.285 6.66403V32.9968C107.285 35.0343 108.198 36.0506 110.037 36.0506C111.876 36.0506 112.849 35.0343 112.849 32.9968V6.66403Z" fill="#1F1F1F"/>
<path id="Vector_7" d="M121.337 6.66403C121.337 2.27927 123.577 0.0917358 128.057 0.0917358C132.537 0.0917358 134.824 2.28411 134.824 6.66403V32.9968C134.824 37.3864 132.57 39.5691 128.057 39.5691C123.545 39.5691 121.337 37.3767 121.337 32.9968V6.66403ZM130.869 6.66403C130.869 4.69427 129.924 3.70214 128.057 3.70214C126.19 3.70214 125.296 4.68459 125.296 6.66403V32.9968C125.296 35.0343 126.218 36.0506 128.057 36.0506C129.896 36.0506 130.869 35.0343 130.869 32.9968V6.66403Z" fill="#1F1F1F"/>
<path id="Vector_8" d="M139.665 39.1487V0.508636H143.615V35.6303H151.271V39.1487H139.665Z" fill="#1F1F1F"/>
<path id="Vector_9" d="M170.025 27.6877C170.025 27.0973 170.011 26.6085 169.974 26.231C169.951 25.897 169.887 25.5631 169.771 25.2485C169.675 24.9678 169.536 24.7113 169.366 24.479C169.177 24.237 168.974 23.9805 168.739 23.6998C168.218 23.1336 167.697 22.6109 167.176 22.1221C166.665 21.6333 166.116 21.1445 165.563 20.6605C165.01 20.1814 164.448 19.6684 163.876 19.1118C163.3 18.5649 162.705 17.9551 162.083 17.263C161.392 16.5516 160.982 15.8063 160.853 15.0368C160.723 14.1124 160.664 13.1783 160.673 12.2443V6.45602C160.673 2.20193 162.894 0.067627 167.333 0.067627C169.73 0.067627 171.412 0.590311 172.385 1.64536C173.353 2.69074 173.851 4.29751 173.851 6.45602V13.5026H170.154V6.9303C170.154 5.96236 169.974 5.1735 169.61 4.58306C169.246 3.99262 168.518 3.69255 167.453 3.69255C165.614 3.69255 164.692 4.61693 164.692 6.45602V12.1814C164.669 12.7815 164.734 13.3816 164.872 13.9721C165.042 14.427 165.305 14.8432 165.628 15.1868C166.614 16.3241 167.688 17.3792 168.826 18.3375C169.993 19.3151 171.09 20.3556 172.131 21.4784C172.482 21.8559 172.8 22.2673 173.067 22.7028C173.311 23.1142 173.5 23.5595 173.643 24.0144C173.791 24.5371 173.878 25.0743 173.929 25.6163C173.98 26.2068 174.003 26.8843 174.003 27.6297V33.1663C174.003 35.228 173.496 36.8057 172.472 37.9092C171.445 39.0126 169.744 39.5546 167.342 39.5546C164.941 39.5546 163.328 39.0078 162.258 37.9092C161.198 36.8154 160.668 35.228 160.668 33.1663V24.9485H164.462V32.6533C164.462 33.6551 164.664 34.4681 165.065 35.0925C165.457 35.7168 166.181 36.0362 167.222 36.0362C168.264 36.0362 168.956 35.7942 169.38 35.3102C169.817 34.8311 170.03 34.11 170.03 33.1808V27.6829L170.011 27.6926L170.025 27.6877Z" fill="#1F1F1F"/>
<path id="Vector_10" d="M187.734 39.1487V21.266H182.221V39.1487H178.262V0.508606H182.221V17.7379H187.734V0.508606H191.693V39.1487H187.734Z" fill="#1F1F1F"/>
<path id="Vector_11" d="M213.303 39.1487V4.11901H208.514V0.508606H222V4.11901H217.202V39.1487H213.303Z" fill="#1F1F1F"/>
<path id="Vector_12" d="M201.041 5.99674C202.124 4.79166 202.921 4.06087 203.442 3.80436C203.728 3.65917 203.986 3.59141 204.231 3.59141C204.807 3.59141 205.231 4.01731 205.507 4.88361C205.613 5.20787 205.664 5.50793 205.664 5.76443C205.664 6.50006 205.231 6.93564 204.369 7.07599C204.231 7.09535 204.069 7.10019 203.889 7.10019C203.286 7.10019 202.414 6.9792 201.29 6.75173C202.723 7.46316 203.636 8.03424 204.018 8.4795C204.346 8.83763 204.507 9.20061 204.507 9.54907C204.507 10.0137 204.231 10.4589 203.677 10.8848C203.244 11.2188 202.857 11.3882 202.511 11.3882C202.037 11.3882 201.649 11.0639 201.345 10.4202C201.078 9.85397 200.857 8.79408 200.686 7.2357C200.492 8.88603 200.248 9.97497 199.962 10.4977C199.663 11.0784 199.28 11.3688 198.815 11.3688C198.487 11.3688 198.114 11.2139 197.69 10.9042C197.114 10.4686 196.828 10.0234 196.828 9.56843C196.828 9.20061 197.017 8.81344 197.4 8.4311C197.824 7.98585 198.713 7.44864 200.064 6.79529C198.939 7.02759 198.077 7.13891 197.473 7.13891C197.238 7.13891 197.04 7.11955 196.888 7.08567C196.072 6.92112 195.676 6.47586 195.676 5.74991C195.676 5.50309 195.726 5.22722 195.823 4.91748C196.086 4.03666 196.505 3.6011 197.095 3.6011C197.354 3.6011 197.649 3.68821 197.976 3.8576C198.506 4.14798 199.271 4.86909 200.28 6.02094C199.524 4.56419 199.11 3.54786 199.036 2.94774C199.027 2.83642 199.022 2.73479 199.022 2.63316C199.022 1.68942 199.566 1.21028 200.649 1.20544H200.7C201.774 1.20544 202.322 1.66037 202.322 2.55088C202.322 2.69607 202.304 2.85094 202.281 3.01065C202.175 3.63497 201.76 4.6271 201.036 5.9919H201.055L201.041 5.99674Z" fill="#1F1F1F"/>
</g>
</svg>
