<svg width="26" height="14" viewBox="0 0 26 14" fill="none" xmlns="http://www.w3.org/2000/svg">
<path d="M15.4337 4.19071C17.2391 3.66825 19.2626 3.76614 21.1888 3.54295C19.2763 2.72011 17.2373 2.90806 15.1519 2.8745C13.4501 2.82695 14.0913 2.3677 14.4625 0.315361C14.5378 0.211877 14.6477 -0.16346 14.7352 0.0815462C15.3001 0.525689 16.2654 0.0949698 16.9639 0.240966C18.873 0.19286 20.8479 0.37857 22.7094 1.35747C23.8516 2.01754 25.1087 2.52041 25.9883 4.25895C26.054 5.13269 25.8189 4.68799 25.8563 5.3268C25.8252 5.44315 25.5483 5.31337 25.7184 5.55782C25.7669 5.94602 25.4976 6.1446 25.5219 6.52553C25.326 6.76382 25.4228 7.18112 25.2127 7.41494C24.6036 7.33215 24.1209 7.85013 23.6065 8.254C21.6992 9.95841 19.7795 11.528 17.8277 12.9231C17.6097 12.8985 16.3265 14.4686 16.3336 13.8595C16.5186 13.2386 16.5426 12.4773 16.7895 11.9257C16.834 11.5124 16.8857 10.9334 17.2205 11.0089C18.6357 9.67984 20.2195 8.97559 21.6186 7.55758C23.6834 6.25592 21.6712 6.62286 20.8868 6.58818C17.3036 6.58371 13.8011 7.03176 10.4514 8.11975C7.96369 8.7703 5.60769 9.83815 3.25636 11.0123C2.55013 11.4877 1.84202 11.9873 1.11835 12.4538C0.956733 12.6356 0.764914 12.8207 0.58057 12.9332C0.408059 13.0987 -0.114144 13.9909 0.022557 13.3298C0.0854583 12.5606 0.272913 11.8446 0.353875 11.0878C0.926215 10.1251 1.64366 9.68991 2.32437 9.20605C4.20393 7.78245 6.18283 6.99149 8.19474 6.18487C10.5152 5.30162 12.9089 4.495 15.4346 4.19071H15.4337Z" fill="#FF2093"/>
</svg>
