<svg width="240" height="31" viewBox="0 0 240 31" fill="none" xmlns="http://www.w3.org/2000/svg">
<g id="Group 48095695">
<path id="Vector" d="M175.659 13.46L182.829 1.2954L183.148 0.768585H180.558L174.336 11.3048L173.333 9.67651L178.569 0.768585H175.978L172.01 7.53094L168.078 1.09425L167.996 0.96015H160.826L168.516 13.5174L160.826 26.3621H163.417L169.83 15.6726L170.815 17.2818L163.517 29.6475L163.198 30.1743H165.789L172.138 19.4369L176.279 26.1993L176.361 26.3334H183.522L175.659 13.4696V13.46ZM173.415 17.253L171.709 14.4561L171.116 13.4696L165.059 3.5559H167.029L172.092 11.8221L173.077 13.4504L174.4 15.6055L179.335 23.6706H177.383L173.451 17.253H173.433H173.415Z" fill="#1F1F1F"/>
<path id="Vector_2" d="M22.7328 25.6272C22.7328 26.1061 22.6233 26.4605 22.3952 26.6808C22.1672 26.9203 21.8479 27.0352 21.3918 27.0352C21.0178 27.0352 20.6802 26.9298 20.361 26.7287C20.0508 26.5275 19.7498 26.2881 19.4761 26.0007C19.1842 25.7325 18.9288 25.4931 18.6733 25.2919C18.4179 25.0908 18.1716 24.9854 17.9162 24.9854C17.6425 24.9854 17.3506 25.0908 17.0131 25.2919C16.6938 25.4931 16.2833 25.7325 15.8363 26.0007C15.3802 26.2689 14.8237 26.5084 14.1761 26.7095C13.5192 26.9107 12.7256 27.016 11.7951 27.016C9.94331 27.016 8.2648 26.7095 6.81435 26.0869C5.34566 25.4739 4.12328 24.5927 3.11071 23.4433C2.09813 22.2939 1.32274 20.9146 0.793649 19.2959C0.264556 17.6675 0 15.8764 0 13.8745C0 11.9971 0.310162 10.2443 0.930478 8.63508C1.55079 7.02591 2.42654 5.63705 3.5577 4.44932C4.68887 3.2616 5.99335 2.35165 7.48941 1.69074C8.98546 1.02983 10.6184 0.704163 12.3607 0.704163C13.501 0.704163 14.4224 0.809528 15.1339 0.991518C15.8454 1.17351 16.411 1.38423 16.8398 1.56622C17.2776 1.76737 17.6425 1.85357 17.9527 1.85357C18.272 1.85357 18.5456 1.76736 18.7554 1.58537C18.9652 1.40338 19.1751 1.23097 19.4031 1.03941C19.6312 0.866994 19.9048 0.771211 20.2424 0.771211C20.516 0.771211 20.7623 0.876577 20.9539 1.05857C21.1455 1.24056 21.2914 1.56622 21.4192 2.02598L23.1615 8.32857C23.2619 8.70213 23.2254 9.0278 23.0338 9.31515C22.8422 9.6025 22.5868 9.80365 22.231 9.88985C21.8479 9.99521 21.4921 9.9569 21.182 9.80365C20.8627 9.65039 20.6164 9.3822 20.4522 8.96075C19.8684 7.52399 19.2298 6.42247 18.4818 5.62746C17.7429 4.83246 16.9675 4.28648 16.1465 3.97998C15.3255 3.67347 14.4862 3.52022 13.6652 3.52022C12.4519 3.52022 11.4211 3.87461 10.5545 4.62173C9.68788 5.34969 9.0402 6.38416 8.57496 7.74429C8.12797 9.08527 7.88166 10.6944 7.88166 12.5335C7.88166 14.9185 8.15533 16.9013 8.68443 18.5008C9.21352 20.0909 9.97068 21.2977 10.9285 22.0927C11.8772 22.8878 12.9719 23.2805 14.2034 23.2805C14.4771 23.2805 14.7325 23.2326 14.9332 23.1464C15.1248 23.0602 15.3072 22.9452 15.4349 22.792C15.5626 22.6387 15.663 22.4567 15.7268 22.2364C15.7907 22.0161 15.8272 21.7767 15.8272 21.5085V17.543C15.8272 17.2844 15.7633 17.1024 15.663 16.9683C15.5535 16.8342 15.3255 16.7097 14.9697 16.6139L14.2308 16.3744C13.875 16.2691 13.6013 16.1158 13.4098 15.9147C13.2182 15.7135 13.1179 15.4549 13.1179 15.1484C13.1179 14.794 13.2273 14.5066 13.4736 14.3055C13.7199 14.1044 14.0666 13.999 14.5683 13.999H23.3166C23.8183 13.999 24.2014 14.1044 24.4295 14.3055C24.6758 14.5066 24.7853 14.794 24.7853 15.1388C24.7853 15.4262 24.7032 15.6848 24.5572 15.8668C24.4113 16.0488 24.1832 16.202 23.9004 16.3457L23.5173 16.499C23.2892 16.6043 23.1159 16.7193 22.9699 16.8725C22.824 17.0258 22.7601 17.2461 22.7601 17.5526V25.6463L22.7328 25.6272Z" fill="#1F1F1F"/>
<path id="Vector_3" d="M38.0587 22.3487C38.0587 22.6361 38.1408 22.8947 38.2868 23.0767C38.4328 23.2587 38.6426 23.4119 38.9345 23.5364L39.5822 23.7951C40.166 24.0345 40.467 24.4751 40.467 25.1169C40.467 25.4904 40.3576 25.7778 40.1113 25.9981C39.8741 26.2184 39.5183 26.3238 39.0166 26.3238H29.2922C28.7905 26.3238 28.4256 26.2184 28.1976 25.9981C27.9604 25.7778 27.8418 25.4904 27.8418 25.1169C27.8418 24.4751 28.1337 24.0345 28.7266 23.7951L29.3743 23.5364C29.6662 23.4215 29.8852 23.2683 30.022 23.0767C30.168 22.8947 30.2318 22.6552 30.2318 22.3487V5.33747C30.2318 5.05012 30.168 4.7915 30.022 4.62867C29.8761 4.45626 29.6662 4.29343 29.3743 4.16891L28.7266 3.91029C28.1428 3.67083 27.8418 3.23023 27.8418 2.58847C27.8418 2.21492 27.9512 1.90841 28.1976 1.70726C28.4439 1.50611 28.7905 1.38159 29.2922 1.38159H39.0166C39.5183 1.38159 39.8832 1.48696 40.1113 1.70726C40.3393 1.92756 40.467 2.21492 40.467 2.58847C40.467 3.23023 40.1751 3.67083 39.5822 3.91029L38.9345 4.16891C38.6608 4.28385 38.4328 4.4371 38.2868 4.62867C38.1408 4.81066 38.0587 5.05012 38.0587 5.33747V22.3487Z" fill="#1F1F1F"/>
<path id="Vector_4" d="M59.9548 2.61953C59.9548 2.24597 60.0643 1.93947 60.2923 1.73832C60.5204 1.53717 60.8853 1.41265 61.387 1.41265H66.7418C67.2435 1.41265 67.6084 1.51802 67.8365 1.73832C68.0645 1.95862 68.1922 2.24597 68.1922 2.61953C68.1922 2.88773 68.1284 3.10803 67.9824 3.2996C67.8365 3.47201 67.6266 3.63484 67.3347 3.7881L66.8513 4.04671C66.4316 4.26701 66.0941 4.57353 65.8022 4.95666C65.5103 5.34938 65.2549 5.99113 64.9994 6.85319L60.3927 21.8147C60.2194 22.4085 60.0825 22.8683 60.0095 23.2035C59.9274 23.5388 59.9001 23.8836 59.9001 24.2188V25.2054C59.9001 25.5598 59.7906 25.828 59.5808 26.0387C59.3527 26.2399 59.0791 26.3261 58.7598 26.3261H52.5657C52.2465 26.3261 51.9819 26.2207 51.7721 26.0387C51.5623 25.8376 51.4619 25.5502 51.4619 25.1575V24.1901C51.4619 23.989 51.4346 23.7495 51.3525 23.4621C51.2704 23.1748 51.1883 22.8683 51.0971 22.533L45.6693 5.65588C45.5233 5.19612 45.3591 4.88003 45.2132 4.66931C45.049 4.46816 44.83 4.2766 44.5381 4.12334L44.0547 3.86473C43.5712 3.60611 43.334 3.18465 43.334 2.60995C43.334 2.23639 43.4435 1.92989 43.6898 1.72874C43.9361 1.52759 44.2827 1.40308 44.7844 1.40308H54.5179C55.0196 1.40308 55.3845 1.50844 55.6308 1.72874C55.8771 1.94904 55.9866 2.23639 55.9866 2.60995C55.9866 2.91646 55.9228 3.15592 55.7768 3.31876C55.6308 3.50075 55.4028 3.654 55.12 3.79768L54.5544 4.06587C54.2625 4.19997 54.0709 4.42027 53.9888 4.72678C53.9067 5.01413 53.9523 5.45474 54.1348 6.02944L59.0334 21.6997L56.8897 23.7687L62.2719 6.57541C62.4634 5.96239 62.4999 5.4739 62.3722 5.08118C62.2445 4.68847 61.8887 4.35322 61.3231 4.04671L60.8579 3.7881C60.5842 3.654 60.3562 3.50074 60.2102 3.32833C60.0643 3.15592 59.9822 2.92604 59.9822 2.61953L59.9639 2.60038L59.9548 2.61953Z" fill="#1F1F1F"/>
<path id="Vector_5" d="M70.7188 2.6192C70.7188 2.24565 70.8282 1.93914 71.0745 1.73799C71.3208 1.53685 71.6675 1.41232 72.1692 1.41232H84.9404C85.4512 1.41232 85.8891 1.36443 86.2266 1.25907C86.5642 1.15371 86.8834 1.03876 87.1753 0.933402C87.4855 0.82804 87.823 0.780151 88.2244 0.780151C88.7261 0.780151 89.1093 0.933402 89.3647 1.23991C89.6201 1.54642 89.8482 2.03492 90.0398 2.71499L91.472 7.71492C91.5997 8.13637 91.5997 8.49077 91.472 8.77812C91.3442 9.06547 91.1162 9.26662 90.7604 9.40072C90.359 9.55397 89.985 9.55397 89.6657 9.40072C89.3465 9.24746 89.0819 8.97926 88.8721 8.56739C88.3886 7.63829 87.9325 6.85286 87.5038 6.259C87.0659 5.66514 86.6463 5.19579 86.2175 4.87013C85.7796 4.53488 85.3327 4.31458 84.8492 4.17091C84.3657 4.03681 83.8366 3.96976 83.2345 3.96976H80.9448V21.6228C80.9448 22.3507 81.1182 22.8967 81.4648 23.2511C81.8023 23.6055 82.304 23.7971 82.9517 23.7971H83.7454C84.5846 23.7971 85.3418 23.663 85.9895 23.3756C86.6371 23.0883 87.2666 22.5806 87.8413 21.8143C88.4251 21.0481 89.0545 19.9465 89.6931 18.4906C89.8573 18.1171 90.0945 17.8489 90.3864 17.7148C90.6783 17.5807 90.9976 17.5424 91.3534 17.6094C91.7365 17.6956 92.0284 17.8776 92.22 18.1841C92.3933 18.4906 92.4298 18.8642 92.3021 19.3239L90.7239 25.0518C90.5506 25.6936 90.3225 26.1917 90.0671 26.5078C89.8117 26.8334 89.3921 26.9867 88.8447 26.9867C88.489 26.9867 88.1697 26.9388 87.896 26.8334C87.6041 26.7281 87.3031 26.6131 86.9473 26.5078C86.6098 26.4024 86.1719 26.3545 85.661 26.3545H72.1874C71.6857 26.3545 71.3208 26.2491 71.0927 26.0288C70.8556 25.8085 70.737 25.5212 70.737 25.1476C70.737 24.5059 71.0289 24.0653 71.6218 23.8258L72.2695 23.5672C72.5614 23.4522 72.7804 23.299 72.9172 23.1074C73.0632 22.9254 73.127 22.686 73.127 22.3795V5.36821C73.127 5.08086 73.0632 4.82223 72.9172 4.6594C72.7712 4.48699 72.5614 4.32416 72.2695 4.19964L71.6218 3.94102C71.038 3.70156 70.737 3.26096 70.737 2.6192V2.58089L70.7188 2.6192ZM77.971 12.4275H82.4226C83.1159 12.4275 83.6176 12.2742 83.9187 11.9869C84.2288 11.6995 84.4843 11.144 84.7214 10.3107C84.8309 9.90837 84.9951 9.61144 85.2049 9.4486C85.4147 9.27619 85.6702 9.18041 85.9438 9.18041C86.5368 9.18041 86.9291 9.53481 87.075 10.234L88.3977 15.8374C88.4981 16.278 88.4981 16.6133 88.3977 16.8719C88.2883 17.1305 88.0785 17.3125 87.7501 17.4274C87.4308 17.5424 87.1389 17.5615 86.8652 17.4753C86.5915 17.3891 86.3452 17.2071 86.1537 16.9006C85.7979 16.3546 85.4604 15.9332 85.1685 15.665C84.8765 15.3968 84.539 15.1861 84.165 15.0711C83.791 14.9658 83.3257 14.9179 82.7328 14.9179H77.9618V12.4275H77.971Z" fill="#1F1F1F"/>
<path id="Vector_6" d="M109.887 25.0997C109.887 25.4733 109.778 25.7606 109.532 25.9809C109.303 26.2012 108.939 26.3066 108.437 26.3066H103.018C102.535 26.3066 102.179 26.2012 101.942 25.9809C101.695 25.7606 101.586 25.4733 101.586 25.0997C101.586 24.8411 101.65 24.6112 101.759 24.4388C101.869 24.2568 102.069 24.0652 102.343 23.8928L102.699 23.6534C103.073 23.4139 103.356 23.1266 103.566 22.7722C103.775 22.4178 104.003 21.8047 104.259 20.9427L108.592 6.23983C108.802 5.55018 108.866 5.03295 108.82 4.71687C108.756 4.41036 108.528 4.14216 108.127 3.94101C107.807 3.7686 107.598 3.58661 107.452 3.36631C107.306 3.146 107.26 2.88739 107.26 2.60004C107.26 2.22648 107.37 1.91997 107.616 1.71882C107.853 1.49852 108.209 1.39316 108.711 1.39316H119.593C120.095 1.39316 120.46 1.49852 120.688 1.71882C120.916 1.93912 121.044 2.22648 121.044 2.60004C121.044 2.92571 120.98 3.17474 120.834 3.39504C120.688 3.59619 120.497 3.7686 120.241 3.9027C119.949 4.03679 119.785 4.23795 119.739 4.47741C119.694 4.71687 119.739 5.1 119.904 5.62681L124.565 21.1247C124.802 21.9197 125.012 22.4944 125.213 22.8679C125.404 23.2415 125.66 23.5097 125.97 23.6821C126.371 23.9024 126.627 24.1036 126.764 24.3047C126.891 24.5059 126.973 24.7645 126.973 25.0806C126.973 25.4541 126.864 25.7415 126.618 25.9618C126.38 26.1821 126.025 26.2874 125.523 26.2874H116.592C116.09 26.2874 115.726 26.1821 115.479 25.9618C115.251 25.7415 115.124 25.4541 115.124 25.0806C115.124 24.7932 115.206 24.5346 115.352 24.3526C115.498 24.1706 115.726 24.0174 116.008 23.8641L116.556 23.5959C116.848 23.4618 116.975 23.2607 116.93 23.0212C116.884 22.7817 116.784 22.3794 116.62 21.8335L111.639 4.48698L112.35 3.97932L107.497 20.4638C107.324 21.0768 107.224 21.5653 107.224 21.9388C107.224 22.3124 107.324 22.6381 107.534 22.8871C107.744 23.1457 108.099 23.3948 108.565 23.663L109.03 23.9216C109.285 24.0557 109.495 24.2281 109.659 24.4005C109.823 24.5729 109.906 24.8028 109.906 25.1093V25.0901L109.887 25.0997ZM107.16 15.7129H117.039V18.3565H107.123L107.151 15.7129H107.16Z" fill="#1F1F1F"/>
<path id="Vector_7" d="M151.511 1.40084C152.022 1.40084 152.46 1.35294 152.834 1.26673C153.19 1.16137 153.527 1.08474 153.819 0.998538C154.13 0.912332 154.412 0.864441 154.704 0.864441C155.252 0.864441 155.653 0.998541 155.927 1.28589C156.2 1.55409 156.428 2.03301 156.602 2.69392L158.089 8.09614C158.189 8.4697 158.134 8.77621 157.924 9.02525C157.715 9.28386 157.423 9.42754 157.058 9.50417C156.766 9.55206 156.474 9.50417 156.173 9.3988C155.863 9.29344 155.644 9.02524 155.443 8.62295C154.832 7.33944 154.23 6.37203 153.673 5.69196C153.09 5.01189 152.515 4.55213 151.904 4.32225C151.292 4.06363 150.617 3.94869 149.869 3.94869H148.045V22.368C148.045 22.6553 148.109 22.9139 148.237 23.1342C148.364 23.3354 148.592 23.4886 148.893 23.5557L149.906 23.7951C150.262 23.8814 150.517 24.0346 150.681 24.2358C150.845 24.4369 150.928 24.7434 150.928 25.1361C150.928 25.5288 150.818 25.797 150.572 26.0173C150.326 26.2376 149.979 26.343 149.477 26.343H139.26C138.758 26.343 138.394 26.2376 138.165 26.0173C137.928 25.797 137.81 25.5097 137.81 25.1361C137.81 24.4944 138.102 24.0538 138.695 23.8143L139.342 23.5557C139.634 23.4407 139.853 23.2875 139.99 23.0959C140.136 22.9139 140.2 22.6745 140.2 22.368V5.35672C140.2 5.06936 140.136 4.81075 139.99 4.64792C139.844 4.4755 139.634 4.31267 139.342 4.18815L138.695 3.92954C138.111 3.69007 137.81 3.24946 137.81 2.60771C137.81 2.23415 137.919 1.92765 138.165 1.7265C138.412 1.52535 138.758 1.40084 139.26 1.40084H151.511ZM145.208 13.1631H149.769C150.481 13.1631 150.991 13.0099 151.283 12.7225C151.594 12.4352 151.876 11.8413 152.168 10.9409C152.278 10.5865 152.442 10.3279 152.633 10.1938C152.825 10.0597 153.071 9.97351 153.345 9.97351C154.002 9.97351 154.394 10.2992 154.549 10.9601L155.872 16.6209C155.972 17.0424 155.972 17.3872 155.835 17.6171C155.708 17.8565 155.498 18.0385 155.206 18.163C154.887 18.278 154.595 18.2971 154.321 18.2014C154.047 18.1056 153.792 17.8757 153.527 17.5404C153.208 17.052 152.898 16.6784 152.606 16.4006C152.314 16.1324 151.995 15.9409 151.621 15.8451C151.247 15.7493 150.763 15.6918 150.17 15.6918H145.19V13.1727L145.208 13.1631Z" fill="#1F1F1F"/>
<path id="Vector_8" d="M209.376 19.1706C209.376 20.0998 209.13 21.0384 208.665 21.9675C208.2 22.8966 207.524 23.73 206.649 24.5058C205.764 25.2721 204.697 25.8755 203.474 26.3353C202.252 26.7951 200.829 27.0154 199.287 27.0154C196.76 27.0154 194.58 26.4598 192.728 25.3583C190.876 24.2568 189.453 22.7147 188.459 20.7511C187.455 18.7875 186.963 16.5366 186.963 13.9792C186.963 12.0635 187.273 10.301 187.866 8.69187C188.459 7.0827 189.298 5.67468 190.384 4.47737C191.46 3.2705 192.719 2.34138 194.16 1.68047C195.593 1.01956 197.162 0.684326 198.822 0.684326C199.871 0.684326 200.728 0.789684 201.367 0.971674C202.015 1.15366 202.544 1.36439 202.927 1.54638C203.328 1.74752 203.657 1.83373 203.939 1.83373C204.259 1.83373 204.532 1.74753 204.742 1.56554C204.952 1.38355 205.162 1.21114 205.39 1.01957C205.618 0.847158 205.892 0.751375 206.229 0.751375C206.503 0.751375 206.749 0.856733 206.941 1.03872C207.132 1.22071 207.278 1.54638 207.406 2.00614L209.148 8.30874C209.249 8.68229 209.212 8.99838 209.021 9.29531C208.829 9.58266 208.564 9.78381 208.218 9.87002C207.835 9.97538 207.479 9.93707 207.169 9.78381C206.849 9.63056 206.603 9.36236 206.439 8.94091C205.855 7.51373 205.226 6.41221 204.541 5.6172C203.848 4.82219 203.137 4.27623 202.38 3.96014C201.622 3.63447 200.865 3.48122 200.09 3.48122C199.269 3.48122 198.53 3.68236 197.882 4.11339C197.235 4.53484 196.687 5.1287 196.24 5.90455C195.793 6.68041 195.447 7.62867 195.209 8.73018C194.963 9.8317 194.854 11.0865 194.854 12.4753C194.854 14.7454 195.146 16.6228 195.72 18.1362C196.304 19.64 197.089 20.7798 198.119 21.5461C199.132 22.2932 200.327 22.6859 201.668 22.6859C202.845 22.6859 203.921 22.3603 204.888 21.7377C205.873 21.1151 206.676 20.1572 207.324 18.9408C207.515 18.5672 207.725 18.3182 207.953 18.1937C208.181 18.0787 208.418 18.0404 208.692 18.1074C208.948 18.1553 209.139 18.2799 209.258 18.4618C209.367 18.6438 209.422 18.8833 209.422 19.1706L209.385 19.1898L209.376 19.1706Z" fill="#1F1F1F"/>
<path id="Vector_9" d="M222.887 22.3514C222.887 22.6387 222.932 22.8973 223.051 23.0602C223.16 23.2422 223.343 23.3954 223.58 23.5199L224.045 23.7785C224.401 23.9605 224.629 24.1521 224.757 24.3341C224.866 24.5352 224.93 24.7747 224.93 25.1004C224.93 25.4739 224.82 25.7613 224.574 25.9816C224.337 26.2019 223.963 26.3073 223.48 26.3073H214.102C213.6 26.3073 213.235 26.2019 213.007 25.9816C212.77 25.7613 212.651 25.4739 212.651 25.1004C212.651 24.4586 212.943 24.018 213.518 23.7785L214.166 23.5199C214.458 23.405 214.677 23.2517 214.813 23.0602C214.959 22.8782 215.023 22.6387 215.023 22.3322V5.32096C215.023 5.03361 214.959 4.77499 214.813 4.61216C214.667 4.43975 214.458 4.27691 214.166 4.15239L213.518 3.89378C212.934 3.65432 212.651 3.21371 212.651 2.57196C212.651 2.1984 212.761 1.89189 213.007 1.69074C213.253 1.4896 213.6 1.36508 214.102 1.36508H223.826C224.328 1.36508 224.693 1.47044 224.921 1.69074C225.158 1.91105 225.277 2.1984 225.277 2.57196C225.277 3.21371 224.985 3.65432 224.41 3.89378L223.762 4.15239C223.489 4.26734 223.261 4.42059 223.115 4.61216C222.969 4.79415 222.887 5.03361 222.887 5.32096V22.3514ZM220.633 16.0871L229.181 7.64851C229.792 7.0355 230.194 6.50868 230.403 6.0585C230.613 5.59873 230.641 5.2156 230.513 4.88994C230.385 4.56427 230.111 4.31523 229.71 4.11408L229.227 3.87462C228.935 3.74052 228.716 3.56811 228.579 3.36697C228.433 3.16582 228.369 2.90721 228.369 2.6007C228.369 2.22714 228.479 1.92062 228.725 1.71948C228.971 1.51833 229.318 1.39382 229.82 1.39382H237.282C237.783 1.39382 238.148 1.49917 238.376 1.71948C238.623 1.93978 238.732 2.22714 238.732 2.6007C238.732 2.92636 238.65 3.1754 238.477 3.34781C238.303 3.52022 237.957 3.72137 237.473 3.96083C237.309 4.02788 237.154 4.13324 236.971 4.22902C236.798 4.34396 236.552 4.51638 236.242 4.78457C235.931 5.04319 235.512 5.40717 234.983 5.90524C234.454 6.39374 233.742 7.05465 232.875 7.88797L221.692 18.4721L220.642 16.0871H220.624H220.633ZM223.972 13.8841L230.02 8.61594L237.802 22.2747C238.075 22.7537 238.322 23.0698 238.531 23.2613C238.741 23.4433 238.951 23.587 239.161 23.6636C239.471 23.836 239.681 24.0372 239.808 24.2766C239.936 24.5161 240 24.7843 240 25.0908C240 25.4644 239.891 25.7517 239.644 25.972C239.407 26.1923 239.051 26.2977 238.55 26.2977H228.989C228.488 26.2977 228.123 26.1923 227.895 25.972C227.658 25.7517 227.539 25.4452 227.539 25.0716C227.539 24.7651 227.603 24.4969 227.749 24.2958C227.895 24.0946 228.059 23.9414 228.278 23.8552L228.716 23.6828C228.926 23.5966 229.026 23.4433 229.008 23.223C229.008 23.0027 228.862 22.6483 228.588 22.1598L223.981 13.9128V13.8936L223.972 13.8841Z" fill="#1F1F1F"/>
</g>
</svg>
