<svg width="127" height="34" viewBox="0 0 127 34" fill="none" xmlns="http://www.w3.org/2000/svg">
<g id="Group">
<path id="Vector" d="M47.6502 3.69922H34.5302C34.2302 3.69922 33.9902 3.94922 33.9902 4.27922V17.9792L47.0102 17.9992C47.7102 17.9992 48.3602 17.7092 48.8502 17.1892C49.3502 16.6592 49.6202 15.9692 49.6202 15.2292V5.78922C49.6202 4.63922 48.7302 3.69922 47.6502 3.69922ZM46.4402 14.3792C46.4402 15.1092 46.2102 15.2992 45.5702 15.2992H37.4602V6.55922H45.5702C46.2102 6.55922 46.4402 6.74922 46.4402 7.47922V14.3792Z" fill="#1F1F1F"/>
<path id="Vector_2" d="M49.52 21.07C52.46 20.51 53.86 18.48 53.86 14.75V6.51C53.86 2.08 51.82 0 47.62 0H29.99V33H37.5V21.64H41.88L47.17 33H54.99L49.52 21.07ZM43.9 18.76H34.09V29.52H33.11V4.44C33.11 3.57 33.79 2.85 34.62 2.85H47.55C49.16 2.85 50.48 4.22 50.48 5.9V15.06C50.48 16.06 50.11 16.99 49.44 17.7C48.77 18.4 47.88 18.78 46.93 18.78H45.01L50.34 29.79L49.23 29.77L43.9 18.78H43.91L43.9 18.76Z" fill="#1F1F1F"/>
<path id="Vector_3" d="M24 10.89V6.51C24 2.08 21.98 0 17.81 0H6.19C2.02 0 0 2.07 0 6.5V26.49C0 30.87 2.02 33 6.19 33L14.44 32.94H19.08C20.51 32.94 21.93 32.31 22.73 31.12C22.8 31.01 22.87 30.9 22.92 30.79C23.57 29.72 24 28.2 24 26.49V14.28H11.32V20.73H16.62V25.35C16.62 26 16.39 26.24 15.77 26.24H8.32C7.7 26.24 7.47 26 7.47 25.35V7.64C7.47 6.93 7.7 6.75 8.32 6.75H15.77C16.39 6.75 16.62 6.94 16.62 7.64V10.89H24.02H24ZM5.95 3.88C5.01 3.88 4.23 4.69 4.23 5.68V27.22C4.23 28.22 5 29.02 5.95 29.02H17.91C18.85 29.02 19.63 28.21 19.63 27.22V18.47C19.63 18.23 19.44 18.02 19.2 18.02H14.15V16.99H19.2C19.97 16.99 20.6 17.66 20.6 18.47V27.22C20.6 28.78 19.39 30.05 17.91 30.05H5.95C4.47 30.05 3.26 28.78 3.26 27.22V5.68C3.26 4.12 4.47 2.85 5.95 2.85H17.91C19.39 2.85 20.6 4.12 20.6 5.68V8.4H19.62V5.68C19.62 4.68 18.85 3.88 17.9 3.88H5.95Z" fill="#1F1F1F"/>
<g id="Group_2">
<path id="Vector_4" d="M76.72 3.69922H65.28C64.03 3.69922 63 4.78922 63 6.12922V26.7392C63 28.0792 64.02 29.1692 65.28 29.1692H76.72C77.97 29.1692 79 28.0792 79 26.7392V6.12922C79 4.78922 77.98 3.69922 76.72 3.69922ZM75.82 25.4092C75.82 26.0692 75.64 26.3092 74.97 26.3092H67.15C66.53 26.3092 66.3 26.0692 66.3 25.4092V7.55922C66.3 6.83922 66.53 6.65922 67.15 6.65922H74.97C75.64 6.65922 75.82 6.84922 75.82 7.55922V25.4092Z" fill="#1F1F1F"/>
<path id="Vector_5" d="M76.92 0H65.07C60.98 0 59 2.07 59 6.5V26.48C59 29.88 60.36 32.03 62.84 32.79C63.09 32.87 63.36 32.89 63.62 32.89H64.86H78.35C81.5 32.43 83 30.32 83 26.49V6.5C83 2.08 81.07 0 76.92 0ZM79.78 26.61C79.78 28.49 78.34 30.03 76.58 30.03H65.31C63.55 30.03 62.11 28.5 62.11 26.61V6.27C62.11 4.39 63.55 2.85 65.31 2.85H76.58C78.34 2.85 79.78 4.38 79.78 6.27V26.61Z" fill="#1F1F1F"/>
</g>
<path id="Vector_6" d="M127 0H119.67L115.46 23.27L110.04 0H103.26L97.84 23.28L93.64 0H86L93.6 32.98C93.6 32.98 101.85 33 101.77 33L106.66 12.02L111.54 32.99H113.35C115.76 32.99 119.86 33.02 119.81 33.05L122.05 21.42L127 0ZM116.98 30.03H113.85L107.71 3.87H106.3L99.7 30.03H95.67L90.03 2.8H91.04L96.46 29.01H98.93L105.53 2.85H108.46L114.6 29.01H116.94L121.97 2.82H123.01L118.97 23.67L117.72 30.03H116.95H116.98Z" fill="#1F1F1F"/>
</g>
</svg>
