<svg width="178" height="47" viewBox="0 0 178 47" fill="none" xmlns="http://www.w3.org/2000/svg">
<path d="M176.545 26.1704C176.545 26.1704 176.144 26.1704 176.445 25.9699C177.047 25.3683 177.949 21.558 177.548 21.558C177.348 21.558 177.247 21.2572 177.348 21.0567C177.448 20.8561 177.348 20.6556 176.846 20.6556C176.345 20.6556 176.245 20.4551 176.245 20.2545C176.245 20.054 176.445 19.9537 176.646 19.9537C176.846 19.9537 177.047 19.9537 177.047 19.7532C177.047 19.5526 176.746 19.3521 176.245 19.3521C175.342 19.3521 174.941 18.3494 175.643 18.2491C175.843 18.2491 175.643 18.0486 175.242 17.9483C174.741 17.848 174.44 17.9483 174.54 18.2491C174.54 18.5499 174.339 18.6502 173.938 18.6502C172.835 18.5499 172.635 18.8507 173.337 19.4524C173.638 19.7532 174.039 20.054 174.239 20.054C174.44 20.054 174.44 20.2545 174.44 20.4551C174.44 20.6556 174.44 21.0567 174.64 21.3575C174.841 21.6583 174.841 22.2599 174.841 22.661C174.841 23.0621 174.841 23.5634 175.142 23.764C175.442 24.0648 175.442 24.165 175.142 24.0648C174.741 24.0648 173.938 25.1677 173.838 25.8696C173.838 26.1704 173.738 26.2707 173.537 26.2707C173.337 26.2707 173.036 26.4712 172.635 26.8723C172.334 27.2734 172.234 27.4739 172.434 27.3737C172.635 27.3737 172.635 27.4739 172.434 27.875C172.234 28.2761 171.933 28.3764 171.732 28.2761C171.532 28.0756 171.131 28.2761 170.83 28.4766C170.529 28.6772 170.429 28.978 170.529 28.978C170.73 28.978 170.429 29.1785 169.928 29.3791C169.426 29.5796 169.025 29.9807 168.925 30.2815C168.825 30.5823 168.424 30.7828 168.022 30.6826C167.621 30.6826 167.02 30.9834 166.719 31.2842C166.418 31.6853 166.117 31.8858 166.017 31.6853C166.017 31.585 165.215 31.6853 164.513 32.0864C162.808 32.9888 162.508 33.0891 161.204 33.4901C160.602 33.6907 160.101 33.9915 160.101 34.192C160.101 34.3926 159.499 34.5931 158.597 34.6934C157.594 34.6934 157.093 34.9942 156.993 35.3953C156.892 35.8966 156.993 35.8966 157.294 35.4955C157.594 35.0945 157.695 35.0945 157.594 35.5958C157.494 36.2977 156.993 36.2977 156.592 35.5958C156.391 35.3953 155.99 35.1947 155.589 35.295C154.987 35.3953 154.987 35.4955 155.589 35.8966C155.99 36.1974 156.191 36.4982 155.99 36.6988C155.79 36.8993 155.589 36.8993 155.388 36.4982C155.188 36.0972 155.088 36.0972 154.887 36.2977C154.687 36.5985 154.486 36.5985 153.985 36.0972C153.584 35.6961 153.283 35.5958 153.082 35.7963C152.882 35.9969 152.481 36.0972 152.18 36.0972C151.879 36.0972 150.977 36.398 150.174 36.6988C149.372 36.9996 148.57 37.3004 148.47 37.2001C148.269 37.2001 144.76 37.902 143.256 38.3031C142.955 38.3031 142.454 38.5036 142.253 38.4034C142.053 38.3031 141.15 38.4034 140.348 38.7042C138.142 39.2055 130.923 40.4088 130.522 40.3085C130.321 40.3085 129.92 40.4088 129.519 40.6093C129.118 40.8098 128.717 40.9101 128.616 40.7096C128.416 40.509 128.015 40.6093 127.714 40.7096C127.413 40.8098 127.012 41.0104 126.812 41.0104C126.711 41.0104 126.21 41.0104 125.709 41.0104C125.207 41.0104 124.606 41.1106 124.405 41.0104C123.703 40.9101 121.898 41.4115 122.099 41.7123C122.099 41.8125 121.999 41.8125 121.597 41.7123C120.795 41.3112 118.289 41.5117 118.188 42.0131C118.188 42.2136 117.988 42.2136 117.787 42.0131C117.587 41.8125 117.486 41.9128 117.486 42.3139C117.486 42.8152 117.486 42.8152 116.985 42.3139C116.584 41.9128 115.882 41.8125 113.977 41.9128C112.673 41.9128 111.571 42.2136 111.671 42.4142C111.671 42.6147 111.671 42.715 111.37 42.715C111.069 42.715 110.468 42.715 109.966 42.6147C109.465 42.6147 108.863 42.6147 108.562 42.5144C108.262 42.5144 107.56 42.5144 106.858 42.5144C106.056 42.5144 105.655 42.8152 105.755 43.2163C105.755 43.6174 105.755 43.7177 105.454 43.5171C104.953 43.0158 101.945 42.5144 101.644 42.8152C101.443 42.9155 101.243 43.0158 101.042 43.0158C100.842 43.0158 100.039 43.0158 99.2373 43.0158C98.4352 43.0158 97.4325 43.2163 97.0314 43.5171C96.2292 44.1187 95.7279 44.219 96.2292 43.7177C96.4298 43.5171 96.1289 43.3166 95.4271 43.2163C94.8254 43.116 94.3241 43.2163 94.3241 43.3166C94.3241 43.4169 93.8227 43.5171 93.3214 43.3166C92.1182 43.0158 88.6087 43.116 88.5084 43.3166C88.5084 43.4169 87.7063 43.4169 86.8038 43.3166C85.9014 43.2163 84.999 43.2163 84.8987 43.3166C84.6982 43.5171 84.0966 43.5171 83.5952 43.3166C82.9936 43.2163 82.2917 43.116 81.9909 43.3166C81.6901 43.4169 81.0885 43.5171 80.6874 43.4169C77.579 43.0158 74.8717 42.715 73.7688 42.8152C72.9666 42.8152 71.7634 42.8152 70.9612 42.8152C70.2593 42.8152 69.0561 42.6147 68.3542 42.6147C66.2485 42.6147 59.0291 41.9128 56.5223 41.7123C55.2188 41.612 53.8151 41.4115 53.3137 41.4115C52.8124 41.4115 51.1078 41.2109 49.6037 41.0104C47.9994 40.8098 45.5929 40.509 44.0889 40.3085C42.5848 40.1079 40.0781 39.7069 38.2732 39.4061C36.5686 39.005 34.864 38.9047 34.6635 39.005C34.3627 39.1053 33.9616 39.005 33.7611 38.8044C33.5605 38.6039 31.3546 37.902 28.8479 37.4007C26.3411 36.8993 24.1352 36.2977 23.9346 36.0972C23.7341 35.8966 23.5336 36.0972 23.5336 36.398C23.4333 36.9996 23.333 36.9996 23.1325 36.398C22.9319 35.8966 22.0295 35.4955 20.3249 34.9942C18.9211 34.5931 17.7179 34.192 17.6176 34.0918C17.5174 33.9915 16.6149 33.5904 15.7125 33.2896C14.8101 32.9888 13.5066 32.4874 13.0052 32.0864C12.2031 31.585 11.802 31.4847 11.3006 31.7855C10.7993 32.0864 10.699 31.9861 10.9998 31.585C11.3006 31.0837 9.89685 30.1812 9.19496 30.3818C8.99442 30.3818 8.89415 30.3818 9.09469 30.1812C9.3955 29.8804 7.99172 28.978 7.28984 28.978C7.0893 28.978 7.0893 28.8777 7.0893 28.6772C7.0893 28.4766 6.98903 28.2761 6.68822 28.2761C6.0866 28.1758 4.58255 25.7694 4.0812 24.3656C3.27904 21.558 5.68552 18.6502 11.802 15.1408C12.4036 14.7397 12.8047 14.3386 12.7044 14.1381C12.6041 13.9375 12.7044 13.9375 12.8047 14.1381C13.0052 14.2383 14.6095 13.8372 16.4144 13.1354C18.2193 12.4335 19.623 11.8318 19.4225 11.8318C19.2219 11.8318 20.3249 11.4308 21.7287 11.0297C23.2327 10.6286 24.6365 10.1273 24.9373 10.027C25.2381 9.82645 25.7395 9.72618 25.94 9.72618C26.7422 9.82645 27.6446 9.42537 27.7449 8.92402C27.7449 8.62321 28.0457 8.52294 28.4468 8.72348C28.8479 8.92402 29.3492 8.82375 29.5497 8.72348C29.8506 8.52294 30.1514 8.42267 30.3519 8.62321C30.5524 8.82375 30.9535 8.62321 31.4549 8.42267C31.9562 8.22213 32.257 8.02159 32.257 8.22213C32.257 8.42267 32.6581 8.3224 33.0592 8.22213C33.5605 8.12186 34.0619 8.02159 34.1622 8.12186C34.3627 8.12186 34.5632 8.02159 34.7638 7.62051C34.9643 7.21943 35.2651 7.11916 35.5659 7.21943C36.0673 7.62051 39.677 7.21943 39.7773 6.71808C39.7773 6.51754 40.0781 6.41727 40.3789 6.51754C40.9805 6.61781 45.3924 6.11646 47.3978 5.61511C47.9994 5.51484 49.5034 5.3143 50.7067 5.21403C52.1105 5.11376 52.9126 4.91322 52.9126 4.51214C52.9126 4.11106 53.1132 4.11106 53.5142 4.51214C54.1159 5.01349 62.9396 4.21133 63.9423 3.60972C64.6442 3.20864 64.945 3.20864 64.5439 3.60972C64.3434 3.81025 64.5439 3.91052 64.8447 3.81026C65.1456 3.81026 65.3461 3.60972 65.3461 3.40918C65.3461 3.20864 65.5466 3.20864 65.8474 3.40918C66.4491 3.70999 69.5574 3.60972 71.3623 3.40918C71.6631 3.40918 72.1644 3.40918 72.4652 3.40918C74.6712 3.60972 86.3025 3.0081 86.7036 2.70729C87.0044 2.50675 87.3052 2.40648 87.3052 2.70729C87.4055 3.0081 89.7117 3.10837 98.736 3.10837C99.8389 3.10837 109.866 3.60972 116.885 4.01079C117.486 4.01079 119.392 4.21133 121.196 4.41187C123.001 4.61241 124.706 4.71268 125.207 4.71268C125.608 4.71268 128.215 5.01349 130.822 5.51484C133.429 6.01619 136.036 6.317 136.437 6.317C137.941 6.317 153.383 9.72618 157.294 11.0297C161.304 12.3332 161.505 12.3332 161.806 11.7316C162.006 11.2302 162.307 11.2302 162.909 11.531C163.51 11.8318 163.911 11.7316 164.312 11.4308C164.814 11.0297 164.814 10.9294 164.312 11.2302C163.811 11.531 163.611 11.4308 163.209 10.9294C162.207 9.52564 151.277 6.11646 144.559 5.01349C144.359 5.01349 144.058 5.3143 143.857 5.71538C143.657 6.41727 143.657 6.41727 143.557 5.51484C143.557 4.71268 143.456 4.71268 143.256 5.3143C143.055 5.91592 143.055 5.91592 142.955 5.11376C142.955 4.61241 142.754 4.3116 142.654 4.41187C142.554 4.51214 139.847 4.11106 136.638 3.50945C129.92 2.30621 130.722 2.40648 126.11 1.90513C117.888 1.0027 114.879 0.701889 114.378 0.802159C114.077 0.802159 112.774 0.802159 111.571 0.601619C110.367 0.401079 109.164 0.30081 108.963 0.40108C108.763 0.40108 108.061 0.40108 107.259 0.40108C106.557 0.40108 105.554 0.30081 105.153 0.30081C104.752 0.30081 103.449 0.30081 102.145 0.10027C100.942 1.86767e-08 99.6384 0.10027 99.3376 0.30081C99.0368 0.501349 98.6357 0.501349 98.5354 0.30081C98.4351 0.10027 96.4298 0 94.1235 0C91.8173 0 88.4082 0 86.503 0C81.8906 0 71.262 0.401079 70.0588 0.601619C69.5574 0.701889 68.7553 0.802159 68.3542 0.802159C66.7499 0.701889 63.1401 1.10297 63.0399 1.40378C63.0399 1.60432 62.8393 1.60432 62.7391 1.40378C62.4383 1.10297 58.628 1.40378 58.2269 1.70459C58.1267 1.70459 57.8258 1.90513 57.525 1.90513C54.1159 1.90513 53.5142 1.90513 52.6118 2.50675C52.1105 2.80756 51.8097 2.90783 51.8097 2.60702C51.8097 2.30621 51.7094 2.30621 51.4086 2.40648C51.1078 2.50675 50.7067 2.60702 50.5061 2.50675C49.6037 2.50675 41.9832 3.50945 41.5821 3.70999C41.3816 3.81026 40.8802 3.91052 40.5794 3.81026C40.2786 3.70999 39.5767 3.91052 39.0754 4.21133C38.574 4.51214 38.2732 4.61241 38.2732 4.41187C38.2732 4.21133 37.6716 4.3116 36.9697 4.51214C36.2678 4.71268 35.5659 5.11376 35.5659 5.41457C35.5659 5.71538 35.3654 5.61511 35.2651 5.41457C35.1649 5.01349 34.6635 5.01349 33.36 5.41457C32.3573 5.71538 31.3546 5.91592 31.0538 5.91592C30.753 5.91592 30.4522 6.01619 30.3519 6.21673C30.2516 6.41727 29.9508 6.41727 29.65 6.41727C29.3492 6.41727 29.2489 6.41727 29.2489 6.61781C29.2489 6.81835 29.0484 6.81835 28.7476 6.61781C28.3465 6.41727 28.0457 6.41727 28.0457 6.61781C28.0457 6.81835 27.7449 6.81835 27.4441 6.61781C27.1433 6.41727 26.9427 6.51754 26.8425 6.61781C26.7422 6.71808 26.8425 7.01889 27.1433 7.11916C27.3438 7.11916 27.3438 7.3197 27.1433 7.52024C26.9427 7.72078 26.6419 7.62051 26.3411 7.41997C26.0403 7.21943 25.539 7.01889 25.3384 7.01889C25.0376 7.01889 25.0376 7.21943 25.539 7.62051C25.94 7.92132 26.2408 8.42267 26.3411 8.72348C26.3411 9.12456 26.3411 9.12456 25.94 8.52294C25.1379 7.3197 23.6338 7.01889 22.4306 7.92132C22.0295 8.22213 21.5282 8.3224 21.3276 8.22213C21.1271 8.12186 21.0268 8.22213 20.9265 8.3224C20.8263 8.42267 20.726 8.62321 20.5255 8.42267C20.3249 8.22213 20.2246 8.3224 20.1244 8.52294C20.0241 8.72348 19.9238 8.82375 19.8236 8.62321C19.7233 8.52294 19.2219 8.62321 18.8209 8.82375C17.3168 9.72618 15.512 10.3278 14.9103 10.2275C14.6095 10.2275 14.2085 10.2275 14.0079 10.6286C13.8074 10.9294 13.6068 11.0297 13.4063 10.8291C13.2058 10.6286 13.0052 10.8291 12.8047 11.2302C12.6041 11.6313 12.3033 11.8318 12.2031 11.6313C12.0025 11.4308 10.5987 12.0324 8.99442 12.8345C5.98633 14.3386 2.77769 17.0459 1.47418 18.951C0.571754 20.2545 -0.230405 22.661 0.0704045 22.9618C0.170674 23.0621 0.170674 23.5634 0.0704045 23.9645C-0.330675 24.9672 1.0731 28.3764 1.97553 28.5769C2.27634 28.5769 2.57715 28.978 2.57715 29.2788C2.57715 29.5796 2.87796 30.081 3.37931 30.482C3.88066 30.8831 4.38201 31.3845 4.68282 31.6853C4.88336 31.9861 5.28444 32.1866 5.58525 32.1866C5.88606 32.1866 6.0866 32.1866 5.98633 32.3872C5.88606 32.9888 10.8996 35.6961 13.2058 36.2977C13.7071 36.398 14.0079 36.5985 13.9076 36.6988C13.8074 36.799 14.2085 36.9996 14.9103 37.2001C15.6122 37.4007 16.2139 37.3004 16.3141 37.2001C16.4144 37.0999 16.4144 37.2001 16.3141 37.4007C16.1136 37.7015 16.3141 37.902 17.2166 37.902C17.8182 37.902 18.2193 38.1026 18.2193 38.3031C18.2193 38.5036 18.9211 38.7042 19.9238 38.8044C20.9265 38.9047 21.7287 39.2055 21.829 39.4061C21.829 39.6066 23.8344 40.108 26.0403 40.6093C28.2462 41.1106 31.1541 41.7123 32.3573 41.9128C35.1649 42.5144 46.9967 44.5198 49.2026 44.8206C50.1051 44.8206 51.7094 45.0212 52.8124 45.1214C53.9153 45.2217 55.1186 45.322 55.5196 45.322C57.9261 45.7231 61.0345 45.8233 61.1348 45.5225C61.1348 45.322 61.3353 45.2217 61.5358 45.322C61.7364 45.4223 61.7364 45.5225 61.5358 45.7231C61.3353 45.9236 61.5358 46.0239 61.9369 46.0239C62.7391 46.0239 65.5466 46.0239 66.7499 46.2244C68.3542 46.425 71.9639 46.7258 72.0642 46.6255C72.1644 46.6255 73.869 46.6255 75.8744 46.6255C77.8798 46.6255 79.6847 46.7258 80.0858 46.6255C80.6205 46.4918 81.3893 46.4584 82.392 46.5252C83.4949 46.5252 83.7957 46.4249 83.9963 45.7231C83.9963 45.2217 84.2971 45.0212 84.3974 45.1214C84.5979 45.2217 84.4976 45.7231 84.3974 46.0239C83.9963 46.826 84.4976 47.0266 85.2998 46.425C85.6006 46.2244 86.102 46.0239 86.4028 46.1241C86.8038 46.2244 86.8038 46.3247 86.2022 46.425C85.2998 46.6255 85.9014 46.9263 86.9041 46.7258C87.4055 46.7258 87.4055 46.5252 87.2049 46.0239C86.9041 45.5225 87.0044 45.5225 87.7063 46.0239C88.2076 46.3247 89.0098 46.6255 89.5111 46.6255C90.1128 46.6255 91.0152 46.826 91.5165 46.9263C92.419 47.1268 92.5192 46.9263 92.5192 46.2244C92.5192 45.7231 92.6195 45.4223 92.82 45.6228C92.9203 45.7231 93.0206 46.0239 93.0206 46.3247C93.0206 46.6255 93.2211 46.826 93.7225 46.826C94.1235 46.826 94.7252 46.9263 94.9257 46.9263C95.1262 46.9263 95.3268 46.9263 95.4271 46.7258C95.4271 46.0239 95.7279 45.8233 95.9284 46.3247C96.1289 46.826 96.2292 46.826 96.8308 46.425C97.2319 46.2244 98.0341 46.1241 98.736 46.425C99.3376 46.6255 100.541 46.6255 101.243 46.425C102.045 46.3247 102.646 46.2244 102.646 46.2244C102.646 46.3247 105.554 46.425 106.256 46.2244C106.657 46.2244 107.961 46.0239 109.264 45.9236C110.468 45.8233 111.771 45.5225 112.072 45.322C112.373 45.1214 112.573 45.0212 112.573 45.322C112.473 45.8233 115.682 46.0239 117.186 45.5225C117.888 45.322 118.389 45.322 118.489 45.5225C118.489 45.6228 118.69 45.5225 118.79 45.4223C118.79 45.2217 119.291 45.1214 119.793 45.2217C120.896 45.4223 125.608 45.0212 125.909 44.6201C125.909 44.5198 126.511 44.4196 127.112 44.6201C127.714 44.8206 128.215 44.6201 128.316 44.6201C128.416 44.5198 129.017 44.3193 129.619 44.3193C130.221 44.3193 131.123 44.3193 131.725 44.1187C132.326 44.0185 133.028 43.9182 133.229 43.9182C133.429 43.9182 134.633 43.7177 135.836 43.5171C137.039 43.3166 139.446 42.8152 141.15 42.5144C142.855 42.2136 144.258 41.8125 144.359 41.7123C144.459 41.612 144.66 41.5117 144.96 41.5117C145.261 41.5117 145.562 41.5117 145.562 41.3112C145.562 41.1106 145.863 41.1106 146.063 41.3112C146.565 41.612 148.67 40.9101 148.47 40.509C148.47 40.3085 148.67 40.3085 149.172 40.509C149.974 40.7096 153.684 39.9074 153.985 39.4061C154.085 39.2055 154.285 39.2055 154.386 39.4061C154.486 39.5063 154.687 39.3058 154.687 38.8044C154.687 38.4034 154.687 38.2028 154.787 38.4034C154.987 39.005 156.892 38.9047 156.993 38.2028C156.993 37.902 157.394 37.8017 157.895 38.0023C158.397 38.2028 158.697 38.0023 158.798 37.6012C158.898 37.2001 158.998 37.2001 158.998 37.5009C158.998 37.8017 159.5 37.8017 160.402 37.3004C161.104 36.9996 161.906 36.6988 162.107 36.6988C162.307 36.6988 162.909 36.398 163.41 36.0972C163.911 35.6961 164.513 35.4955 164.613 35.5958C164.714 35.6961 165.415 35.295 166.017 34.7936C166.619 34.2923 167.321 33.7909 167.621 33.8912C168.223 33.9915 170.028 33.0891 170.128 32.4874C170.128 32.2869 170.429 32.0864 170.73 32.0864C171.031 32.0864 171.331 31.8858 171.331 31.3845C171.331 30.7829 171.532 30.6826 172.133 30.8831C172.535 31.0837 172.735 30.9834 172.735 30.8831C172.735 30.6826 173.036 30.2815 173.638 30.081C174.54 29.5796 175.142 28.978 174.44 29.1785C174.239 29.1785 174.139 29.1785 174.239 28.8777C174.339 28.5769 174.54 28.4766 174.841 28.5769C175.142 28.5769 175.442 28.5769 175.543 28.1758C175.643 27.7748 175.944 27.3737 176.345 27.0729C176.846 26.6718 176.946 26.5715 176.445 26.7721L176.545 26.1704ZM63.5412 2.50675C63.5412 2.50675 63.7418 2.70729 63.842 2.90783C63.842 3.10837 63.842 3.30891 63.6415 3.20864C63.441 3.10837 63.3407 3.0081 63.3407 2.80756C63.3407 2.60702 63.441 2.50675 63.5412 2.50675ZM35.1649 6.01619C35.8668 5.81565 35.8667 5.81565 35.5659 6.317C35.3654 6.61781 35.0646 6.61781 34.9643 6.51754C34.7638 6.317 34.8641 6.11646 35.1649 6.01619ZM34.5632 5.21403C34.5632 5.21403 34.8641 5.3143 34.8641 5.41457C34.8641 5.51484 34.6635 5.61511 34.463 5.71538C34.2624 5.71538 34.0619 5.71538 34.1622 5.51484C34.2624 5.3143 34.3627 5.21403 34.5632 5.21403ZM32.9589 6.21673C32.9589 6.21673 33.1595 6.61781 33.1595 6.81835C33.1595 7.01889 32.9589 7.11916 32.7584 7.11916C32.5578 7.11916 32.5578 6.81835 32.5578 6.51754C32.5578 6.21673 32.7584 6.11646 32.9589 6.21673ZM18.2193 10.1273C18.8209 9.62591 19.1217 9.52564 19.0214 9.82645C19.0214 9.82645 18.7206 10.1273 18.3195 10.3278C17.7179 10.6286 17.7179 10.6286 18.3195 10.1273H18.2193ZM83.7958 45.9236C83.7958 45.9236 83.3947 45.9236 83.4949 45.7231C83.5952 45.5225 83.6955 45.4223 83.896 45.4223C84.0966 45.4223 84.1968 45.5225 84.1968 45.6228C84.1968 45.7231 83.9963 45.8233 83.7958 45.9236ZM112.673 44.3193C112.673 44.3193 112.272 44.3193 111.972 44.219C111.671 44.0185 111.771 44.0185 112.272 44.0185C112.673 44.0185 112.774 44.219 112.673 44.3193ZM147.467 40.3085C147.066 40.8098 146.765 40.509 146.665 39.6066C146.665 39.005 146.665 38.9047 147.166 39.4061C147.467 39.7069 147.567 40.1079 147.467 40.3085ZM163.31 33.4901C163.31 33.4901 163.009 33.0891 163.611 33.1893C164.012 33.1893 164.312 33.4901 164.312 33.6907C164.312 34.0918 163.811 33.9915 163.31 33.4901ZM167.722 32.7882C167.722 32.7882 167.421 32.5877 167.421 32.2869C167.421 31.7855 167.421 31.6853 167.621 32.1866C167.822 32.4874 167.822 32.7882 167.621 32.8885L167.722 32.7882ZM176.646 22.0594C176.646 22.0594 176.245 21.8588 176.144 21.558C176.144 21.3575 175.743 21.0567 175.342 21.0567C174.841 21.0567 174.741 20.7559 174.941 20.4551C175.342 19.8534 175.543 19.9537 176.345 21.0567C176.746 21.6583 176.846 22.0594 176.646 22.0594ZM163.811 12.1327C163.811 12.1327 165.516 12.1327 166.819 12.634C167.12 12.634 167.22 13.0351 167.12 13.4362C167.02 14.0378 166.919 14.0378 166.719 13.4362C166.518 12.9348 166.318 12.8345 165.917 13.0351C165.516 13.2356 165.415 13.2356 165.415 12.8345C165.415 12.4335 165.415 12.4335 165.014 12.7343C164.513 13.0351 163.611 12.7343 163.711 12.2329L163.811 12.1327ZM168.323 14.1381C168.323 14.1381 168.724 13.5364 168.825 13.5364C168.925 13.5364 168.825 13.8372 168.825 14.2383C168.825 14.6394 168.524 14.9402 168.323 14.8399C168.123 14.7397 168.123 14.4389 168.323 14.1381ZM98.5354 46.2244C98.5354 46.2244 98.3349 46.4249 98.1343 46.5252C97.9338 46.5252 97.7333 46.5252 97.8335 46.3247C97.9338 46.1241 98.0341 46.0239 98.2346 46.0239C98.4352 46.0239 98.5354 46.1241 98.5354 46.2244Z" fill="#FF2093"/>
</svg>
