<svg width="95" height="55" viewBox="0 0 95 55" fill="none" xmlns="http://www.w3.org/2000/svg">
<path d="M17.3482 22.8317C17.2564 22.3268 17.1646 21.7991 17.0729 21.2942C16.9581 20.6747 16.8204 20.0551 16.7287 19.4355L16.6139 18.6783C16.4303 17.485 16.2468 16.223 16.2009 15.0068C16.132 13.2169 16.155 11.2894 16.2697 9.13239C16.3156 8.12273 16.4533 7.09012 16.591 6.05751C16.6598 5.48384 16.7516 4.81838 16.8204 4.17587C16.8893 3.51041 16.9122 2.822 16.9122 2.04181C16.9122 1.58287 16.7975 0.917414 15.9944 0.43553L15.7419 0.274902L15.4207 0.297849C13.9291 0.343743 13.1489 0.619105 13.0801 1.83529C13.0572 2.04181 13.0572 2.24833 13.0572 2.45485V2.52369C13.0342 2.84495 13.0342 3.23505 12.9883 3.6022C12.9195 4.35944 12.8506 5.11669 12.7588 5.89688C12.6212 7.29664 12.4835 8.74229 12.3917 10.1879C12.254 12.6662 12.1622 15.5116 12.5753 18.4488C11.2214 16.9114 10.2117 15.2363 9.20209 13.607C8.85788 13.0563 8.51368 12.4826 8.16948 11.9319C8.0318 11.7254 7.87117 11.473 7.66465 11.1517C5.53059 7.93915 5.18639 7.13601 5.18639 6.97539C5.30112 6.30993 4.95692 5.69036 4.22262 5.23142L3.90136 5.09374L3.55716 5.13964C2.06561 5.30026 1.37721 5.57563 1.33131 6.74592C1.33131 6.92949 1.30837 7.52611 1.30837 8.16862C1.30837 8.62756 1.28542 9.06355 1.28542 9.20123C1.26247 10.0732 1.21658 10.9452 1.19363 11.8172L1.14774 12.1614C1.12479 12.8957 1.10185 13.607 1.0789 14.3413C1.05595 14.9379 1.033 15.5346 1.01006 16.1771C0.964164 17.0491 0.918271 18.1505 0.895324 19.2061C0.872377 20.4911 0.895324 21.8679 0.964164 23.2447C0.987111 23.7954 1.10185 24.3232 1.19363 24.828L1.21658 24.8969C1.23953 25.0575 1.28542 25.2181 1.30837 25.3788C1.35426 25.6082 1.4231 25.8148 1.56078 26.0213C1.85909 26.4802 2.31803 26.7097 3.00643 26.7097C3.09822 26.7097 3.21296 26.7097 3.32769 26.6867C3.55716 26.6638 3.80958 26.6408 4.06199 26.6179L5.20933 26.5032L5.23228 25.7C5.23228 25.5164 5.25523 25.3558 5.23228 25.1952C5.20933 25.0346 5.18639 24.8969 5.16344 24.7363C5.14049 24.6674 5.14049 24.5756 5.11755 24.5068C5.07165 24.2773 5.04871 24.0708 5.02576 23.8184C5.00281 23.7036 5.00281 23.566 5.00281 23.4512L4.97987 23.0841C4.95692 22.9005 4.95692 22.7169 4.93397 22.5334C4.93397 22.4416 4.91102 22.3498 4.88808 22.235C4.86513 22.1203 4.86513 22.0285 4.84218 21.9138C4.84218 21.7761 4.81924 21.6384 4.81924 21.5007L4.79629 21.0648C4.79629 20.9271 4.79629 20.8123 4.77334 20.6747C4.77334 20.4452 4.77334 20.1928 4.77334 19.9633V19.7109C4.77334 19.5732 4.77334 19.4355 4.77334 19.2978C4.77334 19.2061 4.77334 19.0913 4.7504 18.9766C4.7504 18.8619 4.72745 18.7701 4.72745 18.6783C4.72745 18.5636 4.72745 18.4259 4.7504 18.3111C4.7504 18.2193 4.7504 18.1276 4.77334 18.0587C4.77334 17.921 4.77334 17.7834 4.77334 17.6457L4.81924 16.0623C4.81924 15.8558 4.84218 15.6493 4.84218 15.4198C4.84218 15.3051 4.86513 15.1904 4.86513 15.0756L4.88808 14.6626C4.88808 14.479 4.91102 14.2954 4.91102 14.1348C4.91102 14.066 4.91102 14.0201 4.91102 13.9053C5.20933 14.3872 5.4847 14.8691 5.76006 15.328C7.43518 18.2652 9.38566 20.7435 11.7033 22.9235C12.1393 23.3136 12.5523 23.7266 12.9654 24.1396C13.4014 24.5756 13.9291 25.0805 14.434 25.5394C15.2601 26.2966 15.8337 26.3655 17.027 26.159C18.1973 25.9524 18.3349 25.287 18.3349 25.0116C18.3349 24.4609 18.2661 23.8413 17.5547 23.2906C17.4859 23.1988 17.3941 23.0841 17.3482 22.8317Z" fill="#1F1F1F"/>
<path d="M90.6186 14.0432C89.8155 14.2039 89.2188 14.4563 88.7828 14.7775C87.4749 15.7413 88.5534 14.9152 87.2454 15.9019L86.7865 16.2461C86.0292 16.8198 85.272 17.3935 84.4918 17.9442C84.2394 18.1278 84.0099 18.3343 83.8034 18.5179C83.4821 18.8162 82.2659 19.5964 81.394 20.0783C81.2333 19.757 81.0268 19.344 80.8891 19.0227C80.3384 17.8524 79.0993 7.75579 79.0075 5.20869C78.9616 4.06135 78.9386 3.44178 78.9157 3.07463C78.8927 2.66159 78.8927 2.54686 78.9157 2.29444C78.9845 1.56014 78.9616 0.275118 78.0667 0.0227027L77.906 -0.000244141L77.7683 0.0227027C77.1029 0.160384 75.3589 0.940577 74.6476 1.76666L74.5558 1.90435C74.5328 1.99613 74.2804 2.79927 74.5328 4.54323C74.6017 4.95628 74.7164 5.71352 74.8541 6.56256L74.9229 6.9756C72.8348 8.30652 68.1536 10.1193 66.7309 10.67L66.685 10.693C66.5932 10.7389 66.5014 10.7618 66.3867 10.8077L66.272 10.3717C66.0654 9.66038 65.9048 9.04082 65.9048 8.46715C71.8022 6.60845 73.1101 5.18575 73.3396 3.51063L73.4314 2.84517L73.156 2.89106C73.1101 2.73043 73.0184 2.59275 72.7889 2.50096L72.5135 2.40918L72.2152 2.52391C72.0316 2.59275 71.1826 2.93695 69.278 3.74009L69.1862 3.78599C67.3275 4.56618 65.0099 5.5529 62.8299 6.44782C62.784 6.47077 62.7611 6.47077 62.7152 6.49372C62.6693 6.51666 62.6234 6.51666 62.5775 6.53961C61.7744 6.79203 61.1548 7.18212 60.7877 7.66401L60.65 7.84758L60.7418 8.0541C61.1548 9.06376 61.4072 11.0601 61.522 12.001L60.4664 12.2763C57.3456 13.1483 54.5002 13.9514 51.3565 14.8234C51.3565 14.8234 51.3565 14.8234 51.3336 14.8234L51.8613 14.2727C52.3203 13.7908 52.8251 13.263 53.3299 12.7582C54.9821 11.129 56.4278 9.38502 57.7357 7.45748C58.3094 6.60845 58.47 5.92005 58.1947 5.25459L58.0111 4.79565L57.4145 4.93333C55.9459 5.25459 55.2575 5.5529 54.6609 6.10362C54.3396 6.42488 54.0872 6.74613 53.8348 7.09033C53.72 7.25096 53.5824 7.41159 53.4447 7.57222L52.9628 8.16884C52.1367 9.1785 51.2188 10.3029 50.301 11.3814C50.2551 11.4273 50.0944 11.565 49.7961 11.8174V10.9454C49.7273 9.06377 49.6355 6.92971 49.5896 4.86449C49.5896 4.79565 49.5896 4.72681 49.5896 4.65797C49.6126 4.33671 49.6355 3.92367 49.0618 3.60241L48.8324 3.48768L48.557 3.53357C47.5703 3.67125 46.6754 4.01546 45.9869 4.49734C45.4133 4.91038 45.115 5.30048 45.092 5.62174C45.0232 6.88381 44.4036 8.12294 43.807 9.31618L43.7382 9.47681C43.371 10.1882 43.0268 10.9913 42.6367 11.8633C41.5123 14.4104 40.2273 17.3017 38.4833 18.7473C38.0932 19.0686 37.6113 19.4816 37.0606 19.7799C36.1886 20.3077 35.3626 20.2848 34.5135 19.7799C33.894 19.4128 33.3203 18.9768 33.2514 18.4261L33.2055 18.1048C33.1367 17.5312 33.0449 16.9345 33.0449 16.3379C33.0679 14.2268 34.0316 9.9128 34.8807 8.1C35.179 7.48043 35.592 6.74613 36.464 5.94299C36.5328 6.08067 36.5787 6.17246 36.5787 6.2413C36.5328 7.04444 36.4869 7.89348 36.3493 8.71956C36.3034 8.97198 36.2345 9.47681 37.0606 9.68333C37.9097 9.86691 38.7816 9.79806 39.3324 9.45386C39.7454 9.20145 39.9749 8.85724 39.9749 8.4442C39.9749 7.3198 39.9749 6.17246 39.7913 5.04806C39.6995 4.49734 39.4012 3.87777 38.8734 3.18937C38.2997 2.43212 37.6113 2.29444 36.3722 2.68454C34.8577 3.16642 33.6645 3.90072 32.8155 4.88744C31.6911 6.19541 30.7732 7.7099 29.97 9.66038C28.8915 12.2075 28.4097 17.0493 28.7309 19.4816C28.8686 20.6749 29.4193 21.6157 30.429 22.3959C31.3927 23.1531 32.6319 23.4973 34.1923 23.4514C36.3493 23.4056 38.1162 22.786 39.6077 21.6157C41.7188 19.9406 43.2333 16.6362 44.22 14.4333L44.243 14.3874C44.4036 14.0432 44.5413 13.7449 44.656 13.4925C44.679 13.4466 44.679 13.4237 44.7019 13.3778L44.7249 13.3319C44.8167 13.1024 44.8855 12.9418 45.1609 12.8041C45.2068 12.8729 45.2297 12.9188 45.2297 12.9647L45.4362 14.6857C45.5969 16.2691 45.7804 17.9213 45.8952 19.5734C45.9869 20.5831 46.0099 21.6616 46.0328 22.6024V22.6713C46.0328 23.0613 46.0558 23.4285 46.0558 23.8186C46.0787 24.2775 46.1476 24.7824 46.5836 25.0348C46.7901 25.1495 47.0655 25.2184 47.4097 25.2184C47.8456 25.2184 48.3505 25.1266 48.8094 25.0348C49.5208 24.8971 49.9338 24.6217 50.0944 24.2087L50.1403 24.094C50.2551 23.7956 50.3698 23.4973 50.3927 23.1761C50.4157 22.8778 50.4386 22.5795 50.4616 22.2582C50.5304 21.2256 50.6222 20.17 50.5304 19.1374C50.4845 18.4261 50.714 17.9442 52.2055 17.5312C54.2478 16.9345 56.2901 16.315 58.2865 15.6954L59.365 15.3512C59.8698 15.1906 60.3746 15.0299 60.9712 14.8464C61.086 14.8234 61.2237 14.8005 61.4531 14.7775C61.5449 14.7775 61.6596 14.7546 61.7973 14.7316L62.1415 14.6399C62.2563 15.0299 62.3481 15.3971 62.4398 15.7872C62.6693 16.6592 62.8758 17.4853 63.1283 18.3343C63.243 18.7014 63.3118 18.9768 63.4036 19.2522C63.5872 19.8717 63.7019 20.2618 63.9773 20.9502C64.3674 21.8911 65.1246 22.0976 66.5014 22.1435C68.406 22.2123 69.2551 21.4551 69.8517 20.7208C70.1959 20.2848 70.7696 19.7341 71.3662 19.1374C71.7563 18.7473 72.3529 18.3343 72.9266 17.9213C73.9592 17.2099 74.8541 16.5674 75.0377 15.9249L75.0606 15.879C75.1754 15.4889 75.313 15.0299 74.8312 14.571L74.6476 14.4563L74.464 14.4333C73.5691 14.3415 73.0413 14.6857 72.6283 15.0758C72.284 15.3742 69.2321 17.0722 68.1995 17.5541C68.1307 17.3935 68.0848 17.2328 68.0389 17.0722C68.0159 16.9804 67.9471 16.7969 67.8783 16.5444L67.8324 16.3838C67.4652 15.2135 67.121 14.158 66.9833 13.8597C66.7997 13.4696 66.7998 13.4696 67.3734 13.1483L67.5799 13.0336C68.7961 12.2993 70.7237 11.3355 72.1234 10.6242L72.743 10.3258C72.9266 10.2341 73.3396 10.0505 73.7756 9.86691C74.2575 9.66038 74.8082 9.40797 75.2901 9.1785C75.4737 10.4176 75.5196 10.693 75.5196 10.7389C75.5425 11.7944 75.6113 14.1809 75.7031 16.7739L75.749 17.8524C75.772 18.2655 75.772 18.5638 75.772 18.908C75.7949 19.9176 76.4145 21.4092 76.9423 22.0976L77.0111 22.2123C77.5848 22.9696 78.2502 23.8415 80.086 23.8645H80.2007C81.5546 23.8645 82.9773 23.2679 83.6657 22.6942L84.4688 22.0287C85.685 21.0191 86.9471 19.9635 88.0944 18.908C88.3698 18.6556 88.6222 18.4261 88.8976 18.1737L88.9664 18.1048C90.2514 17.0263 90.6415 16.5903 91.284 15.7184C91.5824 15.3283 91.6742 14.9841 91.8348 14.5251C91.8118 14.571 91.4217 13.8826 90.6186 14.0432Z" fill="#1F1F1F"/>
<path d="M24.9889 13.4469C24.9201 11.2899 24.8283 9.08696 25.0348 6.90701C25.0807 6.40218 25.0578 5.82851 24.9889 5.186C24.8512 4.19928 24.3464 3.85508 23.9334 3.7174C23.3597 3.53382 22.6942 3.7174 21.9599 4.24517C21.3863 4.65822 21.065 5.186 20.9732 5.82851C20.9273 6.10387 20.9273 6.37923 20.9044 6.65459V6.79228C20.7437 10.2802 20.8814 13.814 21.0191 17.2101V17.256C21.0879 18.9082 21.1568 20.6063 21.1797 22.2814C21.2027 23.0845 21.2486 23.7729 21.8452 24.1172C22.0747 24.2548 22.373 24.3237 22.7172 24.3237C23.1532 24.3237 23.6809 24.2089 24.2087 24.0942L24.53 24.0254L24.6218 23.7729C24.6677 23.6812 24.6906 23.5894 24.7365 23.4746C24.8283 23.2452 24.9201 23.0157 24.9889 22.7633C25.0807 22.2814 25.1725 21.7536 25.1725 21.2029C25.1495 19.2524 25.1036 17.1872 25.0577 15.0761C25.0119 14.5713 25.0119 13.9976 24.9889 13.4469Z" fill="#1F1F1F"/>
<path d="M6.05797 37.7009H10.2343V35.8422H6.05797V37.7009ZM10.6244 39.5137H4.22222V34.0064H10.6244C11.5882 34.0064 12.07 34.4654 12.07 35.3833V38.1139C12.0471 39.0777 11.5882 39.5137 10.6244 39.5137ZM6.05797 45.411H10.4408V43.1393H6.05797V45.411ZM10.8309 47.2468H4.22222V41.3265H10.8309C11.7947 41.3265 12.2766 41.7854 12.2766 42.7033V45.847C12.2766 46.7878 11.7947 47.2468 10.8309 47.2468ZM1.83575 49.1743H11.2899C13.6304 49.1743 14.663 48.2106 14.663 46.0077V43.1622C14.663 42.2444 14.3188 41.5789 13.6534 41.1429L12.5749 40.4545L13.5845 39.6514C14.1812 39.1924 14.4565 38.5729 14.4565 37.6779V35.2456C14.4565 33.0656 13.4239 32.0789 11.0833 32.0789H1.83575V49.1743ZM11.2899 50.9871H0V30.2432H11.0833C14.4336 30.2432 16.2923 32.0101 16.2923 35.2226V37.655C16.2923 38.6876 16.0169 39.5825 15.4891 40.2939C16.1546 41.0282 16.4988 42.0149 16.4988 43.1393V45.9847C16.4988 49.2202 14.6401 50.9871 11.2899 50.9871Z" fill="#1F1F1F"/>
<path d="M24.8275 38.7794H29.0956V35.8422H24.8275V38.7794ZM29.4628 40.5922H22.9918V34.0064H29.4628C30.4265 34.0064 30.9084 34.4654 30.9084 35.3833V39.1695C30.9084 40.1562 30.4495 40.5922 29.4628 40.5922ZM31.0461 49.1743H33.5932L30.1282 42.5197L31.2756 42.2444C32.1475 42.0378 33.2949 41.4871 33.2949 39.2383V35.2456C33.2949 33.0656 32.2623 32.0789 29.9217 32.0789H20.6053V49.1743H22.9918V42.4738H27.5582L31.0461 49.1743ZM36.6222 50.9871H29.9446L26.4338 44.2866H24.8046V50.9871H18.7695V30.2432H29.9217C33.2719 30.2432 35.1306 32.0101 35.1306 35.2226V39.2383C35.1306 41.7625 34.0062 43.0246 32.7901 43.6441L36.6222 50.9871Z" fill="#1F1F1F"/>
<path d="M51.7475 46.0543C51.7475 48.6473 49.9347 49.1751 48.4202 49.1751H42.018C39.861 49.1751 38.8055 48.1424 38.8055 46.0543V35.1775C38.8055 33.0664 39.861 32.0567 42.018 32.0567H48.4202C49.9347 32.0567 51.7475 32.6074 51.7475 35.1775V46.0543ZM48.4202 30.2439H42.018C38.8743 30.2439 37.0156 32.0796 37.0156 35.1775V46.0543C37.0156 49.1521 38.8973 50.9879 42.018 50.9879H48.4202C51.5869 50.9879 53.5374 49.1062 53.5374 46.0543V35.1775C53.5603 32.1485 51.5869 30.2439 48.4202 30.2439Z" fill="#1F1F1F"/>
<path d="M47.617 45.5259H42.8441V35.7276H47.617V45.5259ZM48.0071 33.9148H42.4769C41.5131 33.9148 41.0312 34.3967 41.0312 35.3604V45.8701C41.0312 46.8568 41.5131 47.3158 42.4769 47.3158H48.0071C48.3513 47.3158 49.4298 47.3158 49.4298 45.8701V35.3604C49.4298 33.9148 48.3513 33.9148 48.0071 33.9148Z" fill="#1F1F1F"/>
<path d="M69.2067 49.1743H71.7538V32.0789H69.4591V45.9159L60.6245 32.0789H57.8709V49.1743H60.1656V34.9932L69.2067 49.1743ZM73.5666 50.9871H68.197L61.9784 41.2347V50.9871H56.0352V30.2432H61.6112L67.6233 39.6514V30.2432H73.5666V50.9871Z" fill="#1F1F1F"/>
<path d="M86.2792 43.5758L84.8106 41.2811L84.2828 40.4779L79.0509 32.3547H80.749L85.1089 39.147L85.9579 40.4779L87.1052 42.2448L91.3504 48.8765H89.6523L86.2792 43.5758ZM92.4519 30.0371L87.0823 38.6881L86.2333 37.3572L90.7538 30.0371H88.5279L85.1089 35.5903L81.6668 30.2895L81.598 30.1748H75.4023L82.034 40.5009L75.4023 51.0564H77.6511L83.1813 42.2678L84.0304 43.5987L77.72 53.7642L77.4446 54.2002H79.6705L85.1548 45.3656L88.7345 50.9188L88.8033 51.0335H94.999L88.2067 40.455L94.4023 30.4731L94.6777 30.0371H92.4519Z" fill="#1F1F1F"/>
</svg>
