<svg width="118" height="38" viewBox="0 0 118 38" fill="none" xmlns="http://www.w3.org/2000/svg">
<g id="Group">
<path id="Vector" d="M74.3455 14.8176C74.9133 14.0786 74.4356 13.2044 73.7326 12.5104C72.7683 11.501 70.9297 10.5366 70.1906 11.501C68.8117 13.2224 65.495 18.8914 62.1874 23.7402C62.1513 23.7672 62.1243 23.7943 62.0972 23.8303C59.8621 27.2371 55.3107 32.7169 54.121 31.8426C52.3635 30.5538 56.5274 24.2449 57.5819 22.5866C59.2492 19.9549 60.9526 17.6566 61.1689 17.3322C61.7367 16.503 59.0239 14.0155 57.8342 14.8897L51.1378 25.1101C46.7576 30.8693 44.5676 31.9778 44.171 31.419C43.6933 30.7341 45.5319 27.1831 47.3705 24.4252C47.3705 24.4252 50.9125 19.315 52.1022 17.6116C52.7601 16.5481 50.3537 13.646 49.0379 14.9438C48.2087 15.773 47.1542 17.1069 44.7929 20.8381C44.1169 21.8836 43.5311 22.893 43.0534 23.8574C40.4397 27.7148 37.781 30.2203 33.554 30.1753C38.2406 21.9377 42.756 14.2048 47.6589 5.6337C48.8486 3.51572 45.604 0.568564 44.9461 1.67713C39.6466 11.0323 34.4283 20.1532 29.1288 29.3191C26.7675 28.544 24.8838 27.3453 23.0362 26.1466C26.8396 19.6935 32.0129 10.5817 35.5188 4.27278C36.3029 2.90285 33.0583 0.965123 32.139 1.56897C29.2009 3.40756 26.1366 4.9217 23.2435 6.81436C21.4049 7.96799 17.5385 9.76152 18.2415 12.6185C18.8093 14.7816 21.9637 15.0159 21.7474 14.2318C21.1796 12.258 26.434 9.44607 27.5786 8.70703C27.8039 8.56283 28.0563 8.43665 28.2816 8.29245C25.2623 13.637 21.9277 19.5763 19.305 23.9926C18.7372 23.7132 18.1153 23.4879 17.5114 23.2535C11.6802 21.2707 5.6327 22.3703 1.64909 27.4895C1.17141 28.1024 0.819912 28.7062 0.558544 29.301C0.558544 29.301 -0.8925 32.0679 0.883002 34.5464C0.883002 34.5464 0.901031 34.5645 0.901031 34.5735C1.0182 34.7267 1.14437 34.8889 1.28857 35.0421C1.36067 35.1232 1.43277 35.2044 1.51389 35.2765C1.5229 35.2855 1.53192 35.3035 1.54995 35.3125C1.55896 35.3215 1.56797 35.3305 1.57698 35.3396C4.81254 38.5571 13.2034 41.1888 21.5491 28.5981C23.3427 29.8328 25.3164 31.1757 27.4615 32.1851C27.164 32.6898 26.8576 33.1945 26.5872 33.6992C25.713 35.2224 29.2189 37.8 29.8318 36.6915C30.4446 35.628 31.0215 34.6276 31.6253 33.5641C34.8699 34.1949 38.2677 33.6091 41.5844 30.5178C41.7736 31.4551 42.1972 32.2752 42.9092 32.9692C45.5319 35.6009 48.4791 33.7984 51.0206 31.0405C51.3721 32.0499 51.9399 32.9242 52.9043 33.6632C54.4995 34.8799 57.3025 34.5014 60.3848 31.3019C62.2955 34.4833 66.0448 35.8082 69.3344 34.4022C71.7859 33.3387 71.173 30.0671 71.3533 28.0483C71.7048 23.2175 70.6954 19.7656 74.3725 14.8357L74.3455 14.8176ZM17.881 26.1827C12.3562 34.2851 5.39836 35.9434 4.16362 34.3752C3.46965 33.492 4.02844 31.5182 5.30824 29.7246C7.67858 26.2728 12.4102 24.1999 16.0874 25.2994C16.6102 25.4797 17.223 25.8041 17.881 26.1736V26.1827ZM67.6941 24.7947C67.4328 28.4899 66.9911 32.5366 64.9362 32.3564C63.5393 32.2572 62.9715 30.2294 62.5299 28.8053C64.1972 26.9577 65.9907 24.7136 67.9194 22.2261C67.8293 23.0462 67.7843 23.9295 67.6941 24.8037V24.7947Z" fill="#1F1F1F"/>
<path id="Vector_2" d="M115.595 23.0988C110.954 30.2819 104.735 32.9947 102.455 31.3905C101.617 30.7956 101.572 28.7137 102.23 26.6949C102.978 27.4339 104.248 28.4974 105.384 28.2631C108.493 27.5781 111.341 24.7662 112.874 20.7104C113.973 17.7182 113.847 16.4655 110.467 13.9419C109.548 13.2029 108.457 13.293 107.754 13.4823C104.501 14.4196 100.22 20.2147 98.7596 24.9734C96.2541 28.4433 92.0722 33.175 90.6752 31.4896C89.3233 29.8313 93.0005 24.3516 94.055 22.6932C94.1001 22.6031 94.6228 21.9091 95.2807 21.0349C100.797 14.3925 106.006 6.57853 106.628 5.2807C107.196 4.12707 107.367 2.658 106.538 1.41425C105.573 -0.0458045 104.438 -0.280135 103.951 0.278653C101.22 3.18975 91.892 18.6465 89.0169 24.0181C88.9448 24.0541 88.8817 24.0992 88.8367 24.1623C83.1406 32.3548 78.8506 32.5892 77.6158 31.4355C76.7416 30.6064 78.445 26.7399 80.2926 24.0632C80.7703 23.4142 82.6179 20.7014 84.5016 18.0337C86.259 18.0337 88.4852 17.9435 89.1881 17.9435C92.0812 17.9345 89.4135 14.8972 86.7367 14.7981C87.7461 13.329 88.5212 12.1754 88.7916 11.7158C89.2693 10.8415 86.8268 7.89438 85.8174 9.09307C85.6822 9.28234 83.7895 11.86 81.8698 14.5728C78.8866 14.5277 78.9317 14.6179 77.4897 14.6179C76.4352 14.6179 76.3541 17.7453 79.5896 17.7453C78.8055 18.8989 78.1025 19.8632 77.6699 20.5122C74.876 24.7031 71.8027 28.5695 76.7506 33.4544C78.3459 35.0587 83.8617 34.4999 88.0706 30.1467C88.1517 30.4802 88.2418 30.8137 88.35 31.1201C88.5753 31.8051 88.9178 32.4991 89.5397 33.148C91.5675 35.32 95.1185 34.4728 98.6244 30.336C99.048 31.4626 99.8322 32.1836 100.923 32.9136C106.258 36.6449 113.712 31.769 116.56 27.0734C118.308 24.2164 116.028 22.4229 115.595 23.1168V23.0988ZM104.69 22.3598C107.313 18.4483 109.683 16.5646 110.08 16.88C110.431 17.1504 109.503 19.683 107.358 22.3598C105.735 24.3786 103.897 26.0369 103.239 25.6764C102.851 25.4421 103.545 24.0181 104.681 22.3598H104.69Z" fill="#1F1F1F"/>
</g>
</svg>
