<svg width="95" height="55" viewBox="0 0 95 55" fill="none" xmlns="http://www.w3.org/2000/svg">
<g id="Group">
<g id="Group_2">
<g id="Group_3">
<g id="Group_4">
<path id="Vector" d="M17.3472 22.8317C17.2555 22.3268 17.1637 21.7991 17.0719 21.2942C16.9571 20.6747 16.8195 20.0551 16.7277 19.4355L16.6129 18.6783C16.4294 17.485 16.2458 16.223 16.1999 15.0068C16.1311 13.2169 16.154 11.2894 16.2687 9.13239C16.3146 8.12273 16.4523 7.09012 16.59 6.05751C16.6588 5.48384 16.7506 4.81838 16.8195 4.17587C16.8883 3.51041 16.9113 2.822 16.9113 2.04181C16.9113 1.58287 16.7965 0.917414 15.9934 0.43553L15.741 0.274902L15.4197 0.297849C13.9282 0.343743 13.148 0.619105 13.0791 1.83529C13.0562 2.04181 13.0562 2.24833 13.0562 2.45485V2.52369C13.0332 2.84495 13.0332 3.23505 12.9873 3.6022C12.9185 4.35944 12.8497 5.11669 12.7579 5.89688C12.6202 7.29664 12.4825 8.74229 12.3907 10.1879C12.253 12.6662 12.1613 15.5116 12.5743 18.4488C11.2204 16.9114 10.2108 15.2363 9.20111 13.607C8.85691 13.0563 8.5127 12.4826 8.1685 11.9319C8.03082 11.7254 7.87019 11.473 7.66367 11.1517C5.52961 7.93915 5.18541 7.13601 5.18541 6.97539C5.30014 6.30993 4.95594 5.69036 4.22164 5.23142L3.90039 5.09374L3.55618 5.13964C2.06464 5.30026 1.37623 5.57563 1.33034 6.74592C1.33034 6.92949 1.30739 7.52611 1.30739 8.16862C1.30739 8.62756 1.28444 9.06355 1.28444 9.20123C1.2615 10.0732 1.2156 10.9452 1.19266 11.8172L1.14676 12.1614C1.12382 12.8957 1.10087 13.607 1.07792 14.3413C1.05498 14.9379 1.03203 15.5346 1.00908 16.1771C0.963188 17.0491 0.917294 18.1505 0.894347 19.2061C0.8714 20.4911 0.894347 21.8679 0.963188 23.2447C0.986135 23.7954 1.10087 24.3232 1.19266 24.828L1.2156 24.8969C1.23855 25.0575 1.28444 25.2181 1.30739 25.3788C1.35328 25.6082 1.42213 25.8148 1.55981 26.0213C1.85812 26.4802 2.31705 26.7097 3.00546 26.7097C3.09725 26.7097 3.21198 26.7097 3.32671 26.6867C3.55618 26.6638 3.8086 26.6408 4.06101 26.6179L5.20836 26.5032L5.2313 25.7C5.2313 25.5164 5.25425 25.3558 5.2313 25.1952C5.20836 25.0346 5.18541 24.8969 5.16246 24.7363C5.13952 24.6674 5.13952 24.5756 5.11657 24.5068C5.07068 24.2773 5.04773 24.0708 5.02478 23.8184C5.00183 23.7036 5.00183 23.566 5.00183 23.4512L4.97889 23.0841C4.95594 22.9005 4.95594 22.7169 4.93299 22.5334C4.93299 22.4416 4.91005 22.3498 4.8871 22.235C4.86415 22.1203 4.86415 22.0285 4.84121 21.9138C4.84121 21.7761 4.81826 21.6384 4.81826 21.5007L4.79531 21.0648C4.79531 20.9271 4.79531 20.8123 4.77237 20.6747C4.77237 20.4452 4.77237 20.1928 4.77237 19.9633V19.7109C4.77237 19.5732 4.77237 19.4355 4.77237 19.2978C4.77237 19.2061 4.77237 19.0913 4.74942 18.9766C4.74942 18.8619 4.72647 18.7701 4.72647 18.6783C4.72647 18.5636 4.72647 18.4259 4.74942 18.3111C4.74942 18.2193 4.74942 18.1276 4.77237 18.0587C4.77237 17.921 4.77237 17.7834 4.77237 17.6457L4.81826 16.0623C4.81826 15.8558 4.84121 15.6493 4.84121 15.4198C4.84121 15.3051 4.86415 15.1904 4.86415 15.0756L4.8871 14.6626C4.8871 14.479 4.91005 14.2954 4.91005 14.1348C4.91005 14.066 4.91005 14.0201 4.91005 13.9053C5.20836 14.3872 5.48372 14.8691 5.75908 15.328C7.4342 18.2652 9.38468 20.7435 11.7023 22.9235C12.1383 23.3136 12.5514 23.7266 12.9644 24.1396C13.4004 24.5756 13.9282 25.0805 14.433 25.5394C15.2591 26.2966 15.8328 26.3655 17.026 26.159C18.1963 25.9524 18.334 25.287 18.334 25.0116C18.334 24.4609 18.2651 23.8413 17.5538 23.2906C17.4849 23.1988 17.3931 23.0841 17.3472 22.8317Z" fill="#F7F9FC"/>
<path id="Vector_2" d="M90.6165 14.0432C89.8133 14.2039 89.2167 14.4563 88.7807 14.7775C87.4727 15.7413 88.5512 14.9152 87.2433 15.9019L86.7843 16.2461C86.0271 16.8198 85.2698 17.3935 84.4896 17.9442C84.2372 18.1278 84.0078 18.3343 83.8012 18.5179C83.48 18.8162 82.2638 19.5964 81.3918 20.0783C81.2312 19.757 81.0247 19.344 80.887 19.0227C80.3363 17.8524 79.0971 7.75579 79.0053 5.20869C78.9594 4.06135 78.9365 3.44178 78.9136 3.07463C78.8906 2.66159 78.8906 2.54686 78.9136 2.29444C78.9824 1.56014 78.9595 0.275118 78.0645 0.0227027L77.9039 -0.000244141L77.7662 0.0227027C77.1007 0.160384 75.3568 0.940577 74.6454 1.76666L74.5536 1.90435C74.5307 1.99613 74.2783 2.79927 74.5307 4.54323C74.5995 4.95628 74.7143 5.71352 74.852 6.56256L74.9208 6.9756C72.8326 8.30652 68.1515 10.1193 66.7288 10.67L66.6829 10.693C66.5911 10.7389 66.4993 10.7618 66.3846 10.8077L66.2698 10.3717C66.0633 9.66038 65.9027 9.04082 65.9027 8.46715C71.8 6.60845 73.108 5.18575 73.3375 3.51063L73.4293 2.84517L73.1539 2.89106C73.108 2.73043 73.0162 2.59275 72.7867 2.50096L72.5114 2.40918L72.2131 2.52391C72.0295 2.59275 71.1805 2.93695 69.2759 3.74009L69.1841 3.78599C67.3254 4.56618 65.0078 5.5529 62.8278 6.44782C62.7819 6.47077 62.759 6.47077 62.7131 6.49372C62.6672 6.51666 62.6213 6.51666 62.5754 6.53961C61.7723 6.79203 61.1527 7.18212 60.7855 7.66401L60.6479 7.84758L60.7396 8.0541C61.1527 9.06376 61.4051 11.0601 61.5198 12.001L60.4643 12.2763C57.3435 13.1483 54.4981 13.9514 51.3544 14.8234C51.3544 14.8234 51.3544 14.8234 51.3314 14.8234L51.8592 14.2727C52.3181 13.7908 52.823 13.263 53.3278 12.7582C54.98 11.129 56.4256 9.38502 57.7336 7.45748C58.3073 6.60845 58.4679 5.92005 58.1925 5.25459L58.009 4.79565L57.4123 4.93333C55.9437 5.25459 55.2553 5.5529 54.6587 6.10362C54.3375 6.42488 54.0851 6.74613 53.8326 7.09033C53.7179 7.25096 53.5802 7.41159 53.4425 7.57222L52.9607 8.16884C52.1346 9.1785 51.2167 10.3029 50.2988 11.3814C50.2529 11.4273 50.0923 11.565 49.794 11.8174V10.9454C49.7251 9.06377 49.6334 6.92971 49.5875 4.86449C49.5875 4.79565 49.5875 4.72681 49.5875 4.65797C49.6104 4.33671 49.6334 3.92367 49.0597 3.60241L48.8302 3.48768L48.5549 3.53357C47.5681 3.67125 46.6732 4.01546 45.9848 4.49734C45.4111 4.91038 45.1128 5.30048 45.0899 5.62174C45.021 6.88381 44.4015 8.12294 43.8049 9.31618L43.736 9.47681C43.3689 10.1882 43.0247 10.9913 42.6346 11.8633C41.5102 14.4104 40.2251 17.3017 38.4812 18.7473C38.0911 19.0686 37.6092 19.4816 37.0585 19.7799C36.1865 20.3077 35.3604 20.2848 34.5114 19.7799C33.8918 19.4128 33.3181 18.9768 33.2493 18.4261L33.2034 18.1048C33.1346 17.5312 33.0428 16.9345 33.0428 16.3379C33.0657 14.2268 34.0295 9.9128 34.8785 8.1C35.1768 7.48043 35.5899 6.74613 36.4619 5.94299C36.5307 6.08067 36.5766 6.17246 36.5766 6.2413C36.5307 7.04444 36.4848 7.89348 36.3471 8.71956C36.3012 8.97198 36.2324 9.47681 37.0585 9.68333C37.9075 9.86691 38.7795 9.79806 39.3302 9.45386C39.7433 9.20145 39.9727 8.85724 39.9727 8.4442C39.9727 7.3198 39.9727 6.17246 39.7892 5.04806C39.6974 4.49734 39.3991 3.87777 38.8713 3.18937C38.2976 2.43212 37.6092 2.29444 36.3701 2.68454C34.8556 3.16642 33.6623 3.90072 32.8133 4.88744C31.6889 6.19541 30.771 7.7099 29.9679 9.66038C28.8894 12.2075 28.4075 17.0493 28.7288 19.4816C28.8665 20.6749 29.4172 21.6157 30.4268 22.3959C31.3906 23.1531 32.6297 23.4973 34.1901 23.4514C36.3471 23.4056 38.114 22.786 39.6056 21.6157C41.7167 19.9406 43.2312 16.6362 44.2179 14.4333L44.2409 14.3874C44.4015 14.0432 44.5392 13.7449 44.6539 13.4925C44.6768 13.4466 44.6768 13.4237 44.6998 13.3778L44.7227 13.3319C44.8145 13.1024 44.8834 12.9418 45.1587 12.8041C45.2046 12.8729 45.2276 12.9188 45.2276 12.9647L45.4341 14.6857C45.5947 16.2691 45.7783 17.9213 45.893 19.5734C45.9848 20.5831 46.0078 21.6616 46.0307 22.6024V22.6713C46.0307 23.0613 46.0537 23.4285 46.0537 23.8186C46.0766 24.2775 46.1454 24.7824 46.5814 25.0348C46.788 25.1495 47.0633 25.2184 47.4075 25.2184C47.8435 25.2184 48.3483 25.1266 48.8073 25.0348C49.5186 24.8971 49.9317 24.6217 50.0923 24.2087L50.1382 24.094C50.2529 23.7956 50.3677 23.4973 50.3906 23.1761C50.4136 22.8778 50.4365 22.5795 50.4594 22.2582C50.5283 21.2256 50.6201 20.17 50.5283 19.1374C50.4824 18.4261 50.7119 17.9442 52.2034 17.5312C54.2457 16.9345 56.288 16.315 58.2843 15.6954L59.3628 15.3512C59.8677 15.1906 60.3725 15.0299 60.9691 14.8464C61.0838 14.8234 61.2215 14.8005 61.451 14.7775C61.5428 14.7775 61.6575 14.7546 61.7952 14.7316L62.1394 14.6399C62.2541 15.0299 62.3459 15.3971 62.4377 15.7872C62.6672 16.6592 62.8737 17.4853 63.1261 18.3343C63.2409 18.7014 63.3097 18.9768 63.4015 19.2522C63.585 19.8717 63.6998 20.2618 63.9751 20.9502C64.3652 21.8911 65.1225 22.0976 66.4993 22.1435C68.4039 22.2123 69.2529 21.4551 69.8495 20.7208C70.1937 20.2848 70.7674 19.7341 71.364 19.1374C71.7541 18.7473 72.3507 18.3343 72.9244 17.9213C73.957 17.2099 74.852 16.5674 75.0355 15.9249L75.0585 15.879C75.1732 15.4889 75.3109 15.0299 74.829 14.571L74.6454 14.4563L74.4619 14.4333C73.5669 14.3415 73.0392 14.6857 72.6261 15.0758C72.2819 15.3742 69.23 17.0722 68.1974 17.5541C68.1285 17.3935 68.0826 17.2328 68.0367 17.0722C68.0138 16.9804 67.945 16.7969 67.8761 16.5444L67.8302 16.3838C67.4631 15.2135 67.1189 14.158 66.9812 13.8597C66.7976 13.4696 66.7976 13.4696 67.3713 13.1483L67.5778 13.0336C68.794 12.2993 70.7215 11.3355 72.1213 10.6242L72.7408 10.3258C72.9244 10.2341 73.3375 10.0505 73.7735 9.86691C74.2553 9.66038 74.8061 9.40797 75.288 9.1785C75.4715 10.4176 75.5174 10.693 75.5174 10.7389C75.5404 11.7944 75.6092 14.1809 75.701 16.7739L75.7469 17.8524C75.7698 18.2655 75.7698 18.5638 75.7698 18.908C75.7928 19.9176 76.4123 21.4092 76.9401 22.0976L77.009 22.2123C77.5826 22.9696 78.2481 23.8415 80.0838 23.8645H80.1986C81.5524 23.8645 82.9752 23.2679 83.6636 22.6942L84.4667 22.0287C85.6829 21.0191 86.945 19.9635 88.0923 18.908C88.3677 18.6556 88.6201 18.4261 88.8954 18.1737L88.9643 18.1048C90.2493 17.0263 90.6394 16.5903 91.2819 15.7184C91.5802 15.3283 91.672 14.9841 91.8326 14.5251C91.8097 14.571 91.4196 13.8826 90.6165 14.0432Z" fill="#F7F9FC"/>
<path id="Vector_3" d="M24.9889 13.4466C24.9201 11.2896 24.8283 9.08672 25.0348 6.90677C25.0807 6.40194 25.0578 5.82826 24.9889 5.18575C24.8512 4.19904 24.3464 3.85483 23.9334 3.71715C23.3597 3.53358 22.6942 3.71715 21.9599 4.24493C21.3863 4.65797 21.065 5.18575 20.9732 5.82826C20.9273 6.10363 20.9273 6.37899 20.9044 6.65435V6.79203C20.7437 10.28 20.8814 13.8138 21.0191 17.2099V17.2558C21.0879 18.908 21.1568 20.606 21.1797 22.2812C21.2027 23.0843 21.2486 23.7727 21.8452 24.1169C22.0747 24.2546 22.373 24.3234 22.7172 24.3234C23.1532 24.3234 23.6809 24.2087 24.2087 24.094L24.53 24.0251L24.6218 23.7727C24.6677 23.6809 24.6906 23.5891 24.7365 23.4744C24.8283 23.2449 24.9201 23.0155 24.9889 22.763C25.0807 22.2812 25.1725 21.7534 25.1725 21.2027C25.1495 19.2522 25.1036 17.187 25.0577 15.0758C25.0119 14.571 25.0119 13.9973 24.9889 13.4466Z" fill="#F7F9FC"/>
</g>
<path id="Vector_4" d="M6.05797 37.7014H10.2343V35.8427H6.05797V37.7014ZM10.6244 39.5142H4.22222V34.0069H10.6244C11.5882 34.0069 12.07 34.4659 12.07 35.3837V38.1144C12.0471 39.0782 11.5882 39.5142 10.6244 39.5142ZM6.05797 45.4115H10.4408V43.1398H6.05797V45.4115ZM10.8309 47.2473H4.22222V41.327H10.8309C11.7947 41.327 12.2766 41.7859 12.2766 42.7038V45.8475C12.2766 46.7883 11.7947 47.2473 10.8309 47.2473ZM1.83575 49.1748H11.2899C13.6304 49.1748 14.663 48.211 14.663 46.0081V43.1627C14.663 42.2449 14.3188 41.5794 13.6534 41.1434L12.5749 40.455L13.5845 39.6519C14.1812 39.1929 14.4565 38.5734 14.4565 37.6784V35.2461C14.4565 33.0661 13.4239 32.0794 11.0833 32.0794H1.83575V49.1748ZM11.2899 50.9876H0V30.2437H11.0833C14.4336 30.2437 16.2923 32.0106 16.2923 35.2231V37.6555C16.2923 38.6881 16.0169 39.583 15.4891 40.2944C16.1546 41.0287 16.4988 42.0154 16.4988 43.1398V45.9852C16.4988 49.2207 14.6401 50.9876 11.2899 50.9876Z" fill="#F7F9FC"/>
<path id="Vector_5" d="M24.8283 38.7799H29.0964V35.8427H24.8283V38.7799ZM29.4636 40.5927H22.9925V34.0069H29.4636C30.4273 34.0069 30.9092 34.4659 30.9092 35.3837V39.17C30.9092 40.1567 30.4503 40.5927 29.4636 40.5927ZM31.0469 49.1748H33.594L30.129 42.5202L31.2764 42.2449C32.1483 42.0383 33.2957 41.4876 33.2957 39.2388V35.2461C33.2957 33.0661 32.2631 32.0794 29.9225 32.0794H20.6061V49.1748H22.9925V42.4743H27.559L31.0469 49.1748ZM36.623 50.9876H29.9454L26.4346 44.2871H24.8053V50.9876H18.7703V30.2437H29.9225C33.2727 30.2437 35.1314 32.0106 35.1314 35.2231V39.2388C35.1314 41.763 34.007 43.0251 32.7909 43.6446L36.623 50.9876Z" fill="#F7F9FC"/>
<g id="Group_5">
<path id="Vector_6" d="M51.7465 46.0543C51.7465 48.6473 49.9337 49.1751 48.4192 49.1751H42.0171C39.8601 49.1751 38.8045 48.1424 38.8045 46.0543V35.1775C38.8045 33.0664 39.8601 32.0567 42.0171 32.0567H48.4192C49.9337 32.0567 51.7465 32.6074 51.7465 35.1775V46.0543ZM48.4192 30.2439H42.0171C38.8733 30.2439 37.0146 32.0796 37.0146 35.1775V46.0543C37.0146 49.1521 38.8963 50.9879 42.0171 50.9879H48.4192C51.5859 50.9879 53.5364 49.1062 53.5364 46.0543V35.1775C53.5593 32.1485 51.5859 30.2439 48.4192 30.2439Z" fill="#F7F9FC"/>
<path id="Vector_7" d="M47.616 45.5261H42.8431V35.7278H47.616V45.5261ZM48.0061 33.915H42.4759C41.5122 33.915 41.0303 34.3969 41.0303 35.3607V45.8704C41.0303 46.8571 41.5122 47.316 42.4759 47.316H48.0061C48.3503 47.316 49.4288 47.316 49.4288 45.8704V35.3607C49.4288 33.915 48.3503 33.915 48.0061 33.915Z" fill="#F7F9FC"/>
</g>
<path id="Vector_8" d="M69.2075 49.1748H71.7546V32.0794H69.4599V45.9164L60.6253 32.0794H57.8717V49.1748H60.1664V34.9937L69.2075 49.1748ZM73.5674 50.9876H68.1978L61.9792 41.2352V50.9876H56.0359V30.2437H61.612L67.6241 39.6519V30.2437H73.5674V50.9876Z" fill="#F7F9FC"/>
<path id="Vector_9" d="M86.2801 43.576L84.8115 41.2813L84.2838 40.4782L79.0519 32.355H80.7499L85.1098 39.1473L85.9589 40.4782L87.1062 42.2451L91.3514 48.8767H89.6533L86.2801 43.576ZM92.4528 30.0374L87.0833 38.6883L86.2342 37.3574L90.7548 30.0374H88.5289L85.1098 35.5905L81.6678 30.2898L81.599 30.175H75.4033L82.035 40.5011L75.4033 51.0567H77.6521L83.1823 42.268L84.0313 43.599L77.721 53.7644L77.4456 54.2004H79.6714L85.1557 45.3659L88.7354 50.919L88.8043 51.0337H94.9999L88.2077 40.4552L94.4033 30.4733L94.6787 30.0374H92.4528Z" fill="#F7F9FC"/>
</g>
</g>
</g>
</svg>
