<svg width="250" height="35" viewBox="0 0 250 35" fill="none" xmlns="http://www.w3.org/2000/svg">
<path d="M19.8686 29.8335V29.833C19.7664 29.1647 19.6444 28.4858 19.5259 27.8251C19.3827 27.0287 19.2346 26.2048 19.1228 25.3862L18.9807 24.3851C18.7577 22.8111 18.5268 21.1831 18.4694 19.6015C18.3848 17.2591 18.4144 14.7452 18.5595 11.9152C18.6266 10.5926 18.7819 9.23423 18.936 7.89461C19.0236 7.13499 19.1222 6.27368 19.2007 5.42349C19.2827 4.49463 19.3156 3.56233 19.2992 2.63024C19.3184 2.2191 19.2266 1.81021 19.0328 1.44387C18.8389 1.07752 18.5498 0.766342 18.1938 0.540997L17.8886 0.342773L17.5078 0.363297C15.7176 0.459719 14.7916 0.800032 14.7028 2.39172C14.6883 2.66304 14.6774 2.93488 14.6671 3.20678L14.6635 3.29864C14.6466 3.73245 14.6279 4.22485 14.5886 4.70608C14.5082 5.69311 14.4163 6.67954 14.319 7.7168C14.1492 9.54179 13.9745 11.4287 13.873 13.3109C13.6229 16.9118 13.6935 20.5269 14.0839 24.1161C12.5443 22.1171 11.1783 19.9982 9.99998 17.7812C9.59322 17.066 9.17377 16.3276 8.74404 15.6048C8.58871 15.3428 8.37536 14.9943 8.12695 14.5886C5.55886 10.3913 5.14787 9.35579 5.12853 9.14587C5.18166 8.69807 5.09943 8.24498 4.89182 7.84147C4.6842 7.43795 4.3601 7.10134 3.95878 6.87239L3.61548 6.64323L3.18757 6.69177C1.38465 6.89812 0.567504 7.25071 0.494371 8.79621C0.484701 9.02133 0.469591 9.81709 0.456899 10.6427C0.447228 11.2397 0.438162 11.7976 0.43091 11.9952C0.391624 13.1326 0.360799 14.2693 0.33058 15.4065L0.317283 15.8761C0.291898 16.8257 0.2647 17.7754 0.235689 18.7254C0.210304 19.5031 0.177667 20.2814 0.142007 21.1076C0.0926885 22.269 0.0301937 23.7149 0.00867718 25.0909C-0.0167075 26.7842 0.0135124 28.5624 0.100546 30.3763C0.14848 31.0735 0.241335 31.7672 0.378569 32.4532L0.393074 32.5386C0.430547 32.7456 0.466811 32.9526 0.500657 33.1648C0.548111 33.4565 0.649017 33.7377 0.798625 33.9951C0.970983 34.2911 1.22691 34.5335 1.53645 34.6939C1.846 34.8543 2.19636 34.9261 2.54654 34.9009C2.66621 34.9009 2.79314 34.8944 2.93034 34.884C3.21924 34.8599 3.50754 34.8313 3.82968 34.7991L5.22101 34.6618L5.24337 33.6046C5.25688 33.38 5.25648 33.1549 5.24216 32.9303C5.22197 32.7324 5.1909 32.5357 5.14908 32.341C5.12914 32.2409 5.10919 32.1422 5.09529 32.0445C5.05359 31.7579 5.01974 31.4592 4.99375 31.1592C4.97985 30.9949 4.9732 30.8312 4.96655 30.6639L4.9448 30.1985C4.93029 29.957 4.91699 29.7155 4.89523 29.4776C4.88496 29.3553 4.87166 29.2331 4.85353 29.0735C4.83661 28.932 4.82029 28.791 4.81062 28.6513C4.79793 28.4718 4.7949 28.2917 4.79128 28.1057L4.77315 27.5233C4.76771 27.3508 4.76106 27.1783 4.75743 27.0053C4.75078 26.6978 4.74776 26.3896 4.74595 26.0855V25.7604C4.74655 25.5838 4.74655 25.4072 4.74414 25.2254C4.74051 25.095 4.73326 24.9651 4.72419 24.8084C4.71754 24.6745 4.70968 24.54 4.70968 24.405C4.70968 24.2483 4.71815 24.091 4.726 23.9267C4.73265 23.8133 4.7387 23.7004 4.74172 23.5887C4.74655 23.4081 4.75038 23.228 4.7532 23.0485L4.79672 20.9679C4.80397 20.6931 4.81384 20.4175 4.82633 20.1411C4.83298 19.9915 4.84144 19.8429 4.8499 19.6904L4.87771 19.1471C4.88859 18.9138 4.89947 18.6811 4.90672 18.4489C4.90914 18.3683 4.90974 18.2875 4.91034 18.1601C5.2609 18.7794 5.60903 19.4055 5.9348 20.0259C7.80864 23.6599 10.2281 27.0055 13.1144 29.9541C13.6312 30.4774 14.1322 31.0066 14.6333 31.5358C15.1724 32.1059 15.7841 32.7526 16.4006 33.3677C17.3875 34.3565 18.082 34.4378 19.5434 34.167C20.9638 33.9051 21.1118 33.0356 21.1094 32.6742C21.1458 32.2544 21.0802 31.8322 20.9178 31.4414C20.7555 31.0505 20.5009 30.7017 20.1744 30.423C20.0852 30.3496 20.0121 30.2596 19.9596 30.1584C19.9071 30.0571 19.8761 29.9467 19.8686 29.8336" fill="#F7F9FC"/>
<path d="M108.282 18.3575C107.472 18.5047 106.709 18.8355 106.056 19.3229C104.466 20.593 105.785 19.5001 104.207 20.7777L103.667 21.2163C102.748 21.9608 101.828 22.705 100.906 23.4488C100.605 23.6915 100.336 23.9487 100.075 24.1972C99.1643 24.9445 98.1965 25.6235 97.1796 26.2286C96.9868 25.8034 96.7462 25.2684 96.5679 24.8515C95.914 23.326 94.3994 10.1356 94.3027 6.81321C94.2591 5.32268 94.2168 4.51458 94.1915 4.03159C94.1612 3.69087 94.1571 3.34845 94.1794 3.00715C94.2555 2.03772 94.2289 0.365397 93.1537 0.0425683L92.9385 0L92.7621 0.036838C91.317 0.460211 90.0139 1.24691 88.9858 2.31664L88.8836 2.50492C88.848 2.61725 88.5385 3.66503 88.8625 5.95541C88.9398 6.5057 89.0855 7.49857 89.2475 8.60833L89.3266 9.1516C86.7972 10.876 81.1552 13.264 79.4393 13.9738L79.3752 14.0002C79.2658 14.0451 79.148 14.0943 79.0211 14.1493L78.8772 13.5902C78.6196 12.7815 78.4741 11.9433 78.4445 11.0976C85.5546 8.67972 87.1538 6.82204 87.4186 4.6141L87.5225 3.73578L87.1943 3.79489C87.165 3.67966 87.1085 3.57253 87.0294 3.48186C86.9502 3.39118 86.8505 3.31939 86.738 3.27209L86.4086 3.14462L86.0405 3.28203C85.8284 3.36038 84.8027 3.82992 82.5054 4.88483L82.3888 4.93857C80.1374 5.97243 77.3348 7.25877 74.7238 8.42771C74.6767 8.44291 74.6295 8.45922 74.5806 8.47858C74.5249 8.5008 74.4699 8.52296 74.4101 8.5429C73.5521 8.79555 72.7989 9.30461 72.2585 9.99706L72.0802 10.2467L72.1835 10.5239C72.661 12.2106 72.9757 13.9365 73.1234 15.6795L71.8596 16.049C68.0929 17.1928 64.6515 18.2359 60.8643 19.3826L60.8498 19.3861L61.4778 18.6751C62.0212 18.0564 62.637 17.3553 63.2608 16.6875C65.2586 14.5479 67.0413 12.2291 68.5849 9.76259C69.2909 8.64289 69.4613 7.75696 69.1355 6.89098L68.9131 6.29748L68.2048 6.46594C66.429 6.89162 65.5926 7.2793 64.8866 8.00489C64.5149 8.4067 64.1781 8.83755 63.8797 9.29305C63.7298 9.5094 63.5811 9.72522 63.4197 9.93748L62.8317 10.7122C61.8417 12.0167 60.7199 13.495 59.606 14.9053C59.557 14.9608 59.3443 15.1568 58.9931 15.4672L58.9859 14.3153C58.8994 11.8547 58.8003 9.07085 58.7296 6.3601C58.7272 6.26772 58.7332 6.17416 58.7381 6.08177C58.7944 5.81429 58.7632 5.53649 58.649 5.2869C58.5347 5.03731 58.343 4.82831 58.1004 4.68889L57.8363 4.52639L57.5166 4.57662C56.391 4.73292 55.3266 5.16912 54.4275 5.84256C54.1547 6.00642 53.9187 6.22167 53.7336 6.4755C53.5485 6.72934 53.418 7.01658 53.3499 7.32017C53.2785 8.97852 52.5261 10.5865 51.7984 12.1431L51.7065 12.3384C51.2768 13.2576 50.8404 14.3252 50.375 15.4626C49.0133 18.799 47.4691 22.581 45.3658 24.4499C44.8337 24.9448 44.2633 25.3997 43.6596 25.8105C43.2197 26.1393 42.6793 26.317 42.1235 26.3159C41.5678 26.3147 41.0282 26.1347 40.5898 25.8041C39.85 25.31 39.1544 24.7539 39.0698 24.0388L39.0178 23.6178C38.9054 22.8519 38.8441 22.0799 38.834 21.3064C38.8582 18.55 40.0169 12.9214 41.0486 10.5508C41.488 9.49763 42.1329 8.53618 42.9482 7.71896C43.0166 7.84131 43.0597 7.97539 43.0751 8.11371C43.0195 9.15511 42.9536 10.2632 42.7977 11.3525C42.7553 11.4888 42.7444 11.6325 42.7656 11.7735C42.7869 11.9144 42.8398 12.0491 42.9206 12.1681C43.0014 12.2871 43.1082 12.3875 43.2335 12.4623C43.3588 12.537 43.4995 12.5844 43.6457 12.6009C44.1017 12.7325 44.5804 12.7747 45.0536 12.725C45.5267 12.6753 45.9849 12.5347 46.4011 12.3114C46.6353 12.1751 46.8295 11.983 46.965 11.7534C47.1006 11.5238 47.173 11.2643 47.1753 10.9999C47.2117 9.51759 47.1408 8.0346 46.9632 6.56183C46.7902 5.68221 46.4133 4.85195 45.861 4.13345C45.1793 3.15871 44.3295 2.97861 42.8312 3.48791C41.1398 4.0165 39.647 5.01571 38.5393 6.36063C37.0741 8.25658 35.9148 10.3567 35.1009 12.5892C33.8081 15.9286 33.2285 22.2273 33.5942 25.417C33.6593 26.1524 33.875 26.8679 34.2286 27.5219C34.5822 28.1759 35.0667 28.7553 35.6539 29.2265C36.9304 30.239 38.5618 30.7353 40.2075 30.6117C42.6121 30.61 44.9328 29.7566 46.7313 28.2126C49.271 26.0333 51.1011 21.7063 52.3124 18.8411L52.3335 18.792C52.5197 18.3523 52.6883 17.9546 52.8388 17.6156C52.8605 17.567 52.8799 17.5173 52.8968 17.4723L52.9192 17.415C52.952 17.2712 53.0166 17.136 53.1087 17.0187C53.2007 16.9014 53.3179 16.8048 53.4523 16.7355C53.4904 16.801 53.5177 16.8718 53.5332 16.9455L53.7502 19.1984C53.9521 21.2824 54.1606 23.4377 54.3165 25.5784C54.4145 26.908 54.4459 28.3032 54.4737 29.5353L54.4767 29.6253C54.487 30.127 54.4993 30.6289 54.5136 31.131C54.4801 31.425 54.5203 31.7225 54.6308 31.9983C54.7412 32.2741 54.9187 32.5202 55.1482 32.7156C55.4497 32.8882 55.7974 32.9705 56.1473 32.9518C56.7153 32.93 57.2793 32.85 57.8299 32.7132C58.6912 32.5238 59.1819 32.1847 59.3723 31.6478L59.4267 31.4952C59.585 31.1099 59.6879 30.7054 59.7326 30.2931C59.7555 29.9007 59.7827 29.5089 59.8117 29.1078C59.9398 27.752 59.9701 26.3892 59.9024 25.0293C59.8335 24.0937 60.1357 23.481 61.9271 22.9254C64.4003 22.1583 66.853 21.3339 69.2627 20.5246L70.5748 20.0802C71.1962 19.8692 71.7909 19.6674 72.5162 19.4283C72.7032 19.3792 72.8947 19.3474 73.0879 19.3336C73.2046 19.3201 73.3315 19.3049 73.4911 19.2791L73.8942 19.1692C74.0187 19.6704 74.136 20.1621 74.2544 20.662C74.5282 21.8058 74.7863 22.887 75.0951 23.9879C75.2275 24.4604 75.3278 24.8381 75.4203 25.1866C75.6065 25.9426 75.8381 26.6875 76.1142 27.4173C76.5795 28.6447 77.5085 28.9066 79.173 28.9804C79.958 29.0703 80.7532 28.9438 81.4671 28.6153C82.1809 28.2868 82.7842 27.7698 83.2074 27.1238C83.7775 26.4047 84.3885 25.7168 85.0375 25.0632C85.6286 24.4917 86.2625 23.9632 86.9341 23.4821C88.1749 22.5383 89.2477 21.7239 89.481 20.8713L89.4955 20.821C89.6247 20.5427 89.6676 20.2342 89.6191 19.9328C89.5706 19.6314 89.4328 19.3501 89.2223 19.123L89.0102 18.9633L88.7751 18.9387C88.3616 18.8885 87.9417 18.938 87.5528 19.0828C87.1639 19.2275 86.8181 19.4631 86.5461 19.7685C84.8309 20.9421 83.0502 22.0236 81.2122 23.0079C81.1427 22.7939 81.0781 22.5858 81.0158 22.3812C80.9753 22.2531 80.9052 22.011 80.8152 21.7052L80.7541 21.4982C80.3081 19.9762 79.8935 18.5775 79.7309 18.1868C79.5224 17.6863 79.5224 17.6863 80.1999 17.2502L80.4356 17.097C81.891 16.1292 84.2173 14.8773 85.9247 13.9576L86.6651 13.5582C86.8791 13.4424 87.3826 13.2033 87.915 12.9501C88.4844 12.6799 89.148 12.3641 89.7494 12.063C89.9809 13.6733 90.025 14.0347 90.0292 14.0896C90.0467 15.4638 90.1398 18.5997 90.2414 21.9659L90.2861 23.3851C90.303 23.9313 90.3139 24.3084 90.3254 24.7493C90.4513 26.2272 90.9365 27.6553 91.7415 28.9173L91.8364 29.0523C92.5356 30.0435 93.3274 31.1667 95.5353 31.2123L95.6773 31.2146C97.2082 31.184 98.6818 30.6454 99.8513 29.6891L100.824 28.8103C102.287 27.487 103.8 26.1182 105.204 24.7282C105.526 24.4107 105.848 24.0942 106.172 23.7787L106.261 23.6921C107.345 22.7887 108.29 21.7402 109.068 20.5784C109.37 20.0966 109.591 19.5711 109.721 19.0219C109.589 18.7745 109.377 18.5757 109.117 18.4558C108.857 18.3359 108.564 18.3014 108.282 18.3576" fill="#F7F9FC"/>
<path d="M29.0694 17.5541L29.0688 17.5458C28.9166 14.7025 28.9329 11.8532 29.1178 9.0117C29.1736 8.2657 29.1512 7.51614 29.0507 6.77453C28.8905 5.48871 28.268 5.02911 27.7742 4.87006C27.0767 4.64383 26.2777 4.87006 25.405 5.54426C25.0724 5.79535 24.7958 6.10887 24.5917 6.466C24.3877 6.82313 24.2603 7.21649 24.2173 7.62244C24.1732 7.9855 24.1593 8.34751 24.1448 8.71349L24.1376 8.90476C23.9502 13.458 24.117 18.0686 24.2772 22.5272L24.2796 22.5915C24.3576 24.7445 24.4386 26.9711 24.4767 29.1592C24.4954 30.2053 24.5691 31.1075 25.2847 31.5578C25.5985 31.743 25.9618 31.8343 26.3291 31.8203C26.935 31.7896 27.5352 31.6919 28.1181 31.5291L28.517 31.4315L28.6355 31.0935C28.6765 30.9759 28.7219 30.8619 28.778 30.7187C28.9071 30.4211 29.0053 30.1118 29.0712 29.7954C29.203 29.1229 29.2732 28.4404 29.2809 27.7559C29.2573 25.1941 29.2096 22.5056 29.1377 19.7661C29.119 19.0288 29.0942 18.2914 29.0694 17.5541" fill="#F7F9FC"/>
<path d="M128.949 29.0148H113.077V0.807129H128.643C133.357 0.807129 135.952 3.21387 135.952 7.5859V10.9001C135.993 12.1826 135.597 13.4424 134.825 14.4857C135.793 15.5566 136.306 16.9428 136.259 18.3648V22.2369C136.259 26.6077 133.663 29.0151 128.949 29.0151V29.0148ZM115.647 26.5294H128.949C132.227 26.5294 133.689 25.2055 133.689 22.2369V18.3645C133.728 17.8239 133.615 17.2832 133.363 16.7993C133.111 16.3155 132.729 15.9063 132.256 15.6151L130.729 14.6667L132.161 13.5879C132.576 13.2706 132.905 12.8597 133.118 12.3911C133.331 11.9224 133.422 11.4104 133.383 10.8999V7.5856C133.383 4.61635 131.921 3.29252 128.643 3.29252H115.647V26.5294ZM128.299 23.9092H119.012V15.8548H128.299C129.662 15.8548 130.324 16.47 130.324 17.7365V22.0273C130.324 23.2931 129.662 23.9089 128.299 23.9089L128.299 23.9092ZM121.581 21.4232H127.755V18.3411H121.581V21.4232ZM127.994 13.4095H119.012V5.91328H127.994C129.356 5.91328 130.019 6.529 130.019 7.795V11.4928C130.019 12.8002 129.375 13.4095 127.994 13.4095V13.4095ZM121.581 10.9238H127.449V8.39955H121.581V10.9238Z" fill="#F7F9FC"/>
<path d="M165.243 29.0148H155.856L150.926 19.9105H148.642V29.0148H140.138V0.807129H155.818C160.532 0.807129 163.128 3.21387 163.128 7.5859V13.0274C163.128 16.4721 161.564 18.177 159.842 19.0092L165.243 29.0148ZM157.41 26.5291H161.002L156.127 17.495L157.723 17.1208C158.941 16.8354 160.559 16.101 160.559 13.0272V7.5856C160.559 4.61635 159.097 3.29252 155.818 3.29252H142.707V26.5294H146.072V17.4251H152.481L157.41 26.5291ZM155.169 14.8743H146.072V5.91328H155.169C156.532 5.91328 157.194 6.529 157.194 7.795V12.9578C157.194 14.2653 156.55 14.8745 155.169 14.8745L155.169 14.8743ZM148.642 12.3883H154.624V8.39926H148.642V12.3883Z" fill="#F7F9FC"/>
<path d="M219.206 29.0148H211.665L202.924 15.7549V29.0148H194.573V0.807129H202.42L210.856 13.5862V0.807129H219.206L219.206 29.0148ZM213.072 26.5294H216.637V3.29258H213.426V22.0975L201.013 3.29258H197.143V26.5294H200.354V7.23366L213.072 26.5294Z" fill="#F7F9FC"/>
<path d="M240.457 14.6948L249.169 1.10936L249.552 0.51416H246.408L238.859 12.2871L237.653 10.4709L244.009 0.51416H240.865L236.049 8.05659L231.27 0.856753L231.165 0.701215H222.467L231.788 14.7313L222.467 29.0846H225.611L233.393 17.1449L234.589 18.9458L225.73 32.7618L225.347 33.3571H228.491L236.189 21.3526L241.21 28.9114L241.314 29.0676H250L240.457 14.6948ZM237.739 18.9347L235.67 15.8211L234.939 14.7218L227.585 3.65474H229.97L236.106 12.8946L237.308 14.7055L238.907 17.1134L244.884 26.1146H242.51L237.739 18.9347Z" fill="#F7F9FC"/>
<path d="M183.18 0.807421H174.198C169.786 0.807421 167.152 3.3165 167.152 7.51953V22.3027C167.152 26.5058 169.786 29.0154 174.198 29.0154H183.18C187.626 29.0154 190.388 26.4431 190.388 22.3027V7.51924C190.388 3.37883 187.626 0.807129 183.18 0.807129V0.807421ZM187.847 22.3024C187.847 25.8189 185.31 26.5575 183.18 26.5575H174.198C171.167 26.5575 169.693 25.1653 169.693 22.3024V7.51924C169.693 4.6564 171.167 3.26475 174.198 3.26475H183.18C185.31 3.26475 187.847 4.00332 187.847 7.51924V22.3024Z" fill="#F7F9FC"/>
<path d="M182.594 5.78931H174.821C173.457 5.78931 172.794 6.43602 172.794 7.76569V22.0562C172.794 23.3853 173.457 24.032 174.821 24.032H182.594C183.086 24.032 184.585 24.032 184.585 22.0562V7.76569C184.585 5.78931 183.086 5.78931 182.594 5.78931V5.78931ZM182.044 21.5735H175.335V8.24751H182.044V21.5735Z" fill="#F7F9FC"/>
</svg>
