<svg width="41" height="14" viewBox="0 0 41 14" fill="none" xmlns="http://www.w3.org/2000/svg">
<path d="M24.5286 4.50071C27.3541 4.23254 30.4728 4.56083 33.4639 4.58225C30.5673 3.59994 27.4045 3.53283 24.1856 3.25643C21.5603 3.01233 22.5829 2.66524 23.3001 0.820489C23.4238 0.73414 23.6199 0.401718 23.7379 0.63746C24.5793 1.11264 26.1006 0.829961 27.1692 1.04653C30.1216 1.22703 33.1591 1.63041 35.9659 2.7503C37.6839 3.49212 39.5905 4.10284 40.8274 5.80611C40.8676 6.61782 40.5356 6.18095 40.5485 6.77314C40.4923 6.87654 40.0738 6.72453 40.3192 6.96948C40.3671 7.3324 39.9371 7.48341 39.9479 7.83678C39.6286 8.03299 39.7489 8.42836 39.4079 8.61876C38.4728 8.47088 37.6909 8.89067 36.868 9.20172C33.8023 10.5455 30.7269 11.7637 27.6141 12.8176C27.2792 12.7693 25.1868 14.063 25.2406 13.5033C25.5699 12.9538 25.6603 12.2561 26.0804 11.7777C26.1782 11.4026 26.2986 10.8759 26.8104 10.9848C29.0898 9.9285 31.5855 9.46694 33.8461 8.32688C37.1269 7.37225 33.993 7.473 32.7838 7.34874C27.2492 6.92277 21.8075 6.92269 16.557 7.52944C12.6687 7.83516 8.95454 8.54036 5.24016 9.3439C4.1159 9.69826 2.98708 10.0745 1.83651 10.4186C1.57413 10.5668 1.26484 10.7146 0.972204 10.7964C0.694118 10.9284 -0.175088 11.6879 0.0824404 11.0956C0.233543 10.3953 0.573314 9.75854 0.751451 9.07168C1.70305 8.25325 2.84179 7.93727 3.9272 7.57219C6.93036 6.48355 10.0426 5.98874 13.2069 5.48339C16.8533 4.94387 20.6073 4.48347 24.53 4.50082L24.5286 4.50071Z" fill="#FF2093"/>
</svg>
