<svg width="44" height="24" viewBox="0 0 44 24" fill="none" xmlns="http://www.w3.org/2000/svg">
<path d="M26.1185 7.18407C29.1739 6.28843 32.5982 6.45625 35.858 6.07363C32.6214 4.66305 29.1708 4.98524 25.6416 4.92771C22.7617 4.8462 23.8468 4.05892 24.4749 0.540618C24.6024 0.363217 24.7885 -0.280216 24.9365 0.139794C25.8925 0.901181 27.5261 0.162805 28.7081 0.413085C31.939 0.330618 35.281 0.648978 38.4313 2.3271C40.3642 3.45863 42.4916 4.32071 43.9803 7.30105C44.0915 8.7989 43.6936 8.03656 43.7568 9.13165C43.7041 9.33111 43.2356 9.10864 43.5234 9.52769C43.6056 10.1932 43.1497 10.5336 43.1909 11.1866C42.8594 11.5951 43.0233 12.3105 42.6676 12.7113C41.6368 12.5694 40.82 13.4574 39.9494 14.1497C36.7217 17.0716 33.473 19.7623 30.1699 22.1539C29.801 22.1117 27.6294 24.8034 27.6415 23.7591C27.9545 22.6947 27.9951 21.3896 28.413 20.4441C28.4883 19.7355 28.5758 18.743 29.1423 18.8724C31.5374 16.594 34.2176 15.3867 36.5853 12.9559C40.0796 10.7244 36.6743 11.3535 35.3469 11.294C29.283 11.2864 23.3556 12.0545 17.687 13.9196C13.477 15.0348 9.48994 16.8654 5.51077 18.8782C4.3156 19.6933 3.11727 20.5496 1.89258 21.3493C1.61909 21.661 1.29447 21.9784 0.982503 22.1711C0.690561 22.455 -0.193167 23.9845 0.0381734 22.851C0.144622 21.5325 0.461853 20.3051 0.598866 19.0076C1.56744 17.3573 2.78159 16.6113 3.93355 15.7818C7.11435 13.3413 10.4633 11.9854 13.868 10.6026C17.795 9.0885 21.8459 7.70572 26.1201 7.18407H26.1185Z" fill="#F7F9FC"/>
</svg>
