<?xml version="1.0" standalone="no"?>
<!DOCTYPE svg PUBLIC "-//W3C//DTD SVG 1.1//EN" "http://www.w3.org/Graphics/SVG/1.1/DTD/svg11.dtd" >
<svg xmlns="http://www.w3.org/2000/svg" xmlns:xlink="http://www.w3.org/1999/xlink" version="1.1">
<metadata>
Created by FontForge 20170731 at Thu Dec 14 12:27:36 2023
 By Aleksey,,,
Copyright (c) 2017 by Rian Hughes / Device. All rights reserved.
</metadata>
<defs>
<font id="Kallisto-Heavy" horiz-adv-x="1366" >
  <font-face 
    font-family="Kallisto"
    font-weight="900"
    font-stretch="normal"
    units-per-em="2048"
    panose-1="0 0 10 0 0 0 0 0 0 0"
    ascent="1626"
    descent="-422"
    x-height="1151"
    cap-height="1446"
    bbox="-816.823 -403 3545 1995"
    underline-thickness="102"
    underline-position="-307"
    unicode-range="U+0020-FB02"
  />
<missing-glyph horiz-adv-x="1034" 
d="M844 0h-654q-61 0 -61 61v1311q0 62 61 62h654q61 0 61 -62v-1311q0 -61 -61 -61zM174 1393v-1348l318 672zM223 1393l293 -625l295 625h-588zM543 717l319 -672v1348zM516 666l-293 -621h588z" />
    <glyph glyph-name="fi" unicode="fi" horiz-adv-x="1429" 
d="M436 0h-221q-61 0 -61 61v783h-48q-61 0 -61 61v185q0 61 53 61h54q0 217 97.5 310t334.5 93h166q61 0 61 -61v-176q0 -62 -61 -62h-166q-53 0 -69.5 -20.5t-16.5 -83.5h252q61 0 61 -61v-185q0 -61 -61 -61h-252v-783q0 -61 -62 -61zM1251 1268h-221q-61 0 -61 61v164
q0 61 61 61h221q62 0 62 -61v-164q0 -61 -62 -61zM1251 0h-221q-61 0 -61 61v1029q0 61 61 61h221q62 0 62 -61v-1029q0 -61 -62 -61z" />
    <glyph glyph-name="fl" unicode="fl" horiz-adv-x="1429" 
d="M436 0h-221q-61 0 -61 61v783h-48q-61 0 -61 61v185q0 61 53 61h54q0 217 97.5 310t334.5 93h166q61 0 61 -61v-176q0 -62 -61 -62h-166q-53 0 -69.5 -20.5t-16.5 -83.5h252q61 0 61 -61v-185q0 -61 -61 -61h-252v-783q0 -61 -62 -61zM1251 0h-221q-61 0 -61 61v1432
q0 61 61 61h221q62 0 62 -61v-1432q0 -61 -62 -61z" />
    <glyph glyph-name=".notdef" horiz-adv-x="1034" 
d="M844 0h-654q-61 0 -61 61v1311q0 62 61 62h654q61 0 61 -62v-1311q0 -61 -61 -61zM174 1393v-1348l318 672zM223 1393l293 -625l295 625h-588zM543 717l319 -672v1348zM516 666l-293 -621h588z" />
    <glyph glyph-name=".null" horiz-adv-x="0" 
 />
    <glyph glyph-name="nonmarkingreturn" horiz-adv-x="682" 
 />
    <glyph glyph-name="space" unicode=" " horiz-adv-x="512" 
 />
    <glyph glyph-name="exclam" unicode="!" horiz-adv-x="667" 
d="M362 485h-55q-58 0 -67 56l-105 598q-6 44 -6 73v172q0 62 61 62h287q62 0 62 -62v-180q0 -23 -7 -74l-102 -589q-9 -56 -68 -56zM455 0h-240q-61 0 -61 61v248q0 62 61 62h240q61 0 61 -62v-248q0 -61 -61 -61z" />
    <glyph glyph-name="quotedbl" unicode="&#x22;" horiz-adv-x="1097" 
d="M379 784h-143q-61 0 -64 60l-43 538q-6 64 57 64h246q63 0 57 -64l-47 -538q-6 -60 -63 -60zM870 784h-141q-60 0 -63 60l-43 538q-6 64 57 64h244q63 0 57 -64l-47 -538q-6 -60 -64 -60z" />
    <glyph glyph-name="numbersign" unicode="#" horiz-adv-x="1544" 
d="M422 0h-201q-68 0 -53 68l65 251h-90q-61 0 -61 62v188q0 62 61 62h174l50 188h-101q-61 0 -61 62v188q0 61 61 61h183l71 263q15 53 68 53h203q32 0 46.5 -19.5t6.5 -50.5l-66 -246h201l70 263q15 53 69 53h203q32 0 46.5 -19.5t6.5 -50.5l-67 -246h94q61 0 61 -61v-188
q0 -62 -61 -62h-176l-49 -188h102q61 0 61 -62v-188q0 -62 -61 -62h-186l-70 -266q-12 -53 -70 -53h-202q-32 0 -47 19.5t-7 50.5l68 249h-201l-71 -266q-15 -53 -70 -53zM694 819l-49 -188h201l49 188h-201z" />
    <glyph glyph-name="dollar" unicode="$" horiz-adv-x="1509" 
d="M584 895l463 -35q232 -17 334 -115t102 -301q0 -444 -486 -444h-63v-84q0 -61 -62 -61h-227q-61 0 -61 61v84h-2q-450 0 -484 424q-3 63 62 63h243q49 0 64 -59q21 -80 115 -80h411q70 0 99.5 21.5t29.5 76.5t-26 78.5t-90 28.5l-463 35q-235 19 -336 114t-101 299
q0 442 478 445v88q0 61 61 61h227q62 0 62 -61v-88h43q449 0 483 -424q3 -64 -61 -64h-244q-48 0 -63 60q-21 80 -115 80h-381q-70 0 -99.5 -22t-29.5 -77q0 -54 26.5 -76.5t90.5 -27.5z" />
    <glyph glyph-name="percent" unicode="%" horiz-adv-x="2560" 
d="M569 516h-69q-222 0 -323 113.5t-101 341.5v26q0 223 101 336t323 113h69q222 0 323 -113t101 -336v-26q0 -228 -101 -341.5t-323 -113.5zM1210 0h-204q-32 0 -47 18.5t-7 49.5l332 1325q12 53 68 53h207q32 0 46.5 -18.5t6.5 -49.5l-332 -1325q-12 -53 -70 -53zM502 825
h65q48 0 68 21t20 76v118q0 56 -20 76.5t-68 20.5h-65q-48 0 -68 -20.5t-20 -76.5v-118q0 -55 20 -76t68 -21zM2060 0h-69q-222 0 -323 113.5t-101 341.5v26q0 223 101 336t323 113h69q222 0 323 -113t101 -336v-26q0 -228 -101 -341.5t-323 -113.5zM1993 309h65q48 0 68 21
t20 76v118q0 56 -20 76.5t-68 20.5h-65q-48 0 -68 -20.5t-20 -76.5v-118q0 -55 20 -76t68 -21z" />
    <glyph glyph-name="ampersand" unicode="&#x26;" horiz-adv-x="1617" 
d="M1462 860h58q57 0 57 -61v-156q0 -61 -57 -61h-58v-95q0 -260 -115.5 -373.5t-369.5 -113.5h-432q-484 0 -484 401v19q0 210 132 305q-121 89 -121 291v20q6 410 487 410h275q61 0 61 -62v-225q0 -61 -61 -61h-261q-75 0 -105 -20.5t-30 -80.5v-36q0 -59 31.5 -80
t103.5 -21h525v230q0 61 61 61h242q61 0 61 -61v-230zM1098 487v95h-539q-75 0 -105 -20t-30 -81v-37q0 -59 31.5 -79.5t103.5 -20.5h418q66 0 93.5 29.5t27.5 113.5z" />
    <glyph glyph-name="quotesingle" unicode="'" horiz-adv-x="606" 
d="M379 784h-143q-61 0 -64 60l-43 538q-6 64 57 64h246q63 0 57 -64l-47 -538q-6 -60 -63 -60z" />
    <glyph glyph-name="parenleft" unicode="(" horiz-adv-x="626" 
d="M561 143v-186q0 -62 -63 -59q-243 9 -328 116q-84 110 -84 351v720q0 241 84 351q85 107 328 116q63 3 63 -59v-186q0 -55 -61 -64q-68 -15 -68 -84v-868q0 -75 68 -84q61 -9 61 -64z" />
    <glyph glyph-name="parenright" unicode=")" horiz-adv-x="626" 
d="M129 -102q-63 -3 -63 59v186q0 55 61 64q68 9 68 84v868q0 69 -68 84q-61 9 -61 64v186q0 62 63 59q244 -9 326 -116q86 -109 86 -351v-720q0 -242 -86 -351q-82 -107 -326 -116z" />
    <glyph glyph-name="asterisk" unicode="*" horiz-adv-x="1091" 
d="M649 657h-155q-63 0 -60 62l4 153l-141 -86q-56 -35 -84 25l-59 127q-24 56 26 82l154 80l-152 76q-53 27 -28 81l59 129q27 62 84 25l141 -88l-4 170q-3 61 60 61h155q63 0 60 -63l-11 -164l142 84q56 35 84 -25l63 -131q23 -54 -29 -81l-153 -74l153 -78q56 -27 29 -84
l-63 -127q-28 -60 -84 -25l-142 86l11 -151q3 -64 -60 -64z" />
    <glyph glyph-name="plus" unicode="+" horiz-adv-x="1120" 
d="M655 256h-190q-62 0 -62 61v252h-256q-61 0 -61 62v188q0 62 61 62h256v252q0 61 62 61h190q62 0 62 -61v-252h256q61 0 61 -62v-188q0 -62 -61 -62h-256v-252q0 -61 -62 -61z" />
    <glyph glyph-name="comma" unicode="," horiz-adv-x="561" 
d="M240 -330h-179q-32 0 -46.5 18.5t-6.5 49.5l131 543q12 53 68 53h242q32 0 46 -19.5t3 -50.5l-189 -545q-18 -49 -69 -49z" />
    <glyph glyph-name="hyphen" unicode="-" horiz-adv-x="684" 
d="M557 453h-430q-61 0 -61 61v145q0 62 61 62h430q61 0 61 -62v-145q0 -61 -61 -61z" />
    <glyph glyph-name="period" unicode="." horiz-adv-x="620" 
d="M430 0h-240q-61 0 -61 61v248q0 62 61 62h240q62 0 62 -62v-248q0 -61 -62 -61z" />
    <glyph glyph-name="slash" unicode="/" horiz-adv-x="796" 
d="M342 0h-223q-68 0 -53 68l350 1325q12 53 69 53h224q68 0 53 -68l-350 -1325q-12 -53 -70 -53z" />
    <glyph glyph-name="zero" unicode="0" horiz-adv-x="1673" 
d="M1085 0h-497q-234 0 -360 133.5t-126 364.5v448q0 233 126 366.5t360 133.5h497q234 0 360 -133.5t126 -366.5v-448q0 -231 -126 -364.5t-360 -133.5zM588 348h497q65 0 93 28t28 109v473q0 85 -26 112.5t-95 27.5h-497q-69 0 -95 -27.5t-26 -112.5v-473q0 -81 28 -109
t93 -28z" />
    <glyph glyph-name="one" unicode="1" horiz-adv-x="813" 
d="M623 0h-242q-62 0 -62 61v854h-237q-62 0 -62 62v184q0 62 62 62h68q134 0 161 24q27 27 27 150q0 49 61 49h224q61 0 61 -62v-1323q0 -61 -61 -61z" />
    <glyph glyph-name="two" unicode="2" horiz-adv-x="1529" 
d="M1372 0h-1218q-62 0 -62 61v238q0 50 41 74l813 481q80 49 105.5 76t25.5 69q0 56 -29.5 77.5t-105.5 21.5h-364q-69 0 -95 -27.5t-26 -112.5v-8q0 -61 -62 -61h-241q-62 0 -62 29v28q0 246 115.5 373t370.5 127h374q486 0 486 -418q0 -98 -18 -158.5t-70 -115.5
q-53 -56 -115 -97q-53 -35 -184 -110l-351 -199h672q62 0 62 -61v-226q0 -61 -62 -61z" />
    <glyph glyph-name="three" unicode="3" horiz-adv-x="1595" 
d="M1024 0h-453q-453 0 -483 424q-3 63 62 63h241q55 0 64 -61q10 -48 35 -65t81 -17h439q72 0 103.5 20.5t31.5 79.5v37q0 61 -30 81t-105 20h-332q-62 0 -62 61v156q0 61 62 61h317q72 0 103.5 21t31.5 80v36q0 60 -30 80.5t-105 20.5h-424q-56 0 -81 -16t-35 -62
q-9 -62 -64 -62h-241q-65 0 -62 64q30 424 483 424h439q481 0 487 -410v-20q0 -202 -121 -291q131 -94 131 -305v-19q0 -401 -483 -401z" />
    <glyph glyph-name="four" unicode="4" horiz-adv-x="1579" 
d="M1268 0h-228q-61 0 -61 61v218h-877q-61 0 -61 61v223q0 47 33 76l872 778q32 29 76 29h246q61 0 61 -62v-776h127q62 0 62 -61v-207q0 -61 -62 -61h-127v-218q0 -61 -61 -61zM979 1044l-496 -436h496v436z" />
    <glyph glyph-name="five" unicode="5" horiz-adv-x="1550" 
d="M1006 0h-445q-232 0 -350.5 104.5t-132.5 319.5q-3 63 59 63h246q48 0 63 -59q21 -80 115 -80h406q135 0 135 144q0 145 -131 145l-805 4q-66 0 -60 64l68 684q6 57 66 57h1075q61 0 61 -62v-227q0 -61 -61 -61h-811l-15 -150h517q251 0 352 -104q104 -101 104 -353
q0 -256 -106 -372.5t-350 -116.5z" />
    <glyph glyph-name="six" unicode="6" horiz-adv-x="1628" 
d="M973 0h-318q-293 0 -428 131t-135 404v18q0 263 223 479l396 383q36 31 75 31h318q41 0 50.5 -25t-21.5 -51l-340 -315h180q293 0 428 -123t135 -379v-18q0 -273 -135 -404t-428 -131zM682 344h264q124 0 178 41t54 154v12q0 116 -53.5 156.5t-178.5 40.5h-264
q-125 0 -178 -40.5t-53 -156.5v-12q0 -114 53.5 -154.5t177.5 -40.5z" />
    <glyph glyph-name="seven" unicode="7" horiz-adv-x="1462" 
d="M539 0h-295q-38 0 -49 22.5t12 53.5l768 1020h-852q-62 0 -62 61v227q0 62 62 62h1216q62 0 62 -62v-239q0 -42 -25 -78l-762 -1030q-24 -37 -75 -37z" />
    <glyph glyph-name="eight" unicode="8" horiz-adv-x="1531" 
d="M967 0h-402q-233 0 -358 103.5t-125 297.5v19q0 211 131 305q-121 89 -121 291v20q1 196 129.5 303t358.5 107h372q230 0 358.5 -107t129.5 -303v-20q0 -202 -121 -291q131 -94 131 -305v-19q0 -194 -125 -297.5t-358 -103.5zM594 860h344q71 0 103 21t32 80v36
q0 59 -31.5 80t-103.5 21h-344q-68 0 -101.5 -22t-33.5 -79v-36q0 -58 34 -79.5t101 -21.5zM580 344h372q71 0 103 21t32 79v37q0 59 -31.5 80t-103.5 21h-372q-71 0 -103.5 -21.5t-32.5 -79.5v-37q0 -58 34 -79t102 -21z" />
    <glyph glyph-name="nine" unicode="9" horiz-adv-x="1628" 
d="M842 0h-318q-41 0 -50 25t22 51l340 315h-181q-293 0 -428 123t-135 379v18q0 273 135 404t428 131h318q293 0 428 -131t135 -404v-18q0 -263 -223 -479l-395 -383q-36 -31 -76 -31zM682 698h264q125 0 178.5 40.5t53.5 156.5v12q0 113 -54 154t-178 41h-264
q-124 0 -177.5 -40.5t-53.5 -154.5v-12q0 -116 53 -156.5t178 -40.5z" />
    <glyph glyph-name="colon" unicode=":" horiz-adv-x="620" 
d="M430 780h-240q-61 0 -61 62v248q0 61 61 61h240q62 0 62 -61v-248q0 -62 -62 -62zM430 0h-240q-61 0 -61 61v248q0 62 61 62h240q62 0 62 -62v-248q0 -61 -62 -61z" />
    <glyph glyph-name="semicolon" unicode=";" horiz-adv-x="616" 
d="M438 780h-239q-62 0 -62 62v248q0 61 62 61h239q62 0 62 -61v-248q0 -62 -62 -62zM240 -268h-179q-32 0 -46.5 18t-6.5 49l131 543q12 53 68 53h242q32 0 45.5 -19t3.5 -50l-189 -545q-18 -49 -69 -49z" />
    <glyph glyph-name="less" unicode="&#x3c;" horiz-adv-x="907" 
d="M821 418v-195q0 -35 -19.5 -48t-51.5 -1l-615 229q-49 18 -49 70v229q0 52 49 70l615 229q32 12 51.5 -1t19.5 -48v-196q0 -53 -51 -68l-369 -102l367 -101q53 -15 53 -67z" />
    <glyph glyph-name="equal" unicode="=" horiz-adv-x="1120" 
d="M973 819h-826q-61 0 -61 62v188q0 61 61 61h826q61 0 61 -61v-188q0 -62 -61 -62zM973 319h-826q-61 0 -61 62v188q0 62 61 62h826q61 0 61 -62v-188q0 -62 -61 -62z" />
    <glyph glyph-name="greater" unicode="&#x3e;" horiz-adv-x="907" 
d="M772 403l-614 -229q-33 -12 -52.5 1t-19.5 48v195q0 52 53 67l367 101l-369 102q-51 15 -51 68v196q0 35 19.5 48t52.5 1l614 -229q49 -18 49 -70v-229q0 -52 -49 -70z" />
    <glyph glyph-name="question" unicode="?" horiz-adv-x="1509" 
d="M805 481h-195q-62 0 -59 64q5 119 46 173t151 85l225 63q114 34 114 133q0 56 -29.5 77.5t-105.5 21.5h-405q-69 0 -95 -27.5t-26 -112.5v-49q0 -61 -61 -61h-242q-62 0 -62 49v49q0 246 115.5 373t370.5 127h416q485 0 485 -418q0 -175 -74 -264q-72 -86 -239 -139
l-213 -66q-34 -11 -52 -29q-8 -8 -16 -19t-12.5 -16t-13.5 -9.5t-23 -4.5zM823 0h-239q-62 0 -62 61v248q0 62 62 62h239q62 0 62 -62v-248q0 -61 -62 -61z" />
    <glyph glyph-name="at" unicode="@" horiz-adv-x="1714" 
d="M1409 0h-821q-272 0 -381 127q-105 129 -105 371v448q0 245 105 371q108 129 381 129h538q274 0 379 -129q107 -125 107 -371v-139q0 -246 -91 -370t-294 -124h-135q-62 0 -62 41v41q-58 -82 -190 -82h-105q-299 0 -299 320v176q0 315 299 315h105q132 0 190 -82v21
q0 61 62 61h120q62 0 62 -61v-524q106 0 106 170v288q0 224 -204 224h-635q-203 0 -203 -224v-546q0 -228 203 -228h868q61 0 61 -61v-101q0 -61 -61 -61zM741 539h228q61 0 61 67v225q0 68 -61 68h-228q-61 0 -61 -68v-225q0 -67 61 -67z" />
    <glyph glyph-name="A" unicode="A" horiz-adv-x="1701" 
d="M1634 0h-274q-54 0 -72 47l-74 178h-702l-74 -178q-18 -47 -71 -47h-275q-35 0 -48 20t1 52l604 1327q21 47 72 47h285q50 0 71 -47l604 -1327q14 -32 1 -52t-48 -20zM864 1073l-229 -553h459z" />
    <glyph glyph-name="B" unicode="B" horiz-adv-x="1579" 
d="M1004 0h-814q-61 0 -61 61v1323q0 62 61 62h799q250 0 366.5 -101.5t121.5 -308.5v-20q0 -202 -121 -291q131 -94 131 -305v-19q0 -203 -116 -302t-367 -99zM492 1098v-238h473q135 0 135 101v36q0 101 -135 101h-473zM492 582v-238h487q135 0 135 100v37q0 101 -135 101
h-487z" />
    <glyph glyph-name="C" unicode="C" horiz-adv-x="1611" 
d="M1044 0h-456q-234 0 -360 133.5t-126 364.5v448q0 233 126 366.5t360 133.5h456q234 0 360 -133.5t126 -366.5q0 -57 -62 -57h-241q-62 0 -62 35v34q0 85 -26 112.5t-95 27.5h-456q-69 0 -95 -27.5t-26 -112.5v-473q0 -81 28 -109t93 -28h456q65 0 93 28t28 109v31
q0 62 62 62h241q62 0 62 -39v-41q0 -231 -126 -364.5t-360 -133.5z" />
    <glyph glyph-name="D" unicode="D" horiz-adv-x="1650" 
d="M1065 0h-875q-61 0 -61 61v1323q0 62 61 62h875q483 0 483 -543v-368q0 -535 -483 -535zM494 1098v-754h526q87 0 127.5 41t40.5 154v362q0 116 -38.5 156.5t-129.5 40.5h-526z" />
    <glyph glyph-name="E" unicode="E" horiz-adv-x="1427" 
d="M1290 0h-1100q-61 0 -61 61v1323q0 62 61 62h1100q62 0 62 -62v-225q0 -61 -62 -61h-798v-213h485q61 0 61 -62v-192q0 -62 -61 -62h-485v-221h798q62 0 62 -61v-226q0 -61 -62 -61z" />
    <glyph glyph-name="F" unicode="F" horiz-adv-x="1359" 
d="M430 0h-240q-61 0 -61 61v1323q0 62 61 62h1067q62 0 62 -62v-225q0 -61 -62 -61h-765v-213h460q62 0 62 -62v-192q0 -62 -62 -62h-460v-508q0 -61 -62 -61z" />
    <glyph glyph-name="G" unicode="G" horiz-adv-x="1636" 
d="M1049 0h-478q-234 0 -359.5 133.5t-125.5 364.5v448q0 233 125.5 366.5t359.5 133.5h478q218 0 341.5 -111.5t141.5 -312.5q3 -64 -62 -64h-241q-55 0 -64 62q-10 46 -35 62t-81 16h-478q-69 0 -94.5 -27.5t-25.5 -112.5v-473q0 -81 27.5 -109t92.5 -28h478q65 0 92.5 28
t27.5 109v47h-262q-61 0 -61 62v190q0 62 61 62h566q61 0 61 -62v-286q0 -231 -125.5 -364.5t-359.5 -133.5z" />
    <glyph glyph-name="H" unicode="H" horiz-adv-x="1622" 
d="M432 0h-242q-61 0 -61 61v1323q0 62 61 62h242q62 0 62 -62v-510h634v510q0 62 62 62h242q61 0 61 -62v-1323q0 -61 -61 -61h-242q-62 0 -62 61v498h-634v-498q0 -61 -62 -61z" />
    <glyph glyph-name="I" unicode="I" horiz-adv-x="620" 
d="M430 0h-240q-61 0 -61 61v1323q0 62 61 62h240q62 0 62 -62v-1323q0 -61 -62 -61z" />
    <glyph glyph-name="J" unicode="J" horiz-adv-x="1591" 
d="M1004 0h-416q-234 0 -360 133.5t-126 364.5v172q0 61 62 61h242q61 0 61 -61v-185q0 -81 28 -109t93 -28h416q65 0 92.5 28t27.5 109v899q0 62 62 62h241q62 0 62 -62v-886q0 -231 -125.5 -364.5t-359.5 -133.5z" />
    <glyph glyph-name="K" unicode="K" horiz-adv-x="1583" 
d="M432 0h-242q-61 0 -61 61v1323q0 62 61 62h242q62 0 62 -62v-510h213l389 535q24 37 75 37h293q38 0 49 -22.5t-12 -53.5l-491 -645l491 -649q23 -31 12 -53.5t-49 -22.5h-293q-51 0 -75 37l-389 522h-213v-498q0 -61 -62 -61z" />
    <glyph glyph-name="L" unicode="L" horiz-adv-x="1327" 
d="M1241 0h-1051q-61 0 -61 61v1323q0 62 61 62h242q62 0 62 -62v-1036h747q62 0 62 -61v-226q0 -61 -62 -61z" />
    <glyph glyph-name="M" unicode="M" horiz-adv-x="1996" 
d="M430 0h-240q-61 0 -61 61v1323q0 62 61 62h293q53 0 74 -41l442 -743l441 743q21 41 73 41h293q62 0 62 -62v-1323q0 -61 -62 -61h-239q-62 0 -62 61v809l-362 -600q-21 -41 -74 -41h-143q-53 0 -74 41l-360 594v-803q0 -61 -62 -61z" />
    <glyph glyph-name="N" unicode="N" horiz-adv-x="1660" 
d="M432 0h-242q-61 0 -61 61v1323q0 62 61 62h236q46 0 76 -37l665 -850v825q0 62 62 62h241q62 0 62 -62v-1323q0 -61 -62 -61h-235q-46 0 -76 37l-665 846v-822q0 -61 -62 -61z" />
    <glyph glyph-name="O" unicode="O" horiz-adv-x="1714" 
d="M1126 0h-538q-234 0 -360 133.5t-126 364.5v448q0 233 126 366.5t360 133.5h538q234 0 360 -133.5t126 -366.5v-448q0 -231 -126 -364.5t-360 -133.5zM588 348h538q65 0 93 28t28 109v473q0 85 -26 112.5t-95 27.5h-538q-69 0 -95 -27.5t-26 -112.5v-473q0 -81 28 -109
t93 -28z" />
    <glyph glyph-name="P" unicode="P" horiz-adv-x="1581" 
d="M432 0h-242q-61 0 -61 61v1323q0 62 61 62h746q292 0 427.5 -134.5t135.5 -408.5v-59q0 -273 -135 -404t-428 -131h-442v-248q0 -61 -62 -61zM494 1098v-445h409q129 0 180.5 39t51.5 156v53q0 119 -51 158t-181 39h-409z" />
    <glyph glyph-name="Q" unicode="Q" horiz-adv-x="1714" 
d="M588 1446h538q234 0 360 -133.5t126 -366.5v-448q0 -199 -94.5 -327.5t-272.5 -160.5l139 -200q20 -32 9.5 -53t-47.5 -21h-277q-53 0 -74 41l-133 223h-274q-234 0 -360 133.5t-126 364.5v448q0 233 126 366.5t360 133.5zM1247 485v473q0 85 -26 112.5t-95 27.5h-538
q-69 0 -95 -27.5t-26 -112.5v-473q0 -81 28 -109t93 -28h538q65 0 93 28t28 109z" />
    <glyph glyph-name="R" unicode="R" horiz-adv-x="1601" 
d="M1520 903v-39q0 -385 -271 -493l207 -297q20 -32 9 -53t-48 -21h-276q-53 0 -74 41l-180 289h-393v-269q0 -61 -62 -61h-242q-61 0 -61 61v1323q0 62 61 62h744q586 0 586 -543zM903 1098h-409v-424h409q138 0 194 39t56 155v33q0 117 -55.5 157t-194.5 40z" />
    <glyph glyph-name="S" unicode="S" horiz-adv-x="1570" 
d="M997 0h-415q-450 0 -484 424q-3 63 62 63h243q49 0 64 -59q21 -80 115 -80h411q70 0 99.5 21.5t29.5 76.5t-26 78.5t-90 28.5l-463 35q-235 19 -336 114t-101 299q0 445 486 445h385q449 0 483 -424q3 -64 -61 -64h-244q-48 0 -63 60q-21 80 -115 80h-381
q-70 0 -99.5 -22t-29.5 -77q0 -54 26.5 -76.5t90.5 -27.5l463 -35q232 -17 334 -115t102 -301q0 -444 -486 -444z" />
    <glyph glyph-name="T" unicode="T" horiz-adv-x="1341" 
d="M793 0h-244q-62 0 -62 61v1035h-391q-61 0 -61 61v227q0 62 61 62h1149q62 0 62 -62v-227q0 -61 -62 -61h-391v-1035q0 -61 -61 -61z" />
    <glyph glyph-name="U" unicode="U" horiz-adv-x="1722" 
d="M1100 0h-477q-234 0 -360 133.5t-126 364.5v886q0 62 62 62h241q62 0 62 -62v-899q0 -81 28 -109t93 -28h477q65 0 93 28t28 109v899q0 62 61 62h242q61 0 61 -62v-886q0 -231 -125.5 -364.5t-359.5 -133.5z" />
    <glyph glyph-name="V" unicode="V" horiz-adv-x="1648" 
d="M1004 0h-334q-54 0 -72 47l-555 1327q-14 32 -1 52t48 20h260q54 0 72 -47l416 -1022l415 1022q18 47 70 47h260q35 0 48 -20t-1 -52l-555 -1327q-18 -47 -71 -47z" />
    <glyph glyph-name="W" unicode="W" horiz-adv-x="2138" 
d="M780 0h-264q-55 0 -70 51l-434 1325q-10 31 4.5 50.5t46.5 19.5h259q52 0 67 -51l258 -920l236 918q12 53 69 53h254q58 0 70 -53l235 -918l258 920q15 51 68 51h258q32 0 46.5 -19.5t4.5 -50.5l-434 -1325q-15 -51 -70 -51h-264q-57 0 -69 53l-230 885l-229 -885
q-12 -53 -70 -53z" />
    <glyph glyph-name="X" unicode="X" horiz-adv-x="1507" 
d="M983 748l500 -672q23 -32 11.5 -54t-50.5 -22h-311q-51 0 -74 39l-295 430l-295 -430q-23 -39 -74 -39h-311q-39 0 -50.5 22t11.5 54l500 672l-465 622q-23 32 -11.5 54t50.5 22h313q51 0 74 -39l258 -379l258 379q23 39 74 39h313q39 0 50.5 -22t-11.5 -54z" />
    <glyph glyph-name="Y" unicode="Y" horiz-adv-x="1544" 
d="M905 0h-241q-62 0 -62 61v340l-586 971q-19 32 -7.5 53t48.5 21h281q53 0 74 -43l372 -660l377 660q21 43 74 43h276q37 0 48.5 -21t-7.5 -53l-585 -971v-340q0 -61 -62 -61z" />
    <glyph glyph-name="Z" unicode="Z" horiz-adv-x="1447" 
d="M1325 0h-1202q-62 0 -62 61v232q0 43 33 76l774 727h-745q-62 0 -62 61v227q0 62 62 62h1196q61 0 61 -62v-237q0 -44 -32 -76l-775 -723h752q61 0 61 -61v-226q0 -61 -61 -61z" />
    <glyph glyph-name="bracketleft" unicode="[" horiz-adv-x="708" 
d="M582 -104h-392q-61 0 -61 61v1536q0 61 61 61h392q61 0 61 -61v-184q0 -62 -61 -62h-109v-1044h109q61 0 61 -62v-184q0 -61 -61 -61z" />
    <glyph glyph-name="backslash" unicode="\" horiz-adv-x="796" 
d="M711 0h-224q-57 0 -69 53l-350 1325q-15 68 53 68h223q58 0 70 -53l350 -1325q15 -68 -53 -68z" />
    <glyph glyph-name="bracketright" unicode="]" horiz-adv-x="708" 
d="M520 -104h-393q-61 0 -61 61v184q0 62 61 62h109v1044h-109q-61 0 -61 62v184q0 61 61 61h393q62 0 62 -61v-1536q0 -61 -62 -61z" />
    <glyph glyph-name="asciicircum" unicode="^" horiz-adv-x="1021" 
d="M352 719h-198q-35 0 -48.5 20t-1.5 52l234 606q15 49 70 49h231q55 0 70 -49l233 -606q12 -33 -1 -52.5t-48 -19.5h-201q-56 0 -71 49l-101 285l-98 -285q-18 -49 -70 -49z" />
    <glyph glyph-name="underscore" unicode="_" horiz-adv-x="1075" 
d="M948 -383h-821q-61 0 -61 61v146q0 61 61 61h821q62 0 62 -61v-146q0 -61 -62 -61z" />
    <glyph glyph-name="grave" unicode="`" horiz-adv-x="1142" 
d="M653 1186h-159q-51 0 -74 39l-103 147q-20 31 -9 52.5t48 21.5h228q51 0 69 -49l49 -142q21 -69 -49 -69z" />
    <glyph glyph-name="a" unicode="a" horiz-adv-x="1296" 
d="M578 0h-86q-217 0 -324 80.5t-107 251.5q0 182 78 254q76 73 289 94l358 35q66 6 66 63q0 53 -78 53h-559q-61 0 -61 62v197q0 61 61 61h567q219 0 315.5 -80t96.5 -258v-752q0 -61 -61 -61h-222q-61 0 -61 59v60q-79 -119 -272 -119zM489 307h273q49 0 68.5 18.5
t19.5 71.5v82l-363 -33q-77 -6 -77 -77q0 -62 79 -62z" />
    <glyph glyph-name="b" unicode="b" horiz-adv-x="1396" 
d="M733 1151h148q222 0 323 -113.5t101 -341.5v-247q0 -223 -101 -336t-323 -113h-148q-193 0 -272 119v-58q0 -61 -62 -61h-221q-61 0 -61 61v1432q0 61 61 61h221q62 0 62 -61v-461q79 119 272 119zM961 416v319q0 54 -20.5 75t-68.5 21h-323q-48 0 -68 -21t-20 -75v-319
q0 -55 19 -76t69 -21h323q50 0 69.5 21t19.5 76z" />
    <glyph glyph-name="c" unicode="c" horiz-adv-x="1341" 
d="M856 0h-340q-222 0 -323 113.5t-101 341.5v247q0 223 101 336t323 113h340q204 0 307 -97t115 -298q3 -64 -59 -64h-222q-57 0 -63 64q-4 44 -22.5 59.5t-63.5 15.5h-324q-50 0 -69 -20.5t-19 -75.5v-319q0 -55 20 -76t68 -21h324q46 0 63.5 17.5t22.5 62.5q6 64 63 64
h222q62 0 59 -64q-12 -208 -115 -303.5t-307 -95.5z" />
    <glyph glyph-name="d" unicode="d" horiz-adv-x="1396" 
d="M936 1032v461q0 61 61 61h222q61 0 61 -61v-1432q0 -61 -61 -61h-222q-61 0 -61 59v60q-79 -119 -272 -119h-148q-222 0 -323 113t-101 336v247q0 228 101 341.5t323 113.5h148q193 0 272 -119zM524 319h324q50 0 69 21t19 76v319q0 54 -20 75t-68 21h-324q-48 0 -68 -21
t-20 -75v-319q0 -55 19 -76t69 -21z" />
    <glyph glyph-name="e" unicode="e" horiz-adv-x="1300" 
d="M1075 0h-559q-222 0 -323 113.5t-101 341.5v247q0 223 101 336t323 113h289q222 0 323 -113t101 -336v-182q0 -61 -62 -61h-731v-43q0 -55 20 -76t68 -21h551q62 0 62 -61v-197q0 -61 -62 -61zM436 735v-41h449v41q0 54 -20 75t-68 21h-273q-50 0 -69 -20.5t-19 -75.5z
" />
    <glyph glyph-name="f" unicode="f" horiz-adv-x="851" 
d="M436 0h-221q-61 0 -61 61v783h-48q-61 0 -61 61v185q0 61 53 61h54q0 217 97.5 310t334.5 93h166q61 0 61 -61v-176q0 -62 -61 -62h-166q-53 0 -69.5 -20.5t-16.5 -83.5h252q61 0 61 -61v-185q0 -61 -61 -61h-252v-783q0 -61 -62 -61z" />
    <glyph glyph-name="g" unicode="g" horiz-adv-x="1396" 
d="M848 -403h-496q-61 0 -61 61v197q0 61 61 61h496q48 0 68 21t20 75v207q-79 -119 -272 -119h-148q-222 0 -323 113.5t-101 341.5v147q0 223 101 336t323 113h148q193 0 272 -119v58q0 61 61 61h222q61 0 61 -61v-1039q0 -226 -104 -340t-328 -114zM524 420h324
q48 0 68 21t20 75v219q0 55 -19 75.5t-69 20.5h-324q-50 0 -69 -20.5t-19 -75.5v-219q0 -54 20 -75t68 -21z" />
    <glyph glyph-name="h" unicode="h" 
d="M733 1151h107q222 0 323 -113.5t101 -341.5v-635q0 -61 -62 -61h-221q-61 0 -61 61v674q0 54 -20.5 75t-68.5 21h-282q-48 0 -68 -21t-20 -75v-674q0 -61 -62 -61h-221q-61 0 -61 61v1432q0 61 61 61h221q62 0 62 -61v-463q80 121 272 121z" />
    <glyph glyph-name="i" unicode="i" horiz-adv-x="577" 
d="M399 1268h-221q-61 0 -61 61v164q0 61 61 61h221q62 0 62 -61v-164q0 -61 -62 -61zM399 0h-221q-61 0 -61 61v1029q0 61 61 61h221q62 0 62 -61v-1029q0 -61 -62 -61z" />
    <glyph glyph-name="j" unicode="j" horiz-adv-x="577" 
d="M399 1268h-221q-61 0 -61 61v164q0 61 61 61h221q62 0 62 -61v-164q0 -61 -62 -61zM399 -403h-221q-61 0 -61 61v1432q0 61 61 61h221q62 0 62 -61v-1432q0 -61 -62 -61z" />
    <glyph glyph-name="k" unicode="k" horiz-adv-x="1304" 
d="M393 0h-223q-61 0 -61 61v1432q0 61 61 61h223q62 0 62 -61v-780h153l269 399q23 39 73 39h262q39 0 50.5 -21.5t-11.5 -52.5l-352 -499l352 -504q20 -31 9 -52.5t-48 -21.5h-262q-50 0 -73 39l-269 391h-153v-369q0 -61 -62 -61z" />
    <glyph glyph-name="l" unicode="l" horiz-adv-x="577" 
d="M399 0h-221q-61 0 -61 61v1432q0 61 61 61h221q62 0 62 -61v-1432q0 -61 -62 -61z" />
    <glyph glyph-name="m" unicode="m" horiz-adv-x="2004" 
d="M1438 1151h55q410 0 410 -455v-635q0 -61 -62 -61h-221q-61 0 -61 61v674q0 54 -20.5 75t-68.5 21h-200q-48 0 -68 -21t-20 -75v-674q0 -61 -62 -61h-221q-61 0 -61 61v674q0 54 -20 75t-68 21h-201q-48 0 -68 -21t-20 -75v-674q0 -61 -62 -61h-221q-61 0 -61 61v1029
q0 61 61 61h221q62 0 62 -59v-62q80 121 272 121h64q222 0 317 -127q115 127 324 127z" />
    <glyph glyph-name="n" unicode="n" 
d="M733 1151h107q222 0 323 -113.5t101 -341.5v-635q0 -61 -62 -61h-221q-61 0 -61 61v674q0 54 -20.5 75t-68.5 21h-282q-48 0 -68 -21t-20 -75v-674q0 -61 -62 -61h-221q-61 0 -61 61v1029q0 61 61 61h221q62 0 62 -59v-62q80 121 272 121z" />
    <glyph glyph-name="o" unicode="o" horiz-adv-x="1372" 
d="M856 0h-340q-222 0 -323 113.5t-101 341.5v247q0 223 101 336t323 113h340q222 0 323 -113t101 -336v-247q0 -228 -101 -341.5t-323 -113.5zM524 319h324q48 0 68 21t20 76v319q0 55 -19 75.5t-69 20.5h-324q-50 0 -69 -20.5t-19 -75.5v-319q0 -55 20 -76t68 -21z" />
    <glyph glyph-name="p" unicode="p" horiz-adv-x="1396" 
d="M733 1151h148q222 0 323 -113t101 -336v-247q0 -228 -101 -341.5t-323 -113.5h-148q-193 0 -272 119v-461q0 -61 -62 -61h-221q-61 0 -61 61v1432q0 61 61 61h221q62 0 62 -59v-60q79 119 272 119zM961 416v319q0 55 -19.5 75.5t-69.5 20.5h-323q-50 0 -69 -20.5
t-19 -75.5v-319q0 -55 20 -76t68 -21h323q48 0 68.5 21.5t20.5 75.5z" />
    <glyph glyph-name="q" unicode="q" horiz-adv-x="1396" 
d="M936 1032v60q0 59 61 59h222q61 0 61 -61v-1432q0 -61 -61 -61h-222q-61 0 -61 61v461q-79 -119 -272 -119h-148q-222 0 -323 113.5t-101 341.5v247q0 223 101 336t323 113h148q193 0 272 -119zM524 319h324q48 0 68 21t20 76v319q0 55 -19 75.5t-69 20.5h-324
q-50 0 -69 -20.5t-19 -75.5v-319q0 -55 20 -76t68 -21z" />
    <glyph glyph-name="r" unicode="r" horiz-adv-x="940" 
d="M733 1151h125q62 0 62 -61v-197q0 -62 -62 -62h-309q-48 0 -68 -21t-20 -75v-674q0 -61 -62 -61h-221q-61 0 -61 61v1029q0 61 61 61h221q62 0 62 -59v-62q80 121 272 121z" />
    <glyph glyph-name="s" unicode="s" horiz-adv-x="1198" 
d="M707 0h-539q-62 0 -62 61v197q0 61 62 61h541q79 0 79 54q0 29 -16.5 40.5t-60.5 16.5l-289 35q-185 21 -264 100q-76 79 -76 248q0 172 102 255t310 83h530q61 0 61 -61v-197q0 -62 -61 -62h-522q-78 0 -78 -55q0 -51 65 -57l281 -35q202 -25 284.5 -105.5t82.5 -246.5
q0 -177 -102.5 -254.5t-327.5 -77.5z" />
    <glyph glyph-name="t" unicode="t" horiz-adv-x="985" 
d="M862 0h-254q-266 0 -360 102q-94 101 -94 332v410h-48q-61 0 -61 61v185q0 61 61 61q94 3 121 43q28 42 31 186q0 66 61 66h117q62 0 62 -62v-233h364q62 0 62 -61v-185q0 -61 -62 -61h-364v-449q0 -49 23.5 -67.5t86.5 -18.5h254q62 0 62 -61v-187q0 -61 -62 -61z" />
    <glyph glyph-name="u" unicode="u" 
d="M905 416v674q0 61 62 61h221q61 0 61 -61v-1029q0 -61 -61 -61h-221q-62 0 -62 61v60q-80 -121 -272 -121h-107q-222 0 -323 113.5t-101 341.5v635q0 61 62 61h221q61 0 61 -61v-674q0 -54 20.5 -75.5t68.5 -21.5h282q48 0 68 21t20 76z" />
    <glyph glyph-name="v" unicode="v" horiz-adv-x="1374" 
d="M844 0h-293q-51 0 -72 47l-436 1032q-14 32 -1 52t48 20h246q55 0 70 -49l292 -762l291 762q15 49 70 49h250q35 0 48 -20t-1 -52l-441 -1032q-21 -47 -71 -47z" />
    <glyph glyph-name="w" unicode="w" horiz-adv-x="2041" 
d="M770 0h-289q-54 0 -69 49l-363 1032q-21 70 49 70h250q53 0 68 -51l215 -738l213 738q15 51 67 51h265q52 0 67 -51l211 -738l213 738q15 51 68 51h254q35 0 48.5 -18.5t2.5 -51.5l-367 -1032q-15 -49 -71 -49h-289q-53 0 -68 51l-203 703l-204 -703q-15 -51 -68 -51z
" />
    <glyph glyph-name="x" unicode="x" horiz-adv-x="1329" 
d="M887 594l413 -518q25 -31 13.5 -53.5t-49.5 -22.5h-295q-48 0 -74 39l-219 309l-221 -309q-26 -39 -74 -39h-295q-39 0 -50 22.5t13 53.5l416 518l-385 481q-24 31 -13 53.5t50 22.5h295q50 0 73 -39l191 -272l188 272q23 39 74 39h295q39 0 50 -22.5t-13 -53.5z" />
    <glyph glyph-name="y" unicode="y" horiz-adv-x="1396" 
d="M848 -403h-488q-61 0 -61 61v197q0 61 61 61h488q48 0 68 21t20 75v207q-79 -119 -272 -119h-148q-222 0 -323 113.5t-101 341.5v535q0 61 62 61h221q61 0 61 -61v-574q0 -54 20 -75t68 -21h324q48 0 68 21t20 75v574q0 61 61 61h222q61 0 61 -61v-1039q0 -226 -104 -340
t-328 -114z" />
    <glyph glyph-name="z" unicode="z" horiz-adv-x="1175" 
d="M1053 0h-930q-62 0 -62 61v201q0 47 33 76l559 506h-530q-62 0 -62 61v185q0 61 62 61h930q61 0 61 -61v-201q0 -47 -33 -76l-563 -506h535q61 0 61 -61v-185q0 -61 -61 -61z" />
    <glyph glyph-name="braceleft" unicode="{" horiz-adv-x="712" 
d="M647 139v-186q0 -62 -63 -59q-220 12 -315 121.5t-95 344.5v132q0 74 -68 83q-61 9 -61 64v168q0 54 61 63q68 9 68 84v131q0 235 95 345t315 122q63 3 63 -59v-186q0 -55 -61 -64q-66 -15 -66 -84v-131q0 -162 -39 -221q-37 -61 -125 -88q59 -18 90 -43q74 -56 74 -258
v-131q0 -69 66 -84q61 -9 61 -64z" />
    <glyph glyph-name="bar" unicode="|" horiz-adv-x="565" 
d="M395 -104h-225q-61 0 -61 61v1536q0 61 61 61h225q62 0 62 -61v-1536q0 -61 -62 -61z" />
    <glyph glyph-name="braceright" unicode="}" horiz-adv-x="712" 
d="M129 -106q-63 -3 -63 59v186q0 55 61 64q68 15 68 84v131q0 159 36 215q38 59 127 86q-86 26 -127 88q-36 59 -36 221v131q0 69 -68 84q-61 9 -61 64v186q0 62 63 59q221 -12 316.5 -122t95.5 -345v-131q0 -72 65 -84q62 -9 62 -63v-168q0 -55 -62 -64q-65 -12 -65 -83
v-132q0 -235 -95.5 -344.5t-316.5 -121.5z" />
    <glyph glyph-name="uni00A0" unicode="&#xa0;" horiz-adv-x="1034" 
 />
    <glyph glyph-name="exclamdown" unicode="&#xa1;" horiz-adv-x="667" 
d="M455 1075h-240q-61 0 -61 62v247q0 62 61 62h240q61 0 61 -62v-247q0 -62 -61 -62zM477 0h-287q-61 0 -61 61v172q0 31 6 74l105 598q9 56 67 56h55q59 0 68 -56l102 -590q7 -51 7 -73v-181q0 -61 -62 -61z" />
    <glyph glyph-name="cent" unicode="&#xa2;" horiz-adv-x="1341" 
d="M524 319h324q46 0 63.5 17.5t22.5 62.5q6 64 63 64h222q62 0 59 -64q-12 -206 -113 -301.5t-303 -97.5v-84q0 -61 -61 -61h-228q-61 0 -61 61v84q-221 1 -320.5 114.5t-99.5 340.5v247q0 222 100 335t320 114v86q0 61 61 61h228q61 0 61 -61v-86q202 -1 303 -97.5
t113 -297.5q3 -64 -59 -64h-222q-57 0 -63 64q-4 44 -22.5 59.5t-63.5 15.5h-324q-50 0 -69 -20.5t-19 -75.5v-319q0 -55 20 -76t68 -21z" />
    <glyph glyph-name="sterling" unicode="&#xa3;" horiz-adv-x="1525" 
d="M1464 946v-49q0 -49 -61 -49h-242q-61 0 -61 55v55q0 85 -26 112.5t-95 27.5h-303q-76 0 -106.5 -21.5t-30.5 -77.5q0 -50 34 -114h283q62 0 62 -62v-192q0 -62 -62 -62h-102l125 -221h524q61 0 61 -61v-226q0 -61 -61 -61h-1280q-62 0 -62 61v226q0 61 62 61h360
l-108 193l-17 28h-235q-62 0 -62 62v192q0 62 62 62h80q-25 86 -25 182q0 176 111.5 277.5t333.5 101.5h356q255 0 370 -127t115 -373z" />
    <glyph glyph-name="yen" unicode="&#xa5;" horiz-adv-x="1544" 
d="M1235 1446h276q37 0 48.5 -21t-7.5 -53l-266 -442h139q62 0 62 -62v-192q0 -62 -62 -62h-329l-129 -213v-340q0 -61 -62 -61h-241q-62 0 -62 61v340l-129 213h-336q-61 0 -61 62v192q0 62 61 62h146l-267 442q-19 32 -7.5 53t48.5 21h281q53 0 74 -43l372 -660l377 660
q21 43 74 43z" />
    <glyph glyph-name="brokenbar" unicode="&#xa6;" horiz-adv-x="565" 
d="M395 842h-225q-61 0 -61 61v590q0 61 61 61h225q62 0 62 -61v-590q0 -61 -62 -61zM395 -104h-225q-61 0 -61 61v600q0 61 61 61h225q62 0 62 -61v-600q0 -61 -62 -61z" />
    <glyph glyph-name="dieresis" unicode="&#xa8;" horiz-adv-x="1142" 
d="M444 1182h-170q-61 0 -61 61v141q0 62 61 62h170q62 0 62 -62v-141q0 -61 -62 -61zM870 1182h-170q-61 0 -61 61v141q0 62 61 62h170q62 0 62 -62v-141q0 -61 -62 -61z" />
    <glyph glyph-name="copyright" unicode="&#xa9;" horiz-adv-x="1714" 
d="M1126 0h-538q-272 0 -381 127q-105 129 -105 371v448q0 245 105 371q108 129 381 129h538q274 0 379 -129q107 -125 107 -371v-448q0 -243 -107 -371q-106 -127 -379 -127zM541 223h635q204 0 204 228v546q0 224 -204 224h-635q-203 0 -203 -224v-546q0 -228 203 -228z
M979 311h-242q-156 0 -227.5 81t-71.5 243v172q0 317 299 317h242q145 0 215.5 -66t81.5 -208q3 -64 -62 -64h-116q-58 0 -64 64q-1 29 -14.5 39t-46.5 10h-230q-35 0 -49 -16t-14 -54v-223q0 -37 15 -52t48 -15h230q55 0 61 49q6 61 62 61h118q65 0 62 -63
q-12 -143 -83.5 -209t-213.5 -66z" />
    <glyph glyph-name="ordfeminine" unicode="&#xaa;" horiz-adv-x="1214" 
d="M516 373h-24q-217 0 -324 75t-107 234q0 172 76 236q79 67 291 88l277 32q65 9 65 60q0 49 -78 49h-477q-61 0 -61 61v176q0 62 61 62h485q218 0 315 -75.5t97 -240.5v-696q0 -61 -61 -61h-222q-61 0 -61 55v55q-42 -58 -99.5 -84t-152.5 -26zM489 659h191q49 0 68.5 18
t19.5 66v76l-281 -31q-77 -9 -77 -71q0 -58 79 -58z" />
    <glyph glyph-name="guillemotleft" unicode="&#xab;" horiz-adv-x="1191" 
d="M545 170h-176q-50 0 -74 43l-184 330q-21 43 0 86l184 329q21 43 74 43h176q35 0 48 -19.5t1 -51.5l-133 -344l133 -344q12 -33 -1 -52.5t-48 -19.5zM1071 170h-176q-50 0 -74 43l-182 330q-21 43 0 86l182 329q24 43 74 43h176q35 0 48 -19.5t1 -51.5l-131 -344
l131 -344q12 -33 -1 -52.5t-48 -19.5z" />
    <glyph glyph-name="registered" unicode="&#xae;" horiz-adv-x="1714" 
d="M588 1446h538q274 0 379 -129q107 -125 107 -371v-448q0 -243 -107 -371q-106 -127 -379 -127h-538q-272 0 -381 127q-105 129 -105 371v448q0 245 105 371q108 129 381 129zM1380 451v546q0 224 -204 224h-635q-203 0 -203 -224v-546q0 -228 203 -228h635q204 0 204 228
zM500 1124h407q202 0 293.5 -69.5t91.5 -223.5v-32q0 -199 -153 -258l102 -154q20 -31 8 -52.5t-49 -21.5h-133q-53 0 -74 41l-94 158h-221v-137q0 -62 -62 -62h-116q-62 0 -62 62v688q0 61 62 61zM973 895h-295v-156h295q78 0 78 64v28q0 64 -78 64z" />
    <glyph glyph-name="overscore" unicode="&#xaf;" horiz-adv-x="1142" 
d="M805 1194h-469q-62 0 -62 61v117q0 62 62 62h469q61 0 61 -62v-117q0 -61 -61 -61z" />
    <glyph glyph-name="degree" unicode="&#xb0;" horiz-adv-x="837" 
d="M436 819h-33q-168 0 -244.5 76.5t-76.5 232.5v27q0 152 76.5 228.5t244.5 76.5h33q168 0 244 -76.5t76 -228.5v-27q0 -156 -76 -232.5t-244 -76.5zM403 1065h33q68 0 68 68v12q0 37 -16 52t-52 15h-33q-37 0 -52 -14.5t-15 -52.5v-12q0 -68 67 -68z" />
    <glyph glyph-name="acute" unicode="&#xb4;" horiz-adv-x="1142" 
d="M668 1186h-160q-32 0 -45.5 19t-3.5 50l47 140q15 51 69 51h228q37 0 48 -21t-9 -53l-101 -147q-23 -39 -73 -39z" />
    <glyph glyph-name="paragraph" unicode="&#xb6;" horiz-adv-x="860" 
d="M692 -109h-203q-61 0 -61 62v760h-147q-195 0 -195 250v241q0 129 49.5 185.5t145.5 56.5h411q62 0 62 -62v-1431q0 -62 -62 -62z" />
    <glyph glyph-name="middot" unicode="&#xb7;" horiz-adv-x="620" 
d="M430 410h-240q-61 0 -61 61v248q0 61 61 61h240q62 0 62 -61v-248q0 -61 -62 -61z" />
    <glyph glyph-name="cedilla" unicode="&#xb8;" horiz-adv-x="1142" 
d="M604 -373h-231q-35 0 -48 19.5t-1 52.5l122 303q18 47 70 47h172q32 0 46.5 -18t6.5 -49l-69 -301q-12 -54 -68 -54z" />
    <glyph glyph-name="ordmasculine" unicode="&#xba;" horiz-adv-x="1290" 
d="M774 377h-258q-222 0 -323 113t-101 341v166q0 223 101 336t323 113h258q222 0 323 -113t101 -336v-166q0 -228 -101 -341t-323 -113zM524 696h242q48 0 68 21t20 76v237q0 55 -19 75.5t-69 20.5h-242q-50 0 -69 -20.5t-19 -75.5v-237q0 -55 20 -76t68 -21z" />
    <glyph glyph-name="guillemotright" unicode="&#xbb;" horiz-adv-x="1191" 
d="M332 170h-178q-35 0 -48.5 20t-1.5 52l134 344l-134 344q-12 32 1.5 51.5t48.5 19.5h178q50 0 74 -43l182 -329q21 -43 0 -86l-182 -330q-24 -43 -74 -43zM858 170h-176q-35 0 -48 19.5t-1 52.5l133 344l-133 344q-12 32 1 51.5t48 19.5h176q50 0 74 -43l182 -329
q21 -43 0 -86l-182 -330q-24 -43 -74 -43z" />
    <glyph glyph-name="questiondown" unicode="&#xbf;" horiz-adv-x="1509" 
d="M926 1075h-240q-61 0 -61 62v247q0 62 61 62h240q61 0 61 -62v-247q0 -62 -61 -62zM963 0h-416q-486 0 -486 418q0 175 74 264q71 86 240 139l213 66q34 11 51 28q8 8 19 23.5t20 21t27 5.5h194q62 0 59 -64q-5 -119 -45.5 -173t-150.5 -85l-225 -63q-115 -35 -115 -134
q0 -56 29.5 -77t105.5 -21h406q69 0 94.5 27t25.5 112v50q0 61 62 61h241q62 0 62 -49v-49q0 -246 -115 -373t-370 -127z" />
    <glyph glyph-name="Agrave" unicode="&#xc0;" horiz-adv-x="1701" 
d="M918 1767l49 -141q11 -31 -3 -50.5t-46 -19.5h-160q-51 0 -74 39l-102 148q-20 31 -9 52.5t48 21.5h227q52 0 70 -50zM1634 0h-274q-54 0 -72 47l-74 178h-702l-74 -178q-18 -47 -71 -47h-275q-35 0 -48 20t1 52l604 1327q21 47 72 47h285q50 0 71 -47l604 -1327
q14 -32 1 -52t-48 -20zM864 1073l-229 -553h459z" />
    <glyph glyph-name="Aacute" unicode="&#xc1;" horiz-adv-x="1701" 
d="M862 1817h228q37 0 47.5 -21t-9.5 -53l-100 -148q-23 -39 -74 -39h-159q-32 0 -46 19.5t-4 50.5l48 139q15 52 69 52zM1634 0h-274q-54 0 -72 47l-74 178h-702l-74 -178q-18 -47 -71 -47h-275q-35 0 -48 20t1 52l604 1327q21 47 72 47h285q50 0 71 -47l604 -1327
q14 -32 1 -52t-48 -20zM864 1073l-229 -553h459z" />
    <glyph glyph-name="Acircumflex" unicode="&#xc2;" horiz-adv-x="1701" 
d="M907 1593l-53 78l-55 -78q-26 -39 -74 -39h-143q-37 0 -49 21.5t8 52.5l98 148q23 39 74 39h282q48 0 74 -39l96 -148q20 -32 9 -53t-48 -21h-145q-51 0 -74 39zM1634 0h-274q-54 0 -72 47l-74 178h-702l-74 -178q-18 -47 -71 -47h-275q-35 0 -48 20t1 52l604 1327
q21 47 72 47h285q50 0 71 -47l604 -1327q14 -32 1 -52t-48 -20zM864 1073l-229 -553h459z" />
    <glyph glyph-name="Atilde" unicode="&#xc3;" horiz-adv-x="1701" 
d="M915 1561l-67 18q-139 43 -260 2q-72 -28 -72 45v121q0 51 47 72q124 52 297 2q164 -47 273 -9q71 21 71 -45v-122q0 -53 -65 -80q-14 -6 -29 -9.5t-25.5 -5.5t-27.5 -3t-24 -1h-25.5h-22.5q-9 1 -36.5 7.5t-33.5 7.5zM1634 0h-274q-54 0 -72 47l-74 178h-702l-74 -178
q-18 -47 -71 -47h-275q-35 0 -48 20t1 52l604 1327q21 47 72 47h285q50 0 71 -47l604 -1327q14 -32 1 -52t-48 -20zM864 1073l-229 -553h459z" />
    <glyph glyph-name="Adieresis" unicode="&#xc4;" horiz-adv-x="1701" 
d="M557 1827h170q61 0 61 -62v-141q0 -61 -61 -61h-170q-61 0 -61 61v141q0 62 61 62zM983 1827h170q61 0 61 -62v-141q0 -61 -61 -61h-170q-61 0 -61 61v141q0 62 61 62zM1634 0h-274q-54 0 -72 47l-74 178h-702l-74 -178q-18 -47 -71 -47h-275q-35 0 -48 20t1 52l604 1327
q21 47 72 47h285q50 0 71 -47l604 -1327q14 -32 1 -52t-48 -20zM864 1073l-229 -553h459z" />
    <glyph glyph-name="Aring" unicode="&#xc5;" horiz-adv-x="1701" 
d="M877 1550h-23q-116 0 -169.5 54t-53.5 161v19q0 211 223 211h23q116 0 168.5 -53t52.5 -158v-19q0 -108 -52.5 -161.5t-168.5 -53.5zM807 1776v-9q0 -47 47 -47h23q47 0 47 47v9q0 28 -10.5 37.5t-36.5 9.5h-23q-27 0 -37 -9.5t-10 -37.5zM1634 0h-274q-54 0 -72 47
l-74 178h-702l-74 -178q-18 -47 -71 -47h-275q-35 0 -48 20t1 52l604 1327q21 47 72 47h285q50 0 71 -47l604 -1327q14 -32 1 -52t-48 -20zM864 1073l-229 -553h459z" />
    <glyph glyph-name="AE" unicode="&#xc6;" horiz-adv-x="2508" 
d="M324 0h-261q-38 0 -48.5 22.5t12.5 53.5l1007 1333q27 37 76 37h1272q61 0 61 -62v-227q0 -61 -61 -61h-799v-211h485q62 0 62 -62v-192q0 -62 -62 -62h-485v-221h799q61 0 61 -61v-226q0 -61 -61 -61h-1100q-61 0 -61 61v164h-678l-144 -188q-27 -37 -75 -37zM1221 1118
l-455 -598h455v598z" />
    <glyph glyph-name="Ccedilla" unicode="&#xc7;" horiz-adv-x="1611" 
d="M1530 946v-28q0 -29 -62 -29h-241q-62 0 -62 35v34q0 85 -26 112.5t-95 27.5h-456q-69 0 -95 -27.5t-26 -112.5v-473q0 -81 28 -109t93 -28h456q65 0 93 28t28 109v31q0 62 62 62h241q62 0 62 -39v-41q0 -231 -126 -364.5t-360 -133.5h-63l-74 -319q-12 -54 -67 -54h-234
q-32 0 -45.5 20t-1.5 52l121 301h-92q-234 0 -360 133.5t-126 364.5v448q0 233 126 366.5t360 133.5h456q234 0 360 -133.5t126 -366.5z" />
    <glyph glyph-name="Egrave" unicode="&#xc8;" horiz-adv-x="1427" 
d="M805 1554h-160q-51 0 -74 39l-102 148q-20 31 -9 52.5t48 21.5h227q52 0 70 -50l49 -141q21 -70 -49 -70zM1290 0h-1100q-61 0 -61 61v1323q0 62 61 62h1100q62 0 62 -62v-225q0 -61 -62 -61h-798v-213h485q61 0 61 -62v-192q0 -62 -61 -62h-485v-221h798q62 0 62 -61
v-226q0 -61 -62 -61z" />
    <glyph glyph-name="Eacute" unicode="&#xc9;" horiz-adv-x="1427" 
d="M834 1552h-160q-32 0 -46 19.5t-3 50.5l47 139q15 51 69 51h228q37 0 48 -20.5t-9 -52.5l-101 -148q-23 -39 -73 -39zM1290 0h-1100q-61 0 -61 61v1323q0 62 61 62h1100q62 0 62 -62v-225q0 -61 -62 -61h-798v-213h485q61 0 61 -62v-192q0 -62 -61 -62h-485v-221h798
q62 0 62 -61v-226q0 -61 -62 -61z" />
    <glyph glyph-name="Ecircumflex" unicode="&#xca;" horiz-adv-x="1427" 
d="M426 1626l98 148q23 38 74 38h283q48 0 73 -38l97 -148q20 -32 9 -53t-48 -21h-146q-50 0 -73 39l-54 78l-55 -78q-26 -39 -74 -39h-143q-37 0 -49 21.5t8 52.5zM1290 0h-1100q-61 0 -61 61v1323q0 62 61 62h1100q62 0 62 -62v-225q0 -61 -62 -61h-798v-213h485
q61 0 61 -62v-192q0 -62 -61 -62h-485v-221h798q62 0 62 -61v-226q0 -61 -62 -61z" />
    <glyph glyph-name="Edieresis" unicode="&#xcb;" horiz-adv-x="1427" 
d="M612 1561h-170q-61 0 -61 61v141q0 62 61 62h170q62 0 62 -62v-141q0 -61 -62 -61zM1038 1561h-170q-61 0 -61 61v141q0 62 61 62h170q62 0 62 -62v-141q0 -61 -62 -61zM1290 0h-1100q-61 0 -61 61v1323q0 62 61 62h1100q62 0 62 -62v-225q0 -61 -62 -61h-798v-213h485
q61 0 61 -62v-192q0 -62 -61 -62h-485v-221h798q62 0 62 -61v-226q0 -61 -62 -61z" />
    <glyph glyph-name="Igrave" unicode="&#xcc;" horiz-adv-x="620" 
d="M375 1554h-160q-51 0 -74 39l-102 148q-20 31 -9 52.5t48 21.5h227q52 0 70 -50l49 -141q21 -70 -49 -70zM440 0h-239q-62 0 -62 61v1323q0 62 62 62h239q62 0 62 -62v-1323q0 -61 -62 -61z" />
    <glyph glyph-name="Iacute" unicode="&#xcd;" horiz-adv-x="612" 
d="M408 1554h-160q-32 0 -46 19.5t-3 50.5l47 139q15 52 69 52h228q37 0 48 -21t-9 -53l-101 -148q-23 -39 -73 -39zM430 0h-240q-61 0 -61 61v1323q0 62 61 62h240q62 0 62 -62v-1323q0 -61 -62 -61z" />
    <glyph glyph-name="Icircumflex" unicode="&#xce;" horiz-adv-x="608" 
d="M4 1626l98 148q23 38 74 38h283q48 0 73 -38l97 -148q20 -32 9 -53t-48 -21h-146q-50 0 -73 39l-54 78l-55 -78q-26 -39 -74 -39h-143q-37 0 -49 21.5t8 52.5zM442 0h-239q-62 0 -62 61v1323q0 62 62 62h239q62 0 62 -62v-1323q0 -61 -62 -61z" />
    <glyph glyph-name="Idieresis" unicode="&#xcf;" horiz-adv-x="608" 
d="M178 1561h-170q-61 0 -61 61v141q0 62 61 62h170q62 0 62 -62v-141q0 -61 -62 -61zM604 1561h-170q-61 0 -61 61v141q0 62 61 62h170q62 0 62 -62v-141q0 -61 -62 -61zM430 0h-240q-61 0 -61 61v1323q0 62 61 62h240q62 0 62 -62v-1323q0 -61 -62 -61z" />
    <glyph glyph-name="Eth" unicode="&#xd0;" horiz-adv-x="1687" 
d="M227 1446h875q483 0 483 -543v-368q0 -535 -483 -535h-875q-61 0 -61 61v508h-84q-62 0 -62 62v192q0 62 62 62h84v499q0 62 61 62zM1225 539v362q0 116 -38.5 156.5t-129.5 40.5h-527v-213h258q62 0 62 -62v-192q0 -62 -62 -62h-258v-225h527q87 0 127.5 41t40.5 154z
" />
    <glyph glyph-name="Ntilde" unicode="&#xd1;" horiz-adv-x="1660" 
d="M555 1577q-72 -28 -72 45v121q0 51 47 72q124 52 297 2q164 -47 273 -9q71 21 71 -45v-123q0 -51 -45 -71q-63 -29 -165 -29q-11 1 -74 14l-72 21q-139 43 -260 2zM432 0h-242q-61 0 -61 61v1323q0 62 61 62h236q46 0 76 -37l665 -850v825q0 62 62 62h241q62 0 62 -62
v-1323q0 -61 -62 -61h-235q-46 0 -76 37l-665 846v-822q0 -61 -62 -61z" />
    <glyph glyph-name="Ograve" unicode="&#xd2;" horiz-adv-x="1714" 
d="M897 1554h-160q-50 0 -73 39l-103 148q-20 31 -9 52.5t48 21.5h227q52 0 70 -50l49 -141q21 -70 -49 -70zM1126 0h-538q-234 0 -360 133.5t-126 364.5v448q0 233 126 366.5t360 133.5h538q234 0 360 -133.5t126 -366.5v-448q0 -231 -126 -364.5t-360 -133.5zM588 348h538
q65 0 93 28t28 109v473q0 85 -26 112.5t-95 27.5h-538q-69 0 -95 -27.5t-26 -112.5v-473q0 -81 28 -109t93 -28z" />
    <glyph glyph-name="Oacute" unicode="&#xd3;" horiz-adv-x="1714" 
d="M969 1552h-160q-32 0 -46 19.5t-3 50.5l47 139q15 51 70 51h227q37 0 48 -20.5t-9 -52.5l-101 -148q-23 -39 -73 -39zM1126 0h-538q-234 0 -360 133.5t-126 364.5v448q0 233 126 366.5t360 133.5h538q234 0 360 -133.5t126 -366.5v-448q0 -231 -126 -364.5t-360 -133.5z
M588 348h538q65 0 93 28t28 109v473q0 85 -26 112.5t-95 27.5h-538q-69 0 -95 -27.5t-26 -112.5v-473q0 -81 28 -109t93 -28z" />
    <glyph glyph-name="Ocircumflex" unicode="&#xd4;" horiz-adv-x="1714" 
d="M545 1628l98 148q23 39 74 39h282q48 0 74 -39l96 -148q20 -32 9 -53t-48 -21h-145q-51 0 -74 39l-53 78l-55 -78q-26 -39 -74 -39h-143q-37 0 -49 21.5t8 52.5zM1126 0h-538q-234 0 -360 133.5t-126 364.5v448q0 233 126 366.5t360 133.5h538q234 0 360 -133.5
t126 -366.5v-448q0 -231 -126 -364.5t-360 -133.5zM588 348h538q65 0 93 28t28 109v473q0 85 -26 112.5t-95 27.5h-538q-69 0 -95 -27.5t-26 -112.5v-473q0 -81 28 -109t93 -28z" />
    <glyph glyph-name="Otilde" unicode="&#xd5;" horiz-adv-x="1714" 
d="M586 1575q-72 -28 -72 45v121q0 50 47 71q125 52 297 3q164 -47 272 -9q72 21 72 -45v-123q0 -51 -45 -71q-63 -29 -166 -29q-8 1 -73 14l-72 21q-139 43 -260 2zM1126 0h-538q-234 0 -360 133.5t-126 364.5v448q0 233 126 366.5t360 133.5h538q234 0 360 -133.5
t126 -366.5v-448q0 -231 -126 -364.5t-360 -133.5zM588 348h538q65 0 93 28t28 109v473q0 85 -26 112.5t-95 27.5h-538q-69 0 -95 -27.5t-26 -112.5v-473q0 -81 28 -109t93 -28z" />
    <glyph glyph-name="Odieresis" unicode="&#xd6;" horiz-adv-x="1714" 
d="M729 1559h-170q-61 0 -61 61v141q0 62 61 62h170q62 0 62 -62v-141q0 -61 -62 -61zM1155 1559h-170q-61 0 -61 61v141q0 62 61 62h170q62 0 62 -62v-141q0 -61 -62 -61zM1126 0h-538q-234 0 -360 133.5t-126 364.5v448q0 233 126 366.5t360 133.5h538q234 0 360 -133.5
t126 -366.5v-448q0 -231 -126 -364.5t-360 -133.5zM588 348h538q65 0 93 28t28 109v473q0 85 -26 112.5t-95 27.5h-538q-69 0 -95 -27.5t-26 -112.5v-473q0 -81 28 -109t93 -28z" />
    <glyph glyph-name="multiply" unicode="&#xd7;" horiz-adv-x="1067" 
d="M582 506l-183 -178q-43 -40 -86 0l-137 135q-46 43 0 86l180 178l-180 178q-46 43 0 86l137 135q43 40 86 0l183 -180l180 180q40 40 86 0l137 -135q45 -42 -2 -86l-180 -178l180 -178q45 -43 2 -86l-137 -135q-43 -40 -86 0z" />
    <glyph glyph-name="Oslash" unicode="&#xd8;" horiz-adv-x="1714" 
d="M1235 1528l-23 -88q194 -24 297 -154t103 -340v-448q0 -231 -126 -364.5t-360 -133.5h-274l-23 -92q-12 -53 -69 -53h-225q-32 0 -46.5 18t-7.5 49l21 82q-193 24 -296.5 155.5t-103.5 338.5v448q0 233 126 366.5t360 133.5h276l25 96q12 53 67 53h226q32 0 46.5 -18
t6.5 -49zM1247 485v473q0 85 -26 112.5t-95 27.5h-538q-69 0 -95 -27.5t-26 -112.5v-473q0 -81 28 -109t93 -28h538q65 0 93 28t28 109z" />
    <glyph glyph-name="Ugrave" unicode="&#xd9;" horiz-adv-x="1722" 
d="M946 1550h-160q-50 0 -73 39l-103 148q-20 31 -9 52t48 21h228q51 0 69 -49l49 -141q21 -70 -49 -70zM1100 0h-477q-234 0 -360 133.5t-126 364.5v886q0 62 62 62h241q62 0 62 -62v-899q0 -81 28 -109t93 -28h477q65 0 93 28t28 109v899q0 62 61 62h242q61 0 61 -62v-886
q0 -231 -125.5 -364.5t-359.5 -133.5z" />
    <glyph glyph-name="Uacute" unicode="&#xda;" horiz-adv-x="1722" 
d="M950 1552h-159q-32 0 -46 19.5t-4 50.5l47 139q15 51 70 51h227q37 0 48 -20.5t-9 -52.5l-100 -148q-23 -39 -74 -39zM1100 0h-477q-234 0 -360 133.5t-126 364.5v886q0 62 62 62h241q62 0 62 -62v-899q0 -81 28 -109t93 -28h477q65 0 93 28t28 109v899q0 62 61 62h242
q61 0 61 -62v-886q0 -231 -125.5 -364.5t-359.5 -133.5z" />
    <glyph glyph-name="Ucircumflex" unicode="&#xdb;" horiz-adv-x="1722" 
d="M549 1626l98 148q23 38 74 38h283q48 0 73 -38l97 -148q20 -32 9 -53t-48 -21h-146q-51 0 -74 39l-53 78l-55 -78q-26 -39 -74 -39h-143q-37 0 -49 21.5t8 52.5zM1100 0h-477q-234 0 -360 133.5t-126 364.5v886q0 62 62 62h241q62 0 62 -62v-899q0 -81 28 -109t93 -28
h477q65 0 93 28t28 109v899q0 62 61 62h242q61 0 61 -62v-886q0 -231 -125.5 -364.5t-359.5 -133.5z" />
    <glyph glyph-name="Udieresis" unicode="&#xdc;" horiz-adv-x="1722" 
d="M733 1559h-170q-61 0 -61 61v141q0 62 61 62h170q62 0 62 -62v-141q0 -61 -62 -61zM1159 1559h-170q-61 0 -61 61v141q0 62 61 62h170q62 0 62 -62v-141q0 -61 -62 -61zM1100 0h-477q-234 0 -360 133.5t-126 364.5v886q0 62 62 62h241q62 0 62 -62v-899q0 -81 28 -109
t93 -28h477q65 0 93 28t28 109v899q0 62 61 62h242q61 0 61 -62v-886q0 -231 -125.5 -364.5t-359.5 -133.5z" />
    <glyph glyph-name="Yacute" unicode="&#xdd;" horiz-adv-x="1544" 
d="M899 1552h-160q-32 0 -46 19.5t-3 50.5l47 139q15 51 70 51h227q37 0 48 -20.5t-9 -52.5l-100 -148q-23 -39 -74 -39zM905 0h-241q-62 0 -62 61v340l-586 971q-19 32 -7.5 53t48.5 21h281q53 0 74 -43l372 -660l377 660q21 43 74 43h276q37 0 48.5 -21t-7.5 -53
l-585 -971v-340q0 -61 -62 -61z" />
    <glyph glyph-name="Thorn" unicode="&#xde;" horiz-adv-x="1581" 
d="M432 0h-242q-61 0 -61 61v1323q0 62 61 62h242q62 0 62 -62v-108h442q292 0 427.5 -134.5t135.5 -408.5v-18q0 -273 -135 -404t-428 -131h-442v-119q0 -61 -62 -61zM494 928v-404h409q129 0 180.5 39t51.5 156v12q0 119 -51 158t-181 39h-409z" />
    <glyph glyph-name="germandbls" unicode="&#xdf;" horiz-adv-x="1499" 
d="M436 0h-221q-61 0 -61 61v783h-48q-61 0 -61 61v182q0 62 55 62h54q0 446 477 446h209q479 0 479 -317v-21q0 -99 -43 -154.5t-141 -86.5q272 -64 272 -369v-203q0 -110 -19.5 -183t-68.5 -134q-100 -127 -389 -127h-207q-61 0 -61 61v185q0 61 61 61h215q76 0 100.5 35
t24.5 125v205q0 103 -37 137q-38 35 -188 35h-115q-61 0 -61 61v185q0 61 61 61h143q101 0 101 70v14q0 39 -27.5 56.5t-99.5 17.5h-217q-76 0 -100.5 -35t-24.5 -125v-1088q0 -61 -62 -61z" />
    <glyph glyph-name="agrave" unicode="&#xe0;" horiz-adv-x="1296" 
d="M737 1255h-159q-51 0 -74 39l-103 148q-20 31 -9 52.5t48 21.5h228q51 0 69 -50l49 -141q21 -70 -49 -70zM578 0h-86q-217 0 -324 80.5t-107 251.5q0 182 78 254q76 73 289 94l358 35q66 6 66 63q0 53 -78 53h-559q-61 0 -61 62v197q0 61 61 61h567q219 0 315.5 -80
t96.5 -258v-752q0 -61 -61 -61h-222q-61 0 -61 59v60q-79 -119 -272 -119zM489 307h273q49 0 68.5 18.5t19.5 71.5v82l-363 -33q-77 -6 -77 -77q0 -62 79 -62z" />
    <glyph glyph-name="aacute" unicode="&#xe1;" horiz-adv-x="1296" 
d="M711 1257h-160q-32 0 -46 19.5t-3 50.5l47 139q15 52 69 52h228q37 0 48 -21t-9 -53l-101 -148q-23 -39 -73 -39zM578 0h-86q-217 0 -324 80.5t-107 251.5q0 182 78 254q76 73 289 94l358 35q66 6 66 63q0 53 -78 53h-559q-61 0 -61 62v197q0 61 61 61h567
q219 0 315.5 -80t96.5 -258v-752q0 -61 -61 -61h-222q-61 0 -61 59v60q-79 -119 -272 -119zM489 307h273q49 0 68.5 18.5t19.5 71.5v82l-363 -33q-77 -6 -77 -77q0 -62 79 -62z" />
    <glyph glyph-name="acircumflex" unicode="&#xe2;" horiz-adv-x="1296" 
d="M354 1331l99 148q23 39 73 39h283q48 0 74 -39l96 -148q20 -32 9 -53t-48 -21h-145q-51 0 -74 39l-53 78l-56 -78q-26 -39 -73 -39h-144q-37 0 -49 21.5t8 52.5zM578 0h-86q-217 0 -324 80.5t-107 251.5q0 182 78 254q76 73 289 94l358 35q66 6 66 63q0 53 -78 53h-559
q-61 0 -61 62v197q0 61 61 61h567q219 0 315.5 -80t96.5 -258v-752q0 -61 -61 -61h-222q-61 0 -61 59v60q-79 -119 -272 -119zM489 307h273q49 0 68.5 18.5t19.5 71.5v82l-363 -33q-77 -6 -77 -77q0 -62 79 -62z" />
    <glyph glyph-name="atilde" unicode="&#xe3;" horiz-adv-x="1296" 
d="M408 1284q-72 -28 -72 45v121q0 51 47 72q124 52 297 2q162 -46 272 -8q72 21 72 -46v-122q0 -52 -45 -72q-63 -29 -166 -29q-7 1 -23 4t-32.5 7t-18.5 4l-71 20q-139 43 -260 2zM578 0h-86q-217 0 -324 80.5t-107 251.5q0 182 78 254q76 73 289 94l358 35q66 6 66 63
q0 53 -78 53h-559q-61 0 -61 62v197q0 61 61 61h567q219 0 315.5 -80t96.5 -258v-752q0 -61 -61 -61h-222q-61 0 -61 59v60q-79 -119 -272 -119zM489 307h273q49 0 68.5 18.5t19.5 71.5v82l-363 -33q-77 -6 -77 -77q0 -62 79 -62z" />
    <glyph glyph-name="adieresis" unicode="&#xe4;" horiz-adv-x="1296" 
d="M539 1264h-170q-62 0 -62 61v141q0 62 62 62h170q61 0 61 -62v-141q0 -61 -61 -61zM965 1264h-170q-62 0 -62 61v141q0 62 62 62h170q61 0 61 -62v-141q0 -61 -61 -61zM578 0h-86q-217 0 -324 80.5t-107 251.5q0 182 78 254q76 73 289 94l358 35q66 6 66 63q0 53 -78 53
h-559q-61 0 -61 62v197q0 61 61 61h567q219 0 315.5 -80t96.5 -258v-752q0 -61 -61 -61h-222q-61 0 -61 59v60q-79 -119 -272 -119zM489 307h273q49 0 68.5 18.5t19.5 71.5v82l-363 -33q-77 -6 -77 -77q0 -62 79 -62z" />
    <glyph glyph-name="aring" unicode="&#xe5;" horiz-adv-x="1296" 
d="M678 1253h-23q-116 0 -169.5 54t-53.5 161v19q0 211 223 211h23q116 0 168.5 -53t52.5 -158v-19q0 -107 -52.5 -161t-168.5 -54zM655 1423h23q47 0 47 47v9q0 28 -10.5 37.5t-36.5 9.5h-23q-27 0 -37 -9.5t-10 -37.5v-9q0 -47 47 -47zM578 0h-86q-217 0 -324 80.5
t-107 251.5q0 182 78 254q76 73 289 94l358 35q66 6 66 63q0 53 -78 53h-559q-61 0 -61 62v197q0 61 61 61h567q219 0 315.5 -80t96.5 -258v-752q0 -61 -61 -61h-222q-61 0 -61 59v60q-79 -119 -272 -119zM489 307h273q49 0 68.5 18.5t19.5 71.5v82l-363 -33q-77 -6 -77 -77
q0 -62 79 -62z" />
    <glyph glyph-name="ae" unicode="&#xe6;" horiz-adv-x="2060" 
d="M741 0h-249q-217 0 -324 80.5t-107 251.5q0 182 78 254q76 73 289 94l358 35q66 6 66 63q0 53 -78 53h-559q-61 0 -61 62v197q0 61 61 61h535q220 0 278 -123q64 123 262 123h275q222 0 323 -113t101 -336v-182q0 -61 -62 -61h-733v-43q0 -55 20 -76t68 -21h561
q62 0 62 -61v-197q0 -61 -62 -61h-553q-194 0 -262 115q-83 -115 -287 -115zM1194 735v-41h448v41q0 54 -20 75t-68 21h-272q-50 0 -69 -20.5t-19 -75.5zM489 307h273q49 0 68.5 18.5t19.5 71.5v82l-363 -33q-77 -6 -77 -77q0 -62 79 -62z" />
    <glyph glyph-name="ccedilla" unicode="&#xe7;" horiz-adv-x="1341" 
d="M524 319h324q46 0 63.5 17.5t22.5 62.5q6 64 63 64h222q62 0 59 -64q-12 -208 -115 -303.5t-307 -95.5h-16l-74 -319q-12 -54 -68 -54h-233q-32 0 -45.5 20t-1.5 52l121 301h-23q-222 0 -323 113.5t-101 341.5v247q0 223 101 336t323 113h340q204 0 307 -97t115 -298
q3 -64 -59 -64h-222q-57 0 -63 64q-4 44 -22.5 59.5t-63.5 15.5h-324q-50 0 -69 -20.5t-19 -75.5v-319q0 -55 20 -76t68 -21z" />
    <glyph glyph-name="egrave" unicode="&#xe8;" horiz-adv-x="1300" 
d="M723 1257h-160q-51 0 -74 39l-102 148q-20 31 -9 52.5t48 21.5h227q52 0 70 -50l49 -141q21 -70 -49 -70zM1075 0h-559q-222 0 -323 113.5t-101 341.5v247q0 223 101 336t323 113h289q222 0 323 -113t101 -336v-182q0 -61 -62 -61h-731v-43q0 -55 20 -76t68 -21h551
q62 0 62 -61v-197q0 -61 -62 -61zM436 735v-41h449v41q0 54 -20 75t-68 21h-273q-50 0 -69 -20.5t-19 -75.5z" />
    <glyph glyph-name="eacute" unicode="&#xe9;" horiz-adv-x="1300" 
d="M788 1260h-159q-32 0 -45.5 19t-3.5 50l47 139q15 52 69 52h228q37 0 48 -21t-9 -53l-101 -148q-23 -38 -74 -38zM1075 0h-559q-222 0 -323 113.5t-101 341.5v247q0 223 101 336t323 113h289q222 0 323 -113t101 -336v-182q0 -61 -62 -61h-731v-43q0 -55 20 -76t68 -21
h551q62 0 62 -61v-197q0 -61 -62 -61zM436 735v-41h449v41q0 54 -20 75t-68 21h-273q-50 0 -69 -20.5t-19 -75.5z" />
    <glyph glyph-name="ecircumflex" unicode="&#xea;" horiz-adv-x="1300" 
d="M350 1329l99 148q23 39 73 39h283q48 0 74 -39l96 -148q20 -32 9 -53t-48 -21h-145q-51 0 -74 39l-53 78l-56 -78q-26 -39 -73 -39h-144q-37 0 -49 21.5t8 52.5zM1075 0h-559q-222 0 -323 113.5t-101 341.5v247q0 223 101 336t323 113h289q222 0 323 -113t101 -336v-182
q0 -61 -62 -61h-731v-43q0 -55 20 -76t68 -21h551q62 0 62 -61v-197q0 -61 -62 -61zM436 735v-41h449v41q0 54 -20 75t-68 21h-273q-50 0 -69 -20.5t-19 -75.5z" />
    <glyph glyph-name="edieresis" unicode="&#xeb;" horiz-adv-x="1300" 
d="M535 1266h-170q-62 0 -62 61v141q0 62 62 62h170q61 0 61 -62v-141q0 -61 -61 -61zM961 1266h-170q-62 0 -62 61v141q0 62 62 62h170q61 0 61 -62v-141q0 -61 -61 -61zM1075 0h-559q-222 0 -323 113.5t-101 341.5v247q0 223 101 336t323 113h289q222 0 323 -113t101 -336
v-182q0 -61 -62 -61h-731v-43q0 -55 20 -76t68 -21h551q62 0 62 -61v-197q0 -61 -62 -61zM436 735v-41h449v41q0 54 -20 75t-68 21h-273q-50 0 -69 -20.5t-19 -75.5z" />
    <glyph glyph-name="igrave" unicode="&#xec;" horiz-adv-x="575" 
d="M367 1257h-160q-51 0 -74 39l-102 148q-20 31 -9 52.5t48 21.5h227q52 0 70 -50l49 -141q21 -70 -49 -70zM408 0h-222q-61 0 -61 61v1029q0 61 61 61h222q61 0 61 -61v-1029q0 -61 -61 -61z" />
    <glyph glyph-name="iacute" unicode="&#xed;" horiz-adv-x="573" 
d="M377 1260h-160q-32 0 -45.5 19t-3.5 50l47 139q15 52 70 52h227q37 0 48 -21t-9 -53l-100 -148q-23 -38 -74 -38zM399 0h-221q-61 0 -61 61v1029q0 61 61 61h221q62 0 62 -61v-1029q0 -61 -62 -61z" />
    <glyph glyph-name="icircumflex" unicode="&#xee;" horiz-adv-x="571" 
d="M-14 1331l98 148q23 39 74 39h282q48 0 74 -39l96 -148q20 -32 9 -53t-48 -21h-145q-51 0 -74 39l-53 78l-55 -78q-26 -39 -74 -39h-143q-37 0 -49 21.5t8 52.5zM412 0h-222q-61 0 -61 61v1029q0 61 61 61h222q61 0 61 -61v-1029q0 -61 -61 -61z" />
    <glyph glyph-name="idieresis" unicode="&#xef;" horiz-adv-x="579" 
d="M162 1264h-170q-62 0 -62 61v141q0 62 62 62h170q61 0 61 -62v-141q0 -61 -61 -61zM588 1264h-170q-62 0 -62 61v141q0 62 62 62h170q61 0 61 -62v-141q0 -61 -61 -61zM406 0h-222q-61 0 -61 61v1029q0 61 61 61h222q61 0 61 -61v-1029q0 -61 -61 -61z" />
    <glyph glyph-name="eth" unicode="&#xf0;" horiz-adv-x="1372" 
d="M1085 1239l62 -117q56 -97 74 -135q25 -46 42 -122t17 -163v-247q0 -228 -101 -341.5t-323 -113.5h-340q-222 0 -323 113.5t-101 341.5v247q0 223 101 336t323 113h152q58 0 110 -8l-51 96h-182q-62 0 -62 61v111q0 62 62 62h59l-4 8q-17 31 -4.5 52t47.5 21h229
q51 0 72 -41l21 -40h172q61 0 61 -62v-111q0 -61 -55 -61h-58zM936 416v319q0 55 -19 75.5t-69 20.5h-324q-50 0 -69 -20.5t-19 -75.5v-319q0 -55 20 -76t68 -21h324q48 0 68 21t20 76z" />
    <glyph glyph-name="ntilde" unicode="&#xf1;" 
d="M752 1276l-68 18q-139 43 -260 2q-72 -28 -72 45v121q0 51 47 72q124 52 297 2q163 -46 273 -8q71 21 71 -45v-123q0 -53 -65 -80q-16 -7 -32 -11t-35 -5.5t-28.5 -2t-32 0t-26.5 0.5q-9 1 -36 7t-33 7zM733 1151h107q222 0 323 -113.5t101 -341.5v-635q0 -61 -62 -61
h-221q-61 0 -61 61v674q0 54 -20.5 75t-68.5 21h-282q-48 0 -68 -21t-20 -75v-674q0 -61 -62 -61h-221q-61 0 -61 61v1029q0 61 61 61h221q62 0 62 -59v-62q80 121 272 121z" />
    <glyph glyph-name="ograve" unicode="&#xf2;" horiz-adv-x="1372" 
d="M745 1257h-159q-51 0 -74 39l-102 148q-20 31 -9 52.5t48 21.5h227q51 0 69 -50l50 -141q21 -70 -50 -70zM856 0h-340q-222 0 -323 113.5t-101 341.5v247q0 223 101 336t323 113h340q222 0 323 -113t101 -336v-247q0 -228 -101 -341.5t-323 -113.5zM524 319h324
q48 0 68 21t20 76v319q0 55 -19 75.5t-69 20.5h-324q-50 0 -69 -20.5t-19 -75.5v-319q0 -55 20 -76t68 -21z" />
    <glyph glyph-name="oacute" unicode="&#xf3;" horiz-adv-x="1372" 
d="M780 1255h-159q-32 0 -46 19.5t-4 50.5l47 139q15 52 70 52h227q37 0 48 -21t-9 -53l-100 -148q-23 -39 -74 -39zM856 0h-340q-222 0 -323 113.5t-101 341.5v247q0 223 101 336t323 113h340q222 0 323 -113t101 -336v-247q0 -228 -101 -341.5t-323 -113.5zM524 319h324
q48 0 68 21t20 76v319q0 55 -19 75.5t-69 20.5h-324q-50 0 -69 -20.5t-19 -75.5v-319q0 -55 20 -76t68 -21z" />
    <glyph glyph-name="ocircumflex" unicode="&#xf4;" horiz-adv-x="1372" 
d="M367 1329l98 148q23 39 74 39h282q48 0 74 -39l96 -148q20 -32 9 -53t-48 -21h-145q-51 0 -74 39l-53 78l-55 -78q-26 -39 -74 -39h-143q-37 0 -49 21.5t8 52.5zM856 0h-340q-222 0 -323 113.5t-101 341.5v247q0 223 101 336t323 113h340q222 0 323 -113t101 -336v-247
q0 -228 -101 -341.5t-323 -113.5zM524 319h324q48 0 68 21t20 76v319q0 55 -19 75.5t-69 20.5h-324q-50 0 -69 -20.5t-19 -75.5v-319q0 -55 20 -76t68 -21z" />
    <glyph glyph-name="otilde" unicode="&#xf5;" horiz-adv-x="1372" 
d="M408 1286q-72 -28 -72 45v121q0 51 47 72q124 52 297 2q162 -46 272 -8q72 21 72 -45v-123q0 -52 -45 -72q-63 -29 -166 -29q-7 1 -23 4t-32.5 7t-18.5 4l-71 20q-139 43 -260 2zM856 0h-340q-222 0 -323 113.5t-101 341.5v247q0 223 101 336t323 113h340q222 0 323 -113
t101 -336v-247q0 -228 -101 -341.5t-323 -113.5zM524 319h324q48 0 68 21t20 76v319q0 55 -19 75.5t-69 20.5h-324q-50 0 -69 -20.5t-19 -75.5v-319q0 -55 20 -76t68 -21z" />
    <glyph glyph-name="odieresis" unicode="&#xf6;" horiz-adv-x="1372" 
d="M551 1264h-170q-62 0 -62 61v141q0 62 62 62h170q61 0 61 -62v-141q0 -61 -61 -61zM977 1264h-170q-62 0 -62 61v141q0 62 62 62h170q61 0 61 -62v-141q0 -61 -61 -61zM856 0h-340q-222 0 -323 113.5t-101 341.5v247q0 223 101 336t323 113h340q222 0 323 -113t101 -336
v-247q0 -228 -101 -341.5t-323 -113.5zM524 319h324q48 0 68 21t20 76v319q0 55 -19 75.5t-69 20.5h-324q-50 0 -69 -20.5t-19 -75.5v-319q0 -55 20 -76t68 -21z" />
    <glyph glyph-name="divide" unicode="&#xf7;" horiz-adv-x="1116" 
d="M655 973h-192q-62 0 -62 61v160q0 61 62 61h192q62 0 62 -61v-160q0 -61 -62 -61zM969 569h-822q-61 0 -61 62v188q0 62 61 62h822q61 0 61 -62v-188q0 -62 -61 -62zM655 197h-192q-62 0 -62 61v160q0 61 62 61h192q62 0 62 -61v-160q0 -61 -62 -61z" />
    <glyph glyph-name="oslash" unicode="&#xf8;" horiz-adv-x="1372" 
d="M1026 1231l-22 -96q276 -65 276 -433v-247q0 -228 -101 -341.5t-323 -113.5h-137l-23 -92q-12 -53 -69 -53h-226q-32 0 -46.5 18t-6.5 49l23 92q-279 64 -279 441v247q0 223 101 336t323 113h141l23 94q12 53 68 53h225q32 0 46.5 -18t6.5 -49zM936 416v319
q0 55 -19 75.5t-69 20.5h-324q-50 0 -69 -20.5t-19 -75.5v-319q0 -55 20 -76t68 -21h324q48 0 68 21t20 76z" />
    <glyph glyph-name="ugrave" unicode="&#xf9;" 
d="M731 1466l49 -141q11 -31 -3 -50.5t-46 -19.5h-160q-50 0 -73 39l-103 148q-20 31 -9 52.5t48 21.5h228q51 0 69 -50zM905 416v674q0 61 62 61h221q61 0 61 -61v-1029q0 -61 -61 -61h-221q-62 0 -62 61v60q-80 -121 -272 -121h-107q-222 0 -323 113.5t-101 341.5v635
q0 61 62 61h221q61 0 61 -61v-674q0 -54 20.5 -75.5t68.5 -21.5h282q48 0 68 21t20 76z" />
    <glyph glyph-name="uacute" unicode="&#xfa;" 
d="M659 1516h228q37 0 48 -21t-9 -53l-101 -148q-23 -39 -73 -39h-160q-32 0 -46 19.5t-3 50.5l47 139q15 52 69 52zM905 416v674q0 61 62 61h221q61 0 61 -61v-1029q0 -61 -61 -61h-221q-62 0 -62 61v60q-80 -121 -272 -121h-107q-222 0 -323 113.5t-101 341.5v635
q0 61 62 61h221q61 0 61 -61v-674q0 -54 20.5 -75.5t68.5 -21.5h282q48 0 68 21t20 76z" />
    <glyph glyph-name="ucircumflex" unicode="&#xfb;" 
d="M715 1294l-53 78l-56 -78q-26 -39 -74 -39h-143q-37 0 -49 21.5t8 52.5l98 148q23 39 74 39h283q48 0 74 -39l96 -148q20 -32 9 -53t-48 -21h-146q-50 0 -73 39zM905 416v674q0 61 62 61h221q61 0 61 -61v-1029q0 -61 -61 -61h-221q-62 0 -62 61v60q-80 -121 -272 -121
h-107q-222 0 -323 113.5t-101 341.5v635q0 61 62 61h221q61 0 61 -61v-674q0 -54 20.5 -75.5t68.5 -21.5h282q48 0 68 21t20 76z" />
    <glyph glyph-name="udieresis" unicode="&#xfc;" 
d="M371 1530h170q61 0 61 -62v-141q0 -61 -61 -61h-170q-62 0 -62 61v141q0 62 62 62zM797 1530h170q61 0 61 -62v-141q0 -61 -61 -61h-170q-62 0 -62 61v141q0 62 62 62zM905 416v674q0 61 62 61h221q61 0 61 -61v-1029q0 -61 -61 -61h-221q-62 0 -62 61v60
q-80 -121 -272 -121h-107q-222 0 -323 113.5t-101 341.5v635q0 61 62 61h221q61 0 61 -61v-674q0 -54 20.5 -75.5t68.5 -21.5h282q48 0 68 21t20 76z" />
    <glyph glyph-name="yacute" unicode="&#xfd;" horiz-adv-x="1396" 
d="M762 1255h-160q-32 0 -46 19.5t-3 50.5l47 139q15 52 70 52h227q37 0 48 -21t-9 -53l-100 -148q-23 -39 -74 -39zM848 -403h-488q-61 0 -61 61v197q0 61 61 61h488q48 0 68 21t20 75v207q-79 -119 -272 -119h-148q-222 0 -323 113.5t-101 341.5v535q0 61 62 61h221
q61 0 61 -61v-574q0 -54 20 -75t68 -21h324q48 0 68 21t20 75v574q0 61 61 61h222q61 0 61 -61v-1039q0 -226 -104 -340t-328 -114z" />
    <glyph glyph-name="thorn" unicode="&#xfe;" horiz-adv-x="1394" 
d="M731 1151h148q222 0 323 -113t101 -336v-247q0 -228 -101 -341.5t-323 -113.5h-148q-193 0 -272 119v-461q0 -61 -62 -61h-221q-61 0 -61 61v1835q0 61 61 61h221q62 0 62 -61v-461q79 119 272 119zM958 416v319q0 54 -20 75t-68 21h-323q-48 0 -68 -21t-20 -75v-319
q0 -55 20 -76t68 -21h323q48 0 68 21t20 76z" />
    <glyph glyph-name="ydieresis" unicode="&#xff;" horiz-adv-x="1396" 
d="M541 1266h-170q-62 0 -62 61v141q0 62 62 62h170q61 0 61 -62v-141q0 -61 -61 -61zM967 1266h-170q-62 0 -62 61v141q0 62 62 62h170q61 0 61 -62v-141q0 -61 -61 -61zM848 -403h-488q-61 0 -61 61v197q0 61 61 61h488q48 0 68 21t20 75v207q-79 -119 -272 -119h-148
q-222 0 -323 113.5t-101 341.5v535q0 61 62 61h221q61 0 61 -61v-574q0 -54 20 -75t68 -21h324q48 0 68 21t20 75v574q0 61 61 61h222q61 0 61 -61v-1039q0 -226 -104 -340t-328 -114z" />
    <glyph glyph-name="Amacron" unicode="&#x100;" horiz-adv-x="1701" 
d="M616 1794h469q62 0 62 -61v-117q0 -62 -62 -62h-469q-61 0 -61 62v117q0 61 61 61zM1634 0h-274q-54 0 -72 47l-74 178h-702l-74 -178q-18 -47 -71 -47h-275q-35 0 -48 20t1 52l604 1327q21 47 72 47h285q50 0 71 -47l604 -1327q14 -32 1 -52t-48 -20zM864 1073
l-229 -553h459z" />
    <glyph glyph-name="amacron" unicode="&#x101;" horiz-adv-x="1296" 
d="M895 1257h-469q-61 0 -61 62v117q0 61 61 61h469q61 0 61 -61v-117q0 -62 -61 -62zM578 0h-86q-217 0 -324 80.5t-107 251.5q0 182 78 254q76 73 289 94l358 35q66 6 66 63q0 53 -78 53h-559q-61 0 -61 62v197q0 61 61 61h567q219 0 315.5 -80t96.5 -258v-752
q0 -61 -61 -61h-222q-61 0 -61 59v60q-79 -119 -272 -119zM489 307h273q49 0 68.5 18.5t19.5 71.5v82l-363 -33q-77 -6 -77 -77q0 -62 79 -62z" />
    <glyph glyph-name="Abreve" unicode="&#x102;" horiz-adv-x="1701" 
d="M858 1550q-338 0 -338 238q0 31 62 31h141q61 0 61 -17v-18q0 -34 17 -47t57 -13q39 0 55 13q17 14 17 47q0 35 61 35h142q61 0 61 -19v-18q0 -125 -82 -178.5t-254 -53.5zM1634 0h-274q-54 0 -72 47l-74 178h-702l-74 -178q-18 -47 -71 -47h-275q-35 0 -48 20t1 52
l604 1327q21 47 72 47h285q50 0 71 -47l604 -1327q14 -32 1 -52t-48 -20zM864 1073l-229 -553h459z" />
    <glyph glyph-name="abreve" unicode="&#x103;" horiz-adv-x="1296" 
d="M653 1255q-338 0 -338 238q0 31 62 31h141q62 0 62 -17v-18q0 -34 16.5 -46.5t56.5 -12.5q41 0 56 12q16 13 16 47q0 35 61 35h142q61 0 61 -19v-18q0 -125 -82 -178.5t-254 -53.5zM578 0h-86q-217 0 -324 80.5t-107 251.5q0 182 78 254q76 73 289 94l358 35q66 6 66 63
q0 53 -78 53h-559q-61 0 -61 62v197q0 61 61 61h567q219 0 315.5 -80t96.5 -258v-752q0 -61 -61 -61h-222q-61 0 -61 59v60q-79 -119 -272 -119zM489 307h273q49 0 68.5 18.5t19.5 71.5v82l-363 -33q-77 -6 -77 -77q0 -62 79 -62z" />
    <glyph glyph-name="Aogonek" unicode="&#x104;" horiz-adv-x="1701" 
d="M1518 -78q0 -36 14.5 -50.5t58.5 -18.5q64 -6 64 -62v-129q0 -62 -66 -59q-181 7 -250 65t-69 191q0 96 37 145l-93 221h-702l-74 -178q-18 -47 -71 -47h-275q-35 0 -48 20t1 52l604 1327q21 47 72 47h285q50 0 71 -47l604 -1327q31 -72 -22 -72h-57q-48 0 -66 -17.5
t-18 -60.5zM864 1073l-229 -553h459z" />
    <glyph glyph-name="aogonek" unicode="&#x105;" horiz-adv-x="1294" 
d="M1194 -209v-129q0 -62 -66 -59q-181 7 -250 65t-69 191q0 98 41 151v109q-79 -119 -272 -119h-86q-217 0 -324 80.5t-107 251.5q0 182 78 254q76 73 289 94l358 35q66 6 66 63q0 53 -78 53h-559q-61 0 -61 62v197q0 61 61 61h567q219 0 315.5 -80t96.5 -258v-752
q0 -57 -64 -63q-44 -5 -58.5 -19.5t-14.5 -56.5q0 -36 14.5 -50.5t58.5 -18.5q64 -6 64 -62zM489 307h273q49 0 68.5 18.5t19.5 71.5v82l-363 -33q-77 -6 -77 -77q0 -62 79 -62z" />
    <glyph glyph-name="Cacute" unicode="&#x106;" horiz-adv-x="1611" 
d="M936 1554h-160q-32 0 -46 19.5t-3 50.5l47 139q15 52 70 52h227q37 0 48 -21t-9 -53l-100 -148q-23 -39 -74 -39zM1044 0h-456q-234 0 -360 133.5t-126 364.5v448q0 233 126 366.5t360 133.5h456q234 0 360 -133.5t126 -366.5q0 -57 -62 -57h-241q-62 0 -62 35v34
q0 85 -26 112.5t-95 27.5h-456q-69 0 -95 -27.5t-26 -112.5v-473q0 -81 28 -109t93 -28h456q65 0 93 28t28 109v31q0 62 62 62h241q62 0 62 -39v-41q0 -231 -126 -364.5t-360 -133.5z" />
    <glyph glyph-name="cacute" unicode="&#x107;" horiz-adv-x="1341" 
d="M776 1260h-160q-32 0 -45.5 19t-3.5 50l47 139q15 52 70 52h227q37 0 48 -21t-9 -53l-100 -148q-23 -38 -74 -38zM856 0h-340q-222 0 -323 113.5t-101 341.5v247q0 223 101 336t323 113h340q204 0 307 -97t115 -298q3 -64 -59 -64h-222q-57 0 -63 64q-4 44 -22.5 59.5
t-63.5 15.5h-324q-50 0 -69 -20.5t-19 -75.5v-319q0 -55 20 -76t68 -21h324q46 0 63.5 17.5t22.5 62.5q6 64 63 64h222q62 0 59 -64q-12 -208 -115 -303.5t-307 -95.5z" />
    <glyph glyph-name="Ccircumflex" unicode="&#x108;" horiz-adv-x="1611" 
d="M512 1624l98 148q23 38 74 38h283q48 0 73 -38l97 -148q20 -32 9 -53t-48 -21h-146q-50 0 -73 39l-54 78l-55 -78q-26 -39 -74 -39h-143q-37 0 -49 21.5t8 52.5zM1044 0h-456q-234 0 -360 133.5t-126 364.5v448q0 233 126 366.5t360 133.5h456q234 0 360 -133.5
t126 -366.5q0 -57 -62 -57h-241q-62 0 -62 35v34q0 85 -26 112.5t-95 27.5h-456q-69 0 -95 -27.5t-26 -112.5v-473q0 -81 28 -109t93 -28h456q65 0 93 28t28 109v31q0 62 62 62h241q62 0 62 -39v-41q0 -231 -126 -364.5t-360 -133.5z" />
    <glyph glyph-name="ccircumflex" unicode="&#x109;" horiz-adv-x="1341" 
d="M362 1331l99 148q23 39 74 39h282q48 0 74 -39l96 -148q20 -32 9 -53t-48 -21h-145q-51 0 -74 39l-53 78l-55 -78q-26 -39 -74 -39h-144q-37 0 -49 21.5t8 52.5zM856 0h-340q-222 0 -323 113.5t-101 341.5v247q0 223 101 336t323 113h340q204 0 307 -97t115 -298
q3 -64 -59 -64h-222q-57 0 -63 64q-4 44 -22.5 59.5t-63.5 15.5h-324q-50 0 -69 -20.5t-19 -75.5v-319q0 -55 20 -76t68 -21h324q46 0 63.5 17.5t22.5 62.5q6 64 63 64h222q62 0 59 -64q-12 -208 -115 -303.5t-307 -95.5z" />
    <glyph glyph-name="Cdotaccent" unicode="&#x10a;" horiz-adv-x="1611" 
d="M922 1554h-193q-61 0 -61 62v139q0 62 61 62h193q61 0 61 -62v-139q0 -62 -61 -62zM1044 0h-456q-234 0 -360 133.5t-126 364.5v448q0 233 126 366.5t360 133.5h456q234 0 360 -133.5t126 -366.5q0 -57 -62 -57h-241q-62 0 -62 35v34q0 85 -26 112.5t-95 27.5h-456
q-69 0 -95 -27.5t-26 -112.5v-473q0 -81 28 -109t93 -28h456q65 0 93 28t28 109v31q0 62 62 62h241q62 0 62 -39v-41q0 -231 -126 -364.5t-360 -133.5z" />
    <glyph glyph-name="cdotaccent" unicode="&#x10b;" horiz-adv-x="1341" 
d="M776 1266h-192q-62 0 -62 61v139q0 62 62 62h192q62 0 62 -62v-139q0 -61 -62 -61zM856 0h-340q-222 0 -323 113.5t-101 341.5v247q0 223 101 336t323 113h340q204 0 307 -97t115 -298q3 -64 -59 -64h-222q-57 0 -63 64q-4 44 -22.5 59.5t-63.5 15.5h-324
q-50 0 -69 -20.5t-19 -75.5v-319q0 -55 20 -76t68 -21h324q46 0 63.5 17.5t22.5 62.5q6 64 63 64h222q62 0 59 -64q-12 -208 -115 -303.5t-307 -95.5z" />
    <glyph glyph-name="Ccaron" unicode="&#x10c;" horiz-adv-x="1611" 
d="M965 1552h-283q-51 0 -74 39l-98 148q-20 31 -8 52t49 21h143q49 0 74 -38l55 -78l54 78q23 38 73 38h144q37 0 49 -21t-8 -52l-97 -148q-26 -39 -73 -39zM1044 0h-456q-234 0 -360 133.5t-126 364.5v448q0 233 126 366.5t360 133.5h456q234 0 360 -133.5t126 -366.5
q0 -57 -62 -57h-241q-62 0 -62 35v34q0 85 -26 112.5t-95 27.5h-456q-69 0 -95 -27.5t-26 -112.5v-473q0 -81 28 -109t93 -28h456q65 0 93 28t28 109v31q0 62 62 62h241q62 0 62 -39v-41q0 -231 -126 -364.5t-360 -133.5z" />
    <glyph glyph-name="ccaron" unicode="&#x10d;" horiz-adv-x="1341" 
d="M813 1255h-283q-50 0 -73 39l-99 148q-20 31 -8 52.5t49 21.5h144q47 0 73 -39l56 -78l53 78q23 39 74 39h143q37 0 49 -21.5t-8 -52.5l-96 -148q-26 -39 -74 -39zM856 0h-340q-222 0 -323 113.5t-101 341.5v247q0 223 101 336t323 113h340q204 0 307 -97t115 -298
q3 -64 -59 -64h-222q-57 0 -63 64q-4 44 -22.5 59.5t-63.5 15.5h-324q-50 0 -69 -20.5t-19 -75.5v-319q0 -55 20 -76t68 -21h324q46 0 63.5 17.5t22.5 62.5q6 64 63 64h222q62 0 59 -64q-12 -208 -115 -303.5t-307 -95.5z" />
    <glyph glyph-name="Dcaron" unicode="&#x10e;" horiz-adv-x="1650" 
d="M963 1554h-283q-51 0 -74 39l-98 148q-20 31 -8 52.5t49 21.5h143q48 0 74 -39l55 -78l53 78q23 39 74 39h144q37 0 49 -21.5t-8 -52.5l-97 -148q-26 -39 -73 -39zM1065 0h-875q-61 0 -61 61v1323q0 62 61 62h875q483 0 483 -543v-368q0 -535 -483 -535zM494 1098v-754
h526q87 0 127.5 41t40.5 154v362q0 116 -38.5 156.5t-129.5 40.5h-526z" />
    <glyph glyph-name="dcaron" unicode="&#x10f;" horiz-adv-x="1777" 
d="M936 1032v461q0 61 61 61h222q61 0 61 -61v-1432q0 -61 -61 -61h-222q-61 0 -61 59v60q-79 -119 -272 -119h-148q-222 0 -323 113t-101 336v247q0 228 101 341.5t323 113.5h148q193 0 272 -119zM1405 829l131 562q12 53 68 53h241q32 0 45.5 -20t1.5 -52l-225 -563
q-18 -47 -70 -47h-139q-32 0 -46.5 18t-6.5 49zM524 319h324q50 0 69 21t19 76v319q0 54 -20 75t-68 21h-324q-48 0 -68 -21t-20 -75v-319q0 -55 19 -76t69 -21z" />
    <glyph glyph-name="Dcroat" unicode="&#x110;" horiz-adv-x="1687" 
d="M227 1446h875q483 0 483 -543v-368q0 -535 -483 -535h-875q-61 0 -61 61v508h-84q-62 0 -62 62v192q0 62 62 62h84v499q0 62 61 62zM1225 539v362q0 116 -38.5 156.5t-129.5 40.5h-527v-213h258q62 0 62 -62v-192q0 -62 -62 -62h-258v-225h527q87 0 127.5 41t40.5 154z
" />
    <glyph glyph-name="dslash" unicode="&#x111;" horiz-adv-x="1406" 
d="M1280 1473h53q53 0 53 -62v-111q0 -61 -53 -61h-53v-1178q0 -61 -61 -61h-222q-61 0 -61 59v60q-79 -119 -272 -119h-148q-222 0 -323 113t-101 336v247q0 228 101 341.5t323 113.5h148q193 0 272 -119v207h-195q-61 0 -61 61v111q0 62 61 62h195v20q0 61 61 61h222
q61 0 61 -41v-40zM524 319h324q50 0 69 21t19 76v319q0 54 -20 75t-68 21h-324q-48 0 -68 -21t-20 -75v-319q0 -55 19 -76t69 -21z" />
    <glyph glyph-name="Emacron" unicode="&#x112;" horiz-adv-x="1427" 
d="M975 1550h-469q-62 0 -62 62v117q0 61 62 61h469q61 0 61 -61v-117q0 -62 -61 -62zM1290 0h-1100q-61 0 -61 61v1323q0 62 61 62h1100q62 0 62 -62v-225q0 -61 -62 -61h-798v-213h485q61 0 61 -62v-192q0 -62 -61 -62h-485v-221h798q62 0 62 -61v-226q0 -61 -62 -61z" />
    <glyph glyph-name="emacron" unicode="&#x113;" horiz-adv-x="1300" 
d="M897 1257h-469q-61 0 -61 62v117q0 61 61 61h469q61 0 61 -61v-117q0 -62 -61 -62zM1075 0h-559q-222 0 -323 113.5t-101 341.5v247q0 223 101 336t323 113h289q222 0 323 -113t101 -336v-182q0 -61 -62 -61h-731v-43q0 -55 20 -76t68 -21h551q62 0 62 -61v-197
q0 -61 -62 -61zM436 735v-41h449v41q0 54 -20 75t-68 21h-273q-50 0 -69 -20.5t-19 -75.5z" />
    <glyph glyph-name="Ebreve" unicode="&#x114;" horiz-adv-x="1427" 
d="M760 1546q-338 0 -338 238q0 31 61 31h142q61 0 61 -17v-18q0 -34 17 -47t57 -13q39 0 55 13t16 47q0 35 62 35h141q62 0 62 -19v-18q0 -125 -82 -178.5t-254 -53.5zM1290 0h-1100q-61 0 -61 61v1323q0 62 61 62h1100q62 0 62 -62v-225q0 -61 -62 -61h-798v-213h485
q61 0 61 -62v-192q0 -62 -61 -62h-485v-221h798q62 0 62 -61v-226q0 -61 -62 -61z" />
    <glyph glyph-name="ebreve" unicode="&#x115;" horiz-adv-x="1300" 
d="M664 1257q-338 0 -338 238q0 31 61 31h141q62 0 62 -17v-18q0 -34 17 -46.5t57 -12.5t55 12q16 13 16 47q0 35 62 35h141q61 0 61 -19v-18q0 -125 -81.5 -178.5t-253.5 -53.5zM1075 0h-559q-222 0 -323 113.5t-101 341.5v247q0 223 101 336t323 113h289q222 0 323 -113
t101 -336v-182q0 -61 -62 -61h-731v-43q0 -55 20 -76t68 -21h551q62 0 62 -61v-197q0 -61 -62 -61zM436 735v-41h449v41q0 54 -20 75t-68 21h-273q-50 0 -69 -20.5t-19 -75.5z" />
    <glyph glyph-name="Edotaccent" unicode="&#x116;" horiz-adv-x="1427" 
d="M838 1546h-193q-61 0 -61 62v139q0 61 61 61h193q61 0 61 -61v-139q0 -62 -61 -62zM1290 0h-1100q-61 0 -61 61v1323q0 62 61 62h1100q62 0 62 -62v-225q0 -61 -62 -61h-798v-213h485q61 0 61 -62v-192q0 -62 -61 -62h-485v-221h798q62 0 62 -61v-226q0 -61 -62 -61z" />
    <glyph glyph-name="edotaccent" unicode="&#x117;" horiz-adv-x="1300" 
d="M760 1268h-193q-61 0 -61 61v139q0 62 61 62h193q61 0 61 -62v-139q0 -61 -61 -61zM1075 0h-559q-222 0 -323 113.5t-101 341.5v247q0 223 101 336t323 113h289q222 0 323 -113t101 -336v-182q0 -61 -62 -61h-731v-43q0 -55 20 -76t68 -21h551q62 0 62 -61v-197
q0 -61 -62 -61zM436 735v-41h449v41q0 54 -20 75t-68 21h-273q-50 0 -69 -20.5t-19 -75.5z" />
    <glyph glyph-name="Eogonek" unicode="&#x118;" horiz-adv-x="1427" 
d="M1362 -209v-129q0 -62 -66 -59q-181 7 -250 65t-69 191q0 91 35 141h-822q-61 0 -61 61v1323q0 62 61 62h1100q62 0 62 -62v-225q0 -61 -62 -61h-798v-213h485q61 0 61 -62v-192q0 -62 -61 -62h-485v-221h798q62 0 62 -61v-228q0 -55 -64 -61q-36 -4 -49.5 -20.5
t-13.5 -55.5q0 -36 14.5 -50.5t58.5 -18.5q64 -6 64 -62z" />
    <glyph glyph-name="eogonek" unicode="&#x119;" horiz-adv-x="1300" 
d="M1229 702v-182q0 -61 -62 -61h-731v-43q0 -55 20 -76t68 -21h551q62 0 62 -61v-197q0 -57 -64 -63q-41 -5 -55 -20t-14 -56q0 -36 14.5 -50.5t58.5 -18.5q64 -6 64 -62v-129q0 -62 -66 -59q-181 7 -250 65t-69 191q0 91 35 141h-275q-222 0 -323 113.5t-101 341.5v247
q0 223 101 336t323 113h289q222 0 323 -113t101 -336zM436 735v-41h449v41q0 54 -20 75t-68 21h-273q-50 0 -69 -20.5t-19 -75.5z" />
    <glyph glyph-name="Ecaron" unicode="&#x11a;" horiz-adv-x="1427" 
d="M885 1550h-283q-51 0 -74 39l-98 148q-20 31 -8 52t49 21h143q49 0 74 -38l55 -78l54 78q23 38 73 38h144q37 0 49 -21t-8 -52l-97 -148q-26 -39 -73 -39zM1290 0h-1100q-61 0 -61 61v1323q0 62 61 62h1100q62 0 62 -62v-225q0 -61 -62 -61h-798v-213h485q61 0 61 -62
v-192q0 -62 -61 -62h-485v-221h798q62 0 62 -61v-226q0 -61 -62 -61z" />
    <glyph glyph-name="ecaron" unicode="&#x11b;" horiz-adv-x="1300" 
d="M805 1257h-283q-50 0 -73 39l-99 148q-20 31 -8 52.5t49 21.5h144q47 0 73 -39l56 -78l53 78q23 39 74 39h143q37 0 49 -21.5t-8 -52.5l-96 -148q-26 -39 -74 -39zM1075 0h-559q-222 0 -323 113.5t-101 341.5v247q0 223 101 336t323 113h289q222 0 323 -113t101 -336
v-182q0 -61 -62 -61h-731v-43q0 -55 20 -76t68 -21h551q62 0 62 -61v-197q0 -61 -62 -61zM436 735v-41h449v41q0 54 -20 75t-68 21h-273q-50 0 -69 -20.5t-19 -75.5z" />
    <glyph glyph-name="Gcircumflex" unicode="&#x11c;" horiz-adv-x="1636" 
d="M498 1624l98 148q23 38 74 38h282q49 0 74 -38l96 -148q20 -32 9 -53t-48 -21h-145q-51 0 -74 39l-53 78l-55 -78q-26 -39 -74 -39h-143q-37 0 -49 21.5t8 52.5zM1049 0h-478q-234 0 -359.5 133.5t-125.5 364.5v448q0 233 125.5 366.5t359.5 133.5h478
q218 0 341.5 -111.5t141.5 -312.5q3 -64 -62 -64h-241q-55 0 -64 62q-10 46 -35 62t-81 16h-478q-69 0 -94.5 -27.5t-25.5 -112.5v-473q0 -81 27.5 -109t92.5 -28h478q65 0 92.5 28t27.5 109v47h-262q-61 0 -61 62v190q0 62 61 62h566q61 0 61 -62v-286
q0 -231 -125.5 -364.5t-359.5 -133.5z" />
    <glyph glyph-name="gcircumflex" unicode="&#x11d;" horiz-adv-x="1396" 
d="M371 1335l98 148q23 39 74 39h282q48 0 74 -39l96 -148q20 -32 9 -52.5t-48 -20.5h-145q-51 0 -74 38l-53 78l-55 -78q-25 -38 -74 -38h-143q-37 0 -49 21t8 52zM848 -403h-496q-61 0 -61 61v197q0 61 61 61h496q48 0 68 21t20 75v207q-79 -119 -272 -119h-148
q-222 0 -323 113.5t-101 341.5v147q0 223 101 336t323 113h148q193 0 272 -119v58q0 61 61 61h222q61 0 61 -61v-1039q0 -226 -104 -340t-328 -114zM524 420h324q48 0 68 21t20 75v219q0 55 -19 75.5t-69 20.5h-324q-50 0 -69 -20.5t-19 -75.5v-219q0 -54 20 -75t68 -21z
" />
    <glyph glyph-name="Gbreve" unicode="&#x11e;" horiz-adv-x="1636" 
d="M811 1548q-338 0 -338 238q0 31 62 31h141q61 0 61 -17v-18q0 -34 17 -47t57 -13q39 0 55 13q17 14 17 47q0 35 61 35h141q62 0 62 -19v-18q0 -125 -82 -178.5t-254 -53.5zM1049 0h-478q-234 0 -359.5 133.5t-125.5 364.5v448q0 233 125.5 366.5t359.5 133.5h478
q218 0 341.5 -111.5t141.5 -312.5q3 -64 -62 -64h-241q-55 0 -64 62q-10 46 -35 62t-81 16h-478q-69 0 -94.5 -27.5t-25.5 -112.5v-473q0 -81 27.5 -109t92.5 -28h478q65 0 92.5 28t27.5 109v47h-262q-61 0 -61 62v190q0 62 61 62h566q61 0 61 -62v-286
q0 -231 -125.5 -364.5t-359.5 -133.5z" />
    <glyph glyph-name="gbreve" unicode="&#x11f;" horiz-adv-x="1396" 
d="M684 1251q-338 0 -338 238q0 31 62 31h141q61 0 61 -17v-18q0 -34 17 -47t57 -13q39 0 55 13q17 14 17 47q0 35 61 35h141q62 0 62 -19v-18q0 -125 -82 -178.5t-254 -53.5zM848 -403h-496q-61 0 -61 61v197q0 61 61 61h496q48 0 68 21t20 75v207q-79 -119 -272 -119h-148
q-222 0 -323 113.5t-101 341.5v147q0 223 101 336t323 113h148q193 0 272 -119v58q0 61 61 61h222q61 0 61 -61v-1039q0 -226 -104 -340t-328 -114zM524 420h324q48 0 68 21t20 75v219q0 55 -19 75.5t-69 20.5h-324q-50 0 -69 -20.5t-19 -75.5v-219q0 -54 20 -75t68 -21z
" />
    <glyph glyph-name="Gdotaccent" unicode="&#x120;" horiz-adv-x="1636" 
d="M907 1552h-192q-62 0 -62 62v139q0 62 62 62h192q62 0 62 -62v-139q0 -62 -62 -62zM1049 0h-478q-234 0 -359.5 133.5t-125.5 364.5v448q0 233 125.5 366.5t359.5 133.5h478q218 0 341.5 -111.5t141.5 -312.5q3 -64 -62 -64h-241q-55 0 -64 62q-10 46 -35 62t-81 16h-478
q-69 0 -94.5 -27.5t-25.5 -112.5v-473q0 -81 27.5 -109t92.5 -28h478q65 0 92.5 28t27.5 109v47h-262q-61 0 -61 62v190q0 62 61 62h566q61 0 61 -62v-286q0 -231 -125.5 -364.5t-359.5 -133.5z" />
    <glyph glyph-name="gdotaccent" unicode="&#x121;" horiz-adv-x="1396" 
d="M780 1268h-192q-62 0 -62 61v139q0 62 62 62h192q62 0 62 -62v-139q0 -61 -62 -61zM848 -403h-496q-61 0 -61 61v197q0 61 61 61h496q48 0 68 21t20 75v207q-79 -119 -272 -119h-148q-222 0 -323 113.5t-101 341.5v147q0 223 101 336t323 113h148q193 0 272 -119v58
q0 61 61 61h222q61 0 61 -61v-1039q0 -226 -104 -340t-328 -114zM524 420h324q48 0 68 21t20 75v219q0 55 -19 75.5t-69 20.5h-324q-50 0 -69 -20.5t-19 -75.5v-219q0 -54 20 -75t68 -21z" />
    <glyph glyph-name="Gcommaaccent" unicode="&#x122;" horiz-adv-x="1636" 
d="M1049 0h-478q-234 0 -359.5 133.5t-125.5 364.5v448q0 233 125.5 366.5t359.5 133.5h478q218 0 341.5 -111.5t141.5 -312.5q3 -64 -62 -64h-241q-55 0 -64 62q-10 46 -35 62t-81 16h-478q-69 0 -94.5 -27.5t-25.5 -112.5v-473q0 -81 27.5 -109t92.5 -28h478q65 0 92.5 28
t27.5 109v47h-262q-61 0 -61 62v190q0 62 61 62h566q61 0 61 -62v-286q0 -231 -125.5 -364.5t-359.5 -133.5zM852 -403h-137q-68 0 -56 65l29 168q9 55 68 55h194q35 0 48 -19.5t-1 -51.5l-73 -170q-21 -47 -72 -47z" />
    <glyph glyph-name="gcommaaccent" unicode="&#x123;" horiz-adv-x="1396" 
d="M686 1548h137q68 0 56 -65l-29 -168q-9 -55 -68 -55h-194q-35 0 -48 19.5t1 51.5l73 170q21 47 72 47zM848 -403h-496q-61 0 -61 61v197q0 61 61 61h496q48 0 68 21t20 75v207q-79 -119 -272 -119h-148q-222 0 -323 113.5t-101 341.5v147q0 223 101 336t323 113h148
q193 0 272 -119v58q0 61 61 61h222q61 0 61 -61v-1039q0 -226 -104 -340t-328 -114zM524 420h324q48 0 68 21t20 75v219q0 55 -19 75.5t-69 20.5h-324q-50 0 -69 -20.5t-19 -75.5v-219q0 -54 20 -75t68 -21z" />
    <glyph glyph-name="Hcircumflex" unicode="&#x124;" horiz-adv-x="1622" 
d="M487 1624l99 148q23 38 73 38h283q49 0 74 -38l96 -148q20 -32 9 -53t-48 -21h-145q-51 0 -74 39l-53 78l-56 -78q-26 -39 -73 -39h-144q-37 0 -49 21.5t8 52.5zM432 0h-242q-61 0 -61 61v1323q0 62 61 62h242q62 0 62 -62v-510h634v510q0 62 62 62h242q61 0 61 -62
v-1323q0 -61 -61 -61h-242q-62 0 -62 61v498h-634v-498q0 -61 -62 -61z" />
    <glyph glyph-name="hcircumflex" unicode="&#x125;" 
d="M741 1702l-53 78l-55 -78q-26 -39 -74 -39h-143q-37 0 -49 21.5t8 52.5l98 147q23 39 74 39h282q48 0 74 -39l96 -147q20 -32 9.5 -53t-47.5 -21h-146q-51 0 -74 39zM733 1151h107q222 0 323 -113.5t101 -341.5v-635q0 -61 -62 -61h-221q-61 0 -61 61v674q0 54 -20.5 75
t-68.5 21h-282q-48 0 -68 -21t-20 -75v-674q0 -61 -62 -61h-221q-61 0 -61 61v1432q0 61 61 61h221q62 0 62 -61v-463q80 121 272 121z" />
    <glyph glyph-name="Hbar" unicode="&#x126;" horiz-adv-x="1671" 
d="M1513 1315h60q57 0 57 -62v-192q0 -62 -57 -62h-60v-938q0 -61 -61 -61h-242q-61 0 -61 61v498h-635v-498q0 -61 -61 -61h-242q-61 0 -61 61v938h-48q-61 0 -61 62v192q0 62 55 62h54v69q0 62 61 62h242q61 0 61 -62v-69h635v69q0 62 61 62h242q61 0 61 -62v-69zM514 874
h635v125h-635v-125z" />
    <glyph glyph-name="hbar" unicode="&#x127;" horiz-adv-x="1392" 
d="M760 1151h106q222 0 323 -113.5t101 -341.5v-635q0 -61 -61 -61h-221q-62 0 -62 61v674q0 54 -20 75t-68 21h-283q-48 0 -68 -21t-20 -75v-674q0 -61 -61 -61h-221q-62 0 -62 61v1178h-61q-62 0 -62 61v111q0 62 62 62h61v20q0 61 62 61h221q61 0 61 -41v-40h187
q61 0 61 -62v-111q0 -61 -61 -61h-187v-209q80 121 273 121z" />
    <glyph glyph-name="Itilde" unicode="&#x128;" horiz-adv-x="608" 
d="M76 1579q-72 -28 -72 43v121q0 52 45 72q47 21 96 24q14 1 26 1.5t25 -0.5t19 -1.5t21.5 -4t19.5 -4t25 -6.5t26 -7l76 -21q22 -7 71 -5.5t87 13.5q71 27 71 -43v-121q0 -52 -43 -73q-73 -34 -147 -25l-41 6l-45 15l-39 12q-120 39 -221 4zM430 0h-240q-61 0 -61 61v1323
q0 62 61 62h240q62 0 62 -62v-1323q0 -61 -62 -61z" />
    <glyph glyph-name="itilde" unicode="&#x129;" horiz-adv-x="559" 
d="M37 1290q-72 -28 -72 43v121q0 52 45 72q50 21 101 24q18 1 33 1.5t25.5 0t25.5 -3.5l22.5 -4.5t29 -7t32.5 -8.5q49 -14 77 -21q22 -7 72 -4.5t90 15.5q72 21 72 -45v-121q0 -53 -43 -74q-76 -34 -154 -25l-41 7l-45 14l-41 12q-123 40 -229 4zM391 0h-221q-61 0 -61 61
v1029q0 61 61 61h221q62 0 62 -61v-1029q0 -61 -62 -61z" />
    <glyph glyph-name="Imacron" unicode="&#x12a;" horiz-adv-x="612" 
d="M541 1552h-469q-62 0 -62 62v117q0 61 62 61h469q61 0 61 -61v-117q0 -62 -61 -62zM430 0h-240q-61 0 -61 61v1323q0 62 61 62h240q62 0 62 -62v-1323q0 -61 -62 -61z" />
    <glyph glyph-name="imacron" unicode="&#x12b;" horiz-adv-x="557" 
d="M512 1255h-469q-61 0 -61 62v117q0 61 61 61h469q61 0 61 -61v-117q0 -62 -61 -62zM391 0h-221q-61 0 -61 61v1029q0 61 61 61h221q62 0 62 -61v-1029q0 -61 -62 -61z" />
    <glyph glyph-name="Ibreve" unicode="&#x12c;" horiz-adv-x="612" 
d="M305 1546q-338 0 -338 238q0 31 62 31h141q61 0 61 -17v-18q0 -34 17 -47t57 -13q39 0 55 13q17 14 17 47q0 35 61 35h142q61 0 61 -19v-18q0 -125 -82 -178.5t-254 -53.5zM430 0h-240q-61 0 -61 61v1323q0 62 61 62h240q62 0 62 -62v-1323q0 -61 -62 -61z" />
    <glyph glyph-name="ibreve" unicode="&#x12d;" horiz-adv-x="571" 
d="M291 1251q-338 0 -338 238q0 31 61 31h142q61 0 61 -17v-18q0 -34 17 -47t57 -13q39 0 55 13t16 47q0 35 62 35h141q62 0 62 -19v-18q0 -125 -82 -178.5t-254 -53.5zM397 0h-221q-61 0 -61 61v1029q0 61 61 61h221q62 0 62 -61v-1029q0 -61 -62 -61z" />
    <glyph glyph-name="Iogonek" unicode="&#x12e;" horiz-adv-x="620" 
d="M492 -209v-129q0 -62 -66 -59q-186 7 -259 65t-73 191q0 93 35 143v1382q0 62 61 62h240q62 0 62 -62v-1323q0 -61 -64 -61q-54 -4 -70 -19t-16 -59q0 -35 18 -49.5t68 -19.5q64 -6 64 -62z" />
    <glyph glyph-name="iogonek" unicode="&#x12f;" horiz-adv-x="565" 
d="M178 1554h221q62 0 62 -61v-164q0 -61 -62 -61h-221q-61 0 -61 61v164q0 61 61 61zM326 -78q0 -36 14.5 -50.5t58.5 -18.5q64 -6 64 -62v-129q0 -62 -66 -59q-181 7 -250 65t-69 191q0 96 39 147v1084q0 61 61 61h221q62 0 62 -61v-1029q0 -25 -20.5 -40t-69.5 -27
q-45 -9 -45 -72z" />
    <glyph glyph-name="Idot" unicode="&#x130;" horiz-adv-x="620" 
d="M403 1559h-192q-61 0 -61 61v139q0 62 61 62h192q62 0 62 -62v-139q0 -61 -62 -61zM430 0h-240q-61 0 -61 61v1323q0 62 61 62h240q62 0 62 -62v-1323q0 -61 -62 -61z" />
    <glyph glyph-name="dotlessi" unicode="&#x131;" horiz-adv-x="577" 
d="M399 0h-221q-61 0 -61 61v1029q0 61 61 61h221q62 0 62 -61v-1029q0 -61 -62 -61z" />
    <glyph glyph-name="Jcircumflex" unicode="&#x134;" horiz-adv-x="1591" 
d="M489 1628l99 148q23 39 74 39h282q48 0 74 -39l96 -148q20 -32 9 -53t-48 -21h-145q-51 0 -74 39l-53 78l-55 -78q-26 -39 -74 -39h-144q-37 0 -49 21.5t8 52.5zM1004 0h-416q-234 0 -360 133.5t-126 364.5v172q0 61 62 61h242q61 0 61 -61v-185q0 -81 28 -109t93 -28
h416q65 0 92.5 28t27.5 109v899q0 62 62 62h241q62 0 62 -62v-886q0 -231 -125.5 -364.5t-359.5 -133.5z" />
    <glyph glyph-name="jcircumflex" unicode="&#x135;" horiz-adv-x="575" 
d="M-16 1329l98 148q23 39 74 39h282q48 0 74 -39l96 -148q20 -32 9 -53t-48 -21h-145q-51 0 -74 39l-53 78l-55 -78q-26 -39 -74 -39h-143q-37 0 -49 21.5t8 52.5zM403 -403h-221q-61 0 -61 61v1432q0 61 61 61h221q62 0 62 -61v-1432q0 -61 -62 -61z" />
    <glyph glyph-name="Kcommaaccent" unicode="&#x136;" horiz-adv-x="1583" 
d="M432 0h-242q-61 0 -61 61v1323q0 62 61 62h242q62 0 62 -62v-510h213l389 535q24 37 75 37h293q38 0 49 -22.5t-12 -53.5l-491 -645l491 -649q23 -31 12 -53.5t-49 -22.5h-293q-51 0 -75 37l-389 522h-213v-498q0 -61 -62 -61zM793 -403h-138q-67 0 -55 65l29 168
q9 55 67 55h195q35 0 48 -19.5t-1 -51.5l-74 -170q-21 -47 -71 -47z" />
    <glyph glyph-name="kcommaaccent" unicode="&#x137;" horiz-adv-x="1304" 
d="M393 0h-223q-61 0 -61 61v1432q0 61 61 61h223q62 0 62 -61v-780h153l269 399q23 39 73 39h262q39 0 50.5 -21.5t-11.5 -52.5l-352 -499l352 -504q20 -31 9 -52.5t-48 -21.5h-262q-50 0 -73 39l-269 391h-153v-369q0 -61 -62 -61zM662 -403h-138q-67 0 -55 65l29 168
q9 55 67 55h195q35 0 48 -19.5t-1 -51.5l-74 -170q-21 -47 -71 -47z" />
    <glyph glyph-name="kgreenlandic" unicode="&#x138;" horiz-adv-x="1304" 
d="M393 0h-223q-61 0 -61 61v1029q0 61 61 61h223q62 0 62 -61v-377h153l269 399q23 39 73 39h262q39 0 50.5 -21.5t-11.5 -52.5l-352 -499l352 -504q20 -31 9 -52.5t-48 -21.5h-262q-50 0 -73 39l-269 391h-153v-369q0 -61 -62 -61z" />
    <glyph glyph-name="Lacute" unicode="&#x139;" horiz-adv-x="1327" 
d="M408 1554h-160q-32 0 -46 19.5t-3 50.5l47 139q15 52 69 52h228q37 0 48 -21t-9 -53l-101 -148q-23 -39 -73 -39zM1241 0h-1051q-61 0 -61 61v1323q0 62 61 62h242q62 0 62 -62v-1036h747q62 0 62 -61v-226q0 -61 -62 -61z" />
    <glyph glyph-name="lacute" unicode="&#x13a;" horiz-adv-x="581" 
d="M377 1657h-160q-32 0 -45.5 19t-3.5 50l47 140q15 51 70 51h227q37 0 48 -21t-9 -53l-100 -147q-23 -39 -74 -39zM399 0h-221q-61 0 -61 61v1432q0 61 61 61h221q62 0 62 -61v-1432q0 -61 -62 -61z" />
    <glyph glyph-name="Lcommaaccent" unicode="&#x13b;" horiz-adv-x="1327" 
d="M1241 0h-1051q-61 0 -61 61v1323q0 62 61 62h242q62 0 62 -62v-1036h747q62 0 62 -61v-226q0 -61 -62 -61zM700 -403h-137q-67 0 -55 65l29 168q9 55 67 55h195q35 0 48 -19.5t-1 -51.5l-74 -170q-21 -47 -72 -47z" />
    <glyph glyph-name="lcommaaccent" unicode="&#x13c;" horiz-adv-x="567" 
d="M412 0h-222q-61 0 -61 61v1432q0 61 61 61h222q61 0 61 -61v-1432q0 -61 -61 -61zM295 -403h-137q-68 0 -56 65l29 168q9 55 68 55h194q35 0 48 -19.5t-1 -51.5l-73 -170q-21 -47 -72 -47z" />
    <glyph glyph-name="Lcaron" unicode="&#x13d;" horiz-adv-x="1327" 
d="M1241 0h-1051q-61 0 -61 61v1323q0 62 61 62h242q62 0 62 -62v-1036h747q62 0 62 -61v-226q0 -61 -62 -61zM903 721h-178q-32 0 -46.5 18t-6.5 49l131 543q12 53 67 53h242q32 0 45.5 -19t3.5 -50l-188 -545q-18 -49 -70 -49z" />
    <glyph glyph-name="lcaron" unicode="&#x13e;" horiz-adv-x="927" 
d="M395 0h-225q-61 0 -61 61v1432q0 61 61 61h225q62 0 62 -61v-1432q0 -61 -62 -61zM778 762h-139q-32 0 -46.5 18t-6.5 49l131 562q12 53 67 53h242q32 0 45.5 -20t1.5 -52l-225 -563q-18 -47 -70 -47z" />
    <glyph glyph-name="Ldot" unicode="&#x13f;" horiz-adv-x="1327" 
d="M1241 0h-1051q-61 0 -61 61v1323q0 62 61 62h242q62 0 62 -62v-1036h747q62 0 62 -61v-226q0 -61 -62 -61zM1053 614h-240q-61 0 -61 62v248q0 61 61 61h240q61 0 61 -61v-248q0 -62 -61 -62z" />
    <glyph glyph-name="ldot" unicode="&#x140;" horiz-adv-x="958" 
d="M399 0h-221q-61 0 -61 61v1432q0 61 61 61h221q62 0 62 -61v-1432q0 -61 -62 -61zM877 403h-240q-62 0 -62 62v248q0 61 62 61h240q61 0 61 -61v-248q0 -62 -61 -62z" />
    <glyph glyph-name="Lslash" unicode="&#x141;" horiz-adv-x="1341" 
d="M508 641v-293h747q62 0 62 -61v-226q0 -61 -62 -61h-1050q-62 0 -62 61v457l-69 -22q-31 -11 -50.5 3t-19.5 46v203q0 54 49 69l90 31v536q0 62 62 62h241q62 0 62 -62v-413l237 80q31 10 50.5 -4t19.5 -46v-202q0 -52 -49 -70z" />
    <glyph glyph-name="lslash" unicode="&#x142;" horiz-adv-x="657" 
d="M504 954l67 23q29 10 47.5 -4.5t18.5 -46.5v-156q0 -55 -49 -70l-84 -28v-611q0 -61 -62 -61h-225q-61 0 -61 61v496l-66 -22q-31 -10 -50.5 4.5t-19.5 46.5v155q0 55 52 70l84 29v653q0 61 61 61h225q62 0 62 -61v-539z" />
    <glyph glyph-name="Nacute" unicode="&#x143;" horiz-adv-x="1660" 
d="M940 1552h-160q-32 0 -46 19.5t-3 50.5l47 139q15 51 70 51h227q37 0 48 -20.5t-9 -52.5l-100 -148q-23 -39 -74 -39zM432 0h-242q-61 0 -61 61v1323q0 62 61 62h236q46 0 76 -37l665 -850v825q0 62 62 62h241q62 0 62 -62v-1323q0 -61 -62 -61h-235q-46 0 -76 37
l-665 846v-822q0 -61 -62 -61z" />
    <glyph glyph-name="nacute" unicode="&#x144;" 
d="M719 1518h227q37 0 48 -21t-9 -53l-100 -148q-23 -39 -74 -39h-160q-32 0 -46 19.5t-3 50.5l47 139q15 52 70 52zM733 1151h107q222 0 323 -113.5t101 -341.5v-635q0 -61 -62 -61h-221q-61 0 -61 61v674q0 54 -20.5 75t-68.5 21h-282q-48 0 -68 -21t-20 -75v-674
q0 -61 -62 -61h-221q-61 0 -61 61v1029q0 61 61 61h221q62 0 62 -59v-62q80 121 272 121z" />
    <glyph glyph-name="Ncommaaccent" unicode="&#x145;" horiz-adv-x="1660" 
d="M432 0h-242q-61 0 -61 61v1323q0 62 61 62h236q46 0 76 -37l665 -850v825q0 62 62 62h241q62 0 62 -62v-1323q0 -61 -62 -61h-235q-46 0 -76 37l-665 846v-822q0 -61 -62 -61zM821 -403h-137q-67 0 -55 65l28 168q9 55 68 55h195q35 0 48 -19.5t-1 -51.5l-74 -170
q-21 -47 -72 -47z" />
    <glyph glyph-name="ncommaaccent" unicode="&#x146;" 
d="M733 1151h107q222 0 323 -113.5t101 -341.5v-635q0 -61 -62 -61h-221q-61 0 -61 61v674q0 54 -20.5 75t-68.5 21h-282q-48 0 -68 -21t-20 -75v-674q0 -61 -62 -61h-221q-61 0 -61 61v1029q0 61 61 61h221q62 0 62 -59v-62q80 121 272 121zM680 -403h-137q-68 0 -56 65
l29 168q9 55 68 55h194q35 0 48 -19.5t-1 -51.5l-73 -170q-21 -47 -72 -47z" />
    <glyph glyph-name="Ncaron" unicode="&#x147;" horiz-adv-x="1660" 
d="M971 1554h-283q-51 0 -74 39l-98 148q-20 31 -8 52.5t49 21.5h143q48 0 74 -39l55 -78l54 78q23 39 73 39h144q37 0 49 -21.5t-8 -52.5l-97 -148q-26 -39 -73 -39zM432 0h-242q-61 0 -61 61v1323q0 62 61 62h236q46 0 76 -37l665 -850v825q0 62 62 62h241q62 0 62 -62
v-1323q0 -61 -62 -61h-235q-46 0 -76 37l-665 846v-822q0 -61 -62 -61z" />
    <glyph glyph-name="ncaron" unicode="&#x148;" 
d="M1008 1444l-97 -148q-26 -39 -73 -39h-283q-51 0 -74 39l-98 148q-20 31 -8 52.5t49 21.5h143q48 0 74 -39l55 -78l54 78q23 39 73 39h146q37 0 48 -21t-9 -53zM733 1151h107q222 0 323 -113.5t101 -341.5v-635q0 -61 -62 -61h-221q-61 0 -61 61v674q0 54 -20.5 75
t-68.5 21h-282q-48 0 -68 -21t-20 -75v-674q0 -61 -62 -61h-221q-61 0 -61 61v1029q0 61 61 61h221q62 0 62 -59v-62q80 121 272 121z" />
    <glyph glyph-name="Eng" unicode="&#x14a;" horiz-adv-x="1660" 
d="M1047 -403h-256q-62 0 -62 61v225q0 62 62 62h256q56 0 83 10q37 11 37 72l-673 856v-822q0 -61 -62 -61h-242q-61 0 -61 61v1323q0 62 61 62h236q46 0 76 -37l665 -850v825q0 62 62 62h241q62 0 62 -62v-1316q0 -228 -123 -349.5t-362 -121.5z" />
    <glyph glyph-name="eng" unicode="&#x14b;" horiz-adv-x="1363" 
d="M731 1151h107q222 0 323 -113.5t101 -341.5v-1038q0 -61 -62 -61h-221q-61 0 -61 61v1077q0 54 -20.5 75t-68.5 21h-282q-48 0 -68 -21t-20 -75v-674q0 -61 -62 -61h-221q-61 0 -61 61v1029q0 61 61 61h221q62 0 62 -59v-62q80 121 272 121z" />
    <glyph glyph-name="Omacron" unicode="&#x14c;" horiz-adv-x="1714" 
d="M1092 1554h-469q-62 0 -62 62v117q0 61 62 61h469q61 0 61 -61v-117q0 -62 -61 -62zM1126 0h-538q-234 0 -360 133.5t-126 364.5v448q0 233 126 366.5t360 133.5h538q234 0 360 -133.5t126 -366.5v-448q0 -231 -126 -364.5t-360 -133.5zM588 348h538q65 0 93 28t28 109
v473q0 85 -26 112.5t-95 27.5h-538q-69 0 -95 -27.5t-26 -112.5v-473q0 -81 28 -109t93 -28z" />
    <glyph glyph-name="omacron" unicode="&#x14d;" horiz-adv-x="1372" 
d="M913 1253h-469q-61 0 -61 62v117q0 61 61 61h469q62 0 62 -61v-117q0 -62 -62 -62zM856 0h-340q-222 0 -323 113.5t-101 341.5v247q0 223 101 336t323 113h340q222 0 323 -113t101 -336v-247q0 -228 -101 -341.5t-323 -113.5zM524 319h324q48 0 68 21t20 76v319
q0 55 -19 75.5t-69 20.5h-324q-50 0 -69 -20.5t-19 -75.5v-319q0 -55 20 -76t68 -21z" />
    <glyph glyph-name="Obreve" unicode="&#x14e;" horiz-adv-x="1714" 
d="M858 1554q-338 0 -338 238q0 31 62 31h141q61 0 61 -17v-18q0 -34 17 -46.5t57 -12.5t55 12q17 14 17 47q0 35 61 35h142q61 0 61 -19v-18q0 -125 -82 -178.5t-254 -53.5zM1126 0h-538q-234 0 -360 133.5t-126 364.5v448q0 233 126 366.5t360 133.5h538q234 0 360 -133.5
t126 -366.5v-448q0 -231 -126 -364.5t-360 -133.5zM588 348h538q65 0 93 28t28 109v473q0 85 -26 112.5t-95 27.5h-538q-69 0 -95 -27.5t-26 -112.5v-473q0 -81 28 -109t93 -28z" />
    <glyph glyph-name="obreve" unicode="&#x14f;" horiz-adv-x="1372" 
d="M680 1253q-338 0 -338 238q0 31 61 31h142q61 0 61 -17v-18q0 -34 17 -47t57 -13q39 0 55 13q17 14 17 47q0 35 61 35h141q62 0 62 -19v-18q0 -125 -82 -178.5t-254 -53.5zM856 0h-340q-222 0 -323 113.5t-101 341.5v247q0 223 101 336t323 113h340q222 0 323 -113
t101 -336v-247q0 -228 -101 -341.5t-323 -113.5zM524 319h324q48 0 68 21t20 76v319q0 55 -19 75.5t-69 20.5h-324q-50 0 -69 -20.5t-19 -75.5v-319q0 -55 20 -76t68 -21z" />
    <glyph glyph-name="Ohungarumlaut" unicode="&#x150;" horiz-adv-x="1714" 
d="M741 1552h-133q-32 0 -46.5 19.5t-4.5 50.5l47 139q15 51 70 51h178q35 0 47.5 -21t-4.5 -52l-80 -144q-21 -43 -74 -43zM1163 1552h-131q-32 0 -46.5 19.5t-4.5 50.5l45 139q15 51 70 51h178q35 0 47.5 -21t-4.5 -52l-80 -144q-21 -43 -74 -43zM1126 0h-538
q-234 0 -360 133.5t-126 364.5v448q0 233 126 366.5t360 133.5h538q234 0 360 -133.5t126 -366.5v-448q0 -231 -126 -364.5t-360 -133.5zM588 348h538q65 0 93 28t28 109v473q0 85 -26 112.5t-95 27.5h-538q-69 0 -95 -27.5t-26 -112.5v-473q0 -81 28 -109t93 -28z" />
    <glyph glyph-name="ohungarumlaut" unicode="&#x151;" horiz-adv-x="1372" 
d="M551 1255h-133q-32 0 -46.5 19.5t-4.5 50.5l47 139q15 52 69 52h179q35 0 47.5 -21.5t-4.5 -52.5l-80 -144q-21 -43 -74 -43zM973 1255h-131q-32 0 -46.5 19.5t-4.5 50.5l45 139q15 52 69 52h178q35 0 47.5 -21.5t-4.5 -52.5l-79 -144q-21 -43 -74 -43zM856 0h-340
q-222 0 -323 113.5t-101 341.5v247q0 223 101 336t323 113h340q222 0 323 -113t101 -336v-247q0 -228 -101 -341.5t-323 -113.5zM524 319h324q48 0 68 21t20 76v319q0 55 -19 75.5t-69 20.5h-324q-50 0 -69 -20.5t-19 -75.5v-319q0 -55 20 -76t68 -21z" />
    <glyph glyph-name="OE" unicode="&#x152;" horiz-adv-x="2547" 
d="M907 0h-319q-234 0 -360 133.5t-126 364.5v448q0 233 126 366.5t360 133.5h319q234 0 342 -135v73q0 62 62 62h1099q62 0 62 -62v-227q0 -61 -62 -61h-798v-211h485q62 0 62 -62v-192q0 -62 -62 -62h-485v-221h798q62 0 62 -61v-226q0 -61 -62 -61h-1099q-62 0 -62 61v74
q-108 -135 -342 -135zM588 348h538q65 0 93 28t28 109v473q0 85 -26 112.5t-95 27.5h-538q-69 0 -95 -27.5t-26 -112.5v-473q0 -81 28 -109t93 -28z" />
    <glyph glyph-name="oe" unicode="&#x153;" horiz-adv-x="2129" 
d="M2058 702v-182q0 -61 -61 -61h-731v-43q0 -55 20 -76t68 -21h559q61 0 61 -61v-197q0 -61 -61 -61h-518q-218 0 -297 119q-82 -119 -299 -119h-291q-222 0 -323 113.5t-101 341.5v247q0 223 101 336t323 113h291q217 0 299 -119q79 119 297 119h239q222 0 323 -113
t101 -336zM928 416v319q0 55 -19 75.5t-69 20.5h-324q-50 0 -69 -20.5t-19 -75.5v-319q0 -55 20 -76t68 -21h324q48 0 68 21t20 76zM1266 735v-41h448v41q0 55 -19 75.5t-69 20.5h-272q-48 0 -68 -21t-20 -75z" />
    <glyph glyph-name="Racute" unicode="&#x154;" horiz-adv-x="1601" 
d="M762 1817h227q37 0 48 -21t-9 -53l-100 -148q-23 -39 -74 -39h-160q-32 0 -46 19.5t-3 50.5l47 139q15 52 70 52zM1520 903v-39q0 -385 -271 -493l207 -297q20 -32 9 -53t-48 -21h-276q-53 0 -74 41l-180 289h-393v-269q0 -61 -62 -61h-242q-61 0 -61 61v1323q0 62 61 62
h744q586 0 586 -543zM903 1098h-409v-424h409q138 0 194 39t56 155v33q0 117 -55.5 157t-194.5 40z" />
    <glyph glyph-name="racute" unicode="&#x155;" horiz-adv-x="940" 
d="M506 1518h227q37 0 48 -21t-9 -53l-100 -148q-23 -39 -74 -39h-160q-32 0 -46 19.5t-3 50.5l47 139q15 52 70 52zM733 1151h125q62 0 62 -61v-197q0 -62 -62 -62h-309q-48 0 -68 -21t-20 -75v-674q0 -61 -62 -61h-221q-61 0 -61 61v1029q0 61 61 61h221q62 0 62 -59v-62
q80 121 272 121z" />
    <glyph glyph-name="Rcommaaccent" unicode="&#x156;" horiz-adv-x="1601" 
d="M1520 903v-39q0 -385 -271 -493l207 -297q20 -32 9 -53t-48 -21h-276q-53 0 -74 41l-180 289h-393v-269q0 -61 -62 -61h-242q-61 0 -61 61v1323q0 62 61 62h744q586 0 586 -543zM903 1098h-409v-424h409q138 0 194 39t56 155v33q0 117 -55.5 157t-194.5 40zM793 -403
h-138q-67 0 -55 65l29 168q9 55 67 55h195q35 0 48 -19.5t-1 -51.5l-74 -170q-21 -47 -71 -47z" />
    <glyph glyph-name="rcommaaccent" unicode="&#x157;" horiz-adv-x="940" 
d="M745 1151h125q62 0 62 -61v-197q0 -62 -62 -62h-309q-48 0 -68 -21t-20 -75v-674q0 -61 -61 -61h-222q-61 0 -61 61v1029q0 61 61 61h222q61 0 61 -59v-62q80 121 272 121zM291 -403h-137q-68 0 -56 65l29 168q9 55 68 55h194q35 0 48 -19.5t-1 -51.5l-74 -170
q-21 -47 -71 -47z" />
    <glyph glyph-name="Rcaron" unicode="&#x158;" horiz-adv-x="1601" 
d="M1104 1739l-96 -148q-26 -39 -74 -39h-283q-50 0 -73 39l-99 148q-20 31 -8 52t49 21h144q48 0 73 -38l56 -78l53 78q23 38 74 38h145q37 0 48 -20.5t-9 -52.5zM1520 903v-39q0 -385 -271 -493l207 -297q20 -32 9 -53t-48 -21h-276q-53 0 -74 41l-180 289h-393v-269
q0 -61 -62 -61h-242q-61 0 -61 61v1323q0 62 61 62h744q586 0 586 -543zM903 1098h-409v-424h409q138 0 194 39t56 155v33q0 117 -55.5 157t-194.5 40z" />
    <glyph glyph-name="rcaron" unicode="&#x159;" horiz-adv-x="940" 
d="M811 1446l-96 -148q-25 -38 -74 -38h-283q-50 0 -73 38l-99 148q-20 31 -8 52.5t49 21.5h144q47 0 73 -39l56 -78l53 78q23 39 74 39h145q37 0 48 -21t-9 -53zM733 1151h125q62 0 62 -61v-197q0 -62 -62 -62h-309q-48 0 -68 -21t-20 -75v-674q0 -61 -62 -61h-221
q-61 0 -61 61v1029q0 61 61 61h221q62 0 62 -59v-62q80 121 272 121z" />
    <glyph glyph-name="Sacute" unicode="&#x15a;" horiz-adv-x="1570" 
d="M836 1550h-160q-32 0 -46 19.5t-3 50.5l47 139q15 51 69 51h228q37 0 48 -20.5t-9 -52.5l-101 -148q-23 -39 -73 -39zM997 0h-415q-450 0 -484 424q-3 63 62 63h243q49 0 64 -59q21 -80 115 -80h411q70 0 99.5 21.5t29.5 76.5t-26 78.5t-90 28.5l-463 35
q-235 19 -336 114t-101 299q0 445 486 445h385q449 0 483 -424q3 -64 -61 -64h-244q-48 0 -63 60q-21 80 -115 80h-381q-70 0 -99.5 -22t-29.5 -77q0 -54 26.5 -76.5t90.5 -27.5l463 -35q232 -17 334 -115t102 -301q0 -444 -486 -444z" />
    <glyph glyph-name="sacute" unicode="&#x15b;" horiz-adv-x="1198" 
d="M700 1255h-159q-32 0 -46 19.5t-3 50.5l47 139q15 52 69 52h228q37 0 47.5 -21t-9.5 -53l-100 -148q-23 -39 -74 -39zM707 0h-539q-62 0 -62 61v197q0 61 62 61h541q79 0 79 54q0 29 -16.5 40.5t-60.5 16.5l-289 35q-185 21 -264 100q-76 79 -76 248q0 172 102 255
t310 83h530q61 0 61 -61v-197q0 -62 -61 -62h-522q-78 0 -78 -55q0 -51 65 -57l281 -35q202 -25 284.5 -105.5t82.5 -246.5q0 -177 -102.5 -254.5t-327.5 -77.5z" />
    <glyph glyph-name="Scircumflex" unicode="&#x15c;" horiz-adv-x="1570" 
d="M446 1624l99 148q23 38 73 38h283q49 0 74 -38l96 -148q20 -32 9 -53t-48 -21h-145q-51 0 -74 39l-53 78l-55 -78q-26 -39 -74 -39h-144q-37 0 -49 21.5t8 52.5zM997 0h-415q-450 0 -484 424q-3 63 62 63h243q49 0 64 -59q21 -80 115 -80h411q70 0 99.5 21.5t29.5 76.5
t-26 78.5t-90 28.5l-463 35q-235 19 -336 114t-101 299q0 445 486 445h385q449 0 483 -424q3 -64 -61 -64h-244q-48 0 -63 60q-21 80 -115 80h-381q-70 0 -99.5 -22t-29.5 -77q0 -54 26.5 -76.5t90.5 -27.5l463 -35q232 -17 334 -115t102 -301q0 -444 -486 -444z" />
    <glyph glyph-name="scircumflex" unicode="&#x15d;" horiz-adv-x="1198" 
d="M287 1329l98 148q23 39 74 39h282q48 0 74 -39l96 -148q20 -32 9 -53t-48 -21h-145q-51 0 -74 39l-53 78l-55 -78q-26 -39 -74 -39h-143q-37 0 -49 21.5t8 52.5zM707 0h-539q-62 0 -62 61v197q0 61 62 61h541q79 0 79 54q0 29 -16.5 40.5t-60.5 16.5l-289 35
q-185 21 -264 100q-76 79 -76 248q0 172 102 255t310 83h530q61 0 61 -61v-197q0 -62 -61 -62h-522q-78 0 -78 -55q0 -51 65 -57l281 -35q202 -25 284.5 -105.5t82.5 -246.5q0 -177 -102.5 -254.5t-327.5 -77.5z" />
    <glyph glyph-name="Scedilla" unicode="&#x15e;" horiz-adv-x="1570" 
d="M584 895l463 -35q232 -17 334 -115t102 -301q0 -444 -486 -444h-71l-74 -319q-12 -54 -68 -54h-233q-32 0 -45.5 20t-1.5 52l121 301h-43q-450 0 -484 424q-3 63 62 63h243q49 0 64 -59q21 -80 115 -80h411q70 0 99.5 21.5t29.5 76.5t-26 78.5t-90 28.5l-463 35
q-235 19 -336 114t-101 299q0 445 486 445h385q449 0 483 -424q3 -64 -61 -64h-244q-48 0 -63 60q-21 80 -115 80h-381q-70 0 -99.5 -22t-29.5 -77q0 -54 26.5 -76.5t90.5 -27.5z" />
    <glyph glyph-name="scedilla" unicode="&#x15f;" horiz-adv-x="1198" 
d="M1137 332q0 -171 -96.5 -249t-307.5 -83l-74 -319q-12 -54 -67 -54h-234q-32 0 -45.5 20t-1.5 52l121 301h-264q-62 0 -62 61v197q0 61 62 61h541q79 0 79 54q0 29 -16.5 40.5t-60.5 16.5l-289 35q-185 21 -264 100q-76 79 -76 248q0 172 102 255t310 83h530q61 0 61 -61
v-197q0 -62 -61 -62h-522q-78 0 -78 -55q0 -51 65 -57l281 -35q202 -25 284.5 -105.5t82.5 -246.5z" />
    <glyph glyph-name="Scaron" unicode="&#x160;" horiz-adv-x="1570" 
d="M889 1552h-283q-51 0 -74 39l-98 148q-20 31 -8 52t49 21h143q49 0 74 -38l56 -78l53 78q23 38 73 38h144q37 0 49 -21t-8 -52l-96 -148q-26 -39 -74 -39zM997 0h-415q-450 0 -484 424q-3 63 62 63h243q49 0 64 -59q21 -80 115 -80h411q70 0 99.5 21.5t29.5 76.5
t-26 78.5t-90 28.5l-463 35q-235 19 -336 114t-101 299q0 445 486 445h385q449 0 483 -424q3 -64 -61 -64h-244q-48 0 -63 60q-21 80 -115 80h-381q-70 0 -99.5 -22t-29.5 -77q0 -54 26.5 -76.5t90.5 -27.5l463 -35q232 -17 334 -115t102 -301q0 -444 -486 -444z" />
    <glyph glyph-name="scaron" unicode="&#x161;" horiz-adv-x="1198" 
d="M737 1257h-282q-51 0 -74 39l-98 148q-20 31 -8 52.5t49 21.5h143q48 0 74 -39l55 -78l53 78q23 39 74 39h143q37 0 49 -21.5t-8 -52.5l-96 -148q-26 -39 -74 -39zM707 0h-539q-62 0 -62 61v197q0 61 62 61h541q79 0 79 54q0 29 -16.5 40.5t-60.5 16.5l-289 35
q-185 21 -264 100q-76 79 -76 248q0 172 102 255t310 83h530q61 0 61 -61v-197q0 -62 -61 -62h-522q-78 0 -78 -55q0 -51 65 -57l281 -35q202 -25 284.5 -105.5t82.5 -246.5q0 -177 -102.5 -254.5t-327.5 -77.5z" />
    <glyph glyph-name="uni0162" unicode="&#x162;" horiz-adv-x="933" 
d="M793 0h-244q-62 0 -62 61v1035h-391q-61 0 -61 61v227q0 62 61 62h1149q62 0 62 -62v-227q0 -61 -62 -61h-391v-1035q0 -61 -61 -61zM659 -403h-137q-67 0 -55 65l29 168q9 55 67 55h195q35 0 48 -19.5t-1 -51.5l-74 -170q-21 -47 -72 -47z" />
    <glyph glyph-name="uni0163" unicode="&#x163;" horiz-adv-x="985" 
d="M862 0h-254q-266 0 -360 102q-94 101 -94 332v410h-48q-61 0 -61 61v185q0 61 61 61q94 3 121 43q28 42 31 186q0 66 61 66h117q62 0 62 -62v-233h364q62 0 62 -61v-185q0 -61 -62 -61h-364v-449q0 -49 23.5 -67.5t86.5 -18.5h254q62 0 62 -61v-187q0 -61 -62 -61z
M563 -403h-137q-67 0 -55 65l28 168q9 55 68 55h195q35 0 48 -19.5t-1 -51.5l-74 -170q-21 -47 -72 -47z" />
    <glyph glyph-name="Tcaron" unicode="&#x164;" horiz-adv-x="1341" 
d="M813 1550h-283q-50 0 -73 39l-99 148q-20 31 -8 52t49 21h144q48 0 73 -38l56 -78l53 78q23 38 74 38h143q37 0 49 -21t-8 -52l-96 -148q-26 -39 -74 -39zM793 0h-244q-62 0 -62 61v1035h-391q-61 0 -61 61v227q0 62 61 62h1149q62 0 62 -62v-227q0 -61 -62 -61h-391
v-1035q0 -61 -61 -61z" />
    <glyph glyph-name="tcaron" unicode="&#x165;" horiz-adv-x="1044" 
d="M831 1264h-137q-67 0 -55 65l29 168q9 55 67 55h195q35 0 48 -19.5t-1 -51.5l-74 -170q-21 -47 -72 -47zM862 0h-254q-266 0 -360 102q-94 101 -94 332v410h-48q-61 0 -61 61v185q0 61 61 61q94 3 121 43q28 42 31 186q0 66 61 66h117q62 0 62 -62v-233h364q62 0 62 -61
v-185q0 -61 -62 -61h-364v-449q0 -49 23.5 -67.5t86.5 -18.5h254q62 0 62 -61v-187q0 -61 -62 -61z" />
    <glyph glyph-name="Tbar" unicode="&#x166;" horiz-adv-x="1343" 
d="M1309 1384v-227q0 -61 -62 -61h-391v-211h170q61 0 61 -62v-192q0 -62 -61 -62h-170v-508q0 -61 -61 -61h-244q-62 0 -62 61v508h-170q-61 0 -61 62v192q0 62 61 62h170v211h-391q-61 0 -61 61v227q0 62 61 62h1149q62 0 62 -62z" />
    <glyph glyph-name="tbar" unicode="&#x167;" horiz-adv-x="985" 
d="M924 1090v-185q0 -61 -62 -61h-364v-148h215q61 0 61 -61v-111q0 -61 -61 -61h-215v-68q0 -49 23.5 -67.5t86.5 -18.5h254q62 0 62 -61v-187q0 -61 -62 -61h-254q-266 0 -360 102q-94 101 -94 332v29h-45q-62 0 -62 61v111q0 61 53 61h54v148h-48q-61 0 -61 61v185
q0 61 61 61q94 3 121 43q28 42 31 186q0 66 61 66h117q62 0 62 -62v-233h364q62 0 62 -61z" />
    <glyph glyph-name="Utilde" unicode="&#x168;" horiz-adv-x="1722" 
d="M590 1583q-72 -28 -72 45v121q0 51 47 72q124 52 297 2q163 -46 273 -8q71 21 71 -46v-122q0 -52 -45 -72q-63 -29 -166 -29q-7 1 -22.5 4t-32 7t-18.5 4l-72 20q-139 43 -260 2zM1100 0h-477q-234 0 -360 133.5t-126 364.5v886q0 62 62 62h241q62 0 62 -62v-899
q0 -81 28 -109t93 -28h477q65 0 93 28t28 109v899q0 62 61 62h242q61 0 61 -62v-886q0 -231 -125.5 -364.5t-359.5 -133.5z" />
    <glyph glyph-name="utilde" unicode="&#x169;" 
d="M719 1266l-68 18q-139 43 -260 2q-72 -28 -72 45v121q0 50 48 72q124 52 297 2q162 -46 272 -8q72 21 72 -45v-123q0 -52 -66 -80q-14 -6 -29 -9.5t-25.5 -5.5t-27.5 -3t-24 -1h-25.5h-22.5q-9 1 -36 7.5t-33 7.5zM905 416v674q0 61 62 61h221q61 0 61 -61v-1029
q0 -61 -61 -61h-221q-62 0 -62 61v60q-80 -121 -272 -121h-107q-222 0 -323 113.5t-101 341.5v635q0 61 62 61h221q61 0 61 -61v-674q0 -54 20.5 -75.5t68.5 -21.5h282q48 0 68 21t20 76z" />
    <glyph glyph-name="Umacron" unicode="&#x16a;" horiz-adv-x="1722" 
d="M1096 1552h-469q-62 0 -62 62v117q0 61 62 61h469q61 0 61 -61v-117q0 -62 -61 -62zM1100 0h-477q-234 0 -360 133.5t-126 364.5v886q0 62 62 62h241q62 0 62 -62v-899q0 -81 28 -109t93 -28h477q65 0 93 28t28 109v899q0 62 61 62h242q61 0 61 -62v-886
q0 -231 -125.5 -364.5t-359.5 -133.5z" />
    <glyph glyph-name="umacron" unicode="&#x16b;" 
d="M432 1497h469q62 0 62 -61v-117q0 -62 -62 -62h-469q-61 0 -61 62v117q0 61 61 61zM905 416v674q0 61 62 61h221q61 0 61 -61v-1029q0 -61 -61 -61h-221q-62 0 -62 61v60q-80 -121 -272 -121h-107q-222 0 -323 113.5t-101 341.5v635q0 61 62 61h221q61 0 61 -61v-674
q0 -54 20.5 -75.5t68.5 -21.5h282q48 0 68 21t20 76z" />
    <glyph glyph-name="Ubreve" unicode="&#x16c;" horiz-adv-x="1722" 
d="M862 1548q-338 0 -338 238q0 31 62 31h141q61 0 61 -17v-18q0 -34 17 -47t57 -13t56 13t16 47q0 35 61 35h142q61 0 61 -19v-18q0 -125 -82 -178.5t-254 -53.5zM1100 0h-477q-234 0 -360 133.5t-126 364.5v886q0 62 62 62h241q62 0 62 -62v-899q0 -81 28 -109t93 -28h477
q65 0 93 28t28 109v899q0 62 61 62h242q61 0 61 -62v-886q0 -231 -125.5 -364.5t-359.5 -133.5z" />
    <glyph glyph-name="ubreve" unicode="&#x16d;" 
d="M674 1255q-338 0 -338 238q0 31 61 31h142q61 0 61 -17v-18q0 -34 17 -46.5t57 -12.5t55 12q16 13 16 47q0 35 62 35h141q62 0 62 -19v-18q0 -125 -82 -178.5t-254 -53.5zM905 416v674q0 61 62 61h221q61 0 61 -61v-1029q0 -61 -61 -61h-221q-62 0 -62 61v60
q-80 -121 -272 -121h-107q-222 0 -323 113.5t-101 341.5v635q0 61 62 61h221q61 0 61 -61v-674q0 -54 20.5 -75.5t68.5 -21.5h282q48 0 68 21t20 76z" />
    <glyph glyph-name="Uring" unicode="&#x16e;" horiz-adv-x="1722" 
d="M874 1548h-22q-116 0 -169.5 54t-53.5 161v19q0 211 223 211h22q116 0 169 -53t53 -158v-19q0 -107 -53 -161t-169 -54zM852 1718h22q48 0 48 47v9q0 28 -11 37.5t-37 9.5h-22q-27 0 -37 -9.5t-10 -37.5v-9q0 -47 47 -47zM1100 0h-477q-234 0 -360 133.5t-126 364.5v886
q0 62 62 62h241q62 0 62 -62v-899q0 -81 28 -109t93 -28h477q65 0 93 28t28 109v899q0 62 61 62h242q61 0 61 -62v-886q0 -231 -125.5 -364.5t-359.5 -133.5z" />
    <glyph glyph-name="uring" unicode="&#x16f;" 
d="M680 1251h-23q-116 0 -169.5 54t-53.5 161v19q0 211 223 211h23q116 0 168.5 -53t52.5 -158v-19q0 -107 -52.5 -161t-168.5 -54zM610 1477v-9q0 -47 47 -47h23q47 0 47 47v9q0 28 -10.5 37.5t-36.5 9.5h-23q-27 0 -37 -9.5t-10 -37.5zM905 416v674q0 61 62 61h221
q61 0 61 -61v-1029q0 -61 -61 -61h-221q-62 0 -62 61v60q-80 -121 -272 -121h-107q-222 0 -323 113.5t-101 341.5v635q0 61 62 61h221q61 0 61 -61v-674q0 -54 20.5 -75.5t68.5 -21.5h282q48 0 68 21t20 76z" />
    <glyph glyph-name="Uhungarumlaut" unicode="&#x170;" horiz-adv-x="1722" 
d="M733 1550h-133q-32 0 -46.5 19.5t-4.5 50.5l47 139q15 51 70 51h178q35 0 47.5 -21t-4.5 -52l-80 -144q-21 -43 -74 -43zM1155 1550h-131q-32 0 -46.5 19.5t-4.5 50.5l45 139q15 51 69 51h179q35 0 47.5 -21t-4.5 -52l-80 -144q-21 -43 -74 -43zM1100 0h-477
q-234 0 -360 133.5t-126 364.5v886q0 62 62 62h241q62 0 62 -62v-899q0 -81 28 -109t93 -28h477q65 0 93 28t28 109v899q0 62 61 62h242q61 0 61 -62v-886q0 -231 -125.5 -364.5t-359.5 -133.5z" />
    <glyph glyph-name="uhungarumlaut" unicode="&#x171;" 
d="M467 1518h178q35 0 47.5 -21.5t-4.5 -52.5l-80 -144q-21 -43 -73 -43h-134q-32 0 -46.5 19.5t-4.5 50.5l47 139q15 52 70 52zM889 1518h178q35 0 47.5 -21.5t-4.5 -52.5l-80 -144q-21 -43 -74 -43h-131q-32 0 -46.5 19.5t-4.5 50.5l45 139q15 52 70 52zM905 416v674
q0 61 62 61h221q61 0 61 -61v-1029q0 -61 -61 -61h-221q-62 0 -62 61v60q-80 -121 -272 -121h-107q-222 0 -323 113.5t-101 341.5v635q0 61 62 61h221q61 0 61 -61v-674q0 -54 20.5 -75.5t68.5 -21.5h282q48 0 68 21t20 76z" />
    <glyph glyph-name="Uogonek" unicode="&#x172;" horiz-adv-x="1722" 
d="M1221 485v899q0 62 61 62h242q61 0 61 -62v-886q0 -231 -125.5 -364.5t-359.5 -133.5h-64q-48 0 -66 -17.5t-18 -60.5q0 -36 15 -50.5t59 -18.5q64 -6 64 -62v-129q0 -62 -66 -59q-181 7 -250 65t-69 191q0 92 34 141h-116q-234 0 -360 133.5t-126 364.5v886q0 62 62 62
h241q62 0 62 -62v-899q0 -81 28 -109t93 -28h477q65 0 93 28t28 109z" />
    <glyph glyph-name="uogonek" unicode="&#x173;" 
d="M1249 -209v-129q0 -62 -65 -59q-181 7 -250.5 65t-69.5 191q0 98 41 151v111q-80 -121 -272 -121h-107q-222 0 -323 113.5t-101 341.5v635q0 61 62 61h221q61 0 61 -61v-674q0 -54 20.5 -75.5t68.5 -21.5h282q48 0 68 21t20 76v674q0 61 62 61h221q61 0 61 -61v-1029
q0 -57 -63 -63q-44 -5 -59 -19.5t-15 -56.5q0 -36 15 -50.5t59 -18.5q63 -6 63 -62z" />
    <glyph glyph-name="Wcircumflex" unicode="&#x174;" horiz-adv-x="2138" 
d="M768 1630l98 148q23 39 74 39h283q47 0 73 -39l97 -148q20 -32 9 -53t-48 -21h-146q-50 0 -73 39l-54 78l-55 -78q-26 -39 -74 -39h-143q-37 0 -49 21.5t8 52.5zM780 0h-264q-55 0 -70 51l-434 1325q-10 31 4.5 50.5t46.5 19.5h259q52 0 67 -51l258 -920l236 918
q12 53 69 53h254q58 0 70 -53l235 -918l258 920q15 51 68 51h258q32 0 46.5 -19.5t4.5 -50.5l-434 -1325q-15 -51 -70 -51h-264q-57 0 -69 53l-230 885l-229 -885q-12 -53 -70 -53z" />
    <glyph glyph-name="wcircumflex" unicode="&#x175;" horiz-adv-x="2041" 
d="M723 1327l98 148q23 38 74 38h283q48 0 73 -38l97 -148q20 -32 9 -53t-48 -21h-146q-50 0 -73 39l-54 78l-55 -78q-26 -39 -74 -39h-143q-37 0 -49 21.5t8 52.5zM770 0h-289q-54 0 -69 49l-363 1032q-21 70 49 70h250q53 0 68 -51l215 -738l213 738q15 51 67 51h265
q52 0 67 -51l211 -738l213 738q15 51 68 51h254q35 0 48.5 -18.5t2.5 -51.5l-367 -1032q-15 -49 -71 -49h-289q-53 0 -68 51l-203 703l-204 -703q-15 -51 -68 -51z" />
    <glyph glyph-name="Ycircumflex" unicode="&#x176;" horiz-adv-x="1544" 
d="M481 1628l99 148q23 39 73 39h283q48 0 74 -39l96 -148q20 -32 9 -53t-48 -21h-145q-51 0 -74 39l-53 78l-56 -78q-26 -39 -73 -39h-144q-37 0 -49 21.5t8 52.5zM905 0h-241q-62 0 -62 61v340l-586 971q-19 32 -7.5 53t48.5 21h281q53 0 74 -43l372 -660l377 660
q21 43 74 43h276q37 0 48.5 -21t-7.5 -53l-585 -971v-340q0 -61 -62 -61z" />
    <glyph glyph-name="ycircumflex" unicode="&#x177;" horiz-adv-x="1396" 
d="M350 1331l99 148q23 39 73 39h283q48 0 74 -39l96 -148q20 -32 9 -53t-48 -21h-145q-51 0 -74 39l-53 78l-56 -78q-26 -39 -73 -39h-144q-37 0 -49 21.5t8 52.5zM848 -403h-488q-61 0 -61 61v197q0 61 61 61h488q48 0 68 21t20 75v207q-79 -119 -272 -119h-148
q-222 0 -323 113.5t-101 341.5v535q0 61 62 61h221q61 0 61 -61v-574q0 -54 20 -75t68 -21h324q48 0 68 21t20 75v574q0 61 61 61h222q61 0 61 -61v-1039q0 -226 -104 -340t-328 -114z" />
    <glyph glyph-name="Ydieresis" unicode="&#x178;" horiz-adv-x="1544" 
d="M664 1565h-170q-62 0 -62 61v141q0 62 62 62h170q61 0 61 -62v-141q0 -61 -61 -61zM1090 1565h-170q-62 0 -62 61v141q0 62 62 62h170q61 0 61 -62v-141q0 -61 -61 -61zM905 0h-241q-62 0 -62 61v340l-586 971q-19 32 -7.5 53t48.5 21h281q53 0 74 -43l372 -660l377 660
q21 43 74 43h276q37 0 48.5 -21t-7.5 -53l-585 -971v-340q0 -61 -62 -61z" />
    <glyph glyph-name="Zacute" unicode="&#x179;" horiz-adv-x="1447" 
d="M815 1550h-160q-32 0 -46 19.5t-3 50.5l47 139q15 51 70 51h227q37 0 48 -20.5t-9 -52.5l-100 -148q-23 -39 -74 -39zM1325 0h-1202q-62 0 -62 61v232q0 43 33 76l774 727h-745q-62 0 -62 61v227q0 62 62 62h1196q61 0 61 -62v-237q0 -44 -32 -76l-775 -723h752
q61 0 61 -61v-226q0 -61 -61 -61z" />
    <glyph glyph-name="zacute" unicode="&#x17a;" horiz-adv-x="1175" 
d="M657 1257h-159q-32 0 -46 19.5t-3 50.5l47 139q15 52 69 52h228q37 0 47.5 -21t-9.5 -53l-100 -148q-23 -39 -74 -39zM1053 0h-930q-62 0 -62 61v201q0 47 33 76l559 506h-530q-62 0 -62 61v185q0 61 62 61h930q61 0 61 -61v-201q0 -47 -33 -76l-563 -506h535
q61 0 61 -61v-185q0 -61 -61 -61z" />
    <glyph glyph-name="Zdotaccent" unicode="&#x17b;" horiz-adv-x="1447" 
d="M821 1565h-192q-62 0 -62 61v139q0 62 62 62h192q62 0 62 -62v-139q0 -61 -62 -61zM1325 0h-1202q-62 0 -62 61v232q0 43 33 76l774 727h-745q-62 0 -62 61v227q0 62 62 62h1196q61 0 61 -62v-237q0 -44 -32 -76l-775 -723h752q61 0 61 -61v-226q0 -61 -61 -61z" />
    <glyph glyph-name="zdotaccent" unicode="&#x17c;" horiz-adv-x="1175" 
d="M664 1268h-193q-61 0 -61 61v139q0 62 61 62h193q61 0 61 -62v-139q0 -61 -61 -61zM1053 0h-930q-62 0 -62 61v201q0 47 33 76l559 506h-530q-62 0 -62 61v185q0 61 62 61h930q61 0 61 -61v-201q0 -47 -33 -76l-563 -506h535q61 0 61 -61v-185q0 -61 -61 -61z" />
    <glyph glyph-name="Zcaron" unicode="&#x17d;" horiz-adv-x="1447" 
d="M866 1548h-282q-51 0 -74 39l-98 148q-20 31 -8 52t49 21h143q48 0 74 -39l55 -77l53 77q23 39 74 39h143q37 0 49 -21t-8 -52l-96 -148q-26 -39 -74 -39zM1325 0h-1202q-62 0 -62 61v232q0 43 33 76l774 727h-745q-62 0 -62 61v227q0 62 62 62h1196q61 0 61 -62v-237
q0 -44 -32 -76l-775 -723h752q61 0 61 -61v-226q0 -61 -61 -61z" />
    <glyph glyph-name="zcaron" unicode="&#x17e;" horiz-adv-x="1175" 
d="M709 1257h-283q-51 0 -74 39l-98 148q-20 31 -8 52.5t49 21.5h143q48 0 74 -39l55 -78l54 78q23 39 73 39h144q37 0 49 -21.5t-8 -52.5l-97 -148q-26 -39 -73 -39zM1053 0h-930q-62 0 -62 61v201q0 47 33 76l559 506h-530q-62 0 -62 61v185q0 61 62 61h930q61 0 61 -61
v-201q0 -47 -33 -76l-563 -506h535q61 0 61 -61v-185q0 -61 -61 -61z" />
    <glyph glyph-name="florin" unicode="&#x192;" horiz-adv-x="851" 
d="M436 -403h-221q-61 0 -61 61v1186h-48q-61 0 -61 61v185q0 61 53 61h54q0 217 97.5 310t334.5 93h166q61 0 61 -61v-176q0 -62 -61 -62h-166q-53 0 -69.5 -20.5t-16.5 -83.5h252q61 0 61 -61v-185q0 -61 -61 -61h-252v-1186q0 -61 -62 -61z" />
    <glyph glyph-name="Scommaaccent" unicode="&#x218;" horiz-adv-x="1570" 
d="M997 0h-415q-450 0 -484 424q-3 63 62 63h243q49 0 64 -59q21 -80 115 -80h411q70 0 99.5 21.5t29.5 76.5t-26 78.5t-90 28.5l-463 35q-235 19 -336 114t-101 299q0 445 486 445h385q449 0 483 -424q3 -64 -61 -64h-244q-48 0 -63 60q-21 80 -115 80h-381
q-70 0 -99.5 -22t-29.5 -77q0 -54 26.5 -76.5t90.5 -27.5l463 -35q232 -17 334 -115t102 -301q0 -444 -486 -444zM750 -403h-138q-67 0 -55 65l29 168q9 55 67 55h195q35 0 48 -19.5t-1 -51.5l-74 -170q-21 -47 -71 -47z" />
    <glyph glyph-name="scommaaccent" unicode="&#x219;" horiz-adv-x="1198" 
d="M707 0h-539q-62 0 -62 61v197q0 61 62 61h541q79 0 79 54q0 29 -16.5 40.5t-60.5 16.5l-289 35q-185 21 -264 100q-76 79 -76 248q0 172 102 255t310 83h530q61 0 61 -61v-197q0 -62 -61 -62h-522q-78 0 -78 -55q0 -51 65 -57l281 -35q202 -25 284.5 -105.5t82.5 -246.5
q0 -177 -102.5 -254.5t-327.5 -77.5zM575 -403h-137q-67 0 -55 65l29 168q9 55 67 55h195q35 0 48 -19.5t-1 -51.5l-74 -170q-21 -47 -72 -47z" />
    <glyph glyph-name="circumflex" unicode="&#x2c6;" horiz-adv-x="1142" 
d="M270 1260l99 147q23 39 73 39h283q48 0 74 -39l96 -147q20 -32 9 -53t-48 -21h-145q-51 0 -74 39l-53 78l-56 -78q-26 -39 -73 -39h-144q-37 0 -49 21.5t8 52.5z" />
    <glyph glyph-name="caron" unicode="&#x2c7;" horiz-adv-x="1142" 
d="M725 1186h-283q-50 0 -73 39l-99 147q-20 31 -8 52.5t49 21.5h144q47 0 73 -39l56 -78l53 78q23 39 74 39h143q37 0 49 -21.5t-8 -52.5l-96 -147q-26 -39 -74 -39z" />
    <glyph glyph-name="breve" unicode="&#x2d8;" horiz-adv-x="1142" 
d="M571 1178q-338 0 -338 237q0 31 62 31h141q62 0 62 -16v-19q0 -34 16.5 -46.5t56.5 -12.5q41 0 56 12q16 13 16 47q0 35 62 35h141q61 0 61 -19v-18q0 -124 -82 -177.5t-254 -53.5z" />
    <glyph glyph-name="dotaccent" unicode="&#x2d9;" horiz-adv-x="1142" 
d="M670 1184h-193q-61 0 -61 61v139q0 62 61 62h193q61 0 61 -62v-139q0 -61 -61 -61z" />
    <glyph glyph-name="ring" unicode="&#x2da;" horiz-adv-x="1142" 
d="M584 1178h-23q-116 0 -169.5 54t-53.5 161v18q0 211 223 211h23q116 0 168.5 -53t52.5 -158v-18q0 -108 -52.5 -161.5t-168.5 -53.5zM561 1348h23q47 0 47 47v8q0 28 -10.5 37.5t-36.5 9.5h-23q-27 0 -37 -9.5t-10 -37.5v-8q0 -47 47 -47z" />
    <glyph glyph-name="ogonek" unicode="&#x2db;" horiz-adv-x="1142" 
d="M805 -209v-129q0 -62 -66 -59q-181 7 -250 65t-69 191q0 119 60 170.5t208 58.5q64 3 64 -43q0 -18 -13 -29t-43 -26q-28 -16 -28 -68q0 -36 14.5 -50.5t58.5 -18.5q64 -6 64 -62z" />
    <glyph glyph-name="tilde" unicode="&#x2dc;" horiz-adv-x="1142" 
d="M297 1214q-35 -13 -53.5 -1t-18.5 47v120q0 51 47 72q124 52 297 2q163 -46 273 -8q71 21 71 -45v-123q0 -52 -45 -72q-61 -28 -166 -28q-8 1 -73 14l-72 20q-139 43 -260 2z" />
    <glyph glyph-name="hungarumlaut" unicode="&#x2dd;" horiz-adv-x="1142" 
d="M457 1186h-133q-33 0 -47.5 19.5t-4.5 49.5l47 140q15 51 70 51h178q35 0 47.5 -21.5t-4.5 -52.5l-80 -143q-21 -43 -73 -43zM879 1186h-131q-33 0 -47.5 19.5t-4.5 49.5l45 140q15 51 70 51h178q35 0 47.5 -21.5t-4.5 -52.5l-80 -143q-21 -43 -73 -43z" />
    <glyph glyph-name="uni0326" unicode="&#x326;" horiz-adv-x="0" 
d="M-623 -403h-137q-67 0 -55 65l29 168q9 55 67 55h195q35 0 48 -19.5t-1 -51.5l-74 -170q-21 -47 -72 -47z" />
    <glyph glyph-name="pi" unicode="&#x3c0;" horiz-adv-x="1714" 
d="M1126 0h-538q-272 0 -381 127q-105 129 -105 371v448q0 245 105 371q108 129 381 129h538q274 0 379 -129q107 -125 107 -371v-448q0 -243 -107 -371q-106 -127 -379 -127zM541 223h635q204 0 204 228v546q0 224 -204 224h-635q-203 0 -203 -224v-546q0 -228 203 -228z
M616 313h-116q-62 0 -62 62v688q0 61 62 61h407q206 0 295.5 -69.5t89.5 -233.5v-45q0 -159 -78 -228t-262 -69h-274v-104q0 -62 -62 -62zM678 895v-188h295q78 0 78 73v41q0 74 -78 74h-295z" />
    <glyph glyph-name="uni1E02" unicode="&#x1e02;" horiz-adv-x="1579" 
d="M877 1552h-193q-61 0 -61 62v139q0 62 61 62h193q61 0 61 -62v-139q0 -62 -61 -62zM1004 0h-814q-61 0 -61 61v1323q0 62 61 62h799q250 0 366.5 -101.5t121.5 -308.5v-20q0 -202 -121 -291q131 -94 131 -305v-19q0 -203 -116 -302t-367 -99zM492 1098v-238h473
q135 0 135 101v36q0 101 -135 101h-473zM492 582v-238h487q135 0 135 100v37q0 101 -135 101h-487z" />
    <glyph glyph-name="uni1E03" unicode="&#x1e03;" horiz-adv-x="1396" 
d="M733 1151h148q222 0 323 -113.5t101 -341.5v-247q0 -223 -101 -336t-323 -113h-148q-193 0 -272 119v-58q0 -61 -62 -61h-221q-61 0 -61 61v1432q0 61 61 61h221q62 0 62 -61v-461q79 119 272 119zM725 1530h193q61 0 61 -62v-139q0 -61 -61 -61h-193q-61 0 -61 61v139
q0 62 61 62zM961 416v319q0 54 -20.5 75t-68.5 21h-323q-48 0 -68 -21t-20 -75v-319q0 -55 19 -76t69 -21h323q50 0 69.5 21t19.5 76z" />
    <glyph glyph-name="uni1E0A" unicode="&#x1e0a;" horiz-adv-x="1650" 
d="M928 1550h-193q-61 0 -61 62v139q0 61 61 61h193q61 0 61 -61v-139q0 -62 -61 -62zM1065 0h-875q-61 0 -61 61v1323q0 62 61 62h875q483 0 483 -543v-368q0 -535 -483 -535zM494 1098v-754h526q87 0 127.5 41t40.5 154v362q0 116 -38.5 156.5t-129.5 40.5h-526z" />
    <glyph glyph-name="uni1E0B" unicode="&#x1e0b;" horiz-adv-x="1396" 
d="M936 1032v461q0 61 61 61h222q61 0 61 -61v-1432q0 -61 -61 -61h-222q-61 0 -61 59v60q-79 -119 -272 -119h-148q-222 0 -323 113t-101 336v247q0 228 101 341.5t323 113.5h148q193 0 272 -119zM471 1530h193q61 0 61 -62v-139q0 -61 -61 -61h-193q-61 0 -61 61v139
q0 62 61 62zM524 319h324q50 0 69 21t19 76v319q0 54 -20 75t-68 21h-324q-48 0 -68 -21t-20 -75v-319q0 -55 19 -76t69 -21z" />
    <glyph glyph-name="uni1E1E" unicode="&#x1e1e;" horiz-adv-x="1359" 
d="M821 1552h-192q-62 0 -62 62v139q0 62 62 62h192q62 0 62 -62v-139q0 -62 -62 -62zM430 0h-240q-61 0 -61 61v1323q0 62 61 62h1067q62 0 62 -62v-225q0 -61 -62 -61h-765v-213h460q62 0 62 -62v-192q0 -62 -62 -62h-460v-508q0 -61 -62 -61z" />
    <glyph glyph-name="uni1E1F" unicode="&#x1e1f;" horiz-adv-x="851" 
d="M594 1659h-193q-61 0 -61 61v140q0 61 61 61h193q61 0 61 -61v-140q0 -61 -61 -61zM436 0h-221q-61 0 -61 61v783h-48q-61 0 -61 61v185q0 61 53 61h54q0 217 97.5 310t334.5 93h166q61 0 61 -61v-176q0 -62 -61 -62h-166q-53 0 -69.5 -20.5t-16.5 -83.5h252q61 0 61 -61
v-185q0 -61 -61 -61h-252v-783q0 -61 -62 -61z" />
    <glyph glyph-name="uni1E40" unicode="&#x1e40;" horiz-adv-x="1996" 
d="M1096 1563h-193q-61 0 -61 61v139q0 62 61 62h193q61 0 61 -62v-139q0 -61 -61 -61zM430 0h-240q-61 0 -61 61v1323q0 62 61 62h293q53 0 74 -41l442 -743l441 743q21 41 73 41h293q62 0 62 -62v-1323q0 -61 -62 -61h-239q-62 0 -62 61v809l-362 -600q-21 -41 -74 -41
h-143q-53 0 -74 41l-360 594v-803q0 -61 -62 -61z" />
    <glyph glyph-name="uni1E41" unicode="&#x1e41;" horiz-adv-x="2004" 
d="M899 1530h193q61 0 61 -62v-139q0 -61 -61 -61h-193q-61 0 -61 61v139q0 62 61 62zM1438 1151h55q410 0 410 -455v-635q0 -61 -62 -61h-221q-61 0 -61 61v674q0 54 -20.5 75t-68.5 21h-200q-48 0 -68 -21t-20 -75v-674q0 -61 -62 -61h-221q-61 0 -61 61v674q0 54 -20 75
t-68 21h-201q-48 0 -68 -21t-20 -75v-674q0 -61 -62 -61h-221q-61 0 -61 61v1029q0 61 61 61h221q62 0 62 -59v-62q80 121 272 121h64q222 0 317 -127q115 127 324 127z" />
    <glyph glyph-name="uni1E56" unicode="&#x1e56;" horiz-adv-x="1581" 
d="M895 1563h-193q-61 0 -61 61v139q0 62 61 62h193q61 0 61 -62v-139q0 -61 -61 -61zM432 0h-242q-61 0 -61 61v1323q0 62 61 62h746q292 0 427.5 -134.5t135.5 -408.5v-59q0 -273 -135 -404t-428 -131h-442v-248q0 -61 -62 -61zM494 1098v-445h409q129 0 180.5 39
t51.5 156v53q0 119 -51 158t-181 39h-409z" />
    <glyph glyph-name="uni1E57" unicode="&#x1e57;" horiz-adv-x="1396" 
d="M610 1530h193q61 0 61 -62v-139q0 -61 -61 -61h-193q-61 0 -61 61v139q0 62 61 62zM733 1151h148q222 0 323 -113t101 -336v-247q0 -228 -101 -341.5t-323 -113.5h-148q-193 0 -272 119v-461q0 -61 -62 -61h-221q-61 0 -61 61v1432q0 61 61 61h221q62 0 62 -59v-60
q79 119 272 119zM961 416v319q0 55 -19.5 75.5t-69.5 20.5h-323q-50 0 -69 -20.5t-19 -75.5v-319q0 -55 20 -76t68 -21h323q48 0 68.5 21.5t20.5 75.5z" />
    <glyph glyph-name="uni1E60" unicode="&#x1e60;" horiz-adv-x="1570" 
d="M856 1561h-192q-62 0 -62 61v139q0 62 62 62h192q62 0 62 -62v-139q0 -61 -62 -61zM997 0h-415q-450 0 -484 424q-3 63 62 63h243q49 0 64 -59q21 -80 115 -80h411q70 0 99.5 21.5t29.5 76.5t-26 78.5t-90 28.5l-463 35q-235 19 -336 114t-101 299q0 445 486 445h385
q449 0 483 -424q3 -64 -61 -64h-244q-48 0 -63 60q-21 80 -115 80h-381q-70 0 -99.5 -22t-29.5 -77q0 -54 26.5 -76.5t90.5 -27.5l463 -35q232 -17 334 -115t102 -301q0 -444 -486 -444z" />
    <glyph glyph-name="uni1E61" unicode="&#x1e61;" horiz-adv-x="1198" 
d="M717 1266h-193q-61 0 -61 61v139q0 62 61 62h193q61 0 61 -62v-139q0 -61 -61 -61zM707 0h-539q-62 0 -62 61v197q0 61 62 61h541q79 0 79 54q0 29 -16.5 40.5t-60.5 16.5l-289 35q-185 21 -264 100q-76 79 -76 248q0 172 102 255t310 83h530q61 0 61 -61v-197
q0 -62 -61 -62h-522q-78 0 -78 -55q0 -51 65 -57l281 -35q202 -25 284.5 -105.5t82.5 -246.5q0 -177 -102.5 -254.5t-327.5 -77.5z" />
    <glyph glyph-name="uni1E6A" unicode="&#x1e6a;" horiz-adv-x="1341" 
d="M768 1565h-193q-61 0 -61 61v139q0 62 61 62h193q61 0 61 -62v-139q0 -61 -61 -61zM793 0h-244q-62 0 -62 61v1035h-391q-61 0 -61 61v227q0 62 61 62h1149q62 0 62 -62v-227q0 -61 -62 -61h-391v-1035q0 -61 -61 -61z" />
    <glyph glyph-name="uni1E6B" unicode="&#x1e6b;" horiz-adv-x="985" 
d="M473 1528h-192q-62 0 -62 61v140q0 61 62 61h192q62 0 62 -61v-140q0 -61 -62 -61zM862 0h-254q-266 0 -360 102q-94 101 -94 332v410h-48q-61 0 -61 61v185q0 61 61 61q94 3 121 43q28 42 31 186q0 66 61 66h117q62 0 62 -62v-233h364q62 0 62 -61v-185q0 -61 -62 -61
h-364v-449q0 -49 23.5 -67.5t86.5 -18.5h254q62 0 62 -61v-187q0 -61 -62 -61z" />
    <glyph glyph-name="Wgrave" unicode="&#x1e80;" horiz-adv-x="2138" 
d="M1155 1550h-160q-50 0 -73 39l-103 148q-20 31 -9 52t48 21h227q52 0 70 -49l49 -141q21 -70 -49 -70zM780 0h-264q-55 0 -70 51l-434 1325q-10 31 4.5 50.5t46.5 19.5h259q52 0 67 -51l258 -920l236 918q12 53 69 53h254q58 0 70 -53l235 -918l258 920q15 51 68 51h258
q32 0 46.5 -19.5t4.5 -50.5l-434 -1325q-15 -51 -70 -51h-264q-57 0 -69 53l-230 885l-229 -885q-12 -53 -70 -53z" />
    <glyph glyph-name="wgrave" unicode="&#x1e81;" horiz-adv-x="2041" 
d="M1098 1257h-160q-51 0 -74 39l-102 148q-20 31 -9 52.5t48 21.5h227q52 0 70 -50l49 -141q21 -70 -49 -70zM770 0h-289q-54 0 -69 49l-363 1032q-21 70 49 70h250q53 0 68 -51l215 -738l213 738q15 51 67 51h265q52 0 67 -51l211 -738l213 738q15 51 68 51h254
q35 0 48.5 -18.5t2.5 -51.5l-367 -1032q-15 -49 -71 -49h-289q-53 0 -68 51l-203 703l-204 -703q-15 -51 -68 -51z" />
    <glyph glyph-name="Wacute" unicode="&#x1e82;" horiz-adv-x="2138" 
d="M1169 1556h-159q-32 0 -46 19.5t-3 50.5l47 139q15 52 69 52h228q37 0 47.5 -21t-9.5 -53l-100 -148q-23 -39 -74 -39zM780 0h-264q-55 0 -70 51l-434 1325q-10 31 4.5 50.5t46.5 19.5h259q52 0 67 -51l258 -920l236 918q12 53 69 53h254q58 0 70 -53l235 -918l258 920
q15 51 68 51h258q32 0 46.5 -19.5t4.5 -50.5l-434 -1325q-15 -51 -70 -51h-264q-57 0 -69 53l-230 885l-229 -885q-12 -53 -70 -53z" />
    <glyph glyph-name="wacute" unicode="&#x1e83;" horiz-adv-x="2041" 
d="M1133 1255h-160q-32 0 -46 19.5t-3 50.5l47 139q15 52 69 52h228q37 0 48 -21t-9 -53l-101 -148q-23 -39 -73 -39zM770 0h-289q-54 0 -69 49l-363 1032q-21 70 49 70h250q53 0 68 -51l215 -738l213 738q15 51 67 51h265q52 0 67 -51l211 -738l213 738q15 51 68 51h254
q35 0 48.5 -18.5t2.5 -51.5l-367 -1032q-15 -49 -71 -49h-289q-53 0 -68 51l-203 703l-204 -703q-15 -51 -68 -51z" />
    <glyph glyph-name="Wdieresis" unicode="&#x1e84;" horiz-adv-x="2138" 
d="M956 1559h-170q-61 0 -61 61v141q0 62 61 62h170q62 0 62 -62v-141q0 -61 -62 -61zM1382 1559h-170q-61 0 -61 61v141q0 62 61 62h170q62 0 62 -62v-141q0 -61 -62 -61zM780 0h-264q-55 0 -70 51l-434 1325q-10 31 4.5 50.5t46.5 19.5h259q52 0 67 -51l258 -920l236 918
q12 53 69 53h254q58 0 70 -53l235 -918l258 920q15 51 68 51h258q32 0 46.5 -19.5t4.5 -50.5l-434 -1325q-15 -51 -70 -51h-264q-57 0 -69 53l-230 885l-229 -885q-12 -53 -70 -53z" />
    <glyph glyph-name="wdieresis" unicode="&#x1e85;" horiz-adv-x="2041" 
d="M909 1264h-170q-61 0 -61 61v141q0 62 61 62h170q62 0 62 -62v-141q0 -61 -62 -61zM1335 1264h-170q-61 0 -61 61v141q0 62 61 62h170q62 0 62 -62v-141q0 -61 -62 -61zM770 0h-289q-54 0 -69 49l-363 1032q-21 70 49 70h250q53 0 68 -51l215 -738l213 738q15 51 67 51
h265q52 0 67 -51l211 -738l213 738q15 51 68 51h254q35 0 48.5 -18.5t2.5 -51.5l-367 -1032q-15 -49 -71 -49h-289q-53 0 -68 51l-203 703l-204 -703q-15 -51 -68 -51z" />
    <glyph glyph-name="Ygrave" unicode="&#x1ef2;" horiz-adv-x="1544" 
d="M854 1552h-160q-50 0 -73 39l-103 148q-20 31 -9 52t48 21h227q52 0 70 -49l49 -141q21 -70 -49 -70zM905 0h-241q-62 0 -62 61v340l-586 971q-19 32 -7.5 53t48.5 21h281q53 0 74 -43l372 -660l377 660q21 43 74 43h276q37 0 48.5 -21t-7.5 -53l-585 -971v-340
q0 -61 -62 -61z" />
    <glyph glyph-name="ygrave" unicode="&#x1ef3;" horiz-adv-x="1396" 
d="M743 1262h-159q-51 0 -74 38l-102 148q-20 31 -9.5 52.5t47.5 21.5h228q51 0 69 -49l50 -142q21 -69 -50 -69zM848 -403h-488q-61 0 -61 61v197q0 61 61 61h488q48 0 68 21t20 75v207q-79 -119 -272 -119h-148q-222 0 -323 113.5t-101 341.5v535q0 61 62 61h221
q61 0 61 -61v-574q0 -54 20 -75t68 -21h324q48 0 68 21t20 75v574q0 61 61 61h222q61 0 61 -61v-1039q0 -226 -104 -340t-328 -114z" />
    <glyph glyph-name="endash" unicode="&#x2013;" horiz-adv-x="964" 
d="M838 453h-711q-61 0 -61 61v145q0 62 61 62h711q61 0 61 -62v-145q0 -61 -61 -61z" />
    <glyph glyph-name="emdash" unicode="&#x2014;" horiz-adv-x="1218" 
d="M1092 453h-965q-61 0 -61 61v145q0 62 61 62h965q61 0 61 -62v-145q0 -61 -61 -61z" />
    <glyph glyph-name="quoteleft" unicode="&#x2018;" horiz-adv-x="561" 
d="M334 764h-242q-32 0 -45.5 20t-1.5 52l223 563q18 47 70 47h141q32 0 46.5 -18.5t6.5 -49.5l-131 -561q-12 -53 -67 -53z" />
    <glyph glyph-name="quoteright" unicode="&#x2019;" horiz-adv-x="561" 
d="M242 764h-140q-32 0 -46.5 18t-6.5 49l131 562q12 53 68 53h241q33 0 46.5 -20t1.5 -52l-226 -563q-18 -47 -69 -47z" />
    <glyph glyph-name="quotesinglbase" unicode="&#x201a;" horiz-adv-x="561" 
d="M201 -268h-140q-32 0 -46.5 18t-6.5 49l131 543q12 53 68 53h237q35 0 48.5 -19.5t1.5 -51.5l-222 -545q-18 -47 -71 -47z" />
    <glyph glyph-name="quotedblleft" unicode="&#x201c;" horiz-adv-x="1052" 
d="M334 784h-240q-35 0 -48 19.5t-1 52.5l221 543q18 47 72 47h141q32 0 46.5 -18.5t6.5 -49.5l-131 -540q-12 -54 -67 -54zM825 784h-239q-35 0 -48 19.5t-1 52.5l223 543q18 47 71 47h140q32 0 46.5 -18.5t6.5 -49.5l-131 -540q-12 -54 -68 -54z" />
    <glyph glyph-name="quotedblright" unicode="&#x201d;" horiz-adv-x="1052" 
d="M242 784h-140q-32 0 -46.5 18.5t-6.5 49.5l131 541q12 53 68 53h239q35 0 48.5 -20t1.5 -52l-224 -543q-18 -47 -71 -47zM735 784h-141q-32 0 -46.5 18.5t-6.5 49.5l131 541q12 53 67 53h240q35 0 48 -19.5t1 -52.5l-221 -543q-18 -47 -72 -47z" />
    <glyph glyph-name="quotedblbase" unicode="&#x201e;" horiz-adv-x="1052" 
d="M201 -268h-140q-32 0 -46.5 18t-6.5 49l131 543q12 53 68 53h237q35 0 48.5 -19.5t1.5 -51.5l-222 -545q-18 -47 -71 -47zM694 -268h-141q-32 0 -46.5 18t-6.5 49l131 543q12 53 67 53h240q35 0 48 -19.5t1 -51.5l-221 -545q-18 -47 -72 -47z" />
    <glyph glyph-name="dagger" unicode="&#x2020;" horiz-adv-x="847" 
d="M596 1151h125q61 0 61 -61v-185q0 -61 -61 -61h-125v-887q0 -61 -61 -61h-222q-61 0 -61 61v887h-125q-61 0 -61 61v185q0 61 61 61h125v233q0 62 61 62h222q61 0 61 -62v-233z" />
    <glyph glyph-name="daggerdbl" unicode="&#x2021;" horiz-adv-x="843" 
d="M782 1090v-185q0 -61 -61 -61h-125v-144h125q61 0 61 -61v-184q0 -62 -61 -62h-125v-436q0 -61 -61 -61h-222q-61 0 -61 61v436h-125q-61 0 -61 62v184q0 61 61 61h125v144h-125q-61 0 -61 61v185q0 61 61 61h125v233q0 62 61 62h222q61 0 61 -62v-233h125q61 0 61 -61z
" />
    <glyph glyph-name="bullet" unicode="&#x2022;" horiz-adv-x="1060" 
d="M653 190h-245q-160 0 -233 83t-73 247v178q0 324 306 324h245q160 0 232.5 -81t72.5 -243v-178q0 -166 -72.5 -248t-232.5 -82z" />
    <glyph glyph-name="ellipsis" unicode="&#x2026;" horiz-adv-x="1634" 
d="M430 0h-240q-61 0 -61 61v248q0 62 61 62h240q62 0 62 -62v-248q0 -61 -62 -61zM938 0h-240q-61 0 -61 61v248q0 62 61 62h240q61 0 61 -62v-248q0 -61 -61 -61zM1444 0h-240q-61 0 -61 61v248q0 62 61 62h240q61 0 61 -62v-248q0 -61 -61 -61z" />
    <glyph glyph-name="perthousand" unicode="&#x2030;" horiz-adv-x="3620" 
d="M569 516h-69q-222 0 -323 113.5t-101 341.5v26q0 223 101 336t323 113h69q222 0 323 -113t101 -336v-26q0 -228 -101 -341.5t-323 -113.5zM1210 0h-204q-32 0 -47 18.5t-7 49.5l332 1325q12 53 68 53h207q32 0 46.5 -18.5t6.5 -49.5l-332 -1325q-12 -53 -70 -53zM502 825
h65q48 0 68 21t20 76v118q0 56 -20 76.5t-68 20.5h-65q-48 0 -68 -20.5t-20 -76.5v-118q0 -55 20 -76t68 -21zM2060 0h-69q-222 0 -323 113.5t-101 341.5v26q0 223 101 336t323 113h69q222 0 323 -113t101 -336v-26q0 -228 -101 -341.5t-323 -113.5zM3121 0h-69
q-222 0 -323 113.5t-101 341.5v26q0 223 101 336t323 113h69q222 0 323 -113t101 -336v-26q0 -228 -101 -341.5t-323 -113.5zM1993 309h65q48 0 68 21t20 76v118q0 56 -20 76.5t-68 20.5h-65q-48 0 -68 -20.5t-20 -76.5v-118q0 -55 20 -76t68 -21zM3054 309h65q48 0 68 21
t20 76v118q0 56 -20 76.5t-68 20.5h-65q-48 0 -68 -20.5t-20 -76.5v-118q0 -55 20 -76t68 -21z" />
    <glyph glyph-name="guilsinglleft" unicode="&#x2039;" horiz-adv-x="663" 
d="M545 170h-176q-50 0 -74 43l-184 330q-21 43 0 86l184 329q21 43 74 43h176q35 0 48 -19.5t1 -51.5l-133 -344l133 -344q12 -33 -1 -52.5t-48 -19.5z" />
    <glyph glyph-name="guilsinglright" unicode="&#x203a;" horiz-adv-x="663" 
d="M332 170h-178q-35 0 -48.5 20t-1.5 52l134 344l-134 344q-12 32 1.5 51.5t48.5 19.5h178q50 0 74 -43l182 -329q21 -43 0 -86l-182 -330q-24 -43 -74 -43z" />
    <glyph glyph-name="Euro" unicode="&#x20ac;" horiz-adv-x="1660" 
d="M1559 946v-28q0 -29 -62 -29h-242q-61 0 -61 35v34q0 85 -26 112.5t-95 27.5h-457q-69 0 -94.5 -27.5t-25.5 -112.5v-73h436q61 0 61 -62v-192q0 -62 -61 -62h-436v-84q0 -81 27.5 -109t92.5 -28h457q65 0 93 28t28 109v31q0 62 61 62h242q62 0 62 -39v-41
q0 -231 -126 -364.5t-360 -133.5h-457q-234 0 -359.5 133.5t-125.5 364.5v71h-49q-62 0 -62 62v192q0 62 56 62h55v61q0 233 125.5 366.5t359.5 133.5h457q234 0 360 -133.5t126 -366.5z" />
    <glyph glyph-name="trademark" unicode="&#x2122;" horiz-adv-x="1681" 
d="M377 700h-88q-62 0 -62 62v483h-125q-61 0 -61 62v77q0 62 61 62h461q62 0 62 -62v-77q0 -62 -62 -62h-125v-483q0 -62 -61 -62zM879 700h-91q-61 0 -61 62v622q0 62 61 62h103q49 0 72 -45l178 -342l178 342q23 45 72 45h100q61 0 61 -62v-622q0 -62 -61 -62h-88
q-62 0 -62 62v287l-110 -209q-24 -43 -72 -43h-39q-47 0 -71 43l-109 207v-285q0 -62 -61 -62z" />
    <glyph glyph-name="minus" unicode="&#x2212;" horiz-adv-x="1120" 
d="M973 569h-826q-61 0 -61 62v188q0 62 61 62h826q61 0 61 -62v-188q0 -62 -61 -62z" />
    <glyph glyph-name="notequal" unicode="&#x2260;" horiz-adv-x="1579" 
 />
    <glyph glyph-name="NULL" horiz-adv-x="0" 
 />
    <glyph glyph-name="CR" horiz-adv-x="681" 
 />
    <glyph glyph-name="a.ss01" horiz-adv-x="1396" 
d="M936 1032v60q0 59 61 59h222q61 0 61 -61v-1029q0 -61 -61 -61h-222q-61 0 -61 59v60q-79 -119 -272 -119h-148q-424 0 -424 455v247q0 217 106 333t318 116h148q193 0 272 -119zM524 319h324q88 0 88 97v319q0 96 -88 96h-324q-88 0 -88 -96v-319q0 -97 88 -97z" />
    </font>
</defs>
</svg>
