<?xml version="1.0" standalone="no"?>
<!DOCTYPE svg PUBLIC "-//W3C//DTD SVG 1.1//EN" "http://www.w3.org/Graphics/SVG/1.1/DTD/svg11.dtd" >
<svg xmlns="http://www.w3.org/2000/svg" xmlns:xlink="http://www.w3.org/1999/xlink" version="1.1">
<metadata>
Created by FontForge 20170731 at Thu Dec 14 12:27:37 2023
 By Aleksey,,,
Copyright (c) 2017 by Rian Hughes / Device. All rights reserved.
</metadata>
<defs>
<font id="Kallisto-MediumItalic" horiz-adv-x="1394" >
  <font-face 
    font-family="Kallisto"
    font-weight="500"
    font-style="italic"
    font-stretch="normal"
    units-per-em="2048"
    panose-1="0 0 6 0 0 0 0 0 0 0"
    ascent="1626"
    descent="-422"
    x-height="1151"
    cap-height="1446"
    bbox="-956.125 -403 3516.65 1950"
    underline-thickness="102"
    underline-position="-307"
    slope="-12"
    unicode-range="U+0020-FB02"
  />
<missing-glyph horiz-adv-x="1034" 
d="M844 0h-694q-41 0 -41 41v1352q0 41 41 41h694q41 0 41 -41v-1352q0 -41 -41 -41zM154 1393v-1348l317 672zM203 1393l293 -625l295 625h-588zM522 717l320 -672v1348zM496 666l-293 -621h588z" />
    <glyph glyph-name="fi" unicode="fi" horiz-adv-x="1265" 
d="M158 -403h-111q-44 0 -35 45l281 1331h-123q-44 0 -35 45l21 96q6 37 45 37h131q26 124 54.5 192t80.5 117q52 52 132 73t212 21h160q44 0 35 -45l-19 -92q-6 -37 -45 -37h-145q-143 0 -193 -41t-80 -188h361q44 0 35 -45l-21 -96q-6 -37 -45 -37h-369l-282 -1340
q-6 -36 -45 -36zM1270 1274h-111q-44 0 -35 45l41 199q6 36 45 36h111q44 0 35 -45l-41 -198q-6 -37 -45 -37zM997 0h-110q-44 0 -35 45l227 1069q6 37 45 37h111q44 0 35 -45l-228 -1069q-6 -37 -45 -37z" />
    <glyph glyph-name="fl" unicode="fl" horiz-adv-x="1263" 
d="M158 -403h-111q-44 0 -35 45l281 1331h-123q-44 0 -35 45l21 96q6 37 45 37h131q26 124 54.5 192t80.5 117q52 52 132 73t212 21h160q44 0 35 -45l-19 -92q-6 -37 -45 -37h-145q-143 0 -193 -41t-80 -188h361q44 0 35 -45l-21 -96q-6 -37 -45 -37h-369l-282 -1340
q-6 -36 -45 -36zM997 0h-110q-44 0 -35 45l313 1473q6 36 45 36h111q44 0 35 -45l-314 -1472q-6 -37 -45 -37z" />
    <glyph glyph-name=".notdef" horiz-adv-x="1034" 
d="M844 0h-694q-41 0 -41 41v1352q0 41 41 41h694q41 0 41 -41v-1352q0 -41 -41 -41zM154 1393v-1348l317 672zM203 1393l293 -625l295 625h-588zM522 717l320 -672v1348zM496 666l-293 -621h588z" />
    <glyph glyph-name=".null" horiz-adv-x="0" 
 />
    <glyph glyph-name="nonmarkingreturn" horiz-adv-x="682" 
 />
    <glyph glyph-name="space" unicode=" " horiz-adv-x="512" 
 />
    <glyph glyph-name="exclam" unicode="!" horiz-adv-x="483" 
d="M244 453h-25q-43 0 -37 43l84 682l49 231q6 37 45 37h144q44 0 35 -45l-47 -227l-203 -687q-9 -34 -45 -34zM193 0h-117q-46 0 -37 45l53 246q6 37 45 37h117q46 0 37 -45l-53 -246q-6 -37 -45 -37z" />
    <glyph glyph-name="quotedbl" unicode="&#x22;" horiz-adv-x="839" 
d="M313 784h-67q-45 0 -39 45l94 580q6 37 43 37h133q23 0 32 -12t3 -33l-154 -582q-9 -35 -45 -35zM702 784h-67q-45 0 -39 45l94 580q6 37 43 37h133q23 0 32 -12t3 -33l-153 -582q-9 -35 -46 -35z" />
    <glyph glyph-name="numbersign" unicode="#" horiz-adv-x="1560" 
d="M299 0h-113q-23 0 -32 14.5t2 34.5l159 336h-217q-44 0 -35 45l21 98q6 37 45 37h274l152 318h-227q-44 0 -35 45l20 96q6 37 45 37h283l168 354q15 31 47 31h113q23 0 32 -14.5t-2 -34.5l-159 -336h299l168 354q15 31 47 31h114q23 0 32 -14.5t-1 -34.5l-160 -336h209
q44 0 35 -45l-20 -96q-6 -37 -45 -37h-265l-151 -318h217q44 0 35 -45l-21 -98q-6 -37 -45 -37h-274l-168 -354q-16 -31 -47 -31h-115q-23 0 -32 14.5t1 34.5l162 336h-299l-170 -354q-16 -31 -47 -31zM754 883l-152 -318h299l152 318h-299z" />
    <glyph glyph-name="dollar" unicode="$" horiz-adv-x="1509" 
d="M1561 995q-6 -37 -43 -37h-119q-43 0 -37 46q23 139 -28 193t-204 54h-96l-94 -442l135 -10q242 -19 333 -109t50 -284q-47 -217 -168 -312q-119 -94 -389 -94h-133l-23 -109q-6 -36 -45 -36h-112q-44 0 -35 45l20 100h-63q-256 0 -357.5 109.5t-60.5 341.5q9 36 45 36
h119q43 0 37 -45q-23 -139 28 -193t201 -54h92l97 448l-93 8q-246 21 -340 111t-53 282q47 216 168 308q122 94 391 94h97l24 113q9 36 45 36h111q46 0 37 -45l-23 -104h70q256 0 356.5 -109t59.5 -342zM651 831l99 -8l90 428h-68q-172 0 -246 -47t-100 -170
q-23 -111 23 -151q46 -37 202 -52zM1042 616l-141 13l-92 -434h104q173 0 244 45q76 46 103 172q24 112 -23 153q-44 39 -195 51z" />
    <glyph glyph-name="percent" unicode="%" horiz-adv-x="2433" 
d="M680 516h-70q-449 0 -354 455l6 26q49 232 161 340.5t331 108.5h69q225 0 313.5 -116t43.5 -333l-6 -26q-50 -229 -160 -342q-107 -113 -334 -113zM1018 0h-105q-23 0 -31 14.5t3 34.5l731 1368q16 29 49 29h104q23 0 31.5 -14.5t-2.5 -34.5l-731 -1368q-16 -29 -49 -29z
M623 694h67q125 0 191.5 58.5t97.5 197.5l14 66q29 134 -14 193t-168 59h-68q-123 0 -190 -58.5t-96 -193.5l-15 -66q-30 -138 12.5 -197t168.5 -59zM1933 0h-69q-450 0 -355 455l7 26q49 230 162 339.5t331 109.5h70q225 0 312 -115.5t42 -333.5l-6 -26q-50 -229 -160 -342
q-107 -113 -334 -113zM1876 178h70q125 0 191 58.5t95 197.5l17 66q26 135 -16.5 193.5t-166.5 58.5h-67q-125 0 -192.5 -58.5t-96.5 -193.5l-14 -66q-29 -139 13 -197.5t167 -58.5z" />
    <glyph glyph-name="ampersand" unicode="&#x26;" horiz-adv-x="1617" 
d="M1534 815h90q44 0 35 -45l-19 -94q-6 -37 -45 -37h-98l-33 -152q-59 -272 -180 -378q-124 -109 -383 -109h-399q-255 0 -363 93.5t-67 287.5l4 18q37 167 114 238q35 33 64.5 50t79.5 38q-157 95 -111 311l4 21q43 204 170 296.5t373 92.5h385q44 0 35 -45l-23 -113
q-6 -37 -45 -37h-360q-161 0 -236 -47t-100 -164l-6 -28q-25 -108 21.5 -152.5t176.5 -44.5h713l64 295q6 37 45 37h119q43 0 34 -45zM1262 487l32 152h-721q-129 0 -197 -49.5t-93 -163.5l-7 -27q-25 -116 30 -161t216 -45h393q165 0 236 59q74 62 111 235z" />
    <glyph glyph-name="quotesingle" unicode="'" horiz-adv-x="450" 
d="M313 784h-67q-45 0 -39 45l94 580q6 37 43 37h133q23 0 32 -12t3 -33l-154 -582q-9 -35 -45 -35z" />
    <glyph glyph-name="parenleft" unicode="(" horiz-adv-x="602" 
d="M473 31l-20 -99q-9 -36 -47 -36q-226 7 -296.5 116t-15.5 353l154 720q32 142 59 214t78 131q54 62 140.5 90t226.5 34q45 0 36 -45l-18 -96q-6 -37 -47 -37q-137 -3 -191 -57q-47 -47 -83 -203l-168 -782q-34 -141 -5 -197q30 -52 160 -61q46 -3 37 -45z" />
    <glyph glyph-name="parenright" unicode=")" horiz-adv-x="602" 
d="M-23 -104q-45 0 -36 45l20 96q6 37 45 37q141 3 193 55q48 48 84 205l166 782q34 136 6 193q-26 56 -162 65q-46 3 -37 45l20 99q6 37 48 34q245 -12 303 -116q61 -101 8 -351l-154 -720q-25 -113 -45 -175t-53 -122q-53 -86 -142.5 -123t-263.5 -49z" />
    <glyph glyph-name="asterisk" unicode="*" horiz-adv-x="1089" 
d="M623 651h-95q-47 0 -34 45l73 279l-274 -158q-39 -20 -53 23l-23 82q-9 38 25 53l295 137l-230 119q-39 20 -12 57l61 84q26 33 58 8l207 -155l47 293q6 36 45 36h96q20 0 29.5 -13.5t3.5 -33.5l-82 -282l278 155q40 21 54 -22l22 -86q9 -37 -24 -51l-299 -131l233 -127
q40 -18 12 -56l-61 -80q-24 -34 -57 -8l-209 158l-41 -289q-6 -37 -45 -37z" />
    <glyph glyph-name="plus" unicode="+" horiz-adv-x="1120" 
d="M555 254h-98q-44 0 -35 45l72 336h-340q-44 0 -35 45l20 98q6 37 45 37h348l72 342q6 37 45 37h99q43 0 34 -45l-69 -334h338q43 0 34 -45l-20 -98q-6 -37 -45 -37h-346l-74 -344q-6 -37 -45 -37z" />
    <glyph glyph-name="comma" unicode="," horiz-adv-x="452" 
d="M-55 -328h-80q-23 0 -32 14.5t1 34.5l279 582q15 31 47 31h129q23 0 31 -14.5t-3 -34.5l-323 -584q-16 -29 -49 -29z" />
    <glyph glyph-name="hyphen" unicode="-" horiz-adv-x="684" 
d="M578 508h-472q-43 0 -34 45l16 80q6 37 45 37h471q44 0 35 -45l-16 -80q-6 -37 -45 -37z" />
    <glyph glyph-name="period" unicode="." horiz-adv-x="458" 
d="M180 0h-119q-43 0 -34 45l51 246q6 37 45 37h119q43 0 34 -45l-51 -246q-6 -37 -45 -37z" />
    <glyph glyph-name="slash" unicode="/" horiz-adv-x="641" 
d="M88 0h-123q-23 0 -32 14.5t1 34.5l654 1366q16 31 47 31h123q23 0 32 -14.5t-2 -34.5l-653 -1366q-15 -31 -47 -31z" />
    <glyph glyph-name="zero" unicode="0" horiz-adv-x="1648" 
d="M1073 0h-473q-515 0 -407 498l94 448q52 251 182 375q128 125 383 125h473q514 0 406 -500l-95 -448q-52 -258 -183 -378t-380 -120zM612 195h475q159 0 234 63q78 66 115 234l96 460q36 171 -12 235t-207 64h-475q-161 0 -236 -63q-76 -64 -113 -236l-96 -460
q-37 -169 11.5 -233t207.5 -64z" />
    <glyph glyph-name="one" unicode="1" horiz-adv-x="645" 
d="M367 0h-121q-44 0 -35 45l215 1006h-248q-46 0 -37 45l21 94q9 37 45 37h137q90 0 113 20q26 23 41 109l10 53q6 37 45 37h113q43 0 34 -45l-288 -1364q-6 -37 -45 -37z" />
    <glyph glyph-name="two" unicode="2" horiz-adv-x="1478" 
d="M1249 0h-1224q-44 0 -35 45l24 121q6 30 33 45l932 508q193 105 250 153t78 144q28 141 -23 186q-49 49 -217 49h-336q-166 0 -237 -59q-70 -58 -111 -240l-6 -26q-6 -37 -43 -37h-119q-20 0 -31.5 8.5t-7.5 20.5l4 28q27 133 62.5 217t95.5 150q121 133 407 133h340
q265 0 366 -102.5t58 -315.5q-5 -16 -17.5 -58.5t-17 -54.5t-16 -38.5t-25.5 -44.5t-34 -39l-58 -54q-19 -18 -86 -59q-55 -35 -98 -57l-133 -74l-645 -354h903q44 0 35 -45l-23 -113q-6 -37 -45 -37z" />
    <glyph glyph-name="three" unicode="3" horiz-adv-x="1538" 
d="M907 0h-395q-256 0 -356 108.5t-62 342.5q9 36 45 36h119q43 0 37 -45q-24 -145 25.5 -197t203.5 -52h391q161 0 234 45t98 161l6 27q25 112 -23.5 160.5t-178.5 48.5h-420q-46 0 -37 45l22 98q9 37 46 37h423q129 0 192.5 44t88.5 153l6 28q25 117 -30.5 164t-215.5 47
h-376q-156 0 -230 -53q-70 -52 -108 -203q-9 -37 -45 -37h-117q-46 0 -37 46q58 236 180 337q126 105 371 105h381q257 0 365 -97t67 -292l-4 -21q-27 -131 -86.5 -202t-155.5 -113q167 -89 117 -322l-4 -18q-43 -203 -166 -292t-371 -89z" />
    <glyph glyph-name="four" unicode="4" horiz-adv-x="1579" 
d="M1147 0h-113q-44 0 -35 45l56 262h-1016q-44 0 -35 45l27 127q6 31 28 47l1180 904q22 16 51 16h156q44 0 35 -45l-191 -905h174q44 0 35 -45l-20 -107q-6 -37 -45 -37h-185l-57 -270q-6 -37 -45 -37zM1249 1223l-950 -727h795z" />
    <glyph glyph-name="five" unicode="5" horiz-adv-x="1515" 
d="M903 0h-397q-264 0 -362 104t-56 347q9 36 45 36h119q43 0 37 -45q-21 -146 26 -196q48 -51 203 -51h381q164 0 236 57q75 58 110 225q29 136 -23.5 193t-205.5 57l-787 2q-20 0 -30 13.5t-4 33.5l198 635q9 35 45 35h1082q43 0 34 -45l-22 -113q-6 -37 -45 -37h-944
l-109 -346h606q259 0 357 -101.5t49 -326.5q-59 -264 -174 -371q-115 -106 -369 -106z" />
    <glyph glyph-name="six" unicode="6" horiz-adv-x="1581" 
d="M887 0h-271q-315 0 -427 121t-56 389l4 18q27 132 92 232q56 88 224 237l489 430q22 19 51 19h174q29 0 34.5 -16t-15.5 -35l-490 -416q102 29 265 29h86q307 0 423 -119t64 -361l-4 -18q-58 -272 -197 -393q-138 -117 -446 -117zM641 193h248q212 0 307 65
q94 64 135 254l4 16q35 170 -35 234q-67 67 -276 67h-248q-211 0 -309 -67q-97 -66 -131 -234l-4 -16q-41 -188 28 -254q68 -65 281 -65z" />
    <glyph glyph-name="seven" unicode="7" horiz-adv-x="1429" 
d="M340 0h-168q-26 0 -32.5 15.5t12.5 35.5l1105 1200h-1001q-44 0 -35 45l23 113q6 37 45 37h1224q44 0 35 -45l-24 -121q-3 -25 -25 -47l-1108 -1210q-23 -23 -51 -23z" />
    <glyph glyph-name="eight" unicode="8" horiz-adv-x="1486" 
d="M868 0h-356q-254 0 -362.5 94t-67.5 287l4 18q59 262 258 326q-160 86 -113 311l5 21q43 203 171 296t371 93h328q253 0 363 -97.5t69 -291.5l-4 -21q-29 -140 -88 -210t-156 -101q171 -93 119 -326l-4 -18q-42 -199 -168 -290t-369 -91zM625 813h419q126 0 192 45.5
t89 153.5l6 28q26 116 -29.5 163.5t-216.5 47.5h-315q-159 0 -235 -47.5t-101 -163.5l-6 -28q-23 -107 24.5 -153t172.5 -46zM530 193h347q160 0 233 45t98 161l4 27q26 112 -21.5 161.5t-176.5 49.5h-432q-126 0 -196.5 -50t-94.5 -161l-6 -27q-25 -116 30 -161t215 -45z
" />
    <glyph glyph-name="nine" unicode="9" horiz-adv-x="1581" 
d="M745 0h-167q-29 0 -34.5 16t15.5 35l492 416q-101 -29 -265 -29h-84q-307 0 -423 119t-66 361l4 18q59 276 195 391q137 119 450 119h271q315 0 426 -121t55 -389l-4 -18q-35 -157 -90 -248q-55 -90 -213 -224l-510 -428q-21 -18 -52 -18zM725 616h248q208 0 305 66
q99 67 133 236l4 16q41 190 -26 254q-68 65 -281 65h-248q-214 0 -309 -65q-94 -64 -135 -254l-4 -16q-34 -170 32 -236q72 -66 281 -66z" />
    <glyph glyph-name="colon" unicode=":" horiz-adv-x="458" 
d="M356 823h-118q-44 0 -35 45l51 246q6 37 45 37h119q44 0 35 -45l-52 -246q-6 -37 -45 -37zM180 0h-119q-43 0 -34 45l51 246q6 37 45 37h119q43 0 34 -45l-51 -246q-6 -37 -45 -37z" />
    <glyph glyph-name="semicolon" unicode=";" horiz-adv-x="495" 
d="M389 823h-119q-43 0 -34 45l51 246q6 37 45 37h119q43 0 34 -45l-51 -246q-6 -37 -45 -37zM-51 -303h-80q-23 0 -32 14.5t1 34.5l281 584q15 30 47 30h129q23 0 31.5 -14.5t-2.5 -34.5l-326 -585q-16 -29 -49 -29z" />
    <glyph glyph-name="less" unicode="&#x3c;" horiz-adv-x="907" 
d="M778 336l-18 -90q-9 -47 -53 -23l-584 328q-29 16 -23 53l25 115q3 27 35 43l727 330q23 10 36.5 0t8.5 -35l-27 -117q-6 -30 -35 -43l-573 -250l457 -258q30 -18 24 -53z" />
    <glyph glyph-name="equal" unicode="=" horiz-adv-x="1120" 
d="M1065 846h-866q-44 0 -35 45l20 98q6 37 45 37h867q43 0 34 -45l-20 -98q-6 -37 -45 -37zM975 424h-866q-44 0 -35 45l20 96q6 37 45 37h867q43 0 34 -45l-20 -96q-6 -37 -45 -37z" />
    <glyph glyph-name="greater" unicode="&#x3e;" horiz-adv-x="907" 
d="M797 557l-729 -334q-23 -11 -35 -1t-8 36l22 113q6 27 35 43l575 254l-456 256q-29 16 -23 51l19 96q9 47 53 23l584 -326q28 -16 22 -53l-25 -115q-3 -28 -34 -43z" />
    <glyph glyph-name="question" unicode="?" horiz-adv-x="1509" 
d="M737 449h-94q-23 0 -32 13t-3 34q29 97 80.5 145.5t163.5 83.5l242 76q133 44 186 94q59 53 80 156q24 114 -30.5 157t-217.5 43h-412q-166 0 -237 -59q-71 -58 -111 -240l-14 -67q-6 -37 -45 -37h-119q-44 0 -35 45l11 53q27 134 62 217.5t95 149.5q121 133 408 133h415
q259 0 364.5 -97t66.5 -286q-37 -180 -121 -258q-78 -73 -271 -139l-258 -86q-66 -23 -91.5 -42.5t-35.5 -54.5q-12 -34 -47 -34zM653 0h-116q-46 0 -37 45l53 246q6 37 45 37h117q46 0 37 -45l-54 -246q-6 -37 -45 -37z" />
    <glyph glyph-name="at" unicode="@" horiz-adv-x="1714" 
d="M1339 0h-794q-268 0 -364.5 127.5t-45.5 370.5l94 448q27 125 62.5 207t95.5 152q123 141 408 141h538q269 0 364 -127t42 -373l-49 -233q-43 -212 -146 -312t-287 -100h-98q-44 0 -35 45l19 90q-42 -71 -110 -103t-187 -32h-49q-206 0 -277.5 89.5t-32.5 279.5l21 96
q20 99 46.5 161t70.5 113q84 97 295 97h84q236 0 260 -136l20 99q6 37 45 37h68q44 0 35 -45l-138 -652q104 0 160.5 50.5t81.5 181.5l63 297q38 180 -19 257t-228 77h-580q-169 0 -261 -77.5t-130 -256.5l-102 -492q-38 -182 19.5 -259t225.5 -77h838q44 0 35 -45l-13 -59
q-6 -37 -45 -37zM801 442h133q113 0 172 46t84 171l24 115q28 127 -9.5 174t-153.5 47h-131q-128 0 -179 -45q-55 -46 -82 -176l-22 -115q-29 -128 5 -172.5t159 -44.5z" />
    <glyph glyph-name="A" unicode="A" horiz-adv-x="1685" 
d="M1522 0h-131q-39 0 -48 35l-67 239h-959l-178 -249q-19 -25 -49 -25h-145q-25 0 -32 14.5t7 34.5l991 1372q16 25 50 25h145q36 0 45 -35l405 -1364q6 -20 -4 -33.5t-30 -13.5zM1001 1229l-561 -783h787z" />
    <glyph glyph-name="B" unicode="B" horiz-adv-x="1544" 
d="M887 0h-826q-43 0 -34 45l288 1364q6 37 45 37h740q260 0 374.5 -97.5t77.5 -289.5l-4 -23q-46 -241 -250 -315q172 -88 125 -320l-4 -20q-41 -206 -159 -293q-119 -88 -373 -88zM483 1251l-88 -426h674q126 0 185.5 40t82.5 147l6 28q25 116 -31.5 163.5t-213.5 47.5
h-615zM354 641l-96 -448h637q155 0 227 45t97 161l6 27q24 111 -26 163t-173 52h-672z" />
    <glyph glyph-name="C" unicode="C" horiz-adv-x="1611" 
d="M1061 0h-467q-509 0 -401 498l94 448q55 258 188 379t381 121h457q509 0 401 -500l-4 -20q-6 -37 -43 -37h-119q-20 0 -31.5 10t-7.5 23l4 30q37 171 -10.5 235t-208.5 64h-456q-161 0 -236 -63q-76 -64 -113 -236l-96 -460q-37 -169 11.5 -233t207.5 -64h457
q159 0 234 63q77 64 114 234l10 49q6 37 46 37h118q43 0 37 -39l-8 -41q-55 -259 -184 -378.5t-375 -119.5z" />
    <glyph glyph-name="D" unicode="D" horiz-adv-x="1638" 
d="M969 0h-908q-43 0 -34 45l288 1364q6 37 45 37h861q263 0 359 -131t36 -412l-78 -368q-62 -286 -188 -412q-126 -123 -381 -123zM485 1251l-225 -1058h703q170 0 251 69t125 275l78 366q44 205 -8 275q-49 73 -221 73h-703z" />
    <glyph glyph-name="E" unicode="E" horiz-adv-x="1427" 
d="M1202 0h-1141q-43 0 -34 45l288 1364q6 37 45 37h1141q44 0 35 -45l-23 -113q-6 -37 -45 -37h-985l-88 -420h664q44 0 35 -45l-23 -106q-6 -37 -45 -37h-672l-96 -448h977q44 0 35 -45l-23 -113q-6 -37 -45 -37z" />
    <glyph glyph-name="F" unicode="F" horiz-adv-x="1359" 
d="M180 0h-119q-43 0 -34 45l288 1364q6 37 45 37h1108q44 0 35 -45l-22 -113q-6 -37 -45 -37h-953l-88 -420h639q44 0 35 -45l-22 -106q-6 -37 -46 -37h-647l-129 -606q-6 -37 -45 -37z" />
    <glyph glyph-name="G" unicode="G" horiz-adv-x="1624" 
d="M1047 0h-465q-514 0 -406 498l94 448q52 250 183 375q128 125 383 125h464q492 0 416 -451q-6 -37 -43 -37h-119q-42 0 -36 46q23 139 -29 193t-203 54h-465q-160 0 -235 -63q-76 -64 -113 -236l-96 -460q-37 -169 11.5 -233t207.5 -64h467q158 0 233 63t113 234l18 83
h-442q-44 0 -35 46l21 98q6 37 45 37h606q44 0 35 -45l-45 -213q-52 -251 -182 -375q-129 -123 -383 -123z" />
    <glyph glyph-name="H" unicode="H" horiz-adv-x="1587" 
d="M180 0h-119q-43 0 -34 45l288 1364q6 37 45 37h119q44 0 35 -45l-121 -578h926l123 586q6 37 45 37h121q43 0 34 -45l-288 -1364q-6 -37 -45 -37h-121q-44 0 -35 45l127 598h-926l-129 -606q-6 -37 -45 -37z" />
    <glyph glyph-name="I" unicode="I" horiz-adv-x="458" 
d="M180 0h-119q-43 0 -34 45l288 1364q6 37 45 37h119q44 0 35 -45l-289 -1364q-6 -37 -45 -37z" />
    <glyph glyph-name="J" unicode="J" horiz-adv-x="1556" 
d="M979 0h-379q-515 0 -407 498l30 145q6 37 45 37h119q44 0 35 -45l-29 -143q-37 -169 11.5 -233t207.5 -64h381q159 0 234 63q77 64 114 234l193 917q6 37 45 37h121q44 0 35 -45l-191 -903q-52 -251 -182 -375q-129 -123 -383 -123z" />
    <glyph glyph-name="K" unicode="K" horiz-adv-x="1525" 
d="M180 0h-119q-43 0 -34 45l288 1364q6 37 45 37h119q44 0 35 -45l-123 -588h324l692 614q22 19 51 19h164q29 0 34 -16t-16 -35l-763 -676l479 -670q14 -20 6 -34.5t-33 -14.5h-137q-33 0 -49 25l-443 608h-348l-127 -596q-6 -37 -45 -37z" />
    <glyph glyph-name="L" unicode="L" horiz-adv-x="1327" 
d="M1153 0h-1092q-43 0 -34 45l288 1364q6 37 45 37h119q44 0 35 -45l-254 -1206h926q44 0 35 -45l-23 -113q-6 -37 -45 -37z" />
    <glyph glyph-name="M" unicode="M" horiz-adv-x="1894" 
d="M180 0h-119q-43 0 -34 45l288 1364q6 37 45 37h132q38 0 47 -31l387 -938l778 944q19 25 49 25h162q44 0 35 -45l-289 -1364q-6 -37 -45 -37h-119q-44 0 -35 45l228 1073l-707 -842q-22 -22 -51 -22h-84q-38 0 -47 31l-344 835l-232 -1083q-6 -37 -45 -37z" />
    <glyph glyph-name="N" unicode="N" horiz-adv-x="1611" 
d="M180 0h-119q-43 0 -34 45l288 1364q6 37 45 37h127q35 0 50 -27l690 -1143l241 1133q6 37 45 37h119q44 0 35 -45l-289 -1364q-6 -37 -45 -37h-129q-33 0 -49 29l-690 1142l-240 -1134q-6 -37 -45 -37z" />
    <glyph glyph-name="O" unicode="O" horiz-adv-x="1689" 
d="M1114 0h-514q-515 0 -407 498l94 448q52 251 182 375q128 125 383 125h514q514 0 406 -500l-95 -448q-52 -258 -183 -378t-380 -120zM612 195h516q160 0 237 65.5t112 231.5l96 460q37 167 -11 233t-208 66h-516q-159 0 -236 -65q-75 -63 -113 -234l-96 -460
q-35 -166 12.5 -231.5t206.5 -65.5z" />
    <glyph glyph-name="P" unicode="P" horiz-adv-x="1552" 
d="M180 0h-119q-43 0 -34 45l288 1364q6 37 45 37h719q318 0 433 -120t53 -380l-9 -35q-42 -176 -108 -280q-132 -209 -530 -209h-609l-84 -385q-6 -37 -45 -37zM485 1251l-137 -637h570q217 0 305 58q89 59 133 241l8 31q44 182 -25 244q-66 63 -286 63h-568z" />
    <glyph glyph-name="Q" unicode="Q" horiz-adv-x="1689" 
d="M852 1446h514q514 0 406 -500l-95 -448q-51 -242 -167.5 -362.5t-333.5 -133.5l106 -217q10 -23 1.5 -36t-32.5 -13h-145q-37 0 -49 31l-103 233h-354q-515 0 -407 498l94 448q52 251 182 375q128 125 383 125zM1477 492l96 460q37 167 -11 233t-208 66h-516
q-159 0 -236 -65q-75 -63 -113 -234l-96 -460q-35 -166 12.5 -231.5t206.5 -65.5h516q160 0 237 65.5t112 231.5z" />
    <glyph glyph-name="R" unicode="R" horiz-adv-x="1560" 
d="M360 1446h719q318 0 434 -119.5t60 -380.5l-6 -26q-45 -221 -141.5 -332.5t-282.5 -143.5l192 -395q11 -20 3 -34.5t-31 -14.5h-140q-31 0 -47 31l-184 399h-627l-84 -393q-6 -37 -45 -37h-119q-43 0 -34 45l288 1364q6 37 45 37zM1366 922l6 24q41 183 -29 244t-290 61
h-568l-135 -628h570q219 0 311 59q91 58 135 240z" />
    <glyph glyph-name="S" unicode="S" horiz-adv-x="1529" 
d="M901 0h-391q-256 0 -357.5 109.5t-60.5 341.5q9 36 45 36h119q43 0 37 -45q-23 -139 28 -193t201 -54h391q173 0 244 45q76 46 103 172q24 112 -23 153q-44 39 -195 51l-424 35q-246 21 -340 111t-53 282q47 216 168 308q122 94 391 94h361q256 0 356.5 -109t59.5 -342
q-6 -37 -43 -37h-119q-43 0 -37 46q23 139 -28 193t-204 54h-358q-172 0 -246 -47t-100 -170q-23 -111 23 -151q46 -37 202 -52l424 -32q242 -19 333 -109t50 -284q-47 -217 -168 -312q-119 -94 -389 -94z" />
    <glyph glyph-name="T" unicode="T" horiz-adv-x="1341" 
d="M623 0h-121q-44 0 -35 45l258 1206h-492q-43 0 -34 45l22 113q6 37 45 37h1190q44 0 35 -45l-23 -113q-6 -37 -45 -37h-497l-258 -1214q-6 -37 -45 -37z" />
    <glyph glyph-name="U" unicode="U" horiz-adv-x="1687" 
d="M1075 0h-440q-516 0 -408 498l193 911q6 37 45 37h119q43 0 34 -45l-190 -909q-37 -169 11.5 -233t207.5 -64h443q158 0 233 63q78 66 115 234l192 917q6 37 45 37h121q44 0 35 -45l-191 -903q-52 -251 -182 -375q-129 -123 -383 -123z" />
    <glyph glyph-name="V" unicode="V" horiz-adv-x="1615" 
d="M776 0h-162q-38 0 -47 35l-364 1366q-6 21 3 33t32 12h118q38 0 47 -35l320 -1208l829 1216q18 27 50 27h143q25 0 33 -14.5t-6 -34.5l-947 -1370q-18 -27 -49 -27z" />
    <glyph glyph-name="W" unicode="W" horiz-adv-x="2127" 
d="M528 0h-133q-37 0 -43 39l-176 1364q-6 43 37 43h121q40 0 43 -39l131 -1137l618 1147q16 29 50 29h135q40 0 43 -39l131 -1137l614 1147q16 29 49 29h136q23 0 31 -14.5t-3 -34.5l-758 -1368q-16 -29 -49 -29h-135q-40 0 -43 39l-133 1130l-616 -1140q-16 -29 -50 -29z
" />
    <glyph glyph-name="X" unicode="X" horiz-adv-x="1435" 
d="M102 0h-172q-27 0 -33.5 16t13.5 35l733 707l-389 639q-12 20 -4.5 34.5t31.5 14.5h143q34 0 49 -27l318 -518l536 524q21 21 49 21h172q26 0 32.5 -16t-13.5 -35l-680 -656l426 -690q12 -20 4.5 -34.5t-31.5 -14.5h-143q-34 0 -49 27l-351 567l-591 -574
q-20 -20 -50 -20z" />
    <glyph glyph-name="Y" unicode="Y" horiz-adv-x="1531" 
d="M721 0h-121q-44 0 -35 45l76 350l-467 1002q-10 20 -1 34.5t32 14.5h123q32 0 47 -31l387 -831l727 839q23 23 51 23h158q26 0 32.5 -15.5t-10.5 -35.5l-878 -1000l-76 -358q-6 -37 -45 -37z" />
    <glyph glyph-name="Z" unicode="Z" horiz-adv-x="1447" 
d="M1237 0h-1243q-44 0 -35 45l25 117q5 24 28 47l1235 1042h-987q-44 0 -35 45l23 113q6 37 45 37h1241q44 0 35 -45l-25 -119q-5 -24 -28 -47l-1235 -1040h989q44 0 35 -45l-23 -113q-6 -37 -45 -37z" />
    <glyph glyph-name="bracketleft" unicode="[" horiz-adv-x="626" 
d="M389 -104h-350q-44 0 -35 45l336 1577q6 36 45 36h350q44 0 35 -45l-20 -96q-6 -37 -45 -37h-203l-277 -1302h193q44 0 35 -45l-19 -97q-6 -36 -45 -36z" />
    <glyph glyph-name="backslash" unicode="\" horiz-adv-x="641" 
d="M438 0h-104q-38 0 -41 39l-72 1364q-3 43 41 43h105q38 0 41 -39l71 -1364q3 -43 -41 -43z" />
    <glyph glyph-name="bracketright" unicode="]" horiz-adv-x="624" 
d="M326 -104h-351q-43 0 -34 45l20 96q6 37 45 37h201l278 1302h-194q-44 0 -35 45l20 97q6 36 46 36h350q44 0 35 -45l-336 -1577q-6 -36 -45 -36z" />
    <glyph glyph-name="asciicircum" unicode="^" horiz-adv-x="1021" 
d="M276 719h-114q-25 0 -31.5 13t6.5 36l447 651q18 27 49 27h127q38 0 47 -35l174 -647q6 -21 -3 -33t-32 -12h-100q-38 0 -47 35l-133 481l-340 -490q-17 -26 -50 -26z" />
    <glyph glyph-name="underscore" unicode="_" horiz-adv-x="1075" 
d="M780 -383h-862q-46 0 -37 45l17 78q6 37 45 37h862q46 0 37 -45l-17 -78q-6 -37 -45 -37z" />
    <glyph glyph-name="grave" unicode="`" horiz-adv-x="1142" 
d="M750 1186h-76q-36 0 -47 33l-74 180q-8 21 1 34t32 13h129q37 0 43 -37l28 -178q6 -45 -36 -45z" />
    <glyph glyph-name="a" unicode="a" horiz-adv-x="1380" 
d="M1225 1001l24 113q9 37 45 37h111q44 0 35 -45l-228 -1069q-6 -37 -45 -37h-108q-46 0 -37 45l22 105q-102 -150 -356 -150h-217q-241 0 -323.5 108t-32.5 343l53 247q25 124 57.5 200.5t87.5 137.5t138 88t208 27h275q136 0 205 -36t86 -114zM485 182h332
q120 0 182.5 44t96.5 165l78 363q18 125 -25 170t-164 45h-332q-141 0 -198 -51q-55 -46 -90 -205l-62 -279q-30 -152 6 -203q40 -49 176 -49z" />
    <glyph glyph-name="b" unicode="b" 
d="M768 1151h217q244 0 325 -108.5t29 -346.5l-53 -247q-50 -245 -149 -347q-102 -102 -342 -102h-273q-135 0 -205.5 37t-87.5 113l-24 -113q-9 -37 -45 -37h-111q-44 0 -35 45l314 1473q6 36 45 36h110q44 0 35 -45l-108 -508q102 150 358 150zM1092 434l59 279
q34 155 -2 207q-34 49 -178 49h-332q-132 0 -195 -51q-59 -48 -94 -205l-45 -207l-22 -98q-21 -139 20 -183q43 -43 168 -43h332q140 0 198 49q56 47 91 203z" />
    <glyph glyph-name="c" unicode="c" horiz-adv-x="1341" 
d="M811 0h-340q-247 0 -326.5 106.5t-29.5 348.5l53 247q28 128 58 201.5t83 132.5q55 61 139.5 88t210.5 27h340q234 0 319 -99.5t44 -322.5q-9 -37 -45 -37h-111q-43 0 -37 47q27 142 -10 185q-33 45 -174 45h-332q-142 0 -200 -49q-53 -47 -88 -203l-62 -279
q-34 -155 2 -207q37 -49 180 -49h332q144 0 197 47q55 46 90 197q9 37 45 37h108q46 0 37 -47q-60 -242 -159 -328q-101 -88 -324 -88z" />
    <glyph glyph-name="d" unicode="d" 
d="M1227 1004l108 514q6 36 45 36h111q44 0 35 -45l-314 -1472q-6 -37 -45 -37h-110q-44 0 -35 45l20 100q-100 -145 -354 -145h-217q-244 0 -325 107t-31 342l53 247q53 252 149 351q101 104 342 104h275q256 0 293 -147zM485 182h332q123 0 184.5 43t92.5 164l80 369
q18 124 -24 167.5t-165 43.5h-332q-142 0 -200 -49q-53 -47 -88 -207l-62 -279q-34 -152 4 -203q37 -49 178 -49z" />
    <glyph glyph-name="e" unicode="e" horiz-adv-x="1300" 
d="M1026 0h-541q-249 0 -334.5 108.5t-35.5 346.5l53 247q28 130 56.5 202.5t80.5 131.5q54 61 136.5 88t211.5 27h289q246 0 329.5 -108t33.5 -341l-39 -188q-6 -37 -45 -37h-908l-8 -39q-34 -155 2 -207q34 -49 178 -49h572q44 0 35 -45l-21 -100q-6 -37 -45 -37zM365 717
l-15 -66h752l14 66q34 155 -4 203q-34 49 -178 49h-281q-142 0 -200 -49q-53 -47 -88 -203z" />
    <glyph glyph-name="f" unicode="f" horiz-adv-x="837" 
d="M158 -403h-111q-44 0 -35 45l281 1331h-123q-44 0 -35 45l21 96q6 37 45 37h131q26 124 54.5 192t80.5 117q52 52 132 73t212 21h160q44 0 35 -45l-19 -92q-6 -37 -45 -37h-145q-143 0 -193 -41t-80 -188h361q44 0 35 -45l-21 -96q-6 -37 -45 -37h-369l-282 -1340
q-6 -36 -45 -36z" />
    <glyph glyph-name="g" unicode="g" 
d="M688 -403h-563q-44 0 -35 45l21 100q6 37 45 37h555q140 0 200 57q65 56 95 199l34 168q-51 -85 -134.5 -122.5t-223.5 -37.5h-219q-244 0 -325 108.5t-29 346.5l43 204q28 128 58 201.5t83 132.5q55 61 139.5 88t210.5 27h275q139 0 206.5 -38.5t81.5 -121.5l27 123
q6 37 45 37h111q43 0 34 -45l-223 -1055q-53 -233 -162 -342q-109 -112 -350 -112zM479 225h332q129 0 190 49q62 47 97 207l51 236q34 152 -10 203q-40 49 -170 49h-332q-143 0 -201 -49q-53 -47 -88 -203l-51 -236q-34 -155 2 -207q37 -49 180 -49z" />
    <glyph glyph-name="h" unicode="h" horiz-adv-x="1366" 
d="M768 1151h176q247 0 326.5 -106.5t29.5 -348.5l-141 -661q-6 -37 -45 -37h-110q-44 0 -35 45l143 670q35 156 -4 207q-34 49 -178 49h-291q-129 0 -192 -47t-91 -179l-149 -706q-6 -37 -45 -37h-111q-44 0 -35 45l314 1473q6 36 45 36h110q44 0 35 -45l-106 -505
q99 147 354 147z" />
    <glyph glyph-name="i" unicode="i" horiz-adv-x="428" 
d="M432 1274h-110q-44 0 -35 45l41 199q6 36 45 36h110q44 0 35 -45l-41 -198q-6 -37 -45 -37zM160 0h-111q-44 0 -35 45l228 1069q6 37 45 37h110q44 0 35 -45l-227 -1069q-6 -37 -45 -37z" />
    <glyph glyph-name="j" unicode="j" horiz-adv-x="425" 
d="M432 1274h-110q-44 0 -35 45l41 199q6 36 45 36h110q44 0 35 -45l-41 -198q-6 -37 -45 -37zM74 -403h-111q-44 0 -35 45l314 1472q6 37 45 37h110q44 0 35 -45l-313 -1473q-6 -36 -45 -36z" />
    <glyph glyph-name="k" unicode="k" horiz-adv-x="1261" 
d="M164 0h-111q-44 0 -35 45l314 1473q6 36 45 36h110q44 0 35 -45l-180 -852h242l532 476q21 18 51 18h152q26 0 32 -16t-14 -35l-592 -525l365 -526q14 -20 6 -34.5t-33 -14.5h-127q-28 0 -49 27l-325 462h-275l-98 -452q-6 -37 -45 -37z" />
    <glyph glyph-name="l" unicode="l" horiz-adv-x="425" 
d="M160 0h-111q-44 0 -35 45l314 1473q6 36 45 36h110q44 0 35 -45l-313 -1472q-6 -37 -45 -37z" />
    <glyph glyph-name="m" unicode="m" horiz-adv-x="1970" 
d="M1511 1151h43q239 0 320 -108.5t31 -346.5l-142 -661q-6 -37 -45 -37h-110q-44 0 -35 45l141 670q34 155 -2 207q-34 49 -178 49h-117q-129 0 -192 -51q-62 -48 -97 -205l-145 -678q-6 -37 -45 -37h-111q-43 0 -34 45l143 670q34 155 -2 207q-34 49 -178 49h-117
q-132 0 -195 -51q-61 -47 -96 -205l-143 -676q-6 -37 -45 -37h-111q-44 0 -35 45l228 1069q6 37 45 37h110q44 0 35 -45l-20 -96q95 141 344 141h30q291 0 347 -164q108 164 378 164z" />
    <glyph glyph-name="n" unicode="n" horiz-adv-x="1363" 
d="M768 1151h176q244 0 325 -108.5t29 -346.5l-141 -661q-6 -37 -45 -37h-111q-43 0 -34 45l143 670q34 155 -2 207q-34 49 -178 49h-291q-132 0 -195 -51q-61 -47 -96 -205l-143 -676q-6 -37 -45 -37h-111q-44 0 -35 45l228 1069q6 37 45 37h108q46 0 37 -45l-22 -105
q102 150 358 150z" />
    <glyph glyph-name="o" unicode="o" horiz-adv-x="1372" 
d="M811 0h-340q-247 0 -326.5 106.5t-29.5 348.5l53 247q28 128 58 201.5t83 132.5q55 61 139.5 88t210.5 27h340q244 0 325.5 -107t31.5 -342l-53 -247q-53 -251 -152 -353t-340 -102zM485 182h332q144 0 199 49q54 46 90 207l61 279q34 152 -4 203q-37 49 -178 49h-332
q-142 0 -200 -49q-53 -47 -88 -203l-62 -279q-34 -155 2 -207q37 -49 180 -49z" />
    <glyph glyph-name="p" unicode="p" 
d="M768 1151h217q244 0 324 -106.5t30 -342.5l-53 -247q-28 -131 -58 -206t-83 -134q-53 -61 -137 -88t-213 -27h-273q-258 0 -293 150l-110 -517q-6 -36 -45 -36h-111q-44 0 -35 45l314 1472q6 37 45 37h110q44 0 35 -45l-20 -102q99 147 356 147zM1092 438l59 279
q34 152 -4 203q-34 49 -176 49h-332q-129 0 -193 -49q-61 -47 -96 -203l-16 -72l-53 -252q-18 -124 23.5 -167.5t166.5 -43.5h332q140 0 198 49q56 47 91 207z" />
    <glyph glyph-name="q" unicode="q" 
d="M1225 1001l24 113q9 37 45 37h111q44 0 35 -45l-314 -1473q-6 -36 -45 -36h-110q-44 0 -35 45l108 508q-102 -150 -356 -150h-217q-247 0 -326.5 106.5t-29.5 348.5l53 247q28 128 58 201.5t83 132.5q55 61 139.5 88t210.5 27h275q136 0 205 -36t86 -114zM485 182h332
q123 0 184 43q65 47 99 183l71 335q21 140 -20 181q-42 45 -166 45h-332q-142 0 -200 -49q-53 -47 -88 -203l-62 -279q-34 -155 2 -207q37 -49 180 -49z" />
    <glyph glyph-name="r" unicode="r" horiz-adv-x="884" 
d="M768 1151h184q44 0 35 -45l-20 -100q-6 -37 -45 -37h-283q-132 0 -195 -51q-61 -47 -96 -205l-143 -676q-6 -37 -45 -37h-111q-44 0 -35 45l228 1069q6 37 45 37h108q46 0 37 -45l-22 -105q102 150 358 150z" />
    <glyph glyph-name="s" unicode="s" horiz-adv-x="1232" 
d="M657 0h-618q-44 0 -35 45l21 100q6 37 45 37h600q134 0 190.5 31t73.5 111q16 83 -16 108q-32 29 -152 41l-346 35q-176 19 -240.5 97.5t-32.5 232.5q37 167 140.5 240t310.5 73h604q44 0 35 -45l-20 -100q-6 -37 -46 -37h-579q-123 0 -180 -33t-76 -113
q-17 -78 10.5 -104.5t138.5 -38.5l344 -37q193 -20 260.5 -99.5t34.5 -236.5q-34 -168 -137 -239q-103 -68 -330 -68z" />
    <glyph glyph-name="t" unicode="t" horiz-adv-x="964" 
d="M754 0h-185q-269 0 -354 104q-83 106 -37 330l115 539h-123q-44 0 -35 45l21 96q6 37 45 37q80 0 109.5 6t56.5 33q27 29 39.5 68t35.5 149q9 39 45 39h54q43 0 34 -45l-51 -250h467q44 0 35 -45l-20 -96q-6 -37 -45 -37h-476l-118 -555q-29 -140 15 -190t198 -50h204
q44 0 35 -45l-20 -96q-6 -37 -45 -37z" />
    <glyph glyph-name="u" unicode="u" horiz-adv-x="1363" 
d="M1067 403l152 709q6 37 45 37h110q44 0 35 -45l-227 -1069q-6 -37 -45 -37h-109q-46 0 -37 45l23 104q-101 -149 -357 -149h-168q-244 0 -325 108t-31 347l141 661q6 37 45 37h111q44 0 35 -45l-141 -670q-34 -155 2 -207q35 -47 178 -47h282q126 0 187 43q59 42 94 178z
" />
    <glyph glyph-name="v" unicode="v" horiz-adv-x="1374" 
d="M649 0h-153q-38 0 -47 35l-308 1071q-6 21 3 33t32 12h115q38 0 47 -35l258 -928l659 936q21 27 50 27h137q25 0 32.5 -14.5t-6.5 -34.5l-770 -1077q-19 -25 -49 -25z" />
    <glyph glyph-name="w" unicode="w" horiz-adv-x="1990" 
d="M530 0h-155q-37 0 -43 37l-195 1069q-6 45 37 45h119q39 0 45 -37l145 -917l510 925q16 29 49 29h140q40 0 43 -39l114 -915l543 925q16 29 49 29h131q24 0 31.5 -14.5t-4.5 -34.5l-655 -1075q-15 -27 -50 -27h-153q-37 0 -43 39l-117 874l-491 -884q-16 -29 -50 -29z
" />
    <glyph glyph-name="x" unicode="x" horiz-adv-x="1249" 
d="M754 571l356 -522q14 -20 7 -34.5t-32 -14.5h-135q-33 0 -51 27l-283 424l-464 -431q-20 -20 -50 -20h-163q-29 0 -34.5 15.5t15.5 35.5l598 547l-340 504q-14 20 -6 34.5t33 14.5h135q33 0 51 -27l264 -403l428 409q21 21 50 21h163q29 0 35 -15.5t-14 -35.5z" />
    <glyph glyph-name="y" unicode="y" 
d="M676 -403h-570q-45 0 -36 45l22 100q9 37 45 37h551q141 0 201 57q64 55 94 199l35 166q-51 -85 -134.5 -122.5t-224.5 -37.5h-194q-166 0 -255.5 48.5t-112 149.5t11.5 257l133 618q6 37 45 37h110q44 0 35 -45l-133 -627q-34 -155 2 -207q34 -49 178 -49h309
q130 0 191 49q61 50 96 207l135 633q6 37 45 37h111q44 0 35 -45l-223 -1053q-26 -119 -58.5 -195t-87.5 -137q-107 -122 -356 -122z" />
    <glyph glyph-name="z" unicode="z" horiz-adv-x="1181" 
d="M971 0h-977q-44 0 -35 45l23 105q5 24 28 47l932 776h-741q-44 0 -35 45l20 96q6 37 45 37h977q44 0 35 -45l-20 -105q-5 -23 -29 -47l-934 -776h741q44 0 35 -45l-20 -96q-6 -37 -45 -37z" />
    <glyph glyph-name="braceleft" unicode="{" horiz-adv-x="690" 
d="M516 25l-20 -97q-9 -37 -47 -37q-219 7 -291 118t-21 351l39 191q11 42 -3 62t-60 24q-46 6 -37 45l18 90q6 36 47 39q53 1 77 21t32 65l41 188q27 132 58 208.5t85 136.5q56 62 142 90.5t219 33.5q45 0 36 -45l-20 -96q-6 -37 -45 -37q-137 -3 -191 -57
q-47 -47 -83 -203l-37 -174q-23 -108 -61.5 -156.5t-110.5 -62.5q66 -17 83 -65.5t-6 -157.5l-36 -170q-35 -141 -3 -197.5t158 -62.5q46 0 37 -45z" />
    <glyph glyph-name="bar" unicode="|" horiz-adv-x="411" 
d="M131 -104h-113q-43 0 -34 45l335 1577q6 36 46 36h112q44 0 35 -45l-336 -1577q-6 -36 -45 -36z" />
    <glyph glyph-name="braceright" unicode="}" horiz-adv-x="690" 
d="M-23 -109q-45 0 -36 46l20 96q6 37 45 37q139 3 191 55q50 50 86 205l36 170q23 110 61 160t109 63q-66 14 -83 62t6 157l37 174q35 141 3 197.5t-159 62.5q-46 0 -37 45l20 97q6 36 48 36q223 -7 293 -116.5t18 -352.5l-39 -188q-9 -41 2 -61q16 -19 59 -25
q46 -6 37 -45l-18 -92q-6 -34 -47 -37q-50 -1 -73 -21t-34 -65l-41 -191q-31 -137 -60.5 -211.5t-82.5 -134.5q-55 -61 -141.5 -89.5t-219.5 -33.5z" />
    <glyph glyph-name="uni00A0" unicode="&#xa0;" horiz-adv-x="1034" 
 />
    <glyph glyph-name="exclamdown" unicode="&#xa1;" horiz-adv-x="483" 
d="M432 1118h-119q-43 0 -34 45l49 246q6 37 45 37h119q43 0 34 -45l-49 -246q-6 -37 -45 -37zM205 0h-144q-43 0 -34 45l47 223l207 690q9 35 45 35h24q43 0 37 -43l-88 -678l-49 -235q-6 -37 -45 -37z" />
    <glyph glyph-name="cent" unicode="&#xa2;" horiz-adv-x="1341" 
d="M1362 729q-9 -37 -45 -37h-111q-43 0 -37 47q27 142 -10 185q-33 45 -174 45h-65l-168 -787h65q144 0 197 47q55 46 90 197q9 37 45 37h108q46 0 37 -47q-60 -242 -159 -328q-101 -88 -324 -88h-98l-23 -109q-6 -36 -45 -36h-115q-43 0 -34 45l20 100h-45
q-247 0 -326.5 106.5t-29.5 348.5l53 247q28 128 58 201.5t83 132.5q55 61 139.5 88t210.5 27h103l22 109q6 36 45 36h115q44 0 35 -45l-21 -100h41q234 0 319 -99.5t44 -322.5zM485 182h70l168 787h-70q-142 0 -200 -49q-53 -47 -88 -203l-62 -279q-34 -155 2 -207
q37 -49 180 -49z" />
    <glyph glyph-name="sterling" unicode="&#xa3;" horiz-adv-x="1525" 
d="M817 1446h334q258 0 355.5 -130t45.5 -370l-12 -61q-6 -37 -45 -37h-119q-46 0 -37 45l13 59q36 162 -16 230.5t-203 68.5h-310q-266 0 -313 -213q-27 -114 20 -250h469q44 0 35 -45l-20 -100q-6 -37 -45 -37h-367l164 -411h582q43 0 34 -45l-22 -113q-6 -37 -45 -37
h-1321q-44 0 -35 45l23 113q6 37 45 37h528l-141 346l-27 65h-264q-44 0 -35 45l21 101q6 36 45 36h168q-33 128 -5 279q83 379 500 379z" />
    <glyph glyph-name="yen" unicode="&#xa5;" horiz-adv-x="1531" 
d="M1542 1446h158q26 0 32.5 -15.5t-10.5 -35.5l-454 -518h233q46 0 37 -46l-20 -98q-6 -37 -45 -37h-365l-264 -301l-76 -358q-6 -37 -45 -37h-121q-44 0 -35 45l76 350l-139 301h-359q-43 0 -34 45l20 99q6 37 45 37h244l-244 520q-10 20 -1 34.5t32 14.5h123q32 0 47 -31
l387 -831l727 839q23 23 51 23z" />
    <glyph glyph-name="brokenbar" unicode="&#xa6;" horiz-adv-x="411" 
d="M334 842h-113q-44 0 -35 45l133 631q6 36 46 36h112q44 0 35 -45l-133 -630q-6 -37 -45 -37zM131 -104h-113q-43 0 -34 45l135 641q6 36 45 36h112q44 0 35 -45l-135 -641q-6 -36 -45 -36z" />
    <glyph glyph-name="dieresis" unicode="&#xa8;" horiz-adv-x="1142" 
d="M582 1182h-90q-44 0 -35 45l37 182q6 37 45 37h90q44 0 35 -45l-37 -182q-6 -37 -45 -37zM940 1182h-90q-44 0 -35 45l37 182q6 37 45 37h90q44 0 35 -45l-37 -182q-6 -37 -45 -37z" />
    <glyph glyph-name="copyright" unicode="&#xa9;" horiz-adv-x="1714" 
d="M1081 0h-538q-269 0 -364 126t-44 372l94 448q27 125 62.5 207t95.5 152q123 141 408 141h538q269 0 364 -127t42 -373l-94 -448q-52 -247 -172 -373q-119 -125 -392 -125zM524 141h580q169 0 261 77.5t130 258.5l104 492q38 180 -19 257t-228 77h-580q-169 0 -261 -77.5
t-130 -256.5l-102 -492q-38 -182 19.5 -259t225.5 -77zM1008 287h-267q-162 0 -226.5 83.5t-31.5 239.5l47 221q18 83 43 140t64 98.5t96 60.5t135 19h275q304 0 252 -301q-6 -37 -43 -37h-68q-43 0 -37 45q12 84 -14.5 117t-104.5 33h-260q-82 0 -125 -37.5t-63 -128.5
l-49 -240q-20 -91 7.5 -129.5t109.5 -38.5h260q81 0 120.5 34.5t63.5 121.5q9 37 45 37h66q45 0 36 -47q-41 -158 -116.5 -224.5t-214.5 -66.5z" />
    <glyph glyph-name="ordfeminine" unicode="&#xaa;" horiz-adv-x="1353" 
d="M1251 1300l23 109q6 37 45 37h111q43 0 34 -45l-213 -987q-6 -37 -45 -37h-110q-44 0 -35 45l24 115q-52 -83 -136.5 -121.5t-223.5 -38.5h-170q-242 0 -326.5 109.5t-29.5 340.5l39 166q31 129 62.5 203t84.5 133q55 62 138 89.5t208 27.5h225q254 0 295 -146zM1143 811
l33 143l22 101q20 121 -24 165t-166 44h-285q-136 0 -195 -50q-56 -47 -94 -206l-45 -197q-36 -147 3 -199.5t177 -52.5h285q122 0 186 49q66 53 103 203z" />
    <glyph glyph-name="guillemotleft" unicode="&#xab;" horiz-adv-x="991" 
d="M393 170h-84q-31 0 -47 31l-166 354q-15 27 8 57l306 367q16 22 51 22h92q25 0 32 -14.5t-7 -34.5l-269 -372l119 -363q6 -21 -3 -34t-32 -13zM801 170h-82q-31 0 -47 31l-166 354q-14 28 8 57l303 367q16 22 51 22h95q24 0 31 -14.5t-7 -34.5l-268 -372l117 -363
q6 -21 -3 -34t-32 -13z" />
    <glyph glyph-name="registered" unicode="&#xae;" horiz-adv-x="1714" 
d="M795 1446h538q269 0 364 -127t42 -373l-94 -448q-52 -247 -172 -373q-119 -125 -392 -125h-538q-269 0 -364 126t-44 372l94 448q27 125 62.5 207t95.5 152q123 141 408 141zM1495 477l104 492q38 180 -19 257t-228 77h-580q-169 0 -261 -77.5t-130 -256.5l-102 -492
q-38 -182 19.5 -259t225.5 -77h580q169 0 261 77.5t130 258.5zM666 1137h409q203 0 279 -75t45 -226l-6 -21q-26 -125 -84.5 -189t-180.5 -83l109 -193q12 -20 3 -34.5t-32 -14.5h-86q-33 0 -49 29l-110 205h-314l-41 -197q-6 -37 -45 -37h-65q-44 0 -35 45l158 754
q6 37 45 37zM1245 817l4 19q18 87 -16.5 121t-147.5 34h-337l-68 -313h344q109 0 156 31.5t65 107.5z" />
    <glyph glyph-name="overscore" unicode="&#xaf;" horiz-adv-x="1142" 
d="M975 1210h-510q-44 0 -35 45l12 66q6 37 45 37h510q44 0 35 -45l-12 -66q-6 -37 -45 -37z" />
    <glyph glyph-name="degree" unicode="&#xb0;" horiz-adv-x="837" 
d="M569 819h-32q-339 0 -275 309l6 27q32 157 116.5 231t250.5 74h33q339 0 274 -305l-6 -27q-32 -159 -116.5 -234t-250.5 -75zM551 971h33q91 0 135 35.5t63 123.5l4 21q20 86 -10 122t-121 36h-32q-91 0 -136.5 -36t-64.5 -122l-4 -21q-19 -86 11.5 -122.5t121.5 -36.5z
" />
    <glyph glyph-name="acute" unicode="&#xb4;" horiz-adv-x="1142" 
d="M760 1186h-76q-25 0 -33 14.5t4 34.5l111 182q16 29 49 29h123q27 0 34.5 -14.5t-9.5 -34.5l-154 -187q-18 -24 -49 -24z" />
    <glyph glyph-name="paragraph" unicode="&#xb6;" horiz-adv-x="778" 
d="M541 -109h-105q-44 0 -35 46l181 847h-205q-194 0 -141 250l34 170q52 242 246 242h346q44 0 35 -45l-311 -1473q-6 -37 -45 -37z" />
    <glyph glyph-name="middot" unicode="&#xb7;" horiz-adv-x="458" 
d="M272 432h-118q-44 0 -35 45l51 246q6 37 45 37h119q44 0 35 -45l-52 -246q-6 -37 -45 -37z" />
    <glyph glyph-name="cedilla" unicode="&#xb8;" horiz-adv-x="1142" 
d="M352 -373h-123q-24 0 -32 14.5t4 34.5l196 344q16 29 49 29h76q23 0 32 -13t1 -34l-154 -344q-12 -31 -49 -31z" />
    <glyph glyph-name="ordmasculine" unicode="&#xba;" horiz-adv-x="1294" 
d="M817 375h-258q-248 0 -330 109t-24 345l39 168q31 129 61 201t82 131q53 62 137 89.5t211 27.5h258q247 0 329.5 -108.5t27.5 -340.5l-39 -168q-32 -132 -63 -205.5t-83 -134.5q-53 -61 -136 -87.5t-212 -26.5zM573 557h252q145 0 197 49q54 48 92 207l47 199
q35 154 -2 202q-38 50 -180 50h-250q-143 0 -199 -50q-56 -47 -90 -202l-47 -199q-37 -155 0 -207q37 -49 180 -49z" />
    <glyph glyph-name="guillemotright" unicode="&#xbb;" horiz-adv-x="991" 
d="M147 170h-92q-25 0 -32.5 14.5t6.5 34.5l268 373l-115 362q-6 21 3 34t32 13h82q32 0 47 -30l164 -355q15 -33 -6 -57l-305 -366q-16 -23 -52 -23zM557 170h-94q-25 0 -32 14.5t7 34.5l269 373l-117 362q-6 21 3 34t32 13h82q32 0 47 -30l168 -355q15 -27 -9 -57
l-305 -366q-16 -23 -51 -23z" />
    <glyph glyph-name="questiondown" unicode="&#xbf;" horiz-adv-x="1509" 
d="M1024 1118h-119q-44 0 -35 45l52 246q6 37 45 37h118q44 0 35 -45l-51 -246q-6 -37 -45 -37zM907 0h-415q-259 0 -365.5 97t-67.5 286q26 123 80 201q52 76 121 114q60 36 193 82l258 86q65 23 89.5 42t35.5 55q12 34 47 34h94q46 0 37 -45q-29 -99 -80.5 -147.5
t-163.5 -83.5l-244 -76q-130 -44 -186 -94q-58 -55 -78 -156q-24 -114 30.5 -157t217.5 -43h410q166 0 237 59q71 58 111 240l14 67q6 37 45 37h119q44 0 35 -45l-11 -53q-27 -134 -62.5 -218t-96.5 -151q-119 -131 -404 -131z" />
    <glyph glyph-name="Agrave" unicode="&#xc0;" horiz-adv-x="1685" 
d="M1075 1780l29 -178q6 -46 -37 -46h-76q-36 0 -47 33l-74 180q-8 21 1 34.5t32 13.5h127q39 0 45 -37zM1522 0h-131q-39 0 -48 35l-67 239h-959l-178 -249q-19 -25 -49 -25h-145q-25 0 -32 14.5t7 34.5l991 1372q16 25 50 25h145q36 0 45 -35l405 -1364q6 -20 -4 -33.5
t-30 -13.5zM1001 1229l-561 -783h787z" />
    <glyph glyph-name="Aacute" unicode="&#xc1;" horiz-adv-x="1685" 
d="M1161 1817h123q27 0 34.5 -13.5t-9.5 -36.5l-154 -186q-19 -25 -49 -25h-76q-25 0 -33 15t4 35l111 182q16 29 49 29zM1522 0h-131q-39 0 -48 35l-67 239h-959l-178 -249q-19 -25 -49 -25h-145q-25 0 -32 14.5t7 34.5l991 1372q16 25 50 25h145q36 0 45 -35l405 -1364
q6 -20 -4 -33.5t-30 -13.5zM1001 1229l-561 -783h787z" />
    <glyph glyph-name="Acircumflex" unicode="&#xc2;" horiz-adv-x="1685" 
d="M1159 1581l-78 139l-145 -147q-21 -21 -49 -21h-92q-26 0 -33 16t12 36l187 190q18 21 51 21h162q33 0 49 -29l100 -184q11 -20 2.5 -35t-31.5 -15h-86q-33 0 -49 29zM1522 0h-131q-39 0 -48 35l-67 239h-959l-178 -249q-19 -25 -49 -25h-145q-25 0 -32 14.5t7 34.5
l991 1372q16 25 50 25h145q36 0 45 -35l405 -1364q6 -20 -4 -33.5t-30 -13.5zM1001 1229l-561 -783h787z" />
    <glyph glyph-name="Atilde" unicode="&#xc3;" horiz-adv-x="1685" 
d="M1130 1559l-88 24q-147 43 -274 2q-25 -8 -36 1t-7 34l16 72q6 30 35 43q56 21 111 24q54 1 84.5 -3.5t89.5 -22.5q85 -22 92 -23q28 -8 92 -3t119 24q23 10 35.5 1t7.5 -34l-16 -74q-6 -36 -56 -51q-58 -21 -121 -21q-56 0 -84 7zM1522 0h-131q-39 0 -48 35l-67 239
h-959l-178 -249q-19 -25 -49 -25h-145q-25 0 -32 14.5t7 34.5l991 1372q16 25 50 25h145q36 0 45 -35l405 -1364q6 -20 -4 -33.5t-30 -13.5zM1001 1229l-561 -783h787z" />
    <glyph glyph-name="Adieresis" unicode="&#xc4;" horiz-adv-x="1685" 
d="M868 1827h90q44 0 35 -45l-37 -183q-6 -36 -45 -36h-90q-44 0 -35 45l37 182q6 37 45 37zM1227 1827h90q44 0 35 -45l-37 -183q-6 -36 -45 -36h-90q-44 0 -35 45l37 182q6 37 45 37zM1522 0h-131q-39 0 -48 35l-67 239h-959l-178 -249q-19 -25 -49 -25h-145
q-25 0 -32 14.5t7 34.5l991 1372q16 25 50 25h145q36 0 45 -35l405 -1364q6 -20 -4 -33.5t-30 -13.5zM1001 1229l-561 -783h787z" />
    <glyph glyph-name="Aring" unicode="&#xc5;" horiz-adv-x="1685" 
d="M1042 1550h-20q-205 0 -164 195l2 14q41 191 236 191h20q205 0 164 -191l-2 -14q-21 -99 -76.5 -147t-159.5 -48zM981 1757l-2 -12q-8 -43 5.5 -59.5t57.5 -16.5h21q44 0 63.5 16.5t30.5 59.5l2 12q8 41 -5 56.5t-56 15.5h-21q-47 0 -68 -15.5t-28 -56.5zM1522 0h-131
q-39 0 -48 35l-67 239h-959l-178 -249q-19 -25 -49 -25h-145q-25 0 -32 14.5t7 34.5l991 1372q16 25 50 25h145q36 0 45 -35l405 -1364q6 -20 -4 -33.5t-30 -13.5zM1001 1229l-561 -783h787z" />
    <glyph glyph-name="AE" unicode="&#xc6;" horiz-adv-x="2459" 
d="M66 0h-154q-26 0 -33 15.5t12 35.5l1332 1374q18 21 51 21h1255q44 0 35 -45l-22 -113q-6 -37 -45 -37h-984l-90 -424h662q44 0 35 -45l-21 -98q-6 -37 -45 -37h-670l-96 -452h975q44 0 35 -45l-23 -113q-6 -37 -45 -37h-1138q-44 0 -35 45l49 229h-746l-243 -254
q-17 -20 -51 -20zM1313 1253l-787 -807h615z" />
    <glyph glyph-name="Ccedilla" unicode="&#xc7;" horiz-adv-x="1611" 
d="M856 1446h457q509 0 401 -500l-4 -20q-6 -37 -43 -37h-119q-20 0 -31.5 10t-7.5 23l4 30q37 171 -10.5 235t-208.5 64h-456q-161 0 -236 -63q-76 -64 -113 -236l-96 -460q-37 -169 11.5 -233t207.5 -64h457q159 0 234 63q77 64 114 234l10 49q6 37 46 37h118q43 0 37 -39
l-8 -41q-55 -259 -184 -378.5t-375 -119.5h-162l-151 -342q-12 -31 -50 -31h-123q-24 0 -32 14.5t4 34.5l184 324h-137q-509 0 -401 498l94 448q55 258 188 379t381 121z" />
    <glyph glyph-name="Egrave" unicode="&#xc8;" horiz-adv-x="1427" 
d="M975 1554h-76q-36 0 -47 33l-74 180q-8 21 1 34.5t32 13.5h129q37 0 43 -37l29 -179q6 -45 -37 -45zM1202 0h-1141q-43 0 -34 45l288 1364q6 37 45 37h1141q44 0 35 -45l-23 -113q-6 -37 -45 -37h-985l-88 -420h664q44 0 35 -45l-23 -106q-6 -37 -45 -37h-672l-96 -448
h977q44 0 35 -45l-23 -113q-6 -37 -45 -37z" />
    <glyph glyph-name="Eacute" unicode="&#xc9;" horiz-adv-x="1427" 
d="M971 1552h-76q-25 0 -33 15t4 35l111 182q16 28 49 28h123q27 0 34.5 -13t-9.5 -36l-154 -186q-19 -25 -49 -25zM1202 0h-1141q-43 0 -34 45l288 1364q6 37 45 37h1141q44 0 35 -45l-23 -113q-6 -37 -45 -37h-985l-88 -420h664q44 0 35 -45l-23 -106q-6 -37 -45 -37h-672
l-96 -448h977q44 0 35 -45l-23 -113q-6 -37 -45 -37z" />
    <glyph glyph-name="Ecircumflex" unicode="&#xca;" horiz-adv-x="1427" 
d="M645 1602l186 190q17 20 52 20h161q34 0 50 -28l100 -185q10 -23 2 -36t-31 -13h-86q-33 0 -49 29l-78 139l-145 -147q-21 -21 -49 -21h-92q-26 0 -33 16t12 36zM1202 0h-1141q-43 0 -34 45l288 1364q6 37 45 37h1141q44 0 35 -45l-23 -113q-6 -37 -45 -37h-985l-88 -420
h664q44 0 35 -45l-23 -106q-6 -37 -45 -37h-672l-96 -448h977q44 0 35 -45l-23 -113q-6 -37 -45 -37z" />
    <glyph glyph-name="Edieresis" unicode="&#xcb;" horiz-adv-x="1427" 
d="M795 1561h-90q-44 0 -35 45l37 182q6 37 45 37h90q44 0 35 -45l-37 -183q-6 -36 -45 -36zM1153 1561h-90q-44 0 -35 45l37 182q6 37 45 37h90q44 0 35 -45l-37 -183q-6 -36 -45 -36zM1202 0h-1141q-43 0 -34 45l288 1364q6 37 45 37h1141q44 0 35 -45l-23 -113
q-6 -37 -45 -37h-985l-88 -420h664q44 0 35 -45l-23 -106q-6 -37 -45 -37h-672l-96 -448h977q44 0 35 -45l-23 -113q-6 -37 -45 -37z" />
    <glyph glyph-name="Igrave" unicode="&#xcc;" horiz-adv-x="452" 
d="M463 1554h-76q-36 0 -47 33l-74 180q-8 21 1 34.5t32 13.5h129q37 0 43 -37l29 -179q6 -45 -37 -45zM180 0h-119q-43 0 -34 45l288 1364q6 37 45 37h119q44 0 35 -45l-289 -1364q-6 -37 -45 -37z" />
    <glyph glyph-name="Iacute" unicode="&#xcd;" horiz-adv-x="448" 
d="M487 1554h-75q-25 0 -33 15t4 35l111 182q16 29 49 29h123q26 0 33.5 -15t-9.5 -35l-153 -186q-19 -25 -50 -25zM180 0h-119q-43 0 -34 45l288 1364q6 37 45 37h119q44 0 35 -45l-289 -1364q-6 -37 -45 -37z" />
    <glyph glyph-name="Icircumflex" unicode="&#xce;" horiz-adv-x="446" 
d="M170 1602l186 190q17 20 52 20h161q33 0 49 -28l101 -185q10 -23 2 -36t-31 -13h-86q-33 0 -49 29l-78 139l-145 -147q-21 -21 -49 -21h-93q-26 0 -32.5 16t12.5 36zM180 0h-119q-43 0 -34 45l288 1364q6 37 45 37h119q44 0 35 -45l-289 -1364q-6 -37 -45 -37z" />
    <glyph glyph-name="Idieresis" unicode="&#xcf;" horiz-adv-x="446" 
d="M311 1561h-90q-44 0 -35 45l37 182q6 37 45 37h90q44 0 35 -45l-37 -183q-6 -36 -45 -36zM670 1561h-90q-44 0 -35 45l37 182q6 37 45 37h90q44 0 35 -45l-37 -183q-6 -36 -45 -36zM180 0h-119q-43 0 -34 45l288 1364q6 37 45 37h119q44 0 35 -45l-289 -1364
q-6 -37 -45 -37z" />
    <glyph glyph-name="Eth" unicode="&#xd0;" horiz-adv-x="1687" 
d="M397 1446h899q258 0 344.5 -128.5t24.5 -414.5l-78 -368q-62 -283 -201 -410q-137 -125 -397 -125h-891q-44 0 -35 45l127 602h-96q-44 0 -35 45l21 99q6 36 45 36h104l123 582q6 37 45 37zM1386 537l78 366q44 205 -8 275q-49 73 -219 73h-715l-90 -424h436q44 0 35 -45
l-20 -98q-6 -37 -45 -37h-445l-96 -454h715q171 0 252 69t122 275z" />
    <glyph glyph-name="Ntilde" unicode="&#xd1;" horiz-adv-x="1611" 
d="M690 1581q-25 -8 -36 1t-7 34l17 72q6 31 34 43q56 21 111 24q54 1 84.5 -3.5t89.5 -22.5q85 -22 92 -23q27 -8 91.5 -3.5t119.5 23.5q23 11 35 2t8 -34l-16 -74q-6 -30 -35 -43q-81 -35 -178 -31q-8 0 -37.5 6.5t-32.5 6.5q-1 1 -5 2t-13 3.5t-17 4.5q-4 1 -8.5 2.5
t-7 2.5t-5.5 2l-4.5 1.5t-3.5 0.5l-1 1q-148 43 -275 2zM180 0h-119q-43 0 -34 45l288 1364q6 37 45 37h127q35 0 50 -27l690 -1143l241 1133q6 37 45 37h119q44 0 35 -45l-289 -1364q-6 -37 -45 -37h-129q-33 0 -49 29l-690 1142l-240 -1134q-6 -37 -45 -37z" />
    <glyph glyph-name="Ograve" unicode="&#xd2;" horiz-adv-x="1689" 
d="M1153 1554h-76q-36 0 -47 33l-74 180q-8 21 1 34.5t32 13.5h129q37 0 43 -37l29 -179q6 -45 -37 -45zM1114 0h-514q-515 0 -407 498l94 448q52 251 182 375q128 125 383 125h514q514 0 406 -500l-95 -448q-52 -258 -183 -378t-380 -120zM612 195h516q160 0 237 65.5
t112 231.5l96 460q37 167 -11 233t-208 66h-516q-159 0 -236 -65q-75 -63 -113 -234l-96 -460q-35 -166 12.5 -231.5t206.5 -65.5z" />
    <glyph glyph-name="Oacute" unicode="&#xd3;" horiz-adv-x="1689" 
d="M1174 1552h-76q-25 0 -33 15t4 35l111 182q16 28 49 28h123q27 0 34 -13t-10 -36l-153 -186q-19 -25 -49 -25zM1114 0h-514q-515 0 -407 498l94 448q52 251 182 375q128 125 383 125h514q514 0 406 -500l-95 -448q-52 -258 -183 -378t-380 -120zM612 195h516
q160 0 237 65.5t112 231.5l96 460q37 167 -11 233t-208 66h-516q-159 0 -236 -65q-75 -63 -113 -234l-96 -460q-35 -166 12.5 -231.5t206.5 -65.5z" />
    <glyph glyph-name="Ocircumflex" unicode="&#xd4;" horiz-adv-x="1689" 
d="M856 1604l186 190q18 21 52 21h161q34 0 50 -29l100 -184q11 -20 2.5 -35t-31.5 -15h-86q-33 0 -49 29l-78 139l-145 -147q-21 -21 -49 -21h-92q-26 0 -33 16t12 36zM1114 0h-514q-515 0 -407 498l94 448q52 251 182 375q128 125 383 125h514q514 0 406 -500l-95 -448
q-52 -258 -183 -378t-380 -120zM612 195h516q160 0 237 65.5t112 231.5l96 460q37 167 -11 233t-208 66h-516q-159 0 -236 -65q-75 -63 -113 -234l-96 -460q-35 -166 12.5 -231.5t206.5 -65.5z" />
    <glyph glyph-name="Otilde" unicode="&#xd5;" horiz-adv-x="1689" 
d="M877 1579q-25 -8 -36 1t-7 34l16 72q6 30 35 43q56 21 110 24q53 1 83 -4t91 -23q71 -18 93 -22q27 -8 91.5 -3.5t119.5 23.5q23 11 35 2t8 -34l-17 -74q-6 -30 -35 -43q-81 -35 -178 -31q-8 0 -37 6t-32 6q-1 1 -35 11q-30 10 -31 10q-147 43 -274 2zM1114 0h-514
q-515 0 -407 498l94 448q52 251 182 375q128 125 383 125h514q514 0 406 -500l-95 -448q-52 -258 -183 -378t-380 -120zM612 195h516q160 0 237 65.5t112 231.5l96 460q37 167 -11 233t-208 66h-516q-159 0 -236 -65q-75 -63 -113 -234l-96 -460q-35 -166 12.5 -231.5
t206.5 -65.5z" />
    <glyph glyph-name="Odieresis" unicode="&#xd6;" horiz-adv-x="1689" 
d="M1012 1559h-90q-44 0 -35 45l37 182q6 37 45 37h90q44 0 35 -45l-37 -183q-6 -36 -45 -36zM1370 1559h-90q-44 0 -35 45l37 182q6 37 45 37h90q44 0 35 -45l-37 -183q-6 -36 -45 -36zM1114 0h-514q-515 0 -407 498l94 448q52 251 182 375q128 125 383 125h514
q514 0 406 -500l-95 -448q-52 -258 -183 -378t-380 -120zM612 195h516q160 0 237 65.5t112 231.5l96 460q37 167 -11 233t-208 66h-516q-159 0 -236 -65q-75 -63 -113 -234l-96 -460q-35 -166 12.5 -231.5t206.5 -65.5z" />
    <glyph glyph-name="multiply" unicode="&#xd7;" horiz-adv-x="970" 
d="M516 602l-297 -244q-34 -26 -57 7l-51 63q-26 34 6 59l299 244l-189 234q-25 32 9 59l69 55q34 27 57 -6l187 -235l297 245q34 27 57 -6l51 -63q27 -34 -6 -60l-299 -245l189 -238q25 -31 -9 -57l-67 -56q-34 -26 -57 7z" />
    <glyph glyph-name="Oslash" unicode="&#xd8;" horiz-adv-x="1689" 
d="M1477 1546l-50 -102q442 -34 340 -498l-94 -448q-52 -258 -183 -378t-380 -120h-360l-54 -113q-15 -30 -47 -30h-108q-23 0 -32 14.5t1 34.5l45 94q-469 21 -367 498l95 448q52 251 182 375q128 125 383 125h387l55 119q15 30 47 30h109q24 0 32.5 -13t-1.5 -36zM608 195
h39l496 1056h-309q-159 0 -236 -65q-75 -63 -113 -234l-96 -460q-35 -166 12.5 -231.5t206.5 -65.5zM1473 492l96 460q37 167 -11 233t-208 66h-13l-495 -1056h282q160 0 237 65.5t112 231.5z" />
    <glyph glyph-name="Ugrave" unicode="&#xd9;" horiz-adv-x="1687" 
d="M1178 1550h-76q-36 0 -47 33l-74 180q-8 21 1 34t32 13h129q37 0 43 -36l28 -179q6 -45 -36 -45zM1075 0h-440q-516 0 -408 498l193 911q6 37 45 37h119q43 0 34 -45l-190 -909q-37 -169 11.5 -233t207.5 -64h443q158 0 233 63q78 66 115 234l192 917q6 37 45 37h121
q44 0 35 -45l-191 -903q-52 -251 -182 -375q-129 -123 -383 -123z" />
    <glyph glyph-name="Uacute" unicode="&#xda;" horiz-adv-x="1687" 
d="M1190 1552h-76q-25 0 -33 15t4 35l111 182q16 28 49 28h123q27 0 34.5 -13t-9.5 -36l-154 -186q-19 -25 -49 -25zM1075 0h-440q-516 0 -408 498l193 911q6 37 45 37h119q43 0 34 -45l-190 -909q-37 -169 11.5 -233t207.5 -64h443q158 0 233 63q78 66 115 234l192 917
q6 37 45 37h121q44 0 35 -45l-191 -903q-52 -251 -182 -375q-129 -123 -383 -123z" />
    <glyph glyph-name="Ucircumflex" unicode="&#xdb;" horiz-adv-x="1687" 
d="M883 1602l186 190q17 20 51 20h162q33 0 49 -28l101 -185q10 -23 2 -36t-31 -13h-86q-33 0 -49 29l-78 139l-146 -147q-21 -21 -49 -21h-92q-26 0 -32.5 16t12.5 36zM1075 0h-440q-516 0 -408 498l193 911q6 37 45 37h119q43 0 34 -45l-190 -909q-37 -169 11.5 -233
t207.5 -64h443q158 0 233 63q78 66 115 234l192 917q6 37 45 37h121q44 0 35 -45l-191 -903q-52 -251 -182 -375q-129 -123 -383 -123z" />
    <glyph glyph-name="Udieresis" unicode="&#xdc;" horiz-adv-x="1687" 
d="M1012 1559h-90q-44 0 -35 45l37 182q6 37 45 37h90q44 0 35 -45l-37 -183q-6 -36 -45 -36zM1370 1559h-90q-44 0 -35 45l37 182q6 37 45 37h90q44 0 35 -45l-37 -183q-6 -36 -45 -36zM1075 0h-440q-516 0 -408 498l193 911q6 37 45 37h119q43 0 34 -45l-190 -909
q-37 -169 11.5 -233t207.5 -64h443q158 0 233 63q78 66 115 234l192 917q6 37 45 37h121q44 0 35 -45l-191 -903q-52 -251 -182 -375q-129 -123 -383 -123z" />
    <glyph glyph-name="Yacute" unicode="&#xdd;" horiz-adv-x="1531" 
d="M993 1552h-75q-25 0 -33 15t4 35l110 182q16 28 50 28h122q27 0 34.5 -13t-9.5 -36l-154 -186q-19 -25 -49 -25zM721 0h-121q-44 0 -35 45l76 350l-467 1002q-10 20 -1 34.5t32 14.5h123q32 0 47 -31l387 -831l727 839q23 23 51 23h158q26 0 32.5 -15.5t-10.5 -35.5
l-878 -1000l-76 -358q-6 -37 -45 -37z" />
    <glyph glyph-name="Thorn" unicode="&#xde;" horiz-adv-x="1517" 
d="M180 0h-119q-43 0 -34 45l288 1364q6 37 45 37h119q46 0 37 -45l-33 -160h518q319 0 426 -119q111 -117 58 -387l-4 -20q-56 -274 -195 -389t-452 -115h-570l-39 -174q-9 -37 -45 -37zM442 1047l-137 -644h533q221 0 313 62q95 61 129 252l2 18q35 194 -29 252
q-63 60 -278 60h-533z" />
    <glyph glyph-name="germandbls" unicode="&#xdf;" horiz-adv-x="1488" 
d="M147 -403h-110q-44 0 -35 45l283 1331h-115q-44 0 -35 45l21 96q6 37 45 37h123q26 122 58.5 196t90.5 132q59 61 150.5 88.5t228.5 27.5h223q221 0 320.5 -69.5t70.5 -204.5l-6 -25q-40 -182 -205 -229q243 -68 179 -365l-50 -233q-31 -140 -64.5 -218.5t-94.5 -137.5
q-62 -61 -160.5 -87t-253.5 -26h-287q-44 0 -35 45l21 96q6 37 45 37h270q188 0 260 60q68 57 109 239l49 236q32 147 -24.5 203.5t-235.5 56.5h-235q-44 0 -35 45l18 96q6 37 45 37h256q117 0 164.5 29.5t65.5 99.5l4 23q14 65 -30 94.5t-169 29.5h-223q-175 0 -236 -61
q-60 -60 -98 -240l-317 -1493q-6 -36 -46 -36z" />
    <glyph glyph-name="agrave" unicode="&#xe0;" horiz-adv-x="1380" 
d="M893 1479l29 -179q6 -45 -37 -45h-76q-36 0 -47 33l-74 180q-8 21 1 34.5t32 13.5h127q39 0 45 -37zM1225 1001l24 113q9 37 45 37h111q44 0 35 -45l-228 -1069q-6 -37 -45 -37h-108q-46 0 -37 45l22 105q-102 -150 -356 -150h-217q-241 0 -323.5 108t-32.5 343l53 247
q25 124 57.5 200.5t87.5 137.5t138 88t208 27h275q136 0 205 -36t86 -114zM485 182h332q120 0 182.5 44t96.5 165l78 363q18 125 -25 170t-164 45h-332q-141 0 -198 -51q-55 -46 -90 -205l-62 -279q-30 -152 6 -203q40 -49 176 -49z" />
    <glyph glyph-name="aacute" unicode="&#xe1;" horiz-adv-x="1380" 
d="M924 1518h123q27 0 34 -13.5t-10 -36.5l-153 -186q-19 -25 -50 -25h-75q-25 0 -33 15t4 35l110 182q16 29 50 29zM1225 1001l24 113q9 37 45 37h111q44 0 35 -45l-228 -1069q-6 -37 -45 -37h-108q-46 0 -37 45l22 105q-102 -150 -356 -150h-217q-241 0 -323.5 108
t-32.5 343l53 247q25 124 57.5 200.5t87.5 137.5t138 88t208 27h275q136 0 205 -36t86 -114zM485 182h332q120 0 182.5 44t96.5 165l78 363q18 125 -25 170t-164 45h-332q-141 0 -198 -51q-55 -46 -90 -205l-62 -279q-30 -152 6 -203q40 -49 176 -49z" />
    <glyph glyph-name="acircumflex" unicode="&#xe2;" horiz-adv-x="1380" 
d="M967 1284l-78 139l-146 -147q-21 -21 -49 -21h-92q-26 0 -32.5 16t12.5 36l186 190q18 21 51 21h162q33 0 49 -29l100 -184q10 -23 2.5 -36.5t-30.5 -13.5h-86q-33 0 -49 29zM1225 1001l24 113q9 37 45 37h111q44 0 35 -45l-228 -1069q-6 -37 -45 -37h-108q-46 0 -37 45
l22 105q-102 -150 -356 -150h-217q-241 0 -323.5 108t-32.5 343l53 247q25 124 57.5 200.5t87.5 137.5t138 88t208 27h275q136 0 205 -36t86 -114zM485 182h332q120 0 182.5 44t96.5 165l78 363q18 125 -25 170t-164 45h-332q-141 0 -198 -51q-55 -46 -90 -205l-62 -279
q-30 -152 6 -203q40 -49 176 -49z" />
    <glyph glyph-name="atilde" unicode="&#xe3;" horiz-adv-x="1380" 
d="M956 1262l-88 24q-147 43 -274 2q-25 -8 -36 1t-7 34l16 72q6 30 35 43q56 21 111 24q54 1 84.5 -3.5t89.5 -22.5q85 -22 92 -23q28 -8 92 -3t119 24q23 10 35.5 1t7.5 -34l-16 -74q-6 -36 -56 -51q-59 -21 -121 -21q-56 0 -84 7zM1225 1001l24 113q9 37 45 37h111
q44 0 35 -45l-228 -1069q-6 -37 -45 -37h-108q-46 0 -37 45l22 105q-102 -150 -356 -150h-217q-241 0 -323.5 108t-32.5 343l53 247q25 124 57.5 200.5t87.5 137.5t138 88t208 27h275q136 0 205 -36t86 -114zM485 182h332q120 0 182.5 44t96.5 165l78 363q18 125 -25 170
t-164 45h-332q-141 0 -198 -51q-55 -46 -90 -205l-62 -279q-30 -152 6 -203q40 -49 176 -49z" />
    <glyph glyph-name="adieresis" unicode="&#xe4;" horiz-adv-x="1380" 
d="M672 1528h90q44 0 35 -45l-37 -183q-6 -36 -45 -36h-90q-44 0 -35 45l37 182q6 37 45 37zM1030 1528h90q44 0 35 -45l-37 -183q-6 -36 -45 -36h-90q-44 0 -35 45l37 182q6 37 45 37zM1225 1001l24 113q9 37 45 37h111q44 0 35 -45l-228 -1069q-6 -37 -45 -37h-108
q-46 0 -37 45l22 105q-102 -150 -356 -150h-217q-241 0 -323.5 108t-32.5 343l53 247q25 124 57.5 200.5t87.5 137.5t138 88t208 27h275q136 0 205 -36t86 -114zM485 182h332q120 0 182.5 44t96.5 165l78 363q18 125 -25 170t-164 45h-332q-141 0 -198 -51q-55 -46 -90 -205
l-62 -279q-30 -152 6 -203q40 -49 176 -49z" />
    <glyph glyph-name="aring" unicode="&#xe5;" horiz-adv-x="1380" 
d="M870 1253h-20q-205 0 -164 195l2 14q41 191 236 191h20q205 0 164 -191l-2 -14q-21 -99 -76.5 -147t-159.5 -48zM809 1460l-2 -12q-8 -43 5.5 -59.5t57.5 -16.5h21q44 0 63.5 16.5t30.5 59.5l2 12q8 41 -5 56.5t-56 15.5h-21q-47 0 -68 -15.5t-28 -56.5zM1225 1001
l24 113q9 37 45 37h111q44 0 35 -45l-228 -1069q-6 -37 -45 -37h-108q-46 0 -37 45l22 105q-102 -150 -356 -150h-217q-241 0 -323.5 108t-32.5 343l53 247q25 124 57.5 200.5t87.5 137.5t138 88t208 27h275q136 0 205 -36t86 -114zM485 182h332q120 0 182.5 44t96.5 165
l78 363q18 125 -25 170t-164 45h-332q-141 0 -198 -51q-55 -46 -90 -205l-62 -279q-30 -152 6 -203q40 -49 176 -49z" />
    <glyph glyph-name="ae" unicode="&#xe6;" horiz-adv-x="2295" 
d="M688 0h-217q-241 0 -323.5 108t-32.5 343l53 247q25 124 57.5 200.5t87.5 137.5t138 88t208 27h275q142 0 209.5 -37.5t81.5 -122.5l24 123q6 37 45 37h111q44 0 35 -45l-19 -94q95 139 330 139h195q242 0 322 -106.5t32 -342.5l-39 -188q-6 -37 -45 -37h-907l-9 -39
q-34 -154 3 -207q34 -49 178 -49h571q44 0 35 -45l-21 -100q-6 -37 -45 -37h-485q-139 0 -209.5 36.5t-89.5 115.5l-25 -115q-6 -37 -45 -37h-110q-44 0 -35 45l25 115q-52 -83 -136 -121.5t-223 -38.5zM485 182h332q126 0 189.5 48.5t93.5 183.5l71 329q24 131 -19.5 178.5
t-166.5 47.5h-332q-141 0 -198 -51q-55 -46 -90 -205l-62 -279q-30 -152 6 -203q40 -49 176 -49zM1360 717l-14 -68h749l16 68q34 155 -4 203q-34 49 -178 49h-280q-143 0 -201 -49q-53 -47 -88 -203z" />
    <glyph glyph-name="ccedilla" unicode="&#xe7;" horiz-adv-x="1341" 
d="M1362 729q-9 -37 -45 -37h-111q-43 0 -37 47q27 142 -10 185q-33 45 -174 45h-332q-142 0 -200 -49q-53 -47 -88 -203l-62 -279q-34 -155 2 -207q37 -49 180 -49h332q144 0 197 47q55 46 90 197q9 37 45 37h108q46 0 37 -47q-60 -242 -159 -328q-101 -88 -324 -88h-111
l-151 -342q-12 -31 -49 -31h-123q-25 0 -33 14.5t4 34.5l184 324h-61q-247 0 -326.5 106.5t-29.5 348.5l53 247q28 128 58 201.5t83 132.5q55 61 139.5 88t210.5 27h340q234 0 319 -99.5t44 -322.5z" />
    <glyph glyph-name="egrave" unicode="&#xe8;" horiz-adv-x="1300" 
d="M870 1257h-75q-36 0 -47 33l-74 180q-8 21 1 34.5t32 13.5h129q37 0 43 -37l28 -178q6 -46 -37 -46zM1026 0h-541q-249 0 -334.5 108.5t-35.5 346.5l53 247q28 130 56.5 202.5t80.5 131.5q54 61 136.5 88t211.5 27h289q246 0 329.5 -108t33.5 -341l-39 -188
q-6 -37 -45 -37h-908l-8 -39q-34 -155 2 -207q34 -49 178 -49h572q44 0 35 -45l-21 -100q-6 -37 -45 -37zM365 717l-15 -66h752l14 66q34 155 -4 203q-34 49 -178 49h-281q-142 0 -200 -49q-53 -47 -88 -203z" />
    <glyph glyph-name="eacute" unicode="&#xe9;" horiz-adv-x="1300" 
d="M911 1260h-75q-25 0 -33 14.5t4 34.5l111 182q16 29 49 29h123q26 0 33.5 -15t-9.5 -35l-153 -186q-18 -24 -50 -24zM1026 0h-541q-249 0 -334.5 108.5t-35.5 346.5l53 247q28 130 56.5 202.5t80.5 131.5q54 61 136.5 88t211.5 27h289q246 0 329.5 -108t33.5 -341
l-39 -188q-6 -37 -45 -37h-908l-8 -39q-34 -155 2 -207q34 -49 178 -49h572q44 0 35 -45l-21 -100q-6 -37 -45 -37zM365 717l-15 -66h752l14 66q34 155 -4 203q-34 49 -178 49h-281q-142 0 -200 -49q-53 -47 -88 -203z" />
    <glyph glyph-name="ecircumflex" unicode="&#xea;" horiz-adv-x="1300" 
d="M578 1305l186 190q18 21 51 21h162q33 0 49 -29l100 -184q11 -20 3 -35t-31 -15h-86q-33 0 -49 29l-78 139l-146 -147q-21 -21 -49 -21h-92q-26 0 -32.5 16t12.5 36zM1026 0h-541q-249 0 -334.5 108.5t-35.5 346.5l53 247q28 130 56.5 202.5t80.5 131.5q54 61 136.5 88
t211.5 27h289q246 0 329.5 -108t33.5 -341l-39 -188q-6 -37 -45 -37h-908l-8 -39q-34 -155 2 -207q34 -49 178 -49h572q44 0 35 -45l-21 -100q-6 -37 -45 -37zM365 717l-15 -66h752l14 66q34 155 -4 203q-34 49 -178 49h-281q-142 0 -200 -49q-53 -47 -88 -203z" />
    <glyph glyph-name="edieresis" unicode="&#xeb;" horiz-adv-x="1300" 
d="M711 1266h-90q-44 0 -35 45l37 182q6 37 45 37h90q44 0 35 -45l-37 -182q-6 -37 -45 -37zM1069 1266h-90q-44 0 -35 45l37 182q6 37 45 37h90q44 0 35 -45l-37 -182q-6 -37 -45 -37zM1026 0h-541q-249 0 -334.5 108.5t-35.5 346.5l53 247q28 130 56.5 202.5t80.5 131.5
q54 61 136.5 88t211.5 27h289q246 0 329.5 -108t33.5 -341l-39 -188q-6 -37 -45 -37h-908l-8 -39q-34 -155 2 -207q34 -49 178 -49h572q44 0 35 -45l-21 -100q-6 -37 -45 -37zM365 717l-15 -66h752l14 66q34 155 -4 203q-34 49 -178 49h-281q-142 0 -200 -49
q-53 -47 -88 -203z" />
    <glyph glyph-name="igrave" unicode="&#xec;" horiz-adv-x="425" 
d="M383 1257h-76q-36 0 -47 33l-74 180q-8 21 1 34.5t32 13.5h129q37 0 43 -37l29 -178q6 -46 -37 -46zM160 0h-111q-44 0 -35 45l228 1069q6 37 45 37h110q44 0 35 -45l-227 -1069q-6 -37 -45 -37z" />
    <glyph glyph-name="iacute" unicode="&#xed;" horiz-adv-x="423" 
d="M408 1260h-76q-25 0 -33 14.5t4 34.5l111 182q16 29 49 29h123q26 0 33.5 -15t-9.5 -35l-153 -186q-18 -24 -49 -24zM160 0h-111q-44 0 -35 45l228 1069q6 37 45 37h110q44 0 35 -45l-227 -1069q-6 -37 -45 -37z" />
    <glyph glyph-name="icircumflex" unicode="&#xee;" horiz-adv-x="423" 
d="M88 1307l186 190q18 21 52 21h161q34 0 50 -29l100 -184q10 -23 2 -36.5t-31 -13.5h-86q-33 0 -49 29l-78 139l-145 -147q-21 -21 -49 -21h-92q-26 0 -33 16t12 36zM160 0h-111q-44 0 -35 45l228 1069q6 37 45 37h110q44 0 35 -45l-227 -1069q-6 -37 -45 -37z" />
    <glyph glyph-name="idieresis" unicode="&#xef;" horiz-adv-x="428" 
d="M225 1264h-90q-44 0 -35 45l37 182q6 37 45 37h90q44 0 35 -45l-37 -183q-6 -36 -45 -36zM584 1264h-90q-44 0 -35 45l37 182q6 37 45 37h90q44 0 35 -45l-37 -183q-6 -36 -45 -36zM162 0h-111q-44 0 -35 45l228 1069q6 37 45 37h110q44 0 35 -45l-227 -1069
q-6 -37 -45 -37z" />
    <glyph glyph-name="eth" unicode="&#xf0;" horiz-adv-x="1372" 
d="M1235 1419h145q46 0 37 -45l-14 -63q-9 -37 -45 -37h-78l23 -74q26 -74 36 -115q15 -58 23 -104q26 -135 -6 -276l-53 -250q-53 -248 -156 -351q-104 -104 -348 -104h-328q-247 0 -326.5 106.5t-29.5 348.5l53 247q28 128 58 201.5t83 132.5q55 61 139.5 88t210.5 27h226
q192 0 245 -47l-53 170h-348q-44 0 -35 45l13 63q6 37 45 37h280l-28 88q-6 21 2.5 34t31.5 13h121q36 0 45 -34zM1106 438l61 279q34 152 -4 203q-37 49 -178 49h-332q-142 0 -200 -49q-53 -47 -88 -203l-62 -279q-34 -155 2 -207q37 -49 180 -49h332q144 0 199 49
q54 46 90 207z" />
    <glyph glyph-name="ntilde" unicode="&#xf1;" horiz-adv-x="1363" 
d="M582 1300q-25 -8 -36 1t-7 34l16 72q6 30 35 43q59 22 110 25q53 1 83 -4t91 -23q83 -21 93 -23q28 -8 92 -3t119 24q23 10 35.5 1t7.5 -34l-17 -74q-6 -30 -35 -43q-79 -34 -178 -30q-8 0 -37 6t-32 6q-1 1 -5 2t-13 3.5t-17 4.5q-30 10 -31 10q-147 43 -274 2z
M768 1151h176q244 0 325 -108.5t29 -346.5l-141 -661q-6 -37 -45 -37h-111q-43 0 -34 45l143 670q34 155 -2 207q-34 49 -178 49h-291q-132 0 -195 -51q-61 -47 -96 -205l-143 -676q-6 -37 -45 -37h-111q-44 0 -35 45l228 1069q6 37 45 37h108q46 0 37 -45l-22 -105
q102 150 358 150z" />
    <glyph glyph-name="ograve" unicode="&#xf2;" horiz-adv-x="1372" 
d="M893 1257h-76q-36 0 -47 33l-74 180q-8 21 1 34.5t32 13.5h129q37 0 43 -37l29 -178q6 -46 -37 -46zM811 0h-340q-247 0 -326.5 106.5t-29.5 348.5l53 247q28 128 58 201.5t83 132.5q55 61 139.5 88t210.5 27h340q244 0 325.5 -107t31.5 -342l-53 -247
q-53 -251 -152 -353t-340 -102zM485 182h332q144 0 199 49q54 46 90 207l61 279q34 152 -4 203q-37 49 -178 49h-332q-142 0 -200 -49q-53 -47 -88 -203l-62 -279q-34 -155 2 -207q37 -49 180 -49z" />
    <glyph glyph-name="oacute" unicode="&#xf3;" horiz-adv-x="1372" 
d="M924 1255h-76q-25 0 -33 15t4 35l111 182q16 29 49 29h123q26 0 33.5 -15t-9.5 -35l-153 -186q-19 -25 -49 -25zM811 0h-340q-247 0 -326.5 106.5t-29.5 348.5l53 247q28 128 58 201.5t83 132.5q55 61 139.5 88t210.5 27h340q244 0 325.5 -107t31.5 -342l-53 -247
q-53 -251 -152 -353t-340 -102zM485 182h332q144 0 199 49q54 46 90 207l61 279q34 152 -4 203q-37 49 -178 49h-332q-142 0 -200 -49q-53 -47 -88 -203l-62 -279q-34 -155 2 -207q37 -49 180 -49z" />
    <glyph glyph-name="ocircumflex" unicode="&#xf4;" horiz-adv-x="1372" 
d="M594 1305l186 190q18 21 51 21h162q33 0 49 -29l101 -184q11 -20 2.5 -35t-31.5 -15h-86q-33 0 -49 29l-78 139l-145 -147q-21 -21 -49 -21h-93q-26 0 -32.5 16t12.5 36zM811 0h-340q-247 0 -326.5 106.5t-29.5 348.5l53 247q28 128 58 201.5t83 132.5q55 61 139.5 88
t210.5 27h340q244 0 325.5 -107t31.5 -342l-53 -247q-53 -251 -152 -353t-340 -102zM485 182h332q144 0 199 49q54 46 90 207l61 279q34 152 -4 203q-37 49 -178 49h-332q-142 0 -200 -49q-53 -47 -88 -203l-62 -279q-34 -155 2 -207q37 -49 180 -49z" />
    <glyph glyph-name="otilde" unicode="&#xf5;" horiz-adv-x="1372" 
d="M594 1290q-25 -8 -36 1t-7 34l16 72q6 30 35 43q56 21 111 24q54 1 84.5 -3.5t89.5 -22.5q85 -22 92 -23q28 -8 92 -3t119 24q23 10 35.5 1t7.5 -34l-16 -74q-6 -30 -35 -43q-81 -35 -178 -31q-8 0 -37.5 6.5t-32.5 6.5q-1 1 -5 2t-13 3.5t-17 4.5q-30 10 -31 10
q-147 43 -274 2zM811 0h-340q-247 0 -326.5 106.5t-29.5 348.5l53 247q28 128 58 201.5t83 132.5q55 61 139.5 88t210.5 27h340q244 0 325.5 -107t31.5 -342l-53 -247q-53 -251 -152 -353t-340 -102zM485 182h332q144 0 199 49q54 46 90 207l61 279q34 152 -4 203
q-37 49 -178 49h-332q-142 0 -200 -49q-53 -47 -88 -203l-62 -279q-34 -155 2 -207q37 -49 180 -49z" />
    <glyph glyph-name="odieresis" unicode="&#xf6;" horiz-adv-x="1372" 
d="M727 1264h-90q-44 0 -35 45l37 182q6 37 45 37h90q44 0 35 -45l-37 -183q-6 -36 -45 -36zM1085 1264h-90q-43 0 -34 45l36 182q6 37 45 37h91q43 0 34 -45l-37 -183q-6 -36 -45 -36zM811 0h-340q-247 0 -326.5 106.5t-29.5 348.5l53 247q28 128 58 201.5t83 132.5
q55 61 139.5 88t210.5 27h340q244 0 325.5 -107t31.5 -342l-53 -247q-53 -251 -152 -353t-340 -102zM485 182h332q144 0 199 49q54 46 90 207l61 279q34 152 -4 203q-37 49 -178 49h-332q-142 0 -200 -49q-53 -47 -88 -203l-62 -279q-34 -155 2 -207q37 -49 180 -49z" />
    <glyph glyph-name="divide" unicode="&#xf7;" horiz-adv-x="1118" 
d="M709 975h-101q-44 0 -35 45l43 201q6 36 46 36h100q44 0 35 -45l-43 -200q-6 -37 -45 -37zM1018 635h-864q-44 0 -35 45l20 98q6 37 45 37h865q43 0 34 -45l-20 -98q-6 -37 -45 -37zM545 197h-101q-43 0 -34 45l41 200q6 37 45 37h100q44 0 35 -45l-41 -201
q-6 -36 -45 -36z" />
    <glyph glyph-name="oslash" unicode="&#xf8;" horiz-adv-x="1372" 
d="M1143 1251l-47 -104q183 -20 242 -127t14 -318l-54 -247q-53 -252 -151 -353q-99 -102 -340 -102h-242l-53 -115q-15 -30 -47 -30h-115q-24 0 -32.5 13t1.5 36l48 100q-183 20 -242 128.5t-14 322.5l53 247q28 128 58 201.5t83 132.5q55 61 139.5 88t210.5 27h242l53 117
q15 30 47 30h115q52 0 31 -47zM360 717l-61 -279q-29 -147 -2 -200q30 -53 152 -56l364 787h-164q-142 0 -200 -49q-54 -48 -89 -203zM1102 438l61 279q31 146 0.5 197t-151.5 55l-363 -787h164q144 0 199 49q54 46 90 207z" />
    <glyph glyph-name="ugrave" unicode="&#xf9;" horiz-adv-x="1363" 
d="M887 1255h-76q-36 0 -47 33l-74 180q-8 21 1 34.5t32 13.5h129q37 0 43 -37l29 -179q6 -45 -37 -45zM1067 403l152 709q6 37 45 37h110q44 0 35 -45l-227 -1069q-6 -37 -45 -37h-109q-46 0 -37 45l23 104q-101 -149 -357 -149h-168q-244 0 -325 108t-31 347l141 661
q6 37 45 37h111q44 0 35 -45l-141 -670q-34 -155 2 -207q35 -47 178 -47h282q126 0 187 43q59 42 94 178z" />
    <glyph glyph-name="uacute" unicode="&#xfa;" horiz-adv-x="1363" 
d="M905 1255h-76q-24 0 -32 15t4 35l110 182q16 29 50 29h122q27 0 34.5 -15t-9.5 -35l-154 -186q-19 -25 -49 -25zM1067 403l152 709q6 37 45 37h110q44 0 35 -45l-227 -1069q-6 -37 -45 -37h-109q-46 0 -37 45l23 104q-101 -149 -357 -149h-168q-244 0 -325 108t-31 347
l141 661q6 37 45 37h111q44 0 35 -45l-141 -670q-34 -155 2 -207q35 -47 178 -47h282q126 0 187 43q59 42 94 178z" />
    <glyph glyph-name="ucircumflex" unicode="&#xfb;" horiz-adv-x="1363" 
d="M600 1305l186 190q18 21 52 21h161q34 0 50 -29l100 -184q11 -20 2.5 -35t-31.5 -15h-86q-33 0 -49 29l-78 139l-145 -147q-21 -21 -49 -21h-92q-26 0 -33 16t12 36zM1067 403l152 709q6 37 45 37h110q44 0 35 -45l-227 -1069q-6 -37 -45 -37h-109q-46 0 -37 45l23 104
q-101 -149 -357 -149h-168q-244 0 -325 108t-31 347l141 661q6 37 45 37h111q44 0 35 -45l-141 -670q-34 -155 2 -207q35 -47 178 -47h282q126 0 187 43q59 42 94 178z" />
    <glyph glyph-name="udieresis" unicode="&#xfc;" horiz-adv-x="1363" 
d="M727 1266h-90q-44 0 -35 45l37 182q6 37 45 37h90q44 0 35 -45l-37 -182q-6 -37 -45 -37zM1085 1266h-90q-43 0 -34 45l36 182q6 37 45 37h91q43 0 34 -45l-37 -182q-6 -37 -45 -37zM1067 403l152 709q6 37 45 37h110q44 0 35 -45l-227 -1069q-6 -37 -45 -37h-109
q-46 0 -37 45l23 104q-101 -149 -357 -149h-168q-244 0 -325 108t-31 347l141 661q6 37 45 37h111q44 0 35 -45l-141 -670q-34 -155 2 -207q35 -47 178 -47h282q126 0 187 43q59 42 94 178z" />
    <glyph glyph-name="yacute" unicode="&#xfd;" 
d="M866 1255h-75q-25 0 -33 15t4 35l110 182q16 29 50 29h122q27 0 34.5 -15t-9.5 -35l-154 -186q-19 -25 -49 -25zM676 -403h-570q-45 0 -36 45l22 100q9 37 45 37h551q141 0 201 57q64 55 94 199l35 166q-51 -85 -134.5 -122.5t-224.5 -37.5h-194q-166 0 -255.5 48.5
t-112 149.5t11.5 257l133 618q6 37 45 37h110q44 0 35 -45l-133 -627q-34 -155 2 -207q34 -49 178 -49h309q130 0 191 49q61 50 96 207l135 633q6 37 45 37h111q44 0 35 -45l-223 -1053q-26 -119 -58.5 -195t-87.5 -137q-107 -122 -356 -122z" />
    <glyph glyph-name="thorn" unicode="&#xfe;" horiz-adv-x="1396" 
d="M768 1151h225q248 0 322 -109q75 -106 26 -340l-53 -247q-27 -129 -58 -204.5t-85 -135.5q-53 -61 -137 -88t-213 -27h-273q-136 0 -206 36.5t-87 115.5l-110 -519q-6 -36 -45 -36h-111q-44 0 -35 45l400 1876q6 36 45 36h110q44 0 35 -45l-108 -508q102 150 358 150z
M1092 438l59 279q34 152 -4 203q-34 49 -176 49h-332q-129 0 -193 -49q-61 -47 -96 -203l-59 -279q-34 -153 8 -207q43 -49 172 -49h332q143 0 198 49q56 47 91 207z" />
    <glyph glyph-name="ydieresis" unicode="&#xff;" 
d="M698 1266h-90q-44 0 -35 45l37 182q6 37 45 37h90q44 0 35 -45l-37 -182q-6 -37 -45 -37zM1057 1266h-90q-44 0 -35 45l37 182q6 37 45 37h90q44 0 35 -45l-37 -182q-6 -37 -45 -37zM676 -403h-570q-45 0 -36 45l22 100q9 37 45 37h551q141 0 201 57q64 55 94 199l35 166
q-51 -85 -134.5 -122.5t-224.5 -37.5h-194q-166 0 -255.5 48.5t-112 149.5t11.5 257l133 618q6 37 45 37h110q44 0 35 -45l-133 -627q-34 -155 2 -207q34 -49 178 -49h309q130 0 191 49q61 50 96 207l135 633q6 37 45 37h111q44 0 35 -45l-223 -1053q-26 -119 -58.5 -195
t-87.5 -137q-107 -122 -356 -122z" />
    <glyph glyph-name="Amacron" unicode="&#x100;" horiz-adv-x="1685" 
d="M817 1718h510q44 0 35 -45l-12 -65q-6 -37 -45 -37h-510q-44 0 -35 45l12 65q6 37 45 37zM1522 0h-131q-39 0 -48 35l-67 239h-959l-178 -249q-19 -25 -49 -25h-145q-25 0 -32 14.5t7 34.5l991 1372q16 25 50 25h145q36 0 45 -35l405 -1364q6 -20 -4 -33.5t-30 -13.5z
M1001 1229l-561 -783h787z" />
    <glyph glyph-name="amacron" unicode="&#x101;" horiz-adv-x="1380" 
d="M616 1421h510q44 0 35 -45l-12 -65q-6 -37 -45 -37h-510q-44 0 -35 45l12 65q6 37 45 37zM1225 1001l24 113q9 37 45 37h111q44 0 35 -45l-228 -1069q-6 -37 -45 -37h-108q-46 0 -37 45l22 105q-102 -150 -356 -150h-217q-241 0 -323.5 108t-32.5 343l53 247
q25 124 57.5 200.5t87.5 137.5t138 88t208 27h275q136 0 205 -36t86 -114zM485 182h332q120 0 182.5 44t96.5 165l78 363q18 125 -25 170t-164 45h-332q-141 0 -198 -51q-55 -46 -90 -205l-62 -279q-30 -152 6 -203q40 -49 176 -49z" />
    <glyph glyph-name="Abreve" unicode="&#x102;" horiz-adv-x="1685" 
d="M1061 1550q-143 0 -207.5 56.5t-40.5 171.5v4q6 37 45 37h76q46 0 43 -21l-6 -22q-12 -60 9 -82.5t89 -22.5q69 0 98 21.5t41 81.5l2 8q9 37 45 37h76q44 0 41 -23l-4 -24q-26 -121 -97.5 -171.5t-209.5 -50.5zM1522 0h-131q-39 0 -48 35l-67 239h-959l-178 -249
q-19 -25 -49 -25h-145q-25 0 -32 14.5t7 34.5l991 1372q16 25 50 25h145q36 0 45 -35l405 -1364q6 -20 -4 -33.5t-30 -13.5zM1001 1229l-561 -783h787z" />
    <glyph glyph-name="abreve" unicode="&#x103;" horiz-adv-x="1380" 
d="M862 1255q-143 0 -207.5 56.5t-40.5 171.5v4q6 37 45 37h76q46 0 43 -21l-6 -22q-12 -60 9 -82.5t89 -22.5q69 0 98.5 21.5t41.5 81.5l2 8q9 37 45 37h76q44 0 41 -23l-5 -24q-26 -121 -97.5 -171.5t-209.5 -50.5zM1225 1001l24 113q9 37 45 37h111q44 0 35 -45
l-228 -1069q-6 -37 -45 -37h-108q-46 0 -37 45l22 105q-102 -150 -356 -150h-217q-241 0 -323.5 108t-32.5 343l53 247q25 124 57.5 200.5t87.5 137.5t138 88t208 27h275q136 0 205 -36t86 -114zM485 182h332q120 0 182.5 44t96.5 165l78 363q18 125 -25 170t-164 45h-332
q-141 0 -198 -51q-55 -46 -90 -205l-62 -279q-30 -152 6 -203q40 -49 176 -49z" />
    <glyph glyph-name="Aogonek" unicode="&#x104;" horiz-adv-x="1685" 
d="M1487 -291l-17 -69q-9 -37 -47 -37q-152 4 -207.5 66t-25.5 188q29 141 151 188l-65 229h-959l-178 -249q-19 -25 -49 -25h-145q-25 0 -32 14.5t7 34.5l991 1372q16 25 50 25h145q36 0 45 -35l405 -1366q15 -45 -34 -45q-94 -3 -127 -23q-31 -22 -49 -94q-14 -69 6 -96
t98 -31q46 -3 37 -47zM1001 1229l-561 -783h787z" />
    <glyph glyph-name="aogonek" unicode="&#x105;" horiz-adv-x="1380" 
d="M1171 -291l-16 -69q-9 -37 -47 -37q-152 4 -208 66t-26 188q34 140 148 186l22 107q-102 -150 -356 -150h-217q-241 0 -323.5 108t-32.5 343l53 247q25 124 57.5 200.5t87.5 137.5t138 88t208 27h275q136 0 205 -36t86 -114l24 113q9 37 45 37h111q44 0 35 -45
l-228 -1069q-6 -37 -45 -37q-65 -4 -92 -28.5t-45 -88.5q-14 -69 6.5 -96t98.5 -31q45 -3 36 -47zM485 182h332q124 0 189 44.5t90 164.5l78 363q25 123 -20 169t-169 46h-332q-141 0 -198 -51q-55 -46 -90 -205l-62 -279q-30 -152 6 -203q40 -49 176 -49z" />
    <glyph glyph-name="Cacute" unicode="&#x106;" horiz-adv-x="1611" 
d="M1137 1554h-76q-25 0 -33 15t4 35l111 182q16 29 49 29h123q26 0 33.5 -15t-9.5 -35l-153 -186q-19 -25 -49 -25zM1061 0h-467q-509 0 -401 498l94 448q55 258 188 379t381 121h457q509 0 401 -500l-4 -20q-6 -37 -43 -37h-119q-20 0 -31.5 10t-7.5 23l4 30
q37 171 -10.5 235t-208.5 64h-456q-161 0 -236 -63q-76 -64 -113 -236l-96 -460q-37 -169 11.5 -233t207.5 -64h457q159 0 234 63q77 64 114 234l10 49q6 37 46 37h118q43 0 37 -39l-8 -41q-55 -259 -184 -378.5t-375 -119.5z" />
    <glyph glyph-name="cacute" unicode="&#x107;" horiz-adv-x="1341" 
d="M920 1260h-76q-25 0 -33 14.5t4 34.5l111 182q16 29 49 29h123q26 0 33.5 -15t-9.5 -35l-153 -186q-18 -24 -49 -24zM811 0h-340q-247 0 -326.5 106.5t-29.5 348.5l53 247q28 128 58 201.5t83 132.5q55 61 139.5 88t210.5 27h340q234 0 319 -99.5t44 -322.5
q-9 -37 -45 -37h-111q-43 0 -37 47q27 142 -10 185q-33 45 -174 45h-332q-142 0 -200 -49q-53 -47 -88 -203l-62 -279q-34 -155 2 -207q37 -49 180 -49h332q144 0 197 47q55 46 90 197q9 37 45 37h108q46 0 37 -47q-60 -242 -159 -328q-101 -88 -324 -88z" />
    <glyph glyph-name="Ccircumflex" unicode="&#x108;" horiz-adv-x="1611" 
d="M821 1599l187 191q17 20 51 20h162q33 0 49 -28l100 -185q11 -20 2.5 -34.5t-31.5 -14.5h-86q-33 0 -49 29l-78 139l-145 -147q-21 -21 -49 -21h-92q-26 0 -33 15.5t12 35.5zM1061 0h-467q-509 0 -401 498l94 448q55 258 188 379t381 121h457q509 0 401 -500l-4 -20
q-6 -37 -43 -37h-119q-20 0 -31.5 10t-7.5 23l4 30q37 171 -10.5 235t-208.5 64h-456q-161 0 -236 -63q-76 -64 -113 -236l-96 -460q-37 -169 11.5 -233t207.5 -64h457q159 0 234 63q77 64 114 234l10 49q6 37 46 37h118q43 0 37 -39l-8 -41q-55 -259 -184 -378.5
t-375 -119.5z" />
    <glyph glyph-name="ccircumflex" unicode="&#x109;" horiz-adv-x="1341" 
d="M596 1307l186 190q18 21 52 21h161q33 0 49 -29l101 -184q10 -23 2 -36.5t-31 -13.5h-86q-33 0 -49 29l-78 139l-145 -147q-21 -21 -49 -21h-93q-26 0 -32.5 16t12.5 36zM811 0h-340q-247 0 -326.5 106.5t-29.5 348.5l53 247q28 128 58 201.5t83 132.5q55 61 139.5 88
t210.5 27h340q234 0 319 -99.5t44 -322.5q-9 -37 -45 -37h-111q-43 0 -37 47q27 142 -10 185q-33 45 -174 45h-332q-142 0 -200 -49q-53 -47 -88 -203l-62 -279q-34 -155 2 -207q37 -49 180 -49h332q144 0 197 47q55 46 90 197q9 37 45 37h108q46 0 37 -47
q-60 -242 -159 -328q-101 -88 -324 -88z" />
    <glyph glyph-name="Cdotaccent" unicode="&#x10a;" horiz-adv-x="1611" 
d="M1126 1554h-98q-44 0 -35 45l37 181q6 37 45 37h99q43 0 34 -45l-37 -181q-6 -37 -45 -37zM1061 0h-467q-509 0 -401 498l94 448q55 258 188 379t381 121h457q509 0 401 -500l-4 -20q-6 -37 -43 -37h-119q-20 0 -31.5 10t-7.5 23l4 30q37 171 -10.5 235t-208.5 64h-456
q-161 0 -236 -63q-76 -64 -113 -236l-96 -460q-37 -169 11.5 -233t207.5 -64h457q159 0 234 63q77 64 114 234l10 49q6 37 46 37h118q43 0 37 -39l-8 -41q-55 -259 -184 -378.5t-375 -119.5z" />
    <glyph glyph-name="cdotaccent" unicode="&#x10b;" horiz-adv-x="1341" 
d="M915 1266h-98q-44 0 -35 45l37 180q6 37 45 37h99q43 0 34 -45l-36 -180q-6 -37 -46 -37zM811 0h-340q-247 0 -326.5 106.5t-29.5 348.5l53 247q28 128 58 201.5t83 132.5q55 61 139.5 88t210.5 27h340q234 0 319 -99.5t44 -322.5q-9 -37 -45 -37h-111q-43 0 -37 47
q27 142 -10 185q-33 45 -174 45h-332q-142 0 -200 -49q-53 -47 -88 -203l-62 -279q-34 -155 2 -207q37 -49 180 -49h332q144 0 197 47q55 46 90 197q9 37 45 37h108q46 0 37 -47q-60 -242 -159 -328q-101 -88 -324 -88z" />
    <glyph glyph-name="Ccaron" unicode="&#x10c;" horiz-adv-x="1611" 
d="M1151 1550h-162q-33 0 -49 29l-102 184q-11 20 -3 34.5t31 14.5h86q33 0 49 -28l80 -137l144 145q20 20 49 20h92q26 0 32.5 -15.5t-12.5 -35.5l-184 -190q-18 -21 -51 -21zM1061 0h-467q-509 0 -401 498l94 448q55 258 188 379t381 121h457q509 0 401 -500l-4 -20
q-6 -37 -43 -37h-119q-20 0 -31.5 10t-7.5 23l4 30q37 171 -10.5 235t-208.5 64h-456q-161 0 -236 -63q-76 -64 -113 -236l-96 -460q-37 -169 11.5 -233t207.5 -64h457q159 0 234 63q77 64 114 234l10 49q6 37 46 37h118q43 0 37 -39l-8 -41q-55 -259 -184 -378.5
t-375 -119.5z" />
    <glyph glyph-name="ccaron" unicode="&#x10d;" horiz-adv-x="1341" 
d="M942 1253h-162q-33 0 -49 29l-102 184q-11 20 -3 35t31 15h86q34 0 50 -29l79 -137l144 145q21 21 49 21h92q26 0 33 -16t-12 -36l-185 -190q-18 -21 -51 -21zM811 0h-340q-247 0 -326.5 106.5t-29.5 348.5l53 247q28 128 58 201.5t83 132.5q55 61 139.5 88t210.5 27h340
q234 0 319 -99.5t44 -322.5q-9 -37 -45 -37h-111q-43 0 -37 47q27 142 -10 185q-33 45 -174 45h-332q-142 0 -200 -49q-53 -47 -88 -203l-62 -279q-34 -155 2 -207q37 -49 180 -49h332q144 0 197 47q55 46 90 197q9 37 45 37h108q46 0 37 -47q-60 -242 -159 -328
q-101 -88 -324 -88z" />
    <glyph glyph-name="Dcaron" unicode="&#x10e;" horiz-adv-x="1638" 
d="M1042 1552h-161q-34 0 -50 29l-102 184q-11 20 -2.5 35t31.5 15h86q33 0 49 -29l80 -137l143 145q21 21 49 21h92q26 0 33 -16t-12 -36l-184 -190q-18 -21 -52 -21zM969 0h-908q-43 0 -34 45l288 1364q6 37 45 37h861q263 0 359 -131t36 -412l-78 -368
q-62 -286 -188 -412q-126 -123 -381 -123zM485 1251l-225 -1058h703q170 0 251 69t125 275l78 366q44 205 -8 275q-49 73 -221 73h-703z" />
    <glyph glyph-name="dcaron" unicode="&#x10f;" horiz-adv-x="1667" 
d="M1227 1004l108 514q6 36 45 36h111q44 0 35 -45l-314 -1472q-6 -37 -45 -37h-110q-44 0 -35 45l20 100q-100 -145 -354 -145h-217q-244 0 -325 107t-31 342l53 247q53 252 149 351q101 104 342 104h275q256 0 293 -147zM1479 823l280 590q15 31 47 31h127q25 0 33 -14.5
t-4 -34.5l-340 -592q-16 -29 -49 -29h-64q-23 0 -32 14.5t2 34.5zM485 182h332q123 0 184.5 43t92.5 164l80 369q18 124 -24 167.5t-165 43.5h-332q-142 0 -200 -49q-53 -47 -88 -207l-62 -279q-34 -152 4 -203q37 -49 178 -49z" />
    <glyph glyph-name="Dcroat" unicode="&#x110;" horiz-adv-x="1687" 
d="M397 1446h875q245 0 346.5 -140.5t46.5 -402.5l-78 -368q-58 -272 -195 -403.5t-374 -131.5h-920q-44 0 -35 45l125 592h-98q-46 0 -37 45l21 100q6 37 45 37h108l125 590q6 37 45 37zM1386 537l78 366q41 183 -15 265.5t-212 82.5h-715l-92 -432h436q46 0 37 -45
l-20 -100q-6 -37 -45 -37h-447l-94 -444h715q155 0 245.5 81t128.5 263z" />
    <glyph glyph-name="dslash" unicode="&#x111;" horiz-adv-x="1406" 
d="M1507 1419h66q44 0 35 -45l-13 -63q-6 -37 -45 -37h-73l-265 -1237q-6 -37 -45 -37h-110q-44 0 -35 45l20 100q-100 -145 -354 -145h-217q-244 0 -325 107t-31 342l53 247q53 252 149 351q101 104 342 104h275q256 0 293 -147l57 270h-360q-46 0 -37 45l14 63q9 37 45 37
h369l20 99q6 36 45 36h111q44 0 35 -45zM485 182h332q123 0 184.5 43t92.5 164l80 369q18 124 -24 167.5t-165 43.5h-332q-142 0 -200 -49q-53 -47 -88 -207l-62 -279q-34 -152 4 -203q37 -49 178 -49z" />
    <glyph glyph-name="Emacron" unicode="&#x112;" horiz-adv-x="1427" 
d="M1202 1567h-510q-44 0 -35 45l13 65q6 37 45 37h510q44 0 35 -45l-13 -65q-6 -37 -45 -37zM1202 0h-1141q-43 0 -34 45l288 1364q6 37 45 37h1141q44 0 35 -45l-23 -113q-6 -37 -45 -37h-985l-88 -420h664q44 0 35 -45l-23 -106q-6 -37 -45 -37h-672l-96 -448h977
q44 0 35 -45l-23 -113q-6 -37 -45 -37z" />
    <glyph glyph-name="emacron" unicode="&#x113;" horiz-adv-x="1300" 
d="M1106 1274h-510q-44 0 -35 45l12 65q6 37 45 37h510q44 0 35 -45l-12 -65q-6 -37 -45 -37zM1026 0h-541q-249 0 -334.5 108.5t-35.5 346.5l53 247q28 130 56.5 202.5t80.5 131.5q54 61 136.5 88t211.5 27h289q246 0 329.5 -108t33.5 -341l-39 -188q-6 -37 -45 -37h-908
l-8 -39q-34 -155 2 -207q34 -49 178 -49h572q44 0 35 -45l-21 -100q-6 -37 -45 -37zM365 717l-15 -66h752l14 66q34 155 -4 203q-34 49 -178 49h-281q-142 0 -200 -49q-53 -47 -88 -203z" />
    <glyph glyph-name="Ebreve" unicode="&#x114;" horiz-adv-x="1427" 
d="M946 1546q-143 0 -207.5 56.5t-40.5 171.5v4q6 37 45 37h76q46 0 43 -21l-6 -22q-12 -60 9 -82.5t89 -22.5q69 0 98.5 21t41.5 81l2 9q9 37 45 37h76q43 0 40 -23l-4 -25q-26 -121 -97 -171t-210 -50zM1202 0h-1141q-43 0 -34 45l288 1364q6 37 45 37h1141q44 0 35 -45
l-23 -113q-6 -37 -45 -37h-985l-88 -420h664q44 0 35 -45l-23 -106q-6 -37 -45 -37h-672l-96 -448h977q44 0 35 -45l-23 -113q-6 -37 -45 -37z" />
    <glyph glyph-name="ebreve" unicode="&#x115;" horiz-adv-x="1300" 
d="M858 1257q-143 0 -207.5 56.5t-40.5 171.5v4q6 37 45 37h76q46 0 43 -21l-6 -22q-12 -60 9 -82.5t89 -22.5q69 0 98.5 21.5t41.5 81.5l2 8q9 37 45 37h75q44 0 41 -23l-4 -24q-26 -121 -97.5 -171.5t-209.5 -50.5zM1026 0h-541q-249 0 -334.5 108.5t-35.5 346.5l53 247
q28 130 56.5 202.5t80.5 131.5q54 61 136.5 88t211.5 27h289q246 0 329.5 -108t33.5 -341l-39 -188q-6 -37 -45 -37h-908l-8 -39q-34 -155 2 -207q34 -49 178 -49h572q44 0 35 -45l-21 -100q-6 -37 -45 -37zM365 717l-15 -66h752l14 66q34 155 -4 203q-34 49 -178 49h-281
q-142 0 -200 -49q-53 -47 -88 -203z" />
    <glyph glyph-name="Edotaccent" unicode="&#x116;" horiz-adv-x="1427" 
d="M975 1546h-98q-44 0 -35 45l37 181q6 36 45 36h98q44 0 35 -45l-37 -180q-6 -37 -45 -37zM1202 0h-1141q-43 0 -34 45l288 1364q6 37 45 37h1141q44 0 35 -45l-23 -113q-6 -37 -45 -37h-985l-88 -420h664q44 0 35 -45l-23 -106q-6 -37 -45 -37h-672l-96 -448h977
q44 0 35 -45l-23 -113q-6 -37 -45 -37z" />
    <glyph glyph-name="edotaccent" unicode="&#x117;" horiz-adv-x="1300" 
d="M895 1268h-98q-44 0 -35 45l37 180q6 37 45 37h98q44 0 35 -45l-37 -180q-6 -37 -45 -37zM1026 0h-541q-249 0 -334.5 108.5t-35.5 346.5l53 247q28 130 56.5 202.5t80.5 131.5q54 61 136.5 88t211.5 27h289q246 0 329.5 -108t33.5 -341l-39 -188q-6 -37 -45 -37h-908
l-8 -39q-34 -155 2 -207q34 -49 178 -49h572q44 0 35 -45l-21 -100q-6 -37 -45 -37zM365 717l-15 -66h752l14 66q34 155 -4 203q-34 49 -178 49h-281q-142 0 -200 -49q-53 -47 -88 -203z" />
    <glyph glyph-name="Eogonek" unicode="&#x118;" horiz-adv-x="1427" 
d="M1536 1401l-23 -113q-6 -37 -45 -37h-985l-88 -420h664q44 0 35 -45l-23 -106q-6 -37 -45 -37h-672l-96 -448h977q44 0 35 -45l-23 -113q-6 -37 -47 -37q-85 -3 -113 -23q-30 -21 -49 -94q-14 -69 6.5 -96t98.5 -31q46 -3 37 -47l-17 -69q-9 -37 -47 -37
q-152 4 -207.5 66t-25.5 188q18 92 75 143h-897q-43 0 -34 45l288 1364q6 37 45 37h1141q44 0 35 -45z" />
    <glyph glyph-name="eogonek" unicode="&#x119;" horiz-adv-x="1300" 
d="M653 1151h289q246 0 329.5 -108t33.5 -341l-39 -188q-6 -37 -45 -37h-908l-8 -39q-34 -155 2 -207q34 -49 178 -49h572q44 0 35 -45l-21 -100q-6 -37 -47 -37q-80 -2 -110.5 -24t-49.5 -93q-14 -69 6.5 -96t98.5 -31q46 -3 37 -47l-17 -69q-9 -37 -47 -37
q-152 4 -207.5 66t-25.5 188q18 92 75 143h-299q-249 0 -334.5 108.5t-35.5 346.5l53 247q28 130 56.5 202.5t80.5 131.5q54 61 136.5 88t211.5 27zM1102 651l14 66q34 155 -4 203q-34 49 -178 49h-281q-142 0 -200 -49q-53 -47 -88 -203l-15 -66h752z" />
    <glyph glyph-name="Ecaron" unicode="&#x11a;" horiz-adv-x="1427" 
d="M1004 1548h-162q-33 0 -49 29l-103 184q-11 20 -2.5 34.5t31.5 14.5h86q33 0 49 -28l80 -137l143 145q20 20 49 20h93q26 0 32.5 -15.5t-12.5 -35.5l-184 -190q-18 -21 -51 -21zM1202 0h-1141q-43 0 -34 45l288 1364q6 37 45 37h1141q44 0 35 -45l-23 -113
q-6 -37 -45 -37h-985l-88 -420h664q44 0 35 -45l-23 -106q-6 -37 -45 -37h-672l-96 -448h977q44 0 35 -45l-23 -113q-6 -37 -45 -37z" />
    <glyph glyph-name="ecaron" unicode="&#x11b;" horiz-adv-x="1300" 
d="M924 1255h-162q-33 0 -49 29l-103 184q-11 20 -2.5 35t31.5 15h86q33 0 49 -29l80 -137l143 145q21 21 50 21h92q26 0 32.5 -16t-12.5 -36l-184 -190q-18 -21 -51 -21zM1026 0h-541q-249 0 -334.5 108.5t-35.5 346.5l53 247q28 130 56.5 202.5t80.5 131.5q54 61 136.5 88
t211.5 27h289q246 0 329.5 -108t33.5 -341l-39 -188q-6 -37 -45 -37h-908l-8 -39q-34 -155 2 -207q34 -49 178 -49h572q44 0 35 -45l-21 -100q-6 -37 -45 -37zM365 717l-15 -66h752l14 66q34 155 -4 203q-34 49 -178 49h-281q-142 0 -200 -49q-53 -47 -88 -203z" />
    <glyph glyph-name="Gcircumflex" unicode="&#x11c;" horiz-adv-x="1624" 
d="M795 1599l186 191q17 20 51 20h162q33 0 49 -28l100 -185q11 -20 3 -34.5t-31 -14.5h-86q-33 0 -49 29l-78 139l-146 -147q-21 -21 -49 -21h-92q-26 0 -32.5 15.5t12.5 35.5zM1047 0h-465q-514 0 -406 498l94 448q52 250 183 375q128 125 383 125h464q492 0 416 -451
q-6 -37 -43 -37h-119q-42 0 -36 46q23 139 -29 193t-203 54h-465q-160 0 -235 -63q-76 -64 -113 -236l-96 -460q-37 -169 11.5 -233t207.5 -64h467q158 0 233 63t113 234l18 83h-442q-44 0 -35 46l21 98q6 37 45 37h606q44 0 35 -45l-45 -213q-52 -251 -182 -375
q-129 -123 -383 -123z" />
    <glyph glyph-name="gcircumflex" unicode="&#x11d;" 
d="M582 1311l186 190q18 21 51 21h162q33 0 49 -29l100 -184q10 -23 2.5 -36t-30.5 -13h-86q-33 0 -49 28l-78 139l-146 -147q-20 -20 -49 -20h-92q-26 0 -32.5 15.5t12.5 35.5zM688 -403h-563q-44 0 -35 45l21 100q6 37 45 37h555q140 0 200 57q65 56 95 199l34 168
q-51 -85 -134.5 -122.5t-223.5 -37.5h-219q-244 0 -325 108.5t-29 346.5l43 204q28 128 58 201.5t83 132.5q55 61 139.5 88t210.5 27h275q139 0 206.5 -38.5t81.5 -121.5l27 123q6 37 45 37h111q43 0 34 -45l-223 -1055q-53 -233 -162 -342q-109 -112 -350 -112zM479 225
h332q129 0 190 49q62 47 97 207l51 236q34 152 -10 203q-40 49 -170 49h-332q-143 0 -201 -49q-53 -47 -88 -203l-51 -236q-34 -155 2 -207q37 -49 180 -49z" />
    <glyph glyph-name="Gbreve" unicode="&#x11e;" horiz-adv-x="1624" 
d="M1063 1548q-143 0 -207.5 56.5t-40.5 171.5v4q6 37 45 37h76q46 0 43 -21l-6 -22q-12 -60 9 -82.5t89 -22.5q69 0 98 21.5t41 81.5l2 8q9 37 45 37h76q44 0 41 -23l-4 -25q-26 -121 -97 -171t-210 -50zM1047 0h-465q-514 0 -406 498l94 448q52 250 183 375
q128 125 383 125h464q492 0 416 -451q-6 -37 -43 -37h-119q-42 0 -36 46q23 139 -29 193t-203 54h-465q-160 0 -235 -63q-76 -64 -113 -236l-96 -460q-37 -169 11.5 -233t207.5 -64h467q158 0 233 63t113 234l18 83h-442q-44 0 -35 46l21 98q6 37 45 37h606q44 0 35 -45
l-45 -213q-52 -251 -182 -375q-129 -123 -383 -123z" />
    <glyph glyph-name="gbreve" unicode="&#x11f;" 
d="M862 1251q-143 0 -207.5 56.5t-40.5 171.5v4q6 37 45 37h76q46 0 43 -21l-6 -22q-12 -60 9 -82.5t89 -22.5q69 0 98.5 21.5t41.5 81.5l2 8q9 37 45 37h76q44 0 41 -23l-5 -24q-26 -121 -97.5 -171.5t-209.5 -50.5zM688 -403h-563q-44 0 -35 45l21 100q6 37 45 37h555
q140 0 200 57q65 56 95 199l34 168q-51 -85 -134.5 -122.5t-223.5 -37.5h-219q-244 0 -325 108.5t-29 346.5l43 204q28 128 58 201.5t83 132.5q55 61 139.5 88t210.5 27h275q139 0 206.5 -38.5t81.5 -121.5l27 123q6 37 45 37h111q43 0 34 -45l-223 -1055
q-53 -233 -162 -342q-109 -112 -350 -112zM479 225h332q129 0 190 49q62 47 97 207l51 236q34 152 -10 203q-40 49 -170 49h-332q-143 0 -201 -49q-53 -47 -88 -203l-51 -236q-34 -155 2 -207q37 -49 180 -49z" />
    <glyph glyph-name="Gdotaccent" unicode="&#x120;" horiz-adv-x="1624" 
d="M1110 1552h-98q-44 0 -35 45l37 181q6 37 45 37h98q44 0 35 -46l-37 -180q-6 -37 -45 -37zM1047 0h-465q-514 0 -406 498l94 448q52 250 183 375q128 125 383 125h464q492 0 416 -451q-6 -37 -43 -37h-119q-42 0 -36 46q23 139 -29 193t-203 54h-465q-160 0 -235 -63
q-76 -64 -113 -236l-96 -460q-37 -169 11.5 -233t207.5 -64h467q158 0 233 63t113 234l18 83h-442q-44 0 -35 46l21 98q6 37 45 37h606q44 0 35 -45l-45 -213q-52 -251 -182 -375q-129 -123 -383 -123z" />
    <glyph glyph-name="gdotaccent" unicode="&#x121;" 
d="M899 1268h-98q-44 0 -35 45l37 180q6 37 45 37h98q44 0 35 -45l-37 -180q-6 -37 -45 -37zM688 -403h-563q-44 0 -35 45l21 100q6 37 45 37h555q140 0 200 57q65 56 95 199l34 168q-51 -85 -134.5 -122.5t-223.5 -37.5h-219q-244 0 -325 108.5t-29 346.5l43 204
q28 128 58 201.5t83 132.5q55 61 139.5 88t210.5 27h275q139 0 206.5 -38.5t81.5 -121.5l27 123q6 37 45 37h111q43 0 34 -45l-223 -1055q-53 -233 -162 -342q-109 -112 -350 -112zM479 225h332q129 0 190 49q62 47 97 207l51 236q34 152 -10 203q-40 49 -170 49h-332
q-143 0 -201 -49q-53 -47 -88 -203l-51 -236q-34 -155 2 -207q37 -49 180 -49z" />
    <glyph glyph-name="Gcommaaccent" unicode="&#x122;" horiz-adv-x="1624" 
d="M1047 0h-465q-514 0 -406 498l94 448q52 250 183 375q128 125 383 125h464q492 0 416 -451q-6 -37 -43 -37h-119q-42 0 -36 46q23 139 -29 193t-203 54h-465q-160 0 -235 -63q-76 -64 -113 -236l-96 -460q-37 -169 11.5 -233t207.5 -64h467q158 0 233 63t113 234l18 83
h-442q-44 0 -35 46l21 98q6 37 45 37h606q44 0 35 -45l-45 -213q-52 -251 -182 -375q-129 -123 -383 -123zM713 -403h-60q-51 0 -30 47l88 211q9 30 49 30h106q24 0 31.5 -14.5t-4.5 -34.5l-131 -213q-14 -26 -49 -26z" />
    <glyph glyph-name="gcommaaccent" unicode="&#x123;" 
d="M965 1548h59q52 0 31 -47l-88 -211q-9 -30 -49 -30h-107q-52 0 -27 49l131 213q14 26 50 26zM688 -403h-563q-44 0 -35 45l21 100q6 37 45 37h555q140 0 200 57q65 56 95 199l34 168q-51 -85 -134.5 -122.5t-223.5 -37.5h-219q-244 0 -325 108.5t-29 346.5l43 204
q28 128 58 201.5t83 132.5q55 61 139.5 88t210.5 27h275q139 0 206.5 -38.5t81.5 -121.5l27 123q6 37 45 37h111q43 0 34 -45l-223 -1055q-53 -233 -162 -342q-109 -112 -350 -112zM479 225h332q129 0 190 49q62 47 97 207l51 236q34 152 -10 203q-40 49 -170 49h-332
q-143 0 -201 -49q-53 -47 -88 -203l-51 -236q-34 -155 2 -207q37 -49 180 -49z" />
    <glyph glyph-name="Hcircumflex" unicode="&#x124;" horiz-adv-x="1587" 
d="M717 1599l186 191q17 20 51 20h162q33 0 49 -28l101 -185q11 -20 2.5 -34.5t-31.5 -14.5h-86q-33 0 -49 29l-78 139l-145 -147q-21 -21 -50 -21h-92q-26 0 -32.5 15.5t12.5 35.5zM180 0h-119q-43 0 -34 45l288 1364q6 37 45 37h119q44 0 35 -45l-121 -578h926l123 586
q6 37 45 37h121q43 0 34 -45l-288 -1364q-6 -37 -45 -37h-121q-44 0 -35 45l127 598h-926l-129 -606q-6 -37 -45 -37z" />
    <glyph glyph-name="hcircumflex" unicode="&#x125;" horiz-adv-x="1366" 
d="M563 1712l187 191q17 20 51 20h162q33 0 49 -29l100 -184q10 -23 2 -36t-31 -13h-86q-33 0 -49 29l-78 139l-145 -148q-20 -20 -49 -20h-92q-26 0 -33 15.5t12 35.5zM768 1151h176q247 0 326.5 -106.5t29.5 -348.5l-141 -661q-6 -37 -45 -37h-110q-44 0 -35 45l143 670
q35 156 -4 207q-34 49 -178 49h-291q-129 0 -192 -47t-91 -179l-149 -706q-6 -37 -45 -37h-111q-44 0 -35 45l314 1473q6 36 45 36h110q44 0 35 -45l-106 -505q99 147 354 147z" />
    <glyph glyph-name="Hbar" unicode="&#x126;" horiz-adv-x="1634" 
d="M1622 1204h82q44 0 35 -45l-21 -98q-6 -37 -45 -37h-90l-209 -987q-6 -37 -45 -37h-121q-43 0 -34 45l126 598h-925l-129 -606q-6 -37 -45 -37h-119q-44 0 -35 45l207 979h-74q-44 0 -35 45l21 98q6 37 45 37h82l43 205q6 37 45 37h119q44 0 35 -45l-41 -197h925l43 205
q6 37 45 37h121q44 0 35 -45zM414 823h925l43 201h-925z" />
    <glyph glyph-name="hbar" unicode="&#x127;" horiz-adv-x="1392" 
d="M795 1151h176q247 0 326.5 -106.5t29.5 -348.5l-141 -661q-6 -37 -45 -37h-111q-44 0 -35 45l144 670q35 156 -4 207q-34 49 -179 49h-290q-129 0 -192 -47t-91 -179l-150 -706q-6 -37 -45 -37h-110q-44 0 -35 45l262 1229h-80q-46 0 -37 45l15 63q9 37 45 37h88l20 99
q6 36 45 36h111q44 0 35 -45l-19 -90h349q45 0 36 -45l-14 -63q-9 -37 -45 -37h-356l-58 -270q99 147 355 147z" />
    <glyph glyph-name="Itilde" unicode="&#x128;" horiz-adv-x="446" 
d="M240 1585q-25 -11 -37 -2t-8 35l12 70q6 33 33 45q36 19 82 22q40 1 63.5 -3.5t67.5 -22.5q39 -15 65 -21q82 -19 156 14q25 11 37 3.5t8 -33.5l-12 -72q-6 -32 -33 -47q-52 -25 -99 -25q-41 0 -65 4q-27 9 -72 27q-107 43 -198 6zM180 0h-119q-43 0 -34 45l288 1364
q6 37 45 37h119q44 0 35 -45l-289 -1364q-6 -37 -45 -37z" />
    <glyph glyph-name="itilde" unicode="&#x129;" horiz-adv-x="417" 
d="M119 1296q-23 -10 -35.5 -1t-7.5 34l12 70q6 36 33 45q39 19 84 22q17 2 31 1.5t23 -1t25 -6t22.5 -8t31.5 -12.5q77 -25 102 -27q40 -3 125 21q25 11 37 3t8 -34l-12 -72q-6 -30 -33 -45q-47 -23 -100 -26q-44 0 -68 4l-73 26q-111 43 -205 6zM156 0h-111q-44 0 -35 45
l228 1069q6 37 45 37h110q44 0 35 -45l-227 -1069q-6 -37 -45 -37z" />
    <glyph glyph-name="Imacron" unicode="&#x12a;" horiz-adv-x="448" 
d="M641 1569h-397q-43 0 -37 45l12 65q6 37 43 37h397q43 0 37 -45l-10 -65q-6 -37 -45 -37zM180 0h-119q-43 0 -34 45l288 1364q6 37 45 37h119q44 0 35 -45l-289 -1364q-6 -37 -45 -37z" />
    <glyph glyph-name="imacron" unicode="&#x12b;" horiz-adv-x="417" 
d="M514 1272h-381q-43 0 -37 45l10 65q6 37 46 37h380q43 0 37 -45l-10 -65q-6 -37 -45 -37zM156 0h-111q-44 0 -35 45l228 1069q6 37 45 37h110q44 0 35 -45l-227 -1069q-6 -37 -45 -37z" />
    <glyph glyph-name="Ibreve" unicode="&#x12c;" horiz-adv-x="448" 
d="M451 1548q-143 0 -207.5 56.5t-40.5 171.5v4q6 37 45 37h76q46 0 43 -21l-7 -22q-12 -60 9.5 -82.5t89.5 -22.5q69 0 98 21.5t41 81.5l2 8q9 37 45 37h76q44 0 41 -23l-4 -25q-26 -121 -97 -171t-210 -50zM180 0h-119q-43 0 -34 45l288 1364q6 37 45 37h119q44 0 35 -45
l-289 -1364q-6 -37 -45 -37z" />
    <glyph glyph-name="ibreve" unicode="&#x12d;" horiz-adv-x="423" 
d="M369 1251q-143 0 -207.5 56.5t-40.5 171.5v4q6 37 45 37h76q46 0 43 -21l-6 -22q-12 -60 9 -82.5t89 -22.5q69 0 98 21.5t41 81.5l2 8q9 37 45 37h76q44 0 41 -23l-4 -24q-26 -121 -97.5 -171.5t-209.5 -50.5zM160 0h-111q-44 0 -35 45l228 1069q6 37 45 37h110
q44 0 35 -45l-227 -1069q-6 -37 -45 -37z" />
    <glyph glyph-name="Iogonek" unicode="&#x12e;" horiz-adv-x="452" 
d="M190 -291l-16 -69q-9 -37 -47 -37q-152 4 -207.5 66t-25.5 188q29 141 151 188l289 1364q6 37 45 37h119q43 0 34 -45l-288 -1364q-6 -37 -47 -37q-74 -5 -102.5 -27.5t-45.5 -89.5q-14 -69 6.5 -96t98.5 -31q45 -3 36 -47z" />
    <glyph glyph-name="iogonek" unicode="&#x12f;" horiz-adv-x="421" 
d="M305 1319l41 199q6 36 45 36h111q44 0 35 -45l-41 -198q-6 -37 -45 -37h-111q-44 0 -35 45zM33 47l227 1067q6 37 45 37h111q44 0 35 -45l-228 -1069q-6 -37 -47 -37q-70 -5 -99 -27.5t-46 -89.5q-14 -69 6 -96t98 -31q46 -3 37 -47l-16 -69q-9 -37 -47 -37
q-152 4 -208 66t-26 188q35 147 158 190z" />
    <glyph glyph-name="Idot" unicode="&#x130;" horiz-adv-x="452" 
d="M498 1559h-99q-43 0 -34 45l36 180q6 37 45 37h99q44 0 35 -45l-37 -181q-6 -36 -45 -36zM180 0h-119q-43 0 -34 45l288 1364q6 37 45 37h119q44 0 35 -45l-289 -1364q-6 -37 -45 -37z" />
    <glyph glyph-name="dotlessi" unicode="&#x131;" horiz-adv-x="425" 
d="M160 0h-111q-44 0 -35 45l228 1069q6 37 45 37h110q44 0 35 -45l-227 -1069q-6 -37 -45 -37z" />
    <glyph glyph-name="Jcircumflex" unicode="&#x134;" horiz-adv-x="1556" 
d="M799 1604l186 190q18 21 51 21h162q33 0 49 -29l101 -184q11 -20 2.5 -35t-31.5 -15h-86q-33 0 -49 29l-78 139l-145 -147q-21 -21 -50 -21h-92q-26 0 -32.5 16t12.5 36zM979 0h-379q-515 0 -407 498l30 145q6 37 45 37h119q44 0 35 -45l-29 -143q-37 -169 11.5 -233
t207.5 -64h381q159 0 234 63q77 64 114 234l193 917q6 37 45 37h121q44 0 35 -45l-191 -903q-52 -251 -182 -375q-129 -123 -383 -123z" />
    <glyph glyph-name="jcircumflex" unicode="&#x135;" horiz-adv-x="425" 
d="M88 1305l186 190q18 21 52 21h161q34 0 50 -29l100 -184q11 -20 2.5 -35t-31.5 -15h-86q-33 0 -49 29l-78 139l-145 -147q-21 -21 -49 -21h-92q-26 0 -33 16t12 36zM70 -403h-111q-44 0 -35 45l314 1472q6 37 45 37h110q44 0 35 -45l-313 -1473q-6 -36 -45 -36z" />
    <glyph glyph-name="Kcommaaccent" unicode="&#x136;" horiz-adv-x="1525" 
d="M180 0h-119q-43 0 -34 45l288 1364q6 37 45 37h119q44 0 35 -45l-123 -588h324l692 614q22 19 51 19h164q29 0 34 -16t-16 -35l-763 -676l479 -670q14 -20 6 -34.5t-33 -14.5h-137q-33 0 -49 25l-443 608h-348l-127 -596q-6 -37 -45 -37zM569 -403h-59q-52 0 -31 47
l88 211q9 30 49 30h107q24 0 31.5 -14.5t-4.5 -34.5l-132 -213q-14 -26 -49 -26z" />
    <glyph glyph-name="kcommaaccent" unicode="&#x137;" horiz-adv-x="1261" 
d="M164 0h-111q-44 0 -35 45l314 1473q6 36 45 36h110q44 0 35 -45l-180 -852h242l532 476q21 18 51 18h152q26 0 32 -16t-14 -35l-592 -525l365 -526q14 -20 6 -34.5t-33 -14.5h-127q-28 0 -49 27l-325 462h-275l-98 -452q-6 -37 -45 -37zM393 -403h-59q-52 0 -31 47
l88 211q9 30 49 30h107q24 0 31 -14.5t-5 -34.5l-131 -213q-14 -26 -49 -26z" />
    <glyph glyph-name="kgreenlandic" unicode="&#x138;" horiz-adv-x="1261" 
d="M164 0h-111q-44 0 -35 45l228 1069q6 37 45 37h110q44 0 35 -45l-94 -449h242l532 476q21 18 51 18h152q26 0 32 -16t-14 -35l-592 -525l365 -526q14 -20 6 -34.5t-33 -14.5h-127q-28 0 -49 27l-325 462h-275l-98 -452q-6 -37 -45 -37z" />
    <glyph glyph-name="Lacute" unicode="&#x139;" horiz-adv-x="1327" 
d="M489 1554h-75q-25 0 -33 15t4 35l111 182q16 29 49 29h123q26 0 33.5 -15t-9.5 -35l-153 -186q-19 -25 -50 -25zM1153 0h-1092q-43 0 -34 45l288 1364q6 37 45 37h119q44 0 35 -45l-254 -1206h926q44 0 35 -45l-23 -113q-6 -37 -45 -37z" />
    <glyph glyph-name="lacute" unicode="&#x13a;" horiz-adv-x="428" 
d="M500 1657h-76q-25 0 -33 14.5t4 34.5l111 182q16 29 49 29h123q26 0 33.5 -14.5t-9.5 -34.5l-153 -187q-18 -24 -49 -24zM160 0h-111q-44 0 -35 45l314 1473q6 36 45 36h110q44 0 35 -45l-313 -1472q-6 -37 -45 -37z" />
    <glyph glyph-name="Lcommaaccent" unicode="&#x13b;" horiz-adv-x="1327" 
d="M1153 0h-1092q-43 0 -34 45l288 1364q6 37 45 37h119q44 0 35 -45l-254 -1206h926q44 0 35 -45l-23 -113q-6 -37 -45 -37zM465 -403h-59q-52 0 -31 47l88 211q9 30 49 30h106q24 0 31.5 -14.5t-4.5 -34.5l-131 -213q-14 -26 -49 -26z" />
    <glyph glyph-name="lcommaaccent" unicode="&#x13c;" horiz-adv-x="567" 
d="M170 0h-111q-43 0 -34 45l313 1473q6 36 45 36h111q43 0 34 -45l-313 -1472q-6 -37 -45 -37zM-18 -403h-60q-52 0 -31 47l89 211q9 30 49 30h106q24 0 31.5 -14.5t-4.5 -34.5l-131 -213q-14 -26 -49 -26z" />
    <glyph glyph-name="Lcaron" unicode="&#x13d;" horiz-adv-x="1327" 
d="M1153 0h-1092q-43 0 -34 45l288 1364q6 37 45 37h119q44 0 35 -45l-254 -1206h926q44 0 35 -45l-23 -113q-6 -37 -45 -37zM700 723h-79q-24 0 -32.5 13t1.5 36l278 582q15 30 47 30h129q23 0 31.5 -14.5t-2.5 -34.5l-323 -583q-16 -29 -50 -29z" />
    <glyph glyph-name="lcaron" unicode="&#x13e;" horiz-adv-x="686" 
d="M158 0h-113q-44 0 -35 45l314 1473q6 36 45 36h112q44 0 35 -45l-313 -1472q-6 -37 -45 -37zM567 774h-63q-23 0 -32 14.5t1 34.5l281 590q16 31 47 31h127q24 0 32 -14.5t-4 -34.5l-340 -592q-16 -29 -49 -29z" />
    <glyph glyph-name="Ldot" unicode="&#x13f;" horiz-adv-x="1327" 
d="M1153 0h-1092q-43 0 -34 45l288 1364q6 37 45 37h119q44 0 35 -45l-254 -1206h926q44 0 35 -45l-23 -113q-6 -37 -45 -37zM895 637h-119q-44 0 -35 45l52 246q6 37 45 37h118q44 0 35 -45l-51 -246q-6 -37 -45 -37z" />
    <glyph glyph-name="ldot" unicode="&#x140;" horiz-adv-x="675" 
d="M160 0h-111q-44 0 -35 45l314 1473q6 36 45 36h110q44 0 35 -45l-313 -1472q-6 -37 -45 -37zM584 426h-119q-44 0 -35 45l51 246q6 37 45 37h119q44 0 35 -45l-51 -246q-6 -37 -45 -37z" />
    <glyph glyph-name="Lslash" unicode="&#x141;" horiz-adv-x="1341" 
d="M350 586l-82 -391h926q44 0 35 -45l-23 -113q-6 -37 -45 -37h-1091q-44 0 -35 45l100 473l-96 -31q-23 -7 -34.5 4t-6.5 35l22 101q6 34 37 43l117 37l150 702q6 37 45 37h118q44 0 35 -45l-131 -627l453 144q23 7 34.5 -4t6.5 -35l-23 -101q-6 -34 -37 -43z" />
    <glyph glyph-name="lslash" unicode="&#x142;" horiz-adv-x="466" 
d="M393 1554h113q44 0 35 -45l-144 -669l76 22q23 6 34 -4t7 -35l-16 -78q-6 -34 -37 -43l-99 -28l-135 -637q-6 -37 -45 -37h-112q-44 0 -35 45l119 563l-78 -24q-23 -7 -34.5 3.5t-6.5 35.5l18 77q6 34 37 43l100 31l158 744q6 36 45 36z" />
    <glyph glyph-name="Nacute" unicode="&#x143;" horiz-adv-x="1611" 
d="M1032 1552h-76q-24 0 -32 15t4 35l110 182q16 28 49 28h123q27 0 34.5 -13t-9.5 -36l-154 -186q-19 -25 -49 -25zM180 0h-119q-43 0 -34 45l288 1364q6 37 45 37h127q35 0 50 -27l690 -1143l241 1133q6 37 45 37h119q44 0 35 -45l-289 -1364q-6 -37 -45 -37h-129
q-33 0 -49 29l-690 1142l-240 -1134q-6 -37 -45 -37z" />
    <glyph glyph-name="nacute" unicode="&#x144;" horiz-adv-x="1363" 
d="M915 1257h-75q-25 0 -33 15t4 35l111 182q16 29 49 29h123q27 0 34 -13.5t-10 -36.5l-153 -186q-19 -25 -50 -25zM768 1151h176q244 0 325 -108.5t29 -346.5l-141 -661q-6 -37 -45 -37h-111q-43 0 -34 45l143 670q34 155 -2 207q-34 49 -178 49h-291q-132 0 -195 -51
q-61 -47 -96 -205l-143 -676q-6 -37 -45 -37h-111q-44 0 -35 45l228 1069q6 37 45 37h108q46 0 37 -45l-22 -105q102 150 358 150z" />
    <glyph glyph-name="Ncommaaccent" unicode="&#x145;" horiz-adv-x="1611" 
d="M180 0h-119q-43 0 -34 45l288 1364q6 37 45 37h127q35 0 50 -27l690 -1143l241 1133q6 37 45 37h119q44 0 35 -45l-289 -1364q-6 -37 -45 -37h-129q-33 0 -49 29l-690 1142l-240 -1134q-6 -37 -45 -37zM567 -403h-59q-52 0 -31 47l88 211q9 30 49 30h107q24 0 31.5 -14.5
t-4.5 -34.5l-132 -213q-14 -26 -49 -26z" />
    <glyph glyph-name="ncommaaccent" unicode="&#x146;" horiz-adv-x="1363" 
d="M768 1151h176q244 0 325 -108.5t29 -346.5l-141 -661q-6 -37 -45 -37h-111q-43 0 -34 45l143 670q34 155 -2 207q-34 49 -178 49h-291q-132 0 -195 -51q-61 -47 -96 -205l-143 -676q-6 -37 -45 -37h-111q-44 0 -35 45l228 1069q6 37 45 37h108q46 0 37 -45l-22 -105
q102 150 358 150zM461 -403h-60q-51 0 -30 47l88 211q9 30 49 30h106q24 0 31.5 -14.5t-4.5 -34.5l-131 -213q-14 -26 -49 -26z" />
    <glyph glyph-name="Ncaron" unicode="&#x147;" horiz-adv-x="1611" 
d="M1085 1552h-161q-34 0 -50 29l-102 184q-11 20 -2.5 35t31.5 15h86q33 0 49 -29l80 -137l143 145q21 21 49 21h92q26 0 33 -16t-12 -36l-184 -190q-18 -21 -52 -21zM180 0h-119q-43 0 -34 45l288 1364q6 37 45 37h127q35 0 50 -27l690 -1143l241 1133q6 37 45 37h119
q44 0 35 -45l-289 -1364q-6 -37 -45 -37h-129q-33 0 -49 29l-690 1142l-240 -1134q-6 -37 -45 -37z" />
    <glyph glyph-name="ncaron" unicode="&#x148;" horiz-adv-x="1363" 
d="M926 1255h-162q-33 0 -49 29l-103 184q-11 20 -2.5 35t31.5 15h86q33 0 49 -29l80 -137l143 145q21 21 50 21h92q26 0 32.5 -16t-12.5 -36l-184 -190q-18 -21 -51 -21zM768 1151h176q244 0 325 -108.5t29 -346.5l-141 -661q-6 -37 -45 -37h-111q-43 0 -34 45l143 670
q34 155 -2 207q-34 49 -178 49h-291q-132 0 -195 -51q-61 -47 -96 -205l-143 -676q-6 -37 -45 -37h-111q-44 0 -35 45l228 1069q6 37 45 37h108q46 0 37 -45l-22 -105q102 150 358 150z" />
    <glyph glyph-name="Eng" unicode="&#x14a;" horiz-adv-x="1611" 
d="M827 -403h-346q-46 0 -37 45l25 112q9 37 45 37h328q257 0 327 211l-704 1169l-240 -1134q-6 -37 -45 -37h-119q-43 0 -34 45l288 1364q6 37 45 37h125q35 0 50 -27l692 -1143l241 1133q6 37 45 37h119q44 0 35 -45l-283 -1333q-50 -236 -185.5 -353.5t-371.5 -117.5z
" />
    <glyph glyph-name="eng" unicode="&#x14b;" horiz-adv-x="1366" 
d="M768 1151h176q244 0 325 -108t31 -347l-227 -1063q-6 -36 -45 -36h-113q-43 0 -34 45l229 1071q34 155 -2 207q-34 49 -178 49h-291q-123 0 -188 -47q-60 -45 -95 -185l-6 -24h-2l-143 -676q-6 -37 -45 -37h-111q-44 0 -35 45l228 1069q6 37 45 37h110q44 0 35 -45
l-22 -107q103 152 358 152z" />
    <glyph glyph-name="Omacron" unicode="&#x14c;" horiz-adv-x="1689" 
d="M1403 1571h-510q-44 0 -35 45l12 65q6 37 45 37h510q44 0 35 -45l-12 -65q-6 -37 -45 -37zM1114 0h-514q-515 0 -407 498l94 448q52 251 182 375q128 125 383 125h514q514 0 406 -500l-95 -448q-52 -258 -183 -378t-380 -120zM612 195h516q160 0 237 65.5t112 231.5
l96 460q37 167 -11 233t-208 66h-516q-159 0 -236 -65q-75 -63 -113 -234l-96 -460q-35 -166 12.5 -231.5t206.5 -65.5z" />
    <glyph glyph-name="omacron" unicode="&#x14d;" horiz-adv-x="1372" 
d="M1126 1270h-510q-43 0 -34 45l12 65q6 37 45 37h510q44 0 35 -45l-13 -65q-6 -37 -45 -37zM811 0h-340q-247 0 -326.5 106.5t-29.5 348.5l53 247q28 128 58 201.5t83 132.5q55 61 139.5 88t210.5 27h340q244 0 325.5 -107t31.5 -342l-53 -247q-53 -251 -152 -353
t-340 -102zM485 182h332q144 0 199 49q54 46 90 207l61 279q34 152 -4 203q-37 49 -178 49h-332q-142 0 -200 -49q-53 -47 -88 -203l-62 -279q-34 -155 2 -207q37 -49 180 -49z" />
    <glyph glyph-name="Obreve" unicode="&#x14e;" horiz-adv-x="1689" 
d="M1135 1554q-143 0 -207.5 56.5t-40.5 171.5v4q6 37 45 37h76q46 0 43 -21l-7 -22q-12 -60 9.5 -82.5t89.5 -22.5q69 0 98 21.5t41 81.5l2 8q9 37 45 37h76q44 0 41 -23l-4 -24q-26 -121 -97.5 -171.5t-209.5 -50.5zM1114 0h-514q-515 0 -407 498l94 448q52 251 182 375
q128 125 383 125h514q514 0 406 -500l-95 -448q-52 -258 -183 -378t-380 -120zM612 195h516q160 0 237 65.5t112 231.5l96 460q37 167 -11 233t-208 66h-516q-159 0 -236 -65q-75 -63 -113 -234l-96 -460q-35 -166 12.5 -231.5t206.5 -65.5z" />
    <glyph glyph-name="obreve" unicode="&#x14f;" horiz-adv-x="1372" 
d="M881 1253q-143 0 -207.5 56.5t-40.5 171.5v4q6 37 45 37h76q46 0 43 -21l-6 -22q-12 -60 9 -82.5t89 -22.5q69 0 98 21.5t41 81.5l2 8q9 37 45 37h76q44 0 41 -23l-4 -24q-26 -121 -97.5 -171.5t-209.5 -50.5zM811 0h-340q-247 0 -326.5 106.5t-29.5 348.5l53 247
q28 128 58 201.5t83 132.5q55 61 139.5 88t210.5 27h340q244 0 325.5 -107t31.5 -342l-53 -247q-53 -251 -152 -353t-340 -102zM485 182h332q144 0 199 49q54 46 90 207l61 279q34 152 -4 203q-37 49 -178 49h-332q-142 0 -200 -49q-53 -47 -88 -203l-62 -279
q-34 -155 2 -207q37 -49 180 -49z" />
    <glyph glyph-name="Ohungarumlaut" unicode="&#x150;" horiz-adv-x="1689" 
d="M991 1552h-63q-25 0 -33 15t4 35l109 182q16 28 49 28h102q27 0 34.5 -14.5t-9.5 -34.5l-144 -186q-19 -25 -49 -25zM1341 1552h-61q-25 0 -33 15t4 35l107 182q16 28 49 28h102q27 0 34.5 -14.5t-9.5 -34.5l-143 -186q-19 -25 -50 -25zM1114 0h-514q-515 0 -407 498
l94 448q52 251 182 375q128 125 383 125h514q514 0 406 -500l-95 -448q-52 -258 -183 -378t-380 -120zM612 195h516q160 0 237 65.5t112 231.5l96 460q37 167 -11 233t-208 66h-516q-159 0 -236 -65q-75 -63 -113 -234l-96 -460q-35 -166 12.5 -231.5t206.5 -65.5z" />
    <glyph glyph-name="ohungarumlaut" unicode="&#x151;" horiz-adv-x="1372" 
d="M715 1255h-64q-24 0 -32 15t4 35l108 182q16 29 49 29h103q26 0 33.5 -15t-9.5 -35l-143 -186q-19 -25 -49 -25zM1065 1255h-61q-25 0 -33 15t4 35l106 182q16 29 49 29h103q26 0 33.5 -15t-9.5 -35l-143 -186q-19 -25 -49 -25zM811 0h-340q-247 0 -326.5 106.5
t-29.5 348.5l53 247q28 128 58 201.5t83 132.5q55 61 139.5 88t210.5 27h340q244 0 325.5 -107t31.5 -342l-53 -247q-53 -251 -152 -353t-340 -102zM485 182h332q144 0 199 49q54 46 90 207l61 279q34 152 -4 203q-37 49 -178 49h-332q-142 0 -200 -49q-53 -47 -88 -203
l-62 -279q-34 -155 2 -207q37 -49 180 -49z" />
    <glyph glyph-name="OE" unicode="&#x152;" horiz-adv-x="2672" 
d="M1010 0h-410q-515 0 -407 498l94 448q52 250 180 375t383 125h410q315 0 370 -168l27 131q6 37 45 37h1141q43 0 34 -45l-22 -113q-6 -37 -45 -37h-985l-90 -424h663q44 0 35 -45l-20 -98q-6 -37 -46 -37h-671l-94 -452h974q46 0 37 -45l-24 -113q-9 -37 -45 -37h-1139
q-46 0 -37 45l27 123q-69 -89 -157 -128.5t-228 -39.5zM612 195h504q151 0 229.5 57.5t108.5 198.5l115 542q30 144 -23 201t-205 57h-503q-161 0 -236 -63q-76 -64 -113 -236l-96 -460q-37 -169 11.5 -233t207.5 -64z" />
    <glyph glyph-name="oe" unicode="&#x153;" horiz-adv-x="2289" 
d="M1688 1151h249q247 0 329.5 -108.5t27.5 -340.5l-43 -188q-9 -37 -45 -37h-906l-8 -39q-34 -155 2 -207q37 -49 181 -49h575q44 0 35 -45l-21 -100q-6 -37 -45 -37h-555q-148 0 -224.5 38.5t-96.5 121.5q-52 -83 -139.5 -121.5t-233.5 -38.5h-301q-246 0 -327 108
t-31 347l53 247q27 125 57.5 199.5t83.5 134.5q55 61 139 88t213 27h336q147 0 223 -38.5t97 -119.5q100 158 375 158zM481 182h334q144 0 199 49q53 47 88 207l61 279q34 155 -4 203q-34 49 -178 49h-332q-142 0 -200 -49q-54 -48 -89 -203l-59 -279q-34 -155 2 -207
q34 -49 178 -49zM2091 649l12 68q27 158 -6 203q-34 49 -174 49h-283q-140 0 -198 -49q-53 -44 -88 -203l-15 -68h752z" />
    <glyph glyph-name="Racute" unicode="&#x154;" horiz-adv-x="1550" 
d="M1047 1817h122q27 0 34.5 -13.5t-9.5 -36.5l-154 -186q-19 -25 -49 -25h-76q-24 0 -32 15t4 35l110 182q16 29 50 29zM360 1446h719q318 0 434 -119.5t60 -380.5l-6 -26q-45 -221 -141.5 -332.5t-282.5 -143.5l192 -395q11 -20 3 -34.5t-31 -14.5h-140q-31 0 -47 31
l-184 399h-627l-84 -393q-6 -37 -45 -37h-119q-43 0 -34 45l288 1364q6 37 45 37zM1366 922l6 24q41 183 -29 244t-290 61h-568l-135 -628h570q219 0 311 59q91 58 135 240z" />
    <glyph glyph-name="racute" unicode="&#x155;" horiz-adv-x="884" 
d="M702 1257h-75q-25 0 -33 15t4 35l111 182q16 29 49 29h123q27 0 34 -13.5t-10 -36.5l-153 -186q-19 -25 -50 -25zM768 1151h184q44 0 35 -45l-20 -100q-6 -37 -45 -37h-283q-132 0 -195 -51q-61 -47 -96 -205l-143 -676q-6 -37 -45 -37h-111q-44 0 -35 45l228 1069
q6 37 45 37h108q46 0 37 -45l-22 -105q102 150 358 150z" />
    <glyph glyph-name="Rcommaaccent" unicode="&#x156;" horiz-adv-x="1550" 
d="M360 1446h719q318 0 434 -119.5t60 -380.5l-6 -26q-45 -221 -141.5 -332.5t-282.5 -143.5l192 -395q11 -20 3 -34.5t-31 -14.5h-140q-31 0 -47 31l-184 399h-627l-84 -393q-6 -37 -45 -37h-119q-43 0 -34 45l288 1364q6 37 45 37zM1366 922l6 24q41 183 -29 244t-290 61
h-568l-135 -628h570q219 0 311 59q91 58 135 240zM557 -403h-59q-52 0 -31 47l88 211q9 30 49 30h107q24 0 31 -14.5t-5 -34.5l-131 -213q-14 -26 -49 -26z" />
    <glyph glyph-name="rcommaaccent" unicode="&#x157;" horiz-adv-x="884" 
d="M778 1151h185q43 0 34 -45l-20 -100q-6 -37 -45 -37h-283q-131 0 -194 -51q-62 -48 -97 -205l-143 -676q-6 -37 -45 -37h-111q-43 0 -34 45l227 1069q6 37 45 37h109q45 0 36 -45l-22 -105q102 150 358 150zM-25 -403h-59q-52 0 -31 47l88 211q9 30 50 30h106
q24 0 31.5 -14.5t-4.5 -34.5l-131 -213q-14 -26 -50 -26z" />
    <glyph glyph-name="Rcaron" unicode="&#x158;" horiz-adv-x="1550" 
d="M1276 1761l-184 -190q-18 -21 -52 -21h-161q-34 0 -50 29l-102 184q-11 20 -2.5 34.5t31.5 14.5h86q33 0 49 -28l80 -137l143 145q20 20 49 20h92q26 0 33 -15.5t-12 -35.5zM360 1446h719q318 0 434 -119.5t60 -380.5l-6 -26q-45 -221 -141.5 -332.5t-282.5 -143.5
l192 -395q11 -20 3 -34.5t-31 -14.5h-140q-31 0 -47 31l-184 399h-627l-84 -393q-6 -37 -45 -37h-119q-43 0 -34 45l288 1364q6 37 45 37zM1366 922l6 24q41 183 -29 244t-290 61h-568l-135 -628h570q219 0 311 59q91 58 135 240z" />
    <glyph glyph-name="rcaron" unicode="&#x159;" horiz-adv-x="884" 
d="M721 1257h-162q-33 0 -49 29l-102 184q-11 20 -3 35t31 15h86q33 0 49 -29l80 -137l144 145q21 21 49 21h92q26 0 32.5 -16t-12.5 -36l-184 -190q-18 -21 -51 -21zM768 1151h184q44 0 35 -45l-20 -100q-6 -37 -45 -37h-283q-132 0 -195 -51q-61 -47 -96 -205l-143 -676
q-6 -37 -45 -37h-111q-44 0 -35 45l228 1069q6 37 45 37h108q46 0 37 -45l-22 -105q102 150 358 150z" />
    <glyph glyph-name="Sacute" unicode="&#x15a;" horiz-adv-x="1529" 
d="M1001 1550h-75q-25 0 -33 14.5t4 34.5l111 183q16 28 49 28h123q26 0 33.5 -14.5t-9.5 -34.5l-153 -186q-19 -25 -50 -25zM901 0h-391q-256 0 -357.5 109.5t-60.5 341.5q9 36 45 36h119q43 0 37 -45q-23 -139 28 -193t201 -54h391q173 0 244 45q76 46 103 172
q24 112 -23 153q-44 39 -195 51l-424 35q-246 21 -340 111t-53 282q47 216 168 308q122 94 391 94h361q256 0 356.5 -109t59.5 -342q-6 -37 -43 -37h-119q-43 0 -37 46q23 139 -28 193t-204 54h-358q-172 0 -246 -47t-100 -170q-23 -111 23 -151q46 -37 202 -52l424 -32
q242 -19 333 -109t50 -284q-47 -217 -168 -312q-119 -94 -389 -94z" />
    <glyph glyph-name="sacute" unicode="&#x15b;" horiz-adv-x="1232" 
d="M819 1255h-76q-24 0 -32 15t4 35l110 182q16 29 49 29h123q27 0 34.5 -15t-9.5 -35l-154 -186q-19 -25 -49 -25zM657 0h-618q-44 0 -35 45l21 100q6 37 45 37h600q134 0 190.5 31t73.5 111q16 83 -16 108q-32 29 -152 41l-346 35q-176 19 -240.5 97.5t-32.5 232.5
q37 167 140.5 240t310.5 73h604q44 0 35 -45l-20 -100q-6 -37 -46 -37h-579q-123 0 -180 -33t-76 -113q-17 -78 10.5 -104.5t138.5 -38.5l344 -37q193 -20 260.5 -99.5t34.5 -236.5q-34 -168 -137 -239q-103 -68 -330 -68z" />
    <glyph glyph-name="Scircumflex" unicode="&#x15c;" horiz-adv-x="1529" 
d="M705 1599l186 191q17 20 51 20h162q33 0 49 -28l100 -185q11 -20 3 -34.5t-31 -14.5h-86q-33 0 -49 29l-78 139l-146 -147q-21 -21 -49 -21h-92q-26 0 -32.5 15.5t12.5 35.5zM901 0h-391q-256 0 -357.5 109.5t-60.5 341.5q9 36 45 36h119q43 0 37 -45q-23 -139 28 -193
t201 -54h391q173 0 244 45q76 46 103 172q24 112 -23 153q-44 39 -195 51l-424 35q-246 21 -340 111t-53 282q47 216 168 308q122 94 391 94h361q256 0 356.5 -109t59.5 -342q-6 -37 -43 -37h-119q-43 0 -37 46q23 139 -28 193t-204 54h-358q-172 0 -246 -47t-100 -170
q-23 -111 23 -151q46 -37 202 -52l424 -32q242 -19 333 -109t50 -284q-47 -217 -168 -312q-119 -94 -389 -94z" />
    <glyph glyph-name="scircumflex" unicode="&#x15d;" horiz-adv-x="1232" 
d="M492 1305l186 190q18 21 51 21h162q33 0 49 -29l100 -184q11 -20 3 -35t-31 -15h-86q-33 0 -49 29l-78 139l-146 -147q-21 -21 -49 -21h-92q-26 0 -32.5 16t12.5 36zM657 0h-618q-44 0 -35 45l21 100q6 37 45 37h600q134 0 190.5 31t73.5 111q16 83 -16 108
q-32 29 -152 41l-346 35q-176 19 -240.5 97.5t-32.5 232.5q37 167 140.5 240t310.5 73h604q44 0 35 -45l-20 -100q-6 -37 -46 -37h-579q-123 0 -180 -33t-76 -113q-17 -78 10.5 -104.5t138.5 -38.5l344 -37q193 -20 260.5 -99.5t34.5 -236.5q-34 -168 -137 -239
q-103 -68 -330 -68z" />
    <glyph glyph-name="Scedilla" unicode="&#x15e;" horiz-adv-x="1529" 
d="M1561 995q-6 -37 -43 -37h-119q-43 0 -37 46q23 139 -28 193t-204 54h-358q-172 0 -246 -47t-100 -170q-23 -111 23 -151q46 -37 202 -52l424 -32q242 -19 333 -109t50 -284q-47 -217 -168 -312q-119 -94 -389 -94h-108l-152 -342q-12 -31 -49 -31h-123q-25 0 -33 14.5
t4 34.5l185 324h-115q-256 0 -357.5 109.5t-60.5 341.5q9 36 45 36h119q43 0 37 -45q-23 -139 28 -193t201 -54h391q173 0 244 45q76 46 103 172q24 112 -23 153q-44 39 -195 51l-424 35q-246 21 -340 111t-53 282q47 216 168 308q122 94 391 94h361q256 0 356.5 -109
t59.5 -342z" />
    <glyph glyph-name="scedilla" unicode="&#x15f;" horiz-adv-x="1232" 
d="M1171 969h-579q-123 0 -180 -33t-76 -113q-17 -78 10.5 -104.5t138.5 -38.5l344 -37q193 -20 260.5 -99.5t34.5 -236.5q-34 -168 -137 -239q-103 -68 -330 -68h-63l-152 -342q-12 -31 -49 -31h-123q-24 0 -32 14.5t4 34.5l184 324h-387q-44 0 -35 45l21 100q6 37 45 37
h600q134 0 190.5 31t73.5 111q16 83 -16 108q-32 29 -152 41l-346 35q-176 19 -240.5 97.5t-32.5 232.5q37 167 140.5 240t310.5 73h604q44 0 35 -45l-20 -100q-6 -37 -46 -37z" />
    <glyph glyph-name="Scaron" unicode="&#x160;" horiz-adv-x="1529" 
d="M1032 1550h-162q-33 0 -49 29l-102 184q-11 20 -2.5 34.5t31.5 14.5h86q33 0 49 -28l80 -137l143 145q20 20 49 20h92q26 0 33 -15.5t-12 -35.5l-185 -190q-18 -21 -51 -21zM901 0h-391q-256 0 -357.5 109.5t-60.5 341.5q9 36 45 36h119q43 0 37 -45q-23 -139 28 -193
t201 -54h391q173 0 244 45q76 46 103 172q24 112 -23 153q-44 39 -195 51l-424 35q-246 21 -340 111t-53 282q47 216 168 308q122 94 391 94h361q256 0 356.5 -109t59.5 -342q-6 -37 -43 -37h-119q-43 0 -37 46q23 139 -28 193t-204 54h-358q-172 0 -246 -47t-100 -170
q-23 -111 23 -151q46 -37 202 -52l424 -32q242 -19 333 -109t50 -284q-47 -217 -168 -312q-119 -94 -389 -94z" />
    <glyph glyph-name="scaron" unicode="&#x161;" horiz-adv-x="1232" 
d="M836 1255h-162q-33 0 -49 29l-103 184q-11 20 -2.5 35t31.5 15h86q33 0 49 -29l80 -137l143 145q21 21 49 21h93q26 0 32.5 -16t-12.5 -36l-184 -190q-18 -21 -51 -21zM657 0h-618q-44 0 -35 45l21 100q6 37 45 37h600q134 0 190.5 31t73.5 111q16 83 -16 108
q-32 29 -152 41l-346 35q-176 19 -240.5 97.5t-32.5 232.5q37 167 140.5 240t310.5 73h604q44 0 35 -45l-20 -100q-6 -37 -46 -37h-579q-123 0 -180 -33t-76 -113q-17 -78 10.5 -104.5t138.5 -38.5l344 -37q193 -20 260.5 -99.5t34.5 -236.5q-34 -168 -137 -239
q-103 -68 -330 -68z" />
    <glyph glyph-name="uni0162" unicode="&#x162;" horiz-adv-x="933" 
d="M623 0h-121q-44 0 -35 45l258 1206h-492q-43 0 -34 45l22 113q6 37 45 37h1190q44 0 35 -45l-23 -113q-6 -37 -45 -37h-497l-258 -1214q-6 -37 -45 -37zM424 -403h-59q-52 0 -31 47l88 211q9 30 49 30h107q24 0 31 -14.5t-5 -34.5l-131 -213q-14 -26 -49 -26z" />
    <glyph glyph-name="uni0163" unicode="&#x163;" horiz-adv-x="964" 
d="M754 0h-185q-269 0 -354 104q-83 106 -37 330l115 539h-123q-44 0 -35 45l21 96q6 37 45 37q80 0 109.5 6t56.5 33q27 29 39.5 68t35.5 149q9 39 45 39h54q43 0 34 -45l-51 -250h467q44 0 35 -45l-20 -96q-6 -37 -45 -37h-476l-118 -555q-29 -140 15 -190t198 -50h204
q44 0 35 -45l-20 -96q-6 -37 -45 -37zM360 -403h-59q-52 0 -31 47l88 211q9 30 50 30h106q24 0 31.5 -14.5t-4.5 -34.5l-131 -213q-14 -26 -50 -26z" />
    <glyph glyph-name="Tcaron" unicode="&#x164;" horiz-adv-x="1341" 
d="M965 1548h-162q-33 0 -49 29l-103 184q-11 20 -2.5 34.5t31.5 14.5h86q33 0 49 -28l80 -137l143 145q20 20 49 20h93q26 0 32.5 -15.5t-12.5 -35.5l-184 -190q-18 -21 -51 -21zM623 0h-121q-44 0 -35 45l258 1206h-492q-43 0 -34 45l22 113q6 37 45 37h1190q44 0 35 -45
l-23 -113q-6 -37 -45 -37h-497l-258 -1214q-6 -37 -45 -37z" />
    <glyph glyph-name="tcaron" unicode="&#x165;" horiz-adv-x="968" 
d="M743 1264h-59q-52 0 -31 47l88 211q9 30 50 30h106q24 0 31.5 -14.5t-4.5 -34.5l-131 -213q-14 -26 -50 -26zM754 0h-185q-269 0 -354 104q-83 106 -37 330l115 539h-123q-44 0 -35 45l21 96q6 37 45 37q80 0 109.5 6t56.5 33q27 29 39.5 68t35.5 149q9 39 45 39h54
q43 0 34 -45l-51 -250h467q44 0 35 -45l-20 -96q-6 -37 -45 -37h-476l-118 -555q-29 -140 15 -190t198 -50h204q44 0 35 -45l-20 -96q-6 -37 -45 -37z" />
    <glyph glyph-name="Tbar" unicode="&#x166;" horiz-adv-x="1343" 
d="M1493 1401l-23 -113q-6 -37 -45 -37h-497l-90 -424h268q44 0 35 -45l-21 -98q-6 -37 -45 -37h-276l-129 -610q-6 -37 -45 -37h-121q-44 0 -35 45l129 602h-268q-44 0 -35 45l20 99q6 36 45 36h277l90 424h-491q-44 0 -35 45l22 113q6 37 45 37h1190q44 0 35 -45z" />
    <glyph glyph-name="tbar" unicode="&#x167;" horiz-adv-x="964" 
d="M1026 1106l-20 -96q-6 -37 -45 -37h-476l-63 -295h328q43 0 34 -45l-12 -60q-6 -36 -45 -36h-336l-24 -119q-29 -140 15 -190t198 -50h204q44 0 35 -45l-20 -96q-6 -37 -45 -37h-185q-269 0 -354 104q-83 106 -37 330l23 103h-97q-43 0 -34 45l12 59q6 37 45 37h102
l64 295h-123q-44 0 -35 45l21 96q6 37 45 37q80 0 109.5 6t56.5 33q27 29 39.5 68t35.5 149q9 39 45 39h54q43 0 34 -45l-51 -250h467q44 0 35 -45z" />
    <glyph glyph-name="Utilde" unicode="&#x168;" horiz-adv-x="1687" 
d="M850 1587q-25 -8 -36 1t-7 34l16 72q6 30 35 43q56 21 111 24q54 1 84.5 -3.5t89.5 -22.5q85 -22 92 -23q28 -8 92 -3t119 24q23 10 35.5 1t7.5 -34l-16 -74q-6 -30 -35 -43q-81 -35 -178 -31q-8 0 -37.5 6.5t-32.5 6.5q-1 1 -5 2t-13 3.5t-17 4.5q-30 10 -31 10
q-147 43 -274 2zM1075 0h-440q-516 0 -408 498l193 911q6 37 45 37h119q43 0 34 -45l-190 -909q-37 -169 11.5 -233t207.5 -64h443q158 0 233 63q78 66 115 234l192 917q6 37 45 37h121q44 0 35 -45l-191 -903q-52 -251 -182 -375q-129 -123 -383 -123z" />
    <glyph glyph-name="utilde" unicode="&#x169;" horiz-adv-x="1363" 
d="M582 1290q-25 -8 -36 1t-7 34l16 72q6 30 35 43q56 21 110 24q54 1 84.5 -3.5t89.5 -22.5q83 -21 93 -23q28 -8 92 -3t119 24q23 10 35.5 1t7.5 -34l-17 -74q-6 -30 -35 -43q-81 -35 -178 -31q-8 0 -37 6.5t-32 6.5q-1 1 -5 2t-13 3.5t-17 4.5q-30 10 -31 10
q-147 43 -274 2zM1067 403l152 709q6 37 45 37h110q44 0 35 -45l-227 -1069q-6 -37 -45 -37h-109q-46 0 -37 45l23 104q-101 -149 -357 -149h-168q-244 0 -325 108t-31 347l141 661q6 37 45 37h111q44 0 35 -45l-141 -670q-34 -155 2 -207q35 -47 178 -47h282q126 0 187 43
q59 42 94 178z" />
    <glyph glyph-name="Umacron" unicode="&#x16a;" horiz-adv-x="1687" 
d="M1411 1569h-510q-44 0 -35 45l13 65q6 37 45 37h510q43 0 34 -45l-12 -65q-6 -37 -45 -37zM1075 0h-440q-516 0 -408 498l193 911q6 37 45 37h119q43 0 34 -45l-190 -909q-37 -169 11.5 -233t207.5 -64h443q158 0 233 63q78 66 115 234l192 917q6 37 45 37h121
q44 0 35 -45l-191 -903q-52 -251 -182 -375q-129 -123 -383 -123z" />
    <glyph glyph-name="umacron" unicode="&#x16b;" horiz-adv-x="1363" 
d="M1122 1274h-510q-43 0 -34 45l12 65q6 37 45 37h510q44 0 35 -45l-13 -65q-6 -37 -45 -37zM1067 403l152 709q6 37 45 37h110q44 0 35 -45l-227 -1069q-6 -37 -45 -37h-109q-46 0 -37 45l23 104q-101 -149 -357 -149h-168q-244 0 -325 108t-31 347l141 661q6 37 45 37
h111q44 0 35 -45l-141 -670q-34 -155 2 -207q35 -47 178 -47h282q126 0 187 43q59 42 94 178z" />
    <glyph glyph-name="Ubreve" unicode="&#x16c;" horiz-adv-x="1687" 
d="M1163 1548q-143 0 -207.5 56.5t-40.5 171.5v4q6 37 46 37h75q46 0 43 -21l-6 -22q-12 -60 9 -82.5t89 -22.5q69 0 98.5 21.5t41.5 81.5l2 8q9 37 45 37h76q44 0 41 -23l-5 -25q-26 -121 -97 -171t-210 -50zM1075 0h-440q-516 0 -408 498l193 911q6 37 45 37h119
q43 0 34 -45l-190 -909q-37 -169 11.5 -233t207.5 -64h443q158 0 233 63q78 66 115 234l192 917q6 37 45 37h121q44 0 35 -45l-191 -903q-52 -251 -182 -375q-129 -123 -383 -123z" />
    <glyph glyph-name="ubreve" unicode="&#x16d;" horiz-adv-x="1363" 
d="M889 1255q-143 0 -207.5 56.5t-40.5 171.5v4q6 37 45 37h76q46 0 43 -21l-6 -22q-12 -60 9 -82.5t89 -22.5q69 0 98 21.5t41 81.5l2 8q9 37 45 37h76q44 0 41 -23l-4 -24q-26 -121 -97.5 -171.5t-209.5 -50.5zM1067 403l152 709q6 37 45 37h110q44 0 35 -45l-227 -1069
q-6 -37 -45 -37h-109q-46 0 -37 45l23 104q-101 -149 -357 -149h-168q-244 0 -325 108t-31 347l141 661q6 37 45 37h111q44 0 35 -45l-141 -670q-34 -155 2 -207q35 -47 178 -47h282q126 0 187 43q59 42 94 178z" />
    <glyph glyph-name="Uring" unicode="&#x16e;" horiz-adv-x="1687" 
d="M1153 1548h-20q-205 0 -164 195l2 14q41 191 235 191h21q205 0 164 -191l-2 -14q-21 -99 -76.5 -147t-159.5 -48zM1153 1667h21q44 0 63.5 16.5t30.5 59.5l2 12q7 41 -6 56.5t-56 15.5h-20q-47 0 -68 -15.5t-28 -56.5l-2 -12q-8 -43 5.5 -59.5t57.5 -16.5zM1075 0h-440
q-516 0 -408 498l193 911q6 37 45 37h119q43 0 34 -45l-190 -909q-37 -169 11.5 -233t207.5 -64h443q158 0 233 63q78 66 115 234l192 917q6 37 45 37h121q44 0 35 -45l-191 -903q-52 -251 -182 -375q-129 -123 -383 -123z" />
    <glyph glyph-name="uring" unicode="&#x16f;" horiz-adv-x="1363" 
d="M889 1251h-21q-204 0 -163 195l2 14q41 191 235 191h21q204 0 163 -191l-2 -14q-21 -99 -76.5 -147t-158.5 -48zM889 1370h20q44 0 64 16.5t31 59.5l2 12q7 41 -6 56.5t-56 15.5h-20q-47 0 -68.5 -15.5t-28.5 -56.5l-2 -12q-8 -43 6 -59.5t58 -16.5zM1067 403l152 709
q6 37 45 37h110q44 0 35 -45l-227 -1069q-6 -37 -45 -37h-109q-46 0 -37 45l23 104q-101 -149 -357 -149h-168q-244 0 -325 108t-31 347l141 661q6 37 45 37h111q44 0 35 -45l-141 -670q-34 -155 2 -207q35 -47 178 -47h282q126 0 187 43q59 42 94 178z" />
    <glyph glyph-name="Uhungarumlaut" unicode="&#x170;" horiz-adv-x="1687" 
d="M995 1550h-63q-25 0 -33 14.5t4 34.5l109 183q16 28 49 28h102q27 0 34.5 -14.5t-9.5 -34.5l-144 -186q-19 -25 -49 -25zM1346 1550h-62q-25 0 -33 14.5t4 34.5l107 183q16 28 49 28h102q27 0 34.5 -14.5t-9.5 -34.5l-143 -186q-19 -25 -49 -25zM1075 0h-440
q-516 0 -408 498l193 911q6 37 45 37h119q43 0 34 -45l-190 -909q-37 -169 11.5 -233t207.5 -64h443q158 0 233 63q78 66 115 234l192 917q6 37 45 37h121q44 0 35 -45l-191 -903q-52 -251 -182 -375q-129 -123 -383 -123z" />
    <glyph glyph-name="uhungarumlaut" unicode="&#x171;" horiz-adv-x="1363" 
d="M715 1257h-64q-24 0 -32 15t4 35l108 182q16 29 49 29h103q26 0 33.5 -15t-9.5 -35l-143 -186q-19 -25 -49 -25zM1065 1257h-61q-25 0 -33 15t4 35l106 182q16 29 49 29h103q26 0 33.5 -15t-9.5 -35l-143 -186q-19 -25 -49 -25zM1067 403l152 709q6 37 45 37h110
q44 0 35 -45l-227 -1069q-6 -37 -45 -37h-109q-46 0 -37 45l23 104q-101 -149 -357 -149h-168q-244 0 -325 108t-31 347l141 661q6 37 45 37h111q44 0 35 -45l-141 -670q-34 -155 2 -207q35 -47 178 -47h282q126 0 187 43q59 42 94 178z" />
    <glyph glyph-name="Uogonek" unicode="&#x172;" horiz-adv-x="1687" 
d="M1438 492l192 917q6 37 45 37h121q44 0 35 -45l-191 -903q-52 -251 -182 -375q-129 -123 -383 -123h-67q-65 0 -96.5 -27t-45.5 -90q-14 -69 6.5 -96t98.5 -31q46 -3 37 -47l-17 -69q-9 -37 -47 -37q-152 4 -207.5 66t-25.5 188q18 92 75 143h-151q-516 0 -408 498
l193 911q6 37 45 37h119q43 0 34 -45l-190 -909q-37 -169 11.5 -233t207.5 -64h443q158 0 233 63q78 66 115 234z" />
    <glyph glyph-name="uogonek" unicode="&#x173;" horiz-adv-x="1361" 
d="M1135 -293l-17 -69q-9 -37 -47 -37q-152 4 -207.5 66t-25.5 188q30 145 153 188l23 104q-101 -149 -357 -149h-168q-244 0 -325 108t-31 347l141 661q6 37 45 37h111q44 0 35 -45l-141 -670q-34 -155 2 -207q35 -47 178 -47h282q126 0 187 43q59 42 94 178l152 709
q6 37 45 37h110q44 0 35 -45l-227 -1069q-6 -37 -45 -37q-69 -5 -98 -28t-46 -89q-14 -69 6.5 -96t98.5 -31q46 -3 37 -47z" />
    <glyph glyph-name="Wcircumflex" unicode="&#x174;" horiz-adv-x="2127" 
d="M979 1606l186 190q18 21 52 21h161q33 0 49 -29l101 -184q10 -23 2 -36.5t-31 -13.5h-86q-33 0 -49 29l-78 139l-145 -147q-21 -21 -49 -21h-93q-26 0 -32.5 16t12.5 36zM528 0h-133q-37 0 -43 39l-176 1364q-6 43 37 43h121q40 0 43 -39l131 -1137l618 1147q16 29 50 29
h135q40 0 43 -39l131 -1137l614 1147q16 29 49 29h136q23 0 31 -14.5t-3 -34.5l-758 -1368q-16 -29 -49 -29h-135q-40 0 -43 39l-133 1130l-616 -1140q-16 -29 -50 -29z" />
    <glyph glyph-name="wcircumflex" unicode="&#x175;" horiz-adv-x="1990" 
d="M862 1303l187 190q17 20 51 20h162q33 0 49 -28l100 -185q10 -23 2 -36t-31 -13h-86q-33 0 -49 29l-78 139l-145 -147q-21 -21 -49 -21h-92q-26 0 -33 16t12 36zM530 0h-155q-37 0 -43 37l-195 1069q-6 45 37 45h119q39 0 45 -37l145 -917l510 925q16 29 49 29h140
q40 0 43 -39l114 -915l543 925q16 29 49 29h131q24 0 31.5 -14.5t-4.5 -34.5l-655 -1075q-15 -27 -50 -27h-153q-37 0 -43 39l-117 874l-491 -884q-16 -29 -50 -29z" />
    <glyph glyph-name="Ycircumflex" unicode="&#x176;" horiz-adv-x="1531" 
d="M686 1604l186 190q18 21 52 21h161q34 0 50 -29l100 -184q11 -20 2.5 -35t-31.5 -15h-86q-33 0 -49 29l-78 139l-145 -147q-21 -21 -49 -21h-92q-26 0 -33 16t12 36zM721 0h-121q-44 0 -35 45l76 350l-467 1002q-10 20 -1 34.5t32 14.5h123q32 0 47 -31l387 -831l727 839
q23 23 51 23h158q26 0 32.5 -15.5t-10.5 -35.5l-878 -1000l-76 -358q-6 -37 -45 -37z" />
    <glyph glyph-name="ycircumflex" unicode="&#x177;" 
d="M563 1307l187 190q18 21 51 21h162q33 0 49 -29l100 -184q10 -23 2 -36.5t-31 -13.5h-86q-33 0 -49 29l-78 139l-145 -147q-21 -21 -49 -21h-92q-26 0 -33 16t12 36zM676 -403h-570q-45 0 -36 45l22 100q9 37 45 37h551q141 0 201 57q64 55 94 199l35 166
q-51 -85 -134.5 -122.5t-224.5 -37.5h-194q-166 0 -255.5 48.5t-112 149.5t11.5 257l133 618q6 37 45 37h110q44 0 35 -45l-133 -627q-34 -155 2 -207q34 -49 178 -49h309q130 0 191 49q61 50 96 207l135 633q6 37 45 37h111q44 0 35 -45l-223 -1053q-26 -119 -58.5 -195
t-87.5 -137q-107 -122 -356 -122z" />
    <glyph glyph-name="Ydieresis" unicode="&#x178;" horiz-adv-x="1531" 
d="M811 1565h-90q-44 0 -35 45l37 182q6 37 45 37h90q44 0 35 -45l-37 -182q-6 -37 -45 -37zM1169 1565h-90q-44 0 -35 45l37 182q6 37 45 37h91q43 0 34 -45l-37 -182q-6 -37 -45 -37zM721 0h-121q-44 0 -35 45l76 350l-467 1002q-10 20 -1 34.5t32 14.5h123q32 0 47 -31
l387 -831l727 839q23 23 51 23h158q26 0 32.5 -15.5t-10.5 -35.5l-878 -1000l-76 -358q-6 -37 -45 -37z" />
    <glyph glyph-name="Zacute" unicode="&#x179;" horiz-adv-x="1447" 
d="M938 1550h-76q-24 0 -32 14.5t4 34.5l110 183q16 28 49 28h123q27 0 34.5 -14.5t-9.5 -34.5l-154 -186q-19 -25 -49 -25zM1237 0h-1243q-44 0 -35 45l25 117q5 24 28 47l1235 1042h-987q-44 0 -35 45l23 113q6 37 45 37h1241q44 0 35 -45l-25 -119q-5 -24 -28 -47
l-1235 -1040h989q44 0 35 -45l-23 -113q-6 -37 -45 -37z" />
    <glyph glyph-name="zacute" unicode="&#x17a;" horiz-adv-x="1181" 
d="M762 1257h-76q-25 0 -33 15t4 35l111 182q16 29 49 29h123q27 0 34.5 -13.5t-9.5 -36.5l-154 -186q-19 -25 -49 -25zM971 0h-977q-44 0 -35 45l23 105q5 24 28 47l932 776h-741q-44 0 -35 45l20 96q6 37 45 37h977q44 0 35 -45l-20 -105q-5 -23 -29 -47l-934 -776h741
q44 0 35 -45l-20 -96q-6 -37 -45 -37z" />
    <glyph glyph-name="Zdotaccent" unicode="&#x17b;" horiz-adv-x="1447" 
d="M946 1565h-98q-44 0 -35 45l37 180q6 37 45 37h98q44 0 35 -45l-37 -180q-6 -37 -45 -37zM1237 0h-1243q-44 0 -35 45l25 117q5 24 28 47l1235 1042h-987q-44 0 -35 45l23 113q6 37 45 37h1241q44 0 35 -45l-25 -119q-5 -24 -28 -47l-1235 -1040h989q44 0 35 -45
l-23 -113q-6 -37 -45 -37z" />
    <glyph glyph-name="zdotaccent" unicode="&#x17c;" horiz-adv-x="1181" 
d="M760 1268h-98q-44 0 -35 45l37 180q6 37 45 37h98q44 0 35 -45l-37 -180q-6 -37 -45 -37zM971 0h-977q-44 0 -35 45l23 105q5 24 28 47l932 776h-741q-44 0 -35 45l20 96q6 37 45 37h977q44 0 35 -45l-20 -105q-5 -23 -29 -47l-934 -776h741q44 0 35 -45l-20 -96
q-6 -37 -45 -37z" />
    <glyph glyph-name="Zcaron" unicode="&#x17d;" horiz-adv-x="1447" 
d="M979 1546h-162q-33 0 -49 29l-102 184q-11 20 -3 34.5t31 14.5h86q33 0 49 -28l80 -138l144 146q20 20 49 20h92q26 0 32.5 -15.5t-12.5 -35.5l-184 -190q-18 -21 -51 -21zM1237 0h-1243q-44 0 -35 45l25 117q5 24 28 47l1235 1042h-987q-44 0 -35 45l23 113q6 37 45 37
h1241q44 0 35 -45l-25 -119q-5 -24 -28 -47l-1235 -1040h989q44 0 35 -45l-23 -113q-6 -37 -45 -37z" />
    <glyph glyph-name="zcaron" unicode="&#x17e;" horiz-adv-x="1181" 
d="M788 1255h-161q-33 0 -49 29l-103 184q-11 20 -2.5 35t31.5 15h86q33 0 49 -29l80 -137l143 145q21 21 49 21h93q26 0 32.5 -16t-12.5 -36l-184 -190q-18 -21 -52 -21zM971 0h-977q-44 0 -35 45l23 105q5 24 28 47l932 776h-741q-44 0 -35 45l20 96q6 37 45 37h977
q44 0 35 -45l-20 -105q-5 -23 -29 -47l-934 -776h741q44 0 35 -45l-20 -96q-6 -37 -45 -37z" />
    <glyph glyph-name="florin" unicode="&#x192;" horiz-adv-x="851" 
d="M170 -403h-111q-43 0 -34 45l282 1331h-123q-43 0 -34 45l20 96q6 37 45 37h129q24 114 56 185t89.5 121t143 72t215.5 25h137q44 0 35 -45l-19 -92q-6 -37 -45 -37h-145q-134 0 -190 -47q-56 -50 -82 -182h360q44 0 35 -45l-21 -96q-6 -37 -45 -37h-368l-285 -1340
q-6 -36 -45 -36z" />
    <glyph glyph-name="Scommaaccent" unicode="&#x218;" horiz-adv-x="1529" 
d="M901 0h-391q-256 0 -357.5 109.5t-60.5 341.5q9 36 45 36h119q43 0 37 -45q-23 -139 28 -193t201 -54h391q173 0 244 45q76 46 103 172q24 112 -23 153q-44 39 -195 51l-424 35q-246 21 -340 111t-53 282q47 216 168 308q122 94 391 94h361q256 0 356.5 -109t59.5 -342
q-6 -37 -43 -37h-119q-43 0 -37 46q23 139 -28 193t-204 54h-358q-172 0 -246 -47t-100 -170q-23 -111 23 -151q46 -37 202 -52l424 -32q242 -19 333 -109t50 -284q-47 -217 -168 -312q-119 -94 -389 -94zM598 -403h-59q-52 0 -31 47l88 211q9 30 49 30h107q24 0 31 -14.5
t-5 -34.5l-131 -213q-14 -26 -49 -26z" />
    <glyph glyph-name="scommaaccent" unicode="&#x219;" horiz-adv-x="1232" 
d="M657 0h-618q-44 0 -35 45l21 100q6 37 45 37h600q134 0 190.5 31t73.5 111q16 83 -16 108q-32 29 -152 41l-346 35q-176 19 -240.5 97.5t-32.5 232.5q37 167 140.5 240t310.5 73h604q44 0 35 -45l-20 -100q-6 -37 -46 -37h-579q-123 0 -180 -33t-76 -113
q-17 -78 10.5 -104.5t138.5 -38.5l344 -37q193 -20 260.5 -99.5t34.5 -236.5q-34 -168 -137 -239q-103 -68 -330 -68zM371 -403h-60q-51 0 -30 47l88 211q9 30 49 30h106q24 0 31.5 -14.5t-4.5 -34.5l-131 -213q-14 -26 -49 -26z" />
    <glyph glyph-name="circumflex" unicode="&#x2c6;" horiz-adv-x="1142" 
d="M442 1235l187 190q18 21 51 21h162q33 0 49 -29l100 -184q11 -20 3 -34.5t-31 -14.5h-86q-34 0 -50 28l-77 140l-146 -148q-20 -20 -49 -20h-92q-26 0 -33 15.5t12 35.5z" />
    <glyph glyph-name="caron" unicode="&#x2c7;" horiz-adv-x="1142" 
d="M791 1184h-162q-33 0 -49 28l-103 185q-11 20 -2.5 34.5t31.5 14.5h86q33 0 49 -29l80 -137l143 145q21 21 49 21h93q26 0 32.5 -15.5t-12.5 -35.5l-184 -191q-17 -20 -51 -20z" />
    <glyph glyph-name="breve" unicode="&#x2d8;" horiz-adv-x="1142" 
d="M741 1178q-143 0 -207 56t-40 171v4q6 37 45 37h75q46 0 43 -21l-6 -22q-12 -60 9.5 -82.5t89.5 -22.5q69 0 98 21.5t41 81.5l2 8q9 37 45 37h76q44 0 41 -23l-4 -24q-26 -121 -97.5 -171t-210.5 -50z" />
    <glyph glyph-name="dotaccent" unicode="&#x2d9;" horiz-adv-x="1142" 
d="M766 1184h-98q-44 0 -35 45l37 180q6 37 45 37h98q44 0 35 -45l-37 -180q-6 -37 -45 -37z" />
    <glyph glyph-name="ring" unicode="&#x2da;" horiz-adv-x="1142" 
d="M756 1178h-21q-205 0 -164 194l2 14q41 191 236 191h20q205 0 164 -191l-2 -14q-21 -99 -76 -146.5t-159 -47.5zM756 1296h20q44 0 63.5 16.5t30.5 59.5l2 12q8 41 -5 56.5t-56 15.5h-20q-47 0 -68.5 -15.5t-28.5 -56.5l-2 -12q-8 -43 6 -59.5t58 -16.5z" />
    <glyph glyph-name="ogonek" unicode="&#x2db;" horiz-adv-x="1142" 
d="M657 -291l-16 -69q-9 -37 -47 -37q-152 4 -208 66t-26 188q24 100 87 152t178 59q23 2 34 -7t7 -26q-9 -31 -45 -37q-44 -7 -67.5 -33.5t-37.5 -81.5q-14 -69 6.5 -96t98.5 -31q45 -3 36 -47z" />
    <glyph glyph-name="tilde" unicode="&#x2dc;" horiz-adv-x="1142" 
d="M438 1219q-25 -8 -36 1t-7 33l17 72q6 31 34 43q59 22 111 25q53 1 83 -4t91 -23q85 -22 92 -23q28 -8 92 -3t119 24q23 10 35.5 1t7.5 -34l-16 -74q-6 -30 -35 -43q-79 -34 -178 -30q-8 0 -37.5 6t-32.5 6q-1 1 -5 2t-13 3.5t-17 4.5q-8 3 -15 5.5t-10.5 4t-4.5 1.5
q-148 43 -275 2z" />
    <glyph glyph-name="hungarumlaut" unicode="&#x2dd;" horiz-adv-x="1142" 
d="M557 1186h-63q-25 0 -33 14.5t4 34.5l108 182q16 29 50 29h102q27 0 34.5 -14.5t-9.5 -34.5l-144 -187q-18 -24 -49 -24zM907 1186h-61q-25 0 -33 14.5t4 34.5l107 182q16 29 49 29h102q27 0 34.5 -14.5t-9.5 -34.5l-144 -187q-18 -24 -49 -24z" />
    <glyph glyph-name="uni0326" unicode="&#x326;" horiz-adv-x="0" 
d="M-860 -403h-60q-51 0 -30 47l88 211q9 30 49 30h106q24 0 31.5 -14.5t-4.5 -34.5l-131 -213q-14 -26 -49 -26z" />
    <glyph glyph-name="pi" unicode="&#x3c0;" horiz-adv-x="1714" 
d="M1081 0h-538q-269 0 -364 126t-44 372l94 448q27 125 62.5 207t95.5 152q123 141 408 141h538q269 0 364 -127t42 -373l-94 -448q-52 -247 -172 -373q-119 -125 -392 -125zM524 141h580q169 0 261 77.5t130 258.5l104 492q38 180 -19 257t-228 77h-580q-169 0 -261 -77.5
t-130 -256.5l-102 -492q-38 -182 19.5 -259t225.5 -77zM563 301h-65q-44 0 -35 45l158 754q6 37 45 37h395q208 0 288.5 -75.5t47.5 -227.5l-6 -29q-29 -144 -109 -217q-77 -68 -272 -68h-363l-39 -182q-6 -37 -45 -37zM748 991l-70 -327h344q110 0 155.5 31.5t63.5 111.5
l6 27q19 88 -15 122.5t-147 34.5h-337z" />
    <glyph glyph-name="uni1E02" unicode="&#x1e02;" horiz-adv-x="1544" 
d="M973 1552h-99q-43 0 -34 45l37 181q6 37 45 37h98q44 0 35 -46l-37 -180q-6 -37 -45 -37zM887 0h-826q-43 0 -34 45l288 1364q6 37 45 37h740q260 0 374.5 -97.5t77.5 -289.5l-4 -23q-46 -241 -250 -315q172 -88 125 -320l-4 -20q-41 -206 -159 -293q-119 -88 -373 -88z
M483 1251l-88 -426h674q126 0 185.5 40t82.5 147l6 28q25 116 -31.5 163.5t-213.5 47.5h-615zM354 641l-96 -448h637q155 0 227 45t97 161l6 27q24 111 -26 163t-173 52h-672z" />
    <glyph glyph-name="uni1E03" unicode="&#x1e03;" 
d="M768 1151h217q244 0 325 -108.5t29 -346.5l-53 -247q-50 -245 -149 -347q-102 -102 -342 -102h-273q-135 0 -205.5 37t-87.5 113l-24 -113q-9 -37 -45 -37h-111q-44 0 -35 45l314 1473q6 36 45 36h110q44 0 35 -45l-108 -508q102 150 358 150zM918 1530h98q44 0 35 -45
l-37 -180q-6 -37 -45 -37h-99q-43 0 -34 45l36 180q6 37 46 37zM1092 434l59 279q34 155 -2 207q-34 49 -178 49h-332q-132 0 -195 -51q-59 -48 -94 -205l-45 -207l-22 -98q-21 -139 20 -183q43 -43 168 -43h332q140 0 198 49q56 47 91 203z" />
    <glyph glyph-name="uni1E0A" unicode="&#x1e0a;" horiz-adv-x="1638" 
d="M1024 1550h-98q-44 0 -35 45l37 181q6 36 45 36h98q44 0 35 -45l-37 -180q-6 -37 -45 -37zM969 0h-908q-43 0 -34 45l288 1364q6 37 45 37h861q263 0 359 -131t36 -412l-78 -368q-62 -286 -188 -412q-126 -123 -381 -123zM485 1251l-225 -1058h703q170 0 251 69t125 275
l78 366q44 205 -8 275q-49 73 -221 73h-703z" />
    <glyph glyph-name="uni1E0B" unicode="&#x1e0b;" 
d="M1227 1004l108 514q6 36 45 36h111q44 0 35 -45l-314 -1472q-6 -37 -45 -37h-110q-44 0 -35 45l20 100q-100 -145 -354 -145h-217q-244 0 -325 107t-31 342l53 247q53 252 149 351q101 104 342 104h275q256 0 293 -147zM809 1530h98q44 0 35 -45l-37 -180q-6 -37 -45 -37
h-98q-44 0 -35 45l37 180q6 37 45 37zM485 182h332q123 0 184.5 43t92.5 164l80 369q18 124 -24 167.5t-165 43.5h-332q-142 0 -200 -49q-53 -47 -88 -207l-62 -279q-34 -152 4 -203q37 -49 178 -49z" />
    <glyph glyph-name="uni1E1E" unicode="&#x1e1e;" horiz-adv-x="1359" 
d="M956 1552h-98q-44 0 -35 45l37 181q6 37 45 37h99q43 0 34 -46l-37 -180q-6 -37 -45 -37zM180 0h-119q-43 0 -34 45l288 1364q6 37 45 37h1108q44 0 35 -45l-22 -113q-6 -37 -45 -37h-953l-88 -420h639q44 0 35 -45l-22 -106q-6 -37 -46 -37h-647l-129 -606
q-6 -37 -45 -37z" />
    <glyph glyph-name="uni1E1F" unicode="&#x1e1f;" horiz-adv-x="837" 
d="M764 1659h-98q-44 0 -35 45l37 180q6 37 45 37h98q44 0 35 -45l-37 -180q-6 -37 -45 -37zM158 -403h-111q-44 0 -35 45l281 1331h-123q-44 0 -35 45l21 96q6 37 45 37h131q26 124 54.5 192t80.5 117q52 52 132 73t212 21h160q44 0 35 -45l-19 -92q-6 -37 -45 -37h-145
q-143 0 -193 -41t-80 -188h361q44 0 35 -45l-21 -96q-6 -37 -45 -37h-369l-282 -1340q-6 -36 -45 -36z" />
    <glyph glyph-name="uni1E40" unicode="&#x1e40;" horiz-adv-x="1849" 
d="M1171 1563h-98q-44 0 -35 45l37 180q6 37 45 37h99q43 0 34 -45l-36 -181q-6 -36 -46 -36zM180 0h-119q-43 0 -34 45l288 1364q6 37 45 37h132q38 0 47 -31l387 -938l778 944q19 25 49 25h162q44 0 35 -45l-289 -1364q-6 -37 -45 -37h-119q-44 0 -35 45l228 1073
l-707 -842q-22 -22 -51 -22h-84q-38 0 -47 31l-344 835l-232 -1083q-6 -37 -45 -37z" />
    <glyph glyph-name="uni1E41" unicode="&#x1e41;" horiz-adv-x="1970" 
d="M1188 1268h-98q-44 0 -35 45l37 180q6 37 45 37h98q44 0 35 -45l-37 -180q-6 -37 -45 -37zM1511 1151h43q239 0 320 -108.5t31 -346.5l-142 -661q-6 -37 -45 -37h-110q-44 0 -35 45l141 670q34 155 -2 207q-34 49 -178 49h-117q-129 0 -192 -51q-62 -48 -97 -205
l-145 -678q-6 -37 -45 -37h-111q-43 0 -34 45l143 670q34 155 -2 207q-34 49 -178 49h-117q-132 0 -195 -51q-61 -47 -96 -205l-143 -676q-6 -37 -45 -37h-111q-44 0 -35 45l228 1069q6 37 45 37h110q44 0 35 -45l-20 -96q95 141 344 141h30q291 0 347 -164q108 164 378 164
z" />
    <glyph glyph-name="uni1E56" unicode="&#x1e56;" horiz-adv-x="1552" 
d="M1026 1563h-98q-44 0 -35 45l37 180q6 37 45 37h98q44 0 35 -45l-37 -181q-6 -36 -45 -36zM180 0h-119q-43 0 -34 45l288 1364q6 37 45 37h719q318 0 433 -120t53 -380l-9 -35q-42 -176 -108 -280q-132 -209 -530 -209h-609l-84 -385q-6 -37 -45 -37zM485 1251l-137 -637
h570q217 0 305 58q89 59 133 241l8 31q44 182 -25 244q-66 63 -286 63h-568z" />
    <glyph glyph-name="uni1E57" unicode="&#x1e57;" 
d="M848 1530h98q44 0 35 -45l-37 -180q-6 -37 -45 -37h-98q-44 0 -35 45l37 180q6 37 45 37zM768 1151h217q244 0 324 -106.5t30 -342.5l-53 -247q-28 -131 -58 -206t-83 -134q-53 -61 -137 -88t-213 -27h-273q-258 0 -293 150l-110 -517q-6 -36 -45 -36h-111q-44 0 -35 45
l314 1472q6 37 45 37h110q44 0 35 -45l-20 -102q99 147 356 147zM1092 438l59 279q34 152 -4 203q-34 49 -176 49h-332q-129 0 -193 -49q-61 -47 -96 -203l-16 -72l-53 -252q-18 -124 23.5 -167.5t166.5 -43.5h332q140 0 198 49q56 47 91 207z" />
    <glyph glyph-name="uni1E60" unicode="&#x1e60;" horiz-adv-x="1529" 
d="M1014 1561h-99q-43 0 -34 45l37 180q6 37 45 37h98q44 0 35 -45l-37 -181q-6 -36 -45 -36zM901 0h-391q-256 0 -357.5 109.5t-60.5 341.5q9 36 45 36h119q43 0 37 -45q-23 -139 28 -193t201 -54h391q173 0 244 45q76 46 103 172q24 112 -23 153q-44 39 -195 51l-424 35
q-246 21 -340 111t-53 282q47 216 168 308q122 94 391 94h361q256 0 356.5 -109t59.5 -342q-6 -37 -43 -37h-119q-43 0 -37 46q23 139 -28 193t-204 54h-358q-172 0 -246 -47t-100 -170q-23 -111 23 -151q46 -37 202 -52l424 -32q242 -19 333 -109t50 -284
q-47 -217 -168 -312q-119 -94 -389 -94z" />
    <glyph glyph-name="uni1E61" unicode="&#x1e61;" horiz-adv-x="1232" 
d="M823 1266h-98q-44 0 -35 45l37 180q6 37 45 37h98q44 0 35 -45l-37 -180q-6 -37 -45 -37zM657 0h-618q-44 0 -35 45l21 100q6 37 45 37h600q134 0 190.5 31t73.5 111q16 83 -16 108q-32 29 -152 41l-346 35q-176 19 -240.5 97.5t-32.5 232.5q37 167 140.5 240t310.5 73
h604q44 0 35 -45l-20 -100q-6 -37 -46 -37h-579q-123 0 -180 -33t-76 -113q-17 -78 10.5 -104.5t138.5 -38.5l344 -37q193 -20 260.5 -99.5t34.5 -236.5q-34 -168 -137 -239q-103 -68 -330 -68z" />
    <glyph glyph-name="uni1E6A" unicode="&#x1e6a;" horiz-adv-x="1341" 
d="M934 1565h-98q-44 0 -35 45l37 180q6 37 45 37h98q44 0 35 -45l-37 -180q-6 -37 -45 -37zM623 0h-121q-44 0 -35 45l258 1206h-492q-43 0 -34 45l22 113q6 37 45 37h1190q44 0 35 -45l-23 -113q-6 -37 -45 -37h-497l-258 -1214q-6 -37 -45 -37z" />
    <glyph glyph-name="uni1E6B" unicode="&#x1e6b;" horiz-adv-x="964" 
d="M578 1528h-99q-44 0 -35 45l37 180q6 37 45 37h99q43 0 34 -45l-36 -180q-6 -37 -45 -37zM754 0h-185q-269 0 -354 104q-83 106 -37 330l115 539h-123q-44 0 -35 45l21 96q6 37 45 37q80 0 109.5 6t56.5 33q27 29 39.5 68t35.5 149q9 39 45 39h54q43 0 34 -45l-51 -250
h467q44 0 35 -45l-20 -96q-6 -37 -45 -37h-476l-118 -555q-29 -140 15 -190t198 -50h204q44 0 35 -45l-20 -96q-6 -37 -45 -37z" />
    <glyph glyph-name="Wgrave" unicode="&#x1e80;" horiz-adv-x="2127" 
d="M1278 1550h-76q-36 0 -47 33l-74 180q-8 21 1 34t32 13h129q37 0 43 -36l29 -179q6 -45 -37 -45zM528 0h-133q-37 0 -43 39l-176 1364q-6 43 37 43h121q40 0 43 -39l131 -1137l618 1147q16 29 50 29h135q40 0 43 -39l131 -1137l614 1147q16 29 49 29h136q23 0 31 -14.5
t-3 -34.5l-758 -1368q-16 -29 -49 -29h-135q-40 0 -43 39l-133 1130l-616 -1140q-16 -29 -50 -29z" />
    <glyph glyph-name="wgrave" unicode="&#x1e81;" horiz-adv-x="1990" 
d="M1153 1257h-76q-36 0 -47 33l-74 180q-8 21 1 34.5t32 13.5h129q37 0 43 -37l29 -178q6 -46 -37 -46zM530 0h-155q-37 0 -43 37l-195 1069q-6 45 37 45h119q39 0 45 -37l145 -917l510 925q16 29 49 29h140q40 0 43 -39l114 -915l543 925q16 29 49 29h131q24 0 31.5 -14.5
t-4.5 -34.5l-655 -1075q-15 -27 -50 -27h-153q-37 0 -43 39l-117 874l-491 -884q-16 -29 -50 -29z" />
    <glyph glyph-name="Wacute" unicode="&#x1e82;" horiz-adv-x="2127" 
d="M1309 1556h-76q-25 0 -33 15t4 35l111 182q16 29 49 29h123q27 0 34 -13.5t-10 -36.5l-153 -186q-19 -25 -49 -25zM528 0h-133q-37 0 -43 39l-176 1364q-6 43 37 43h121q40 0 43 -39l131 -1137l618 1147q16 29 50 29h135q40 0 43 -39l131 -1137l614 1147q16 29 49 29h136
q23 0 31 -14.5t-3 -34.5l-758 -1368q-16 -29 -49 -29h-135q-40 0 -43 39l-133 1130l-616 -1140q-16 -29 -50 -29z" />
    <glyph glyph-name="wacute" unicode="&#x1e83;" horiz-adv-x="1990" 
d="M1186 1255h-76q-25 0 -33 15t4 35l111 182q16 29 49 29h123q27 0 34.5 -15t-9.5 -35l-154 -186q-19 -25 -49 -25zM530 0h-155q-37 0 -43 37l-195 1069q-6 45 37 45h119q39 0 45 -37l145 -917l510 925q16 29 49 29h140q40 0 43 -39l114 -915l543 925q16 29 49 29h131
q24 0 31.5 -14.5t-4.5 -34.5l-655 -1075q-15 -27 -50 -27h-153q-37 0 -43 39l-117 874l-491 -884q-16 -29 -50 -29z" />
    <glyph glyph-name="Wdieresis" unicode="&#x1e84;" horiz-adv-x="2127" 
d="M1128 1559h-90q-43 0 -34 45l36 182q6 37 45 37h91q43 0 34 -45l-36 -183q-6 -36 -46 -36zM1487 1559h-90q-44 0 -35 45l37 182q6 37 45 37h90q44 0 35 -45l-37 -183q-6 -36 -45 -36zM528 0h-133q-37 0 -43 39l-176 1364q-6 43 37 43h121q40 0 43 -39l131 -1137l618 1147
q16 29 50 29h135q40 0 43 -39l131 -1137l614 1147q16 29 49 29h136q23 0 31 -14.5t-3 -34.5l-758 -1368q-16 -29 -49 -29h-135q-40 0 -43 39l-133 1130l-616 -1140q-16 -29 -50 -29z" />
    <glyph glyph-name="wdieresis" unicode="&#x1e85;" horiz-adv-x="1990" 
d="M995 1264h-90q-44 0 -35 45l37 182q6 37 45 37h90q44 0 35 -45l-37 -183q-6 -36 -45 -36zM1354 1264h-90q-44 0 -35 45l37 182q6 37 45 37h90q44 0 35 -45l-37 -183q-6 -36 -45 -36zM530 0h-155q-37 0 -43 37l-195 1069q-6 45 37 45h119q39 0 45 -37l145 -917l510 925
q16 29 49 29h140q40 0 43 -39l114 -915l543 925q16 29 49 29h131q24 0 31.5 -14.5t-4.5 -34.5l-655 -1075q-15 -27 -50 -27h-153q-37 0 -43 39l-117 874l-491 -884q-16 -29 -50 -29z" />
    <glyph glyph-name="Ygrave" unicode="&#x1ef2;" horiz-adv-x="1531" 
d="M940 1552h-76q-36 0 -47 33l-74 180q-8 21 1 34t32 13h129q37 0 43 -36l29 -179q6 -45 -37 -45zM721 0h-121q-44 0 -35 45l76 350l-467 1002q-10 20 -1 34.5t32 14.5h123q32 0 47 -31l387 -831l727 839q23 23 51 23h158q26 0 32.5 -15.5t-10.5 -35.5l-878 -1000l-76 -358
q-6 -37 -45 -37z" />
    <glyph glyph-name="ygrave" unicode="&#x1ef3;" 
d="M866 1262h-75q-37 0 -48 32l-73 181q-8 21 0.5 34t31.5 13h129q37 0 43 -37l29 -178q6 -45 -37 -45zM676 -403h-570q-45 0 -36 45l22 100q9 37 45 37h551q141 0 201 57q64 55 94 199l35 166q-51 -85 -134.5 -122.5t-224.5 -37.5h-194q-166 0 -255.5 48.5t-112 149.5
t11.5 257l133 618q6 37 45 37h110q44 0 35 -45l-133 -627q-34 -155 2 -207q34 -49 178 -49h309q130 0 191 49q61 50 96 207l135 633q6 37 45 37h111q44 0 35 -45l-223 -1053q-26 -119 -58.5 -195t-87.5 -137q-107 -122 -356 -122z" />
    <glyph glyph-name="endash" unicode="&#x2013;" horiz-adv-x="964" 
d="M858 508h-752q-43 0 -34 45l16 80q6 37 45 37h752q44 0 35 -45l-17 -80q-6 -37 -45 -37z" />
    <glyph glyph-name="emdash" unicode="&#x2014;" horiz-adv-x="1218" 
d="M1112 508h-1006q-43 0 -34 45l16 80q6 37 45 37h1006q44 0 35 -45l-17 -80q-6 -37 -45 -37z" />
    <glyph glyph-name="quoteleft" unicode="&#x2018;" horiz-adv-x="499" 
d="M287 776h-129q-25 0 -33 14.5t4 34.5l340 592q16 29 49 29h64q23 0 32 -14.5t-2 -34.5l-278 -590q-16 -31 -47 -31z" />
    <glyph glyph-name="quoteright" unicode="&#x2019;" horiz-adv-x="499" 
d="M225 776h-63q-24 0 -32.5 13t1.5 36l281 590q16 31 47 31h127q24 0 32 -14.5t-4 -34.5l-340 -592q-16 -29 -49 -29z" />
    <glyph glyph-name="quotesinglbase" unicode="&#x201a;" horiz-adv-x="499" 
d="M-14 -268h-62q-24 0 -32 13t2 36l278 581q16 31 47 31h127q25 0 33 -14.5t-4 -34.5l-340 -584q-16 -28 -49 -28z" />
    <glyph glyph-name="quotedblleft" unicode="&#x201c;" horiz-adv-x="888" 
d="M287 784h-127q-25 0 -33 15t4 35l338 583q16 29 49 29h64q23 0 32 -14.5t-2 -34.5l-278 -582q-16 -31 -47 -31zM676 784h-127q-25 0 -33 15t4 35l338 583q16 29 49 29h64q23 0 32 -14.5t-2 -34.5l-278 -582q-15 -31 -47 -31z" />
    <glyph glyph-name="quotedblright" unicode="&#x201d;" horiz-adv-x="888" 
d="M227 784h-63q-24 0 -32.5 13.5t1.5 36.5l279 581q16 31 47 31h127q24 0 32 -14.5t-4 -34.5l-338 -584q-16 -29 -49 -29zM616 784h-63q-24 0 -32.5 13.5t1.5 36.5l277 581q15 31 47 31h129q25 0 33 -14.5t-4 -34.5l-338 -584q-16 -29 -50 -29z" />
    <glyph glyph-name="quotedblbase" unicode="&#x201e;" horiz-adv-x="888" 
d="M-14 -268h-62q-24 0 -32 13t2 36l278 581q16 31 47 31h127q25 0 33 -14.5t-4 -34.5l-340 -584q-16 -28 -49 -28zM377 -268h-64q-24 0 -32 13t2 36l278 581q15 31 47 31h127q25 0 33 -14.5t-4 -34.5l-338 -584q-16 -28 -49 -28z" />
    <glyph glyph-name="dagger" unicode="&#x2020;" horiz-adv-x="708" 
d="M582 1151h149q44 0 35 -45l-21 -96q-6 -37 -45 -37h-155l-221 -1041q-6 -36 -45 -36h-111q-44 0 -35 45l219 1032h-147q-44 0 -35 45l20 96q6 37 46 37h153l55 258q6 37 45 37h111q44 0 35 -45z" />
    <glyph glyph-name="daggerdbl" unicode="&#x2021;" horiz-adv-x="706" 
d="M766 1106l-21 -96q-6 -37 -45 -37h-155l-45 -209h147q44 0 35 -45l-18 -96q-6 -37 -46 -37h-155l-139 -654q-6 -36 -45 -36h-111q-44 0 -35 45l137 645h-147q-44 0 -35 45l18 96q6 37 46 37h155l45 209h-147q-44 0 -35 45l20 96q6 37 46 37h153l55 258q6 37 45 37h111
q44 0 35 -45l-53 -250h149q44 0 35 -45z" />
    <glyph glyph-name="bullet" unicode="&#x2022;" horiz-adv-x="1060" 
d="M606 190h-246q-160 0 -215.5 83t-19.5 247l39 178q68 324 373 324h245q160 0 215.5 -80.5t22.5 -243.5l-39 -178q-36 -166 -125.5 -248t-249.5 -82z" />
    <glyph glyph-name="ellipsis" unicode="&#x2026;" horiz-adv-x="1259" 
d="M180 0h-119q-43 0 -34 45l51 246q6 37 45 37h119q43 0 34 -45l-51 -246q-6 -37 -45 -37zM580 0h-117q-44 0 -35 45l51 246q6 37 45 37h117q46 0 37 -45l-53 -246q-6 -37 -45 -37zM981 0h-119q-44 0 -35 45l52 246q6 37 45 37h118q44 0 35 -45l-51 -246q-6 -37 -45 -37z
" />
    <glyph glyph-name="perthousand" unicode="&#x2030;" horiz-adv-x="3500" 
d="M680 516h-70q-449 0 -354 455l6 26q49 232 161 340.5t331 108.5h69q225 0 313.5 -116t43.5 -333l-6 -26q-50 -229 -160 -342q-107 -113 -334 -113zM1018 0h-105q-23 0 -31 14.5t3 34.5l731 1368q16 29 49 29h104q23 0 31.5 -14.5t-2.5 -34.5l-731 -1368q-16 -29 -49 -29z
M623 694h67q125 0 191.5 58.5t97.5 197.5l14 66q29 134 -14 193t-168 59h-68q-123 0 -190 -58.5t-96 -193.5l-15 -66q-30 -138 12.5 -197t168.5 -59zM1933 0h-69q-450 0 -355 455l7 26q49 230 162 339.5t331 109.5h70q225 0 312 -115.5t42 -333.5l-6 -26q-50 -229 -160 -342
q-107 -113 -334 -113zM3000 0h-69q-450 0 -355 455l7 26q49 230 162.5 339.5t332.5 109.5h70q447 0 352 -449l-6 -26q-50 -229 -160 -342q-107 -113 -334 -113zM1876 178h70q125 0 191 58.5t95 197.5l17 66q26 135 -16.5 193.5t-166.5 58.5h-67q-125 0 -192.5 -58.5
t-96.5 -193.5l-14 -66q-29 -139 13 -197.5t167 -58.5zM2943 178h68q125 0 192 58.5t96 197.5l15 66q29 135 -13.5 193.5t-167.5 58.5h-67q-125 0 -192.5 -58.5t-96.5 -193.5l-14 -66q-29 -139 13 -197.5t167 -58.5z" />
    <glyph glyph-name="guilsinglleft" unicode="&#x2039;" horiz-adv-x="581" 
d="M393 170h-84q-31 0 -47 31l-166 354q-15 27 8 57l306 367q16 22 51 22h92q25 0 32 -14.5t-7 -34.5l-269 -372l119 -363q6 -21 -3 -34t-32 -13z" />
    <glyph glyph-name="guilsinglright" unicode="&#x203a;" horiz-adv-x="581" 
d="M147 170h-94q-24 0 -31 14.5t7 34.5l268 373l-117 362q-6 21 3 34t32 13h82q32 0 47 -30l166 -355q14 -28 -8 -57l-303 -366q-16 -23 -52 -23z" />
    <glyph glyph-name="Euro" unicode="&#x20ac;" horiz-adv-x="1660" 
d="M815 1446h457q509 0 401 -500l-4 -20q-6 -37 -43 -37h-119q-20 0 -31.5 10t-7.5 23l5 30q37 171 -11 235t-209 64h-456q-161 0 -236 -63q-74 -63 -112 -236l-27 -127h616q44 0 35 -45l-20 -98q-6 -37 -45 -37h-623l-33 -153q-37 -169 11.5 -233t207.5 -64h457
q159 0 234 63q76 64 114 234l10 49q6 37 46 37h118q43 0 37 -39l-8 -41q-55 -259 -184 -378.5t-375 -119.5h-467q-509 0 -401 498l30 147h-65q-44 0 -35 45l20 98q6 37 45 37h74l25 121q55 258 188 379t381 121z" />
    <glyph glyph-name="trademark" unicode="&#x2122;" horiz-adv-x="1681" 
d="M401 700h-55q-44 0 -35 45l121 568h-178q-46 0 -37 45l10 51q6 37 45 37h502q46 0 37 -45l-10 -51q-6 -37 -45 -37h-187l-123 -576q-6 -37 -45 -37zM864 700h-55q-44 0 -35 45l139 664q6 37 45 37h64q36 0 47 -33l156 -452l356 460q19 25 49 25h68q44 0 35 -45l-136 -664
q-6 -37 -45 -37h-55q-44 0 -35 45l97 451l-291 -379q-18 -24 -49 -24h-39q-36 0 -47 32l-125 371l-99 -459q-6 -37 -45 -37z" />
    <glyph glyph-name="minus" unicode="&#x2212;" horiz-adv-x="1120" 
d="M1020 635h-866q-44 0 -35 45l20 98q6 37 45 37h867q43 0 34 -45l-20 -98q-6 -37 -45 -37z" />
    <glyph glyph-name="notequal" unicode="&#x2260;" horiz-adv-x="1579" 
 />
    <glyph glyph-name="NULL" horiz-adv-x="0" 
 />
    <glyph glyph-name="CR" horiz-adv-x="681" 
 />
    <glyph glyph-name="a.ss01" horiz-adv-x="1341" 
d="M614 0h-153q-218 0 -320.5 80t-70.5 237q37 171 123 248q90 78 294 99l541 57q72 9 80 53q25 110 -11 152.5t-159 42.5h-592q-44 0 -35 45l21 100q6 37 45 37h573q221 0 308.5 -82.5t50.5 -255.5l-166 -776q-6 -37 -45 -37h-109q-46 0 -37 45l29 131q-59 -95 -140 -135.5
t-227 -40.5zM469 178h250q146 0 215.5 59t101.5 207l25 115l-555 -57q-122 -12 -171.5 -47.5t-66.5 -120.5q-17 -76 33.5 -116t167.5 -40z" />
    </font>
</defs>
</svg>
