<?xml version="1.0" standalone="no"?>
<!DOCTYPE svg PUBLIC "-//W3C//DTD SVG 1.1//EN" "http://www.w3.org/Graphics/SVG/1.1/DTD/svg11.dtd" >
<svg xmlns="http://www.w3.org/2000/svg" xmlns:xlink="http://www.w3.org/1999/xlink" version="1.1">
<metadata>
Created by FontForge 20170731 at Thu Dec 14 12:27:37 2023
 By Aleksey,,,
Copyright (c) 2017 by Rian Hughes / Device. All rights reserved.
</metadata>
<defs>
<font id="Kallisto-Thin" horiz-adv-x="1673" >
  <font-face 
    font-family="Kallisto"
    font-weight="250"
    font-stretch="normal"
    units-per-em="2048"
    panose-1="0 0 3 0 0 0 0 0 0 0"
    ascent="1626"
    descent="-422"
    x-height="1151"
    cap-height="1446"
    bbox="-730.286 -403 3336 1923"
    underline-thickness="102"
    underline-position="-307"
    unicode-range="U+0020-FB02"
  />
<missing-glyph horiz-adv-x="1034" 
d="M885 0h-735q-21 0 -21 20v1393q0 21 21 21h735q20 0 20 -21v-1393q0 -20 -20 -20zM174 1393v-1348l318 672zM223 1393l293 -625l295 625h-588zM543 717l319 -672v1348zM516 666l-293 -621h588z" />
    <glyph glyph-name="fi" unicode="fi" horiz-adv-x="1142" 
d="M293 0h-41q-21 0 -21 20v1049h-190q-21 0 -21 21v40q0 21 21 21h190q0 125 15 194t57 119q43 50 121.5 70t212.5 20h129q20 0 20 -20v-41q0 -20 -20 -20h-129q-208 0 -266 -58q-58 -55 -58 -264h453q20 0 20 -21v-40q0 -21 -20 -21h-453v-1049q0 -20 -20 -20zM1006 1278
h-41q-21 0 -21 20v236q0 20 21 20h41q20 0 20 -20v-236q0 -20 -20 -20zM1006 0h-41q-21 0 -21 20v1110q0 21 21 21h41q20 0 20 -21v-1110q0 -20 -20 -20z" />
    <glyph glyph-name="fl" unicode="fl" horiz-adv-x="1142" 
d="M293 0h-41q-21 0 -21 20v1049h-190q-21 0 -21 21v40q0 21 21 21h190q0 125 15 194t57 119q43 50 121.5 70t212.5 20h129q20 0 20 -20v-41q0 -20 -20 -20h-129q-208 0 -266 -58q-58 -55 -58 -264h453q20 0 20 -21v-40q0 -21 -20 -21h-453v-1049q0 -20 -20 -20zM1006 0h-41
q-21 0 -21 20v1514q0 20 21 20h41q20 0 20 -20v-1514q0 -20 -20 -20z" />
    <glyph glyph-name=".notdef" horiz-adv-x="1034" 
d="M885 0h-735q-21 0 -21 20v1393q0 21 21 21h735q20 0 20 -21v-1393q0 -20 -20 -20zM174 1393v-1348l318 672zM223 1393l293 -625l295 625h-588zM543 717l319 -672v1348zM516 666l-293 -621h588z" />
    <glyph glyph-name=".null" horiz-adv-x="0" 
 />
    <glyph glyph-name="nonmarkingreturn" horiz-adv-x="682" 
 />
    <glyph glyph-name="space" unicode=" " horiz-adv-x="512" 
 />
    <glyph glyph-name="exclam" unicode="!" horiz-adv-x="348" 
d="M180 428h-12q-21 0 -21 21l-18 729v247q0 21 21 21h49q20 0 20 -21v-247l-18 -729q0 -21 -21 -21zM195 0h-41q-21 0 -21 20v256q0 21 21 21h41q20 0 20 -21v-256q0 -20 -20 -20z" />
    <glyph glyph-name="quotedbl" unicode="&#x22;" horiz-adv-x="651" 
d="M182 784h-26q-21 0 -21 21l-18 620q0 21 20 21h64q20 0 20 -21l-18 -620q0 -21 -21 -21zM496 784h-27q-20 0 -20 21l-19 620q0 21 21 21h63q21 0 21 -21l-19 -620q0 -21 -20 -21z" />
    <glyph glyph-name="numbersign" unicode="#" horiz-adv-x="1544" 
d="M377 0h-37q-25 0 -18 23l108 411h-326q-20 0 -20 21v41q0 20 20 20h349l108 412h-332q-20 0 -20 20v41q0 21 20 21h355l110 417q3 19 23 19h37q25 0 18 -23l-108 -413h380l111 417q3 19 23 19h36q26 0 19 -23l-109 -413h318q20 0 20 -21v-41q0 -20 -20 -20h-340
l-109 -412h324q20 0 20 -20v-41q0 -21 -20 -21h-346l-111 -416q-3 -18 -22 -18h-37q-26 0 -19 23l109 411h-381l-111 -416q-3 -18 -22 -18zM641 928l-109 -412h381l109 412h-381z" />
    <glyph glyph-name="dollar" unicode="$" horiz-adv-x="1509" 
d="M793 766l198 -16q248 -21 352 -97q105 -77 105 -266q0 -211 -111 -299q-110 -88 -395 -88h-149v-125q0 -20 -21 -20h-41q-20 0 -20 20v125h-144q-270 0 -377 104q-105 108 -108 363q0 20 20 20h41q21 0 21 -20q3 -225 86 -305q86 -80 317 -80h144v608l-164 15
q-251 21 -354 92q-101 73 -101 264q0 207 111 295q113 90 395 90h113v129q0 20 20 20h41q21 0 21 -20v-129h149q271 0 375 -107q107 -104 110 -360q0 -21 -20 -21h-41q-20 0 -20 21q-3 225 -89 305q-83 80 -315 80h-149v-598zM553 786l158 -12v590h-113q-248 0 -336 -64
t-88 -239q0 -153 78 -207q80 -50 301 -68zM793 82h149q248 0 334 63q90 66 90 242q0 155 -82 207q-83 56 -299 74l-192 16v-602z" />
    <glyph glyph-name="percent" unicode="%" horiz-adv-x="2340" 
d="M569 516h-69q-222 0 -323 113.5t-101 341.5v26q0 223 101 336t323 113h69q222 0 323 -113t101 -336v-26q0 -228 -101 -341.5t-323 -113.5zM922 0h-43q-23 0 -17 25l531 1405q6 16 22 16h43q23 0 17 -25l-531 -1405q-6 -16 -22 -16zM500 598h69q183 0 262.5 86t79.5 287
v26q0 195 -79.5 281t-262.5 86h-69q-183 0 -262.5 -86t-79.5 -281v-26q0 -201 79.5 -287t262.5 -86zM1841 0h-69q-222 0 -323 113.5t-101 341.5v26q0 223 101 336t323 113h69q222 0 323 -113t101 -336v-26q0 -228 -101 -341.5t-323 -113.5zM1772 82h69q183 0 262.5 86
t79.5 287v26q0 195 -79.5 281t-262.5 86h-69q-183 0 -262.5 -86t-79.5 -281v-26q0 -201 79.5 -287t262.5 -86z" />
    <glyph glyph-name="ampersand" unicode="&#x26;" horiz-adv-x="1617" 
d="M1425 766h131q21 0 21 -21v-43q0 -20 -21 -20h-131v-195q0 -272 -106 -378q-106 -109 -379 -109h-375q-259 0 -371 85t-112 282v18q0 175 82 254q70 63 147 86q-45 14 -74 30.5t-67 51.5q-78 72 -78 244v20q0 198 114.5 286.5t373.5 88.5h434q20 0 20 -21v-41
q0 -20 -20 -20h-434q-226 0 -316 -66t-90 -227v-20q0 -149 73.5 -217t241.5 -68h854v358q0 21 21 21h41q20 0 20 -21v-358zM1343 487v195h-854q-169 0 -247 -72t-78 -225v-18q0 -157 86 -222q86 -63 315 -63h375q236 0 320 84q83 83 83 321z" />
    <glyph glyph-name="quotesingle" unicode="'" horiz-adv-x="337" 
d="M182 784h-26q-21 0 -21 21l-18 620q0 21 20 21h64q20 0 20 -21l-18 -620q0 -21 -21 -21z" />
    <glyph glyph-name="parenleft" unicode="(" horiz-adv-x="585" 
d="M520 -43v-41q0 -20 -20 -20q-139 2 -221.5 29t-124.5 89q-41 61 -54.5 136t-13.5 215v720q0 140 13.5 215t54.5 136q42 62 124.5 89t221.5 29q20 0 20 -20v-41q0 -20 -20 -20q-118 -2 -181 -19t-98 -65q-33 -47 -43 -109.5t-10 -194.5v-720q0 -132 10 -194.5t43 -109.5
q35 -48 98 -65t181 -19q20 0 20 -20z" />
    <glyph glyph-name="parenright" unicode=")" horiz-adv-x="585" 
d="M86 -104q-20 0 -20 20v41q0 20 20 20q118 2 180 19t96 65q35 47 45.5 110t10.5 194v720q0 131 -10.5 194t-45.5 110q-34 48 -96 65t-180 19q-20 0 -20 20v41q0 20 20 20q139 -2 221.5 -29t124.5 -89q41 -61 54.5 -136t13.5 -215v-720q0 -140 -13.5 -215t-54.5 -136
q-42 -62 -124.5 -89t-221.5 -29z" />
    <glyph glyph-name="asterisk" unicode="*" horiz-adv-x="1087" 
d="M588 645h-68q-18 0 -18 21l24 387l-319 -215q-19 -16 -29 6l-31 57q-10 17 9 27l350 172l-350 166q-19 9 -9 26l31 62q10 24 29 8l321 -215l-26 387q0 20 18 20h68q18 0 18 -20l-26 -389l321 217q19 16 29 -8l31 -62q10 -17 -9 -26l-350 -166l350 -172q19 -10 9 -27
l-31 -57q-10 -22 -29 -6l-321 217l26 -389q0 -21 -18 -21z" />
    <glyph glyph-name="plus" unicode="+" horiz-adv-x="1120" 
d="M582 252h-41q-21 0 -21 20v412h-414q-20 0 -20 21v40q0 21 20 21h414v408q0 20 21 20h41q20 0 20 -20v-408h412q20 0 20 -21v-40q0 -21 -20 -21h-412v-412q0 -20 -20 -20z" />
    <glyph glyph-name="comma" unicode="," horiz-adv-x="372" 
d="M55 -328h-24q-26 0 -19 23l176 622q7 17 23 17h61q11 0 15.5 -6.5t1.5 -16.5l-209 -622q-7 -17 -25 -17z" />
    <glyph glyph-name="hyphen" unicode="-" horiz-adv-x="684" 
d="M598 549h-512q-20 0 -20 20v41q0 21 20 21h512q20 0 20 -21v-41q0 -20 -20 -20z" />
    <glyph glyph-name="period" unicode="." horiz-adv-x="339" 
d="M190 0h-40q-21 0 -21 20v256q0 21 21 21h40q21 0 21 -21v-256q0 -20 -21 -20z" />
    <glyph glyph-name="slash" unicode="/" horiz-adv-x="528" 
d="M98 0h-37q-25 0 -18 23l373 1404q3 19 22 19h37q26 0 19 -23l-373 -1405q-3 -18 -23 -18z" />
    <glyph glyph-name="zero" unicode="0" horiz-adv-x="1632" 
d="M1044 0h-456q-270 0 -377 119q-109 121 -109 379v448q0 258 109 379t377 121h456q268 0 377 -121t109 -379v-448q0 -258 -109 -379q-107 -119 -377 -119zM588 82h456q226 0 316 90q88 91 88 326v448q0 238 -88 326q-89 92 -316 92h-456q-227 0 -316 -92q-88 -88 -88 -326
v-448q0 -235 88 -326q90 -90 316 -90z" />
    <glyph glyph-name="one" unicode="1" horiz-adv-x="520" 
d="M371 0h-41q-21 0 -21 20v1129h-268q-21 0 -21 20v41q0 21 21 21h188q53 0 66.5 16.5t13.5 79.5v98q0 21 21 21h41q20 0 20 -21v-1405q0 -20 -20 -20z" />
    <glyph glyph-name="two" unicode="2" horiz-adv-x="1458" 
d="M1352 0h-1239q-21 0 -21 20v48q0 16 14 24l842 526q224 140 287 209q59 65 59 201q0 201 -82 268q-83 68 -321 68h-313q-240 0 -324 -84q-80 -83 -80 -334v-37q0 -20 -20 -20h-41q-21 0 -21 20v37q0 139 19 224t69 149q54 67 149 97t249 30h313q279 0 383 -96
q102 -95 102 -322q0 -92 -17.5 -149t-66.5 -109q-43 -45 -104 -90q-39 -30 -162 -107q-15 -7 -37 -22l-747 -469h1110q20 0 20 -21v-41q0 -20 -20 -20z" />
    <glyph glyph-name="three" unicode="3" horiz-adv-x="1497" 
d="M922 0h-355q-267 0 -374 104q-108 105 -111 363q0 20 20 20h41q21 0 21 -20q3 -225 86 -305q86 -80 317 -80h355q229 0 313 63q88 64 88 222v18q0 153 -78.5 225t-247.5 72h-501q-21 0 -21 20v43q0 21 21 21h501q169 0 242.5 68t73.5 217v20q0 161 -90 227t-316 66h-340
q-231 0 -317 -80q-83 -80 -86 -305q0 -21 -21 -21h-41q-20 0 -20 21q3 257 111 362t374 105h340q259 0 373.5 -88.5t114.5 -286.5v-20q0 -172 -78 -244q-38 -35 -67 -51.5t-74 -30.5q46 -14 77 -32t68 -54q84 -75 84 -254v-18q0 -197 -112 -282t-371 -85z" />
    <glyph glyph-name="four" unicode="4" horiz-adv-x="1579" 
d="M1253 0h-41q-20 0 -20 20v310h-1131q-20 0 -20 20v62q0 14 10 24l1110 1000q10 10 25 10h67q21 0 21 -21v-1013h223q21 0 21 -21v-41q0 -20 -21 -20h-223v-310q0 -20 -21 -20zM1192 1354l-1045 -942h1045v942z" />
    <glyph glyph-name="five" unicode="5" horiz-adv-x="1488" 
d="M920 0h-363q-276 0 -379 100q-103 103 -106 367q0 20 20 20h41q21 0 21 -20q3 -233 82 -309q82 -76 321 -76h363q229 0 311 76q84 78 84 309q0 184 -88 254q-90 72 -307 72h-787q-23 0 -20 20l61 614q3 19 23 19h1093q21 0 21 -21v-41q0 -20 -21 -20h-1040l-49 -490h719
q253 0 365 -94t112 -313q0 -264 -107 -365q-105 -102 -370 -102z" />
    <glyph glyph-name="six" unicode="6" horiz-adv-x="1546" 
d="M891 0h-236q-324 0 -444 111q-119 113 -119 383v18q0 143 37 227q39 92 172 234l430 463q10 10 25 10h63q12 0 15.5 -7t-3.5 -18l-464 -497q104 49 387 49h137q132 0 229.5 -20.5t161.5 -57.5t102.5 -95.5t54 -127.5t15.5 -160v-18q0 -270 -119 -383q-120 -111 -444 -111
zM655 82h236q287 0 383 84q98 85 98 328v18q0 202 -102 291q-101 88 -379 88h-236q-280 0 -381 -88q-100 -87 -100 -291v-18q0 -241 96 -328q101 -84 385 -84z" />
    <glyph glyph-name="seven" unicode="7" horiz-adv-x="1404" 
d="M356 0h-53q-12 0 -16 9t4 16l952 1339h-1161q-21 0 -21 20v41q0 21 21 21h1241q20 0 20 -21v-47q0 -18 -8 -26l-954 -1340q-9 -12 -25 -12z" />
    <glyph glyph-name="eight" unicode="8" horiz-adv-x="1454" 
d="M889 0h-324q-259 0 -371 85t-112 282v18q0 175 82 254q70 63 147 86q-45 14 -74 30.5t-67 51.5q-78 72 -78 244v20q0 198 114.5 286.5t373.5 88.5h294q259 0 373.5 -88.5t114.5 -286.5v-20q0 -172 -78 -244q-38 -35 -67 -51.5t-74 -30.5q46 -14 77 -32t68 -54
q84 -75 84 -254v-18q0 -197 -112 -282t-371 -85zM489 766h476q168 0 241.5 68t73.5 217v20q0 161 -90 227t-316 66h-294q-226 0 -316 -66t-90 -227v-20q0 -149 73.5 -217t241.5 -68zM565 82h324q229 0 313 63q88 64 88 222v18q0 153 -78 225t-247 72h-476q-169 0 -247 -72
t-78 -225v-18q0 -157 86 -222q86 -63 315 -63z" />
    <glyph glyph-name="nine" unicode="9" horiz-adv-x="1546" 
d="M791 0h-64q-12 0 -15.5 7t3.5 18l465 497q-104 -49 -387 -49h-138q-132 0 -229.5 20.5t-161.5 57.5t-102.5 95.5t-54 127.5t-15.5 160v18q0 271 119 381q119 113 444 113h236q325 0 444 -113q119 -110 119 -381v-18q0 -142 -37 -229q-40 -91 -172 -232l-430 -463
q-10 -10 -24 -10zM655 555h236q278 0 379 88q102 89 102 291v18q0 244 -98 326q-95 86 -383 86h-236q-285 0 -385 -86q-96 -84 -96 -326v-18q0 -204 100 -291q101 -88 381 -88z" />
    <glyph glyph-name="colon" unicode=":" horiz-adv-x="339" 
d="M190 854h-40q-21 0 -21 20v256q0 21 21 21h40q21 0 21 -21v-256q0 -20 -21 -20zM190 0h-40q-21 0 -21 20v256q0 21 21 21h40q21 0 21 -21v-256q0 -20 -21 -20z" />
    <glyph glyph-name="semicolon" unicode=";" horiz-adv-x="407" 
d="M254 854h-41q-20 0 -20 20v256q0 21 20 21h41q20 0 20 -21v-256q0 -20 -20 -20zM55 -328h-24q-26 0 -19 23l176 622q7 17 23 17h61q11 0 15.5 -6.5t1.5 -16.5l-209 -622q-7 -17 -25 -17z" />
    <glyph glyph-name="less" unicode="&#x3c;" horiz-adv-x="907" 
d="M823 313v-49q0 -29 -24 -14l-697 418q-14 8 -14 24v37q0 17 14 25l697 417q24 15 24 -14v-47q0 -17 -14 -25l-623 -374l623 -373q14 -8 14 -25z" />
    <glyph glyph-name="equal" unicode="=" horiz-adv-x="1120" 
d="M1014 866h-908q-20 0 -20 21v41q0 20 20 20h908q20 0 20 -20v-41q0 -21 -20 -21zM1014 500h-908q-20 0 -20 20v41q0 21 20 21h908q20 0 20 -21v-41q0 -20 -20 -20z" />
    <glyph glyph-name="greater" unicode="&#x3e;" horiz-adv-x="907" 
d="M809 668l-696 -418q-25 -16 -25 14v49q0 17 14 25l623 373l-623 374q-14 8 -14 25v47q0 30 25 14l696 -417q14 -8 14 -25v-37q0 -16 -14 -24z" />
    <glyph glyph-name="question" unicode="?" horiz-adv-x="1509" 
d="M723 426h-41q-20 0 -20 20q5 87 46.5 135.5t145.5 86.5l229 86q165 62 222 125q61 64 61 211q0 154 -90 213q-88 61 -313 61h-416q-240 0 -324 -84q-80 -83 -80 -334v-78q0 -20 -20 -20h-41q-21 0 -21 20v78q0 138 19.5 223t69.5 150q54 67 149 97t248 30h416
q260 0 372.5 -86t112.5 -270q0 -191 -105 -283q-52 -43 -99.5 -69t-125.5 -56l-233 -88q-92 -36 -115 -62q-24 -24 -27 -86q0 -20 -20 -20zM723 0h-41q-20 0 -20 20v256q0 21 20 21h41q20 0 20 -21v-256q0 -20 -20 -20z" />
    <glyph glyph-name="at" unicode="@" horiz-adv-x="1714" 
d="M1415 0h-827q-272 0 -381 127q-105 129 -105 371v448q0 245 105 371q108 129 381 129h538q274 0 379 -129q107 -125 107 -371v-301q0 -187 -81.5 -270.5t-256.5 -83.5h-62q-20 0 -20 20v154q-25 -92 -104 -133t-238 -41h-41q-246 0 -330 102q-41 54 -57 123t-16 182v35
q0 226 79 320q82 94 324 94h41q160 0 238.5 -41.5t103.5 -134.5v155q0 21 20 21h41q21 0 21 -21v-757q139 0 196 51q60 54 60 225v301q0 227 -92 322.5t-312 95.5h-538q-220 0 -312 -95.5t-92 -322.5v-448q0 -227 91.5 -321.5t312.5 -94.5h827q21 0 21 -21v-41
q0 -20 -21 -20zM809 373h61q172 0 246 65q76 64 76 260v35q0 201 -74 266q-75 66 -248 66h-61q-194 0 -260 -66q-62 -65 -62 -266v-35q0 -198 64 -262q63 -63 258 -63z" />
    <glyph glyph-name="A" unicode="A" 
d="M1659 0h-49q-19 0 -25 14l-162 295h-1142l-164 -295q-8 -14 -25 -14h-49q-30 0 -14 25l778 1407q6 14 24 14h46q18 0 24 -14l772 -1407q16 -25 -14 -25zM854 1343l-528 -952h1052z" />
    <glyph glyph-name="B" unicode="B" horiz-adv-x="1517" 
d="M942 0h-792q-21 0 -21 20v1405q0 21 21 21h778q259 0 373 -88.5t114 -286.5v-20q0 -172 -78 -244q-38 -35 -67 -51.5t-74 -30.5q46 -14 77 -32t68 -54q84 -75 84 -254v-18q0 -197 -112 -282t-371 -85zM211 1364v-598h807q168 0 241.5 68t73.5 217v20q0 161 -89.5 227
t-315.5 66h-717zM211 684v-602h731q229 0 313 63q88 64 88 222v18q0 153 -78 226t-247 73h-807z" />
    <glyph glyph-name="C" unicode="C" horiz-adv-x="1611" 
d="M1044 0h-456q-270 0 -377 119q-109 121 -109 379v448q0 258 109 379t377 121h456q268 0 377 -121t109 -379v-37q0 -20 -21 -20h-41q-20 0 -20 20v37q0 238 -88 326q-89 92 -316 92h-456q-227 0 -316 -92q-88 -88 -88 -326v-448q0 -235 88 -326q90 -90 316 -90h456
q226 0 316 90q88 91 88 326v59q0 21 20 21h41q21 0 21 -21v-59q0 -258 -109 -379q-107 -119 -377 -119z" />
    <glyph glyph-name="D" unicode="D" horiz-adv-x="1630" 
d="M1044 0h-894q-21 0 -21 20v1405q0 21 21 21h894q272 0 377 -123q107 -122 107 -420v-368q0 -297 -107 -416q-104 -119 -377 -119zM211 1364v-1282h833q236 0 318 94q84 96 84 359v368q0 267 -84 363q-82 98 -318 98h-833z" />
    <glyph glyph-name="E" unicode="E" horiz-adv-x="1427" 
d="M1331 0h-1181q-21 0 -21 20v1405q0 21 21 21h1181q21 0 21 -21v-41q0 -20 -21 -20h-1120v-578h807q20 0 20 -20v-41q0 -20 -20 -20h-807v-623h1120q21 0 21 -21v-41q0 -20 -21 -20z" />
    <glyph glyph-name="F" unicode="F" horiz-adv-x="1359" 
d="M190 0h-40q-21 0 -21 20v1405q0 21 21 21h1148q21 0 21 -21v-41q0 -20 -21 -20h-1087v-578h782q21 0 21 -20v-41q0 -20 -21 -20h-782v-685q0 -20 -21 -20z" />
    <glyph glyph-name="G" unicode="G" horiz-adv-x="1615" 
d="M1028 0h-457q-269 0 -376 119q-109 121 -109 379v448q0 258 109 379t376 121h457q265 0 373 -111q109 -109 112 -356q0 -21 -20 -21h-41q-20 0 -20 21q-3 219 -91 301q-90 84 -313 84h-457q-226 0 -315 -92q-88 -88 -88 -326v-448q0 -235 88 -326q90 -90 315 -90h457
q225 0 315 90q89 92 89 326v108h-586q-21 0 -21 21v41q0 20 21 20h647q20 0 20 -20v-170q0 -259 -108 -379q-107 -119 -377 -119z" />
    <glyph glyph-name="H" unicode="H" horiz-adv-x="1560" 
d="M190 0h-40q-21 0 -21 20v1405q0 21 21 21h40q21 0 21 -21v-639h1139v639q0 21 20 21h41q21 0 21 -21v-1405q0 -20 -21 -20h-41q-20 0 -20 20v685h-1139v-685q0 -20 -21 -20z" />
    <glyph glyph-name="I" unicode="I" horiz-adv-x="339" 
d="M190 0h-40q-21 0 -21 20v1405q0 21 21 21h40q21 0 21 -21v-1405q0 -20 -21 -20z" />
    <glyph glyph-name="J" unicode="J" horiz-adv-x="1529" 
d="M942 0h-354q-270 0 -377 119q-109 121 -109 379v125q0 20 21 20h41q20 0 20 -20v-125q0 -235 88 -326q90 -90 316 -90h354q225 0 315 90q89 92 89 326v927q0 21 20 21h41q20 0 20 -21v-927q0 -259 -108 -379q-107 -119 -377 -119z" />
    <glyph glyph-name="K" unicode="K" horiz-adv-x="1484" 
d="M190 0h-40q-21 0 -21 20v1405q0 21 21 21h40q21 0 21 -21v-657h414l714 668q10 10 25 10h63q14 0 17.5 -7t-6.5 -18l-740 -694l740 -702q10 -11 6.5 -18t-17.5 -7h-61q-15 0 -25 10l-716 676h-414v-666q0 -20 -21 -20z" />
    <glyph glyph-name="L" unicode="L" horiz-adv-x="1327" 
d="M1282 0h-1132q-21 0 -21 20v1405q0 21 21 21h40q21 0 21 -21v-1343h1071q21 0 21 -21v-41q0 -20 -21 -20z" />
    <glyph glyph-name="M" unicode="M" horiz-adv-x="1832" 
d="M190 0h-40q-21 0 -21 20v1405q0 21 21 21h49q16 0 24 -14l695 -1084l696 1084q8 14 24 14h45q21 0 21 -21v-1405q0 -20 -21 -20h-41q-20 0 -20 20v1285l-655 -1020q-9 -15 -25 -15h-49q-16 0 -25 15l-657 1028v-1293q0 -20 -21 -20z" />
    <glyph glyph-name="N" unicode="N" horiz-adv-x="1576" 
d="M190 0h-40q-21 0 -21 20v1405q0 21 21 21h59q15 0 24 -12l1133 -1338v1329q0 21 20 21h41q21 0 21 -21v-1405q0 -20 -21 -20h-67q-16 0 -25 12l-1124 1327v-1319q0 -20 -21 -20z" />
    <glyph glyph-name="O" unicode="O" 
d="M1085 0h-497q-270 0 -377 119q-109 121 -109 379v448q0 258 109 379t377 121h497q268 0 377 -121t109 -379v-448q0 -258 -109 -379q-107 -119 -377 -119zM588 82h497q226 0 316 90q88 91 88 326v448q0 238 -88 326q-89 92 -316 92h-497q-227 0 -316 -92q-88 -88 -88 -326
v-448q0 -235 88 -326q90 -90 316 -90z" />
    <glyph glyph-name="P" unicode="P" horiz-adv-x="1540" 
d="M190 0h-40q-21 0 -21 20v1405q0 21 21 21h745q324 0 444 -105q119 -104 119 -364v-12q0 -260 -119 -361q-115 -100 -444 -100h-684v-484q0 -20 -21 -20zM211 1364v-778h684q291 0 385 76q96 78 96 303v12q0 233 -98 309q-96 78 -383 78h-684z" />
    <glyph glyph-name="Q" unicode="Q" 
d="M588 1446h497q268 0 377 -121t109 -379v-448q0 -248 -97 -365.5t-325 -130.5l168 -242q6 -10 2 -17t-16 -7h-54q-15 0 -24 12l-174 252h-463q-270 0 -377 119q-109 121 -109 379v448q0 258 109 379t377 121zM1489 498v448q0 238 -88 326q-89 92 -316 92h-497
q-227 0 -316 -92q-88 -88 -88 -326v-448q0 -235 88 -326q90 -90 316 -90h497q226 0 316 90q88 91 88 326z" />
    <glyph glyph-name="R" unicode="R" horiz-adv-x="1540" 
d="M1458 977v-12q0 -220 -82 -324q-80 -103 -293 -127l344 -489q8 -7 4 -16t-16 -9h-53q-16 0 -25 12l-348 494q-20 -2 -94 -2h-684v-484q0 -20 -21 -20h-40q-21 0 -21 20v1405q0 21 21 21h745q324 0 444 -105q119 -104 119 -364zM211 586h684q291 0 385 76q96 78 96 303v12
q0 233 -98 309q-96 78 -383 78h-684v-778z" />
    <glyph glyph-name="S" unicode="S" horiz-adv-x="1529" 
d="M942 0h-375q-270 0 -377 104q-105 108 -108 363q0 20 20 20h41q21 0 21 -20q3 -225 86 -305q86 -80 317 -80h375q248 0 334 63q90 66 90 242q0 155 -82 207q-83 56 -299 74l-438 37q-251 21 -354 92q-101 73 -101 264q0 207 111 295q113 90 395 90h344q271 0 375 -107
q107 -104 110 -360q0 -21 -20 -21h-41q-20 0 -20 21q-3 225 -89 305q-83 80 -315 80h-344q-248 0 -336 -64t-88 -239q0 -153 78 -207q80 -50 301 -68l438 -36q248 -21 352 -97q105 -77 105 -266q0 -211 -111 -299q-110 -88 -395 -88z" />
    <glyph glyph-name="T" unicode="T" horiz-adv-x="1341" 
d="M692 0h-41q-20 0 -20 20v1344h-576q-20 0 -20 20v41q0 21 20 21h1231q21 0 21 -21v-41q0 -20 -21 -20h-573v-1344q0 -20 -21 -20z" />
    <glyph glyph-name="U" unicode="U" horiz-adv-x="1660" 
d="M1038 0h-415q-270 0 -377 119q-109 121 -109 379v927q0 21 21 21h41q20 0 20 -21v-927q0 -235 88 -326q90 -90 316 -90h415q226 0 316 90q88 91 88 326v927q0 21 20 21h41q21 0 21 -21v-927q0 -258 -109 -379q-107 -119 -377 -119z" />
    <glyph glyph-name="V" unicode="V" horiz-adv-x="1591" 
d="M831 0h-45q-18 0 -24 14l-739 1407q-9 25 14 25h51q19 0 25 -14l696 -1330l690 1330q6 14 25 14h51q23 0 14 -25l-733 -1407q-6 -14 -25 -14z" />
    <glyph glyph-name="W" unicode="W" horiz-adv-x="2121" 
d="M561 0h-47q-19 0 -25 16l-495 1407q-7 23 16 23h43q19 0 25 -16l459 -1309l477 1309q6 16 24 16h58q18 0 24 -16l477 -1309l459 1309q6 16 25 16h43q23 0 16 -23l-495 -1407q-6 -16 -25 -16h-47q-19 0 -25 16l-481 1317l-481 -1317q-6 -16 -25 -16z" />
    <glyph glyph-name="X" unicode="X" horiz-adv-x="1361" 
d="M739 758l645 -733q8 -7 5 -16t-15 -9h-61q-16 0 -25 12l-602 682l-604 -682q-9 -12 -25 -12h-61q-12 0 -15 9t5 16l645 733l-586 663q-8 7 -5 16t15 9h60q15 0 24 -12l547 -615l545 615q9 12 24 12h60q12 0 15 -9t-5 -16z" />
    <glyph glyph-name="Y" unicode="Y" horiz-adv-x="1521" 
d="M795 0h-41q-21 0 -21 20v369l-751 1032q-8 7 -4 16t16 9h53q16 0 25 -12l702 -963l686 963q9 12 25 12h51q12 0 16 -9t-4 -16l-733 -1030v-371q0 -20 -20 -20z" />
    <glyph glyph-name="Z" unicode="Z" horiz-adv-x="1447" 
d="M1366 0h-1284q-21 0 -21 20v48q0 13 11 24l1202 1272h-1192q-21 0 -21 20v41q0 21 21 21h1284q20 0 20 -21v-47q0 -14 -10 -24l-1204 -1272h1194q20 0 20 -21v-41q0 -20 -20 -20z" />
    <glyph glyph-name="bracketleft" unicode="[" horiz-adv-x="565" 
d="M479 -104h-329q-21 0 -21 20v1618q0 20 21 20h329q21 0 21 -20v-41q0 -20 -21 -20h-268v-1496h268q21 0 21 -20v-41q0 -20 -21 -20z" />
    <glyph glyph-name="backslash" unicode="\" horiz-adv-x="526" 
d="M477 0h-37q-19 0 -22 18l-373 1405q-7 23 18 23h37q20 0 23 -19l373 -1404q7 -23 -19 -23z" />
    <glyph glyph-name="bracketright" unicode="]" horiz-adv-x="563" 
d="M416 -104h-330q-20 0 -20 20v41q0 20 20 20h268v1496h-268q-20 0 -20 20v41q0 20 20 20h330q20 0 20 -20v-1618q0 -20 -20 -20z" />
    <glyph glyph-name="asciicircum" unicode="^" horiz-adv-x="1021" 
d="M150 719h-52q-12 0 -17 6.5t1 17.5l375 689q6 14 24 14h62q18 0 24 -14l379 -689q15 -24 -14 -24h-51q-19 0 -25 14l-344 635l-338 -635q-6 -14 -24 -14z" />
    <glyph glyph-name="underscore" unicode="_" horiz-adv-x="1075" 
d="M989 -383h-903q-20 0 -20 21v40q0 21 20 21h903q21 0 21 -21v-40q0 -21 -21 -21z" />
    <glyph glyph-name="grave" unicode="`" horiz-adv-x="1142" 
d="M602 1186h-24q-19 0 -25 14l-121 221q-16 25 14 25h60q16 0 22 -16l90 -220q9 -24 -16 -24z" />
    <glyph glyph-name="a" unicode="a" horiz-adv-x="1286" 
d="M715 0h-234q-210 0 -320 77.5t-110 229.5q0 157 82.5 232t284.5 98l618 70q66 9 66 63q0 170 -60 236q-57 63 -249 63h-629q-21 0 -21 21v40q0 21 21 21h629q215 0 303 -78t88 -260v-793q0 -20 -21 -20h-41q-20 0 -20 20v199q-35 -116 -117 -168q-80 -51 -270 -51z
M481 82h234q219 0 301 88q86 89 86 307v156l-676 -78q-177 -21 -236 -74q-57 -51 -57 -174q0 -225 348 -225z" />
    <glyph glyph-name="b" unicode="b" horiz-adv-x="1394" 
d="M561 1151h318q137 0 220 -25t126 -84q44 -59 61 -137t17 -209v-247q0 -127 -17 -204t-61 -136q-43 -59 -126 -84t-220 -25h-318q-171 0 -253 44.5t-109 145.5v-170q0 -20 -21 -20h-41q-20 0 -20 20v1514q0 20 20 20h41q21 0 21 -20v-573q26 103 108 146.5t254 43.5z
M1221 449v247q0 229 -66 301t-276 72h-338q-100 0 -157.5 -14t-100.5 -51q-84 -73 -84 -308v-247q0 -231 84 -304q46 -36 104 -49.5t154 -13.5h338q212 0 276 70q66 72 66 297z" />
    <glyph glyph-name="c" unicode="c" horiz-adv-x="1341" 
d="M856 0h-340q-137 0 -220 25t-126 84q-44 59 -61 137t-17 209v247q0 127 17 204t61 136q43 59 126 84t220 25h340q249 0 334 -94q87 -93 90 -344q0 -21 -20 -21h-41q-21 0 -21 21q-3 220 -68 288t-274 68h-340q-210 0 -276 -72t-66 -295v-247q0 -233 64 -303t278 -70h340
q212 0 277 68q62 68 65 292q0 21 21 21h41q20 0 20 -21q-3 -258 -92 -350q-86 -92 -332 -92z" />
    <glyph glyph-name="d" unicode="d" horiz-adv-x="1394" 
d="M1196 961v573q0 20 21 20h40q21 0 21 -20v-1514q0 -20 -21 -20h-40q-21 0 -21 20v170q-27 -101 -109 -145.5t-253 -44.5h-318q-137 0 -220 25t-126 84q-44 59 -61 136t-17 204v247q0 131 17 209t61 137q43 59 126 84t220 25h318q172 0 254 -43.5t108 -146.5zM516 82h338
q97 0 155 13.5t101 49.5q46 37 66 110.5t20 193.5v247q0 235 -84 308q-43 37 -100.5 51t-157.5 14h-338q-212 0 -278 -72q-64 -70 -64 -301v-247q0 -225 66 -297q64 -70 276 -70z" />
    <glyph glyph-name="e" unicode="e" horiz-adv-x="1300" 
d="M1116 0h-600q-137 0 -220 25t-126 84q-44 59 -61 137t-17 209v247q0 127 17 204t61 136q43 59 126 84t220 25h289q137 0 220 -25t126 -84q44 -59 61 -136t17 -204v-167q0 -21 -21 -21h-1034v-59q0 -233 64 -303t278 -70h600q21 0 21 -21v-41q0 -20 -21 -20zM174 702v-106
h973v106q0 223 -66 295t-276 72h-289q-210 0 -276 -72t-66 -295z" />
    <glyph glyph-name="f" unicode="f" horiz-adv-x="827" 
d="M293 0h-41q-21 0 -21 20v1049h-190q-21 0 -21 21v40q0 21 21 21h190q0 125 15 194t57 119q43 50 121.5 70t212.5 20h129q20 0 20 -20v-41q0 -20 -20 -20h-129q-208 0 -266 -58q-58 -55 -58 -264h453q20 0 20 -21v-40q0 -21 -20 -21h-453v-1049q0 -20 -20 -20z" />
    <glyph glyph-name="g" unicode="g" horiz-adv-x="1394" 
d="M846 -403h-596q-21 0 -21 20v41q0 20 21 20h596q206 0 278 84t72 289v139q-26 -103 -108 -146.5t-254 -43.5h-318q-137 0 -220 25t-126 84q-44 59 -61 137t-17 209v247q0 127 17 204t61 136q43 59 126 84t220 25h318q171 0 253 -44.5t109 -145.5v169q0 21 21 21h40
q21 0 21 -21v-1079q0 -229 -90 -342q-87 -112 -342 -112zM516 82h338q100 0 157.5 14t100.5 51q84 73 84 308v247q0 120 -20 193t-66 109q-43 37 -101 51t-155 14h-338q-210 0 -276 -72t-66 -295v-247q0 -233 64 -303t278 -70z" />
    <glyph glyph-name="h" unicode="h" horiz-adv-x="1366" 
d="M563 1151h277q137 0 220 -25t126 -84q44 -59 61 -137t17 -209v-678q0 -20 -21 -20h-41q-20 0 -20 20v678q0 229 -66 301t-276 72h-297q-100 0 -157.5 -14t-100.5 -51q-84 -73 -84 -308v-676q0 -20 -21 -20h-41q-20 0 -20 20v1514q0 20 20 20h41q21 0 21 -20v-573
q26 103 108 146.5t254 43.5z" />
    <glyph glyph-name="i" unicode="i" horiz-adv-x="315" 
d="M178 1278h-41q-20 0 -20 20v236q0 20 20 20h41q21 0 21 -20v-236q0 -20 -21 -20zM178 0h-41q-20 0 -20 20v1110q0 21 20 21h41q21 0 21 -21v-1110q0 -20 -21 -20z" />
    <glyph glyph-name="j" unicode="j" horiz-adv-x="315" 
d="M178 1278h-41q-20 0 -20 20v236q0 20 20 20h41q21 0 21 -20v-236q0 -20 -21 -20zM178 -403h-41q-20 0 -20 20v1513q0 21 20 21h41q21 0 21 -21v-1513q0 -20 -21 -20z" />
    <glyph glyph-name="k" unicode="k" horiz-adv-x="1228" 
d="M190 0h-40q-21 0 -21 20v1514q0 20 21 20h40q21 0 21 -20v-918h332l561 525q10 10 24 10h64q14 0 17 -7.5t-7 -17.5l-586 -551l580 -550q10 -11 7 -18t-17 -7h-62q-14 0 -24 10l-557 525h-332v-515q0 -20 -21 -20z" />
    <glyph glyph-name="l" unicode="l" horiz-adv-x="315" 
d="M178 0h-41q-20 0 -20 20v1514q0 20 20 20h41q21 0 21 -20v-1514q0 -20 -21 -20z" />
    <glyph glyph-name="m" unicode="m" horiz-adv-x="1943" 
d="M1382 1151h35q137 0 220 -25t126 -84q44 -59 61 -137t17 -209v-678q0 -20 -20 -20h-41q-21 0 -21 20v678q0 230 -65 301q-66 72 -277 72h-55q-100 0 -157.5 -14t-100.5 -51q-84 -73 -84 -308v-678q0 -20 -21 -20h-41q-20 0 -20 20v678q0 229 -66 301t-276 72h-55
q-100 0 -157.5 -14t-100.5 -51q-84 -73 -84 -308v-676q0 -20 -21 -20h-41q-20 0 -20 20v1110q0 21 20 21h41q21 0 21 -21v-169q26 103 108 146.5t254 43.5h35q190 0 282 -53.5t123 -179.5q24 126 108.5 179.5t272.5 53.5z" />
    <glyph glyph-name="n" unicode="n" horiz-adv-x="1363" 
d="M561 1151h277q137 0 220 -25t126 -84q44 -59 61 -137t17 -209v-678q0 -20 -21 -20h-41q-20 0 -20 20v678q0 229 -66 301t-276 72h-297q-100 0 -157.5 -14t-100.5 -51q-84 -73 -84 -308v-676q0 -20 -21 -20h-41q-20 0 -20 20v1110q0 21 20 21h41q21 0 21 -21v-169
q26 103 108 146.5t254 43.5z" />
    <glyph glyph-name="o" unicode="o" horiz-adv-x="1372" 
d="M856 0h-340q-137 0 -220 25t-126 84q-44 59 -61 137t-17 209v247q0 127 17 204t61 136q43 59 126 84t220 25h340q137 0 220 -25t126 -84q44 -59 61 -136t17 -204v-247q0 -131 -17 -209t-61 -137q-43 -59 -126 -84t-220 -25zM516 82h340q213 0 277 70q65 71 65 303v247
q0 224 -65 295q-66 72 -277 72h-340q-210 0 -276 -72t-66 -295v-247q0 -233 64 -303t278 -70z" />
    <glyph glyph-name="p" unicode="p" horiz-adv-x="1394" 
d="M561 1151h318q137 0 220 -25t126 -84q44 -59 61 -136t17 -204v-247q0 -131 -17 -209t-61 -137q-43 -59 -126 -84t-220 -25h-318q-172 0 -254 43.5t-108 146.5v-573q0 -20 -21 -20h-41q-20 0 -20 20v1513q0 21 20 21h41q21 0 21 -21v-169q27 101 109 145.5t253 44.5z
M1221 455v247q0 223 -66 295t-276 72h-338q-97 0 -154.5 -14t-103.5 -51q-84 -70 -84 -302v-247q0 -235 84 -308q43 -37 100.5 -51t157.5 -14h338q212 0 276 70q66 72 66 303z" />
    <glyph glyph-name="q" unicode="q" horiz-adv-x="1394" 
d="M1196 961v169q0 21 21 21h40q21 0 21 -21v-1513q0 -20 -21 -20h-40q-21 0 -21 20v573q-26 -103 -108 -146.5t-254 -43.5h-318q-137 0 -220 25t-126 84q-44 59 -61 137t-17 209v247q0 127 17 204t61 136q43 59 126 84t220 25h318q171 0 253 -44.5t109 -145.5zM516 82h338
q100 0 157.5 14t100.5 51q84 73 84 308v247q0 120 -20 193t-66 109q-43 37 -101 51t-155 14h-338q-210 0 -276 -72t-66 -295v-247q0 -233 64 -303t278 -70z" />
    <glyph glyph-name="r" unicode="r" horiz-adv-x="843" 
d="M561 1151h242q20 0 20 -21v-40q0 -21 -20 -21h-262q-100 0 -157.5 -14t-100.5 -51q-84 -73 -84 -308v-676q0 -20 -21 -20h-41q-20 0 -20 20v1110q0 21 20 21h41q21 0 21 -21v-169q26 103 108 146.5t254 43.5z" />
    <glyph glyph-name="s" unicode="s" horiz-adv-x="1239" 
d="M748 0h-621q-21 0 -21 20v41q0 21 21 21h621q208 0 276 45q72 47 72 162q0 118 -58 164q-56 47 -235 65l-381 37q-199 21 -270 86q-70 64 -70 215q0 155 97 225t315 70h602q20 0 20 -21v-40q0 -21 -20 -21h-602q-186 0 -258 -48t-72 -165q0 -114 49 -160q53 -44 217 -59
l381 -37q217 -21 291 -92q76 -70 76 -219q0 -158 -97.5 -223.5t-332.5 -65.5z" />
    <glyph glyph-name="t" unicode="t" horiz-adv-x="950" 
d="M868 0h-182q-266 0 -360 102q-95 103 -95 332v635h-190q-21 0 -21 21v40q0 21 21 21h88q28 1 58 12.5t38 22.5q11 14 19 49q10 51 10 188q0 23 20 23h19q20 0 20 -21v-274h555q21 0 21 -21v-40q0 -21 -21 -21h-555v-635q0 -205 76 -278q77 -74 297 -74h182q21 0 21 -21
v-41q0 -20 -21 -20z" />
    <glyph glyph-name="u" unicode="u" horiz-adv-x="1357" 
d="M1159 453v675q0 21 21 21h41q20 0 20 -21v-1110q0 -20 -20 -20h-41q-21 0 -21 20v170q-26 -103 -108 -146.5t-254 -43.5h-256q-137 0 -220 24.5t-126 83.5q-44 59 -61 137.5t-17 209.5v677q0 21 20 21h41q21 0 21 -21v-677q0 -234 63 -303q64 -70 279 -70h276
q100 0 157.5 14t100.5 51q84 73 84 308z" />
    <glyph glyph-name="v" unicode="v" horiz-adv-x="1374" 
d="M731 0h-61q-17 0 -25 14l-616 1112q-16 25 14 25h49q19 0 25 -14l583 -1059l584 1059q6 14 25 14h51q30 0 14 -25l-618 -1112q-8 -14 -25 -14z" />
    <glyph glyph-name="w" unicode="w" horiz-adv-x="1951" 
d="M584 0h-68q-16 0 -22 16l-474 1110q-9 25 17 25h47q16 0 22 -16l443 -1059l387 1059q6 16 25 16h49q18 0 24 -16l389 -1059l443 1059q6 16 22 16h47q26 0 17 -25l-475 -1110q-6 -16 -23 -16h-68q-16 0 -22 16l-379 1014l-379 -1014q-6 -16 -22 -16z" />
    <glyph glyph-name="x" unicode="x" horiz-adv-x="1189" 
d="M657 598l535 -573q7 -11 3.5 -18t-15.5 -7h-66q-14 0 -24 10l-490 527l-491 -527q-10 -10 -25 -10h-66q-12 0 -15.5 7t3.5 18l537 573l-494 528q-22 25 10 25h66q15 0 25 -10l450 -482l449 482q10 10 24 10h66q12 0 15.5 -7.5t-3.5 -17.5z" />
    <glyph glyph-name="y" unicode="y" horiz-adv-x="1394" 
d="M846 -403h-596q-21 0 -21 20v41q0 20 21 20h596q206 0 278 84t72 289v137q-26 -103 -108 -146.5t-254 -43.5h-277q-137 0 -220 24.5t-126 83.5q-44 59 -61 137.5t-17 209.5v677q0 21 21 21h41q20 0 20 -21v-677q0 -233 64 -303t278 -70h297q100 0 157.5 14t100.5 51
q84 73 84 308v675q0 21 21 21h40q21 0 21 -21v-1077q0 -229 -90 -342q-87 -112 -342 -112z" />
    <glyph glyph-name="z" unicode="z" horiz-adv-x="1187" 
d="M1106 0h-1024q-21 0 -21 20v48q0 13 11 24l942 977h-932q-21 0 -21 21v40q0 21 21 21h1024q20 0 20 -21v-47q0 -14 -10 -24l-940 -977h930q20 0 20 -21v-41q0 -20 -20 -20z" />
    <glyph glyph-name="braceleft" unicode="{" horiz-adv-x="673" 
d="M608 -47v-41q0 -21 -20 -21q-139 2 -221.5 29.5t-124.5 89.5q-41 61 -54.5 135.5t-13.5 214.5v236q0 49 -22 68t-86 20q-21 0 -21 21v40q0 21 21 21q64 1 86 20t22 68v231q0 140 13.5 215t54.5 136q42 62 124.5 89t221.5 29q20 0 20 -20v-41q0 -20 -20 -20
q-118 -2 -181 -19t-98 -65q-33 -47 -43 -109.5t-10 -194.5v-204q0 -76 -20.5 -113t-75.5 -43q96 -12 96 -164v-201q0 -132 9.5 -194t43.5 -109q35 -48 98 -65t181 -19q20 0 20 -20z" />
    <glyph glyph-name="bar" unicode="|" horiz-adv-x="299" 
d="M170 -104h-41q-20 0 -20 20v1618q0 20 20 20h41q20 0 20 -20v-1618q0 -20 -20 -20z" />
    <glyph glyph-name="braceright" unicode="}" horiz-adv-x="673" 
d="M86 -109q-20 0 -20 21v41q0 20 20 20q118 2 180 19t96 65q35 47 45.5 109.5t10.5 193.5v201q0 152 96 164q-55 6 -75.5 43t-20.5 113v204q0 131 -10.5 194t-45.5 110q-34 48 -96 65t-180 19q-20 0 -20 20v41q0 20 20 20q139 -2 221.5 -29t124.5 -89q41 -61 54.5 -136
t13.5 -215v-231q0 -49 22 -68t86 -20q21 0 21 -21v-40q0 -21 -21 -21q-64 -1 -86 -20t-22 -68v-236q0 -140 -13.5 -214.5t-54.5 -135.5q-42 -62 -124.5 -89.5t-221.5 -29.5z" />
    <glyph glyph-name="uni00A0" unicode="&#xa0;" horiz-adv-x="1034" 
 />
    <glyph glyph-name="exclamdown" unicode="&#xa1;" horiz-adv-x="348" 
d="M195 1149h-41q-21 0 -21 20v256q0 21 21 21h41q20 0 20 -21v-256q0 -20 -20 -20zM199 0h-49q-21 0 -21 20v248l18 729q0 21 21 21h12q21 0 21 -21l18 -729v-248q0 -20 -20 -20z" />
    <glyph glyph-name="cent" unicode="&#xa2;" horiz-adv-x="1341" 
d="M729 82h127q212 0 277 68q62 68 65 292q0 21 21 21h41q20 0 20 -21q-3 -258 -92 -350q-86 -92 -332 -92h-127v-125q0 -20 -20 -20h-41q-21 0 -21 20v125h-131q-137 0 -220 25t-126 84q-44 59 -61 137t-17 209v247q0 127 17 204t61 136q43 59 126 84t220 25h131v125
q0 20 21 20h41q20 0 20 -20v-125h127q249 0 334 -94q87 -93 90 -344q0 -21 -20 -21h-41q-21 0 -21 21q-3 220 -68 288t-274 68h-127v-987zM516 82h131v987h-131q-210 0 -276 -72t-66 -295v-247q0 -233 64 -303t278 -70z" />
    <glyph glyph-name="sterling" unicode="&#xa3;" horiz-adv-x="1525" 
d="M1464 946v-78q0 -20 -20 -20h-41q-21 0 -21 20v78q0 220 -95 319t-308 99h-315q-363 0 -363 -297q0 -169 102 -350h617q20 0 20 -21v-41q0 -20 -20 -20h-565q1 -3 7 -13t14 -22.5t11 -17.5l322 -500h635q20 0 20 -21v-41q0 -20 -20 -20h-1362q-21 0 -21 20v41q0 21 21 21
h629l-295 459l-60 94h-274q-21 0 -21 20v41q0 21 21 21h227q-90 172 -90 350q0 176 111.5 277.5t333.5 101.5h315q255 0 370 -127t115 -373z" />
    <glyph glyph-name="yen" unicode="&#xa5;" horiz-adv-x="1521" 
d="M1485 1446h51q12 0 16 -9t-4 -16l-415 -583h321q21 0 21 -21v-41q0 -20 -21 -20h-379l-260 -365v-371q0 -20 -20 -20h-41q-21 0 -21 20v369l-266 367h-377q-20 0 -20 20v41q0 21 20 21h316l-424 583q-8 7 -4 16t16 9h53q16 0 25 -12l702 -963l686 963q9 12 25 12z" />
    <glyph glyph-name="brokenbar" unicode="&#xa6;" horiz-adv-x="299" 
d="M170 842h-41q-20 0 -20 20v672q0 20 20 20h41q20 0 20 -20v-672q0 -20 -20 -20zM170 -104h-41q-20 0 -20 20v682q0 20 20 20h41q20 0 20 -20v-682q0 -20 -20 -20z" />
    <glyph glyph-name="dieresis" unicode="&#xa8;" horiz-adv-x="1142" 
d="M438 1182h-41q-20 0 -20 20v223q0 21 20 21h41q21 0 21 -21v-223q0 -20 -21 -20zM748 1182h-41q-21 0 -21 20v223q0 21 21 21h41q20 0 20 -21v-223q0 -20 -20 -20z" />
    <glyph glyph-name="copyright" unicode="&#xa9;" horiz-adv-x="1714" 
d="M1126 0h-538q-272 0 -381 127q-105 129 -105 371v448q0 245 105 371q108 129 381 129h538q274 0 379 -129q107 -125 107 -371v-448q0 -243 -107 -371q-106 -127 -379 -127zM588 82h538q221 0 312.5 94.5t91.5 321.5v448q0 227 -92 322.5t-312 95.5h-538
q-220 0 -312 -95.5t-92 -322.5v-448q0 -227 91.5 -321.5t312.5 -94.5zM999 270h-282q-156 0 -227.5 81t-71.5 243v254q0 317 299 317h282q154 0 224 -75.5t75 -241.5q0 -21 -20 -21h-41q-20 0 -20 21q-5 131 -52.5 183t-165.5 52h-282q-117 0 -167 -54t-50 -181v-254
q0 -131 49.5 -186.5t167.5 -55.5h282q117 0 165 53t53 183q0 20 20 20h41q20 0 20 -20q-5 -166 -75.5 -242t-223.5 -76z" />
    <glyph glyph-name="ordfeminine" unicode="&#xaa;" horiz-adv-x="1204" 
d="M633 377h-152q-210 0 -320 77.5t-110 229.5q0 155 80 229t287 101l536 69q66 9 66 64q0 123 -59 170t-250 47h-547q-21 0 -21 20v41q0 21 21 21h547q212 0 301.5 -62.5t89.5 -199.5v-787q0 -20 -21 -20h-41q-20 0 -20 20v199q-35 -116 -117 -168q-80 -51 -270 -51z
M481 459h152q219 0 301 88q86 89 86 307v156l-594 -78q-175 -24 -236 -78q-57 -51 -57 -170q0 -225 348 -225z" />
    <glyph glyph-name="guillemotleft" unicode="&#xab;" horiz-adv-x="843" 
d="M416 170h-35q-16 0 -25 12l-272 389q-9 15 0 29l272 389q9 12 25 12h35q29 0 14 -24l-235 -391l235 -391q16 -25 -14 -25zM737 170h-35q-15 0 -24 12l-270 389q-9 15 0 29l270 389q9 12 24 12h35q30 0 15 -24l-234 -391l234 -391q7 -12 3 -18.5t-18 -6.5z" />
    <glyph glyph-name="registered" unicode="&#xae;" horiz-adv-x="1714" 
d="M588 1446h538q274 0 379 -129q107 -125 107 -371v-448q0 -243 -107 -371q-106 -127 -379 -127h-538q-272 0 -381 127q-105 129 -105 371v448q0 245 105 371q108 129 381 129zM1530 498v448q0 227 -92 322.5t-312 95.5h-538q-220 0 -312 -95.5t-92 -322.5v-448
q0 -227 91.5 -321.5t312.5 -94.5h538q221 0 312.5 94.5t91.5 321.5zM498 1145h442q210 0 281 -80q73 -76 73 -225v-13q0 -122 -57.5 -188.5t-200.5 -83.5l203 -238q8 -11 5 -17.5t-15 -6.5h-58q-15 0 -24 12l-211 246h-377v-238q0 -20 -20 -20h-41q-21 0 -21 20v811
q0 21 21 21zM1212 827v13q0 119 -51 170q-53 53 -221 53h-381v-430h381q166 0 219 47t53 147z" />
    <glyph glyph-name="overscore" unicode="&#xaf;" horiz-adv-x="1142" 
d="M846 1221h-551q-21 0 -21 20v41q0 21 21 21h551q20 0 20 -21v-41q0 -20 -20 -20z" />
    <glyph glyph-name="degree" unicode="&#xb0;" horiz-adv-x="837" 
d="M436 819h-33q-168 0 -244.5 76.5t-76.5 232.5v27q0 152 76.5 228.5t244.5 76.5h33q168 0 244 -76.5t76 -228.5v-27q0 -156 -76 -232.5t-244 -76.5zM403 901h33q131 0 184.5 51.5t53.5 175.5v27q0 122 -54 172.5t-184 50.5h-33q-130 0 -184.5 -50.5t-54.5 -172.5v-27
q0 -123 54.5 -175t184.5 -52z" />
    <glyph glyph-name="acute" unicode="&#xb4;" horiz-adv-x="1142" 
d="M600 1186h-25q-25 0 -16 24l92 220q6 16 23 16h59q14 0 18 -6.5t-3 -18.5l-123 -221q-8 -14 -25 -14z" />
    <glyph glyph-name="paragraph" unicode="&#xb6;" horiz-adv-x="716" 
d="M590 -109h-41q-21 0 -21 21v924h-247q-195 0 -195 249v119q0 129 49.5 185.5t145.5 56.5h309q20 0 20 -21v-1513q0 -21 -20 -21z" />
    <glyph glyph-name="middot" unicode="&#xb7;" horiz-adv-x="339" 
d="M190 449h-40q-21 0 -21 20v256q0 20 21 20h40q21 0 21 -20v-256q0 -20 -21 -20z" />
    <glyph glyph-name="cedilla" unicode="&#xb8;" horiz-adv-x="1142" 
d="M516 -373h-61q-11 0 -15.5 6.5t-1.5 16.5l129 383q6 16 25 16h22q23 0 17 -22l-92 -381q-3 -19 -23 -19z" />
    <glyph glyph-name="ordmasculine" unicode="&#xba;" horiz-adv-x="1290" 
d="M774 377h-258q-137 0 -220 24.5t-126 83.5q-44 59 -61 137t-17 209v166q0 127 17 204t61 136q43 59 126 84t220 25h258q137 0 220 -25t126 -84q44 -59 61 -136t17 -204v-166q0 -131 -17 -209t-61 -137q-43 -59 -126 -83.5t-220 -24.5zM516 459h258q214 0 277 69
q65 71 65 303v166q0 224 -65 295q-66 72 -277 72h-258q-210 0 -276 -72t-66 -295v-166q0 -233 64 -303q63 -69 278 -69z" />
    <glyph glyph-name="guillemotright" unicode="&#xbb;" horiz-adv-x="843" 
d="M164 170h-35q-30 0 -14 25l233 391l-233 391q-15 24 14 24h35q15 0 24 -12l271 -389q9 -14 0 -29l-271 -389q-9 -12 -24 -12zM485 170h-34q-14 0 -18 6.5t3 18.5l236 391l-236 391q-15 24 15 24h34q16 0 25 -12l272 -389q9 -14 0 -29l-272 -389q-9 -12 -25 -12z" />
    <glyph glyph-name="questiondown" unicode="&#xbf;" horiz-adv-x="1509" 
d="M827 1149h-41q-20 0 -20 20v256q0 21 20 21h41q21 0 21 -21v-256q0 -20 -21 -20zM963 0h-416q-261 0 -373.5 86t-112.5 270q0 195 105 281q51 45 97.5 70t127.5 57l234 88q90 35 114 59q24 27 27 88q0 21 20 21h41q21 0 21 -21q-5 -86 -47 -134.5t-146 -86.5l-229 -86
q-159 -60 -223 -127q-60 -66 -60 -209q0 -152 90 -215q89 -59 314 -59h416q240 0 321 84q82 82 82 334v78q0 20 20 20h41q21 0 21 -20v-78q0 -141 -19 -225.5t-71 -149.5q-51 -65 -146 -95t-249 -30z" />
    <glyph glyph-name="Agrave" unicode="&#xc0;" 
d="M784 1800l90 -219q9 -25 -16 -25h-24q-19 0 -25 15l-121 221q-16 25 14 25h60q15 0 22 -17zM1659 0h-49q-19 0 -25 14l-162 295h-1142l-164 -295q-8 -14 -25 -14h-49q-30 0 -14 25l778 1407q6 14 24 14h46q18 0 24 -14l772 -1407q16 -25 -14 -25zM854 1343l-528 -952
h1052z" />
    <glyph glyph-name="Aacute" unicode="&#xc1;" 
d="M948 1817h60q30 0 14 -25l-123 -221q-9 -15 -25 -15h-24q-25 0 -16 25l92 219q7 17 22 17zM1659 0h-49q-19 0 -25 14l-162 295h-1142l-164 -295q-8 -14 -25 -14h-49q-30 0 -14 25l778 1407q6 14 24 14h46q18 0 24 -14l772 -1407q16 -25 -14 -25zM854 1343l-528 -952h1052
z" />
    <glyph glyph-name="Acircumflex" unicode="&#xc2;" 
d="M1001 1565l-155 190l-158 -190q-10 -13 -24 -13h-62q-12 0 -16 9t4 16l188 225q10 13 25 13h84q14 0 24 -13l189 -225q8 -7 3.5 -16t-16.5 -9h-61q-15 0 -25 13zM1659 0h-49q-19 0 -25 14l-162 295h-1142l-164 -295q-8 -14 -25 -14h-49q-30 0 -14 25l778 1407q6 14 24 14
h46q18 0 24 -14l772 -1407q16 -25 -14 -25zM854 1343l-528 -952h1052z" />
    <glyph glyph-name="Atilde" unicode="&#xc3;" 
d="M809 1589q-88 22 -129 25q-38 3 -131 -29q-25 -9 -25 14v48q0 15 17 22q50 20 108 23q62 3 88 -2q31 -5 92 -21l101 -22q30 -9 97.5 -1.5t121.5 33.5q25 9 25 -14v-49q0 -18 -27 -27q-138 -53 -338 0zM1659 0h-49q-19 0 -25 14l-162 295h-1142l-164 -295q-8 -14 -25 -14
h-49q-30 0 -14 25l778 1407q6 14 24 14h46q18 0 24 -14l772 -1407q16 -25 -14 -25zM854 1343l-528 -952h1052z" />
    <glyph glyph-name="Adieresis" unicode="&#xc4;" 
d="M676 1827h41q20 0 20 -21v-223q0 -20 -20 -20h-41q-21 0 -21 20v223q0 21 21 21zM985 1827h41q21 0 21 -21v-223q0 -20 -21 -20h-41q-20 0 -20 20v223q0 21 20 21zM1659 0h-49q-19 0 -25 14l-162 295h-1142l-164 -295q-8 -14 -25 -14h-49q-30 0 -14 25l778 1407
q6 14 24 14h46q18 0 24 -14l772 -1407q16 -25 -14 -25zM854 1343l-528 -952h1052z" />
    <glyph glyph-name="Aring" unicode="&#xc5;" 
d="M858 1550h-18q-185 0 -185 179v14q0 172 185 172h18q182 0 182 -172v-14q0 -90 -43 -134.5t-139 -44.5zM737 1743v-14q0 -56 21.5 -76.5t81.5 -20.5h18q60 0 80 20t20 77v14q0 54 -20 72t-80 18h-18q-60 0 -81.5 -19.5t-21.5 -70.5zM1659 0h-49q-19 0 -25 14l-162 295
h-1142l-164 -295q-8 -14 -25 -14h-49q-30 0 -14 25l778 1407q6 14 24 14h46q18 0 24 -14l772 -1407q16 -25 -14 -25zM854 1343l-528 -952h1052z" />
    <glyph glyph-name="AE" unicode="&#xc6;" horiz-adv-x="2383" 
d="M49 0h-55q-12 0 -16 9t4 16l1065 1409q9 12 26 12h1219q20 0 20 -21v-41q0 -20 -20 -20h-1121v-578h807q21 0 21 -20v-41q0 -20 -21 -20h-807v-623h1121q20 0 20 -21v-41q0 -20 -20 -20h-1182q-20 0 -20 20v289h-791l-223 -297q-9 -12 -27 -12zM1090 1354l-730 -963h730
v963z" />
    <glyph glyph-name="Ccedilla" unicode="&#xc7;" horiz-adv-x="1611" 
d="M1530 946v-37q0 -20 -21 -20h-41q-20 0 -20 20v37q0 238 -88 326q-89 92 -316 92h-456q-227 0 -316 -92q-88 -88 -88 -326v-448q0 -235 88 -326q90 -90 316 -90h456q226 0 316 90q88 91 88 326v59q0 21 20 21h41q21 0 21 -21v-59q0 -258 -109 -379q-107 -119 -377 -119
h-178l-86 -354q-3 -19 -22 -19h-62q-23 0 -16 23l119 350h-211q-270 0 -377 119q-109 121 -109 379v448q0 258 109 379t377 121h456q268 0 377 -121t109 -379z" />
    <glyph glyph-name="Egrave" unicode="&#xc8;" horiz-adv-x="1427" 
d="M750 1554h-25q-19 0 -25 15l-120 221q-16 25 14 25h59q16 0 23 -17l90 -219q9 -25 -16 -25zM1331 0h-1181q-21 0 -21 20v1405q0 21 21 21h1181q21 0 21 -21v-41q0 -20 -21 -20h-1120v-578h807q20 0 20 -20v-41q0 -20 -20 -20h-807v-623h1120q21 0 21 -21v-41
q0 -20 -21 -20z" />
    <glyph glyph-name="Eacute" unicode="&#xc9;" horiz-adv-x="1427" 
d="M766 1552h-25q-25 0 -16 25l92 219q6 16 23 16h59q29 0 14 -24l-122 -221q-9 -15 -25 -15zM1331 0h-1181q-21 0 -21 20v1405q0 21 21 21h1181q21 0 21 -21v-41q0 -20 -21 -20h-1120v-578h807q20 0 20 -20v-41q0 -20 -20 -20h-807v-623h1120q21 0 21 -21v-41
q0 -20 -21 -20z" />
    <glyph glyph-name="Ecircumflex" unicode="&#xca;" horiz-adv-x="1427" 
d="M483 1575l189 225q9 12 24 12h84q16 0 25 -12l188 -225q7 -11 3.5 -18t-15.5 -7h-61q-15 0 -25 13l-156 190l-157 -190q-10 -13 -25 -13h-61q-12 0 -16 7t3 18zM1331 0h-1181q-21 0 -21 20v1405q0 21 21 21h1181q21 0 21 -21v-41q0 -20 -21 -20h-1120v-578h807
q20 0 20 -20v-41q0 -20 -20 -20h-807v-623h1120q21 0 21 -21v-41q0 -20 -21 -20z" />
    <glyph glyph-name="Edieresis" unicode="&#xcb;" horiz-adv-x="1427" 
d="M606 1561h-41q-20 0 -20 20v223q0 21 20 21h41q21 0 21 -21v-223q0 -20 -21 -20zM915 1561h-41q-20 0 -20 20v223q0 21 20 21h41q21 0 21 -21v-223q0 -20 -21 -20zM1331 0h-1181q-21 0 -21 20v1405q0 21 21 21h1181q21 0 21 -21v-41q0 -20 -21 -20h-1120v-578h807
q20 0 20 -20v-41q0 -20 -20 -20h-807v-623h1120q21 0 21 -21v-41q0 -20 -21 -20z" />
    <glyph glyph-name="Igrave" unicode="&#xcc;" horiz-adv-x="327" 
d="M193 1554h-25q-19 0 -25 15l-120 221q-16 25 14 25h59q16 0 23 -17l90 -219q9 -25 -16 -25zM205 0h-41q-21 0 -21 20v1405q0 21 21 21h41q20 0 20 -21v-1405q0 -20 -20 -20z" />
    <glyph glyph-name="Iacute" unicode="&#xcd;" horiz-adv-x="327" 
d="M184 1554h-24q-26 0 -17 25l93 219q7 17 22 17h59q14 0 18 -6.5t-3 -18.5l-123 -221q-9 -15 -25 -15zM190 0h-40q-21 0 -21 20v1405q0 21 21 21h40q21 0 21 -21v-1405q0 -20 -21 -20z" />
    <glyph glyph-name="Icircumflex" unicode="&#xce;" horiz-adv-x="327" 
d="M-82 1575l188 225q9 12 25 12h84q16 0 25 -12l188 -225q7 -11 3.5 -18t-15.5 -7h-62q-14 0 -24 13l-156 190l-158 -190q-10 -13 -24 -13h-62q-12 0 -15.5 7t3.5 18zM195 0h-41q-21 0 -21 20v1405q0 21 21 21h41q20 0 20 -21v-1405q0 -20 -20 -20z" />
    <glyph glyph-name="Idieresis" unicode="&#xcf;" horiz-adv-x="327" 
d="M37 1561h-41q-21 0 -21 20v223q0 21 21 21h41q20 0 20 -21v-223q0 -20 -20 -20zM346 1561h-41q-20 0 -20 20v223q0 21 20 21h41q21 0 21 -21v-223q0 -20 -21 -20zM190 0h-40q-21 0 -21 20v1405q0 21 21 21h40q21 0 21 -21v-1405q0 -20 -21 -20z" />
    <glyph glyph-name="Eth" unicode="&#xd0;" horiz-adv-x="1687" 
d="M186 1446h916q272 0 377 -123q106 -121 106 -420v-368q0 -298 -106 -416q-104 -119 -377 -119h-916q-20 0 -20 20v685h-119q-20 0 -20 20v41q0 20 20 20h119v639q0 21 20 21zM1503 535v368q0 267 -84 363q-82 98 -317 98h-854v-578h581q21 0 21 -20v-41q0 -20 -21 -20
h-581v-623h854q235 0 317 94q84 96 84 359z" />
    <glyph glyph-name="Ntilde" unicode="&#xd1;" horiz-adv-x="1576" 
d="M475 1581q-24 -9 -24 14v47q0 17 16 23q50 20 108 23q63 3 89 -2q31 -5 92 -21l100 -23q30 -9 97.5 -1.5t121.5 34.5q25 9 25 -14v-49q0 -16 -17 -23q-146 -62 -348 -4q-88 22 -129 25q-38 3 -131 -29zM190 0h-40q-21 0 -21 20v1405q0 21 21 21h59q15 0 24 -12
l1133 -1338v1329q0 21 20 21h41q21 0 21 -21v-1405q0 -20 -21 -20h-67q-16 0 -25 12l-1124 1327v-1319q0 -20 -21 -20z" />
    <glyph glyph-name="Ograve" unicode="&#xd2;" 
d="M842 1554h-25q-18 0 -24 15l-121 221q-16 25 14 25h59q16 0 23 -17l90 -219q9 -25 -16 -25zM1085 0h-497q-270 0 -377 119q-109 121 -109 379v448q0 258 109 379t377 121h497q268 0 377 -121t109 -379v-448q0 -258 -109 -379q-107 -119 -377 -119zM588 82h497
q226 0 316 90q88 91 88 326v448q0 238 -88 326q-89 92 -316 92h-497q-227 0 -316 -92q-88 -88 -88 -326v-448q0 -235 88 -326q90 -90 316 -90z" />
    <glyph glyph-name="Oacute" unicode="&#xd3;" 
d="M864 1552h-24q-26 0 -17 25l92 219q6 16 23 16h59q30 0 15 -24l-123 -221q-9 -15 -25 -15zM1085 0h-497q-270 0 -377 119q-109 121 -109 379v448q0 258 109 379t377 121h497q268 0 377 -121t109 -379v-448q0 -258 -109 -379q-107 -119 -377 -119zM588 82h497
q226 0 316 90q88 91 88 326v448q0 238 -88 326q-89 92 -316 92h-497q-227 0 -316 -92q-88 -88 -88 -326v-448q0 -235 88 -326q90 -90 316 -90z" />
    <glyph glyph-name="Ocircumflex" unicode="&#xd4;" 
d="M582 1577l188 225q10 13 25 13h84q14 0 24 -13l189 -225q8 -7 3.5 -16t-16.5 -9h-61q-15 0 -25 13l-155 190l-158 -190q-10 -13 -25 -13h-61q-12 0 -16 9t4 16zM1085 0h-497q-270 0 -377 119q-109 121 -109 379v448q0 258 109 379t377 121h497q268 0 377 -121t109 -379
v-448q0 -258 -109 -379q-107 -119 -377 -119zM588 82h497q226 0 316 90q88 91 88 326v448q0 238 -88 326q-89 92 -316 92h-497q-227 0 -316 -92q-88 -88 -88 -326v-448q0 -235 88 -326q90 -90 316 -90z" />
    <glyph glyph-name="Otilde" unicode="&#xd5;" 
d="M537 1579q-25 -9 -25 14v47q0 17 16 23q49 20 109 23q58 3 88 -3q44 -8 92 -20l101 -23q30 -9 97.5 -1.5t121.5 34.5q24 9 24 -14v-49q0 -17 -16 -23q-146 -62 -348 -4q-88 22 -129 25q-38 3 -131 -29zM1085 0h-497q-270 0 -377 119q-109 121 -109 379v448q0 258 109 379
t377 121h497q268 0 377 -121t109 -379v-448q0 -258 -109 -379q-107 -119 -377 -119zM588 82h497q226 0 316 90q88 91 88 326v448q0 238 -88 326q-89 92 -316 92h-497q-227 0 -316 -92q-88 -88 -88 -326v-448q0 -235 88 -326q90 -90 316 -90z" />
    <glyph glyph-name="Odieresis" unicode="&#xd6;" 
d="M702 1559h-40q-21 0 -21 20v223q0 21 21 21h40q21 0 21 -21v-223q0 -20 -21 -20zM1012 1559h-41q-21 0 -21 20v223q0 21 21 21h41q20 0 20 -21v-223q0 -20 -20 -20zM1085 0h-497q-270 0 -377 119q-109 121 -109 379v448q0 258 109 379t377 121h497q268 0 377 -121
t109 -379v-448q0 -258 -109 -379q-107 -119 -377 -119zM588 82h497q226 0 316 90q88 91 88 326v448q0 238 -88 326q-89 92 -316 92h-497q-227 0 -316 -92q-88 -88 -88 -326v-448q0 -235 88 -326q90 -90 316 -90z" />
    <glyph glyph-name="multiply" unicode="&#xd7;" horiz-adv-x="901" 
d="M467 670l-293 -291q-14 -15 -29 0l-28 29q-14 14 0 28l291 291l-293 293q-15 14 0 29l30 30q15 15 29 0l293 -293l287 287q14 14 28 0l31 -29q14 -14 0 -28l-289 -289l291 -291q14 -14 0 -28l-29 -29q-14 -14 -28 0z" />
    <glyph glyph-name="Oslash" unicode="&#xd8;" 
d="M1120 1573l-33 -127q266 0 375 -121t109 -379v-448q0 -258 -109 -379q-107 -119 -377 -119h-376l-33 -125q-3 -18 -23 -18h-39q-22 0 -16 22l31 121h-41q-270 0 -377 119q-109 121 -109 379v448q0 258 109 379t377 121h420l34 131q3 18 23 18h37q24 0 18 -22zM588 82h63
l334 1282h-397q-227 0 -316 -92q-88 -88 -88 -326v-448q0 -235 88 -326q90 -90 316 -90zM1489 498v448q0 238 -88 326q-89 92 -316 92h-20l-334 -1282h354q226 0 316 90q88 91 88 326z" />
    <glyph glyph-name="Ugrave" unicode="&#xd9;" horiz-adv-x="1660" 
d="M838 1550h-25q-19 0 -25 15l-120 221q-15 24 14 24h59q17 0 23 -16l90 -219q9 -25 -16 -25zM1038 0h-415q-270 0 -377 119q-109 121 -109 379v927q0 21 21 21h41q20 0 20 -21v-927q0 -235 88 -326q90 -90 316 -90h415q226 0 316 90q88 91 88 326v927q0 21 20 21h41
q21 0 21 -21v-927q0 -258 -109 -379q-107 -119 -377 -119z" />
    <glyph glyph-name="Uacute" unicode="&#xda;" horiz-adv-x="1660" 
d="M846 1552h-25q-25 0 -16 25l92 219q6 16 23 16h59q29 0 14 -24l-123 -221q-6 -15 -24 -15zM1038 0h-415q-270 0 -377 119q-109 121 -109 379v927q0 21 21 21h41q20 0 20 -21v-927q0 -235 88 -326q90 -90 316 -90h415q226 0 316 90q88 91 88 326v927q0 21 20 21h41
q21 0 21 -21v-927q0 -258 -109 -379q-107 -119 -377 -119z" />
    <glyph glyph-name="Ucircumflex" unicode="&#xdb;" horiz-adv-x="1660" 
d="M575 1575l189 225q9 12 24 12h84q16 0 25 -12l188 -225q7 -11 3.5 -18t-15.5 -7h-61q-15 0 -25 13l-156 190l-157 -190q-10 -13 -25 -13h-61q-12 0 -16 7t3 18zM1038 0h-415q-270 0 -377 119q-109 121 -109 379v927q0 21 21 21h41q20 0 20 -21v-927q0 -235 88 -326
q90 -90 316 -90h415q226 0 316 90q88 91 88 326v927q0 21 20 21h41q21 0 21 -21v-927q0 -258 -109 -379q-107 -119 -377 -119z" />
    <glyph glyph-name="Udieresis" unicode="&#xdc;" horiz-adv-x="1660" 
d="M696 1559h-41q-20 0 -20 20v223q0 21 20 21h41q21 0 21 -21v-223q0 -20 -21 -20zM1006 1559h-41q-21 0 -21 20v223q0 21 21 21h41q20 0 20 -21v-223q0 -20 -20 -20zM1038 0h-415q-270 0 -377 119q-109 121 -109 379v927q0 21 21 21h41q20 0 20 -21v-927q0 -235 88 -326
q90 -90 316 -90h415q226 0 316 90q88 91 88 326v927q0 21 20 21h41q21 0 21 -21v-927q0 -258 -109 -379q-107 -119 -377 -119z" />
    <glyph glyph-name="Yacute" unicode="&#xdd;" horiz-adv-x="1521" 
d="M793 1552h-25q-25 0 -16 25l92 219q6 16 22 16h60q29 0 14 -24l-123 -221q-6 -15 -24 -15zM795 0h-41q-21 0 -21 20v369l-751 1032q-8 7 -4 16t16 9h53q16 0 25 -12l702 -963l686 963q9 12 25 12h51q12 0 16 -9t-4 -16l-733 -1030v-371q0 -20 -20 -20z" />
    <glyph glyph-name="Thorn" unicode="&#xde;" horiz-adv-x="1478" 
d="M190 0h-40q-21 0 -21 20v1405q0 21 21 21h40q21 0 21 -21v-208h623q326 0 444 -109q119 -107 119 -381v-12q0 -272 -117 -377t-446 -105h-623v-213q0 -20 -21 -20zM211 1135v-820h623q289 0 385 78q96 81 96 322v12q0 245 -96 326q-94 82 -385 82h-623z" />
    <glyph glyph-name="germandbls" unicode="&#xdf;" horiz-adv-x="1480" 
d="M279 0h-41q-21 0 -21 20v1049h-176q-21 0 -21 21v40q0 21 21 21h176q0 243 94 344q93 100 363 100h229q200 0 288.5 -58.5t88.5 -184.5v-21q0 -167 -133 -217q242 -76 242 -373v-256q0 -286 -107 -387q-107 -98 -412 -98h-309q-20 0 -20 20v41q0 21 20 21h309
q273 0 355 76t82 327v256q0 180 -90.5 254t-292.5 74h-336q-21 0 -21 21v40q0 21 21 21h336q91 3 146.5 14.5t83.5 36t36.5 53t7.5 76.5v21q0 86 -65.5 123.5t-229.5 37.5h-229q-134 0 -203 -17t-109 -66q-39 -49 -51 -115.5t-12 -204.5v-1090q0 -20 -20 -20z" />
    <glyph glyph-name="agrave" unicode="&#xe0;" horiz-adv-x="1286" 
d="M682 1255h-25q-18 0 -24 15l-121 221q-16 25 14 25h60q15 0 22 -17l90 -219q9 -25 -16 -25zM715 0h-234q-210 0 -320 77.5t-110 229.5q0 157 82.5 232t284.5 98l618 70q66 9 66 63q0 170 -60 236q-57 63 -249 63h-629q-21 0 -21 21v40q0 21 21 21h629q215 0 303 -78
t88 -260v-793q0 -20 -21 -20h-41q-20 0 -20 20v199q-35 -116 -117 -168q-80 -51 -270 -51zM481 82h234q219 0 301 88q86 89 86 307v156l-676 -78q-177 -21 -236 -74q-57 -51 -57 -174q0 -225 348 -225z" />
    <glyph glyph-name="aacute" unicode="&#xe1;" horiz-adv-x="1286" 
d="M643 1257h-25q-25 0 -16 25l92 219q7 17 23 17h59q14 0 18 -6.5t-3 -18.5l-123 -221q-9 -15 -25 -15zM715 0h-234q-210 0 -320 77.5t-110 229.5q0 157 82.5 232t284.5 98l618 70q66 9 66 63q0 170 -60 236q-57 63 -249 63h-629q-21 0 -21 21v40q0 21 21 21h629
q215 0 303 -78t88 -260v-793q0 -20 -21 -20h-41q-20 0 -20 20v199q-35 -116 -117 -168q-80 -51 -270 -51zM481 82h234q219 0 301 88q86 89 86 307v156l-676 -78q-177 -21 -236 -74q-57 -51 -57 -174q0 -225 348 -225z" />
    <glyph glyph-name="acircumflex" unicode="&#xe2;" horiz-adv-x="1286" 
d="M412 1280l188 225q10 13 25 13h84q14 0 24 -13l189 -225q7 -10 3 -17.5t-16 -7.5h-61q-15 0 -25 13l-155 190l-158 -190q-10 -13 -25 -13h-61q-12 0 -15.5 7.5t3.5 17.5zM715 0h-234q-210 0 -320 77.5t-110 229.5q0 157 82.5 232t284.5 98l618 70q66 9 66 63
q0 170 -60 236q-57 63 -249 63h-629q-21 0 -21 21v40q0 21 21 21h629q215 0 303 -78t88 -260v-793q0 -20 -21 -20h-41q-20 0 -20 20v199q-35 -116 -117 -168q-80 -51 -270 -51zM481 82h234q219 0 301 88q86 89 86 307v156l-676 -78q-177 -21 -236 -74q-57 -51 -57 -174
q0 -225 348 -225z" />
    <glyph glyph-name="atilde" unicode="&#xe3;" horiz-adv-x="1286" 
d="M397 1288q-24 -9 -24 15v47q0 16 16 22q49 20 109 23q62 3 88 -2q31 -5 92 -21l100 -22q30 -9 97.5 -1.5t121.5 33.5q25 9 25 -14v-49q0 -17 -16 -23q-146 -63 -349 -4q-88 22 -129 25q-38 3 -131 -29zM715 0h-234q-210 0 -320 77.5t-110 229.5q0 157 82.5 232t284.5 98
l618 70q66 9 66 63q0 170 -60 236q-57 63 -249 63h-629q-21 0 -21 21v40q0 21 21 21h629q215 0 303 -78t88 -260v-793q0 -20 -21 -20h-41q-20 0 -20 20v199q-35 -116 -117 -168q-80 -51 -270 -51zM481 82h234q219 0 301 88q86 89 86 307v156l-676 -78q-177 -21 -236 -74
q-57 -51 -57 -174q0 -225 348 -225z" />
    <glyph glyph-name="adieresis" unicode="&#xe4;" horiz-adv-x="1286" 
d="M532 1264h-40q-21 0 -21 20v223q0 21 21 21h40q21 0 21 -21v-223q0 -20 -21 -20zM842 1264h-41q-21 0 -21 20v223q0 21 21 21h41q20 0 20 -21v-223q0 -20 -20 -20zM715 0h-234q-210 0 -320 77.5t-110 229.5q0 157 82.5 232t284.5 98l618 70q66 9 66 63q0 170 -60 236
q-57 63 -249 63h-629q-21 0 -21 21v40q0 21 21 21h629q215 0 303 -78t88 -260v-793q0 -20 -21 -20h-41q-20 0 -20 20v199q-35 -116 -117 -168q-80 -51 -270 -51zM481 82h234q219 0 301 88q86 89 86 307v156l-676 -78q-177 -21 -236 -74q-57 -51 -57 -174q0 -225 348 -225z
" />
    <glyph glyph-name="aring" unicode="&#xe5;" horiz-adv-x="1286" 
d="M678 1253h-19q-184 0 -184 179v14q0 172 184 172h19q182 0 182 -172v-14q0 -90 -43 -134.5t-139 -44.5zM659 1335h19q60 0 80 20t20 77v14q0 54 -20 72t-80 18h-19q-59 0 -80.5 -19t-21.5 -71v-14q0 -56 21 -76.5t81 -20.5zM715 0h-234q-210 0 -320 77.5t-110 229.5
q0 157 82.5 232t284.5 98l618 70q66 9 66 63q0 170 -60 236q-57 63 -249 63h-629q-21 0 -21 21v40q0 21 21 21h629q215 0 303 -78t88 -260v-793q0 -20 -21 -20h-41q-20 0 -20 20v199q-35 -116 -117 -168q-80 -51 -270 -51zM481 82h234q219 0 301 88q86 89 86 307v156
l-676 -78q-177 -21 -236 -74q-57 -51 -57 -174q0 -225 348 -225z" />
    <glyph glyph-name="ae" unicode="&#xe6;" horiz-adv-x="2312" 
d="M715 0h-234q-210 0 -320 77.5t-110 229.5q0 157 82.5 232t284.5 98l618 70q66 9 66 63q0 170 -60 236q-57 63 -249 63h-629q-21 0 -21 21v40q0 21 21 21h624q170 0 254 -50t107 -161q25 114 109.5 162.5t265.5 48.5h293q137 0 220 -25t126 -84q44 -59 61 -136t17 -204
v-167q0 -21 -21 -21h-1034v-59q0 -234 63 -303q64 -70 279 -70h600q20 0 20 -21v-41q0 -20 -20 -20h-600q-200 0 -287 60.5t-106 205.5q-37 -137 -137.5 -201.5t-282.5 -64.5zM1186 702v-106h973v106q0 223 -66 295t-276 72h-289q-211 0 -277 -72q-65 -71 -65 -295zM481 82
h234q213 0 300 91t87 304v156l-676 -78q-177 -21 -236 -74q-57 -51 -57 -174q0 -225 348 -225z" />
    <glyph glyph-name="ccedilla" unicode="&#xe7;" horiz-adv-x="1341" 
d="M516 82h340q212 0 277 68q62 68 65 292q0 21 21 21h41q20 0 20 -21q-3 -258 -92 -350q-86 -92 -332 -92h-131l-86 -354q-3 -19 -23 -19h-61q-23 0 -16 23l118 350h-141q-137 0 -220 25t-126 84q-44 59 -61 137t-17 209v247q0 127 17 204t61 136q43 59 126 84t220 25h340
q249 0 334 -94q87 -93 90 -344q0 -21 -20 -21h-41q-21 0 -21 21q-3 220 -68 288t-274 68h-340q-210 0 -276 -72t-66 -295v-247q0 -233 64 -303t278 -70z" />
    <glyph glyph-name="egrave" unicode="&#xe8;" horiz-adv-x="1300" 
d="M668 1257h-25q-19 0 -25 15l-120 221q-16 25 14 25h59q16 0 23 -17l90 -219q9 -25 -16 -25zM1116 0h-600q-137 0 -220 25t-126 84q-44 59 -61 137t-17 209v247q0 127 17 204t61 136q43 59 126 84t220 25h289q137 0 220 -25t126 -84q44 -59 61 -136t17 -204v-167
q0 -21 -21 -21h-1034v-59q0 -233 64 -303t278 -70h600q21 0 21 -21v-41q0 -20 -21 -20zM174 702v-106h973v106q0 223 -66 295t-276 72h-289q-210 0 -276 -72t-66 -295z" />
    <glyph glyph-name="eacute" unicode="&#xe9;" horiz-adv-x="1300" 
d="M684 1260h-25q-25 0 -16 24l92 219q7 17 23 17h59q30 0 14 -25l-122 -221q-8 -14 -25 -14zM1116 0h-600q-137 0 -220 25t-126 84q-44 59 -61 137t-17 209v247q0 127 17 204t61 136q43 59 126 84t220 25h289q137 0 220 -25t126 -84q44 -59 61 -136t17 -204v-167
q0 -21 -21 -21h-1034v-59q0 -233 64 -303t278 -70h600q21 0 21 -21v-41q0 -20 -21 -20zM174 702v-106h973v106q0 223 -66 295t-276 72h-289q-210 0 -276 -72t-66 -295z" />
    <glyph glyph-name="ecircumflex" unicode="&#xea;" horiz-adv-x="1300" 
d="M408 1278l188 225q10 13 25 13h84q14 0 24 -13l189 -225q8 -8 3.5 -16.5t-16.5 -8.5h-61q-15 0 -25 13l-155 190l-158 -190q-10 -13 -25 -13h-61q-12 0 -16 8.5t4 16.5zM1116 0h-600q-137 0 -220 25t-126 84q-44 59 -61 137t-17 209v247q0 127 17 204t61 136
q43 59 126 84t220 25h289q137 0 220 -25t126 -84q44 -59 61 -136t17 -204v-167q0 -21 -21 -21h-1034v-59q0 -233 64 -303t278 -70h600q21 0 21 -21v-41q0 -20 -21 -20zM174 702v-106h973v106q0 223 -66 295t-276 72h-289q-210 0 -276 -72t-66 -295z" />
    <glyph glyph-name="edieresis" unicode="&#xeb;" horiz-adv-x="1300" 
d="M528 1266h-41q-20 0 -20 20v223q0 21 20 21h41q21 0 21 -21v-223q0 -20 -21 -20zM838 1266h-41q-21 0 -21 20v223q0 21 21 21h41q20 0 20 -21v-223q0 -20 -20 -20zM1116 0h-600q-137 0 -220 25t-126 84q-44 59 -61 137t-17 209v247q0 127 17 204t61 136q43 59 126 84
t220 25h289q137 0 220 -25t126 -84q44 -59 61 -136t17 -204v-167q0 -21 -21 -21h-1034v-59q0 -233 64 -303t278 -70h600q21 0 21 -21v-41q0 -20 -21 -20zM174 702v-106h973v106q0 223 -66 295t-276 72h-289q-210 0 -276 -72t-66 -295z" />
    <glyph glyph-name="igrave" unicode="&#xec;" horiz-adv-x="315" 
d="M172 1257h-25q-18 0 -24 15l-121 221q-16 25 14 25h60q15 0 22 -17l90 -219q9 -25 -16 -25zM193 0h-41q-21 0 -21 20v1110q0 21 21 21h41q20 0 20 -21v-1110q0 -20 -20 -20z" />
    <glyph glyph-name="iacute" unicode="&#xed;" horiz-adv-x="315" 
d="M180 1260h-24q-26 0 -17 24l92 219q7 17 23 17h59q14 0 18 -6.5t-3 -18.5l-123 -221q-8 -14 -25 -14zM178 0h-41q-20 0 -20 20v1110q0 21 20 21h41q21 0 21 -21v-1110q0 -20 -21 -20z" />
    <glyph glyph-name="icircumflex" unicode="&#xee;" horiz-adv-x="315" 
d="M-92 1280l188 225q10 13 25 13h84q14 0 24 -13l189 -225q7 -10 3.5 -17.5t-15.5 -7.5h-62q-15 0 -25 13l-155 190l-158 -190q-10 -13 -24 -13h-62q-12 0 -15.5 7.5t3.5 17.5zM182 0h-41q-20 0 -20 20v1110q0 21 20 21h41q21 0 21 -21v-1110q0 -20 -21 -20z" />
    <glyph glyph-name="idieresis" unicode="&#xef;" horiz-adv-x="315" 
d="M27 1264h-41q-21 0 -21 20v223q0 21 21 21h41q20 0 20 -21v-223q0 -20 -20 -20zM336 1264h-41q-21 0 -21 20v223q0 21 21 21h41q20 0 20 -21v-223q0 -20 -20 -20zM178 0h-41q-20 0 -20 20v1110q0 21 20 21h41q21 0 21 -21v-1110q0 -20 -21 -20z" />
    <glyph glyph-name="eth" unicode="&#xf0;" horiz-adv-x="1372" 
d="M1081 1298l21 -41q105 -201 145 -325q33 -109 33 -227v-250q0 -131 -17 -209t-61 -137q-43 -59 -126 -84t-220 -25h-340q-137 0 -220 25t-126 84q-44 59 -61 137t-17 209v247q0 127 17 204t61 136q43 59 126 84t220 25h229q284 0 363 -76l-117 223h-483q-21 0 -21 21v41
q0 20 21 20h440l-80 150q-9 24 15 24h47q18 0 24 -14l84 -160h140q20 0 20 -20v-41q0 -21 -20 -21h-97zM1198 455v247q0 226 -65 297q-64 70 -277 70h-340q-210 0 -276 -72t-66 -295v-247q0 -233 64 -303t278 -70h340q213 0 277 70q65 71 65 303z" />
    <glyph glyph-name="ntilde" unicode="&#xf1;" horiz-adv-x="1363" 
d="M674 1305q-82 21 -129 24q-38 3 -131 -29q-25 -9 -25 15v47q0 15 17 22q50 20 108 23q62 3 88 -2q31 -5 92 -21l101 -22q30 -9 97.5 -1.5t121.5 34.5q24 9 24 -15v-49q0 -17 -26 -26q-138 -53 -338 0zM561 1151h277q137 0 220 -25t126 -84q44 -59 61 -137t17 -209v-678
q0 -20 -21 -20h-41q-20 0 -20 20v678q0 229 -66 301t-276 72h-297q-100 0 -157.5 -14t-100.5 -51q-84 -73 -84 -308v-676q0 -20 -21 -20h-41q-20 0 -20 20v1110q0 21 20 21h41q21 0 21 -21v-169q26 103 108 146.5t254 43.5z" />
    <glyph glyph-name="ograve" unicode="&#xf2;" horiz-adv-x="1372" 
d="M690 1257h-24q-19 0 -25 15l-121 221q-7 12 -3 18.5t18 6.5h59q15 0 22 -17l91 -219q9 -25 -17 -25zM856 0h-340q-137 0 -220 25t-126 84q-44 59 -61 137t-17 209v247q0 127 17 204t61 136q43 59 126 84t220 25h340q137 0 220 -25t126 -84q44 -59 61 -136t17 -204v-247
q0 -131 -17 -209t-61 -137q-43 -59 -126 -84t-220 -25zM516 82h340q213 0 277 70q65 71 65 303v247q0 224 -65 295q-66 72 -277 72h-340q-210 0 -276 -72t-66 -295v-247q0 -233 64 -303t278 -70z" />
    <glyph glyph-name="oacute" unicode="&#xf3;" horiz-adv-x="1372" 
d="M713 1255h-25q-25 0 -16 25l92 219q7 17 22 17h60q30 0 14 -25l-123 -221q-9 -15 -24 -15zM856 0h-340q-137 0 -220 25t-126 84q-44 59 -61 137t-17 209v247q0 127 17 204t61 136q43 59 126 84t220 25h340q137 0 220 -25t126 -84q44 -59 61 -136t17 -204v-247
q0 -131 -17 -209t-61 -137q-43 -59 -126 -84t-220 -25zM516 82h340q213 0 277 70q65 71 65 303v247q0 224 -65 295q-66 72 -277 72h-340q-210 0 -276 -72t-66 -295v-247q0 -233 64 -303t278 -70z" />
    <glyph glyph-name="ocircumflex" unicode="&#xf4;" horiz-adv-x="1372" 
d="M424 1278l188 225q10 13 25 13h84q14 0 24 -13l189 -225q8 -8 4 -16.5t-16 -8.5h-62q-14 0 -24 13l-156 190l-158 -190q-10 -13 -24 -13h-62q-12 0 -16 8.5t4 16.5zM856 0h-340q-137 0 -220 25t-126 84q-44 59 -61 137t-17 209v247q0 127 17 204t61 136q43 59 126 84
t220 25h340q137 0 220 -25t126 -84q44 -59 61 -136t17 -204v-247q0 -131 -17 -209t-61 -137q-43 -59 -126 -84t-220 -25zM516 82h340q213 0 277 70q65 71 65 303v247q0 224 -65 295q-66 72 -277 72h-340q-210 0 -276 -72t-66 -295v-247q0 -233 64 -303t278 -70z" />
    <glyph glyph-name="otilde" unicode="&#xf5;" horiz-adv-x="1372" 
d="M397 1290q-24 -9 -24 15v47q0 16 16 22q49 20 109 23q62 3 88 -2q31 -5 92 -21l100 -22q30 -9 97.5 -1.5t121.5 33.5q25 9 25 -14v-49q0 -17 -16 -23q-146 -63 -349 -4q-88 22 -129 25q-38 3 -131 -29zM856 0h-340q-137 0 -220 25t-126 84q-44 59 -61 137t-17 209v247
q0 127 17 204t61 136q43 59 126 84t220 25h340q137 0 220 -25t126 -84q44 -59 61 -136t17 -204v-247q0 -131 -17 -209t-61 -137q-43 -59 -126 -84t-220 -25zM516 82h340q213 0 277 70q65 71 65 303v247q0 224 -65 295q-66 72 -277 72h-340q-210 0 -276 -72t-66 -295v-247
q0 -233 64 -303t278 -70z" />
    <glyph glyph-name="odieresis" unicode="&#xf6;" horiz-adv-x="1372" 
d="M545 1264h-41q-21 0 -21 20v223q0 21 21 21h41q20 0 20 -21v-223q0 -20 -20 -20zM854 1264h-41q-20 0 -20 20v223q0 21 20 21h41q20 0 20 -21v-223q0 -20 -20 -20zM856 0h-340q-137 0 -220 25t-126 84q-44 59 -61 137t-17 209v247q0 127 17 204t61 136q43 59 126 84
t220 25h340q137 0 220 -25t126 -84q44 -59 61 -136t17 -204v-247q0 -131 -17 -209t-61 -137q-43 -59 -126 -84t-220 -25zM516 82h340q213 0 277 70q65 71 65 303v247q0 224 -65 295q-66 72 -277 72h-340q-210 0 -276 -72t-66 -295v-247q0 -233 64 -303t278 -70z" />
    <glyph glyph-name="divide" unicode="&#xf7;" horiz-adv-x="1120" 
d="M582 975h-41q-21 0 -21 20v242q0 20 21 20h41q20 0 20 -20v-242q0 -20 -20 -20zM1014 684h-908q-20 0 -20 21v40q0 21 20 21h908q20 0 20 -21v-40q0 -21 -20 -21zM582 197h-41q-21 0 -21 20v242q0 20 21 20h41q20 0 20 -20v-242q0 -20 -20 -20z" />
    <glyph glyph-name="oslash" unicode="&#xf8;" horiz-adv-x="1372" 
d="M903 1276l-31 -125q131 -2 210.5 -28t121.5 -85q43 -56 59.5 -132t16.5 -204v-247q0 -131 -17 -209t-61 -137q-43 -59 -126 -84t-220 -25h-270l-33 -127q-3 -18 -23 -18h-47q-22 0 -16 22l31 123q-249 3 -326 102q-80 103 -80 353v247q0 127 17 204t61 136q43 59 126 84
t220 25h268l33 129q3 18 23 18h47q22 0 16 -22zM516 82h2l246 987h-248q-210 0 -276 -72t-66 -295v-247q0 -233 64 -303t278 -70zM1198 455v247q0 224 -65 295q-66 72 -277 72h-4l-246 -987h250q213 0 277 70q65 71 65 303z" />
    <glyph glyph-name="ugrave" unicode="&#xf9;" horiz-adv-x="1357" 
d="M623 1499l90 -219q9 -25 -17 -25h-24q-19 0 -25 15l-121 221q-7 12 -3 18.5t18 6.5h59q16 0 23 -17zM1159 453v675q0 21 21 21h41q20 0 20 -21v-1110q0 -20 -20 -20h-41q-21 0 -21 20v170q-26 -103 -108 -146.5t-254 -43.5h-256q-137 0 -220 24.5t-126 83.5
q-44 59 -61 137.5t-17 209.5v677q0 21 20 21h41q21 0 21 -21v-677q0 -234 63 -303q64 -70 279 -70h276q100 0 157.5 14t100.5 51q84 73 84 308z" />
    <glyph glyph-name="uacute" unicode="&#xfa;" horiz-adv-x="1357" 
d="M758 1516h59q30 0 14 -25l-122 -221q-9 -15 -25 -15h-25q-25 0 -16 25l92 219q7 17 23 17zM1159 453v675q0 21 21 21h41q20 0 20 -21v-1110q0 -20 -20 -20h-41q-21 0 -21 20v170q-26 -103 -108 -146.5t-254 -43.5h-256q-137 0 -220 24.5t-126 83.5q-44 59 -61 137.5
t-17 209.5v677q0 21 20 21h41q21 0 21 -21v-677q0 -234 63 -303q64 -70 279 -70h276q100 0 157.5 14t100.5 51q84 73 84 308z" />
    <glyph glyph-name="ucircumflex" unicode="&#xfb;" horiz-adv-x="1357" 
d="M846 1266l-156 190l-158 -190q-10 -13 -24 -13h-62q-12 0 -16 8.5t4 16.5l189 225q10 13 24 13h84q15 0 25 -13l188 -225q8 -8 4 -16.5t-16 -8.5h-62q-14 0 -24 13zM1159 453v675q0 21 21 21h41q20 0 20 -21v-1110q0 -20 -20 -20h-41q-21 0 -21 20v170
q-26 -103 -108 -146.5t-254 -43.5h-256q-137 0 -220 24.5t-126 83.5q-44 59 -61 137.5t-17 209.5v677q0 21 20 21h41q21 0 21 -21v-677q0 -234 63 -303q64 -70 279 -70h276q100 0 157.5 14t100.5 51q84 73 84 308z" />
    <glyph glyph-name="udieresis" unicode="&#xfc;" horiz-adv-x="1357" 
d="M514 1530h41q20 0 20 -21v-223q0 -20 -20 -20h-41q-20 0 -20 20v223q0 21 20 21zM823 1530h41q21 0 21 -21v-223q0 -20 -21 -20h-41q-20 0 -20 20v223q0 21 20 21zM1159 453v675q0 21 21 21h41q20 0 20 -21v-1110q0 -20 -20 -20h-41q-21 0 -21 20v170
q-26 -103 -108 -146.5t-254 -43.5h-256q-137 0 -220 24.5t-126 83.5q-44 59 -61 137.5t-17 209.5v677q0 21 20 21h41q21 0 21 -21v-677q0 -234 63 -303q64 -70 279 -70h276q100 0 157.5 14t100.5 51q84 73 84 308z" />
    <glyph glyph-name="yacute" unicode="&#xfd;" horiz-adv-x="1394" 
d="M694 1255h-24q-26 0 -17 25l92 219q7 17 23 17h59q14 0 18 -6.5t-3 -18.5l-123 -221q-6 -15 -25 -15zM846 -403h-596q-21 0 -21 20v41q0 20 21 20h596q206 0 278 84t72 289v137q-26 -103 -108 -146.5t-254 -43.5h-277q-137 0 -220 24.5t-126 83.5q-44 59 -61 137.5
t-17 209.5v677q0 21 21 21h41q20 0 20 -21v-677q0 -233 64 -303t278 -70h297q100 0 157.5 14t100.5 51q84 73 84 308v675q0 21 21 21h40q21 0 21 -21v-1077q0 -229 -90 -342q-87 -112 -342 -112z" />
    <glyph glyph-name="thorn" unicode="&#xfe;" horiz-adv-x="1396" 
d="M563 1151h318q137 0 220 -25t126 -84q44 -59 61 -136t17 -204v-247q0 -131 -17 -209t-61 -137q-43 -59 -126 -84t-220 -25h-318q-172 0 -254 43.5t-108 146.5v-573q0 -20 -21 -20h-41q-20 0 -20 20v1917q0 20 20 20h41q21 0 21 -20v-444q73 61 362 61zM1223 455v247
q0 223 -66 295t-276 72h-338q-97 0 -154.5 -14t-103.5 -51q-84 -70 -84 -302v-247q0 -235 84 -308q43 -37 100.5 -51t157.5 -14h338q212 0 276 70q66 72 66 303z" />
    <glyph glyph-name="ydieresis" unicode="&#xff;" horiz-adv-x="1394" 
d="M571 1266h-41q-20 0 -20 20v223q0 21 20 21h41q21 0 21 -21v-223q0 -20 -21 -20zM881 1266h-41q-21 0 -21 20v223q0 21 21 21h41q20 0 20 -21v-223q0 -20 -20 -20zM846 -403h-596q-21 0 -21 20v41q0 20 21 20h596q206 0 278 84t72 289v137q-26 -103 -108 -146.5
t-254 -43.5h-277q-137 0 -220 24.5t-126 83.5q-44 59 -61 137.5t-17 209.5v677q0 21 21 21h41q20 0 20 -21v-677q0 -233 64 -303t278 -70h297q100 0 157.5 14t100.5 51q84 73 84 308v675q0 21 21 21h40q21 0 21 -21v-1077q0 -229 -90 -342q-87 -112 -342 -112z" />
    <glyph glyph-name="Amacron" unicode="&#x100;" 
d="M575 1663h551q21 0 21 -21v-40q0 -21 -21 -21h-551q-20 0 -20 21v40q0 21 20 21zM1659 0h-49q-19 0 -25 14l-162 295h-1142l-164 -295q-8 -14 -25 -14h-49q-30 0 -14 25l778 1407q6 14 24 14h46q18 0 24 -14l772 -1407q16 -25 -14 -25zM854 1343l-528 -952h1052z" />
    <glyph glyph-name="amacron" unicode="&#x101;" horiz-adv-x="1286" 
d="M936 1284h-551q-20 0 -20 21v41q0 20 20 20h551q20 0 20 -20v-41q0 -21 -20 -21zM715 0h-234q-210 0 -320 77.5t-110 229.5q0 157 82.5 232t284.5 98l618 70q66 9 66 63q0 170 -60 236q-57 63 -249 63h-629q-21 0 -21 21v40q0 21 21 21h629q215 0 303 -78t88 -260v-793
q0 -20 -21 -20h-41q-20 0 -20 20v199q-35 -116 -117 -168q-80 -51 -270 -51zM481 82h234q219 0 301 88q86 89 86 307v156l-676 -78q-177 -21 -236 -74q-57 -51 -57 -174q0 -225 348 -225z" />
    <glyph glyph-name="Abreve" unicode="&#x102;" 
d="M614 1769v29q0 21 21 21h41q20 0 20 -21v-29q0 -78 33 -107.5t121 -29.5q90 0 120.5 27t30.5 106v33q0 21 21 21h41q20 0 20 -21v-33q0 -118 -56 -166.5t-177 -48.5q-119 0 -177.5 52t-58.5 167zM1659 0h-49q-19 0 -25 14l-162 295h-1142l-164 -295q-8 -14 -25 -14h-49
q-30 0 -14 25l778 1407q6 14 24 14h46q18 0 24 -14l772 -1407q16 -25 -14 -25zM854 1343l-528 -952h1052z" />
    <glyph glyph-name="abreve" unicode="&#x103;" horiz-adv-x="1286" 
d="M418 1475v28q0 21 20 21h41q21 0 21 -21v-28q0 -78 33 -108t120 -30q90 0 121 27.5t31 105.5v33q0 21 20 21h41q21 0 21 -21v-33q0 -118 -56.5 -166.5t-177.5 -48.5q-119 0 -177 52.5t-58 167.5zM715 0h-234q-210 0 -320 77.5t-110 229.5q0 157 82.5 232t284.5 98l618 70
q66 9 66 63q0 170 -60 236q-57 63 -249 63h-629q-21 0 -21 21v40q0 21 21 21h629q215 0 303 -78t88 -260v-793q0 -20 -21 -20h-41q-20 0 -20 20v199q-35 -116 -117 -168q-80 -51 -270 -51zM481 82h234q219 0 301 88q86 89 86 307v156l-676 -78q-177 -21 -236 -74
q-57 -51 -57 -174q0 -225 348 -225z" />
    <glyph glyph-name="Aogonek" unicode="&#x104;" 
d="M1477 -145q0 -97 36 -133t148 -37q20 0 20 -21v-41q0 -20 -20 -20q-156 3 -213 63q-53 59 -53 189q0 167 176 188l-148 266h-1142l-164 -295q-8 -14 -25 -14h-49q-30 0 -14 25l778 1407q6 14 24 14h46q18 0 24 -14l772 -1407q16 -25 -14 -25h-43q-77 0 -108 -34.5
t-31 -110.5zM854 1343l-528 -952h1052z" />
    <glyph glyph-name="aogonek" unicode="&#x105;" horiz-adv-x="1286" 
d="M1206 -336v-41q0 -20 -20 -20q-156 3 -213 63q-53 59 -53 189q0 173 182 188v176q-35 -116 -117 -168q-80 -51 -270 -51h-234q-210 0 -320 77.5t-110 229.5q0 157 82.5 232t284.5 98l618 70q66 9 66 63q0 170 -60 236q-57 63 -249 63h-629q-21 0 -21 21v40q0 21 21 21
h629q215 0 303 -78t88 -260v-793q0 -20 -21 -20q-95 -2 -128.5 -31t-33.5 -114q0 -97 36.5 -133t148.5 -37q20 0 20 -21zM481 82h234q219 0 301 88q86 89 86 307v156l-676 -78q-177 -21 -236 -74q-57 -51 -57 -174q0 -225 348 -225z" />
    <glyph glyph-name="Cacute" unicode="&#x106;" horiz-adv-x="1611" 
d="M868 1554h-24q-26 0 -17 25l93 219q7 17 22 17h59q14 0 18 -6.5t-3 -18.5l-123 -221q-9 -15 -25 -15zM1044 0h-456q-270 0 -377 119q-109 121 -109 379v448q0 258 109 379t377 121h456q268 0 377 -121t109 -379v-37q0 -20 -21 -20h-41q-20 0 -20 20v37q0 238 -88 326
q-89 92 -316 92h-456q-227 0 -316 -92q-88 -88 -88 -326v-448q0 -235 88 -326q90 -90 316 -90h456q226 0 316 90q88 91 88 326v59q0 21 20 21h41q21 0 21 -21v-59q0 -258 -109 -379q-107 -119 -377 -119z" />
    <glyph glyph-name="cacute" unicode="&#x107;" horiz-adv-x="1341" 
d="M709 1260h-25q-25 0 -16 24l92 219q7 17 22 17h60q30 0 14 -25l-123 -221q-8 -14 -24 -14zM856 0h-340q-137 0 -220 25t-126 84q-44 59 -61 137t-17 209v247q0 127 17 204t61 136q43 59 126 84t220 25h340q249 0 334 -94q87 -93 90 -344q0 -21 -20 -21h-41q-21 0 -21 21
q-3 220 -68 288t-274 68h-340q-210 0 -276 -72t-66 -295v-247q0 -233 64 -303t278 -70h340q212 0 277 68q62 68 65 292q0 21 21 21h41q20 0 20 -21q-3 -258 -92 -350q-86 -92 -332 -92z" />
    <glyph glyph-name="Ccircumflex" unicode="&#x108;" horiz-adv-x="1611" 
d="M569 1573l189 225q9 12 24 12h84q16 0 25 -12l188 -225q8 -7 4 -16t-16 -9h-61q-15 0 -25 13l-156 190l-157 -190q-10 -13 -25 -13h-61q-12 0 -16.5 9t3.5 16zM1044 0h-456q-270 0 -377 119q-109 121 -109 379v448q0 258 109 379t377 121h456q268 0 377 -121t109 -379
v-37q0 -20 -21 -20h-41q-20 0 -20 20v37q0 238 -88 326q-89 92 -316 92h-456q-227 0 -316 -92q-88 -88 -88 -326v-448q0 -235 88 -326q90 -90 316 -90h456q226 0 316 90q88 91 88 326v59q0 21 20 21h41q21 0 21 -21v-59q0 -258 -109 -379q-107 -119 -377 -119z" />
    <glyph glyph-name="ccircumflex" unicode="&#x109;" horiz-adv-x="1341" 
d="M432 1280l189 225q10 13 24 13h84q15 0 25 -13l188 -225q7 -10 3.5 -17.5t-15.5 -7.5h-62q-14 0 -24 13l-156 190l-158 -190q-10 -13 -24 -13h-62q-12 0 -15.5 7.5t3.5 17.5zM856 0h-340q-137 0 -220 25t-126 84q-44 59 -61 137t-17 209v247q0 127 17 204t61 136
q43 59 126 84t220 25h340q249 0 334 -94q87 -93 90 -344q0 -21 -20 -21h-41q-21 0 -21 21q-3 220 -68 288t-274 68h-340q-210 0 -276 -72t-66 -295v-247q0 -233 64 -303t278 -70h340q212 0 277 68q62 68 65 292q0 21 21 21h41q20 0 20 -21q-3 -258 -92 -350
q-86 -92 -332 -92z" />
    <glyph glyph-name="Cdotaccent" unicode="&#x10a;" horiz-adv-x="1611" 
d="M846 1554h-41q-21 0 -21 21v221q0 21 21 21h41q20 0 20 -21v-221q0 -21 -20 -21zM1044 0h-456q-270 0 -377 119q-109 121 -109 379v448q0 258 109 379t377 121h456q268 0 377 -121t109 -379v-37q0 -20 -21 -20h-41q-20 0 -20 20v37q0 238 -88 326q-89 92 -316 92h-456
q-227 0 -316 -92q-88 -88 -88 -326v-448q0 -235 88 -326q90 -90 316 -90h456q226 0 316 90q88 91 88 326v59q0 21 20 21h41q21 0 21 -21v-59q0 -258 -109 -379q-107 -119 -377 -119z" />
    <glyph glyph-name="cdotaccent" unicode="&#x10b;" horiz-adv-x="1341" 
d="M707 1266h-41q-21 0 -21 20v221q0 21 21 21h41q20 0 20 -21v-221q0 -20 -20 -20zM856 0h-340q-137 0 -220 25t-126 84q-44 59 -61 137t-17 209v247q0 127 17 204t61 136q43 59 126 84t220 25h340q249 0 334 -94q87 -93 90 -344q0 -21 -20 -21h-41q-21 0 -21 21
q-3 220 -68 288t-274 68h-340q-210 0 -276 -72t-66 -295v-247q0 -233 64 -303t278 -70h340q212 0 277 68q62 68 65 292q0 21 21 21h41q20 0 20 -21q-3 -258 -92 -350q-86 -92 -332 -92z" />
    <glyph glyph-name="Ccaron" unicode="&#x10c;" horiz-adv-x="1611" 
d="M864 1550h-84q-14 0 -24 13l-189 225q-7 10 -3 17t16 7h61q16 0 25 -12l157 -190l156 190q9 12 25 12h61q12 0 15.5 -7t-3.5 -17l-188 -225q-10 -13 -25 -13zM1044 0h-456q-270 0 -377 119q-109 121 -109 379v448q0 258 109 379t377 121h456q268 0 377 -121t109 -379v-37
q0 -20 -21 -20h-41q-20 0 -20 20v37q0 238 -88 326q-89 92 -316 92h-456q-227 0 -316 -92q-88 -88 -88 -326v-448q0 -235 88 -326q90 -90 316 -90h456q226 0 316 90q88 91 88 326v59q0 21 20 21h41q21 0 21 -21v-59q0 -258 -109 -379q-107 -119 -377 -119z" />
    <glyph glyph-name="ccaron" unicode="&#x10d;" horiz-adv-x="1341" 
d="M729 1253h-84q-14 0 -24 13l-189 225q-8 7 -4 16t16 9h62q14 0 24 -13l158 -190l156 190q10 13 24 13h62q12 0 16 -9t-4 -16l-188 -225q-10 -13 -25 -13zM856 0h-340q-137 0 -220 25t-126 84q-44 59 -61 137t-17 209v247q0 127 17 204t61 136q43 59 126 84t220 25h340
q249 0 334 -94q87 -93 90 -344q0 -21 -20 -21h-41q-21 0 -21 21q-3 220 -68 288t-274 68h-340q-210 0 -276 -72t-66 -295v-247q0 -233 64 -303t278 -70h340q212 0 277 68q62 68 65 292q0 21 21 21h41q20 0 20 -21q-3 -258 -92 -350q-86 -92 -332 -92z" />
    <glyph glyph-name="Dcaron" unicode="&#x10e;" horiz-adv-x="1630" 
d="M862 1552h-84q-14 0 -24 13l-189 225q-8 8 -3.5 16.5t16.5 8.5h61q15 0 25 -13l157 -190l156 190q10 13 24 13h62q12 0 16 -8.5t-4 -16.5l-188 -225q-10 -13 -25 -13zM1044 0h-894q-21 0 -21 20v1405q0 21 21 21h894q272 0 377 -123q107 -122 107 -420v-368
q0 -297 -107 -416q-104 -119 -377 -119zM211 1364v-1282h833q236 0 318 94q84 96 84 359v368q0 267 -84 363q-82 98 -318 98h-833z" />
    <glyph glyph-name="dcaron" unicode="&#x10f;" horiz-adv-x="1585" 
d="M1196 961v573q0 20 21 20h40q21 0 21 -20v-1514q0 -20 -21 -20h-40q-21 0 -21 20v170q-27 -101 -109 -145.5t-253 -44.5h-318q-137 0 -220 25t-126 84q-44 59 -61 136t-17 204v247q0 131 17 209t61 137q43 59 126 84t220 25h318q172 0 254 -43.5t108 -146.5zM1354 805
l176 622q7 17 22 17h62q23 0 16 -23l-209 -622q-7 -17 -24 -17h-25q-25 0 -18 23zM516 82h338q97 0 155 13.5t101 49.5q46 37 66 110.5t20 193.5v247q0 235 -84 308q-43 37 -100.5 51t-157.5 14h-338q-212 0 -278 -72q-64 -70 -64 -301v-247q0 -225 66 -297q64 -70 276 -70z
" />
    <glyph glyph-name="Dcroat" unicode="&#x110;" horiz-adv-x="1687" 
d="M186 1446h916q483 0 483 -543v-368q0 -535 -483 -535h-916q-20 0 -20 20v668h-125q-21 0 -21 21v41q0 20 21 20h125v655q0 21 20 21zM1503 535v368q0 235 -98.5 348t-302.5 113h-854v-594h581q21 0 21 -20v-41q0 -21 -21 -21h-581v-606h854q204 0 302.5 111t98.5 342z
" />
    <glyph glyph-name="dslash" unicode="&#x111;" horiz-adv-x="1406" 
d="M1278 1380h92q21 0 21 -20v-41q0 -21 -21 -21h-92v-1278q0 -20 -21 -20h-40q-21 0 -21 20v170q-27 -101 -109 -145.5t-253 -44.5h-318q-137 0 -220 25t-126 84q-44 59 -61 136t-17 204v247q0 131 17 209t61 137q43 59 126 84t220 25h318q172 0 254 -43.5t108 -146.5v337
h-496q-20 0 -20 21v41q0 20 20 20h496v154q0 20 21 20h40q21 0 21 -20v-154zM516 82h338q97 0 155 13.5t101 49.5q46 37 66 110.5t20 193.5v247q0 235 -84 308q-43 37 -100.5 51t-157.5 14h-338q-212 0 -278 -72q-64 -70 -64 -301v-247q0 -225 66 -297q64 -70 276 -70z" />
    <glyph glyph-name="Emacron" unicode="&#x112;" horiz-adv-x="1427" 
d="M1016 1577h-551q-21 0 -21 20v41q0 21 21 21h551q20 0 20 -21v-41q0 -20 -20 -20zM1331 0h-1181q-21 0 -21 20v1405q0 21 21 21h1181q21 0 21 -21v-41q0 -20 -21 -20h-1120v-578h807q20 0 20 -20v-41q0 -20 -20 -20h-807v-623h1120q21 0 21 -21v-41q0 -20 -21 -20z" />
    <glyph glyph-name="emacron" unicode="&#x113;" horiz-adv-x="1300" 
d="M938 1284h-551q-20 0 -20 21v41q0 20 20 20h551q20 0 20 -20v-41q0 -21 -20 -21zM1116 0h-600q-137 0 -220 25t-126 84q-44 59 -61 137t-17 209v247q0 127 17 204t61 136q43 59 126 84t220 25h289q137 0 220 -25t126 -84q44 -59 61 -136t17 -204v-167q0 -21 -21 -21
h-1034v-59q0 -233 64 -303t278 -70h600q21 0 21 -21v-41q0 -20 -21 -20zM174 702v-106h973v106q0 223 -66 295t-276 72h-289q-210 0 -276 -72t-66 -295z" />
    <glyph glyph-name="Ebreve" unicode="&#x114;" horiz-adv-x="1427" 
d="M506 1765v29q0 21 20 21h41q21 0 21 -21v-29q0 -78 32.5 -107.5t120.5 -29.5q90 0 121 27.5t31 105.5v33q0 21 20 21h41q21 0 21 -21v-33q0 -118 -56.5 -166.5t-177.5 -48.5q-119 0 -177 52t-58 167zM1331 0h-1181q-21 0 -21 20v1405q0 21 21 21h1181q21 0 21 -21v-41
q0 -20 -21 -20h-1120v-578h807q20 0 20 -20v-41q0 -20 -20 -20h-807v-623h1120q21 0 21 -21v-41q0 -20 -21 -20z" />
    <glyph glyph-name="ebreve" unicode="&#x115;" horiz-adv-x="1300" 
d="M428 1477v28q0 21 21 21h40q21 0 21 -21v-28q0 -78 33 -108t121 -30q90 0 120.5 27.5t30.5 106.5v32q0 21 21 21h41q20 0 20 -21v-32q0 -118 -56 -167t-177 -49q-119 0 -177.5 52.5t-58.5 167.5zM1116 0h-600q-137 0 -220 25t-126 84q-44 59 -61 137t-17 209v247
q0 127 17 204t61 136q43 59 126 84t220 25h289q137 0 220 -25t126 -84q44 -59 61 -136t17 -204v-167q0 -21 -21 -21h-1034v-59q0 -233 64 -303t278 -70h600q21 0 21 -21v-41q0 -20 -21 -20zM174 702v-106h973v106q0 223 -66 295t-276 72h-289q-210 0 -276 -72t-66 -295z" />
    <glyph glyph-name="Edotaccent" unicode="&#x116;" horiz-adv-x="1427" 
d="M762 1546h-41q-21 0 -21 21v221q0 20 21 20h41q20 0 20 -20v-221q0 -21 -20 -21zM1331 0h-1181q-21 0 -21 20v1405q0 21 21 21h1181q21 0 21 -21v-41q0 -20 -21 -20h-1120v-578h807q20 0 20 -20v-41q0 -20 -20 -20h-807v-623h1120q21 0 21 -21v-41q0 -20 -21 -20z" />
    <glyph glyph-name="edotaccent" unicode="&#x117;" horiz-adv-x="1300" 
d="M684 1268h-41q-20 0 -20 20v221q0 21 20 21h41q21 0 21 -21v-221q0 -20 -21 -20zM1116 0h-600q-137 0 -220 25t-126 84q-44 59 -61 137t-17 209v247q0 127 17 204t61 136q43 59 126 84t220 25h289q137 0 220 -25t126 -84q44 -59 61 -136t17 -204v-167q0 -21 -21 -21
h-1034v-59q0 -233 64 -303t278 -70h600q21 0 21 -21v-41q0 -20 -21 -20zM174 702v-106h973v106q0 223 -66 295t-276 72h-289q-210 0 -276 -72t-66 -295z" />
    <glyph glyph-name="Eogonek" unicode="&#x118;" horiz-adv-x="1427" 
d="M1352 -336v-41q0 -20 -21 -20q-156 3 -213 63q-53 59 -53 189q0 96 61 145h-976q-21 0 -21 20v1405q0 21 21 21h1181q21 0 21 -21v-41q0 -20 -21 -20h-1120v-578h807q20 0 20 -20v-41q0 -20 -20 -20h-807v-623h1120q21 0 21 -21v-41q0 -20 -21 -20q-113 -3 -149 -29
q-35 -27 -35 -116q0 -97 36 -133t148 -37q21 0 21 -21z" />
    <glyph glyph-name="eogonek" unicode="&#x119;" horiz-adv-x="1300" 
d="M1229 702v-167q0 -21 -21 -21h-1034v-59q0 -233 64 -303t278 -70h600q21 0 21 -21v-41q0 -20 -21 -20q-109 -3 -145 -29q-35 -27 -35 -116q0 -97 36 -133t148 -37q21 0 21 -21v-41q0 -20 -21 -20q-156 3 -213 63q-53 59 -53 189q0 96 61 145h-399q-137 0 -220 25t-126 84
q-44 59 -61 137t-17 209v247q0 127 17 204t61 136q43 59 126 84t220 25h289q137 0 220 -25t126 -84q44 -59 61 -136t17 -204zM174 702v-106h973v106q0 223 -66 295t-276 72h-289q-210 0 -276 -72t-66 -295z" />
    <glyph glyph-name="Ecaron" unicode="&#x11a;" horiz-adv-x="1427" 
d="M784 1548h-84q-14 0 -24 13l-189 225q-8 8 -3.5 16t16.5 8h61q16 0 25 -12l157 -190l156 190q9 12 25 12h61q12 0 16 -8t-4 -16l-188 -225q-10 -13 -25 -13zM1331 0h-1181q-21 0 -21 20v1405q0 21 21 21h1181q21 0 21 -21v-41q0 -20 -21 -20h-1120v-578h807q20 0 20 -20
v-41q0 -20 -20 -20h-807v-623h1120q21 0 21 -21v-41q0 -20 -21 -20z" />
    <glyph glyph-name="ecaron" unicode="&#x11b;" horiz-adv-x="1300" 
d="M705 1255h-84q-15 0 -25 13l-188 225q-7 11 -3.5 18t15.5 7h61q15 0 25 -13l158 -190l155 190q10 13 25 13h61q12 0 16 -7t-3 -18l-189 -225q-10 -13 -24 -13zM1116 0h-600q-137 0 -220 25t-126 84q-44 59 -61 137t-17 209v247q0 127 17 204t61 136q43 59 126 84t220 25
h289q137 0 220 -25t126 -84q44 -59 61 -136t17 -204v-167q0 -21 -21 -21h-1034v-59q0 -233 64 -303t278 -70h600q21 0 21 -21v-41q0 -20 -21 -20zM174 702v-106h973v106q0 223 -66 295t-276 72h-289q-210 0 -276 -72t-66 -295z" />
    <glyph glyph-name="Gcircumflex" unicode="&#x11c;" horiz-adv-x="1615" 
d="M555 1573l188 225q9 12 25 12h84q16 0 25 -12l188 -225q8 -7 4 -16t-16 -9h-62q-14 0 -24 13l-156 190l-158 -190q-10 -13 -24 -13h-62q-12 0 -16 9t4 16zM1028 0h-457q-269 0 -376 119q-109 121 -109 379v448q0 258 109 379t376 121h457q265 0 373 -111
q109 -109 112 -356q0 -21 -20 -21h-41q-20 0 -20 21q-3 219 -91 301q-90 84 -313 84h-457q-226 0 -315 -92q-88 -88 -88 -326v-448q0 -235 88 -326q90 -90 315 -90h457q225 0 315 90q89 92 89 326v108h-586q-21 0 -21 21v41q0 20 21 20h647q20 0 20 -20v-170
q0 -259 -108 -379q-107 -119 -377 -119z" />
    <glyph glyph-name="gcircumflex" unicode="&#x11d;" horiz-adv-x="1394" 
d="M426 1286l188 225q10 13 25 13h84q15 0 25 -13l188 -225q8 -8 4 -16t-16 -8h-62q-15 0 -24 12l-156 190l-158 -190q-9 -12 -24 -12h-62q-12 0 -16 8t4 16zM846 -403h-596q-21 0 -21 20v41q0 20 21 20h596q206 0 278 84t72 289v139q-26 -103 -108 -146.5t-254 -43.5h-318
q-137 0 -220 25t-126 84q-44 59 -61 137t-17 209v247q0 127 17 204t61 136q43 59 126 84t220 25h318q171 0 253 -44.5t109 -145.5v169q0 21 21 21h40q21 0 21 -21v-1079q0 -229 -90 -342q-87 -112 -342 -112zM516 82h338q100 0 157.5 14t100.5 51q84 73 84 308v247
q0 120 -20 193t-66 109q-43 37 -101 51t-155 14h-338q-210 0 -276 -72t-66 -295v-247q0 -233 64 -303t278 -70z" />
    <glyph glyph-name="Gbreve" unicode="&#x11e;" horiz-adv-x="1615" 
d="M575 1767v29q0 21 21 21h41q20 0 20 -21v-29q0 -78 33 -107.5t121 -29.5q90 0 121 27.5t31 105.5v33q0 21 20 21h41q20 0 20 -21v-33q0 -118 -56 -166.5t-177 -48.5q-119 0 -177.5 52t-58.5 167zM1028 0h-457q-269 0 -376 119q-109 121 -109 379v448q0 258 109 379
t376 121h457q265 0 373 -111q109 -109 112 -356q0 -21 -20 -21h-41q-20 0 -20 21q-3 219 -91 301q-90 84 -313 84h-457q-226 0 -315 -92q-88 -88 -88 -326v-448q0 -235 88 -326q90 -90 315 -90h457q225 0 315 90q89 92 89 326v108h-586q-21 0 -21 21v41q0 20 21 20h647
q20 0 20 -20v-170q0 -259 -108 -379q-107 -119 -377 -119z" />
    <glyph glyph-name="gbreve" unicode="&#x11f;" horiz-adv-x="1394" 
d="M444 1473v28q0 21 21 21h41q20 0 20 -21v-28q0 -78 33 -108t121 -30q90 0 120.5 27t30.5 106v33q0 21 21 21h41q20 0 20 -21v-33q0 -118 -56 -166.5t-177 -48.5q-119 0 -177.5 52.5t-58.5 167.5zM846 -403h-596q-21 0 -21 20v41q0 20 21 20h596q206 0 278 84t72 289v139
q-26 -103 -108 -146.5t-254 -43.5h-318q-137 0 -220 25t-126 84q-44 59 -61 137t-17 209v247q0 127 17 204t61 136q43 59 126 84t220 25h318q171 0 253 -44.5t109 -145.5v169q0 21 21 21h40q21 0 21 -21v-1079q0 -229 -90 -342q-87 -112 -342 -112zM516 82h338
q100 0 157.5 14t100.5 51q84 73 84 308v247q0 120 -20 193t-66 109q-43 37 -101 51t-155 14h-338q-210 0 -276 -72t-66 -295v-247q0 -233 64 -303t278 -70z" />
    <glyph glyph-name="Gdotaccent" unicode="&#x120;" horiz-adv-x="1615" 
d="M831 1552h-40q-21 0 -21 21v221q0 21 21 21h40q21 0 21 -21v-221q0 -21 -21 -21zM1028 0h-457q-269 0 -376 119q-109 121 -109 379v448q0 258 109 379t376 121h457q265 0 373 -111q109 -109 112 -356q0 -21 -20 -21h-41q-20 0 -20 21q-3 219 -91 301q-90 84 -313 84h-457
q-226 0 -315 -92q-88 -88 -88 -326v-448q0 -235 88 -326q90 -90 315 -90h457q225 0 315 90q89 92 89 326v108h-586q-21 0 -21 21v41q0 20 21 20h647q20 0 20 -20v-170q0 -259 -108 -379q-107 -119 -377 -119z" />
    <glyph glyph-name="gdotaccent" unicode="&#x121;" horiz-adv-x="1394" 
d="M702 1266h-40q-21 0 -21 20v221q0 21 21 21h40q21 0 21 -21v-221q0 -20 -21 -20zM846 -403h-596q-21 0 -21 20v41q0 20 21 20h596q206 0 278 84t72 289v139q-26 -103 -108 -146.5t-254 -43.5h-318q-137 0 -220 25t-126 84q-44 59 -61 137t-17 209v247q0 127 17 204
t61 136q43 59 126 84t220 25h318q171 0 253 -44.5t109 -145.5v169q0 21 21 21h40q21 0 21 -21v-1079q0 -229 -90 -342q-87 -112 -342 -112zM516 82h338q100 0 157.5 14t100.5 51q84 73 84 308v247q0 120 -20 193t-66 109q-43 37 -101 51t-155 14h-338q-210 0 -276 -72
t-66 -295v-247q0 -233 64 -303t278 -70z" />
    <glyph glyph-name="Gcommaaccent" unicode="&#x122;" horiz-adv-x="1615" 
d="M1028 0h-457q-269 0 -376 119q-109 121 -109 379v448q0 258 109 379t376 121h457q265 0 373 -111q109 -109 112 -356q0 -21 -20 -21h-41q-20 0 -20 21q-3 219 -91 301q-90 84 -313 84h-457q-226 0 -315 -92q-88 -88 -88 -326v-448q0 -235 88 -326q90 -90 315 -90h457
q225 0 315 90q89 92 89 326v108h-586q-21 0 -21 21v41q0 20 21 20h647q20 0 20 -20v-170q0 -259 -108 -379q-107 -119 -377 -119zM793 -403h-25q-22 0 -16 22l59 248q3 18 23 18h61q25 0 16 -24l-96 -248q-6 -16 -22 -16z" />
    <glyph glyph-name="gcommaaccent" unicode="&#x123;" horiz-adv-x="1394" 
d="M764 1550h24q23 0 17 -22l-60 -248q-3 -18 -22 -18h-61q-26 0 -17 24l96 248q6 16 23 16zM846 -403h-596q-21 0 -21 20v41q0 20 21 20h596q206 0 278 84t72 289v139q-26 -103 -108 -146.5t-254 -43.5h-318q-137 0 -220 25t-126 84q-44 59 -61 137t-17 209v247
q0 127 17 204t61 136q43 59 126 84t220 25h318q171 0 253 -44.5t109 -145.5v169q0 21 21 21h40q21 0 21 -21v-1079q0 -229 -90 -342q-87 -112 -342 -112zM516 82h338q100 0 157.5 14t100.5 51q84 73 84 308v247q0 120 -20 193t-66 109q-43 37 -101 51t-155 14h-338
q-210 0 -276 -72t-66 -295v-247q0 -233 64 -303t278 -70z" />
    <glyph glyph-name="Hcircumflex" unicode="&#x124;" horiz-adv-x="1560" 
d="M545 1573l188 225q9 12 25 12h84q15 0 24 -12l189 -225q8 -7 3.5 -16t-16.5 -9h-61q-15 0 -25 13l-155 190l-158 -190q-10 -13 -25 -13h-61q-12 0 -16 9t4 16zM190 0h-40q-21 0 -21 20v1405q0 21 21 21h40q21 0 21 -21v-639h1139v639q0 21 20 21h41q21 0 21 -21v-1405
q0 -20 -21 -20h-41q-20 0 -20 20v685h-1139v-685q0 -20 -21 -20z" />
    <glyph glyph-name="hcircumflex" unicode="&#x125;" horiz-adv-x="1366" 
d="M844 1673l-156 191l-158 -191q-9 -12 -24 -12h-62q-12 0 -15.5 7.5t3.5 17.5l189 225q9 12 24 12h84q16 0 25 -12l188 -225q7 -10 3.5 -17.5t-15.5 -7.5h-62q-15 0 -24 12zM563 1151h277q137 0 220 -25t126 -84q44 -59 61 -137t17 -209v-678q0 -20 -21 -20h-41
q-20 0 -20 20v678q0 229 -66 301t-276 72h-297q-100 0 -157.5 -14t-100.5 -51q-84 -73 -84 -308v-676q0 -20 -21 -20h-41q-20 0 -20 20v1514q0 20 20 20h41q21 0 21 -20v-573q26 103 108 146.5t254 43.5z" />
    <glyph glyph-name="Hbar" unicode="&#x126;" horiz-adv-x="1609" 
d="M1452 1124h117q20 0 20 -20v-41q0 -21 -20 -21h-117v-1022q0 -20 -20 -20h-41q-21 0 -21 20v685h-1139v-685q0 -20 -20 -20h-41q-20 0 -20 20v1022h-109q-21 0 -21 21v41q0 20 21 20h109v301q0 21 20 21h41q20 0 20 -21v-301h1139v301q0 21 21 21h41q20 0 20 -21v-301z
M231 786h1139v256h-1139v-256z" />
    <glyph glyph-name="hbar" unicode="&#x127;" horiz-adv-x="1392" 
d="M590 1151h276q137 0 220 -25t126 -84q44 -59 61 -137t17 -209v-678q0 -20 -20 -20h-41q-21 0 -21 20v678q0 230 -65 301q-66 72 -277 72h-297q-100 0 -157.5 -14t-100.5 -51q-84 -73 -84 -308v-676q0 -20 -20 -20h-41q-21 0 -21 20v1278h-104q-21 0 -21 21v41q0 20 21 20
h104v154q0 20 21 20h41q20 0 20 -20v-154h484q20 0 20 -20v-41q0 -21 -20 -21h-484v-337q26 103 108.5 146.5t254.5 43.5z" />
    <glyph glyph-name="Itilde" unicode="&#x128;" horiz-adv-x="327" 
d="M-29 1585q-24 -15 -24 14v43q0 17 14 25q33 20 72 23q24 1 45.5 -2.5t32 -7t45.5 -15.5q27 -9 65 -25q20 -8 64 -1.5t82 30.5q24 18 24 -12v-45q0 -17 -14 -25q-49 -28 -94 -31q-7 -2 -22.5 0t-18.5 0.5t-16 1.5t-15 3t-15 4.5t-15.5 5t-18 6.5t-21.5 8q-58 24 -85 24.5
t-85 -24.5zM190 0h-40q-21 0 -21 20v1405q0 21 21 21h40q21 0 21 -21v-1405q0 -20 -21 -20z" />
    <glyph glyph-name="itilde" unicode="&#x129;" horiz-adv-x="315" 
d="M-39 1296q-24 -15 -24 13v45q0 16 14 24q41 19 76.5 22t58 -2.5t64.5 -21.5l67 -24q19 -8 65 -2t83 30q24 18 24 -12v-45q0 -17 -14 -25q-47 -27 -96 -30q-32 -1 -55 2t-36 7t-53 19q-59 22 -86 25q-28 3 -88 -25zM178 0h-41q-20 0 -20 20v1110q0 21 20 21h41
q21 0 21 -21v-1110q0 -20 -21 -20z" />
    <glyph glyph-name="Imacron" unicode="&#x12a;" horiz-adv-x="329" 
d="M344 1579h-358q-21 0 -21 20v41q0 21 21 21h358q21 0 21 -21v-41q0 -20 -21 -20zM190 0h-40q-21 0 -21 20v1405q0 21 21 21h40q21 0 21 -21v-1405q0 -20 -21 -20z" />
    <glyph glyph-name="imacron" unicode="&#x12b;" horiz-adv-x="315" 
d="M315 1282h-331q-21 0 -21 21v40q0 21 21 21h331q21 0 21 -21v-40q0 -21 -21 -21zM178 0h-41q-20 0 -20 20v1110q0 21 20 21h41q21 0 21 -21v-1110q0 -20 -21 -20z" />
    <glyph glyph-name="Ibreve" unicode="&#x12c;" horiz-adv-x="327" 
d="M-66 1769v29q0 21 21 21h41q20 0 20 -21v-29q0 -78 33 -107.5t121 -29.5q90 0 121 27.5t31 105.5v33q0 21 20 21h41q20 0 20 -21v-33q0 -118 -56 -166.5t-177 -48.5q-119 0 -177.5 52t-58.5 167zM190 0h-40q-21 0 -21 20v1405q0 21 21 21h40q21 0 21 -21v-1405
q0 -20 -21 -20z" />
    <glyph glyph-name="ibreve" unicode="&#x12d;" horiz-adv-x="315" 
d="M-78 1470v29q0 21 21 21h41q20 0 20 -21v-29q0 -78 33 -107.5t121 -29.5q90 0 120.5 27t30.5 106v33q0 21 21 21h41q20 0 20 -21v-33q0 -118 -56 -166.5t-177 -48.5q-119 0 -177.5 52t-58.5 167zM178 0h-41q-20 0 -20 20v1110q0 21 20 21h41q21 0 21 -21v-1110
q0 -20 -21 -20z" />
    <glyph glyph-name="Iogonek" unicode="&#x12e;" horiz-adv-x="327" 
d="M233 -336v-41q0 -20 -20 -20q-156 3 -213 63q-53 59 -53 189q0 173 182 188v1382q0 21 21 21h40q21 0 21 -21v-1405q0 -20 -21 -20q-95 -2 -128 -31t-33 -114q0 -97 36 -133t148 -37q20 0 20 -21z" />
    <glyph glyph-name="iogonek" unicode="&#x12f;" horiz-adv-x="315" 
d="M137 1554h41q21 0 21 -20v-236q0 -20 -21 -20h-41q-20 0 -20 20v236q0 20 20 20zM27 -145q0 -97 36 -133t148 -37q20 0 20 -21v-41q0 -20 -20 -20q-157 3 -211 63q-55 58 -55 189q0 167 172 188v1087q0 21 20 21h41q21 0 21 -21v-1110q0 -20 -25 -20q-86 -5 -116.5 -34.5
t-30.5 -110.5z" />
    <glyph glyph-name="Idot" unicode="&#x130;" horiz-adv-x="327" 
d="M178 1559h-41q-20 0 -20 20v221q0 21 20 21h41q21 0 21 -21v-221q0 -20 -21 -20zM190 0h-40q-21 0 -21 20v1405q0 21 21 21h40q21 0 21 -21v-1405q0 -20 -21 -20z" />
    <glyph glyph-name="dotlessi" unicode="&#x131;" horiz-adv-x="315" 
d="M178 0h-41q-20 0 -20 20v1110q0 21 20 21h41q21 0 21 -21v-1110q0 -20 -21 -20z" />
    <glyph glyph-name="Jcircumflex" unicode="&#x134;" horiz-adv-x="1529" 
d="M547 1577l188 225q10 13 25 13h84q14 0 24 -13l189 -225q8 -7 3.5 -16t-16.5 -9h-61q-15 0 -25 13l-155 190l-158 -190q-10 -13 -24 -13h-62q-12 0 -16 9t4 16zM942 0h-354q-270 0 -377 119q-109 121 -109 379v125q0 20 21 20h41q20 0 20 -20v-125q0 -235 88 -326
q90 -90 316 -90h354q225 0 315 90q89 92 89 326v927q0 21 20 21h41q20 0 20 -21v-927q0 -259 -108 -379q-107 -119 -377 -119z" />
    <glyph glyph-name="jcircumflex" unicode="&#x135;" horiz-adv-x="315" 
d="M-92 1278l188 225q10 13 25 13h84q14 0 24 -13l189 -225q8 -8 4 -16.5t-16 -8.5h-62q-15 0 -25 13l-155 190l-158 -190q-10 -13 -24 -13h-62q-12 0 -16 8.5t4 16.5zM182 -403h-41q-20 0 -20 20v1513q0 21 20 21h41q21 0 21 -21v-1513q0 -20 -21 -20z" />
    <glyph glyph-name="Kcommaaccent" unicode="&#x136;" horiz-adv-x="1484" 
d="M190 0h-40q-21 0 -21 20v1405q0 21 21 21h40q21 0 21 -21v-657h414l714 668q10 10 25 10h63q14 0 17.5 -7t-6.5 -18l-740 -694l740 -702q10 -11 6.5 -18t-17.5 -7h-61q-15 0 -25 10l-716 676h-414v-666q0 -20 -21 -20zM733 -403h-24q-23 0 -17 22l60 248q3 18 22 18h62
q25 0 16 -24l-96 -248q-6 -16 -23 -16z" />
    <glyph glyph-name="kcommaaccent" unicode="&#x137;" horiz-adv-x="1228" 
d="M190 0h-40q-21 0 -21 20v1514q0 20 21 20h40q21 0 21 -20v-918h332l561 525q10 10 24 10h64q14 0 17 -7.5t-7 -17.5l-586 -551l580 -550q10 -11 7 -18t-17 -7h-62q-14 0 -24 10l-557 525h-332v-515q0 -20 -21 -20zM545 -403h-25q-22 0 -16 22l59 248q3 18 23 18h61
q26 0 17 -24l-97 -248q-6 -16 -22 -16z" />
    <glyph glyph-name="kgreenlandic" unicode="&#x138;" horiz-adv-x="1228" 
d="M190 0h-40q-21 0 -21 20v1110q0 21 21 21h40q21 0 21 -21v-514h332l561 525q10 10 24 10h64q14 0 17 -7.5t-7 -17.5l-586 -551l580 -550q10 -11 7 -18t-17 -7h-62q-14 0 -24 10l-557 525h-332v-515q0 -20 -21 -20z" />
    <glyph glyph-name="Lacute" unicode="&#x139;" horiz-adv-x="1327" 
d="M193 1554h-25q-25 0 -16 25l92 219q7 17 22 17h60q30 0 14 -25l-123 -221q-9 -15 -24 -15zM1282 0h-1132q-21 0 -21 20v1405q0 21 21 21h40q21 0 21 -21v-1343h1071q21 0 21 -21v-41q0 -20 -21 -20z" />
    <glyph glyph-name="lacute" unicode="&#x13a;" horiz-adv-x="315" 
d="M178 1657h-24q-26 0 -17 24l92 220q6 16 23 16h59q14 0 18 -6.5t-3 -18.5l-123 -221q-6 -14 -25 -14zM178 0h-41q-20 0 -20 20v1514q0 20 20 20h41q21 0 21 -20v-1514q0 -20 -21 -20z" />
    <glyph glyph-name="Lcommaaccent" unicode="&#x13b;" horiz-adv-x="1327" 
d="M1282 0h-1132q-21 0 -21 20v1405q0 21 21 21h40q21 0 21 -21v-1343h1071q21 0 21 -21v-41q0 -20 -21 -20zM641 -403h-25q-22 0 -16 22l59 248q3 18 23 18h61q26 0 17 -24l-96 -248q-6 -16 -23 -16z" />
    <glyph glyph-name="lcommaaccent" unicode="&#x13c;" horiz-adv-x="567" 
d="M178 0h-41q-20 0 -20 20v1514q0 20 20 20h41q21 0 21 -20v-1514q0 -20 -21 -20zM223 -403h-24q-23 0 -17 22l60 248q3 18 22 18h62q25 0 16 -24l-96 -248q-6 -16 -23 -16z" />
    <glyph glyph-name="Lcaron" unicode="&#x13d;" horiz-adv-x="1327" 
d="M1282 0h-1132q-21 0 -21 20v1405q0 21 21 21h40q21 0 21 -21v-1343h1071q21 0 21 -21v-41q0 -20 -21 -20zM721 723h-25q-24 0 -18 22l176 623q6 16 23 16h61q22 0 16 -22l-209 -623q-6 -16 -24 -16z" />
    <glyph glyph-name="lcaron" unicode="&#x13e;" horiz-adv-x="507" 
d="M178 0h-41q-20 0 -20 20v1514q0 20 20 20h41q21 0 21 -20v-1514q0 -20 -21 -20zM319 782h-24q-26 0 -19 23l177 622q7 17 22 17h62q23 0 16 -23l-209 -622q-7 -17 -25 -17z" />
    <glyph glyph-name="Ldot" unicode="&#x13f;" horiz-adv-x="1327" 
d="M1282 0h-1132q-21 0 -21 20v1405q0 21 21 21h40q21 0 21 -21v-1343h1071q21 0 21 -21v-41q0 -20 -21 -20zM813 653h-41q-20 0 -20 21v256q0 20 20 20h41q21 0 21 -20v-256q0 -21 -21 -21z" />
    <glyph glyph-name="ldot" unicode="&#x140;" horiz-adv-x="958" 
d="M178 0h-41q-20 0 -20 20v1514q0 20 20 20h41q21 0 21 -20v-1514q0 -20 -21 -20zM637 442h-41q-21 0 -21 21v256q0 20 21 20h41q20 0 20 -20v-256q0 -21 -20 -21z" />
    <glyph glyph-name="Lslash" unicode="&#x141;" horiz-adv-x="1341" 
d="M225 547v-465h1071q21 0 21 -21v-41q0 -20 -21 -20h-1132q-21 0 -21 20v498l-116 -39q-10 -3 -16.5 1.5t-6.5 15.5v43q0 18 16 24l123 41v821q0 21 21 21h41q20 0 20 -21v-792l568 190q22 6 22 -16v-43q0 -19 -16 -25z" />
    <glyph glyph-name="lslash" unicode="&#x142;" horiz-adv-x="327" 
d="M205 754l90 28q22 6 22 -16v-39q0 -19 -16 -25l-96 -30v-652q0 -20 -21 -20h-41q-20 0 -20 20v623l-90 -29q-10 -3 -16.5 1.5t-6.5 15.5v39q0 17 17 24l96 31v809q0 20 20 20h41q21 0 21 -20v-780z" />
    <glyph glyph-name="Nacute" unicode="&#x143;" horiz-adv-x="1576" 
d="M795 1552h-25q-25 0 -16 25l92 219q6 16 22 16h60q29 0 14 -24l-123 -221q-9 -15 -24 -15zM190 0h-40q-21 0 -21 20v1405q0 21 21 21h59q15 0 24 -12l1133 -1338v1329q0 21 20 21h41q21 0 21 -21v-1405q0 -20 -21 -20h-67q-16 0 -25 12l-1124 1327v-1319q0 -20 -21 -20z
" />
    <glyph glyph-name="nacute" unicode="&#x144;" horiz-adv-x="1363" 
d="M817 1518h60q30 0 14 -25l-123 -221q-6 -15 -25 -15h-24q-26 0 -17 25l93 219q7 17 22 17zM561 1151h277q137 0 220 -25t126 -84q44 -59 61 -137t17 -209v-678q0 -20 -21 -20h-41q-20 0 -20 20v678q0 229 -66 301t-276 72h-297q-100 0 -157.5 -14t-100.5 -51
q-84 -73 -84 -308v-676q0 -20 -21 -20h-41q-20 0 -20 20v1110q0 21 20 21h41q21 0 21 -21v-169q26 103 108 146.5t254 43.5z" />
    <glyph glyph-name="Ncommaaccent" unicode="&#x145;" horiz-adv-x="1576" 
d="M190 0h-40q-21 0 -21 20v1405q0 21 21 21h59q15 0 24 -12l1133 -1338v1329q0 21 20 21h41q21 0 21 -21v-1405q0 -20 -21 -20h-67q-16 0 -25 12l-1124 1327v-1319q0 -20 -21 -20zM700 -403h-24q-23 0 -17 22l60 248q3 18 22 18h62q25 0 16 -24l-96 -248q-6 -16 -23 -16z
" />
    <glyph glyph-name="ncommaaccent" unicode="&#x146;" horiz-adv-x="1363" 
d="M561 1151h277q137 0 220 -25t126 -84q44 -59 61 -137t17 -209v-678q0 -20 -21 -20h-41q-20 0 -20 20v678q0 229 -66 301t-276 72h-297q-100 0 -157.5 -14t-100.5 -51q-84 -73 -84 -308v-676q0 -20 -21 -20h-41q-20 0 -20 20v1110q0 21 20 21h41q21 0 21 -21v-169
q26 103 108 146.5t254 43.5zM621 -403h-25q-22 0 -16 22l59 248q3 18 23 18h61q25 0 16 -24l-96 -248q-6 -16 -22 -16z" />
    <glyph glyph-name="Ncaron" unicode="&#x147;" horiz-adv-x="1576" 
d="M829 1552h-84q-14 0 -24 13l-189 225q-8 8 -3.5 16.5t16.5 8.5h61q15 0 25 -13l157 -190l156 190q10 13 25 13h61q12 0 16 -8.5t-4 -16.5l-188 -225q-10 -13 -25 -13zM190 0h-40q-21 0 -21 20v1405q0 21 21 21h59q15 0 24 -12l1133 -1338v1329q0 21 20 21h41q21 0 21 -21
v-1405q0 -20 -21 -20h-67q-16 0 -25 12l-1124 1327v-1319q0 -20 -21 -20z" />
    <glyph glyph-name="ncaron" unicode="&#x148;" horiz-adv-x="1363" 
d="M950 1493l-188 -225q-10 -13 -25 -13h-84q-14 0 -24 13l-189 225q-7 11 -3 18t16 7h61q15 0 25 -13l157 -190l156 190q10 13 25 13h61q12 0 15.5 -7t-3.5 -18zM561 1151h277q137 0 220 -25t126 -84q44 -59 61 -137t17 -209v-678q0 -20 -21 -20h-41q-20 0 -20 20v678
q0 229 -66 301t-276 72h-297q-100 0 -157.5 -14t-100.5 -51q-84 -73 -84 -308v-676q0 -20 -21 -20h-41q-20 0 -20 20v1110q0 21 20 21h41q21 0 21 -21v-169q26 103 108 146.5t254 43.5z" />
    <glyph glyph-name="Eng" unicode="&#x14a;" horiz-adv-x="1536" 
d="M922 -403h-379q-21 0 -21 20v41q0 20 21 20h379q356 0 397 302l-1108 1359v-1319q0 -20 -21 -20h-40q-21 0 -21 20v1405q0 21 21 21h59q15 0 24 -12l1092 -1338v1329q0 21 21 21h40q21 0 21 -21v-1357q0 -228 -123 -349.5t-362 -121.5z" />
    <glyph glyph-name="eng" unicode="&#x14b;" horiz-adv-x="1366" 
d="M563 1151h277q137 0 220 -25t126 -84q44 -59 61 -137t17 -209v-1079q0 -20 -21 -20h-41q-20 0 -20 20v1079q0 229 -66 301t-276 72h-297q-100 0 -157.5 -14t-100.5 -51q-84 -73 -84 -308v-676q0 -20 -21 -20h-41q-20 0 -20 20v1110q0 21 20 21h41q21 0 21 -21v-169
q26 103 108 146.5t254 43.5z" />
    <glyph glyph-name="Omacron" unicode="&#x14c;" 
d="M1112 1581h-551q-20 0 -20 21v40q0 21 20 21h551q21 0 21 -21v-40q0 -21 -21 -21zM1085 0h-497q-270 0 -377 119q-109 121 -109 379v448q0 258 109 379t377 121h497q268 0 377 -121t109 -379v-448q0 -258 -109 -379q-107 -119 -377 -119zM588 82h497q226 0 316 90
q88 91 88 326v448q0 238 -88 326q-89 92 -316 92h-497q-227 0 -316 -92q-88 -88 -88 -326v-448q0 -235 88 -326q90 -90 316 -90z" />
    <glyph glyph-name="omacron" unicode="&#x14d;" horiz-adv-x="1372" 
d="M954 1280h-551q-20 0 -20 20v41q0 21 20 21h551q21 0 21 -21v-41q0 -20 -21 -20zM856 0h-340q-137 0 -220 25t-126 84q-44 59 -61 137t-17 209v247q0 127 17 204t61 136q43 59 126 84t220 25h340q137 0 220 -25t126 -84q44 -59 61 -136t17 -204v-247q0 -131 -17 -209
t-61 -137q-43 -59 -126 -84t-220 -25zM516 82h340q213 0 277 70q65 71 65 303v247q0 224 -65 295q-66 72 -277 72h-340q-210 0 -276 -72t-66 -295v-247q0 -233 64 -303t278 -70z" />
    <glyph glyph-name="Obreve" unicode="&#x14e;" 
d="M602 1774v28q0 21 21 21h41q20 0 20 -21v-28q0 -78 33 -108t121 -30q90 0 120.5 27t30.5 106v33q0 21 21 21h41q20 0 20 -21v-33q0 -118 -56 -166.5t-177 -48.5q-119 0 -177.5 52.5t-58.5 167.5zM1085 0h-497q-270 0 -377 119q-109 121 -109 379v448q0 258 109 379
t377 121h497q268 0 377 -121t109 -379v-448q0 -258 -109 -379q-107 -119 -377 -119zM588 82h497q226 0 316 90q88 91 88 326v448q0 238 -88 326q-89 92 -316 92h-497q-227 0 -316 -92q-88 -88 -88 -326v-448q0 -235 88 -326q90 -90 316 -90z" />
    <glyph glyph-name="obreve" unicode="&#x14f;" horiz-adv-x="1372" 
d="M444 1473v28q0 21 21 21h41q20 0 20 -21v-28q0 -78 33 -108t121 -30q90 0 120.5 27t30.5 106v33q0 21 21 21h41q20 0 20 -21v-33q0 -118 -56 -166.5t-177 -48.5q-119 0 -177.5 52.5t-58.5 167.5zM856 0h-340q-137 0 -220 25t-126 84q-44 59 -61 137t-17 209v247
q0 127 17 204t61 136q43 59 126 84t220 25h340q137 0 220 -25t126 -84q44 -59 61 -136t17 -204v-247q0 -131 -17 -209t-61 -137q-43 -59 -126 -84t-220 -25zM516 82h340q213 0 277 70q65 71 65 303v247q0 224 -65 295q-66 72 -277 72h-340q-210 0 -276 -72t-66 -295v-247
q0 -233 64 -303t278 -70z" />
    <glyph glyph-name="Ohungarumlaut" unicode="&#x150;" 
d="M713 1552h-25q-25 0 -16 25l90 219q6 16 22 16h60q29 0 14 -24l-121 -221q-6 -15 -24 -15zM1012 1552h-25q-25 0 -16 25l90 219q6 16 22 16h60q29 0 14 -24l-121 -221q-6 -15 -24 -15zM1085 0h-497q-270 0 -377 119q-109 121 -109 379v448q0 258 109 379t377 121h497
q268 0 377 -121t109 -379v-448q0 -258 -109 -379q-107 -119 -377 -119zM588 82h497q226 0 316 90q88 91 88 326v448q0 238 -88 326q-89 92 -316 92h-497q-227 0 -316 -92q-88 -88 -88 -326v-448q0 -235 88 -326q90 -90 316 -90z" />
    <glyph glyph-name="ohungarumlaut" unicode="&#x151;" horiz-adv-x="1372" 
d="M498 1255h-25q-25 0 -16 25l90 219q7 17 22 17h60q30 0 14 -25l-121 -221q-6 -15 -24 -15zM797 1255h-25q-25 0 -16 25l90 219q7 17 22 17h60q30 0 14 -25l-121 -221q-6 -15 -24 -15zM856 0h-340q-137 0 -220 25t-126 84q-44 59 -61 137t-17 209v247q0 127 17 204t61 136
q43 59 126 84t220 25h340q137 0 220 -25t126 -84q44 -59 61 -136t17 -204v-247q0 -131 -17 -209t-61 -137q-43 -59 -126 -84t-220 -25zM516 82h340q213 0 277 70q65 71 65 303v247q0 224 -65 295q-66 72 -277 72h-340q-210 0 -276 -72t-66 -295v-247q0 -233 64 -303t278 -70
z" />
    <glyph glyph-name="OE" unicode="&#x152;" horiz-adv-x="2764" 
d="M1065 0h-477q-270 0 -377 119q-109 121 -109 379v448q0 258 109 379t377 121h477q168 0 263 -46.5t138 -146.5v172q0 21 21 21h1182q20 0 20 -21v-41q0 -20 -20 -20h-1121v-578h807q21 0 21 -20v-41q0 -20 -21 -20h-807v-623h1121q20 0 20 -21v-41q0 -20 -20 -20h-1182
q-21 0 -21 20v170q-82 -190 -401 -190zM588 82h477q215 0 308 78t93 266v592q0 189 -92.5 267.5t-308.5 78.5h-477q-227 0 -316 -92q-88 -88 -88 -326v-448q0 -235 88 -326q90 -90 316 -90z" />
    <glyph glyph-name="oe" unicode="&#x153;" horiz-adv-x="2406" 
d="M2335 702v-167q0 -21 -21 -21h-1034v-59q0 -234 63 -303q64 -70 279 -70h600q21 0 21 -21v-41q0 -20 -21 -20h-600q-181 0 -267 48.5t-116 162.5q-30 -114 -116 -162.5t-267 -48.5h-340q-137 0 -220 25t-126 84q-44 59 -61 137t-17 209v247q0 127 17 204t61 136
q43 59 126 84t220 25h340q180 0 266.5 -48.5t116.5 -160.5q30 112 116.5 160.5t266.5 48.5h289q137 0 220 -25t126 -84q44 -59 61 -136t17 -204zM1198 455v247q0 224 -65 295q-66 72 -277 72h-340q-210 0 -276 -72t-66 -295v-247q0 -233 64 -303t278 -70h340q213 0 277 70
q65 71 65 303zM1280 702v-106h973v106q0 223 -66 295t-276 72h-289q-210 0 -276 -72t-66 -295z" />
    <glyph glyph-name="Racute" unicode="&#x154;" horiz-adv-x="1540" 
d="M836 1817h59q30 0 14 -25l-123 -221q-9 -15 -24 -15h-25q-25 0 -16 25l92 219q7 17 23 17zM1458 977v-12q0 -220 -82 -324q-80 -103 -293 -127l344 -489q8 -7 4 -16t-16 -9h-53q-16 0 -25 12l-348 494q-20 -2 -94 -2h-684v-484q0 -20 -21 -20h-40q-21 0 -21 20v1405
q0 21 21 21h745q324 0 444 -105q119 -104 119 -364zM211 586h684q291 0 385 76q96 78 96 303v12q0 233 -98 309q-96 78 -383 78h-684v-778z" />
    <glyph glyph-name="racute" unicode="&#x155;" horiz-adv-x="843" 
d="M604 1518h60q30 0 14 -25l-123 -221q-6 -15 -25 -15h-24q-26 0 -17 25l93 219q7 17 22 17zM561 1151h242q20 0 20 -21v-40q0 -21 -20 -21h-262q-100 0 -157.5 -14t-100.5 -51q-84 -73 -84 -308v-676q0 -20 -21 -20h-41q-20 0 -20 20v1110q0 21 20 21h41q21 0 21 -21v-169
q26 103 108 146.5t254 43.5z" />
    <glyph glyph-name="Rcommaaccent" unicode="&#x156;" horiz-adv-x="1540" 
d="M1458 977v-12q0 -220 -82 -324q-80 -103 -293 -127l344 -489q8 -7 4 -16t-16 -9h-53q-16 0 -25 12l-348 494q-20 -2 -94 -2h-684v-484q0 -20 -21 -20h-40q-21 0 -21 20v1405q0 21 21 21h745q324 0 444 -105q119 -104 119 -364zM211 586h684q291 0 385 76q96 78 96 303v12
q0 233 -98 309q-96 78 -383 78h-684v-778zM733 -403h-24q-23 0 -17 22l60 248q3 18 22 18h62q25 0 16 -24l-96 -248q-6 -16 -23 -16z" />
    <glyph glyph-name="rcommaaccent" unicode="&#x157;" horiz-adv-x="843" 
d="M561 1151h242q20 0 20 -21v-40q0 -21 -20 -21h-262q-100 0 -157.5 -14t-100.5 -51q-84 -73 -84 -308v-676q0 -20 -21 -20h-41q-20 0 -20 20v1110q0 21 20 21h41q21 0 21 -21v-169q26 103 108 146.5t254 43.5zM219 -403h-24q-23 0 -17 22l60 248q3 18 22 18h62
q25 0 16 -24l-96 -248q-6 -16 -23 -16z" />
    <glyph glyph-name="Rcaron" unicode="&#x158;" horiz-adv-x="1540" 
d="M993 1788l-188 -225q-10 -13 -25 -13h-84q-14 0 -24 13l-189 225q-7 10 -3 17t16 7h61q16 0 25 -12l157 -190l156 190q9 12 25 12h61q12 0 15.5 -7t-3.5 -17zM1458 977v-12q0 -220 -82 -324q-80 -103 -293 -127l344 -489q8 -7 4 -16t-16 -9h-53q-16 0 -25 12l-348 494
q-20 -2 -94 -2h-684v-484q0 -20 -21 -20h-40q-21 0 -21 20v1405q0 21 21 21h745q324 0 444 -105q119 -104 119 -364zM211 586h684q291 0 385 76q96 78 96 303v12q0 233 -98 309q-96 78 -383 78h-684v-778z" />
    <glyph glyph-name="rcaron" unicode="&#x159;" horiz-adv-x="843" 
d="M754 1495l-189 -225q-10 -13 -24 -13h-84q-15 0 -25 13l-188 225q-8 7 -4 16t16 9h61q15 0 25 -13l158 -190l155 190q10 13 25 13h61q12 0 16.5 -9t-3.5 -16zM561 1151h242q20 0 20 -21v-40q0 -21 -20 -21h-262q-100 0 -157.5 -14t-100.5 -51q-84 -73 -84 -308v-676
q0 -20 -21 -20h-41q-20 0 -20 20v1110q0 21 20 21h41q21 0 21 -21v-169q26 103 108 146.5t254 43.5z" />
    <glyph glyph-name="Sacute" unicode="&#x15a;" horiz-adv-x="1529" 
d="M764 1550h-25q-25 0 -16 25l92 219q6 16 23 16h59q29 0 14 -24l-123 -221q-6 -15 -24 -15zM942 0h-375q-270 0 -377 104q-105 108 -108 363q0 20 20 20h41q21 0 21 -20q3 -225 86 -305q86 -80 317 -80h375q248 0 334 63q90 66 90 242q0 155 -82 207q-83 56 -299 74
l-438 37q-251 21 -354 92q-101 73 -101 264q0 207 111 295q113 90 395 90h344q271 0 375 -107q107 -104 110 -360q0 -21 -20 -21h-41q-20 0 -20 21q-3 225 -89 305q-83 80 -315 80h-344q-248 0 -336 -64t-88 -239q0 -153 78 -207q80 -50 301 -68l438 -36q248 -21 352 -97
q105 -77 105 -266q0 -211 -111 -299q-110 -88 -395 -88z" />
    <glyph glyph-name="sacute" unicode="&#x15b;" horiz-adv-x="1239" 
d="M657 1255h-24q-26 0 -17 25l93 219q7 17 22 17h60q30 0 14 -25l-123 -221q-6 -15 -25 -15zM748 0h-621q-21 0 -21 20v41q0 21 21 21h621q208 0 276 45q72 47 72 162q0 118 -58 164q-56 47 -235 65l-381 37q-199 21 -270 86q-70 64 -70 215q0 155 97 225t315 70h602
q20 0 20 -21v-40q0 -21 -20 -21h-602q-186 0 -258 -48t-72 -165q0 -114 49 -160q53 -44 217 -59l381 -37q217 -21 291 -92q76 -70 76 -219q0 -158 -97.5 -223.5t-332.5 -65.5z" />
    <glyph glyph-name="Scircumflex" unicode="&#x15c;" horiz-adv-x="1529" 
d="M500 1573l188 225q9 12 25 12h84q15 0 24 -12l189 -225q8 -7 3.5 -16t-16.5 -9h-61q-15 0 -25 13l-155 190l-158 -190q-10 -13 -25 -13h-61q-12 0 -16 9t4 16zM942 0h-375q-270 0 -377 104q-105 108 -108 363q0 20 20 20h41q21 0 21 -20q3 -225 86 -305q86 -80 317 -80
h375q248 0 334 63q90 66 90 242q0 155 -82 207q-83 56 -299 74l-438 37q-251 21 -354 92q-101 73 -101 264q0 207 111 295q113 90 395 90h344q271 0 375 -107q107 -104 110 -360q0 -21 -20 -21h-41q-20 0 -20 21q-3 225 -89 305q-83 80 -315 80h-344q-248 0 -336 -64
t-88 -239q0 -153 78 -207q80 -50 301 -68l438 -36q248 -21 352 -97q105 -77 105 -266q0 -211 -111 -299q-110 -88 -395 -88z" />
    <glyph glyph-name="scircumflex" unicode="&#x15d;" horiz-adv-x="1239" 
d="M373 1278l188 225q10 13 25 13h84q14 0 24 -13l189 -225q8 -8 3.5 -16.5t-16.5 -8.5h-61q-15 0 -25 13l-155 190l-158 -190q-10 -13 -25 -13h-61q-12 0 -16 8.5t4 16.5zM748 0h-621q-21 0 -21 20v41q0 21 21 21h621q208 0 276 45q72 47 72 162q0 118 -58 164
q-56 47 -235 65l-381 37q-199 21 -270 86q-70 64 -70 215q0 155 97 225t315 70h602q20 0 20 -21v-40q0 -21 -20 -21h-602q-186 0 -258 -48t-72 -165q0 -114 49 -160q53 -44 217 -59l381 -37q217 -21 291 -92q76 -70 76 -219q0 -158 -97.5 -223.5t-332.5 -65.5z" />
    <glyph glyph-name="Scedilla" unicode="&#x15e;" horiz-adv-x="1529" 
d="M553 786l438 -36q248 -21 352 -97q105 -77 105 -266q0 -211 -111 -299q-110 -88 -395 -88h-135l-86 -354q-3 -19 -23 -19h-61q-23 0 -16 23l118 350h-172q-270 0 -377 104q-105 108 -108 363q0 20 20 20h41q21 0 21 -20q3 -225 86 -305q86 -80 317 -80h375q248 0 334 63
q90 66 90 242q0 155 -82 207q-83 56 -299 74l-438 37q-251 21 -354 92q-101 73 -101 264q0 207 111 295q113 90 395 90h344q271 0 375 -107q107 -104 110 -360q0 -21 -20 -21h-41q-20 0 -20 21q-3 225 -89 305q-83 80 -315 80h-344q-248 0 -336 -64t-88 -239q0 -153 78 -207
q80 -50 301 -68z" />
    <glyph glyph-name="scedilla" unicode="&#x15f;" horiz-adv-x="1239" 
d="M430 637l381 -37q217 -21 291 -92q76 -70 76 -219q0 -158 -97.5 -223.5t-332.5 -65.5h-89l-86 -354q-3 -19 -22 -19h-62q-23 0 -16 23l119 350h-465q-21 0 -21 20v41q0 21 21 21h621q208 0 276 45q72 47 72 162q0 118 -58 164q-56 47 -235 65l-381 37q-199 21 -270 86
q-70 64 -70 215q0 155 97 225t315 70h602q20 0 20 -21v-40q0 -21 -20 -21h-602q-186 0 -258 -48t-72 -165q0 -114 49 -160q53 -44 217 -59z" />
    <glyph glyph-name="Scaron" unicode="&#x160;" horiz-adv-x="1529" 
d="M786 1550h-84q-14 0 -24 13l-189 225q-7 10 -3 17t16 7h61q16 0 25 -12l157 -190l156 190q9 12 25 12h61q12 0 15.5 -7t-3.5 -17l-188 -225q-10 -13 -25 -13zM942 0h-375q-270 0 -377 104q-105 108 -108 363q0 20 20 20h41q21 0 21 -20q3 -225 86 -305q86 -80 317 -80
h375q248 0 334 63q90 66 90 242q0 155 -82 207q-83 56 -299 74l-438 37q-251 21 -354 92q-101 73 -101 264q0 207 111 295q113 90 395 90h344q271 0 375 -107q107 -104 110 -360q0 -21 -20 -21h-41q-20 0 -20 21q-3 225 -89 305q-83 80 -315 80h-344q-248 0 -336 -64
t-88 -239q0 -153 78 -207q80 -50 301 -68l438 -36q248 -21 352 -97q105 -77 105 -266q0 -211 -111 -299q-110 -88 -395 -88z" />
    <glyph glyph-name="scaron" unicode="&#x161;" horiz-adv-x="1239" 
d="M668 1255h-84q-15 0 -25 13l-188 225q-7 11 -3.5 18t15.5 7h61q15 0 25 -13l158 -190l155 190q10 13 25 13h61q12 0 16 -7t-3 -18l-189 -225q-10 -13 -24 -13zM748 0h-621q-21 0 -21 20v41q0 21 21 21h621q208 0 276 45q72 47 72 162q0 118 -58 164q-56 47 -235 65
l-381 37q-199 21 -270 86q-70 64 -70 215q0 155 97 225t315 70h602q20 0 20 -21v-40q0 -21 -20 -21h-602q-186 0 -258 -48t-72 -165q0 -114 49 -160q53 -44 217 -59l381 -37q217 -21 291 -92q76 -70 76 -219q0 -158 -97.5 -223.5t-332.5 -65.5z" />
    <glyph glyph-name="uni0162" unicode="&#x162;" horiz-adv-x="933" 
d="M692 0h-41q-20 0 -20 20v1344h-576q-20 0 -20 20v41q0 21 20 21h1231q21 0 21 -21v-41q0 -20 -21 -20h-573v-1344q0 -20 -21 -20zM600 -403h-25q-22 0 -16 22l59 248q3 18 23 18h61q26 0 17 -24l-96 -248q-6 -16 -23 -16z" />
    <glyph glyph-name="uni0163" unicode="&#x163;" horiz-adv-x="950" 
d="M868 0h-182q-266 0 -360 102q-95 103 -95 332v635h-190q-21 0 -21 21v40q0 21 21 21h88q28 1 58 12.5t38 22.5q11 14 19 49q10 51 10 188q0 23 20 23h19q20 0 20 -21v-274h555q21 0 21 -21v-40q0 -21 -21 -21h-555v-635q0 -205 76 -278q77 -74 297 -74h182q21 0 21 -21
v-41q0 -20 -21 -20zM561 -403h-24q-23 0 -17 22l60 248q3 18 22 18h62q25 0 16 -24l-96 -248q-6 -16 -23 -16z" />
    <glyph glyph-name="Tcaron" unicode="&#x164;" horiz-adv-x="1341" 
d="M713 1548h-84q-15 0 -25 13l-188 225q-8 8 -4 16t16 8h61q16 0 25 -12l158 -190l155 190q9 12 25 12h61q12 0 16.5 -8t-3.5 -16l-189 -225q-10 -13 -24 -13zM692 0h-41q-20 0 -20 20v1344h-576q-20 0 -20 20v41q0 21 20 21h1231q21 0 21 -21v-41q0 -20 -21 -20h-573
v-1344q0 -20 -21 -20z" />
    <glyph glyph-name="tcaron" unicode="&#x165;" horiz-adv-x="980" 
d="M793 1264h-25q-22 0 -16 22l59 248q3 18 23 18h61q25 0 16 -24l-96 -248q-6 -16 -22 -16zM868 0h-182q-266 0 -360 102q-95 103 -95 332v635h-190q-21 0 -21 21v40q0 21 21 21h88q28 1 58 12.5t38 22.5q11 14 19 49q10 51 10 188q0 23 20 23h19q20 0 20 -21v-274h555
q21 0 21 -21v-40q0 -21 -21 -21h-555v-635q0 -205 76 -278q77 -74 297 -74h182q21 0 21 -21v-41q0 -20 -21 -20z" />
    <glyph glyph-name="Tbar" unicode="&#x166;" horiz-adv-x="1343" 
d="M1309 1425v-41q0 -20 -21 -20h-573v-578h350q20 0 20 -20v-41q0 -20 -20 -20h-350v-685q0 -20 -21 -20h-41q-20 0 -20 20v685h-352q-21 0 -21 20v41q0 20 21 20h352v578h-576q-20 0 -20 20v41q0 21 20 21h1231q21 0 21 -21z" />
    <glyph glyph-name="tbar" unicode="&#x167;" horiz-adv-x="950" 
d="M889 1130v-40q0 -21 -21 -21h-555v-403h420q21 0 21 -21v-35q0 -20 -21 -20h-420v-156q0 -205 76 -278q77 -74 297 -74h182q21 0 21 -21v-41q0 -20 -21 -20h-182q-266 0 -360 102q-95 103 -95 332v156h-143q-20 0 -20 20v35q0 21 20 21h143v403h-190q-21 0 -21 21v40
q0 21 21 21h88q28 1 58 12.5t38 22.5q11 14 19 49q10 51 10 188q0 23 20 23h19q20 0 20 -21v-274h555q21 0 21 -21z" />
    <glyph glyph-name="Utilde" unicode="&#x168;" horiz-adv-x="1660" 
d="M530 1587q-24 -9 -24 15v47q0 16 16 22q49 20 109 23q62 3 88 -2q31 -5 92 -21l100 -22q30 -9 97.5 -1.5t121.5 33.5q25 9 25 -14v-49q0 -17 -16 -23q-146 -62 -348 -4q-88 22 -129 25q-39 3 -132 -29zM1038 0h-415q-270 0 -377 119q-109 121 -109 379v927q0 21 21 21h41
q20 0 20 -21v-927q0 -235 88 -326q90 -90 316 -90h415q226 0 316 90q88 91 88 326v927q0 21 20 21h41q21 0 21 -21v-927q0 -258 -109 -379q-107 -119 -377 -119z" />
    <glyph glyph-name="utilde" unicode="&#x169;" horiz-adv-x="1357" 
d="M649 1294q-88 22 -129 25q-38 3 -131 -29q-24 -9 -24 15v47q0 16 16 22q50 20 108 23q63 3 89 -2q31 -5 92 -21l100 -22q30 -9 97.5 -1.5t121.5 33.5q25 9 25 -14v-49q0 -18 -27 -27q-138 -53 -338 0zM1159 453v675q0 21 21 21h41q20 0 20 -21v-1110q0 -20 -20 -20h-41
q-21 0 -21 20v170q-26 -103 -108 -146.5t-254 -43.5h-256q-137 0 -220 24.5t-126 83.5q-44 59 -61 137.5t-17 209.5v677q0 21 20 21h41q21 0 21 -21v-677q0 -234 63 -303q64 -70 279 -70h276q100 0 157.5 14t100.5 51q84 73 84 308z" />
    <glyph glyph-name="Umacron" unicode="&#x16a;" horiz-adv-x="1660" 
d="M1106 1579h-551q-20 0 -20 20v41q0 21 20 21h551q20 0 20 -21v-41q0 -20 -20 -20zM1038 0h-415q-270 0 -377 119q-109 121 -109 379v927q0 21 21 21h41q20 0 20 -21v-927q0 -235 88 -326q90 -90 316 -90h415q226 0 316 90q88 91 88 326v927q0 21 20 21h41q21 0 21 -21
v-927q0 -258 -109 -379q-107 -119 -377 -119z" />
    <glyph glyph-name="umacron" unicode="&#x16b;" horiz-adv-x="1357" 
d="M414 1366h551q20 0 20 -20v-41q0 -21 -20 -21h-551q-21 0 -21 21v41q0 20 21 20zM1159 453v675q0 21 21 21h41q20 0 20 -21v-1110q0 -20 -20 -20h-41q-21 0 -21 20v170q-26 -103 -108 -146.5t-254 -43.5h-256q-137 0 -220 24.5t-126 83.5q-44 59 -61 137.5t-17 209.5v677
q0 21 20 21h41q21 0 21 -21v-677q0 -234 63 -303q64 -70 279 -70h276q100 0 157.5 14t100.5 51q84 73 84 308z" />
    <glyph glyph-name="Ubreve" unicode="&#x16c;" horiz-adv-x="1660" 
d="M596 1767v29q0 21 20 21h41q21 0 21 -21v-29q0 -78 32.5 -107.5t120.5 -29.5q90 0 121 27.5t31 105.5v33q0 21 21 21h40q21 0 21 -21v-33q0 -118 -56.5 -166.5t-177.5 -48.5q-119 0 -177 52t-58 167zM1038 0h-415q-270 0 -377 119q-109 121 -109 379v927q0 21 21 21h41
q20 0 20 -21v-927q0 -235 88 -326q90 -90 316 -90h415q226 0 316 90q88 91 88 326v927q0 21 20 21h41q21 0 21 -21v-927q0 -258 -109 -379q-107 -119 -377 -119z" />
    <glyph glyph-name="ubreve" unicode="&#x16d;" horiz-adv-x="1357" 
d="M455 1475v28q0 21 20 21h41q21 0 21 -21v-28q0 -78 33 -108t120 -30q90 0 121 27.5t31 105.5v33q0 21 20 21h41q21 0 21 -21v-33q0 -118 -56.5 -166.5t-177.5 -48.5q-119 0 -177 52.5t-58 167.5zM1159 453v675q0 21 21 21h41q20 0 20 -21v-1110q0 -20 -20 -20h-41
q-21 0 -21 20v170q-26 -103 -108 -146.5t-254 -43.5h-256q-137 0 -220 24.5t-126 83.5q-44 59 -61 137.5t-17 209.5v677q0 21 20 21h41q21 0 21 -21v-677q0 -234 63 -303q64 -70 279 -70h276q100 0 157.5 14t100.5 51q84 73 84 308z" />
    <glyph glyph-name="Uring" unicode="&#x16e;" horiz-adv-x="1660" 
d="M842 1548h-19q-184 0 -184 178v15q0 172 184 172h19q182 0 182 -172v-15q0 -90 -43 -134t-139 -44zM823 1630h19q60 0 80 19.5t20 76.5v15q0 54 -20 72t-80 18h-19q-59 0 -80.5 -19t-21.5 -71v-15q0 -56 21 -76t81 -20zM1038 0h-415q-270 0 -377 119q-109 121 -109 379
v927q0 21 21 21h41q20 0 20 -21v-927q0 -235 88 -326q90 -90 316 -90h415q226 0 316 90q88 91 88 326v927q0 21 20 21h41q21 0 21 -21v-927q0 -258 -109 -379q-107 -119 -377 -119z" />
    <glyph glyph-name="uring" unicode="&#x16f;" horiz-adv-x="1357" 
d="M680 1251h-18q-185 0 -185 179v14q0 172 185 172h18q182 0 182 -172v-14q0 -90 -43 -134.5t-139 -44.5zM559 1444v-14q0 -56 21.5 -76.5t81.5 -20.5h18q60 0 80 20t20 77v14q0 54 -20 72t-80 18h-18q-60 0 -81.5 -19.5t-21.5 -70.5zM1159 453v675q0 21 21 21h41
q20 0 20 -21v-1110q0 -20 -20 -20h-41q-21 0 -21 20v170q-26 -103 -108 -146.5t-254 -43.5h-256q-137 0 -220 24.5t-126 83.5q-44 59 -61 137.5t-17 209.5v677q0 21 20 21h41q21 0 21 -21v-677q0 -234 63 -303q64 -70 279 -70h276q100 0 157.5 14t100.5 51q84 73 84 308z
" />
    <glyph glyph-name="Uhungarumlaut" unicode="&#x170;" horiz-adv-x="1660" 
d="M680 1550h-25q-25 0 -16 25l90 219q6 16 23 16h59q29 0 14 -24l-120 -221q-6 -15 -25 -15zM979 1550h-25q-25 0 -16 25l90 219q6 16 23 16h59q29 0 14 -24l-120 -221q-6 -15 -25 -15zM1038 0h-415q-270 0 -377 119q-109 121 -109 379v927q0 21 21 21h41q20 0 20 -21v-927
q0 -235 88 -326q90 -90 316 -90h415q226 0 316 90q88 91 88 326v927q0 21 20 21h41q21 0 21 -21v-927q0 -258 -109 -379q-107 -119 -377 -119z" />
    <glyph glyph-name="uhungarumlaut" unicode="&#x171;" horiz-adv-x="1357" 
d="M602 1518h60q30 0 14 -25l-121 -221q-6 -15 -25 -15h-24q-26 0 -17 25l91 219q7 17 22 17zM901 1518h60q30 0 14 -25l-121 -221q-6 -15 -25 -15h-24q-26 0 -17 25l91 219q7 17 22 17zM1159 453v675q0 21 21 21h41q20 0 20 -21v-1110q0 -20 -20 -20h-41q-21 0 -21 20v170
q-26 -103 -108 -146.5t-254 -43.5h-256q-137 0 -220 24.5t-126 83.5q-44 59 -61 137.5t-17 209.5v677q0 21 20 21h41q21 0 21 -21v-677q0 -234 63 -303q64 -70 279 -70h276q100 0 157.5 14t100.5 51q84 73 84 308z" />
    <glyph glyph-name="Uogonek" unicode="&#x172;" horiz-adv-x="1660" 
d="M1442 498v927q0 21 20 21h41q21 0 21 -21v-927q0 -258 -109 -379q-107 -119 -377 -119h-53q-77 0 -108 -34.5t-31 -110.5q0 -97 36 -133t148 -37q21 0 21 -21v-41q0 -20 -21 -20q-156 3 -213 63q-53 59 -53 189q0 96 61 145h-202q-270 0 -377 119q-109 121 -109 379v927
q0 21 21 21h41q20 0 20 -21v-927q0 -235 88 -326q90 -90 316 -90h415q226 0 316 90q88 91 88 326z" />
    <glyph glyph-name="uogonek" unicode="&#x173;" horiz-adv-x="1357" 
d="M1272 -338v-41q0 -20 -21 -20q-156 3 -213 63q-53 59 -53 189q0 167 174 188v147q-26 -103 -108 -146.5t-254 -43.5h-256q-137 0 -220 24.5t-126 83.5q-44 59 -61 137.5t-17 209.5v677q0 21 20 21h41q21 0 21 -21v-677q0 -234 63 -303q64 -70 279 -70h276q100 0 157.5 14
t100.5 51q84 73 84 308v675q0 21 21 21h41q20 0 20 -21v-1110q0 -20 -20 -20q-90 -5 -122 -33.5t-32 -111.5q0 -97 36 -133t148 -37q21 0 21 -21z" />
    <glyph glyph-name="Wcircumflex" unicode="&#x174;" horiz-adv-x="2121" 
d="M813 1579l188 225q10 13 25 13h84q15 0 25 -13l188 -225q7 -11 3.5 -18t-15.5 -7h-62q-14 0 -24 13l-156 190l-158 -190q-10 -13 -24 -13h-62q-12 0 -15.5 7t3.5 18zM561 0h-47q-19 0 -25 16l-495 1407q-7 23 16 23h43q19 0 25 -16l459 -1309l477 1309q6 16 24 16h58
q18 0 24 -16l477 -1309l459 1309q6 16 25 16h43q23 0 16 -23l-495 -1407q-6 -16 -25 -16h-47q-19 0 -25 16l-481 1317l-481 -1317q-6 -16 -25 -16z" />
    <glyph glyph-name="wcircumflex" unicode="&#x175;" horiz-adv-x="1951" 
d="M729 1276l189 225q9 12 24 12h84q16 0 25 -12l188 -225q7 -10 3.5 -17.5t-15.5 -7.5h-62q-14 0 -24 13l-156 190l-158 -190q-10 -13 -24 -13h-62q-12 0 -15.5 7.5t3.5 17.5zM584 0h-68q-16 0 -22 16l-474 1110q-9 25 17 25h47q16 0 22 -16l443 -1059l387 1059q6 16 25 16
h49q18 0 24 -16l389 -1059l443 1059q6 16 22 16h47q26 0 17 -25l-475 -1110q-6 -16 -23 -16h-68q-16 0 -22 16l-379 1014l-379 -1014q-6 -16 -22 -16z" />
    <glyph glyph-name="Ycircumflex" unicode="&#x176;" horiz-adv-x="1521" 
d="M530 1577l189 225q10 13 24 13h84q15 0 25 -13l188 -225q8 -7 4 -16t-16 -9h-61q-15 0 -25 13l-156 190l-157 -190q-10 -13 -25 -13h-61q-12 0 -16.5 9t3.5 16zM795 0h-41q-21 0 -21 20v369l-751 1032q-8 7 -4 16t16 9h53q16 0 25 -12l702 -963l686 963q9 12 25 12h51
q12 0 16 -9t-4 -16l-733 -1030v-371q0 -20 -20 -20z" />
    <glyph glyph-name="ycircumflex" unicode="&#x177;" horiz-adv-x="1394" 
d="M451 1280l188 225q10 13 25 13h84q14 0 24 -13l189 -225q7 -10 3 -17.5t-16 -7.5h-61q-15 0 -25 13l-155 190l-158 -190q-10 -13 -25 -13h-61q-12 0 -15.5 7.5t3.5 17.5zM846 -403h-596q-21 0 -21 20v41q0 20 21 20h596q206 0 278 84t72 289v137q-26 -103 -108 -146.5
t-254 -43.5h-277q-137 0 -220 24.5t-126 83.5q-44 59 -61 137.5t-17 209.5v677q0 21 21 21h41q20 0 20 -21v-677q0 -233 64 -303t278 -70h297q100 0 157.5 14t100.5 51q84 73 84 308v675q0 21 21 21h40q21 0 21 -21v-1077q0 -229 -90 -342q-87 -112 -342 -112z" />
    <glyph glyph-name="Ydieresis" unicode="&#x178;" horiz-adv-x="1521" 
d="M649 1565h-41q-20 0 -20 20v223q0 21 20 21h41q21 0 21 -21v-223q0 -20 -21 -20zM958 1565h-40q-21 0 -21 20v223q0 21 21 21h40q21 0 21 -21v-223q0 -20 -21 -20zM795 0h-41q-21 0 -21 20v369l-751 1032q-8 7 -4 16t16 9h53q16 0 25 -12l702 -963l686 963q9 12 25 12h51
q12 0 16 -9t-4 -16l-733 -1030v-371q0 -20 -20 -20z" />
    <glyph glyph-name="Zacute" unicode="&#x179;" horiz-adv-x="1447" 
d="M748 1550h-25q-25 0 -16 25l92 219q6 16 22 16h60q29 0 14 -24l-123 -221q-6 -15 -24 -15zM1366 0h-1284q-21 0 -21 20v48q0 13 11 24l1202 1272h-1192q-21 0 -21 20v41q0 21 21 21h1284q20 0 20 -21v-47q0 -14 -10 -24l-1204 -1272h1194q20 0 20 -21v-41q0 -20 -20 -20z
" />
    <glyph glyph-name="zacute" unicode="&#x17a;" horiz-adv-x="1187" 
d="M590 1257h-25q-25 0 -16 25l92 219q7 17 23 17h59q30 0 14 -25l-123 -221q-9 -15 -24 -15zM1106 0h-1024q-21 0 -21 20v48q0 13 11 24l942 977h-932q-21 0 -21 21v40q0 21 21 21h1024q20 0 20 -21v-47q0 -14 -10 -24l-940 -977h930q20 0 20 -21v-41q0 -20 -20 -20z" />
    <glyph glyph-name="Zdotaccent" unicode="&#x17b;" horiz-adv-x="1447" 
d="M745 1565h-40q-21 0 -21 20v221q0 21 21 21h40q21 0 21 -21v-221q0 -20 -21 -20zM1366 0h-1284q-21 0 -21 20v48q0 13 11 24l1202 1272h-1192q-21 0 -21 20v41q0 21 21 21h1284q20 0 20 -21v-47q0 -14 -10 -24l-1204 -1272h1194q20 0 20 -21v-41q0 -20 -20 -20z" />
    <glyph glyph-name="zdotaccent" unicode="&#x17c;" horiz-adv-x="1187" 
d="M588 1268h-41q-21 0 -21 20v221q0 21 21 21h41q20 0 20 -21v-221q0 -20 -20 -20zM1106 0h-1024q-21 0 -21 20v48q0 13 11 24l942 977h-932q-21 0 -21 21v40q0 21 21 21h1024q20 0 20 -21v-47q0 -14 -10 -24l-940 -977h930q20 0 20 -21v-41q0 -20 -20 -20z" />
    <glyph glyph-name="Zcaron" unicode="&#x17d;" horiz-adv-x="1447" 
d="M766 1546h-84q-15 0 -25 13l-188 225q-7 10 -3.5 17t15.5 7h62q15 0 24 -12l158 -190l156 190q9 12 24 12h62q12 0 15.5 -7t-3.5 -17l-188 -225q-10 -13 -25 -13zM1366 0h-1284q-21 0 -21 20v48q0 13 11 24l1202 1272h-1192q-21 0 -21 20v41q0 21 21 21h1284q20 0 20 -21
v-47q0 -14 -10 -24l-1204 -1272h1194q20 0 20 -21v-41q0 -20 -20 -20z" />
    <glyph glyph-name="zcaron" unicode="&#x17e;" horiz-adv-x="1187" 
d="M608 1255h-84q-14 0 -24 13l-189 225q-7 11 -3 18t16 7h61q15 0 25 -13l157 -190l156 190q10 13 25 13h61q12 0 15.5 -7t-3.5 -18l-188 -225q-10 -13 -25 -13zM1106 0h-1024q-21 0 -21 20v48q0 13 11 24l942 977h-932q-21 0 -21 21v40q0 21 21 21h1024q20 0 20 -21v-47
q0 -14 -10 -24l-940 -977h930q20 0 20 -21v-41q0 -20 -20 -20z" />
    <glyph glyph-name="florin" unicode="&#x192;" horiz-adv-x="851" 
d="M317 -403h-41q-20 0 -20 20v1452h-190q-21 0 -21 21v40q0 21 21 21h190q0 218 84 311q83 92 322 92h129q20 0 20 -20v-41q0 -20 -20 -20h-129q-195 0 -259 -64q-65 -65 -65 -258h453q20 0 20 -21v-40q0 -21 -20 -21h-453v-1452q0 -20 -21 -20z" />
    <glyph glyph-name="Scommaaccent" unicode="&#x218;" horiz-adv-x="1529" 
d="M942 0h-375q-270 0 -377 104q-105 108 -108 363q0 20 20 20h41q21 0 21 -20q3 -225 86 -305q86 -80 317 -80h375q248 0 334 63q90 66 90 242q0 155 -82 207q-83 56 -299 74l-438 37q-251 21 -354 92q-101 73 -101 264q0 207 111 295q113 90 395 90h344q271 0 375 -107
q107 -104 110 -360q0 -21 -20 -21h-41q-20 0 -20 21q-3 225 -89 305q-83 80 -315 80h-344q-248 0 -336 -64t-88 -239q0 -153 78 -207q80 -50 301 -68l438 -36q248 -21 352 -97q105 -77 105 -266q0 -211 -111 -299q-110 -88 -395 -88zM686 -403h-24q-23 0 -17 22l60 248
q3 18 22 18h61q26 0 17 -24l-96 -248q-6 -16 -23 -16z" />
    <glyph glyph-name="scommaaccent" unicode="&#x219;" horiz-adv-x="1239" 
d="M748 0h-621q-21 0 -21 20v41q0 21 21 21h621q208 0 276 45q72 47 72 162q0 118 -58 164q-56 47 -235 65l-381 37q-199 21 -270 86q-70 64 -70 215q0 155 97 225t315 70h602q20 0 20 -21v-40q0 -21 -20 -21h-602q-186 0 -258 -48t-72 -165q0 -114 49 -160q53 -44 217 -59
l381 -37q217 -21 291 -92q76 -70 76 -219q0 -158 -97.5 -223.5t-332.5 -65.5zM541 -403h-25q-22 0 -16 22l59 248q3 18 23 18h61q25 0 16 -24l-96 -248q-6 -16 -22 -16z" />
    <glyph glyph-name="circumflex" unicode="&#x2c6;" horiz-adv-x="1142" 
d="M319 1208l189 226q9 12 24 12h84q16 0 25 -12l188 -226q8 -8 4 -16t-16 -8h-61q-16 0 -25 12l-156 190l-157 -190q-9 -12 -25 -12h-61q-12 0 -16.5 8t3.5 16z" />
    <glyph glyph-name="caron" unicode="&#x2c7;" horiz-adv-x="1142" 
d="M616 1184h-84q-15 0 -24 12l-189 225q-8 7 -3.5 16t16.5 9h61q16 0 25 -12l157 -191l156 191q9 12 25 12h61q12 0 16 -9t-4 -16l-188 -225q-9 -12 -25 -12z" />
    <glyph glyph-name="breve" unicode="&#x2d8;" horiz-adv-x="1142" 
d="M336 1397v28q0 21 20 21h41q21 0 21 -21v-28q0 -78 32.5 -107.5t120.5 -29.5q90 0 121 27.5t31 105.5v32q0 21 20 21h41q21 0 21 -21v-32q0 -118 -56.5 -166.5t-177.5 -48.5q-119 0 -177 52t-58 167z" />
    <glyph glyph-name="dotaccent" unicode="&#x2d9;" horiz-adv-x="1142" 
d="M594 1184h-41q-21 0 -21 20v221q0 21 21 21h41q20 0 20 -21v-221q0 -20 -20 -20z" />
    <glyph glyph-name="ring" unicode="&#x2da;" horiz-adv-x="1142" 
d="M584 1178h-19q-184 0 -184 178v14q0 172 184 172h19q182 0 182 -172v-14q0 -90 -43 -134t-139 -44zM565 1260h19q60 0 80 19.5t20 76.5v14q0 54 -20 72t-80 18h-19q-59 0 -80.5 -19t-21.5 -71v-14q0 -56 21 -76t81 -20z" />
    <glyph glyph-name="ogonek" unicode="&#x2db;" horiz-adv-x="1142" 
d="M817 -336v-41q0 -20 -20 -20q-156 3 -213 63q-54 60 -54 189q0 181 201 190q21 0 21 -20v-5q0 -20 -21 -20q-66 -6 -92.5 -40.5t-26.5 -104.5q0 -97 36.5 -133t148.5 -37q20 0 20 -21z" />
    <glyph glyph-name="tilde" unicode="&#x2dc;" horiz-adv-x="1142" 
d="M287 1219q-25 -9 -25 14v47q0 16 17 23q47 19 108 22q62 3 88 -2q44 -8 92 -20l101 -23q30 -9 97.5 -1.5t121.5 34.5q24 9 24 -15v-49q0 -16 -16 -22q-146 -62 -348 -4q-83 21 -129 24q-40 3 -131 -28z" />
    <glyph glyph-name="hungarumlaut" unicode="&#x2dd;" horiz-adv-x="1142" 
d="M403 1186h-24q-26 0 -17 24l91 220q6 16 22 16h60q30 0 14 -25l-121 -221q-6 -14 -25 -14zM702 1186h-24q-25 0 -16 24l90 220q6 16 22 16h60q30 0 14 -25l-121 -221q-6 -14 -25 -14z" />
    <glyph glyph-name="uni0326" unicode="&#x326;" horiz-adv-x="0" 
d="M-688 -403h-25q-22 0 -16 22l59 248q3 18 23 18h61q26 0 17 -24l-97 -248q-6 -16 -22 -16z" />
    <glyph glyph-name="pi" unicode="&#x3c0;" horiz-adv-x="1714" 
d="M1126 0h-538q-272 0 -381 127q-105 129 -105 371v448q0 245 105 371q108 129 381 129h538q274 0 379 -129q107 -125 107 -371v-448q0 -243 -107 -371q-106 -127 -379 -127zM588 82h538q221 0 312.5 94.5t91.5 321.5v448q0 227 -92 322.5t-312 95.5h-538
q-220 0 -312 -95.5t-92 -322.5v-448q0 -227 91.5 -321.5t312.5 -94.5zM539 293h-41q-21 0 -21 20v811q0 21 21 21h442q210 0 281 -80q73 -76 73 -225v-13q0 -131 -73 -204q-75 -72 -281 -72h-381v-238q0 -20 -20 -20zM559 1063v-430h381q166 0 219 47t53 147v13
q0 119 -51 170q-53 53 -221 53h-381z" />
    <glyph glyph-name="uni1E02" unicode="&#x1e02;" horiz-adv-x="1517" 
d="M768 1552h-41q-20 0 -20 21v221q0 21 20 21h41q20 0 20 -21v-221q0 -21 -20 -21zM942 0h-792q-21 0 -21 20v1405q0 21 21 21h778q259 0 373 -88.5t114 -286.5v-20q0 -172 -78 -244q-38 -35 -67 -51.5t-74 -30.5q46 -14 77 -32t68 -54q84 -75 84 -254v-18
q0 -197 -112 -282t-371 -85zM211 1364v-598h807q168 0 241.5 68t73.5 217v20q0 161 -89.5 227t-315.5 66h-717zM211 684v-602h731q229 0 313 63q88 64 88 222v18q0 153 -78 226t-247 73h-807z" />
    <glyph glyph-name="uni1E03" unicode="&#x1e03;" horiz-adv-x="1394" 
d="M561 1151h318q137 0 220 -25t126 -84q44 -59 61 -137t17 -209v-247q0 -127 -17 -204t-61 -136q-43 -59 -126 -84t-220 -25h-318q-171 0 -253 44.5t-109 145.5v-170q0 -20 -21 -20h-41q-20 0 -20 20v1514q0 20 20 20h41q21 0 21 -20v-573q26 103 108 146.5t254 43.5z
M711 1530h41q20 0 20 -21v-221q0 -20 -20 -20h-41q-21 0 -21 20v221q0 21 21 21zM1221 449v247q0 229 -66 301t-276 72h-338q-100 0 -157.5 -14t-100.5 -51q-84 -73 -84 -308v-247q0 -231 84 -304q46 -36 104 -49.5t154 -13.5h338q212 0 276 70q66 72 66 297z" />
    <glyph glyph-name="uni1E0A" unicode="&#x1e0a;" horiz-adv-x="1630" 
d="M852 1550h-41q-20 0 -20 21v221q0 20 20 20h41q20 0 20 -20v-221q0 -21 -20 -21zM1044 0h-894q-21 0 -21 20v1405q0 21 21 21h894q272 0 377 -123q107 -122 107 -420v-368q0 -297 -107 -416q-104 -119 -377 -119zM211 1364v-1282h833q236 0 318 94q84 96 84 359v368
q0 267 -84 363q-82 98 -318 98h-833z" />
    <glyph glyph-name="uni1E0B" unicode="&#x1e0b;" horiz-adv-x="1394" 
d="M1196 961v573q0 20 21 20h40q21 0 21 -20v-1514q0 -20 -21 -20h-40q-21 0 -21 20v170q-27 -101 -109 -145.5t-253 -44.5h-318q-137 0 -220 25t-126 84q-44 59 -61 136t-17 204v247q0 131 17 209t61 137q43 59 126 84t220 25h318q172 0 254 -43.5t108 -146.5zM653 1530h41
q21 0 21 -21v-221q0 -20 -21 -20h-41q-20 0 -20 20v221q0 21 20 21zM516 82h338q97 0 155 13.5t101 49.5q46 37 66 110.5t20 193.5v247q0 235 -84 308q-43 37 -100.5 51t-157.5 14h-338q-212 0 -278 -72q-64 -70 -64 -301v-247q0 -225 66 -297q64 -70 276 -70z" />
    <glyph glyph-name="uni1E1E" unicode="&#x1e1e;" horiz-adv-x="1359" 
d="M745 1552h-40q-21 0 -21 21v221q0 21 21 21h40q21 0 21 -21v-221q0 -21 -21 -21zM190 0h-40q-21 0 -21 20v1405q0 21 21 21h1148q21 0 21 -21v-41q0 -20 -21 -20h-1087v-578h782q21 0 21 -20v-41q0 -20 -21 -20h-782v-685q0 -20 -21 -20z" />
    <glyph glyph-name="uni1E1F" unicode="&#x1e1f;" horiz-adv-x="827" 
d="M518 1659h-41q-20 0 -20 20v222q0 20 20 20h41q21 0 21 -20v-222q0 -20 -21 -20zM293 0h-41q-21 0 -21 20v1049h-190q-21 0 -21 21v40q0 21 21 21h190q0 125 15 194t57 119q43 50 121.5 70t212.5 20h129q20 0 20 -20v-41q0 -20 -20 -20h-129q-208 0 -266 -58
q-58 -55 -58 -264h453q20 0 20 -21v-40q0 -21 -20 -21h-453v-1049q0 -20 -20 -20z" />
    <glyph glyph-name="uni1E40" unicode="&#x1e40;" horiz-adv-x="1832" 
d="M938 1563h-41q-20 0 -20 20v221q0 21 20 21h41q20 0 20 -21v-221q0 -20 -20 -20zM190 0h-40q-21 0 -21 20v1405q0 21 21 21h49q16 0 24 -14l695 -1084l696 1084q8 14 24 14h45q21 0 21 -21v-1405q0 -20 -21 -20h-41q-20 0 -20 20v1285l-655 -1020q-9 -15 -25 -15h-49
q-16 0 -25 15l-657 1028v-1293q0 -20 -21 -20z" />
    <glyph glyph-name="uni1E41" unicode="&#x1e41;" horiz-adv-x="1943" 
d="M975 1530h41q20 0 20 -21v-221q0 -20 -20 -20h-41q-21 0 -21 20v221q0 21 21 21zM1382 1151h35q137 0 220 -25t126 -84q44 -59 61 -137t17 -209v-678q0 -20 -20 -20h-41q-21 0 -21 20v678q0 230 -65 301q-66 72 -277 72h-55q-100 0 -157.5 -14t-100.5 -51
q-84 -73 -84 -308v-678q0 -20 -21 -20h-41q-20 0 -20 20v678q0 229 -66 301t-276 72h-55q-100 0 -157.5 -14t-100.5 -51q-84 -73 -84 -308v-676q0 -20 -21 -20h-41q-20 0 -20 20v1110q0 21 20 21h41q21 0 21 -21v-169q26 103 108 146.5t254 43.5h35q190 0 282 -53.5
t123 -179.5q24 126 108.5 179.5t272.5 53.5z" />
    <glyph glyph-name="uni1E56" unicode="&#x1e56;" horiz-adv-x="1540" 
d="M758 1563h-41q-21 0 -21 20v221q0 21 21 21h41q20 0 20 -21v-221q0 -20 -20 -20zM190 0h-40q-21 0 -21 20v1405q0 21 21 21h745q324 0 444 -105q119 -104 119 -364v-12q0 -260 -119 -361q-115 -100 -444 -100h-684v-484q0 -20 -21 -20zM211 1364v-778h684q291 0 385 76
q96 78 96 303v12q0 233 -98 309q-96 78 -383 78h-684z" />
    <glyph glyph-name="uni1E57" unicode="&#x1e57;" horiz-adv-x="1394" 
d="M686 1530h41q21 0 21 -21v-221q0 -20 -21 -20h-41q-20 0 -20 20v221q0 21 20 21zM561 1151h318q137 0 220 -25t126 -84q44 -59 61 -136t17 -204v-247q0 -131 -17 -209t-61 -137q-43 -59 -126 -84t-220 -25h-318q-172 0 -254 43.5t-108 146.5v-573q0 -20 -21 -20h-41
q-20 0 -20 20v1513q0 21 20 21h41q21 0 21 -21v-169q27 101 109 145.5t253 44.5zM1221 455v247q0 223 -66 295t-276 72h-338q-97 0 -154.5 -14t-103.5 -51q-84 -70 -84 -302v-247q0 -235 84 -308q43 -37 100.5 -51t157.5 -14h338q212 0 276 70q66 72 66 303z" />
    <glyph glyph-name="uni1E60" unicode="&#x1e60;" horiz-adv-x="1529" 
d="M776 1561h-41q-20 0 -20 20v221q0 21 20 21h41q21 0 21 -21v-221q0 -20 -21 -20zM942 0h-375q-270 0 -377 104q-105 108 -108 363q0 20 20 20h41q21 0 21 -20q3 -225 86 -305q86 -80 317 -80h375q248 0 334 63q90 66 90 242q0 155 -82 207q-83 56 -299 74l-438 37
q-251 21 -354 92q-101 73 -101 264q0 207 111 295q113 90 395 90h344q271 0 375 -107q107 -104 110 -360q0 -21 -20 -21h-41q-20 0 -20 21q-3 225 -89 305q-83 80 -315 80h-344q-248 0 -336 -64t-88 -239q0 -153 78 -207q80 -50 301 -68l438 -36q248 -21 352 -97
q105 -77 105 -266q0 -211 -111 -299q-110 -88 -395 -88z" />
    <glyph glyph-name="uni1E61" unicode="&#x1e61;" horiz-adv-x="1239" 
d="M659 1266h-41q-20 0 -20 20v221q0 21 20 21h41q21 0 21 -21v-221q0 -20 -21 -20zM748 0h-621q-21 0 -21 20v41q0 21 21 21h621q208 0 276 45q72 47 72 162q0 118 -58 164q-56 47 -235 65l-381 37q-199 21 -270 86q-70 64 -70 215q0 155 97 225t315 70h602q20 0 20 -21
v-40q0 -21 -20 -21h-602q-186 0 -258 -48t-72 -165q0 -114 49 -160q53 -44 217 -59l381 -37q217 -21 291 -92q76 -70 76 -219q0 -158 -97.5 -223.5t-332.5 -65.5z" />
    <glyph glyph-name="uni1E6A" unicode="&#x1e6a;" horiz-adv-x="1341" 
d="M692 1565h-41q-20 0 -20 20v221q0 21 20 21h41q21 0 21 -21v-221q0 -20 -21 -20zM692 0h-41q-20 0 -20 20v1344h-576q-20 0 -20 20v41q0 21 20 21h1231q21 0 21 -21v-41q0 -20 -21 -20h-573v-1344q0 -20 -21 -20z" />
    <glyph glyph-name="uni1E6B" unicode="&#x1e6b;" horiz-adv-x="950" 
d="M328 1528h-41q-21 0 -21 20v221q0 21 21 21h41q20 0 20 -21v-221q0 -20 -20 -20zM868 0h-182q-266 0 -360 102q-95 103 -95 332v635h-190q-21 0 -21 21v40q0 21 21 21h88q28 1 58 12.5t38 22.5q11 14 19 49q10 51 10 188q0 23 20 23h19q20 0 20 -21v-274h555q21 0 21 -21
v-40q0 -21 -21 -21h-555v-635q0 -205 76 -278q77 -74 297 -74h182q21 0 21 -21v-41q0 -20 -21 -20z" />
    <glyph glyph-name="Wgrave" unicode="&#x1e80;" horiz-adv-x="2121" 
d="M1067 1550h-25q-18 0 -24 15l-121 221q-15 24 14 24h60q16 0 22 -16l90 -219q9 -25 -16 -25zM561 0h-47q-19 0 -25 16l-495 1407q-7 23 16 23h43q19 0 25 -16l459 -1309l477 1309q6 16 24 16h58q18 0 24 -16l477 -1309l459 1309q6 16 25 16h43q23 0 16 -23l-495 -1407
q-6 -16 -25 -16h-47q-19 0 -25 16l-481 1317l-481 -1317q-6 -16 -25 -16z" />
    <glyph glyph-name="wgrave" unicode="&#x1e81;" horiz-adv-x="1951" 
d="M985 1257h-24q-19 0 -25 15l-121 221q-16 25 14 25h60q15 0 22 -17l90 -219q9 -25 -16 -25zM584 0h-68q-16 0 -22 16l-474 1110q-9 25 17 25h47q16 0 22 -16l443 -1059l387 1059q6 16 25 16h49q18 0 24 -16l389 -1059l443 1059q6 16 22 16h47q26 0 17 -25l-475 -1110
q-6 -16 -23 -16h-68q-16 0 -22 16l-379 1014l-379 -1014q-6 -16 -22 -16z" />
    <glyph glyph-name="Wacute" unicode="&#x1e82;" horiz-adv-x="2121" 
d="M1098 1556h-25q-25 0 -16 25l92 219q7 17 22 17h60q30 0 14 -25l-123 -221q-6 -15 -24 -15zM561 0h-47q-19 0 -25 16l-495 1407q-7 23 16 23h43q19 0 25 -16l459 -1309l477 1309q6 16 24 16h58q18 0 24 -16l477 -1309l459 1309q6 16 25 16h43q23 0 16 -23l-495 -1407
q-6 -16 -25 -16h-47q-19 0 -25 16l-481 1317l-481 -1317q-6 -16 -25 -16z" />
    <glyph glyph-name="wacute" unicode="&#x1e83;" horiz-adv-x="1951" 
d="M1010 1255h-25q-25 0 -16 25l92 219q7 17 22 17h60q30 0 14 -25l-123 -221q-9 -15 -24 -15zM584 0h-68q-16 0 -22 16l-474 1110q-9 25 17 25h47q16 0 22 -16l443 -1059l387 1059q6 16 25 16h49q18 0 24 -16l389 -1059l443 1059q6 16 22 16h47q26 0 17 -25l-475 -1110
q-6 -16 -23 -16h-68q-16 0 -22 16l-379 1014l-379 -1014q-6 -16 -22 -16z" />
    <glyph glyph-name="Wdieresis" unicode="&#x1e84;" horiz-adv-x="2121" 
d="M934 1559h-41q-21 0 -21 20v223q0 21 21 21h41q20 0 20 -21v-223q0 -20 -20 -20zM1243 1559h-41q-20 0 -20 20v223q0 21 20 21h41q21 0 21 -21v-223q0 -20 -21 -20zM561 0h-47q-19 0 -25 16l-495 1407q-7 23 16 23h43q19 0 25 -16l459 -1309l477 1309q6 16 24 16h58
q18 0 24 -16l477 -1309l459 1309q6 16 25 16h43q23 0 16 -23l-495 -1407q-6 -16 -25 -16h-47q-19 0 -25 16l-481 1317l-481 -1317q-6 -16 -25 -16z" />
    <glyph glyph-name="wdieresis" unicode="&#x1e85;" horiz-adv-x="1951" 
d="M848 1264h-41q-21 0 -21 20v223q0 21 21 21h41q20 0 20 -21v-223q0 -20 -20 -20zM1157 1264h-41q-20 0 -20 20v223q0 21 20 21h41q21 0 21 -21v-223q0 -20 -21 -20zM584 0h-68q-16 0 -22 16l-474 1110q-9 25 17 25h47q16 0 22 -16l443 -1059l387 1059q6 16 25 16h49
q18 0 24 -16l389 -1059l443 1059q6 16 22 16h47q26 0 17 -25l-475 -1110q-6 -16 -23 -16h-68q-16 0 -22 16l-379 1014l-379 -1014q-6 -16 -22 -16z" />
    <glyph glyph-name="Ygrave" unicode="&#x1ef2;" horiz-adv-x="1521" 
d="M756 1552h-25q-18 0 -24 15l-121 221q-15 24 14 24h59q17 0 23 -16l90 -219q9 -25 -16 -25zM795 0h-41q-21 0 -21 20v369l-751 1032q-8 7 -4 16t16 9h53q16 0 25 -12l702 -963l686 963q9 12 25 12h51q12 0 16 -9t-4 -16l-733 -1030v-371q0 -20 -20 -20z" />
    <glyph glyph-name="ygrave" unicode="&#x1ef3;" horiz-adv-x="1394" 
d="M713 1262h-25q-18 0 -24 14l-121 221q-16 25 14 25h59q16 0 23 -17l90 -219q9 -24 -16 -24zM846 -403h-596q-21 0 -21 20v41q0 20 21 20h596q206 0 278 84t72 289v137q-26 -103 -108 -146.5t-254 -43.5h-277q-137 0 -220 24.5t-126 83.5q-44 59 -61 137.5t-17 209.5v677
q0 21 21 21h41q20 0 20 -21v-677q0 -233 64 -303t278 -70h297q100 0 157.5 14t100.5 51q84 73 84 308v675q0 21 21 21h40q21 0 21 -21v-1077q0 -229 -90 -342q-87 -112 -342 -112z" />
    <glyph glyph-name="endash" unicode="&#x2013;" horiz-adv-x="964" 
d="M879 549h-793q-20 0 -20 20v41q0 21 20 21h793q20 0 20 -21v-41q0 -20 -20 -20z" />
    <glyph glyph-name="emdash" unicode="&#x2014;" horiz-adv-x="1218" 
d="M1133 549h-1047q-20 0 -20 20v41q0 21 20 21h1047q20 0 20 -21v-41q0 -20 -20 -20z" />
    <glyph glyph-name="quoteleft" unicode="&#x2018;" horiz-adv-x="454" 
d="M174 784h-61q-11 0 -15.5 6.5t-1.5 16.5l209 623q6 16 25 16h24q26 0 19 -23l-176 -622q-7 -17 -23 -17z" />
    <glyph glyph-name="quoteright" unicode="&#x2019;" horiz-adv-x="454" 
d="M137 784h-24q-26 0 -19 23l176 623q6 16 23 16h61q11 0 15.5 -6.5t1.5 -16.5l-209 -622q-7 -17 -25 -17z" />
    <glyph glyph-name="quotesinglbase" unicode="&#x201a;" horiz-adv-x="454" 
d="M137 -268h-24q-25 0 -19 22l176 623q6 16 23 16h61q23 0 17 -22l-209 -623q-6 -16 -25 -16z" />
    <glyph glyph-name="quotedblleft" unicode="&#x201c;" horiz-adv-x="768" 
d="M174 784h-61q-11 0 -15.5 6.5t-1.5 16.5l209 623q6 16 25 16h24q26 0 19 -23l-176 -622q-7 -17 -23 -17zM487 784h-61q-23 0 -16 23l208 623q6 16 25 16h25q25 0 18 -23l-176 -622q-7 -17 -23 -17z" />
    <glyph glyph-name="quotedblright" unicode="&#x201d;" horiz-adv-x="768" 
d="M137 784h-24q-26 0 -19 23l176 623q6 16 23 16h61q11 0 15.5 -6.5t1.5 -16.5l-209 -622q-7 -17 -25 -17zM451 784h-25q-25 0 -18 23l176 623q6 16 22 16h62q23 0 16 -23l-209 -622q-7 -17 -24 -17z" />
    <glyph glyph-name="quotedblbase" unicode="&#x201e;" horiz-adv-x="768" 
d="M137 -268h-24q-25 0 -19 22l176 623q6 16 23 16h61q23 0 17 -22l-209 -623q-6 -16 -25 -16zM451 -268h-25q-24 0 -18 22l176 623q6 16 22 16h62q22 0 16 -22l-209 -623q-6 -16 -24 -16z" />
    <glyph glyph-name="dagger" unicode="&#x2020;" horiz-adv-x="606" 
d="M344 1151h176q21 0 21 -21v-40q0 -21 -21 -21h-176v-1153q0 -20 -20 -20h-41q-21 0 -21 20v1153h-176q-20 0 -20 21v40q0 21 20 21h176v274q0 21 21 21h41q20 0 20 -21v-274z" />
    <glyph glyph-name="daggerdbl" unicode="&#x2021;" horiz-adv-x="606" 
d="M541 1130v-40q0 -21 -21 -21h-176v-260h176q21 0 21 -21v-40q0 -21 -21 -21h-176v-811q0 -20 -20 -20h-41q-21 0 -21 20v811h-176q-20 0 -20 21v40q0 21 20 21h176v260h-176q-20 0 -20 21v40q0 21 20 21h176v274q0 21 21 21h41q20 0 20 -21v-274h176q21 0 21 -21z" />
    <glyph glyph-name="bullet" unicode="&#x2022;" horiz-adv-x="1060" 
d="M653 190h-245q-160 0 -233 83t-73 247v178q0 324 306 324h245q160 0 232.5 -81t72.5 -243v-178q0 -166 -72.5 -248t-232.5 -82z" />
    <glyph glyph-name="ellipsis" unicode="&#x2026;" horiz-adv-x="983" 
d="M190 0h-40q-21 0 -21 20v256q0 21 21 21h40q21 0 21 -21v-256q0 -20 -21 -20zM512 0h-41q-20 0 -20 20v256q0 21 20 21h41q20 0 20 -21v-256q0 -20 -20 -20zM834 0h-41q-21 0 -21 20v256q0 21 21 21h41q20 0 20 -21v-256q0 -20 -20 -20z" />
    <glyph glyph-name="perthousand" unicode="&#x2030;" horiz-adv-x="3411" 
d="M569 516h-69q-222 0 -323 113.5t-101 341.5v26q0 223 101 336t323 113h69q222 0 323 -113t101 -336v-26q0 -228 -101 -341.5t-323 -113.5zM922 0h-43q-23 0 -17 25l531 1405q6 16 22 16h43q23 0 17 -25l-531 -1405q-6 -16 -22 -16zM500 598h69q183 0 262.5 86t79.5 287
v26q0 195 -79.5 281t-262.5 86h-69q-183 0 -262.5 -86t-79.5 -281v-26q0 -201 79.5 -287t262.5 -86zM1841 0h-69q-222 0 -323 113.5t-101 341.5v26q0 223 101 336t323 113h69q222 0 323 -113t101 -336v-26q0 -228 -101 -341.5t-323 -113.5zM2912 0h-69q-222 0 -323 113.5
t-101 341.5v26q0 223 101 336t323 113h69q222 0 323 -113t101 -336v-26q0 -228 -101 -341.5t-323 -113.5zM1772 82h69q183 0 262.5 86t79.5 287v26q0 195 -79.5 281t-262.5 86h-69q-183 0 -262.5 -86t-79.5 -281v-26q0 -201 79.5 -287t262.5 -86zM2843 82h69q183 0 262.5 86
t79.5 287v26q0 195 -79.5 281t-262.5 86h-69q-183 0 -262.5 -86t-79.5 -281v-26q0 -201 79.5 -287t262.5 -86z" />
    <glyph glyph-name="guilsinglleft" unicode="&#x2039;" horiz-adv-x="522" 
d="M416 170h-35q-16 0 -25 12l-272 389q-9 15 0 29l272 389q9 12 25 12h35q29 0 14 -24l-235 -391l235 -391q16 -25 -14 -25z" />
    <glyph glyph-name="guilsinglright" unicode="&#x203a;" horiz-adv-x="520" 
d="M164 170h-35q-30 0 -14 25l233 391l-233 391q-15 24 14 24h35q15 0 24 -12l271 -389q9 -14 0 -29l-271 -389q-9 -12 -24 -12z" />
    <glyph glyph-name="Euro" unicode="&#x20ac;" horiz-adv-x="1660" 
d="M1559 946v-37q0 -20 -21 -20h-41q-20 0 -20 20v37q0 238 -88 326q-89 92 -316 92h-457q-226 0 -315 -92q-88 -88 -88 -326v-164h760q20 0 20 -20v-41q0 -21 -20 -21h-760v-202q0 -235 88 -326q90 -90 315 -90h457q226 0 316 90q88 91 88 326v59q0 21 20 21h41
q21 0 21 -21v-59q0 -258 -109 -379q-107 -119 -377 -119h-457q-269 0 -376 119q-109 121 -109 379v202h-90q-21 0 -21 21v41q0 20 21 20h90v164q0 258 109 379t376 121h457q268 0 377 -121t109 -379z" />
    <glyph glyph-name="trademark" unicode="&#x2122;" horiz-adv-x="1681" 
d="M354 700h-41q-20 0 -20 21v643h-232q-20 0 -20 20v41q0 21 20 21h543q21 0 21 -21v-41q0 -20 -21 -20h-229v-643q0 -21 -21 -21zM788 700h-40q-21 0 -21 21v704q0 21 21 21h53q16 0 24 -14l316 -545l315 545q8 14 25 14h51q20 0 20 -21v-704q0 -21 -20 -21h-41
q-21 0 -21 21v584l-280 -500q-8 -14 -25 -14h-49q-16 0 -24 14l-283 500v-584q0 -21 -21 -21z" />
    <glyph glyph-name="minus" unicode="&#x2212;" horiz-adv-x="1120" 
d="M1014 684h-908q-20 0 -20 21v40q0 21 20 21h908q20 0 20 -21v-40q0 -21 -20 -21z" />
    <glyph glyph-name="notequal" unicode="&#x2260;" horiz-adv-x="1579" 
 />
    <glyph glyph-name="NULL" horiz-adv-x="0" 
 />
    <glyph glyph-name="CR" horiz-adv-x="681" 
 />
    <glyph glyph-name="a.ss01" horiz-adv-x="1394" 
d="M1196 961v169q0 21 21 21h40q21 0 21 -21v-1110q0 -20 -21 -20h-40q-21 0 -21 20v170q-27 -101 -109 -145.5t-253 -44.5h-318q-137 0 -220 25t-126 84q-44 59 -61 136t-17 204v247q0 131 17 209t61 137q43 59 126 84t220 25h318q172 0 254 -43.5t108 -146.5zM516 82h338
q97 0 155 13.5t101 49.5q46 37 66 110.5t20 193.5v247q0 235 -84 308q-43 37 -100.5 51t-157.5 14h-338q-212 0 -278 -72q-64 -70 -64 -301v-247q0 -225 66 -297q64 -70 276 -70z" />
    </font>
</defs>
</svg>
